<svg id="Charts" xmlns="http://www.w3.org/2000/svg" xmlns:xlink="http://www.w3.org/1999/xlink" viewBox="0 0 418.65 296.34"><defs><style>.cls-1,.cls-13,.cls-2,.cls-4,.cls-5,.cls-7{fill:none;}.cls-13,.cls-14,.cls-2,.cls-4,.cls-5,.cls-7,.cls-9{stroke:#fff;stroke-miterlimit:10;}.cls-14,.cls-2{stroke-width:0.69px;}.cls-3{clip-path:url(#clip-path);}.cls-4{stroke-width:1.12px;}.cls-14,.cls-6,.cls-9{fill:#fff;}.cls-14,.cls-7,.cls-8{opacity:0.4;}.cls-9{stroke-width:1.4px;}.cls-10{clip-path:url(#clip-path-2);}.cls-11{fill:#016d3d;opacity:0.8;}.cls-12{clip-path:url(#clip-path-3);}.cls-13{stroke-width:0.55px;}</style><clipPath id="clip-path"><rect class="cls-1" x="231.02" y="-265.63" width="140.72" height="188.38"/></clipPath><clipPath id="clip-path-2"><rect class="cls-1" x="231.02" y="102.16" width="140.72" height="165.65"/></clipPath><clipPath id="clip-path-3"><rect class="cls-2" x="216.86" y="35.84" width="10.29" height="10.29"/></clipPath></defs><title>Charts_</title><g class="cls-3"><line class="cls-4" x1="229.93" y1="5.77" x2="427.92" y2="-192.22"/><line class="cls-4" x1="229.93" y1="14.17" x2="427.92" y2="-183.82"/><line class="cls-4" x1="229.93" y1="22.57" x2="427.92" y2="-175.42"/><line class="cls-4" x1="229.93" y1="30.97" x2="427.92" y2="-167.02"/><line class="cls-4" x1="229.93" y1="39.37" x2="427.92" y2="-158.62"/><line class="cls-4" x1="229.93" y1="47.77" x2="427.92" y2="-150.22"/><line class="cls-4" x1="229.93" y1="56.17" x2="427.92" y2="-141.82"/><line class="cls-4" x1="229.93" y1="64.57" x2="427.92" y2="-133.42"/></g><line class="cls-5" x1="27.77" y1="267.81" x2="418.65" y2="267.81"/><path class="cls-6" d="M3.68,234H2l0.79-1.35H5.11v9.5H3.68V234Z"/><path class="cls-6" d="M7.82,237.37a5.73,5.73,0,0,1,1.06-3.62,2.76,2.76,0,0,1,4.59,0,6.94,6.94,0,0,1,0,7.36,2.82,2.82,0,0,1-2.29,1.22,2.85,2.85,0,0,1-2.3-1.22A5.93,5.93,0,0,1,7.82,237.37Zm1.42,0A5.63,5.63,0,0,0,9.78,240a1.6,1.6,0,0,0,1.39,1,1.61,1.61,0,0,0,1.39-1,6.3,6.3,0,0,0,0-5.16,1.61,1.61,0,0,0-1.39-1,1.61,1.61,0,0,0-1.39,1A5.26,5.26,0,0,0,9.23,237.38Z"/><path class="cls-6" d="M3,208.35H6.58v1.35H0.2l3.3-4q0.49-.6.82-1a7.89,7.89,0,0,0,.5-0.73,2.06,2.06,0,0,0,.35-1,1.48,1.48,0,0,0-.47-1.11,1.61,1.61,0,0,0-1.16-.45A1.61,1.61,0,0,0,1.89,203H0.46q0.34-3,3-3a3.06,3.06,0,0,1,2.18.82,2.68,2.68,0,0,1,.89,2,3.11,3.11,0,0,1-.41,1.52,7.43,7.43,0,0,1-.61.92q-0.4.53-1,1.26Z"/><path class="cls-6" d="M8.19,204.89a5.73,5.73,0,0,1,1.06-3.62,2.76,2.76,0,0,1,4.59,0,6.94,6.94,0,0,1,0,7.36,2.82,2.82,0,0,1-2.29,1.22,2.85,2.85,0,0,1-2.3-1.22A5.93,5.93,0,0,1,8.19,204.89Zm1.42,0a5.63,5.63,0,0,0,.55,2.63,1.6,1.6,0,0,0,1.39,1,1.61,1.61,0,0,0,1.39-1,6.3,6.3,0,0,0,0-5.16,1.61,1.61,0,0,0-1.39-1,1.61,1.61,0,0,0-1.39,1A5.26,5.26,0,0,0,9.61,204.9Z"/><path class="cls-6" d="M3.14,172.81v-1.22a2.49,2.49,0,0,0,1.22-.2,1.25,1.25,0,0,0,.56-1.14,1.3,1.3,0,0,0-.41-1,1.43,1.43,0,0,0-1-.39,1.35,1.35,0,0,0-.92.29,1.92,1.92,0,0,0-.47,1H0.66a3.29,3.29,0,0,1,.91-2,2.77,2.77,0,0,1,1.93-.62,2.86,2.86,0,0,1,2,.74,2.46,2.46,0,0,1,.79,1.89,2.34,2.34,0,0,1-1,2,2.41,2.41,0,0,1,1.19,2.26,2.74,2.74,0,0,1-.86,2.09,3.1,3.1,0,0,1-2.21.81,2.84,2.84,0,0,1-2.55-1.26,3.27,3.27,0,0,1-.44-1.46H1.8a1.68,1.68,0,0,0,.54,1.05,1.66,1.66,0,0,0,1.12.37,1.55,1.55,0,0,0,1.15-.46,1.66,1.66,0,0,0,.46-1.2A1.46,1.46,0,0,0,4.38,173,2.54,2.54,0,0,0,3.14,172.81Z"/><path class="cls-6" d="M8.19,172.41a5.73,5.73,0,0,1,1.06-3.62,2.76,2.76,0,0,1,4.59,0,6.94,6.94,0,0,1,0,7.36,2.82,2.82,0,0,1-2.29,1.22,2.85,2.85,0,0,1-2.3-1.22A5.93,5.93,0,0,1,8.19,172.41Zm1.42,0a5.63,5.63,0,0,0,.55,2.63,1.6,1.6,0,0,0,1.39,1,1.61,1.61,0,0,0,1.39-1,6.3,6.3,0,0,0,0-5.16,1.61,1.61,0,0,0-1.39-1,1.61,1.61,0,0,0-1.39,1A5.26,5.26,0,0,0,9.61,172.42Z"/><path class="cls-6" d="M6.1,142.09h1v1.3h-1v1.35H4.66v-1.35H0l6.1-8.86v7.56Zm-1.43,0v-3.18l-2.19,3.18H4.66Z"/><path class="cls-6" d="M8.19,139.93a5.73,5.73,0,0,1,1.06-3.62,2.76,2.76,0,0,1,4.59,0,6.94,6.94,0,0,1,0,7.36,2.82,2.82,0,0,1-2.29,1.22,2.85,2.85,0,0,1-2.3-1.22A5.93,5.93,0,0,1,8.19,139.93Zm1.42,0a5.63,5.63,0,0,0,.55,2.63,1.6,1.6,0,0,0,1.39,1,1.61,1.61,0,0,0,1.39-1,6.3,6.3,0,0,0,0-5.16,1.61,1.61,0,0,0-1.39-1,1.61,1.61,0,0,0-1.39,1A5.26,5.26,0,0,0,9.61,139.94Z"/><path class="cls-6" d="M6.51,104.11H3.58l-0.47,1.57,0.2,0H3.49a3,3,0,0,1,2.27.93,3.58,3.58,0,0,1-.12,4.85,3.51,3.51,0,0,1-2.54,1,3.35,3.35,0,0,1-3-1.77l1.08-.92a3.35,3.35,0,0,0,.9,1.08,1.94,1.94,0,0,0,1.11.31,1.93,1.93,0,0,0,1.45-.6A2.12,2.12,0,0,0,5.25,109a2,2,0,0,0-.58-1.49,1.93,1.93,0,0,0-1.45-.6,2.11,2.11,0,0,0-1.67.84H1.09l1.49-5H6.51v1.35Z"/><path class="cls-6" d="M8.19,107.45a5.73,5.73,0,0,1,1.06-3.62,2.76,2.76,0,0,1,4.59,0,6.94,6.94,0,0,1,0,7.36,2.82,2.82,0,0,1-2.29,1.22,2.85,2.85,0,0,1-2.3-1.22A5.93,5.93,0,0,1,8.19,107.45Zm1.42,0a5.63,5.63,0,0,0,.55,2.63,1.6,1.6,0,0,0,1.39,1,1.61,1.61,0,0,0,1.39-1,6.3,6.3,0,0,0,0-5.16,1.61,1.61,0,0,0-1.39-1,1.61,1.61,0,0,0-1.39,1A5.26,5.26,0,0,0,9.61,107.46Z"/><path class="cls-6" d="M4.83,70l1.05,0.79L3.61,73.83l0.31,0h0.2a2.67,2.67,0,0,1,2,.89A2.94,2.94,0,0,1,7,76.77,3.05,3.05,0,0,1,6,79a3,3,0,0,1-2.23.93A3.2,3.2,0,0,1,1.53,79a2.91,2.91,0,0,1-1-2.17,4.09,4.09,0,0,1,.93-2.39Zm0.74,6.91a1.8,1.8,0,0,0-1.8-1.81,1.73,1.73,0,0,0-1.27.52,1.8,1.8,0,0,0,0,2.53,1.74,1.74,0,0,0,1.28.52A1.72,1.72,0,0,0,5,78.11,1.71,1.71,0,0,0,5.57,76.86Z"/><path class="cls-6" d="M8.19,75a5.73,5.73,0,0,1,1.06-3.62,2.76,2.76,0,0,1,4.59,0,6.94,6.94,0,0,1,0,7.36,2.82,2.82,0,0,1-2.29,1.22,2.85,2.85,0,0,1-2.3-1.22A5.93,5.93,0,0,1,8.19,75Zm1.42,0a5.63,5.63,0,0,0,.55,2.63,1.6,1.6,0,0,0,1.39,1,1.61,1.61,0,0,0,1.39-1,6.3,6.3,0,0,0,0-5.16,1.61,1.61,0,0,0-1.39-1,1.61,1.61,0,0,0-1.39,1A5.26,5.26,0,0,0,9.61,75Z"/><line class="cls-7" x1="27.77" y1="235.33" x2="418.65" y2="235.33"/><line class="cls-7" x1="27.77" y1="202.85" x2="418.65" y2="202.85"/><line class="cls-7" x1="27.77" y1="170.37" x2="418.65" y2="170.37"/><line class="cls-7" x1="27.77" y1="137.89" x2="418.65" y2="137.89"/><line class="cls-7" x1="27.77" y1="105.41" x2="418.65" y2="105.41"/><line class="cls-7" x1="27.77" y1="72.93" x2="418.65" y2="72.93"/><g class="cls-8"><rect class="cls-9" x="74.67" y="147.63" width="140.72" height="120.18"/></g><g class="cls-10"><line class="cls-4" x1="230.83" y1="104.46" x2="428.82" y2="-93.53"/><line class="cls-4" x1="230.83" y1="112.86" x2="428.82" y2="-85.13"/><line class="cls-4" x1="230.83" y1="121.26" x2="428.82" y2="-76.73"/><line class="cls-4" x1="230.83" y1="129.66" x2="428.82" y2="-68.33"/><line class="cls-4" x1="230.83" y1="138.06" x2="428.82" y2="-59.93"/><line class="cls-4" x1="230.83" y1="146.46" x2="428.82" y2="-51.53"/><line class="cls-4" x1="230.83" y1="154.86" x2="428.82" y2="-43.13"/><line class="cls-4" x1="230.83" y1="163.26" x2="428.82" y2="-34.73"/><line class="cls-4" x1="230.83" y1="171.66" x2="428.82" y2="-26.33"/><line class="cls-4" x1="230.83" y1="180.06" x2="428.82" y2="-17.93"/><line class="cls-4" x1="230.83" y1="188.46" x2="428.82" y2="-9.53"/><line class="cls-4" x1="230.83" y1="196.86" x2="428.82" y2="-1.13"/><line class="cls-4" x1="230.83" y1="205.26" x2="428.82" y2="7.27"/><line class="cls-4" x1="230.83" y1="213.66" x2="428.82" y2="15.67"/><line class="cls-4" x1="230.83" y1="222.06" x2="428.82" y2="24.07"/><line class="cls-4" x1="230.83" y1="230.46" x2="428.82" y2="32.47"/><line class="cls-4" x1="230.83" y1="238.86" x2="428.82" y2="40.87"/><line class="cls-4" x1="230.83" y1="247.26" x2="428.82" y2="49.27"/><line class="cls-4" x1="230.83" y1="255.66" x2="428.82" y2="57.67"/><line class="cls-4" x1="230.83" y1="264.06" x2="428.82" y2="66.07"/><line class="cls-4" x1="230.83" y1="272.46" x2="428.82" y2="74.47"/><line class="cls-4" x1="230.83" y1="280.86" x2="428.82" y2="82.87"/><line class="cls-4" x1="230.83" y1="289.26" x2="428.82" y2="91.27"/><line class="cls-4" x1="230.83" y1="297.66" x2="428.82" y2="99.67"/><line class="cls-4" x1="230.83" y1="306.06" x2="428.82" y2="108.07"/><line class="cls-4" x1="230.83" y1="314.46" x2="428.82" y2="116.47"/><line class="cls-4" x1="230.83" y1="322.86" x2="428.82" y2="124.87"/><line class="cls-4" x1="230.83" y1="331.26" x2="428.82" y2="133.27"/><line class="cls-4" x1="230.83" y1="339.66" x2="428.82" y2="141.67"/><line class="cls-4" x1="230.83" y1="348.06" x2="428.82" y2="150.07"/><line class="cls-4" x1="230.83" y1="356.46" x2="428.82" y2="158.47"/><line class="cls-4" x1="230.83" y1="364.86" x2="428.82" y2="166.87"/><line class="cls-4" x1="230.83" y1="373.26" x2="428.82" y2="175.27"/><line class="cls-4" x1="230.83" y1="381.66" x2="428.82" y2="183.67"/><line class="cls-4" x1="230.83" y1="390.06" x2="428.82" y2="192.07"/><line class="cls-4" x1="230.83" y1="398.46" x2="428.82" y2="200.47"/><line class="cls-4" x1="230.83" y1="406.86" x2="428.82" y2="208.87"/><line class="cls-4" x1="230.83" y1="415.26" x2="428.82" y2="217.27"/><line class="cls-4" x1="230.83" y1="423.66" x2="428.82" y2="225.67"/><line class="cls-4" x1="230.83" y1="432.06" x2="428.82" y2="234.07"/></g><polygon class="cls-11" points="144.5 66.71 219.64 66.71 219.64 81.41 219.64 90.86 219.64 109.11 219.64 123.89 211.39 109.11 144.5 109.11 144.5 66.71"/><path class="cls-6" d="M172.15,78.5h-1.37l0.66-1.12h1.91v7.92h-1.19V78.5Z"/><path class="cls-6" d="M180.13,83.08H181v1.09h-0.84v1.12h-1.19V84.17h-3.89l5.08-7.38v6.3Zm-1.19,0V80.43l-1.83,2.65h1.83Z"/><path class="cls-6" d="M181.83,79.14a1.73,1.73,0,0,1,.57-1.29,1.89,1.89,0,0,1,1.34-.55,1.85,1.85,0,0,1,1.34.55,1.82,1.82,0,0,1,0,2.63,1.88,1.88,0,0,1-1.36.55A1.9,1.9,0,0,1,181.83,79.14Zm0.89,0a1,1,0,0,0,1,1,1,1,0,1,0-.72-1.73A1,1,0,0,0,182.72,79.15Zm5.51-1.91,0.56,0.32-4.53,7.86-0.56-.34Zm-1.39,6.23a1.73,1.73,0,0,1,.57-1.29,1.89,1.89,0,0,1,1.34-.55,1.86,1.86,0,0,1,1.35.55,1.81,1.81,0,0,1,0,2.63,1.88,1.88,0,0,1-1.36.54A1.89,1.89,0,0,1,186.84,83.47Zm0.9,0a1,1,0,0,0,.29.73,1,1,0,0,0,.72.3,1,1,0,0,0,.71-0.3,1,1,0,0,0,0-1.44A1,1,0,0,0,187.74,83.5Z"/><path class="cls-6" d="M155.79,90v4.76a2.61,2.61,0,0,0,.33,1.49,1.78,1.78,0,0,0,2.8,0,2.57,2.57,0,0,0,.33-1.49V90h1.19v5.1a2.85,2.85,0,0,1-.78,2.06,3,3,0,0,1-4.3,0,2.85,2.85,0,0,1-.78-2.06V90h1.19Z"/><path class="cls-6" d="M162.21,92.9h1.16v0.46a1.89,1.89,0,0,1,1.36-.6,1.72,1.72,0,0,1,1.36.55,2.25,2.25,0,0,1,.42,1.52v3.06h-1.16V95.11a1.83,1.83,0,0,0-.21-1,0.83,0.83,0,0,0-.73-0.29,0.89,0.89,0,0,0-.81.38,2.6,2.6,0,0,0-.24,1.31v2.41h-1.16v-5Z"/><path class="cls-6" d="M169.15,94v3.92H168V94h-0.49V92.9H168V91.07h1.15V92.9h0.9V94h-0.9Z"/><path class="cls-6" d="M175.48,95.67H171.9a1.51,1.51,0,0,0,.4,1,1.22,1.22,0,0,0,.91.36,1.18,1.18,0,0,0,.71-0.21,2.92,2.92,0,0,0,.63-0.76l1,0.54a3.85,3.85,0,0,1-.48.66,2.55,2.55,0,0,1-.54.45,2.16,2.16,0,0,1-.62.26,3,3,0,0,1-.72.08,2.35,2.35,0,0,1-1.79-.72,2.69,2.69,0,0,1-.68-1.92,2.77,2.77,0,0,1,.66-1.92,2.5,2.5,0,0,1,3.5,0,2.76,2.76,0,0,1,.64,1.93v0.27Zm-1.18-.94a1.11,1.11,0,0,0-1.16-.92,1.19,1.19,0,0,0-.4.06,1.14,1.14,0,0,0-.34.18,1.16,1.16,0,0,0-.26.29,1.33,1.33,0,0,0-.16.38h2.32Z"/><path class="cls-6" d="M176.74,92.9h1.15v0.45a2.2,2.2,0,0,1,.56-0.46,1.3,1.3,0,0,1,.59-0.13,1.87,1.87,0,0,1,1,.3l-0.53,1.06a1.1,1.1,0,0,0-.64-0.24q-0.94,0-.94,1.43v2.59h-1.15v-5Z"/><path class="cls-6" d="M183.57,93.75l-1,.51a0.66,0.66,0,0,0-.56-0.46,0.38,0.38,0,0,0-.27.11,0.35,0.35,0,0,0-.11.27,0.87,0.87,0,0,0,.67.57,4,4,0,0,1,1.24.73,1.24,1.24,0,0,1,.32.9,1.57,1.57,0,0,1-.53,1.21,1.91,1.91,0,0,1-3-.76l1-.46a2.14,2.14,0,0,0,.31.46,0.72,0.72,0,0,0,.5.2,0.49,0.49,0,0,0,.58-0.53,0.73,0.73,0,0,0-.45-0.57l-0.35-.17-0.35-.17a2.17,2.17,0,0,1-.71-0.49,1.21,1.21,0,0,1-.26-0.8,1.43,1.43,0,0,1,.45-1.08,1.56,1.56,0,0,1,1.11-.42A1.51,1.51,0,0,1,183.57,93.75Z"/><path class="cls-6" d="M188.81,93.12v1.53A2.8,2.8,0,0,0,188.1,94a1.38,1.38,0,0,0-.72-0.19,1.43,1.43,0,0,0-1.08.46,1.6,1.6,0,0,0-.43,1.14,1.64,1.64,0,0,0,.42,1.15,1.4,1.4,0,0,0,1.07.45,1.46,1.46,0,0,0,.73-0.18,2.9,2.9,0,0,0,.72-0.68v1.52a3,3,0,0,1-1.41.36,2.68,2.68,0,0,1-1.94-.75,2.5,2.5,0,0,1-.78-1.87,2.53,2.53,0,0,1,.79-1.89,2.67,2.67,0,0,1,1.94-.77A2.9,2.9,0,0,1,188.81,93.12Z"/><path class="cls-6" d="M190.2,89.24h1.15v4.08a2,2,0,0,1,1.36-.55,1.76,1.76,0,0,1,1.35.55,2.24,2.24,0,0,1,.43,1.52v3.06h-1.15v-3a1.41,1.41,0,0,0-.21-0.87,0.82,0.82,0,0,0-.68-0.27,0.94,0.94,0,0,0-.85.38,2.56,2.56,0,0,0-.24,1.3v2.42H190.2V89.24Z"/><path class="cls-6" d="M195.78,90.82a0.75,0.75,0,0,1,.75-0.74,0.73,0.73,0,0,1,.53.22,0.71,0.71,0,0,1,.22.53,0.73,0.73,0,0,1-.22.53,0.71,0.71,0,0,1-.53.22A0.75,0.75,0,0,1,195.78,90.82Zm1.33,2.08v5H196v-5h1.15Z"/><path class="cls-6" d="M203.12,95.67h-3.58a1.51,1.51,0,0,0,.4,1,1.22,1.22,0,0,0,.91.36,1.18,1.18,0,0,0,.71-0.21,2.93,2.93,0,0,0,.63-0.76l1,0.54a3.88,3.88,0,0,1-.48.66,2.54,2.54,0,0,1-.54.45,2.16,2.16,0,0,1-.62.26,3,3,0,0,1-.72.08,2.35,2.35,0,0,1-1.79-.72,2.69,2.69,0,0,1-.68-1.92,2.77,2.77,0,0,1,.66-1.92,2.26,2.26,0,0,1,1.75-.72,2.24,2.24,0,0,1,1.74.7,2.76,2.76,0,0,1,.64,1.93v0.27Zm-1.18-.94a1.11,1.11,0,0,0-1.16-.92,1.19,1.19,0,0,0-.39.06,1.14,1.14,0,0,0-.34.18,1.16,1.16,0,0,0-.26.29,1.36,1.36,0,0,0-.16.38h2.32Z"/><path class="cls-6" d="M208.06,89.24h1.16v8.66h-1.16V97.37a2.15,2.15,0,0,1-1.54.67,2.19,2.19,0,0,1-1.7-.75,2.78,2.78,0,0,1-.67-1.91,2.69,2.69,0,0,1,.67-1.87,2.16,2.16,0,0,1,3.25,0V89.24Zm-2.74,6.15a1.74,1.74,0,0,0,.38,1.17,1.26,1.26,0,0,0,1,.46,1.32,1.32,0,0,0,1-.44,1.9,1.9,0,0,0,0-2.32,1.31,1.31,0,0,0-1-.45,1.28,1.28,0,0,0-1,.45A1.66,1.66,0,0,0,205.33,95.38Z"/><g class="cls-8"><path class="cls-6" d="M146.08,293.31H144.5l-0.65-.67a4.18,4.18,0,0,1-2.31.67,4.32,4.32,0,0,1-2.93-1.12,4,4,0,0,1-1.39-3.14,4.13,4.13,0,0,1,1.32-3.12,4.33,4.33,0,0,1,5.85-.15,4.17,4.17,0,0,1,1.5,3.33,4,4,0,0,1-1.19,2.86Zm-3.44-3.44,1.2,1.2a2.83,2.83,0,0,0,.79-2,3.07,3.07,0,0,0-.89-2.24,3,3,0,0,0-2.2-.9,2.9,2.9,0,0,0-2.19.9,3.14,3.14,0,0,0-.87,2.27,2.9,2.9,0,0,0,.89,2.19,3,3,0,0,0,2.12.88,2.93,2.93,0,0,0,1.47-.37l-2-1.89h1.62Z"/><path class="cls-6" d="M148.45,287.93v3a1.05,1.05,0,1,0,2.05,0v-3h1.21v3a3.38,3.38,0,0,1-.16,1.08,1.83,1.83,0,0,1-.52.74,2.54,2.54,0,0,1-3.11,0,1.85,1.85,0,0,1-.53-0.74,3,3,0,0,1-.15-1.08v-3h1.21Z"/><path class="cls-6" d="M158,290.83h-3.75a1.59,1.59,0,0,0,.42,1,1.28,1.28,0,0,0,1,.38,1.24,1.24,0,0,0,.75-0.21,3,3,0,0,0,.66-0.79l1,0.57a4.1,4.1,0,0,1-.5.69,2.66,2.66,0,0,1-.56.47,2.25,2.25,0,0,1-.65.27,3.14,3.14,0,0,1-.76.09,2.46,2.46,0,0,1-1.88-.75,2.82,2.82,0,0,1-.71-2,2.9,2.9,0,0,1,.69-2,2.62,2.62,0,0,1,3.66,0,2.89,2.89,0,0,1,.67,2v0.28Zm-1.24-1a1.16,1.16,0,0,0-1.22-1,1.25,1.25,0,0,0-.41.07,1.19,1.19,0,0,0-.35.19,1.24,1.24,0,0,0-.27.3,1.42,1.42,0,0,0-.17.4h2.43Z"/><path class="cls-6" d="M160.53,284.09v9.07h-1.21v-9.07h1.21Z"/><path class="cls-6" d="M163.27,284.09v9.07h-1.21v-9.07h1.21Z"/><path class="cls-6" d="M169.56,290.83h-3.75a1.59,1.59,0,0,0,.42,1,1.28,1.28,0,0,0,1,.38,1.24,1.24,0,0,0,.75-0.21,3,3,0,0,0,.66-0.79l1,0.57a4.1,4.1,0,0,1-.5.69,2.66,2.66,0,0,1-.56.47,2.25,2.25,0,0,1-.65.27,3.14,3.14,0,0,1-.76.09,2.46,2.46,0,0,1-1.88-.75,2.82,2.82,0,0,1-.71-2,2.9,2.9,0,0,1,.69-2,2.62,2.62,0,0,1,3.66,0,2.89,2.89,0,0,1,.67,2v0.28Zm-1.24-1a1.16,1.16,0,0,0-1.22-1,1.25,1.25,0,0,0-.41.07,1.19,1.19,0,0,0-.35.19,1.24,1.24,0,0,0-.27.3,1.42,1.42,0,0,0-.17.4h2.43Z"/><path class="cls-6" d="M171.07,288.52a0.71,0.71,0,0,1,.22-0.52,0.75,0.75,0,0,1,1.27.53,0.73,0.73,0,0,1-.22.53,0.75,0.75,0,0,1-1.06,0A0.73,0.73,0,0,1,171.07,288.52Zm0,4a0.75,0.75,0,0,1,1.49,0,0.72,0.72,0,0,1-.22.53,0.76,0.76,0,0,1-1.06,0A0.73,0.73,0,0,1,171.07,292.56Z"/><path class="cls-6" d="M179.15,284.87V292h2.44v1.18H177.9v-8.29h1.25Z"/><path class="cls-6" d="M182.3,290.51a2.6,2.6,0,0,1,.81-1.93,2.86,2.86,0,0,1,4,0,2.8,2.8,0,0,1,0,3.94,2.78,2.78,0,0,1-2,.79,2.66,2.66,0,0,1-2-.81A2.71,2.71,0,0,1,182.3,290.51Zm1.24,0a1.77,1.77,0,0,0,.42,1.24,1.63,1.63,0,0,0,2.27,0,2,2,0,0,0,0-2.44,1.61,1.61,0,0,0-2.26,0A1.68,1.68,0,0,0,183.54,290.53Z"/><path class="cls-6" d="M189.16,287.93h1.21v0.48a2,2,0,0,1,1.43-.63,1.8,1.8,0,0,1,1.42.58,2.35,2.35,0,0,1,.44,1.59v3.21h-1.21v-2.92a1.91,1.91,0,0,0-.21-1.07,0.87,0.87,0,0,0-.76-0.3,0.94,0.94,0,0,0-.85.4,2.73,2.73,0,0,0-.25,1.37v2.52h-1.21v-5.23Z"/><path class="cls-6" d="M200.25,293q0,0.37,0,.65a4.25,4.25,0,0,1-.07.5,2.22,2.22,0,0,1-.5,1,2.45,2.45,0,0,1-2,.82,2.59,2.59,0,0,1-1.72-.57,2.32,2.32,0,0,1-.81-1.61h1.21a1.37,1.37,0,0,0,.23.6,1.3,1.3,0,0,0,1.1.49q1.33,0,1.33-1.62v-0.73a2.25,2.25,0,0,1-1.66.74,2.23,2.23,0,0,1-1.75-.77,2.87,2.87,0,0,1-.69-2,3,3,0,0,1,.64-1.94,2.22,2.22,0,0,1,1.82-.85,2.11,2.11,0,0,1,1.64.74v-0.59h1.21V293Zm-1.16-2.48a1.75,1.75,0,0,0-.41-1.22,1.35,1.35,0,0,0-1.06-.47,1.3,1.3,0,0,0-1.08.51,2.09,2.09,0,0,0,0,2.35,1.3,1.3,0,0,0,1.08.5,1.33,1.33,0,0,0,1.1-.5A1.79,1.79,0,0,0,199.09,290.56Z"/><path class="cls-6" d="M205.85,288.16v1.61a2.94,2.94,0,0,0-.74-0.69,1.44,1.44,0,0,0-.76-0.19,1.49,1.49,0,0,0-1.13.48,1.68,1.68,0,0,0-.45,1.2,1.72,1.72,0,0,0,.43,1.21,1.47,1.47,0,0,0,1.12.47,1.54,1.54,0,0,0,.77-0.19,3.06,3.06,0,0,0,.76-0.71v1.6a3.18,3.18,0,0,1-1.47.38,2.82,2.82,0,0,1-2-.78,2.62,2.62,0,0,1-.82-2,2.65,2.65,0,0,1,.83-2,2.8,2.8,0,0,1,2-.81A3,3,0,0,1,205.85,288.16Z"/><path class="cls-6" d="M207.3,284.09h1.21v4.28a2.08,2.08,0,0,1,1.42-.58,1.84,1.84,0,0,1,1.42.58,2.34,2.34,0,0,1,.45,1.59v3.21h-1.21v-3.09a1.47,1.47,0,0,0-.22-0.91,0.86,0.86,0,0,0-.72-0.28,1,1,0,0,0-.89.39,2.7,2.7,0,0,0-.25,1.37v2.53H207.3v-9.07Z"/><path class="cls-6" d="M217.19,287.93h1.21v5.23h-1.21v-0.55a2.32,2.32,0,0,1-3.4-.09,2.92,2.92,0,0,1-.7-2,2.83,2.83,0,0,1,.7-2,2.27,2.27,0,0,1,1.76-.79,2.23,2.23,0,0,1,1.64.75v-0.61Zm-2.87,2.6a1.82,1.82,0,0,0,.4,1.22,1.32,1.32,0,0,0,1,.48,1.39,1.39,0,0,0,1.09-.46,2,2,0,0,0,0-2.43,1.37,1.37,0,0,0-1.07-.47,1.34,1.34,0,0,0-1,.47A1.74,1.74,0,0,0,214.32,290.53Z"/><path class="cls-6" d="M219.93,287.93h1.21v0.48a2.54,2.54,0,0,1,.6-0.49,1.44,1.44,0,0,1,.66-0.13,1.6,1.6,0,0,1,1.4.77,1.82,1.82,0,0,1,1.54-.77q1.77,0,1.77,2.14v3.23h-1.21v-2.91a2.23,2.23,0,0,0-.18-1.06,0.66,0.66,0,0,0-.62-0.32,0.79,0.79,0,0,0-.73.38,2.42,2.42,0,0,0-.23,1.21v2.7h-1.21v-2.89q0-1.4-.8-1.4a0.81,0.81,0,0,0-.74.38,2.37,2.37,0,0,0-.23,1.2v2.7h-1.21v-5.23Z"/><path class="cls-6" d="M230,296h-1.21v-8.08H230v0.57a2.24,2.24,0,0,1,1.62-.71,2.26,2.26,0,0,1,1.78.79,2.87,2.87,0,0,1,.71,2,2.83,2.83,0,0,1-.7,2,2.29,2.29,0,0,1-3.41,0V296Zm2.87-5.43a1.81,1.81,0,0,0-.41-1.22,1.32,1.32,0,0,0-1-.48,1.38,1.38,0,0,0-1.08.46,1.75,1.75,0,0,0-.41,1.21,1.79,1.79,0,0,0,.41,1.21,1.36,1.36,0,0,0,1.07.47,1.31,1.31,0,0,0,1-.47A1.71,1.71,0,0,0,232.85,290.58Z"/><path class="cls-6" d="M236.11,291.61l1.07,0.42-1.53,3.07-0.82-.34Z"/><path class="cls-6" d="M247.21,293q0,0.37,0,.65a4.25,4.25,0,0,1-.07.5,2.22,2.22,0,0,1-.5,1,2.45,2.45,0,0,1-2,.82,2.59,2.59,0,0,1-1.72-.57,2.32,2.32,0,0,1-.81-1.61h1.21a1.37,1.37,0,0,0,.23.6,1.3,1.3,0,0,0,1.1.49q1.33,0,1.33-1.62v-0.73a2.25,2.25,0,0,1-1.66.74,2.23,2.23,0,0,1-1.75-.77,2.87,2.87,0,0,1-.69-2,3,3,0,0,1,.64-1.94,2.22,2.22,0,0,1,1.82-.85,2.11,2.11,0,0,1,1.64.74v-0.59h1.21V293Zm-1.16-2.48a1.75,1.75,0,0,0-.41-1.22,1.35,1.35,0,0,0-1.06-.47,1.3,1.3,0,0,0-1.08.51,2.09,2.09,0,0,0,0,2.35,1.3,1.3,0,0,0,1.08.5,1.33,1.33,0,0,0,1.1-.5A1.79,1.79,0,0,0,246.05,290.56Z"/><path class="cls-6" d="M250,289.06v4.1h-1.21v-4.1h-0.43v-1.13h0.43v-2a2.19,2.19,0,0,1,.34-1.4,1.68,1.68,0,0,1,1.38-.57,2.37,2.37,0,0,1,.81.19v1.24l-0.12-.06a1.52,1.52,0,0,0-.64-0.2,0.44,0.44,0,0,0-.44.23,2.23,2.23,0,0,0-.11.87v1.72h1.32v1.13H250Z"/><path class="cls-6" d="M255,288.82l-1,.53a0.69,0.69,0,0,0-.58-0.48,0.4,0.4,0,0,0-.29.11,0.37,0.37,0,0,0-.12.28,0.91,0.91,0,0,0,.7.6,4.18,4.18,0,0,1,1.29.76,1.3,1.3,0,0,1,.33.94,1.64,1.64,0,0,1-.56,1.27,2,2,0,0,1-3.17-.8l1-.48a2.22,2.22,0,0,0,.33.48,0.75,0.75,0,0,0,.53.2,0.52,0.52,0,0,0,.61-0.56,0.77,0.77,0,0,0-.47-0.6l-0.37-.18-0.37-.18a2.28,2.28,0,0,1-.74-0.52,1.27,1.27,0,0,1-.27-0.84,1.49,1.49,0,0,1,.47-1.13,1.64,1.64,0,0,1,1.16-.45A1.58,1.58,0,0,1,255,288.82Z"/><path class="cls-6" d="M260.09,293.16v-8.29h1.25a5.45,5.45,0,0,1,1.33.13,2,2,0,0,1,.84.44,2.25,2.25,0,0,1,.55.79,2.39,2.39,0,0,1,.21,1,2,2,0,0,1-.68,1.51,2,2,0,0,1,1,.79,2.34,2.34,0,0,1-.3,2.94,2.26,2.26,0,0,1-.93.57,5.39,5.39,0,0,1-1.41.16h-1.9Zm1.25-4.73h0.39a1.44,1.44,0,0,0,1-.31,1.2,1.2,0,0,0,.33-0.91,1.14,1.14,0,0,0-.33-0.89,1.39,1.39,0,0,0-1-.3h-0.44v2.41Zm0,3.56h0.77a1.92,1.92,0,0,0,1.25-.33,1.15,1.15,0,0,0,.42-0.91,1.17,1.17,0,0,0-.4-0.9,2.09,2.09,0,0,0-1.4-.36h-0.63V292Z"/><path class="cls-6" d="M271.13,290.83h-3.75a1.59,1.59,0,0,0,.42,1,1.28,1.28,0,0,0,1,.38,1.24,1.24,0,0,0,.75-0.21,3,3,0,0,0,.66-0.79l1,0.57a4.1,4.1,0,0,1-.5.69,2.66,2.66,0,0,1-.56.47,2.25,2.25,0,0,1-.65.27,3.14,3.14,0,0,1-.76.09,2.46,2.46,0,0,1-1.88-.75,2.82,2.82,0,0,1-.71-2,2.9,2.9,0,0,1,.69-2,2.62,2.62,0,0,1,3.66,0,2.89,2.89,0,0,1,.67,2v0.28Zm-1.24-1a1.16,1.16,0,0,0-1.22-1,1.25,1.25,0,0,0-.41.07,1.19,1.19,0,0,0-.35.19,1.24,1.24,0,0,0-.27.3,1.42,1.42,0,0,0-.17.4h2.43Z"/><path class="cls-6" d="M272.45,287.93h1.21v0.47a2.31,2.31,0,0,1,.59-0.48,1.35,1.35,0,0,1,.62-0.13,2,2,0,0,1,1,.31l-0.55,1.11a1.16,1.16,0,0,0-.67-0.25q-1,0-1,1.49v2.71h-1.21v-5.23Z"/><path class="cls-6" d="M276.73,287.93h1.21v0.48a2,2,0,0,1,1.43-.63,1.8,1.8,0,0,1,1.42.58,2.35,2.35,0,0,1,.44,1.59v3.21H280v-2.92a1.91,1.91,0,0,0-.21-1.07,0.87,0.87,0,0,0-.76-0.3,0.94,0.94,0,0,0-.85.4,2.73,2.73,0,0,0-.25,1.37v2.52h-1.21v-5.23Z"/></g><g class="cls-12"><line class="cls-13" x1="216.52" y1="56.91" x2="255.32" y2="18.1"/><line class="cls-13" x1="216.52" y1="52.79" x2="255.32" y2="13.98"/><line class="cls-13" x1="216.52" y1="48.67" x2="255.32" y2="9.87"/><line class="cls-13" x1="216.52" y1="44.56" x2="255.32" y2="5.75"/><line class="cls-13" x1="216.52" y1="40.44" x2="255.32" y2="1.64"/><line class="cls-13" x1="216.52" y1="36.33" x2="255.32" y2="-2.48"/></g><rect class="cls-2" x="216.86" y="35.84" width="10.29" height="10.29"/><path class="cls-6" d="M235.78,38.54h-2.32v1.6h2.24v0.94h-2.24v3.17h-1V37.6h3.32v0.94Z"/><path class="cls-6" d="M236.67,40.05h1v0.37a1.86,1.86,0,0,1,.47-0.38,1.09,1.09,0,0,1,.5-0.11,1.57,1.57,0,0,1,.8.25l-0.44.89a0.93,0.93,0,0,0-.54-0.2q-0.79,0-.79,1.2v2.18h-1V40.05Z"/><path class="cls-6" d="M243,40.05h1v4.19h-1V43.81a1.86,1.86,0,0,1-2.73-.07,2.34,2.34,0,0,1-.56-1.6,2.27,2.27,0,0,1,.56-1.57,1.82,1.82,0,0,1,1.41-.63,1.78,1.78,0,0,1,1.31.6V40.05Zm-2.3,2.08a1.46,1.46,0,0,0,.32,1,1.06,1.06,0,0,0,.84.38,1.11,1.11,0,0,0,.87-0.37,1.59,1.59,0,0,0,0-1.95,1.09,1.09,0,0,0-.86-0.37,1.07,1.07,0,0,0-.84.38A1.4,1.4,0,0,0,240.7,42.14Z"/><path class="cls-6" d="M246.17,40.05v2.41a0.85,0.85,0,1,0,1.65,0V40.05h1v2.43a2.72,2.72,0,0,1-.12.87,1.46,1.46,0,0,1-.42.59,2,2,0,0,1-2.49,0,1.49,1.49,0,0,1-.43-0.59,2.4,2.4,0,0,1-.12-0.87V40.05h1Z"/><path class="cls-6" d="M253.83,42.38h-3a1.27,1.27,0,0,0,.34.82,1,1,0,0,0,.76.3,1,1,0,0,0,.6-0.17,2.46,2.46,0,0,0,.53-0.64l0.82,0.46a3.29,3.29,0,0,1-.4.55,2.11,2.11,0,0,1-.45.38,1.83,1.83,0,0,1-.52.22,2.55,2.55,0,0,1-.61.07,2,2,0,0,1-1.51-.6,2.26,2.26,0,0,1-.57-1.61,2.33,2.33,0,0,1,.55-1.61,2.1,2.1,0,0,1,2.94,0,2.32,2.32,0,0,1,.53,1.62v0.23Zm-1-.79a0.93,0.93,0,0,0-1-.78,1,1,0,0,0-.33.05,1,1,0,0,0-.28.16,1,1,0,0,0-.22.24,1.13,1.13,0,0,0-.14.32h1.95Z"/><path class="cls-6" d="M254.88,40.05h1v0.39a1.59,1.59,0,0,1,1.15-.5,1.45,1.45,0,0,1,1.14.46,1.89,1.89,0,0,1,.35,1.28v2.57h-1V41.91a1.53,1.53,0,0,0-.17-0.86,0.69,0.69,0,0,0-.61-0.24,0.75,0.75,0,0,0-.68.32,2.19,2.19,0,0,0-.2,1.1v2h-1V40.05Z"/><rect class="cls-14" x="160.15" y="35.21" width="10.29" height="10.29"/><path class="cls-6" d="M175.52,43.78l1.4-7.15,2.28,5.17,2.36-5.17,1.26,7.15h-1l-0.64-4-2,4.32-1.91-4.32-0.71,4h-1Z"/><path class="cls-6" d="M187.14,39.58h1v4.19h-1V43.34a1.86,1.86,0,0,1-2.73-.07,2.34,2.34,0,0,1-.56-1.6,2.27,2.27,0,0,1,.56-1.57,1.82,1.82,0,0,1,1.41-.63,1.78,1.78,0,0,1,1.31.6V39.58Zm-2.55-1.34a0.57,0.57,0,0,1,.18-0.43,0.61,0.61,0,0,1,.87,0,0.58,0.58,0,0,1,.18.43,0.6,0.6,0,0,1-.18.44,0.62,0.62,0,0,1-.43.18,0.6,0.6,0,0,1-.44-0.18A0.62,0.62,0,0,1,184.59,38.25Zm0.25,3.42a1.46,1.46,0,0,0,.32,1A1.06,1.06,0,0,0,186,43a1.11,1.11,0,0,0,.87-0.37,1.59,1.59,0,0,0,0-1.95,1.09,1.09,0,0,0-.86-0.37,1.07,1.07,0,0,0-.84.38A1.4,1.4,0,0,0,184.84,41.67Zm1.55-3.42a0.57,0.57,0,0,1,.18-0.43,0.6,0.6,0,0,1,.43-0.18,0.58,0.58,0,0,1,.43.18,0.58,0.58,0,0,1,.18.43,0.6,0.6,0,0,1-.18.44,0.62,0.62,0,0,1-.43.18A0.62,0.62,0,0,1,186.39,38.25Z"/><path class="cls-6" d="M189.33,39.58h1V40a1.59,1.59,0,0,1,1.15-.5,1.45,1.45,0,0,1,1.14.46,1.89,1.89,0,0,1,.35,1.28v2.57h-1V41.44a1.53,1.53,0,0,0-.17-0.86,0.69,0.69,0,0,0-.61-0.24,0.75,0.75,0,0,0-.68.32,2.19,2.19,0,0,0-.2,1.1v2h-1V39.58Z"/><path class="cls-6" d="M194.17,39.58h1V40a1.59,1.59,0,0,1,1.15-.5,1.45,1.45,0,0,1,1.14.46,1.89,1.89,0,0,1,.35,1.28v2.57h-1V41.44a1.53,1.53,0,0,0-.17-0.86,0.69,0.69,0,0,0-.61-0.24,0.75,0.75,0,0,0-.68.32,2.19,2.19,0,0,0-.2,1.1v2h-1V39.58Z"/><path class="cls-6" d="M202.82,41.91h-3a1.27,1.27,0,0,0,.34.82,1,1,0,0,0,.76.3,1,1,0,0,0,.6-0.17,2.46,2.46,0,0,0,.53-0.64l0.82,0.46a3.29,3.29,0,0,1-.4.55,2.11,2.11,0,0,1-.45.38,1.83,1.83,0,0,1-.52.22,2.55,2.55,0,0,1-.61.07,2,2,0,0,1-1.51-.6,2.26,2.26,0,0,1-.57-1.61,2.33,2.33,0,0,1,.55-1.61,2.1,2.1,0,0,1,2.94,0,2.32,2.32,0,0,1,.53,1.62v0.23Zm-1-.79a0.93,0.93,0,0,0-1-.78,1,1,0,0,0-.33.05,1,1,0,0,0-.28.16,1,1,0,0,0-.22.24,1.13,1.13,0,0,0-.14.32h1.95Z"/><path class="cls-6" d="M203.88,39.58h1V40a1.86,1.86,0,0,1,.47-0.38,1.09,1.09,0,0,1,.5-0.11,1.57,1.57,0,0,1,.8.25l-0.44.89a0.93,0.93,0,0,0-.54-0.2q-0.79,0-.79,1.2v2.18h-1V39.58Z"/><path class="cls-6" d="M112.39,11.9l2.94,7.56,3.08-8.11,2.95,8.11,3.13-7.56h1.85l-5.05,12-2.91-8-3,8-4.8-12h1.85Z"/><path class="cls-6" d="M131.8,16.08h1.66v7.13H131.8V22.46a3.17,3.17,0,0,1-4.64-.12,4,4,0,0,1-1-2.72,3.85,3.85,0,0,1,1-2.67,3.09,3.09,0,0,1,2.4-1.07,3,3,0,0,1,2.23,1V16.08Zm-3.91,3.54a2.48,2.48,0,0,0,.55,1.67,1.8,1.8,0,0,0,1.42.65,1.89,1.89,0,0,0,1.48-.63,2.71,2.71,0,0,0,0-3.31,1.86,1.86,0,0,0-1.46-.64,1.82,1.82,0,0,0-1.42.64A2.38,2.38,0,0,0,127.89,19.62Z"/><path class="cls-6" d="M137.24,17.61v5.6h-1.65v-5.6H135V16.08h0.59V13.32a3,3,0,0,1,.47-1.9,2.3,2.3,0,0,1,1.88-.78,3.24,3.24,0,0,1,1.11.26v1.69l-0.17-.09a2.08,2.08,0,0,0-.88-0.27,0.6,0.6,0,0,0-.59.31,3,3,0,0,0-.15,1.19v2.35H139v1.54h-1.79Z"/><path class="cls-6" d="M142.19,17.61v5.6h-1.65v-5.6H140V16.08h0.59V13.32a3,3,0,0,1,.47-1.9,2.3,2.3,0,0,1,1.88-.78,3.24,3.24,0,0,1,1.11.26v1.69l-0.17-.09a2.08,2.08,0,0,0-.88-0.27,0.6,0.6,0,0,0-.59.31,3,3,0,0,0-.15,1.19v2.35H144v1.54h-1.79Z"/><path class="cls-6" d="M151.66,20h-5.11a2.17,2.17,0,0,0,.57,1.4,1.74,1.74,0,0,0,1.3.51,1.68,1.68,0,0,0,1-.29,4.15,4.15,0,0,0,.9-1.08l1.39,0.78a5.6,5.6,0,0,1-.68.94,3.62,3.62,0,0,1-.77.64,3.07,3.07,0,0,1-.89.37,4.31,4.31,0,0,1-1,.12,3.36,3.36,0,0,1-2.56-1,3.85,3.85,0,0,1-1-2.74,4,4,0,0,1,.94-2.74,3.57,3.57,0,0,1,5,0,4,4,0,0,1,.91,2.76V20ZM150,18.68a1.58,1.58,0,0,0-1.66-1.32,1.69,1.69,0,0,0-.56.09,1.59,1.59,0,0,0-.48.26,1.67,1.67,0,0,0-.37.41,1.94,1.94,0,0,0-.23.55H150Z"/><path class="cls-6" d="M153.47,16.08h1.66v0.66a2.7,2.7,0,0,1,1.95-.86,2.46,2.46,0,0,1,1.94.78,3.21,3.21,0,0,1,.6,2.17v4.37H158v-4a2.6,2.6,0,0,0-.29-1.46,1.18,1.18,0,0,0-1-.41,1.27,1.27,0,0,0-1.17.54,3.72,3.72,0,0,0-.34,1.87v3.44h-1.66V16.08Z"/><path class="cls-6" d="M165.84,17.29l-1.36.72a0.94,0.94,0,0,0-.8-0.65,0.55,0.55,0,0,0-.39.15,0.5,0.5,0,0,0-.16.38,1.24,1.24,0,0,0,1,.81,5.69,5.69,0,0,1,1.77,1A1.78,1.78,0,0,1,166.3,21a2.24,2.24,0,0,1-.76,1.73,2.73,2.73,0,0,1-4.33-1.09l1.41-.65a3,3,0,0,0,.45.65,1,1,0,0,0,.72.28,0.71,0.71,0,0,0,.84-0.76,1,1,0,0,0-.64-0.82l-0.5-.24L163,19.88a3.09,3.09,0,0,1-1-.7,1.73,1.73,0,0,1-.37-1.15,2,2,0,0,1,.64-1.54,2.24,2.24,0,0,1,1.58-.61A2.16,2.16,0,0,1,165.84,17.29Z"/><path class="cls-6" d="M173.33,16.38v2.19a4,4,0,0,0-1-.94,2,2,0,0,0-1-.26,2,2,0,0,0-1.55.65,2.29,2.29,0,0,0-.62,1.63,2.34,2.34,0,0,0,.59,1.65,2,2,0,0,0,1.53.64,2.09,2.09,0,0,0,1-.26,4.15,4.15,0,0,0,1-1V22.9a4.34,4.34,0,0,1-2,.52,3.84,3.84,0,0,1-2.77-1.07,3.57,3.57,0,0,1-1.11-2.67,3.62,3.62,0,0,1,1.13-2.7,3.82,3.82,0,0,1,2.77-1.1A4.14,4.14,0,0,1,173.33,16.38Z"/><path class="cls-6" d="M175.31,10.84H177v5.83a2.84,2.84,0,0,1,1.94-.79,2.51,2.51,0,0,1,1.93.78,3.19,3.19,0,0,1,.62,2.17v4.37H179.8V19a2,2,0,0,0-.3-1.24,1.17,1.17,0,0,0-1-.38,1.35,1.35,0,0,0-1.22.53,3.67,3.67,0,0,0-.34,1.86v3.45h-1.65V10.84Z"/><path class="cls-6" d="M185.18,16.08v4.09q0,1.77,1.4,1.77t1.4-1.77V16.08h1.65v4.13a4.62,4.62,0,0,1-.21,1.48,2.5,2.5,0,0,1-.71,1,3.46,3.46,0,0,1-4.24,0,2.52,2.52,0,0,1-.73-1,4.08,4.08,0,0,1-.21-1.48V16.08h1.65Z"/><path class="cls-6" d="M193.41,17.61v5.6h-1.65v-5.6h-0.7V16.08h0.7V13.46h1.65v2.61h1.28v1.54h-1.28Z"/><path class="cls-6" d="M198.18,21.66h4.24v1.55h-7.51l4.62-5.6h-3.64V16.08h6.9Z"/><path class="cls-6" d="M203.72,13.11A1.07,1.07,0,0,1,204.79,12a1,1,0,0,1,.76.31,1,1,0,0,1,.32.75,1,1,0,0,1-.32.76,1,1,0,0,1-.75.32A1.08,1.08,0,0,1,203.72,13.11Zm1.9,3v7.13H204V16.08h1.65Z"/><path class="cls-6" d="M207.7,16.08h1.66v0.66a2.7,2.7,0,0,1,1.95-.86,2.46,2.46,0,0,1,1.94.78,3.21,3.21,0,0,1,.6,2.17v4.37h-1.66v-4a2.6,2.6,0,0,0-.29-1.46,1.18,1.18,0,0,0-1-.41,1.27,1.27,0,0,0-1.17.54,3.72,3.72,0,0,0-.34,1.87v3.44H207.7V16.08Z"/><path class="cls-6" d="M215.68,13.11A1.07,1.07,0,0,1,216.75,12a1,1,0,0,1,.76.31,1,1,0,0,1,.32.75,1,1,0,0,1-.32.76,1,1,0,0,1-.75.32A1.08,1.08,0,0,1,215.68,13.11Zm1.9,3v7.13h-1.65V16.08h1.65Z"/><path class="cls-6" d="M221.36,17.61v5.6h-1.65v-5.6H219V16.08h0.7V13.46h1.65v2.61h1.28v1.54h-1.28Z"/><path class="cls-6" d="M223.51,13.11A1.07,1.07,0,0,1,224.58,12a1,1,0,0,1,.76.31,1,1,0,0,1,.32.75,1,1,0,0,1-.32.76,1,1,0,0,1-.75.32A1.08,1.08,0,0,1,223.51,13.11Zm1.9,3v7.13h-1.65V16.08h1.65Z"/><path class="cls-6" d="M232.76,16.08h1.66v7.13h-1.66V22.46a3.17,3.17,0,0,1-4.64-.12,4,4,0,0,1-1-2.72,3.85,3.85,0,0,1,1-2.67,3.09,3.09,0,0,1,2.4-1.07,3,3,0,0,1,2.23,1V16.08Zm-3.91,3.54a2.48,2.48,0,0,0,.55,1.67,1.8,1.8,0,0,0,1.42.65,1.89,1.89,0,0,0,1.48-.63,2.71,2.71,0,0,0,0-3.31,1.86,1.86,0,0,0-1.46-.64,1.82,1.82,0,0,0-1.42.64A2.38,2.38,0,0,0,228.85,19.62Z"/><path class="cls-6" d="M238.19,17.61v5.6h-1.65v-5.6h-0.7V16.08h0.7V13.46h1.65v2.61h1.28v1.54h-1.28Z"/><path class="cls-6" d="M240.34,13.11A1.07,1.07,0,0,1,241.41,12a1,1,0,0,1,.76.31,1,1,0,0,1,.32.75,1,1,0,0,1-.32.76,1,1,0,0,1-.75.32A1.08,1.08,0,0,1,240.34,13.11Zm1.9,3v7.13h-1.65V16.08h1.65Z"/><path class="cls-6" d="M245.22,16.08l1.85,4,1.84-4h1.85L247,23.7l-3.68-7.62h1.85Z"/><path class="cls-6" d="M258.11,20H253a2.17,2.17,0,0,0,.57,1.4,1.74,1.74,0,0,0,1.3.51,1.68,1.68,0,0,0,1-.29,4.15,4.15,0,0,0,.9-1.08l1.39,0.78a5.6,5.6,0,0,1-.68.94,3.62,3.62,0,0,1-.77.64,3.07,3.07,0,0,1-.89.37,4.31,4.31,0,0,1-1,.12,3.36,3.36,0,0,1-2.56-1,3.85,3.85,0,0,1-1-2.74,4,4,0,0,1,.94-2.74,3.57,3.57,0,0,1,5,0,4,4,0,0,1,.91,2.76V20Zm-1.69-1.35a1.58,1.58,0,0,0-1.66-1.32,1.69,1.69,0,0,0-.56.09,1.59,1.59,0,0,0-.48.26,1.67,1.67,0,0,0-.37.41,1.94,1.94,0,0,0-.23.55h3.31Z"/><path class="cls-6" d="M266.46,10.71L268,11.3a18.77,18.77,0,0,0-1.12,3.53,16.6,16.6,0,0,0-.24,1.72q-0.08.91-.08,2t0.08,2a16.53,16.53,0,0,0,.24,1.72A18.14,18.14,0,0,0,268,25.76l-1.52.59a17.89,17.89,0,0,1-1.6-7.81A17.9,17.9,0,0,1,266.46,10.71Z"/><path class="cls-6" d="M272.75,21.61H277v1.6h-7.6l3.93-4.75q0.58-.71,1-1.23a9.35,9.35,0,0,0,.6-0.87,2.46,2.46,0,0,0,.42-1.24,1.76,1.76,0,0,0-.56-1.33,1.91,1.91,0,0,0-1.38-.53q-1.71,0-2,2h-1.7q0.41-3.57,3.61-3.57a3.65,3.65,0,0,1,2.59,1,3.19,3.19,0,0,1,1.05,2.43,3.69,3.69,0,0,1-.49,1.81,8.88,8.88,0,0,1-.73,1.1q-0.48.63-1.21,1.5Z"/><path class="cls-6" d="M278.88,17.48a6.82,6.82,0,0,1,1.26-4.31,3.29,3.29,0,0,1,5.46,0,7,7,0,0,1,1.26,4.39,6.94,6.94,0,0,1-1.26,4.38,3.36,3.36,0,0,1-2.72,1.46,3.39,3.39,0,0,1-2.74-1.46A7.06,7.06,0,0,1,278.88,17.48Zm1.69,0a6.71,6.71,0,0,0,.65,3.13,1.74,1.74,0,0,0,3.32,0,6.4,6.4,0,0,0,.66-3.07,6.45,6.45,0,0,0-.66-3.08,1.74,1.74,0,0,0-3.31,0A6.26,6.26,0,0,0,280.57,17.49Z"/><path class="cls-6" d="M290.41,13.5h-2l0.94-1.6h2.72V23.21h-1.71V13.5Z"/><path class="cls-6" d="M297.48,13.5h-2l0.94-1.6h2.72V23.21h-1.71V13.5Z"/><path class="cls-6" d="M305.22,26.34l-1.52-.59a18.14,18.14,0,0,0,1.12-3.52,18.61,18.61,0,0,0,.33-3.71,18.66,18.66,0,0,0-.33-3.7,18.77,18.77,0,0,0-1.12-3.53l1.52-.59a18,18,0,0,1,1.6,7.82A18,18,0,0,1,305.22,26.34Z"/></svg>