<svg id="Charts" xmlns="http://www.w3.org/2000/svg" xmlns:xlink="http://www.w3.org/1999/xlink" viewBox="0 0 514.64 455.72"><defs><style>.cls-1,.cls-14,.cls-2,.cls-4,.cls-5,.cls-7{fill:none;}.cls-12,.cls-14,.cls-2,.cls-4,.cls-5,.cls-7,.cls-9{stroke:#fff;stroke-miterlimit:10;}.cls-12,.cls-2{stroke-width:0.94px;}.cls-3{clip-path:url(#clip-path);}.cls-4{stroke-width:1.57px;}.cls-12,.cls-6,.cls-9{fill:#fff;}.cls-12,.cls-7,.cls-8{opacity:0.4;}.cls-9{stroke-width:1.96px;}.cls-10{clip-path:url(#clip-path-2);}.cls-11{clip-path:url(#clip-path-3);}.cls-13{clip-path:url(#clip-path-4);}.cls-14{stroke-width:0.75px;}.cls-15{fill:#016d3d;opacity:0.8;}</style><clipPath id="clip-path"><rect class="cls-1" x="126.46" y="-235.54" width="65.76" height="158.7"/></clipPath><clipPath id="clip-path-2"><rect class="cls-1" x="288.38" y="163.11" width="197" height="263.74"/></clipPath><clipPath id="clip-path-3"><rect class="cls-1" x="288.46" y="633.26" width="197" height="231.91"/></clipPath><clipPath id="clip-path-4"><rect class="cls-2" x="269" y="75.5" width="14.11" height="14.11"/></clipPath></defs><title>Charts_</title><g class="cls-3"><line class="cls-4" x1="126.46" y1="25.8" x2="237.34" y2="-85.07"/><line class="cls-4" x1="126.46" y1="14.04" x2="237.34" y2="-96.83"/><line class="cls-4" x1="126.46" y1="2.28" x2="237.34" y2="-108.59"/></g><line class="cls-5" x1="40.23" y1="426.84" x2="514.64" y2="426.84"/><path class="cls-6" d="M108.72,38.54v9.08a5,5,0,0,0,.63,2.84,3.4,3.4,0,0,0,5.34,0,4.91,4.91,0,0,0,.63-2.84V38.54h2.28v9.71a5.43,5.43,0,0,1-1.48,3.93,5.74,5.74,0,0,1-8.19,0,5.43,5.43,0,0,1-1.48-3.93V38.54h2.28Z"/><path class="cls-6" d="M120.94,44.1h2.21V45a3.6,3.6,0,0,1,2.6-1.14,3.28,3.28,0,0,1,2.59,1,4.28,4.28,0,0,1,.8,2.9v5.83h-2.21V48.31a3.48,3.48,0,0,0-.39-1.94,1.58,1.58,0,0,0-1.39-.55,1.7,1.7,0,0,0-1.55.72,5,5,0,0,0-.45,2.49v4.58h-2.21V44.1Z"/><path class="cls-6" d="M132.78,44.1l2.46,5.34,2.45-5.34h2.47l-4.94,10.17-4.9-10.17h2.46Z"/><path class="cls-6" d="M150,49.38h-6.82a2.89,2.89,0,0,0,.76,1.87,2.32,2.32,0,0,0,1.73.68,2.25,2.25,0,0,0,1.36-.39,5.56,5.56,0,0,0,1.2-1.45l1.86,1a7.36,7.36,0,0,1-.91,1.25,4.84,4.84,0,0,1-1,.86,4.12,4.12,0,0,1-1.18.49,5.73,5.73,0,0,1-1.38.16,4.48,4.48,0,0,1-3.42-1.37,5.13,5.13,0,0,1-1.29-3.65,5.27,5.27,0,0,1,1.25-3.65,4.76,4.76,0,0,1,6.66,0A5.26,5.26,0,0,1,150,48.86v0.52Zm-2.26-1.8a2.1,2.1,0,0,0-2.22-1.76,2.29,2.29,0,0,0-.75.12,2.14,2.14,0,0,0-.64.35,2.23,2.23,0,0,0-.49.55,2.56,2.56,0,0,0-.31.73h4.41Z"/><path class="cls-6" d="M152.37,44.1h2.2V45a4.2,4.2,0,0,1,1.07-.87,2.46,2.46,0,0,1,1.13-.24,3.55,3.55,0,0,1,1.82.57l-1,2a2.1,2.1,0,0,0-1.22-.45q-1.8,0-1.8,2.71v4.93h-2.2V44.1Z"/><path class="cls-6" d="M159.82,40.15a1.43,1.43,0,0,1,1.43-1.42,1.38,1.38,0,0,1,1,.42,1.35,1.35,0,0,1,.42,1,1.38,1.38,0,0,1-.42,1,1.35,1.35,0,0,1-1,.42A1.43,1.43,0,0,1,159.82,40.15Zm2.53,4V58.79h-2.2V44.1h2.2Z"/><path class="cls-6" d="M172.15,44.1h2.21v9.51h-2.21v-1a4.22,4.22,0,0,1-6.18-.16,5.3,5.3,0,0,1-1.28-3.63A5.14,5.14,0,0,1,166,45.26a4.12,4.12,0,0,1,3.2-1.43,4,4,0,0,1,3,1.37V44.1Zm-5.77-3a1.3,1.3,0,0,1,.41-1,1.39,1.39,0,0,1,2,0,1.31,1.31,0,0,1,.41,1,1.36,1.36,0,0,1-.41,1,1.41,1.41,0,0,1-1,.4,1.36,1.36,0,0,1-1-.41A1.42,1.42,0,0,1,166.38,41.08Zm0.56,7.75a3.31,3.31,0,0,0,.73,2.23,2.4,2.4,0,0,0,1.89.87,2.52,2.52,0,0,0,2-.84,3.61,3.61,0,0,0,0-4.41,2.49,2.49,0,0,0-2-.85,2.43,2.43,0,0,0-1.89.86A3.17,3.17,0,0,0,166.93,48.83Zm3.53-7.75a1.3,1.3,0,0,1,.41-1,1.37,1.37,0,0,1,1-.41,1.4,1.4,0,0,1,1.4,1.39,1.36,1.36,0,0,1-.41,1,1.41,1.41,0,0,1-1,.4A1.4,1.4,0,0,1,170.46,41.08Z"/><path class="cls-6" d="M177.13,37.12h2.2v7.77a3.78,3.78,0,0,1,2.59-1.05,3.34,3.34,0,0,1,2.58,1,4.25,4.25,0,0,1,.82,2.9v5.83h-2.2V48a2.68,2.68,0,0,0-.41-1.66,1.56,1.56,0,0,0-1.3-.51,1.79,1.79,0,0,0-1.62.71,4.89,4.89,0,0,0-.46,2.48v4.6h-2.2V37.12Z"/><path class="cls-6" d="M188.09,44.1h2.2V45a4.2,4.2,0,0,1,1.07-.87,2.46,2.46,0,0,1,1.13-.24,3.55,3.55,0,0,1,1.82.57l-1,2a2.1,2.1,0,0,0-1.22-.45q-1.8,0-1.8,2.71v4.93h-2.2V44.1Z"/><path class="cls-6" d="M197.77,37.12v8.09a4.06,4.06,0,0,1,3-1.37,4.11,4.11,0,0,1,3.2,1.44,5.13,5.13,0,0,1,1.28,3.55A5.23,5.23,0,0,1,204,52.46a4.16,4.16,0,0,1-3.23,1.43,4.11,4.11,0,0,1-2.95-1.27v1h-2.2V37.12h2.2ZM203,48.93a3.28,3.28,0,0,0-.74-2.23,2.38,2.38,0,0,0-1.88-.88,2.53,2.53,0,0,0-2,.85,3.16,3.16,0,0,0-.75,2.19,3.2,3.2,0,0,0,.74,2.22,2.47,2.47,0,0,0,2,.85,2.42,2.42,0,0,0,1.89-.85A3.12,3.12,0,0,0,203,48.93Z"/><path class="cls-6" d="M214.58,44.1h2.21v9.51h-2.21v-1a4.22,4.22,0,0,1-6.18-.16,5.3,5.3,0,0,1-1.28-3.63,5.14,5.14,0,0,1,1.28-3.56,4.12,4.12,0,0,1,3.2-1.43,4,4,0,0,1,3,1.37V44.1Zm-5.21,4.73a3.31,3.31,0,0,0,.73,2.23,2.4,2.4,0,0,0,1.89.87,2.52,2.52,0,0,0,2-.84,3.61,3.61,0,0,0,0-4.41,2.49,2.49,0,0,0-2-.85,2.43,2.43,0,0,0-1.89.86A3.17,3.17,0,0,0,209.36,48.83Z"/><path class="cls-6" d="M219.56,44.1h2.2V45a4.2,4.2,0,0,1,1.07-.87,2.46,2.46,0,0,1,1.13-.24,3.55,3.55,0,0,1,1.82.57l-1,2a2.1,2.1,0,0,0-1.22-.45q-1.8,0-1.8,2.71v4.93h-2.2V44.1Z"/><path class="cls-6" d="M229.54,37.12V47.18l3.1-3.08h2.95l-4.13,4,4.43,5.52H233l-3.14-4-0.35.35v3.66h-2.2V37.12h2.2Z"/><path class="cls-6" d="M245.64,49.38h-6.82a2.89,2.89,0,0,0,.76,1.87,2.32,2.32,0,0,0,1.73.68,2.25,2.25,0,0,0,1.36-.39,5.56,5.56,0,0,0,1.2-1.45l1.86,1a7.36,7.36,0,0,1-.91,1.25,4.84,4.84,0,0,1-1,.86,4.12,4.12,0,0,1-1.18.49,5.73,5.73,0,0,1-1.38.16,4.48,4.48,0,0,1-3.42-1.37,5.13,5.13,0,0,1-1.29-3.65,5.27,5.27,0,0,1,1.25-3.65,4.76,4.76,0,0,1,6.66,0,5.26,5.26,0,0,1,1.21,3.68v0.52Zm-2.26-1.8a2.1,2.1,0,0,0-2.22-1.76,2.29,2.29,0,0,0-.75.12,2.14,2.14,0,0,0-.64.35,2.23,2.23,0,0,0-.49.55,2.56,2.56,0,0,0-.31.73h4.41Z"/><path class="cls-6" d="M247.71,40.15a1.43,1.43,0,0,1,1.43-1.42,1.38,1.38,0,0,1,1,.42,1.35,1.35,0,0,1,.42,1,1.38,1.38,0,0,1-.42,1,1.35,1.35,0,0,1-1,.42A1.43,1.43,0,0,1,247.71,40.15Zm2.53,4v9.51H248V44.1h2.2Z"/><path class="cls-6" d="M255.29,46.15v7.46h-2.2V46.15h-0.94V44.1h0.94V40.62h2.2V44.1H257v2.05h-1.71Z"/><path class="cls-6" d="M264,45.72l-1.82,1a1.26,1.26,0,0,0-1.06-.87,0.73,0.73,0,0,0-.52.2,0.67,0.67,0,0,0-.21.51q0,0.55,1.27,1.08A7.57,7.57,0,0,1,264,49a2.37,2.37,0,0,1,.61,1.71,3,3,0,0,1-1,2.3,3.64,3.64,0,0,1-5.77-1.46l1.88-.87a4.09,4.09,0,0,0,.6.87,1.36,1.36,0,0,0,1,.37,0.94,0.94,0,0,0,1.11-1,1.39,1.39,0,0,0-.86-1.09l-0.66-.32-0.67-.32a4.13,4.13,0,0,1-1.35-.94,2.31,2.31,0,0,1-.5-1.53,2.71,2.71,0,0,1,.85-2.05,3,3,0,0,1,2.11-.81A2.88,2.88,0,0,1,264,45.72Z"/><path class="cls-6" d="M266.28,40.15a1.43,1.43,0,0,1,1.43-1.42,1.38,1.38,0,0,1,1,.42,1.35,1.35,0,0,1,.42,1,1.38,1.38,0,0,1-.42,1,1.35,1.35,0,0,1-1,.42A1.43,1.43,0,0,1,266.28,40.15Zm2.53,4v9.51h-2.2V44.1h2.2Z"/><path class="cls-6" d="M271.59,44.1h2.21V45a3.6,3.6,0,0,1,2.6-1.14,3.28,3.28,0,0,1,2.59,1,4.28,4.28,0,0,1,.8,2.9v5.83h-2.21V48.31a3.48,3.48,0,0,0-.39-1.94,1.58,1.58,0,0,0-1.39-.55,1.7,1.7,0,0,0-1.55.72A5,5,0,0,0,273.8,49v4.58h-2.21V44.1Z"/><path class="cls-6" d="M282.22,40.15a1.43,1.43,0,0,1,1.43-1.42,1.38,1.38,0,0,1,1,.42,1.35,1.35,0,0,1,.42,1,1.38,1.38,0,0,1-.42,1,1.35,1.35,0,0,1-1,.42A1.43,1.43,0,0,1,282.22,40.15Zm2.53,4v9.51h-2.2V44.1h2.2Z"/><path class="cls-6" d="M289.8,46.15v7.46h-2.2V46.15h-0.94V44.1h0.94V40.62h2.2V44.1h1.71v2.05H289.8Z"/><path class="cls-6" d="M292.67,40.15a1.43,1.43,0,0,1,1.43-1.42,1.38,1.38,0,0,1,1,.42,1.35,1.35,0,0,1,.42,1,1.38,1.38,0,0,1-.42,1,1.35,1.35,0,0,1-1,.42A1.43,1.43,0,0,1,292.67,40.15Zm2.53,4v9.51H293V44.1h2.2Z"/><path class="cls-6" d="M305,44.1h2.21v9.51H305v-1a4.22,4.22,0,0,1-6.18-.16,5.3,5.3,0,0,1-1.28-3.63,5.14,5.14,0,0,1,1.28-3.56,4.12,4.12,0,0,1,3.2-1.43,4,4,0,0,1,3,1.37V44.1Zm-5.21,4.73a3.31,3.31,0,0,0,.73,2.23,2.4,2.4,0,0,0,1.89.87,2.52,2.52,0,0,0,2-.84,3.61,3.61,0,0,0,0-4.41,2.49,2.49,0,0,0-2-.85,2.43,2.43,0,0,0-1.89.86A3.17,3.17,0,0,0,299.78,48.83Z"/><path class="cls-6" d="M312.24,46.15v7.46H310V46.15h-0.94V44.1H310V40.62h2.2V44.1H314v2.05h-1.71Z"/><path class="cls-6" d="M315.12,40.15a1.43,1.43,0,0,1,1.43-1.42,1.38,1.38,0,0,1,1,.42,1.35,1.35,0,0,1,.42,1,1.38,1.38,0,0,1-.42,1,1.35,1.35,0,0,1-1,.42A1.43,1.43,0,0,1,315.12,40.15Zm2.53,4v9.51h-2.2V44.1h2.2Z"/><path class="cls-6" d="M321.61,44.1l2.46,5.34,2.45-5.34H329l-4.94,10.17-4.9-10.17h2.46Z"/><path class="cls-6" d="M338.8,49.38H332a2.89,2.89,0,0,0,.76,1.87,2.32,2.32,0,0,0,1.73.68,2.25,2.25,0,0,0,1.36-.39,5.56,5.56,0,0,0,1.2-1.45l1.86,1a7.36,7.36,0,0,1-.91,1.25,4.84,4.84,0,0,1-1,.86,4.12,4.12,0,0,1-1.18.49,5.73,5.73,0,0,1-1.38.16A4.48,4.48,0,0,1,331,52.52a5.13,5.13,0,0,1-1.29-3.65,5.27,5.27,0,0,1,1.25-3.65,4.76,4.76,0,0,1,6.66,0,5.26,5.26,0,0,1,1.21,3.68v0.52Zm-2.26-1.8a2.1,2.1,0,0,0-2.22-1.76,2.29,2.29,0,0,0-.75.12,2.14,2.14,0,0,0-.64.35,2.23,2.23,0,0,0-.49.55,2.56,2.56,0,0,0-.31.73h4.41Z"/><path class="cls-6" d="M349.93,37l2,0.78a25,25,0,0,0-1.49,4.71,22,22,0,0,0-.32,2.3Q350,45.95,350,47.37T350.14,50a22,22,0,0,0,.32,2.3A24.21,24.21,0,0,0,352,57l-2,.78a23.86,23.86,0,0,1-2.14-10.42A23.86,23.86,0,0,1,349.93,37Z"/><path class="cls-6" d="M358.32,51.48h5.62v2.14H353.81L359,47.28q0.77-.95,1.29-1.64a12.43,12.43,0,0,0,.8-1.16,3.27,3.27,0,0,0,.56-1.65,2.35,2.35,0,0,0-.74-1.77,2.55,2.55,0,0,0-1.84-.71q-2.29,0-2.62,2.71h-2.27q0.55-4.77,4.81-4.77a4.86,4.86,0,0,1,3.46,1.31,4.25,4.25,0,0,1,1.41,3.24,4.92,4.92,0,0,1-.65,2.41,11.84,11.84,0,0,1-1,1.46q-0.64.85-1.62,2Z"/><path class="cls-6" d="M366.5,46a9.09,9.09,0,0,1,1.68-5.75,4.39,4.39,0,0,1,7.29,0,9.26,9.26,0,0,1,1.68,5.85,9.24,9.24,0,0,1-1.68,5.84,4.47,4.47,0,0,1-3.63,1.94,4.52,4.52,0,0,1-3.65-1.94A9.41,9.41,0,0,1,366.5,46Zm2.25,0a8.94,8.94,0,0,0,.87,4.17,2.32,2.32,0,0,0,4.43,0,8.53,8.53,0,0,0,.88-4.09A8.59,8.59,0,0,0,374,42a2.31,2.31,0,0,0-4.42,0A8.33,8.33,0,0,0,368.75,46Z"/><path class="cls-6" d="M378.85,46a9.09,9.09,0,0,1,1.68-5.75,4.39,4.39,0,0,1,7.29,0,9.26,9.26,0,0,1,1.68,5.85,9.24,9.24,0,0,1-1.68,5.84,4.47,4.47,0,0,1-3.63,1.94,4.52,4.52,0,0,1-3.65-1.94A9.41,9.41,0,0,1,378.85,46Zm2.25,0a8.94,8.94,0,0,0,.87,4.17,2.32,2.32,0,0,0,4.43,0,8.53,8.53,0,0,0,.88-4.09,8.59,8.59,0,0,0-.88-4.1A2.31,2.31,0,0,0,382,42,8.33,8.33,0,0,0,381.09,46Z"/><path class="cls-6" d="M393.82,45.77a3.71,3.71,0,0,1-1.66-3.19,4.11,4.11,0,0,1,1.26-3.07,4.35,4.35,0,0,1,3.15-1.23,4.27,4.27,0,0,1,3.13,1.23,4.12,4.12,0,0,1,1.25,3.08,3.79,3.79,0,0,1-1.65,3.17,3.49,3.49,0,0,1,1.43,1.43,4.16,4.16,0,0,1,.54,2.11,4.39,4.39,0,0,1-1.31,3.28,4.6,4.6,0,0,1-3.35,1.28,4.81,4.81,0,0,1-3.45-1.29,4.27,4.27,0,0,1-1.37-3.24A3.64,3.64,0,0,1,393.82,45.77ZM394,49.25a2.5,2.5,0,0,0,.72,1.8,2.49,2.49,0,0,0,3.54,0,2.53,2.53,0,0,0,0-3.55A2.5,2.5,0,0,0,394,49.25Zm0.27-6.68a2.25,2.25,0,0,0,2.26,2.29A2.26,2.26,0,1,0,395,41,2.14,2.14,0,0,0,394.29,42.57Z"/><path class="cls-6" d="M406.07,57.79L404,57a24.21,24.21,0,0,0,1.49-4.7,24.84,24.84,0,0,0,.44-4.94,24.87,24.87,0,0,0-.44-4.93A25,25,0,0,0,404,37.74l2-.78a24,24,0,0,1,2.13,10.42A24,24,0,0,1,406.07,57.79Z"/><path class="cls-6" d="M7.07,145.85L8.57,147l-3.24,4.41,0.45-.05,0.29,0a3.81,3.81,0,0,1,2.86,1.27,4.19,4.19,0,0,1,1.2,3,4.36,4.36,0,0,1-1.34,3.2,4.35,4.35,0,0,1-3.19,1.33,4.57,4.57,0,0,1-3.23-1.31A4.16,4.16,0,0,1,1,155.71a5.84,5.84,0,0,1,1.33-3.41Zm1.05,9.87a2.57,2.57,0,0,0-2.57-2.58,2.56,2.56,0,1,0,0,5.12,2.46,2.46,0,0,0,1.8-.75A2.44,2.44,0,0,0,8.12,155.72Z"/><path class="cls-6" d="M11.87,153a8.18,8.18,0,0,1,1.51-5.18,3.95,3.95,0,0,1,6.56,0,9.91,9.91,0,0,1,0,10.52,4,4,0,0,1-3.27,1.75,4.07,4.07,0,0,1-3.29-1.75A8.47,8.47,0,0,1,11.87,153Zm2,0a8,8,0,0,0,.78,3.75,2.29,2.29,0,0,0,2,1.47,2.3,2.3,0,0,0,2-1.47,9,9,0,0,0,0-7.37,2.3,2.3,0,0,0-2-1.46,2.3,2.3,0,0,0-2,1.46A7.5,7.5,0,0,0,13.9,153Z"/><path class="cls-6" d="M9.47,193.73H5.28L4.61,196l0.29,0H5.15a4.27,4.27,0,0,1,3.24,1.34,5.11,5.11,0,0,1-.17,6.94,5,5,0,0,1-3.63,1.39,4.78,4.78,0,0,1-4.25-2.53l1.55-1.31a4.8,4.8,0,0,0,1.29,1.54,2.78,2.78,0,0,0,1.59.44,2.76,2.76,0,0,0,2.07-.86,3,3,0,0,0,.83-2.15,2.88,2.88,0,0,0-.83-2.13,2.76,2.76,0,0,0-2.07-.85,3,3,0,0,0-2.38,1.2H1.72l2.14-7.14H9.47v1.93Z"/><path class="cls-6" d="M11.87,198.5a8.18,8.18,0,0,1,1.51-5.18,3.95,3.95,0,0,1,6.56,0,9.91,9.91,0,0,1,0,10.52,4,4,0,0,1-3.27,1.75,4.07,4.07,0,0,1-3.29-1.75A8.47,8.47,0,0,1,11.87,198.5Zm2,0a8,8,0,0,0,.78,3.75,2.29,2.29,0,0,0,2,1.47,2.3,2.3,0,0,0,2-1.47,9,9,0,0,0,0-7.37,2.3,2.3,0,0,0-2-1.46,2.3,2.3,0,0,0-2,1.46A7.5,7.5,0,0,0,13.9,198.51Z"/><path class="cls-6" d="M8.88,247.06h1.44v1.86H8.88v1.92h-2v-1.92H0.17l8.71-12.66v10.79Zm-2,0v-4.54L3.7,247.06H6.83Z"/><path class="cls-6" d="M11.87,244a8.18,8.18,0,0,1,1.51-5.18,3.95,3.95,0,0,1,6.56,0,9.91,9.91,0,0,1,0,10.52,4,4,0,0,1-3.27,1.75,4.07,4.07,0,0,1-3.29-1.75A8.47,8.47,0,0,1,11.87,244Zm2,0a8,8,0,0,0,.78,3.75,2.29,2.29,0,0,0,2,1.47,2.3,2.3,0,0,0,2-1.47,9,9,0,0,0,0-7.37,2.3,2.3,0,0,0-2-1.46,2.3,2.3,0,0,0-2,1.46A7.5,7.5,0,0,0,13.9,244Z"/><path class="cls-6" d="M4.66,290v-1.75A3.57,3.57,0,0,0,6.41,288a1.79,1.79,0,0,0,.8-1.63,1.85,1.85,0,0,0-.58-1.42,2,2,0,0,0-1.49-.55,1.92,1.92,0,0,0-1.32.41,2.74,2.74,0,0,0-.67,1.42h-2a4.71,4.71,0,0,1,1.3-2.81,4,4,0,0,1,2.75-.89,4.08,4.08,0,0,1,2.91,1.05,3.52,3.52,0,0,1,1.13,2.7,3.34,3.34,0,0,1-1.48,2.9,3.45,3.45,0,0,1,1.7,3.23,3.92,3.92,0,0,1-1.23,3A4.43,4.43,0,0,1,5,296.54a4.05,4.05,0,0,1-3.64-1.8,4.68,4.68,0,0,1-.62-2.09h2a2.4,2.4,0,0,0,.77,1.51,2.36,2.36,0,0,0,1.59.52A2.21,2.21,0,0,0,6.75,294a2.37,2.37,0,0,0,.65-1.71,2.09,2.09,0,0,0-1-2A3.61,3.61,0,0,0,4.66,290Z"/><path class="cls-6" d="M11.87,289.44a8.18,8.18,0,0,1,1.51-5.18,3.95,3.95,0,0,1,6.56,0,9.91,9.91,0,0,1,0,10.52,4,4,0,0,1-3.27,1.75,4.07,4.07,0,0,1-3.29-1.75A8.47,8.47,0,0,1,11.87,289.44Zm2,0a8,8,0,0,0,.78,3.75,2.29,2.29,0,0,0,2,1.47,2.3,2.3,0,0,0,2-1.47,9,9,0,0,0,0-7.37,2.3,2.3,0,0,0-2-1.46,2.3,2.3,0,0,0-2,1.46A7.5,7.5,0,0,0,13.9,289.45Z"/><path class="cls-6" d="M4.51,339.86H9.56v1.92H0.45l4.71-5.7q0.69-.85,1.17-1.48a11.4,11.4,0,0,0,.72-1,2.94,2.94,0,0,0,.5-1.49,2.12,2.12,0,0,0-.67-1.59,2.29,2.29,0,0,0-1.65-.64q-2.06,0-2.36,2.43h-2Q1.32,328,5.16,328a4.38,4.38,0,0,1,3.11,1.18,3.83,3.83,0,0,1,1.27,2.92,4.43,4.43,0,0,1-.59,2.17,10.57,10.57,0,0,1-.87,1.31q-0.58.76-1.45,1.8Z"/><path class="cls-6" d="M11.87,334.91a8.18,8.18,0,0,1,1.51-5.18,3.95,3.95,0,0,1,6.56,0,9.91,9.91,0,0,1,0,10.52A4,4,0,0,1,16.67,342a4.07,4.07,0,0,1-3.29-1.75A8.47,8.47,0,0,1,11.87,334.91Zm2,0a8,8,0,0,0,.78,3.75,2.29,2.29,0,0,0,2,1.47,2.3,2.3,0,0,0,2-1.47,9,9,0,0,0,0-7.37,2.3,2.3,0,0,0-2-1.46,2.3,2.3,0,0,0-2,1.46A7.5,7.5,0,0,0,13.9,334.92Z"/><path class="cls-6" d="M5.42,375.62H3.07l1.13-1.92H7.47v13.57h-2V375.62Z"/><path class="cls-6" d="M11.33,380.39a8.18,8.18,0,0,1,1.51-5.18,3.95,3.95,0,0,1,6.56,0,9.91,9.91,0,0,1,0,10.52,4,4,0,0,1-3.27,1.75,4.07,4.07,0,0,1-3.29-1.75A8.47,8.47,0,0,1,11.33,380.39Zm2,0a8,8,0,0,0,.78,3.75,2.29,2.29,0,0,0,2,1.47,2.3,2.3,0,0,0,2-1.47,9,9,0,0,0,0-7.37,2.3,2.3,0,0,0-2-1.46,2.3,2.3,0,0,0-2,1.46A7.5,7.5,0,0,0,13.35,380.4Z"/><line class="cls-7" x1="40.23" y1="381.37" x2="514.64" y2="381.37"/><line class="cls-7" x1="40.23" y1="335.9" x2="514.64" y2="335.9"/><line class="cls-7" x1="40.23" y1="290.43" x2="514.64" y2="290.43"/><line class="cls-7" x1="40.23" y1="244.96" x2="514.64" y2="244.96"/><line class="cls-7" x1="40.23" y1="199.48" x2="514.64" y2="199.48"/><line class="cls-7" x1="40.23" y1="154.01" x2="514.64" y2="154.01"/><g class="cls-8"><rect class="cls-9" x="69.49" y="208.58" width="197" height="218.27"/></g><g class="cls-10"><line class="cls-4" x1="286.85" y1="166.74" x2="564.03" y2="-110.44"/><line class="cls-4" x1="286.85" y1="178.5" x2="564.03" y2="-98.68"/><line class="cls-4" x1="286.85" y1="190.26" x2="564.03" y2="-86.92"/><line class="cls-4" x1="286.85" y1="202.02" x2="564.03" y2="-75.16"/><line class="cls-4" x1="286.85" y1="213.78" x2="564.03" y2="-63.4"/><line class="cls-4" x1="286.85" y1="225.54" x2="564.03" y2="-51.64"/><line class="cls-4" x1="286.85" y1="237.3" x2="564.03" y2="-39.88"/><line class="cls-4" x1="286.85" y1="249.06" x2="564.03" y2="-28.12"/><line class="cls-4" x1="286.85" y1="260.82" x2="564.03" y2="-16.36"/><line class="cls-4" x1="286.85" y1="272.58" x2="564.03" y2="-4.6"/><line class="cls-4" x1="286.85" y1="284.34" x2="564.03" y2="7.16"/><line class="cls-4" x1="286.85" y1="296.1" x2="564.03" y2="18.92"/><line class="cls-4" x1="286.85" y1="307.86" x2="564.03" y2="30.68"/><line class="cls-4" x1="286.85" y1="319.62" x2="564.03" y2="42.44"/><line class="cls-4" x1="286.85" y1="331.38" x2="564.03" y2="54.2"/><line class="cls-4" x1="286.85" y1="343.14" x2="564.03" y2="65.96"/><line class="cls-4" x1="286.85" y1="354.9" x2="564.03" y2="77.72"/><line class="cls-4" x1="286.85" y1="366.66" x2="564.03" y2="89.48"/><line class="cls-4" x1="286.85" y1="378.42" x2="564.03" y2="101.24"/><line class="cls-4" x1="286.85" y1="390.18" x2="564.03" y2="113"/><line class="cls-4" x1="286.85" y1="401.94" x2="564.03" y2="124.76"/><line class="cls-4" x1="286.85" y1="413.7" x2="564.03" y2="136.52"/><line class="cls-4" x1="286.85" y1="425.46" x2="564.03" y2="148.28"/><line class="cls-4" x1="286.85" y1="437.22" x2="564.03" y2="160.04"/><line class="cls-4" x1="286.85" y1="448.98" x2="564.03" y2="171.8"/><line class="cls-4" x1="286.85" y1="460.74" x2="564.03" y2="183.56"/><line class="cls-4" x1="286.85" y1="472.5" x2="564.03" y2="195.32"/><line class="cls-4" x1="286.85" y1="484.26" x2="564.03" y2="207.08"/><line class="cls-4" x1="286.85" y1="496.02" x2="564.03" y2="218.84"/><line class="cls-4" x1="286.85" y1="507.78" x2="564.03" y2="230.6"/><line class="cls-4" x1="286.85" y1="519.54" x2="564.03" y2="242.36"/><line class="cls-4" x1="286.85" y1="531.3" x2="564.03" y2="254.12"/><line class="cls-4" x1="286.85" y1="543.06" x2="564.03" y2="265.88"/><line class="cls-4" x1="286.85" y1="554.82" x2="564.03" y2="277.64"/><line class="cls-4" x1="286.85" y1="566.58" x2="564.03" y2="289.4"/><line class="cls-4" x1="286.85" y1="578.34" x2="564.03" y2="301.16"/><line class="cls-4" x1="286.85" y1="590.1" x2="564.03" y2="312.92"/><line class="cls-4" x1="286.85" y1="601.86" x2="564.03" y2="324.68"/><line class="cls-4" x1="286.85" y1="613.62" x2="564.03" y2="336.44"/><line class="cls-4" x1="286.85" y1="625.38" x2="564.03" y2="348.2"/></g><g class="cls-11"><line class="cls-4" x1="288.19" y1="636.48" x2="565.37" y2="359.29"/><line class="cls-4" x1="288.19" y1="648.24" x2="565.37" y2="371.05"/><line class="cls-4" x1="288.19" y1="660" x2="565.37" y2="382.81"/><line class="cls-4" x1="288.19" y1="671.76" x2="565.37" y2="394.57"/><line class="cls-4" x1="288.19" y1="683.52" x2="565.37" y2="406.33"/><line class="cls-4" x1="288.19" y1="695.28" x2="565.37" y2="418.09"/><line class="cls-4" x1="288.19" y1="707.04" x2="565.37" y2="429.85"/><line class="cls-4" x1="288.19" y1="718.8" x2="565.37" y2="441.61"/><line class="cls-4" x1="288.19" y1="730.56" x2="565.37" y2="453.37"/></g><rect class="cls-12" x="177.82" y="74.74" width="14.11" height="14.11"/><g class="cls-13"><line class="cls-14" x1="268.53" y1="104.39" x2="321.75" y2="51.17"/><line class="cls-14" x1="268.53" y1="98.75" x2="321.75" y2="45.53"/><line class="cls-14" x1="268.53" y1="93.1" x2="321.75" y2="39.88"/><line class="cls-14" x1="268.53" y1="87.46" x2="321.75" y2="34.24"/><line class="cls-14" x1="268.53" y1="81.81" x2="321.75" y2="28.59"/><line class="cls-14" x1="268.53" y1="76.17" x2="321.75" y2="22.95"/></g><rect class="cls-2" x="269" y="75.5" width="14.11" height="14.11"/><path class="cls-6" d="M300,77.64h-3.68v2.54h3.55v1.5h-3.55v5h-1.59V76.15H300v1.5Z"/><path class="cls-6" d="M301.37,80h1.54v0.59a3,3,0,0,1,.75-0.61,1.73,1.73,0,0,1,.79-0.17,2.48,2.48,0,0,1,1.27.4L305,81.66a1.47,1.47,0,0,0-.86-0.31q-1.26,0-1.26,1.9V86.7h-1.54V80Z"/><path class="cls-6" d="M311.42,80H313V86.7h-1.54V86a3,3,0,0,1-4.33-.11,3.72,3.72,0,0,1-.89-2.54,3.6,3.6,0,0,1,.89-2.5,2.89,2.89,0,0,1,2.24-1,2.83,2.83,0,0,1,2.09,1V80Zm-3.65,3.31a2.32,2.32,0,0,0,.51,1.56,1.68,1.68,0,0,0,1.33.61,1.76,1.76,0,0,0,1.38-.59,2.53,2.53,0,0,0,0-3.09,1.74,1.74,0,0,0-1.37-.59,1.7,1.7,0,0,0-1.33.6A2.22,2.22,0,0,0,307.77,83.35Z"/><path class="cls-6" d="M316.44,80v3.82q0,1.65,1.31,1.65t1.3-1.65V80h1.54V83.9a4.27,4.27,0,0,1-.2,1.38,2.31,2.31,0,0,1-.66.94,3.23,3.23,0,0,1-4,0,2.35,2.35,0,0,1-.68-0.94,3.78,3.78,0,0,1-.19-1.38V80h1.54Z"/><path class="cls-6" d="M328.6,83.73h-4.77a2,2,0,0,0,.53,1.31,1.63,1.63,0,0,0,1.21.48,1.57,1.57,0,0,0,.95-0.27,3.9,3.9,0,0,0,.84-1l1.3,0.72a5.1,5.1,0,0,1-.64.88,3.35,3.35,0,0,1-.72.6,2.87,2.87,0,0,1-.83.35,4,4,0,0,1-1,.11,3.13,3.13,0,0,1-2.39-1,3.59,3.59,0,0,1-.9-2.56,3.69,3.69,0,0,1,.88-2.56,3.33,3.33,0,0,1,4.66,0,3.69,3.69,0,0,1,.85,2.58v0.36ZM327,82.48a1.47,1.47,0,0,0-1.55-1.23,1.58,1.58,0,0,0-.53.09,1.47,1.47,0,0,0-.45.25,1.54,1.54,0,0,0-.35.39,1.76,1.76,0,0,0-.22.51H327Z"/><path class="cls-6" d="M330.28,80h1.54v0.62a2.52,2.52,0,0,1,1.82-.8,2.3,2.3,0,0,1,1.81.73,3,3,0,0,1,.56,2V86.7h-1.54V83a2.44,2.44,0,0,0-.27-1.36,1.1,1.1,0,0,0-1-.38,1.19,1.19,0,0,0-1.09.5,3.48,3.48,0,0,0-.31,1.74V86.7h-1.54V80Z"/><path class="cls-6" d="M203.13,85.95l2.22-11.35L209,82.8l3.75-8.2,2,11.35h-1.63l-1-6.37-3.12,6.86-3-6.86-1.13,6.38h-1.65Z"/><path class="cls-6" d="M221.57,79.29h1.54v6.66h-1.54v-0.7a3,3,0,0,1-4.33-.11,3.71,3.71,0,0,1-.9-2.54,3.6,3.6,0,0,1,.9-2.5,2.89,2.89,0,0,1,2.24-1,2.83,2.83,0,0,1,2.08,1V79.29Zm-4-2.12a0.91,0.91,0,0,1,.29-0.68,1,1,0,0,1,1.38,0,0.92,0.92,0,0,1,.29.68,1,1,0,0,1-.29.7,1,1,0,0,1-.69.28,1,1,0,0,1-.7-0.29A1,1,0,0,1,217.53,77.17Zm0.39,5.43a2.32,2.32,0,0,0,.51,1.56,1.68,1.68,0,0,0,1.33.61,1.77,1.77,0,0,0,1.38-.59,2.53,2.53,0,0,0,0-3.09,1.74,1.74,0,0,0-1.37-.59,1.7,1.7,0,0,0-1.33.6A2.22,2.22,0,0,0,217.92,82.6Zm2.47-5.43a0.91,0.91,0,0,1,.29-0.68,1,1,0,0,1,.69-0.29,1,1,0,0,1,1,1,1,1,0,0,1-.29.7,1,1,0,0,1-.69.28A1,1,0,0,1,220.39,77.17Z"/><path class="cls-6" d="M225.06,79.29h1.54V79.9a2.52,2.52,0,0,1,1.82-.8,2.3,2.3,0,0,1,1.81.73,3,3,0,0,1,.56,2v4.08h-1.54V82.23a2.43,2.43,0,0,0-.27-1.36,1.1,1.1,0,0,0-1-.38,1.19,1.19,0,0,0-1.09.5,3.47,3.47,0,0,0-.31,1.74v3.21h-1.54V79.29Z"/><path class="cls-6" d="M232.73,79.29h1.54V79.9a2.52,2.52,0,0,1,1.82-.8,2.3,2.3,0,0,1,1.81.73,3,3,0,0,1,.56,2v4.08h-1.54V82.23a2.43,2.43,0,0,0-.27-1.36,1.1,1.1,0,0,0-1-.38,1.19,1.19,0,0,0-1.09.5,3.47,3.47,0,0,0-.31,1.74v3.21h-1.54V79.29Z"/><path class="cls-6" d="M246.47,83H241.7a2,2,0,0,0,.53,1.31,1.62,1.62,0,0,0,1.21.48,1.57,1.57,0,0,0,1-.27,3.9,3.9,0,0,0,.84-1l1.3,0.72a5.1,5.1,0,0,1-.64.88,3.36,3.36,0,0,1-.72.6,2.86,2.86,0,0,1-.83.35,4,4,0,0,1-1,.11,3.14,3.14,0,0,1-2.39-1,3.59,3.59,0,0,1-.9-2.56,3.69,3.69,0,0,1,.88-2.56,3.33,3.33,0,0,1,4.66,0,3.68,3.68,0,0,1,.85,2.58V83Zm-1.58-1.26a1.47,1.47,0,0,0-1.55-1.23,1.58,1.58,0,0,0-.53.09,1.48,1.48,0,0,0-.45.25,1.54,1.54,0,0,0-.35.39,1.79,1.79,0,0,0-.22.51h3.09Z"/><path class="cls-6" d="M248.16,79.29h1.54v0.59a2.94,2.94,0,0,1,.75-0.61,1.72,1.72,0,0,1,.79-0.17,2.48,2.48,0,0,1,1.27.4l-0.7,1.41a1.47,1.47,0,0,0-.85-0.31q-1.26,0-1.26,1.9v3.45h-1.54V79.29Z"/><polygon class="cls-15" points="278.36 111.19 278.36 167.38 278.36 186.98 266.56 167.38 178.4 167.38 178.4 111.19 278.36 111.19"/><path class="cls-6" d="M214.78,125.56h-1.92l0.92-1.57h2.67v11.08h-1.67v-9.51Z"/><path class="cls-6" d="M219.61,129.45a6.68,6.68,0,0,1,1.23-4.23,3.22,3.22,0,0,1,5.35,0,8.09,8.09,0,0,1,0,8.59,3.28,3.28,0,0,1-2.67,1.43,3.32,3.32,0,0,1-2.68-1.43A6.91,6.91,0,0,1,219.61,129.45Zm1.65,0a6.57,6.57,0,0,0,.64,3.07,1.7,1.7,0,0,0,3.25,0,7.36,7.36,0,0,0,0-6,1.7,1.7,0,0,0-3.25,0A6.12,6.12,0,0,0,221.26,129.46Z"/><path class="cls-6" d="M228.61,126.45a2.43,2.43,0,0,1,.8-1.81,2.64,2.64,0,0,1,1.87-.77,2.59,2.59,0,0,1,1.88.78,2.54,2.54,0,0,1,0,3.68,2.63,2.63,0,0,1-1.9.77A2.66,2.66,0,0,1,228.61,126.45Zm1.25,0a1.42,1.42,0,0,0,1.43,1.44,1.42,1.42,0,1,0-1-2.42A1.34,1.34,0,0,0,229.86,126.47Zm7.72-2.68,0.78,0.45-6.35,11-0.79-.47Zm-2,8.73a2.43,2.43,0,0,1,.8-1.8,2.65,2.65,0,0,1,1.87-.77,2.6,2.6,0,0,1,1.89.78,2.53,2.53,0,0,1,0,3.68,2.63,2.63,0,0,1-1.9.76A2.65,2.65,0,0,1,235.62,132.52Zm1.26,0a1.4,1.4,0,0,0,.41,1,1.38,1.38,0,0,0,1,.42,1.35,1.35,0,0,0,1-.42,1.42,1.42,0,0,0,0-2A1.42,1.42,0,0,0,236.88,132.55Z"/><path class="cls-6" d="M192,141.63v6.67a3.66,3.66,0,0,0,.47,2.09,2.5,2.5,0,0,0,3.93,0,3.6,3.6,0,0,0,.47-2.09v-6.67h1.67v7.13a4,4,0,0,1-1.09,2.89,4.22,4.22,0,0,1-6,0,4,4,0,0,1-1.09-2.89v-7.13H192Z"/><path class="cls-6" d="M201,145.72h1.62v0.65a2.65,2.65,0,0,1,1.91-.84,2.41,2.41,0,0,1,1.9.77,3.15,3.15,0,0,1,.59,2.13v4.28H205.4v-3.9a2.56,2.56,0,0,0-.29-1.43,1.16,1.16,0,0,0-1-.4,1.25,1.25,0,0,0-1.14.53,3.64,3.64,0,0,0-.33,1.83v3.37H201v-7Z"/><path class="cls-6" d="M210.72,147.22v5.48h-1.62v-5.48h-0.69v-1.51h0.69v-2.56h1.62v2.56H212v1.51h-1.26Z"/><path class="cls-6" d="M219.57,149.59h-5a2.12,2.12,0,0,0,.56,1.37,1.71,1.71,0,0,0,1.27.5,1.65,1.65,0,0,0,1-.29,4.09,4.09,0,0,0,.88-1.06l1.36,0.76a5.39,5.39,0,0,1-.67.92,3.57,3.57,0,0,1-.75.63,3,3,0,0,1-.87.36,4.23,4.23,0,0,1-1,.11,3.29,3.29,0,0,1-2.51-1,3.77,3.77,0,0,1-.95-2.69,3.87,3.87,0,0,1,.92-2.68,3.5,3.5,0,0,1,4.9,0,3.87,3.87,0,0,1,.89,2.71v0.38Zm-1.66-1.32a1.55,1.55,0,0,0-1.63-1.29,1.66,1.66,0,0,0-.55.09,1.6,1.6,0,0,0-.47.26,1.63,1.63,0,0,0-.36.41,1.86,1.86,0,0,0-.23.54h3.24Z"/><path class="cls-6" d="M221.34,145.72H223v0.62a3.08,3.08,0,0,1,.79-0.64,1.82,1.82,0,0,1,.83-0.18,2.61,2.61,0,0,1,1.34.42l-0.74,1.48a1.54,1.54,0,0,0-.9-0.33q-1.32,0-1.32,2v3.62h-1.62v-7Z"/><path class="cls-6" d="M230.9,146.91l-1.34.71a0.92,0.92,0,0,0-.78-0.64,0.54,0.54,0,0,0-.38.15,0.49,0.49,0,0,0-.16.38,1.22,1.22,0,0,0,.93.8,5.59,5.59,0,0,1,1.73,1,1.74,1.74,0,0,1,.45,1.26,2.2,2.2,0,0,1-.75,1.69,2.68,2.68,0,0,1-4.24-1.07l1.38-.64a3,3,0,0,0,.44.64,1,1,0,0,0,.7.27,0.69,0.69,0,0,0,.82-0.75,1,1,0,0,0-.63-0.8l-0.49-.24-0.49-.24a3,3,0,0,1-1-.69,1.7,1.7,0,0,1-.37-1.13,2,2,0,0,1,.62-1.51,2.19,2.19,0,0,1,1.55-.59A2.12,2.12,0,0,1,230.9,146.91Z"/><path class="cls-6" d="M238.24,146v2.15a3.92,3.92,0,0,0-1-.93,1.93,1.93,0,0,0-1-.26,2,2,0,0,0-1.51.64,2.24,2.24,0,0,0-.6,1.6,2.29,2.29,0,0,0,.58,1.62,2,2,0,0,0,1.5.63,2,2,0,0,0,1-.25,4.07,4.07,0,0,0,1-.95v2.13a4.23,4.23,0,0,1-2,.51,3.76,3.76,0,0,1-2.71-1,3.5,3.5,0,0,1-1.09-2.62,3.54,3.54,0,0,1,1.11-2.64,3.74,3.74,0,0,1,2.71-1.08A4.06,4.06,0,0,1,238.24,146Z"/><path class="cls-6" d="M240.19,140.59h1.62v5.71a2.78,2.78,0,0,1,1.9-.78,2.46,2.46,0,0,1,1.89.77,3.13,3.13,0,0,1,.6,2.13v4.28h-1.61v-4.13a2,2,0,0,0-.3-1.22,1.15,1.15,0,0,0-1-.38,1.32,1.32,0,0,0-1.19.53,3.58,3.58,0,0,0-.34,1.82v3.38h-1.62V140.59Z"/><path class="cls-6" d="M248,142.81a1.06,1.06,0,0,1,1-1,1,1,0,0,1,.75.31,1,1,0,0,1,.31.74,1,1,0,0,1-.31.75,1,1,0,0,1-.74.31A1.05,1.05,0,0,1,248,142.81Zm1.86,2.91v7h-1.61v-7h1.61Z"/><path class="cls-6" d="M258.27,149.59h-5a2.12,2.12,0,0,0,.56,1.37,1.71,1.71,0,0,0,1.27.5,1.65,1.65,0,0,0,1-.29,4.1,4.1,0,0,0,.88-1.06l1.36,0.76a5.43,5.43,0,0,1-.67.92,3.55,3.55,0,0,1-.75.63,3,3,0,0,1-.87.36,4.24,4.24,0,0,1-1,.11,3.29,3.29,0,0,1-2.51-1,3.77,3.77,0,0,1-.95-2.69,3.87,3.87,0,0,1,.92-2.68,3.17,3.17,0,0,1,2.46-1,3.14,3.14,0,0,1,2.44,1,3.87,3.87,0,0,1,.89,2.71v0.38Zm-1.66-1.32A1.55,1.55,0,0,0,255,147a1.66,1.66,0,0,0-.55.09,1.59,1.59,0,0,0-.47.26,1.62,1.62,0,0,0-.36.41,1.9,1.9,0,0,0-.23.54h3.25Z"/><path class="cls-6" d="M265.19,140.59h1.62v12.12h-1.62V152a3,3,0,0,1-2.16.93,3.07,3.07,0,0,1-2.38-1,3.89,3.89,0,0,1-.94-2.67,3.77,3.77,0,0,1,.94-2.61,3,3,0,0,1,4.54,0v-5.94Zm-3.83,8.61a2.43,2.43,0,0,0,.54,1.64,1.76,1.76,0,0,0,1.39.64,1.85,1.85,0,0,0,1.45-.62,2.66,2.66,0,0,0,0-3.24,1.83,1.83,0,0,0-1.44-.62,1.79,1.79,0,0,0-1.39.63A2.33,2.33,0,0,0,261.36,149.19Z"/><g class="cls-8"><path class="cls-6" d="M194.25,453h-1.57l-0.65-.67a4.18,4.18,0,0,1-2.31.67,4.32,4.32,0,0,1-2.93-1.12,4,4,0,0,1-1.39-3.14,4.13,4.13,0,0,1,1.32-3.12,4.33,4.33,0,0,1,5.85-.15,4.17,4.17,0,0,1,1.5,3.33,4,4,0,0,1-1.19,2.86Zm-3.44-3.44,1.2,1.2a2.83,2.83,0,0,0,.79-2,3.07,3.07,0,0,0-.89-2.24,3,3,0,0,0-2.2-.9,2.9,2.9,0,0,0-2.19.9,3.14,3.14,0,0,0-.87,2.27,2.9,2.9,0,0,0,.89,2.19,3,3,0,0,0,2.12.88,2.93,2.93,0,0,0,1.47-.37l-2-1.89h1.62Z"/><path class="cls-6" d="M196.61,447.63v3a1.05,1.05,0,1,0,2.05,0v-3h1.21v3a3.38,3.38,0,0,1-.16,1.08,1.83,1.83,0,0,1-.52.74,2.54,2.54,0,0,1-3.11,0,1.85,1.85,0,0,1-.53-0.74,3,3,0,0,1-.15-1.08v-3h1.21Z"/><path class="cls-6" d="M206.17,450.53h-3.75a1.59,1.59,0,0,0,.42,1,1.28,1.28,0,0,0,1,.38,1.24,1.24,0,0,0,.75-0.21,3,3,0,0,0,.66-0.79l1,0.57a4.1,4.1,0,0,1-.5.69,2.66,2.66,0,0,1-.56.47,2.25,2.25,0,0,1-.65.27,3.14,3.14,0,0,1-.76.09,2.46,2.46,0,0,1-1.88-.75,2.82,2.82,0,0,1-.71-2,2.9,2.9,0,0,1,.69-2,2.62,2.62,0,0,1,3.66,0,2.89,2.89,0,0,1,.67,2v0.28Zm-1.24-1a1.16,1.16,0,0,0-1.22-1,1.25,1.25,0,0,0-.41.07,1.19,1.19,0,0,0-.35.19,1.24,1.24,0,0,0-.27.3,1.42,1.42,0,0,0-.17.4h2.43Z"/><path class="cls-6" d="M208.69,443.79v9.07h-1.21v-9.07h1.21Z"/><path class="cls-6" d="M211.43,443.79v9.07h-1.21v-9.07h1.21Z"/><path class="cls-6" d="M217.73,450.53H214a1.59,1.59,0,0,0,.42,1,1.28,1.28,0,0,0,1,.38,1.24,1.24,0,0,0,.75-0.21,3,3,0,0,0,.66-0.79l1,0.57a4.1,4.1,0,0,1-.5.69,2.66,2.66,0,0,1-.56.47,2.25,2.25,0,0,1-.65.27,3.14,3.14,0,0,1-.76.09,2.46,2.46,0,0,1-1.88-.75,2.82,2.82,0,0,1-.71-2,2.9,2.9,0,0,1,.69-2,2.62,2.62,0,0,1,3.66,0,2.89,2.89,0,0,1,.67,2v0.28Zm-1.24-1a1.16,1.16,0,0,0-1.22-1,1.25,1.25,0,0,0-.41.07,1.19,1.19,0,0,0-.35.19,1.24,1.24,0,0,0-.27.3,1.42,1.42,0,0,0-.17.4h2.43Z"/><path class="cls-6" d="M219.24,448.22a0.71,0.71,0,0,1,.22-0.52,0.75,0.75,0,0,1,1.27.53,0.73,0.73,0,0,1-.22.53,0.75,0.75,0,0,1-1.06,0A0.73,0.73,0,0,1,219.24,448.22Zm0,4a0.75,0.75,0,0,1,1.49,0,0.72,0.72,0,0,1-.22.53,0.76,0.76,0,0,1-1.06,0A0.73,0.73,0,0,1,219.24,452.26Z"/><path class="cls-6" d="M227.32,444.57v7.12h2.44v1.18h-3.69v-8.29h1.25Z"/><path class="cls-6" d="M230.47,450.21a2.6,2.6,0,0,1,.81-1.93,2.86,2.86,0,0,1,4,0,2.8,2.8,0,0,1,0,3.94,2.78,2.78,0,0,1-2,.79,2.66,2.66,0,0,1-2-.81A2.71,2.71,0,0,1,230.47,450.21Zm1.24,0a1.77,1.77,0,0,0,.42,1.24,1.63,1.63,0,0,0,2.27,0,2,2,0,0,0,0-2.44,1.61,1.61,0,0,0-2.26,0A1.68,1.68,0,0,0,231.7,450.23Z"/><path class="cls-6" d="M237.33,447.63h1.21v0.48a2,2,0,0,1,1.43-.63,1.8,1.8,0,0,1,1.42.58,2.35,2.35,0,0,1,.44,1.59v3.21h-1.21v-2.92a1.91,1.91,0,0,0-.21-1.07,0.87,0.87,0,0,0-.76-0.3,0.94,0.94,0,0,0-.85.4,2.73,2.73,0,0,0-.25,1.37v2.52h-1.21v-5.23Z"/><path class="cls-6" d="M248.42,452.74q0,0.37,0,.65a4.25,4.25,0,0,1-.07.5,2.22,2.22,0,0,1-.5,1,2.45,2.45,0,0,1-2,.82,2.59,2.59,0,0,1-1.72-.57,2.32,2.32,0,0,1-.81-1.61h1.21a1.37,1.37,0,0,0,.23.6,1.3,1.3,0,0,0,1.1.49q1.33,0,1.33-1.62v-0.73a2.25,2.25,0,0,1-1.66.74,2.23,2.23,0,0,1-1.75-.77,2.87,2.87,0,0,1-.69-2,3,3,0,0,1,.64-1.94,2.22,2.22,0,0,1,1.82-.85,2.11,2.11,0,0,1,1.64.74v-0.59h1.21v5.11Zm-1.16-2.48a1.75,1.75,0,0,0-.41-1.22,1.35,1.35,0,0,0-1.06-.47,1.3,1.3,0,0,0-1.08.51,2.09,2.09,0,0,0,0,2.35,1.3,1.3,0,0,0,1.08.5,1.33,1.33,0,0,0,1.1-.5A1.79,1.79,0,0,0,247.26,450.26Z"/><path class="cls-6" d="M254,447.86v1.61a2.94,2.94,0,0,0-.74-0.69,1.44,1.44,0,0,0-.76-0.19,1.49,1.49,0,0,0-1.13.48,1.68,1.68,0,0,0-.45,1.2,1.72,1.72,0,0,0,.43,1.21,1.47,1.47,0,0,0,1.12.47,1.54,1.54,0,0,0,.77-0.19A3.06,3.06,0,0,0,254,451v1.6a3.18,3.18,0,0,1-1.47.38,2.82,2.82,0,0,1-2-.78,2.62,2.62,0,0,1-.82-2,2.65,2.65,0,0,1,.83-2,2.8,2.8,0,0,1,2-.81A3,3,0,0,1,254,447.86Z"/><path class="cls-6" d="M255.47,443.79h1.21v4.28a2.08,2.08,0,0,1,1.42-.58,1.84,1.84,0,0,1,1.42.58,2.34,2.34,0,0,1,.45,1.59v3.21h-1.21v-3.09a1.47,1.47,0,0,0-.22-0.91,0.86,0.86,0,0,0-.72-0.28,1,1,0,0,0-.89.39,2.7,2.7,0,0,0-.25,1.37v2.53h-1.21v-9.07Z"/><path class="cls-6" d="M265.36,447.63h1.21v5.23h-1.21v-0.55a2.32,2.32,0,0,1-3.4-.09,2.92,2.92,0,0,1-.7-2,2.83,2.83,0,0,1,.7-2,2.27,2.27,0,0,1,1.76-.79,2.23,2.23,0,0,1,1.64.75v-0.61Zm-2.87,2.6a1.82,1.82,0,0,0,.4,1.22,1.32,1.32,0,0,0,1,.48,1.39,1.39,0,0,0,1.09-.46,2,2,0,0,0,0-2.43,1.37,1.37,0,0,0-1.07-.47,1.34,1.34,0,0,0-1,.47A1.74,1.74,0,0,0,262.49,450.23Z"/><path class="cls-6" d="M268.1,447.63h1.21v0.48a2.54,2.54,0,0,1,.6-0.49,1.44,1.44,0,0,1,.66-0.13,1.6,1.6,0,0,1,1.4.77,1.82,1.82,0,0,1,1.54-.77q1.77,0,1.77,2.14v3.23h-1.21V450a2.23,2.23,0,0,0-.18-1.06,0.66,0.66,0,0,0-.62-0.32,0.79,0.79,0,0,0-.73.38,2.42,2.42,0,0,0-.23,1.21v2.7h-1.21V450q0-1.4-.8-1.4a0.81,0.81,0,0,0-.74.38,2.37,2.37,0,0,0-.23,1.2v2.7H268.1v-5.23Z"/><path class="cls-6" d="M278.14,455.71h-1.21v-8.08h1.21v0.57a2.24,2.24,0,0,1,1.62-.71,2.26,2.26,0,0,1,1.78.79,2.87,2.87,0,0,1,.71,2,2.83,2.83,0,0,1-.7,2,2.29,2.29,0,0,1-3.41,0v3.43Zm2.87-5.43a1.81,1.81,0,0,0-.41-1.22,1.32,1.32,0,0,0-1-.48,1.38,1.38,0,0,0-1.08.46,1.75,1.75,0,0,0-.41,1.21,1.79,1.79,0,0,0,.41,1.21,1.36,1.36,0,0,0,1.07.47,1.31,1.31,0,0,0,1-.47A1.71,1.71,0,0,0,281,450.28Z"/><path class="cls-6" d="M284.28,451.31l1.07,0.42-1.53,3.07-0.82-.34Z"/><path class="cls-6" d="M295.38,452.74q0,0.37,0,.65a4.25,4.25,0,0,1-.07.5,2.22,2.22,0,0,1-.5,1,2.45,2.45,0,0,1-2,.82,2.59,2.59,0,0,1-1.72-.57,2.32,2.32,0,0,1-.81-1.61h1.21a1.37,1.37,0,0,0,.23.6,1.3,1.3,0,0,0,1.1.49q1.33,0,1.33-1.62v-0.73a2.25,2.25,0,0,1-1.66.74,2.23,2.23,0,0,1-1.75-.77,2.87,2.87,0,0,1-.69-2,3,3,0,0,1,.64-1.94,2.22,2.22,0,0,1,1.82-.85,2.11,2.11,0,0,1,1.64.74v-0.59h1.21v5.11Zm-1.16-2.48a1.75,1.75,0,0,0-.41-1.22,1.35,1.35,0,0,0-1.06-.47,1.3,1.3,0,0,0-1.08.51,2.09,2.09,0,0,0,0,2.35,1.3,1.3,0,0,0,1.08.5,1.33,1.33,0,0,0,1.1-.5A1.79,1.79,0,0,0,294.22,450.26Z"/><path class="cls-6" d="M298.15,448.76v4.1h-1.21v-4.1h-0.43v-1.13h0.43v-2a2.19,2.19,0,0,1,.34-1.4,1.68,1.68,0,0,1,1.38-.57,2.37,2.37,0,0,1,.81.19v1.24l-0.12-.06a1.52,1.52,0,0,0-.64-0.2,0.44,0.44,0,0,0-.44.23,2.23,2.23,0,0,0-.11.87v1.72h1.32v1.13h-1.32Z"/><path class="cls-6" d="M303.21,448.52l-1,.53a0.69,0.69,0,0,0-.58-0.48,0.4,0.4,0,0,0-.29.11,0.37,0.37,0,0,0-.12.28,0.91,0.91,0,0,0,.7.6,4.18,4.18,0,0,1,1.29.76,1.3,1.3,0,0,1,.33.94,1.64,1.64,0,0,1-.56,1.27,2,2,0,0,1-3.17-.8l1-.48a2.22,2.22,0,0,0,.33.48,0.75,0.75,0,0,0,.53.2,0.52,0.52,0,0,0,.61-0.56,0.77,0.77,0,0,0-.47-0.6l-0.37-.18-0.37-.18a2.28,2.28,0,0,1-.74-0.52,1.27,1.27,0,0,1-.27-0.84,1.49,1.49,0,0,1,.47-1.13,1.64,1.64,0,0,1,1.16-.45A1.58,1.58,0,0,1,303.21,448.52Z"/><path class="cls-6" d="M308.26,452.86v-8.29h1.25a5.45,5.45,0,0,1,1.33.13,2,2,0,0,1,.84.44,2.25,2.25,0,0,1,.55.79,2.39,2.39,0,0,1,.21,1,2,2,0,0,1-.68,1.51,2,2,0,0,1,1,.79,2.34,2.34,0,0,1-.3,2.94,2.26,2.26,0,0,1-.93.57,5.39,5.39,0,0,1-1.41.16h-1.9Zm1.25-4.73h0.39a1.44,1.44,0,0,0,1-.31,1.2,1.2,0,0,0,.33-0.91,1.14,1.14,0,0,0-.33-0.89,1.39,1.39,0,0,0-1-.3h-0.44v2.41Zm0,3.56h0.77a1.92,1.92,0,0,0,1.25-.33,1.15,1.15,0,0,0,.42-0.91,1.17,1.17,0,0,0-.4-0.9,2.09,2.09,0,0,0-1.4-.36h-0.63v2.51Z"/><path class="cls-6" d="M319.3,450.53h-3.75a1.59,1.59,0,0,0,.42,1,1.28,1.28,0,0,0,1,.38,1.24,1.24,0,0,0,.75-0.21,3,3,0,0,0,.66-0.79l1,0.57a4.1,4.1,0,0,1-.5.69,2.66,2.66,0,0,1-.56.47,2.25,2.25,0,0,1-.65.27,3.14,3.14,0,0,1-.76.09,2.46,2.46,0,0,1-1.88-.75,2.82,2.82,0,0,1-.71-2,2.9,2.9,0,0,1,.69-2,2.62,2.62,0,0,1,3.66,0,2.89,2.89,0,0,1,.67,2v0.28Zm-1.24-1a1.16,1.16,0,0,0-1.22-1,1.25,1.25,0,0,0-.41.07,1.19,1.19,0,0,0-.35.19,1.24,1.24,0,0,0-.27.3,1.42,1.42,0,0,0-.17.4h2.43Z"/><path class="cls-6" d="M320.62,447.63h1.21v0.47a2.31,2.31,0,0,1,.59-0.48,1.35,1.35,0,0,1,.62-0.13,2,2,0,0,1,1,.31l-0.55,1.11a1.16,1.16,0,0,0-.67-0.25q-1,0-1,1.49v2.71h-1.21v-5.23Z"/><path class="cls-6" d="M324.9,447.63h1.21v0.48a2,2,0,0,1,1.43-.63,1.8,1.8,0,0,1,1.42.58,2.35,2.35,0,0,1,.44,1.59v3.21h-1.21v-2.92a1.91,1.91,0,0,0-.21-1.07,0.87,0.87,0,0,0-.76-0.3,0.94,0.94,0,0,0-.85.4,2.73,2.73,0,0,0-.25,1.37v2.52H324.9v-5.23Z"/></g></svg>