<svg id="Charts" xmlns="http://www.w3.org/2000/svg" xmlns:xlink="http://www.w3.org/1999/xlink" viewBox="0 0 517.85 454.1"><defs><style>.cls-1,.cls-10,.cls-14,.cls-2,.cls-3,.cls-8{fill:none;}.cls-10,.cls-12,.cls-14,.cls-2,.cls-3,.cls-6,.cls-8{stroke:#fff;stroke-miterlimit:10;}.cls-12,.cls-2{stroke-width:0.94px;}.cls-10,.cls-12,.cls-4,.cls-6{opacity:0.4;}.cls-12,.cls-5,.cls-6{fill:#fff;}.cls-6{stroke-width:1.85px;}.cls-7{clip-path:url(#clip-path);}.cls-8{stroke-width:1.57px;}.cls-9{clip-path:url(#clip-path-2);}.cls-11{fill:#016d3d;opacity:0.8;}.cls-13{clip-path:url(#clip-path-3);}.cls-14{stroke-width:0.75px;}</style><clipPath id="clip-path"><rect class="cls-1" x="170.25" y="177.73" width="98.64" height="212.05"/></clipPath><clipPath id="clip-path-2"><rect class="cls-1" x="399.94" y="215.35" width="98.64" height="174.43"/></clipPath><clipPath id="clip-path-3"><rect class="cls-2" x="269" y="69.5" width="14.11" height="14.11"/></clipPath></defs><title>Charts_</title><line class="cls-3" x1="41.59" y1="389.78" x2="517.85" y2="389.78"/><g class="cls-4"><path class="cls-5" d="M155.2,450.81h-1.72l-0.71-.73a4.56,4.56,0,0,1-2.52.73,4.71,4.71,0,0,1-3.19-1.22,4.37,4.37,0,0,1-1.52-3.43,4.51,4.51,0,0,1,1.44-3.41,4.72,4.72,0,0,1,6.38-.16,4.55,4.55,0,0,1,1.64,3.64,4.41,4.41,0,0,1-1.29,3.12Zm-3.76-3.75,1.31,1.31a3.09,3.09,0,0,0,.87-2.23,3.35,3.35,0,0,0-1-2.44,3.23,3.23,0,0,0-2.4-1,3.16,3.16,0,0,0-2.39,1,3.42,3.42,0,0,0-.94,2.48,3.17,3.17,0,0,0,1,2.39,3.27,3.27,0,0,0,2.31,1,3.19,3.19,0,0,0,1.6-.4l-2.13-2.06h1.76Z"/><path class="cls-5" d="M157.79,444.93v3.28q0,1.42,1.12,1.42t1.12-1.42v-3.28h1.32v3.3a3.68,3.68,0,0,1-.17,1.18,2,2,0,0,1-.57.8,2.77,2.77,0,0,1-3.39,0,2,2,0,0,1-.58-0.8,3.26,3.26,0,0,1-.16-1.18v-3.3h1.32Z"/><path class="cls-5" d="M168.2,448.1h-4.09a1.73,1.73,0,0,0,.46,1.12,1.39,1.39,0,0,0,1,.41,1.35,1.35,0,0,0,.81-0.23,3.33,3.33,0,0,0,.72-0.87l1.11,0.62a4.43,4.43,0,0,1-.54.75,2.9,2.9,0,0,1-.62.52,2.47,2.47,0,0,1-.71.3,3.45,3.45,0,0,1-.83.09,2.69,2.69,0,0,1-2.05-.82,3.08,3.08,0,0,1-.77-2.19,3.16,3.16,0,0,1,.75-2.19,2.86,2.86,0,0,1,4,0,3.16,3.16,0,0,1,.73,2.21v0.31ZM166.85,447a1.26,1.26,0,0,0-1.33-1.05,1.37,1.37,0,0,0-.45.07,1.29,1.29,0,0,0-.38.21,1.34,1.34,0,0,0-.3.33,1.54,1.54,0,0,0-.19.44h2.65Z"/><path class="cls-5" d="M171,440.75v9.9h-1.32v-9.9H171Z"/><path class="cls-5" d="M174,440.75v9.9h-1.32v-9.9H174Z"/><path class="cls-5" d="M180.82,448.1h-4.09a1.73,1.73,0,0,0,.46,1.12,1.39,1.39,0,0,0,1,.41,1.35,1.35,0,0,0,.81-0.23,3.33,3.33,0,0,0,.72-0.87l1.11,0.62a4.43,4.43,0,0,1-.54.75,2.9,2.9,0,0,1-.62.52,2.47,2.47,0,0,1-.71.3,3.45,3.45,0,0,1-.83.09,2.69,2.69,0,0,1-2.05-.82,3.08,3.08,0,0,1-.77-2.19,3.16,3.16,0,0,1,.75-2.19,2.86,2.86,0,0,1,4,0,3.16,3.16,0,0,1,.73,2.21v0.31ZM179.47,447a1.26,1.26,0,0,0-1.33-1.05,1.37,1.37,0,0,0-.45.07,1.29,1.29,0,0,0-.38.21,1.34,1.34,0,0,0-.3.33,1.54,1.54,0,0,0-.19.44h2.65Z"/><path class="cls-5" d="M182.47,445.58a0.77,0.77,0,0,1,.24-0.56,0.81,0.81,0,1,1,0,1.15A0.79,0.79,0,0,1,182.47,445.58Zm0,4.41a0.81,0.81,0,0,1,1.63,0,0.79,0.79,0,0,1-.24.58,0.83,0.83,0,0,1-1.15,0A0.79,0.79,0,0,1,182.47,450Z"/><path class="cls-5" d="M192.42,442.88v7.76H191v-7.76H189v-1.28h5.52v1.28h-2.07Z"/><path class="cls-5" d="M199.16,444.93h1.32v5.71h-1.32V450a2.53,2.53,0,0,1-3.71-.09,3.18,3.18,0,0,1-.77-2.18,3.08,3.08,0,0,1,.77-2.14,2.47,2.47,0,0,1,1.92-.86,2.43,2.43,0,0,1,1.79.82v-0.66ZM196,447.77a2,2,0,0,0,.44,1.34,1.44,1.44,0,0,0,1.14.52,1.51,1.51,0,0,0,1.18-.5,2.17,2.17,0,0,0,0-2.65,1.49,1.49,0,0,0-1.17-.51,1.46,1.46,0,0,0-1.14.52A1.9,1.9,0,0,0,196,447.77Z"/><path class="cls-5" d="M202.15,444.93h1.32v0.53a2.75,2.75,0,0,1,.65-0.54,1.58,1.58,0,0,1,.72-0.15,1.75,1.75,0,0,1,1.53.84,2,2,0,0,1,1.68-.84q1.93,0,1.93,2.34v3.53h-1.32v-3.17a2.45,2.45,0,0,0-.2-1.16,0.72,0.72,0,0,0-.67-0.35,0.86,0.86,0,0,0-.79.41,2.64,2.64,0,0,0-.25,1.32v2.95h-1.32v-3.15q0-1.52-.88-1.52a0.88,0.88,0,0,0-.81.42,2.59,2.59,0,0,0-.25,1.31v2.95h-1.32v-5.71Z"/><path class="cls-5" d="M216.84,448.1h-4.09a1.73,1.73,0,0,0,.46,1.12,1.39,1.39,0,0,0,1,.41,1.35,1.35,0,0,0,.81-0.23,3.33,3.33,0,0,0,.72-0.87l1.11,0.62a4.43,4.43,0,0,1-.54.75,2.9,2.9,0,0,1-.62.52,2.47,2.47,0,0,1-.71.3,3.45,3.45,0,0,1-.83.09,2.69,2.69,0,0,1-2.05-.82,3.08,3.08,0,0,1-.77-2.19,3.16,3.16,0,0,1,.75-2.19,2.86,2.86,0,0,1,4,0,3.16,3.16,0,0,1,.73,2.21v0.31ZM215.48,447a1.26,1.26,0,0,0-1.33-1.05,1.37,1.37,0,0,0-.45.07,1.29,1.29,0,0,0-.38.21,1.34,1.34,0,0,0-.3.33,1.54,1.54,0,0,0-.19.44h2.65Z"/><path class="cls-5" d="M222.49,440.75h1.32v9.9h-1.32V450a2.46,2.46,0,0,1-1.76.76,2.51,2.51,0,0,1-1.95-.86,3.18,3.18,0,0,1-.77-2.18,3.08,3.08,0,0,1,.77-2.13,2.47,2.47,0,0,1,3.71,0v-4.85Zm-3.13,7a2,2,0,0,0,.44,1.34,1.44,1.44,0,0,0,1.14.52,1.51,1.51,0,0,0,1.18-.5,2.17,2.17,0,0,0,0-2.65,1.49,1.49,0,0,0-1.17-.51,1.46,1.46,0,0,0-1.14.52A1.9,1.9,0,0,0,219.36,447.77Z"/><path class="cls-5" d="M225.27,442.56a0.86,0.86,0,0,1,.86-0.85,0.83,0.83,0,0,1,.61.25,0.81,0.81,0,0,1,.25.6,0.83,0.83,0,0,1-.25.61,0.81,0.81,0,0,1-.6.25A0.86,0.86,0,0,1,225.27,442.56Zm1.52,2.37v5.71h-1.32v-5.71h1.32Z"/><path class="cls-5" d="M232.67,444.93H234v5.71h-1.32V450A2.53,2.53,0,0,1,229,450a3.18,3.18,0,0,1-.77-2.18,3.08,3.08,0,0,1,.77-2.14,2.47,2.47,0,0,1,1.92-.86,2.43,2.43,0,0,1,1.79.82v-0.66Zm-3.13,2.84a2,2,0,0,0,.44,1.34,1.44,1.44,0,0,0,1.14.52,1.51,1.51,0,0,0,1.18-.5,2.17,2.17,0,0,0,0-2.65,1.49,1.49,0,0,0-1.17-.51,1.46,1.46,0,0,0-1.14.52A1.9,1.9,0,0,0,229.54,447.77Z"/><path class="cls-5" d="M244.93,448.44h-3.87l-1,2.2h-1.47l4.48-9.62,4.32,9.62h-1.49Zm-0.56-1.28L243,444.08l-1.41,3.08h2.75Z"/><path class="cls-5" d="M249.74,440.75v4.85a2.43,2.43,0,0,1,1.79-.82,2.47,2.47,0,0,1,1.92.86,3.08,3.08,0,0,1,.77,2.13,3.14,3.14,0,0,1-.77,2.18,2.49,2.49,0,0,1-1.94.86,2.47,2.47,0,0,1-1.77-.76v0.6h-1.32v-9.9h1.32Zm3.13,7.08a2,2,0,0,0-.45-1.34,1.43,1.43,0,0,0-1.13-.53,1.52,1.52,0,0,0-1.18.51,1.89,1.89,0,0,0-.45,1.31,1.92,1.92,0,0,0,.45,1.33,1.48,1.48,0,0,0,1.17.51,1.45,1.45,0,0,0,1.14-.51A1.87,1.87,0,0,0,252.87,447.83Z"/><path class="cls-5" d="M258.93,445.91l-1.09.58a0.75,0.75,0,0,0-.64-0.52,0.44,0.44,0,0,0-.31.12,0.4,0.4,0,0,0-.13.31,1,1,0,0,0,.76.65,4.52,4.52,0,0,1,1.41.83,1.42,1.42,0,0,1,.36,1,1.79,1.79,0,0,1-.61,1.38,2.19,2.19,0,0,1-3.46-.87l1.13-.52a2.45,2.45,0,0,0,.36.52,0.82,0.82,0,0,0,.57.22A0.57,0.57,0,0,0,258,449a0.84,0.84,0,0,0-.52-0.66l-0.4-.19-0.4-.19a2.47,2.47,0,0,1-.81-0.56,1.39,1.39,0,0,1-.3-0.92,1.63,1.63,0,0,1,.51-1.23,1.79,1.79,0,0,1,1.27-.49A1.73,1.73,0,0,1,258.93,445.91Z"/><path class="cls-5" d="M261.84,446.17v4.48h-1.32v-4.48H260v-1.23h0.56v-2.09h1.32v2.09h1v1.23h-1Z"/><path class="cls-5" d="M263.57,442.56a0.86,0.86,0,0,1,.86-0.85,0.83,0.83,0,0,1,.61.25,0.81,0.81,0,0,1,.25.6,0.83,0.83,0,0,1-.25.61,0.81,0.81,0,0,1-.6.25A0.86,0.86,0,0,1,263.57,442.56Zm1.52,2.37v5.71h-1.32v-5.71h1.32Z"/><path class="cls-5" d="M266.75,444.93h1.32v0.53a2.75,2.75,0,0,1,.65-0.54,1.58,1.58,0,0,1,.72-0.15,1.75,1.75,0,0,1,1.53.84,2,2,0,0,1,1.68-.84q1.93,0,1.93,2.34v3.53h-1.32v-3.17a2.45,2.45,0,0,0-.2-1.16,0.72,0.72,0,0,0-.67-0.35,0.86,0.86,0,0,0-.79.41,2.64,2.64,0,0,0-.25,1.32v2.95H270v-3.15q0-1.52-.88-1.52a0.88,0.88,0,0,0-.81.42,2.59,2.59,0,0,0-.25,1.31v2.95h-1.32v-5.71Z"/><path class="cls-5" d="M276.25,444.93h1.32v0.53a2.75,2.75,0,0,1,.65-0.54,1.58,1.58,0,0,1,.72-0.15,1.75,1.75,0,0,1,1.53.84,2,2,0,0,1,1.68-.84q1.93,0,1.93,2.34v3.53h-1.32v-3.17a2.45,2.45,0,0,0-.2-1.16,0.72,0.72,0,0,0-.67-0.35,0.86,0.86,0,0,0-.79.41,2.64,2.64,0,0,0-.25,1.32v2.95h-1.32v-3.15q0-1.52-.88-1.52a0.88,0.88,0,0,0-.81.42,2.59,2.59,0,0,0-.25,1.31v2.95h-1.32v-5.71Z"/><path class="cls-5" d="M287.06,444.93v3.28q0,1.42,1.12,1.42t1.12-1.42v-3.28h1.32v3.3a3.68,3.68,0,0,1-.17,1.18,2,2,0,0,1-.57.8,2.77,2.77,0,0,1-3.39,0,2,2,0,0,1-.58-0.8,3.26,3.26,0,0,1-.16-1.18v-3.3h1.32Z"/><path class="cls-5" d="M292.28,444.93h1.32v0.53a2.16,2.16,0,0,1,1.56-.69,2,2,0,0,1,1.55.63,2.57,2.57,0,0,1,.48,1.74v3.5h-1.32v-3.18a2.08,2.08,0,0,0-.23-1.16,1,1,0,0,0-.83-0.33,1,1,0,0,0-.93.43,3,3,0,0,0-.27,1.49v2.75h-1.32v-5.71Z"/><path class="cls-5" d="M304.38,450.51q0,0.4,0,.71a5,5,0,0,1-.07.54,2.41,2.41,0,0,1-.55,1.11,2.67,2.67,0,0,1-2.13.89,2.83,2.83,0,0,1-1.88-.62,2.53,2.53,0,0,1-.88-1.75h1.32a1.5,1.5,0,0,0,.25.65,1.42,1.42,0,0,0,1.2.53q1.45,0,1.45-1.77V450a2.46,2.46,0,0,1-1.81.8,2.43,2.43,0,0,1-1.91-.84,3.13,3.13,0,0,1-.75-2.14,3.29,3.29,0,0,1,.7-2.12,2.42,2.42,0,0,1,2-.93,2.3,2.3,0,0,1,1.79.8v-0.64h1.32v5.57Zm-1.27-2.7a1.92,1.92,0,0,0-.45-1.33,1.47,1.47,0,0,0-1.15-.51,1.42,1.42,0,0,0-1.18.56,2.29,2.29,0,0,0,0,2.56,1.42,1.42,0,0,0,1.18.54,1.45,1.45,0,0,0,1.2-.55A2,2,0,0,0,303.11,447.8Z"/><path class="cls-5" d="M309.36,445.91l-1.09.58a0.75,0.75,0,0,0-.64-0.52,0.44,0.44,0,0,0-.31.12,0.4,0.4,0,0,0-.13.31,1,1,0,0,0,.76.65,4.52,4.52,0,0,1,1.41.83,1.42,1.42,0,0,1,.36,1,1.79,1.79,0,0,1-.61,1.38,2.19,2.19,0,0,1-3.46-.87l1.13-.52a2.45,2.45,0,0,0,.36.52,0.82,0.82,0,0,0,.57.22,0.57,0.57,0,0,0,.67-0.61,0.84,0.84,0,0,0-.52-0.66l-0.4-.19-0.4-.19a2.47,2.47,0,0,1-.81-0.56,1.39,1.39,0,0,1-.3-0.92,1.63,1.63,0,0,1,.51-1.23,1.79,1.79,0,0,1,1.27-.49A1.73,1.73,0,0,1,309.36,445.91Z"/><path class="cls-5" d="M314.23,445.91l-1.09.58a0.75,0.75,0,0,0-.64-0.52,0.44,0.44,0,0,0-.31.12,0.4,0.4,0,0,0-.13.31,1,1,0,0,0,.76.65,4.52,4.52,0,0,1,1.41.83,1.42,1.42,0,0,1,.36,1,1.79,1.79,0,0,1-.61,1.38,2.19,2.19,0,0,1-3.46-.87l1.13-.52a2.45,2.45,0,0,0,.36.52,0.82,0.82,0,0,0,.57.22,0.57,0.57,0,0,0,.67-0.61,0.84,0.84,0,0,0-.52-0.66l-0.4-.19-0.4-.19a2.47,2.47,0,0,1-.81-0.56,1.39,1.39,0,0,1-.3-0.92,1.63,1.63,0,0,1,.51-1.23,1.79,1.79,0,0,1,1.27-.49A1.73,1.73,0,0,1,314.23,445.91Z"/><path class="cls-5" d="M317.14,446.17v4.48h-1.32v-4.48h-0.56v-1.23h0.56v-2.09h1.32v2.09h1v1.23h-1Z"/><path class="cls-5" d="M320.38,444.93v3.28q0,1.42,1.12,1.42t1.12-1.42v-3.28h1.32v3.3a3.68,3.68,0,0,1-.17,1.18,2,2,0,0,1-.57.8,2.77,2.77,0,0,1-3.39,0,2,2,0,0,1-.58-0.8,3.26,3.26,0,0,1-.16-1.18v-3.3h1.32Z"/><path class="cls-5" d="M329.81,440.75h1.32v9.9h-1.32V450a2.46,2.46,0,0,1-1.76.76,2.51,2.51,0,0,1-1.95-.86,3.18,3.18,0,0,1-.77-2.18,3.08,3.08,0,0,1,.77-2.13,2.47,2.47,0,0,1,3.71,0v-4.85Zm-3.13,7a2,2,0,0,0,.44,1.34,1.44,1.44,0,0,0,1.14.52,1.51,1.51,0,0,0,1.18-.5,2.17,2.17,0,0,0,0-2.65,1.49,1.49,0,0,0-1.17-.51,1.46,1.46,0,0,0-1.14.52A1.9,1.9,0,0,0,326.68,447.77Z"/><path class="cls-5" d="M332.59,442.56a0.86,0.86,0,0,1,.86-0.85,0.83,0.83,0,0,1,.61.25,0.81,0.81,0,0,1,.25.6,0.83,0.83,0,0,1-.25.61,0.81,0.81,0,0,1-.6.25A0.86,0.86,0,0,1,332.59,442.56Zm1.52,2.37v5.71h-1.32v-5.71h1.32Z"/><path class="cls-5" d="M341,448.1h-4.09a1.73,1.73,0,0,0,.46,1.12,1.39,1.39,0,0,0,1,.41,1.35,1.35,0,0,0,.81-0.23,3.33,3.33,0,0,0,.72-0.87l1.11,0.62a4.43,4.43,0,0,1-.54.75,2.9,2.9,0,0,1-.62.52,2.47,2.47,0,0,1-.71.3,3.45,3.45,0,0,1-.83.09,2.69,2.69,0,0,1-2.05-.82,3.08,3.08,0,0,1-.77-2.19,3.16,3.16,0,0,1,.75-2.19,2.86,2.86,0,0,1,4,0,3.16,3.16,0,0,1,.73,2.21v0.31ZM339.63,447A1.26,1.26,0,0,0,338.3,446a1.37,1.37,0,0,0-.45.07,1.29,1.29,0,0,0-.38.21,1.34,1.34,0,0,0-.3.33,1.54,1.54,0,0,0-.19.44h2.65Z"/><path class="cls-5" d="M348.3,449.36h3.37v1.28h-6.08l3.14-3.8q0.46-.57.78-1a7.48,7.48,0,0,0,.48-0.7,2,2,0,0,0,.33-1,1.41,1.41,0,0,0-.45-1.06,1.59,1.59,0,0,0-2.67,1.2h-1.36q0.33-2.86,2.89-2.86a2.92,2.92,0,0,1,2.07.79,2.55,2.55,0,0,1,.84,1.95,3,3,0,0,1-.39,1.45,7.09,7.09,0,0,1-.58.88q-0.38.51-1,1.2Z"/><path class="cls-5" d="M353.21,446.06a5.45,5.45,0,0,1,1-3.45,2.63,2.63,0,0,1,4.37,0,6.61,6.61,0,0,1,0,7,2.68,2.68,0,0,1-2.18,1.17,2.71,2.71,0,0,1-2.19-1.17A5.65,5.65,0,0,1,353.21,446.06Zm1.35,0a5.37,5.37,0,0,0,.52,2.5,1.39,1.39,0,0,0,2.66,0,6,6,0,0,0,0-4.92,1.39,1.39,0,0,0-2.65,0A5,5,0,0,0,354.56,446.07Z"/><path class="cls-5" d="M362.43,442.88h-1.56l0.75-1.28h2.18v9h-1.37v-7.76Z"/><path class="cls-5" d="M370.24,441.28l1,0.75L369.08,445l0.3,0h0.19a2.54,2.54,0,0,1,1.9.84,2.79,2.79,0,0,1,.8,2,3,3,0,0,1-3,3,3,3,0,0,1-2.16-.87,2.77,2.77,0,0,1-.91-2.07,3.89,3.89,0,0,1,.88-2.27Zm0.7,6.58a1.72,1.72,0,1,0-1.71,1.69A1.71,1.71,0,0,0,370.94,447.86Z"/></g><path class="cls-5" d="M88.48,418.41h5.61v0.45a9.26,9.26,0,0,1-.36,2.71,5.75,5.75,0,0,1-1.19,2,6.15,6.15,0,0,1-4.81,2.13,6.61,6.61,0,0,1-4.88-2.06,7.07,7.07,0,0,1,5.06-12,6.91,6.91,0,0,1,3,.65,8.54,8.54,0,0,1,2.59,2.1L92,415.79A5,5,0,0,0,88,413.57a4.86,4.86,0,0,0-3.61,1.49,5,5,0,0,0-1.46,3.66,5.1,5.1,0,0,0,4.92,5.1,4.1,4.1,0,0,0,2.72-1,3.62,3.62,0,0,0,1.34-2.46H88.48v-1.92Z"/><path class="cls-5" d="M104.08,421.66H97.94a2.6,2.6,0,0,0,.69,1.68,2.09,2.09,0,0,0,1.56.62,2,2,0,0,0,1.22-.35,5,5,0,0,0,1.08-1.3l1.67,0.93a6.65,6.65,0,0,1-.82,1.13,4.38,4.38,0,0,1-.92.77,3.73,3.73,0,0,1-1.06.44,5.18,5.18,0,0,1-1.24.14A4,4,0,0,1,97,424.49a4.62,4.62,0,0,1-1.16-3.29A4.74,4.74,0,0,1,97,417.92a4.29,4.29,0,0,1,6,0,4.74,4.74,0,0,1,1.09,3.31v0.47ZM102,420a1.89,1.89,0,0,0-2-1.58,2.07,2.07,0,0,0-.68.11,2,2,0,0,0-.58.32,2,2,0,0,0-.44.5,2.31,2.31,0,0,0-.28.66h4Z"/><path class="cls-5" d="M106.24,416.91h2v0.79a3.24,3.24,0,0,1,2.34-1,3,3,0,0,1,2.33.94,3.85,3.85,0,0,1,.72,2.61v5.25h-2V420.7a3.13,3.13,0,0,0-.35-1.75,1.42,1.42,0,0,0-1.25-.49,1.53,1.53,0,0,0-1.4.65,4.47,4.47,0,0,0-.4,2.24v4.13h-2v-8.56Z"/><path class="cls-5" d="M118.15,418.76v6.71h-2v-6.71h-0.84v-1.85h0.84v-3.14h2v3.14h1.54v1.85h-1.54Z"/><path class="cls-5" d="M129,421.66h-6.13a2.6,2.6,0,0,0,.69,1.68,2.09,2.09,0,0,0,1.56.62,2,2,0,0,0,1.22-.35,5,5,0,0,0,1.08-1.3l1.67,0.93a6.65,6.65,0,0,1-.82,1.13,4.38,4.38,0,0,1-.92.77,3.73,3.73,0,0,1-1.06.44,5.18,5.18,0,0,1-1.24.14,4,4,0,0,1-3.08-1.23,4.62,4.62,0,0,1-1.16-3.29,4.74,4.74,0,0,1,1.13-3.29,4.29,4.29,0,0,1,6,0,4.74,4.74,0,0,1,1.09,3.31v0.47ZM127,420a1.89,1.89,0,0,0-2-1.58,2.07,2.07,0,0,0-.68.11,2,2,0,0,0-.58.32,2,2,0,0,0-.44.5,2.31,2.31,0,0,0-.28.66h4Z"/><path class="cls-5" d="M137.81,417.28v2.63a4.82,4.82,0,0,0-1.21-1.13,2.36,2.36,0,0,0-1.24-.32,2.44,2.44,0,0,0-1.85.78,2.74,2.74,0,0,0-.74,2,2.81,2.81,0,0,0,.71,2,2.4,2.4,0,0,0,1.84.77,2.51,2.51,0,0,0,1.26-.31,5,5,0,0,0,1.24-1.16v2.61a5.19,5.19,0,0,1-2.41.62,4.61,4.61,0,0,1-3.32-1.28,4.28,4.28,0,0,1-1.34-3.21A4.34,4.34,0,0,1,132.1,418a4.58,4.58,0,0,1,3.32-1.32A5,5,0,0,1,137.81,417.28Z"/><path class="cls-5" d="M140.19,410.63h2v7a3.41,3.41,0,0,1,2.33-.95,3,3,0,0,1,2.32.94,3.83,3.83,0,0,1,.74,2.61v5.25h-2v-5.06a2.42,2.42,0,0,0-.36-1.49,1.41,1.41,0,0,0-1.17-.46,1.61,1.61,0,0,0-1.46.64,4.4,4.4,0,0,0-.41,2.23v4.14h-2V410.63Z"/><path class="cls-5" d="M148.82,420.26h3.92V422h-3.92v-1.72Z"/><path class="cls-5" d="M153.89,425.47l2.86-14.59,4.66,10.55,4.83-10.55,2.57,14.59h-2.1l-1.31-8.19-4,8.82-3.9-8.82-1.46,8.2h-2.12Z"/><path class="cls-5" d="M170.88,421.13a4.25,4.25,0,0,1,1.33-3.16,4.68,4.68,0,0,1,6.49,0,4.58,4.58,0,0,1,0,6.44,4.54,4.54,0,0,1-3.28,1.29,4.35,4.35,0,0,1-3.23-1.32A4.43,4.43,0,0,1,170.88,421.13Zm2,0a2.89,2.89,0,0,0,.69,2,2.66,2.66,0,0,0,3.71,0,3.21,3.21,0,0,0,0-4,2.63,2.63,0,0,0-3.69,0A2.75,2.75,0,0,0,172.91,421.17Z"/><path class="cls-5" d="M182.11,416.91h2v0.76a3.78,3.78,0,0,1,1-.78,2.22,2.22,0,0,1,1-.22,3.19,3.19,0,0,1,1.63.51L186.8,419a1.89,1.89,0,0,0-1.1-.4q-1.62,0-1.62,2.44v4.44h-2v-8.56Z"/><path class="cls-5" d="M195,416.91h2v8.56h-2v-0.9a3.8,3.8,0,0,1-5.56-.14,4.77,4.77,0,0,1-1.15-3.27,4.63,4.63,0,0,1,1.15-3.21,3.71,3.71,0,0,1,2.88-1.28,3.64,3.64,0,0,1,2.68,1.23v-1Zm-4.69,4.25a3,3,0,0,0,.66,2,2.16,2.16,0,0,0,1.71.78,2.27,2.27,0,0,0,1.78-.76,3.25,3.25,0,0,0,0-4,2.24,2.24,0,0,0-1.76-.76,2.19,2.19,0,0,0-1.71.77A2.85,2.85,0,0,0,190.33,421.17Z"/><path class="cls-5" d="M201.55,418.76v6.71h-2v-6.71h-0.84v-1.85h0.84v-3.14h2v3.14h1.54v1.85h-1.54Z"/><path class="cls-5" d="M204.15,421.13a4.25,4.25,0,0,1,1.33-3.16,4.68,4.68,0,0,1,6.49,0,4.58,4.58,0,0,1,0,6.44,4.54,4.54,0,0,1-3.28,1.29,4.35,4.35,0,0,1-3.23-1.32A4.43,4.43,0,0,1,204.15,421.13Zm2,0a2.89,2.89,0,0,0,.69,2,2.66,2.66,0,0,0,3.71,0,3.21,3.21,0,0,0,0-4,2.63,2.63,0,0,0-3.69,0A2.75,2.75,0,0,0,206.17,421.17Z"/><path class="cls-5" d="M215.38,416.91h2v0.76a3.78,3.78,0,0,1,1-.78,2.22,2.22,0,0,1,1-.22,3.19,3.19,0,0,1,1.63.51L220.07,419a1.89,1.89,0,0,0-1.1-.4q-1.62,0-1.62,2.44v4.44h-2v-8.56Z"/><path class="cls-5" d="M222.08,413.35a1.29,1.29,0,0,1,1.28-1.27,1.25,1.25,0,0,1,.91.38,1.22,1.22,0,0,1,.38.91,1.25,1.25,0,0,1-.38.91,1.22,1.22,0,0,1-.91.38A1.29,1.29,0,0,1,222.08,413.35Zm2.28,3.56v8.56h-2v-8.56h2Z"/><path class="cls-5" d="M228.84,416.91v4.91q0,2.13,1.68,2.13t1.68-2.13v-4.91h2v5a5.52,5.52,0,0,1-.25,1.78,3,3,0,0,1-.85,1.2,4.16,4.16,0,0,1-5.09,0,3,3,0,0,1-.87-1.2,4.9,4.9,0,0,1-.25-1.78v-5h2Z"/><path class="cls-5" d="M236.67,416.91h2v0.79a4.13,4.13,0,0,1,1-.81,2.37,2.37,0,0,1,1.08-.22,2.62,2.62,0,0,1,2.29,1.27,3,3,0,0,1,2.52-1.27q2.89,0,2.89,3.51v5.29h-2v-4.75a3.67,3.67,0,0,0-.3-1.74,1.08,1.08,0,0,0-1-.52,1.29,1.29,0,0,0-1.19.62,4,4,0,0,0-.37,2v4.42h-2v-4.73q0-2.29-1.32-2.29a1.32,1.32,0,0,0-1.22.62,3.9,3.9,0,0,0-.38,2v4.42h-2v-8.56Z"/><path class="cls-5" d="M359.37,413.83v11.65h-2V413.83h-3.12V411.9h8.28v1.92h-3.11Z"/><path class="cls-5" d="M364,413.35a1.29,1.29,0,0,1,1.28-1.27,1.25,1.25,0,0,1,.91.38,1.22,1.22,0,0,1,.38.91,1.25,1.25,0,0,1-.38.91,1.22,1.22,0,0,1-.91.38A1.29,1.29,0,0,1,364,413.35Zm2.28,3.56v8.56h-2v-8.56h2Z"/><path class="cls-5" d="M376.54,421.66H370.4a2.6,2.6,0,0,0,.69,1.68,2.09,2.09,0,0,0,1.56.62,2,2,0,0,0,1.22-.35,5,5,0,0,0,1.08-1.3l1.67,0.93a6.65,6.65,0,0,1-.82,1.13,4.38,4.38,0,0,1-.92.77,3.73,3.73,0,0,1-1.06.44,5.18,5.18,0,0,1-1.24.14,4,4,0,0,1-3.08-1.23,4.62,4.62,0,0,1-1.16-3.29,4.74,4.74,0,0,1,1.13-3.29,4.29,4.29,0,0,1,6,0,4.74,4.74,0,0,1,1.09,3.31v0.47Zm-2-1.62a1.89,1.89,0,0,0-2-1.58,2.07,2.07,0,0,0-.68.11,2,2,0,0,0-.58.32,2,2,0,0,0-.44.5,2.31,2.31,0,0,0-.28.66h4Z"/><path class="cls-5" d="M378.7,416.91h2v0.76a3.78,3.78,0,0,1,1-.78,2.22,2.22,0,0,1,1-.22,3.19,3.19,0,0,1,1.63.51L383.39,419a1.89,1.89,0,0,0-1.1-.4q-1.62,0-1.62,2.44v4.44h-2v-8.56Z"/><path class="cls-5" d="M390.41,418.37l-1.63.87a1.13,1.13,0,0,0-1-.78,0.66,0.66,0,0,0-.47.18,0.6,0.6,0,0,0-.19.46,1.49,1.49,0,0,0,1.14,1,6.83,6.83,0,0,1,2.12,1.25,2.13,2.13,0,0,1,.54,1.54,2.69,2.69,0,0,1-.91,2.07,3.28,3.28,0,0,1-5.19-1.31l1.69-.78a3.67,3.67,0,0,0,.54.78,1.22,1.22,0,0,0,.86.33,0.85,0.85,0,0,0,1-.91,1.25,1.25,0,0,0-.77-1l-0.6-.29-0.61-.29a3.71,3.71,0,0,1-1.21-.84,2.08,2.08,0,0,1-.45-1.38,2.44,2.44,0,0,1,.76-1.85,2.68,2.68,0,0,1,1.9-.73A2.59,2.59,0,0,1,390.41,418.37Z"/><path class="cls-5" d="M399.4,417.28v2.63a4.82,4.82,0,0,0-1.21-1.13,2.36,2.36,0,0,0-1.24-.32,2.44,2.44,0,0,0-1.85.78,2.74,2.74,0,0,0-.74,2,2.81,2.81,0,0,0,.71,2,2.4,2.4,0,0,0,1.84.77,2.51,2.51,0,0,0,1.26-.31,5,5,0,0,0,1.24-1.16v2.61a5.19,5.19,0,0,1-2.41.62,4.61,4.61,0,0,1-3.32-1.28,4.28,4.28,0,0,1-1.34-3.21,4.34,4.34,0,0,1,1.35-3.23,4.58,4.58,0,0,1,3.32-1.32A5,5,0,0,1,399.4,417.28Z"/><path class="cls-5" d="M401.78,410.63h2v7a3.41,3.41,0,0,1,2.33-.95,3,3,0,0,1,2.32.94,3.83,3.83,0,0,1,.74,2.61v5.25h-2v-5.06a2.42,2.42,0,0,0-.36-1.49,1.41,1.41,0,0,0-1.17-.46,1.61,1.61,0,0,0-1.46.64,4.4,4.4,0,0,0-.41,2.23v4.14h-2V410.63Z"/><path class="cls-5" d="M413.63,416.91v4.91q0,2.13,1.68,2.13t1.68-2.13v-4.91h2v5a5.52,5.52,0,0,1-.25,1.78,3,3,0,0,1-.85,1.2,4.16,4.16,0,0,1-5.09,0,3,3,0,0,1-.87-1.2,4.9,4.9,0,0,1-.25-1.78v-5h2Z"/><path class="cls-5" d="M423.5,418.76v6.71h-2v-6.71h-0.84v-1.85h0.84v-3.14h2v3.14H425v1.85H423.5Z"/><path class="cls-5" d="M429.22,423.61h5.09v1.86h-9l5.55-6.71h-4.37v-1.85h8.28Z"/><rect class="cls-6" x="60.64" y="222.19" width="98.64" height="167.59"/><g class="cls-7"><line class="cls-8" x1="169.72" y1="485.32" x2="280.59" y2="374.45"/><line class="cls-8" x1="169.72" y1="473.56" x2="280.59" y2="362.69"/><line class="cls-8" x1="169.72" y1="461.8" x2="280.59" y2="350.93"/><line class="cls-8" x1="169.72" y1="450.04" x2="280.59" y2="339.17"/><line class="cls-8" x1="169.72" y1="438.28" x2="280.59" y2="327.41"/><line class="cls-8" x1="169.72" y1="426.52" x2="280.59" y2="315.65"/><line class="cls-8" x1="169.72" y1="414.76" x2="280.59" y2="303.89"/><line class="cls-8" x1="169.72" y1="403" x2="280.59" y2="292.13"/><line class="cls-8" x1="169.72" y1="391.24" x2="280.59" y2="280.37"/><line class="cls-8" x1="169.72" y1="379.48" x2="280.59" y2="268.61"/><line class="cls-8" x1="169.72" y1="367.72" x2="280.59" y2="256.85"/><line class="cls-8" x1="169.72" y1="355.96" x2="280.59" y2="245.09"/><line class="cls-8" x1="169.72" y1="344.2" x2="280.59" y2="233.33"/><line class="cls-8" x1="169.72" y1="332.44" x2="280.59" y2="221.57"/><line class="cls-8" x1="169.72" y1="320.68" x2="280.59" y2="209.81"/><line class="cls-8" x1="169.72" y1="308.92" x2="280.59" y2="198.05"/><line class="cls-8" x1="169.72" y1="297.16" x2="280.59" y2="186.29"/><line class="cls-8" x1="169.72" y1="285.4" x2="280.59" y2="174.53"/><line class="cls-8" x1="169.72" y1="273.64" x2="280.59" y2="162.77"/><line class="cls-8" x1="169.72" y1="261.88" x2="280.59" y2="151.01"/><line class="cls-8" x1="169.72" y1="250.12" x2="280.59" y2="139.25"/><line class="cls-8" x1="169.72" y1="238.36" x2="280.59" y2="127.49"/><line class="cls-8" x1="169.72" y1="226.6" x2="280.59" y2="115.73"/><line class="cls-8" x1="169.72" y1="214.84" x2="280.59" y2="103.97"/><line class="cls-8" x1="169.72" y1="203.08" x2="280.59" y2="92.21"/><line class="cls-8" x1="169.72" y1="191.32" x2="280.59" y2="80.45"/><line class="cls-8" x1="169.72" y1="179.56" x2="280.59" y2="68.69"/></g><rect class="cls-6" x="290.34" y="263.23" width="98.64" height="126.55"/><g class="cls-9"><line class="cls-8" x1="399.84" y1="487.28" x2="510.71" y2="376.41"/><line class="cls-8" x1="399.84" y1="475.52" x2="510.71" y2="364.65"/><line class="cls-8" x1="399.84" y1="463.76" x2="510.71" y2="352.89"/><line class="cls-8" x1="399.84" y1="452" x2="510.71" y2="341.13"/><line class="cls-8" x1="399.84" y1="440.24" x2="510.71" y2="329.37"/><line class="cls-8" x1="399.84" y1="428.48" x2="510.71" y2="317.61"/><line class="cls-8" x1="399.84" y1="416.72" x2="510.71" y2="305.85"/><line class="cls-8" x1="399.84" y1="404.96" x2="510.71" y2="294.09"/><line class="cls-8" x1="399.84" y1="393.2" x2="510.71" y2="282.33"/><line class="cls-8" x1="399.84" y1="381.44" x2="510.71" y2="270.57"/><line class="cls-8" x1="399.84" y1="369.68" x2="510.71" y2="258.81"/><line class="cls-8" x1="399.84" y1="357.92" x2="510.71" y2="247.05"/><line class="cls-8" x1="399.84" y1="346.16" x2="510.71" y2="235.29"/><line class="cls-8" x1="399.84" y1="334.4" x2="510.71" y2="223.53"/><line class="cls-8" x1="399.84" y1="322.64" x2="510.71" y2="211.77"/><line class="cls-8" x1="399.84" y1="310.88" x2="510.71" y2="200.01"/><line class="cls-8" x1="399.84" y1="299.12" x2="510.71" y2="188.25"/><line class="cls-8" x1="399.84" y1="287.36" x2="510.71" y2="176.49"/><line class="cls-8" x1="399.84" y1="275.6" x2="510.71" y2="164.73"/><line class="cls-8" x1="399.84" y1="263.84" x2="510.71" y2="152.97"/><line class="cls-8" x1="399.84" y1="252.08" x2="510.71" y2="141.21"/><line class="cls-8" x1="399.84" y1="240.32" x2="510.71" y2="129.45"/><line class="cls-8" x1="399.84" y1="228.56" x2="510.71" y2="117.69"/><line class="cls-8" x1="399.84" y1="216.8" x2="510.71" y2="105.93"/></g><path class="cls-5" d="M3.13,115a3.34,3.34,0,0,1-1.49-2.87,3.7,3.7,0,0,1,1.13-2.76,3.92,3.92,0,0,1,2.84-1.11,3.85,3.85,0,0,1,2.81,1.11,3.71,3.71,0,0,1,1.13,2.77A3.41,3.41,0,0,1,8.06,115a3.15,3.15,0,0,1,1.28,1.28,3.75,3.75,0,0,1,.48,1.9,4,4,0,0,1-1.18,3,4.14,4.14,0,0,1-3,1.15,4.33,4.33,0,0,1-3.11-1.16,3.84,3.84,0,0,1-1.23-2.92A3.27,3.27,0,0,1,3.13,115Zm0.18,3.13A2.25,2.25,0,0,0,4,119.77a2.16,2.16,0,0,0,1.6.67,2.16,2.16,0,0,0,1.59-.66,2.27,2.27,0,0,0,0-3.2,2.16,2.16,0,0,0-1.59-.66,2.18,2.18,0,0,0-1.59.66A2.15,2.15,0,0,0,3.31,118.15Zm0.25-6a2,2,0,0,0,2,2.06,2,2,0,1,0-1.43-3.46A1.92,1.92,0,0,0,3.56,112.14Z"/><path class="cls-5" d="M11.87,115.21A8.18,8.18,0,0,1,13.39,110a3.95,3.95,0,0,1,6.56,0,9.91,9.91,0,0,1,0,10.52,4,4,0,0,1-3.27,1.75,4.07,4.07,0,0,1-3.29-1.75A8.47,8.47,0,0,1,11.87,115.21Zm2,0a8,8,0,0,0,.78,3.75,2.29,2.29,0,0,0,2,1.47,2.3,2.3,0,0,0,2-1.47,9,9,0,0,0,0-7.37,2.3,2.3,0,0,0-2-1.46,2.3,2.3,0,0,0-2,1.46A7.5,7.5,0,0,0,13.9,115.21Z"/><path class="cls-5" d="M7.63,144.37H0.93v-1.92H11l-8.56,14-1.63-1Z"/><path class="cls-5" d="M11.87,149.14A8.18,8.18,0,0,1,13.39,144a3.95,3.95,0,0,1,6.56,0,9.91,9.91,0,0,1,0,10.52,4,4,0,0,1-3.27,1.75,4.07,4.07,0,0,1-3.29-1.75A8.47,8.47,0,0,1,11.87,149.14Zm2,0a8,8,0,0,0,.78,3.75,2.29,2.29,0,0,0,2,1.47,2.3,2.3,0,0,0,2-1.47,9,9,0,0,0,0-7.37,2.3,2.3,0,0,0-2-1.46,2.3,2.3,0,0,0-2,1.46A7.5,7.5,0,0,0,13.9,149.15Z"/><path class="cls-5" d="M7.07,176.44l1.5,1.13L5.33,182l0.45-.05,0.29,0a3.81,3.81,0,0,1,2.86,1.27,4.19,4.19,0,0,1,1.2,3,4.36,4.36,0,0,1-1.34,3.2,4.35,4.35,0,0,1-3.19,1.33,4.57,4.57,0,0,1-3.23-1.31A4.16,4.16,0,0,1,1,186.29a5.84,5.84,0,0,1,1.33-3.41Zm1.05,9.87a2.57,2.57,0,0,0-2.57-2.58,2.56,2.56,0,1,0,0,5.12,2.46,2.46,0,0,0,1.8-.75A2.44,2.44,0,0,0,8.12,186.31Z"/><path class="cls-5" d="M11.87,183.61a8.18,8.18,0,0,1,1.51-5.18,3.95,3.95,0,0,1,6.56,0,9.91,9.91,0,0,1,0,10.52,4,4,0,0,1-3.27,1.75A4.07,4.07,0,0,1,13.39,189,8.47,8.47,0,0,1,11.87,183.61Zm2,0a8,8,0,0,0,.78,3.75,2.29,2.29,0,0,0,2,1.47,2.3,2.3,0,0,0,2-1.47,9,9,0,0,0,0-7.37,2.3,2.3,0,0,0-2-1.46,2.3,2.3,0,0,0-2,1.46A7.5,7.5,0,0,0,13.9,183.62Z"/><path class="cls-5" d="M9.47,213H5.28l-0.67,2.24,0.29,0H5.15a4.27,4.27,0,0,1,3.24,1.34,5.11,5.11,0,0,1-.17,6.93,5,5,0,0,1-3.63,1.39,4.78,4.78,0,0,1-4.25-2.53l1.55-1.31a4.79,4.79,0,0,0,1.29,1.54,2.78,2.78,0,0,0,1.59.44,2.76,2.76,0,0,0,2.07-.86A3,3,0,0,0,7.67,220a2.88,2.88,0,0,0-.83-2.13A2.76,2.76,0,0,0,4.78,217a3,3,0,0,0-2.38,1.2H1.72l2.14-7.14H9.47V213Z"/><path class="cls-5" d="M11.87,217.81a8.18,8.18,0,0,1,1.51-5.18,3.95,3.95,0,0,1,6.56,0,9.91,9.91,0,0,1,0,10.52,4,4,0,0,1-3.27,1.75,4.07,4.07,0,0,1-3.29-1.75A8.47,8.47,0,0,1,11.87,217.81Zm2,0a8,8,0,0,0,.78,3.75,2.29,2.29,0,0,0,2,1.47,2.3,2.3,0,0,0,2-1.47,9,9,0,0,0,0-7.37,2.3,2.3,0,0,0-2-1.46,2.3,2.3,0,0,0-2,1.46A7.5,7.5,0,0,0,13.9,217.82Z"/><path class="cls-5" d="M8.88,255.1h1.44V257H8.88v1.92h-2V257H0.17L8.88,244.3V255.1Zm-2,0v-4.54L3.7,255.1H6.83Z"/><path class="cls-5" d="M11.87,252a8.18,8.18,0,0,1,1.51-5.18,3.95,3.95,0,0,1,6.56,0,9.91,9.91,0,0,1,0,10.52,4,4,0,0,1-3.27,1.75,4.07,4.07,0,0,1-3.29-1.75A8.47,8.47,0,0,1,11.87,252Zm2,0a8,8,0,0,0,.78,3.75,2.29,2.29,0,0,0,2,1.47,2.3,2.3,0,0,0,2-1.47,9,9,0,0,0,0-7.37,2.3,2.3,0,0,0-2-1.46,2.3,2.3,0,0,0-2,1.46A7.5,7.5,0,0,0,13.9,252Z"/><path class="cls-5" d="M4.66,286.79V285a3.56,3.56,0,0,0,1.75-.29,1.79,1.79,0,0,0,.8-1.63,1.85,1.85,0,0,0-.58-1.41,2,2,0,0,0-1.49-.55,1.92,1.92,0,0,0-1.32.41A2.74,2.74,0,0,0,3.16,283h-2a4.71,4.71,0,0,1,1.3-2.81,4,4,0,0,1,2.75-.89,4.08,4.08,0,0,1,2.91,1.05A3.52,3.52,0,0,1,9.2,283a3.34,3.34,0,0,1-1.48,2.9,3.45,3.45,0,0,1,1.7,3.22,3.92,3.92,0,0,1-1.23,3A4.43,4.43,0,0,1,5,293.31a4.05,4.05,0,0,1-3.64-1.8,4.68,4.68,0,0,1-.62-2.09h2a2.4,2.4,0,0,0,.77,1.51,2.37,2.37,0,0,0,1.59.52,2.21,2.21,0,0,0,1.64-.66,2.38,2.38,0,0,0,.65-1.71,2.09,2.09,0,0,0-1-2A3.61,3.61,0,0,0,4.66,286.79Z"/><path class="cls-5" d="M11.87,286.22A8.18,8.18,0,0,1,13.39,281a3.95,3.95,0,0,1,6.56,0,9.91,9.91,0,0,1,0,10.52,4,4,0,0,1-3.27,1.75,4.07,4.07,0,0,1-3.29-1.75A8.47,8.47,0,0,1,11.87,286.22Zm2,0a8,8,0,0,0,.78,3.75,2.29,2.29,0,0,0,2,1.47,2.3,2.3,0,0,0,2-1.47,9,9,0,0,0,0-7.37,2.3,2.3,0,0,0-2-1.46,2.3,2.3,0,0,0-2,1.46A7.5,7.5,0,0,0,13.9,286.22Z"/><path class="cls-5" d="M4.51,325.36H9.56v1.93H0.45l4.71-5.71q0.69-.85,1.17-1.48a11.41,11.41,0,0,0,.72-1,2.94,2.94,0,0,0,.5-1.49A2.11,2.11,0,0,0,6.87,316a2.29,2.29,0,0,0-1.65-.64q-2.06,0-2.36,2.44h-2q0.49-4.29,4.33-4.29a4.38,4.38,0,0,1,3.11,1.18,3.83,3.83,0,0,1,1.27,2.92,4.43,4.43,0,0,1-.59,2.17,10.57,10.57,0,0,1-.87,1.31q-0.58.76-1.45,1.8Z"/><path class="cls-5" d="M11.87,320.42a8.18,8.18,0,0,1,1.51-5.18,3.95,3.95,0,0,1,6.56,0,9.91,9.91,0,0,1,0,10.52,4,4,0,0,1-3.27,1.75,4.07,4.07,0,0,1-3.29-1.75A8.47,8.47,0,0,1,11.87,320.42Zm2,0a8,8,0,0,0,.78,3.75,2.29,2.29,0,0,0,2,1.47,2.3,2.3,0,0,0,2-1.47,9,9,0,0,0,0-7.37,2.3,2.3,0,0,0-2-1.46,2.3,2.3,0,0,0-2,1.46A7.5,7.5,0,0,0,13.9,320.42Z"/><path class="cls-5" d="M5.42,349.85H3.07l1.13-1.92H7.47v13.57h-2V349.85Z"/><path class="cls-5" d="M11.33,354.62a8.18,8.18,0,0,1,1.51-5.18,3.95,3.95,0,0,1,6.56,0,9.91,9.91,0,0,1,0,10.52,4,4,0,0,1-3.27,1.75A4.07,4.07,0,0,1,12.84,360,8.47,8.47,0,0,1,11.33,354.62Zm2,0a8,8,0,0,0,.78,3.75,2.29,2.29,0,0,0,2,1.47,2.3,2.3,0,0,0,2-1.47,9,9,0,0,0,0-7.37,2.3,2.3,0,0,0-2-1.46,2.3,2.3,0,0,0-2,1.46A7.5,7.5,0,0,0,13.35,354.63Z"/><line class="cls-10" x1="41.59" y1="355.58" x2="517.64" y2="355.58"/><line class="cls-10" x1="41.59" y1="321.38" x2="517.64" y2="321.38"/><line class="cls-10" x1="41.59" y1="287.17" x2="517.64" y2="287.17"/><line class="cls-10" x1="41.59" y1="252.97" x2="517.64" y2="252.97"/><line class="cls-10" x1="41.59" y1="218.77" x2="517.64" y2="218.77"/><line class="cls-10" x1="41.59" y1="184.57" x2="517.64" y2="184.57"/><line class="cls-10" x1="41.59" y1="150.37" x2="517.64" y2="150.37"/><line class="cls-10" x1="41.59" y1="116.16" x2="517.64" y2="116.16"/><polygon class="cls-11" points="392.55 156.58 392.55 212.77 392.55 232.37 380.75 212.77 292.59 212.77 292.59 156.58 392.55 156.58"/><path class="cls-5" d="M329.17,171.91h-1.92l0.92-1.57h2.67v11.08h-1.67v-9.51Z"/><path class="cls-5" d="M340.34,178.33h1.18v1.52h-1.18v1.57h-1.67v-1.57h-5.44l7.11-10.34v8.81Zm-1.67,0v-3.71l-2.56,3.71h2.56Z"/><path class="cls-5" d="M342.72,172.8a2.43,2.43,0,0,1,.8-1.81,2.64,2.64,0,0,1,1.87-.77,2.59,2.59,0,0,1,1.88.78,2.54,2.54,0,0,1,0,3.68,2.63,2.63,0,0,1-1.9.77A2.66,2.66,0,0,1,342.72,172.8Zm1.25,0a1.42,1.42,0,0,0,1.43,1.44,1.42,1.42,0,1,0-1-2.42A1.34,1.34,0,0,0,344,172.82Zm7.72-2.68,0.78,0.45-6.35,11-0.79-.47Zm-2,8.73a2.43,2.43,0,0,1,.8-1.8,2.65,2.65,0,0,1,1.87-.77,2.6,2.6,0,0,1,1.89.78,2.53,2.53,0,0,1,0,3.68,2.63,2.63,0,0,1-1.9.76A2.65,2.65,0,0,1,349.73,178.87Zm1.26,0a1.4,1.4,0,0,0,.41,1,1.37,1.37,0,0,0,1,.42,1.35,1.35,0,0,0,1-.42,1.42,1.42,0,0,0,0-2A1.42,1.42,0,0,0,351,178.9Z"/><path class="cls-5" d="M306.27,188v6.67a3.66,3.66,0,0,0,.47,2.09,2.5,2.5,0,0,0,3.93,0,3.61,3.61,0,0,0,.47-2.09V188h1.67v7.13a4,4,0,0,1-1.09,2.89,4.22,4.22,0,0,1-6,0,4,4,0,0,1-1.09-2.89V188h1.67Z"/><path class="cls-5" d="M315.25,192.07h1.62v0.65a2.65,2.65,0,0,1,1.91-.84,2.42,2.42,0,0,1,1.9.77,3.15,3.15,0,0,1,.59,2.13v4.28h-1.62v-3.9a2.56,2.56,0,0,0-.29-1.43,1.16,1.16,0,0,0-1-.4,1.24,1.24,0,0,0-1.14.53,3.63,3.63,0,0,0-.33,1.83v3.37h-1.62v-7Z"/><path class="cls-5" d="M325,193.58v5.48h-1.62v-5.48h-0.69v-1.51h0.69v-2.56H325v2.56h1.26v1.51H325Z"/><path class="cls-5" d="M333.82,195.95h-5a2.12,2.12,0,0,0,.56,1.37,1.71,1.71,0,0,0,1.27.5,1.65,1.65,0,0,0,1-.29,4.1,4.1,0,0,0,.88-1.06l1.36,0.76a5.43,5.43,0,0,1-.67.92,3.55,3.55,0,0,1-.75.63,3,3,0,0,1-.87.36,4.24,4.24,0,0,1-1,.11,3.29,3.29,0,0,1-2.51-1,3.77,3.77,0,0,1-.95-2.69,3.87,3.87,0,0,1,.92-2.68,3.17,3.17,0,0,1,2.46-1,3.14,3.14,0,0,1,2.44,1,3.87,3.87,0,0,1,.89,2.71v0.38Zm-1.66-1.32a1.55,1.55,0,0,0-1.63-1.29,1.66,1.66,0,0,0-.55.09,1.59,1.59,0,0,0-.47.26,1.62,1.62,0,0,0-.36.41,1.9,1.9,0,0,0-.23.54h3.25Z"/><path class="cls-5" d="M335.59,192.07h1.61v0.62a3.1,3.1,0,0,1,.79-0.64,1.82,1.82,0,0,1,.83-0.18,2.61,2.61,0,0,1,1.34.42l-0.74,1.48a1.54,1.54,0,0,0-.9-0.33q-1.32,0-1.32,2v3.62h-1.61v-7Z"/><path class="cls-5" d="M345.15,193.26l-1.34.71a0.92,0.92,0,0,0-.78-0.64,0.54,0.54,0,0,0-.38.15,0.49,0.49,0,0,0-.16.38,1.22,1.22,0,0,0,.93.8,5.6,5.6,0,0,1,1.73,1,1.74,1.74,0,0,1,.45,1.26,2.2,2.2,0,0,1-.75,1.69,2.68,2.68,0,0,1-4.24-1.07l1.38-.64a3,3,0,0,0,.44.64,1,1,0,0,0,.7.27,0.69,0.69,0,0,0,.82-0.75,1,1,0,0,0-.63-0.8l-0.49-.24-0.49-.24a3,3,0,0,1-1-.69A1.7,1.7,0,0,1,341,194a2,2,0,0,1,.62-1.51,2.19,2.19,0,0,1,1.55-.59A2.12,2.12,0,0,1,345.15,193.26Z"/><path class="cls-5" d="M352.49,192.37v2.15a3.92,3.92,0,0,0-1-.93,1.93,1.93,0,0,0-1-.26A2,2,0,0,0,349,194a2.24,2.24,0,0,0-.6,1.6,2.29,2.29,0,0,0,.58,1.62,2,2,0,0,0,1.5.63,2,2,0,0,0,1-.25,4.06,4.06,0,0,0,1-.95v2.13a4.24,4.24,0,0,1-2,.51,3.76,3.76,0,0,1-2.71-1,3.5,3.5,0,0,1-1.09-2.62,3.54,3.54,0,0,1,1.1-2.64,3.74,3.74,0,0,1,2.71-1.08A4.06,4.06,0,0,1,352.49,192.37Z"/><path class="cls-5" d="M354.44,186.94h1.61v5.71a2.78,2.78,0,0,1,1.9-.78,2.46,2.46,0,0,1,1.89.77,3.13,3.13,0,0,1,.6,2.13v4.28h-1.61v-4.13a2,2,0,0,0-.3-1.22,1.15,1.15,0,0,0-1-.38,1.32,1.32,0,0,0-1.19.53,3.58,3.58,0,0,0-.34,1.82v3.38h-1.61V186.94Z"/><path class="cls-5" d="M362.25,189.16a1.06,1.06,0,0,1,1-1,1,1,0,0,1,.75.31,1,1,0,0,1,.31.74,1,1,0,0,1-.31.75,1,1,0,0,1-.74.31A1.05,1.05,0,0,1,362.25,189.16Zm1.86,2.91v7H362.5v-7h1.61Z"/><path class="cls-5" d="M372.53,195.95h-5a2.12,2.12,0,0,0,.56,1.37,1.71,1.71,0,0,0,1.27.5,1.65,1.65,0,0,0,1-.29,4.1,4.1,0,0,0,.88-1.06l1.36,0.76a5.43,5.43,0,0,1-.67.92,3.55,3.55,0,0,1-.75.63,3,3,0,0,1-.87.36,4.24,4.24,0,0,1-1,.11,3.29,3.29,0,0,1-2.51-1,3.77,3.77,0,0,1-.95-2.69,3.87,3.87,0,0,1,.92-2.68,3.17,3.17,0,0,1,2.46-1,3.14,3.14,0,0,1,2.44,1,3.87,3.87,0,0,1,.89,2.71v0.38Zm-1.66-1.32a1.55,1.55,0,0,0-1.63-1.29,1.66,1.66,0,0,0-.55.09,1.59,1.59,0,0,0-.47.26,1.62,1.62,0,0,0-.36.41,1.9,1.9,0,0,0-.23.54h3.25Z"/><path class="cls-5" d="M379.44,186.94h1.62v12.12h-1.62v-0.73a3,3,0,0,1-2.16.93,3.07,3.07,0,0,1-2.38-1,3.89,3.89,0,0,1-.94-2.67,3.77,3.77,0,0,1,.94-2.61,3,3,0,0,1,4.54,0v-5.94Zm-3.83,8.61a2.43,2.43,0,0,0,.54,1.64,1.76,1.76,0,0,0,1.39.64,1.85,1.85,0,0,0,1.45-.62,2.66,2.66,0,0,0,0-3.24,1.83,1.83,0,0,0-1.44-.62,1.79,1.79,0,0,0-1.39.63A2.33,2.33,0,0,0,375.61,195.55Z"/><polygon class="cls-11" points="162.22 122.12 162.22 178.31 162.22 197.91 150.42 178.31 62.26 178.31 62.26 122.12 162.22 122.12"/><path class="cls-5" d="M97.7,137.12H95.78l0.92-1.57h2.67v11.08H97.7v-9.51Z"/><path class="cls-5" d="M105.54,141.49v-1.43a2.92,2.92,0,0,0,1.43-.24,1.47,1.47,0,0,0,.65-1.34,1.51,1.51,0,0,0-.47-1.16,1.67,1.67,0,0,0-1.21-.45,1.57,1.57,0,0,0-1.08.34,2.23,2.23,0,0,0-.55,1.16h-1.67a3.84,3.84,0,0,1,1.06-2.29,3.23,3.23,0,0,1,2.25-.73,3.34,3.34,0,0,1,2.38.86,2.88,2.88,0,0,1,.92,2.2,2.73,2.73,0,0,1-1.21,2.37,2.82,2.82,0,0,1,1.38,2.63,3.2,3.2,0,0,1-1,2.44,3.62,3.62,0,0,1-2.58.95,3.31,3.31,0,0,1-3-1.47,3.81,3.81,0,0,1-.51-1.71H104a2,2,0,0,0,.63,1.23,1.93,1.93,0,0,0,1.3.43,1.8,1.8,0,0,0,1.34-.54,1.93,1.93,0,0,0,.53-1.4,1.71,1.71,0,0,0-.8-1.59A3,3,0,0,0,105.54,141.49Z"/><path class="cls-5" d="M111.36,138a2.43,2.43,0,0,1,.8-1.81,2.64,2.64,0,0,1,1.87-.77,2.59,2.59,0,0,1,1.88.78,2.54,2.54,0,0,1,0,3.68,2.63,2.63,0,0,1-1.9.77A2.66,2.66,0,0,1,111.36,138Zm1.25,0a1.42,1.42,0,0,0,1.43,1.44,1.42,1.42,0,1,0-1-2.42A1.34,1.34,0,0,0,112.61,138Zm7.72-2.68,0.78,0.45-6.35,11-0.79-.47Zm-2,8.73a2.43,2.43,0,0,1,.8-1.8,2.65,2.65,0,0,1,1.87-.77,2.6,2.6,0,0,1,1.89.78,2.53,2.53,0,0,1,0,3.68,2.63,2.63,0,0,1-1.9.76A2.65,2.65,0,0,1,118.37,144.09Zm1.26,0a1.4,1.4,0,0,0,.41,1,1.38,1.38,0,0,0,1,.42,1.35,1.35,0,0,0,1-.42,1.42,1.42,0,0,0,0-2A1.42,1.42,0,0,0,119.63,144.11Z"/><path class="cls-5" d="M74.85,153.19v6.67a3.66,3.66,0,0,0,.47,2.09,2.5,2.5,0,0,0,3.93,0,3.6,3.6,0,0,0,.47-2.09v-6.67h1.67v7.13a4,4,0,0,1-1.09,2.89,4.22,4.22,0,0,1-6,0,4,4,0,0,1-1.09-2.89v-7.13h1.67Z"/><path class="cls-5" d="M83.83,157.28h1.62v0.65a2.65,2.65,0,0,1,1.91-.84,2.41,2.41,0,0,1,1.9.77,3.15,3.15,0,0,1,.59,2.13v4.28H88.23v-3.9a2.56,2.56,0,0,0-.29-1.43,1.16,1.16,0,0,0-1-.4,1.25,1.25,0,0,0-1.14.53,3.64,3.64,0,0,0-.33,1.83v3.37H83.83v-7Z"/><path class="cls-5" d="M93.56,158.79v5.48H91.94v-5.48H91.26v-1.51h0.69v-2.56h1.62v2.56h1.26v1.51H93.56Z"/><path class="cls-5" d="M102.41,161.16h-5a2.12,2.12,0,0,0,.56,1.37,1.71,1.71,0,0,0,1.27.5,1.65,1.65,0,0,0,1-.29,4.09,4.09,0,0,0,.88-1.06l1.36,0.76a5.39,5.39,0,0,1-.67.92,3.57,3.57,0,0,1-.75.63,3,3,0,0,1-.87.36,4.23,4.23,0,0,1-1,.11,3.29,3.29,0,0,1-2.51-1,3.77,3.77,0,0,1-.95-2.69,3.87,3.87,0,0,1,.92-2.68,3.5,3.5,0,0,1,4.9,0,3.87,3.87,0,0,1,.89,2.71v0.38Zm-1.66-1.32a1.55,1.55,0,0,0-1.63-1.29,1.66,1.66,0,0,0-.55.09,1.6,1.6,0,0,0-.47.26,1.63,1.63,0,0,0-.36.41,1.86,1.86,0,0,0-.23.54h3.24Z"/><path class="cls-5" d="M104.18,157.28h1.62v0.62a3.08,3.08,0,0,1,.79-0.64,1.82,1.82,0,0,1,.83-0.18,2.61,2.61,0,0,1,1.34.42L108,159a1.54,1.54,0,0,0-.9-0.33q-1.32,0-1.32,2v3.62h-1.62v-7Z"/><path class="cls-5" d="M113.74,158.47l-1.34.71a0.92,0.92,0,0,0-.78-0.64,0.54,0.54,0,0,0-.38.15,0.49,0.49,0,0,0-.16.38,1.22,1.22,0,0,0,.93.8,5.59,5.59,0,0,1,1.73,1,1.74,1.74,0,0,1,.45,1.26,2.2,2.2,0,0,1-.75,1.69,2.68,2.68,0,0,1-4.24-1.07l1.38-.64a3,3,0,0,0,.44.64,1,1,0,0,0,.7.27,0.69,0.69,0,0,0,.82-0.75,1,1,0,0,0-.63-0.8l-0.49-.24-0.49-.24a3,3,0,0,1-1-.69,1.7,1.7,0,0,1-.37-1.13,2,2,0,0,1,.62-1.51,2.19,2.19,0,0,1,1.55-.59A2.12,2.12,0,0,1,113.74,158.47Z"/><path class="cls-5" d="M121.08,157.58v2.15a3.92,3.92,0,0,0-1-.93,1.93,1.93,0,0,0-1-.26,2,2,0,0,0-1.51.64,2.24,2.24,0,0,0-.6,1.6,2.29,2.29,0,0,0,.58,1.62,2,2,0,0,0,1.5.63,2,2,0,0,0,1-.25,4.07,4.07,0,0,0,1-.95V164a4.23,4.23,0,0,1-2,.51,3.76,3.76,0,0,1-2.71-1,3.5,3.5,0,0,1-1.09-2.62,3.54,3.54,0,0,1,1.11-2.64,3.74,3.74,0,0,1,2.71-1.08A4.06,4.06,0,0,1,121.08,157.58Z"/><path class="cls-5" d="M123,152.15h1.62v5.71a2.78,2.78,0,0,1,1.9-.78,2.46,2.46,0,0,1,1.89.77A3.13,3.13,0,0,1,129,160v4.28h-1.61v-4.13a2,2,0,0,0-.3-1.22,1.15,1.15,0,0,0-1-.38,1.32,1.32,0,0,0-1.19.53,3.59,3.59,0,0,0-.34,1.82v3.38H123V152.15Z"/><path class="cls-5" d="M130.84,154.38a1.06,1.06,0,0,1,1-1,1,1,0,0,1,.75.31,1,1,0,0,1,.31.74,1,1,0,0,1-.31.75,1,1,0,0,1-.74.31A1.05,1.05,0,0,1,130.84,154.38Zm1.86,2.91v7h-1.62v-7h1.62Z"/><path class="cls-5" d="M141.11,161.16h-5a2.12,2.12,0,0,0,.56,1.37,1.71,1.71,0,0,0,1.27.5,1.65,1.65,0,0,0,1-.29,4.09,4.09,0,0,0,.88-1.06l1.36,0.76a5.39,5.39,0,0,1-.67.92,3.57,3.57,0,0,1-.75.63,3,3,0,0,1-.87.36,4.23,4.23,0,0,1-1,.11,3.29,3.29,0,0,1-2.51-1,3.77,3.77,0,0,1-.95-2.69,3.87,3.87,0,0,1,.92-2.68,3.5,3.5,0,0,1,4.9,0,3.87,3.87,0,0,1,.89,2.71v0.38Zm-1.66-1.32a1.55,1.55,0,0,0-1.63-1.29,1.66,1.66,0,0,0-.55.09,1.6,1.6,0,0,0-.47.26,1.63,1.63,0,0,0-.36.41,1.86,1.86,0,0,0-.23.54h3.24Z"/><path class="cls-5" d="M148,152.15h1.62v12.12H148v-0.73a3,3,0,0,1-2.16.93,3.07,3.07,0,0,1-2.38-1,3.89,3.89,0,0,1-.94-2.67,3.77,3.77,0,0,1,.94-2.61,3,3,0,0,1,4.54,0v-5.94Zm-3.83,8.61a2.43,2.43,0,0,0,.54,1.64,1.76,1.76,0,0,0,1.39.64,1.85,1.85,0,0,0,1.45-.62,2.66,2.66,0,0,0,0-3.24,1.83,1.83,0,0,0-1.44-.62,1.79,1.79,0,0,0-1.39.63A2.33,2.33,0,0,0,144.2,160.76Z"/><rect class="cls-12" x="177.82" y="68.74" width="14.11" height="14.11"/><g class="cls-13"><line class="cls-14" x1="268.53" y1="98.39" x2="321.75" y2="45.17"/><line class="cls-14" x1="268.53" y1="92.75" x2="321.75" y2="39.53"/><line class="cls-14" x1="268.53" y1="87.1" x2="321.75" y2="33.88"/><line class="cls-14" x1="268.53" y1="81.46" x2="321.75" y2="28.24"/><line class="cls-14" x1="268.53" y1="75.81" x2="321.75" y2="22.59"/><line class="cls-14" x1="268.53" y1="70.17" x2="321.75" y2="16.95"/></g><rect class="cls-2" x="269" y="69.5" width="14.11" height="14.11"/><path class="cls-5" d="M300,71.64h-3.68v2.54h3.55v1.5h-3.55v5h-1.59V70.15H300v1.5Z"/><path class="cls-5" d="M301.37,74h1.54v0.59a3,3,0,0,1,.75-0.61,1.73,1.73,0,0,1,.79-0.17,2.48,2.48,0,0,1,1.27.4L305,75.66a1.47,1.47,0,0,0-.86-0.31q-1.26,0-1.26,1.9V80.7h-1.54V74Z"/><path class="cls-5" d="M311.42,74H313V80.7h-1.54V80a3,3,0,0,1-4.33-.11,3.72,3.72,0,0,1-.89-2.54,3.6,3.6,0,0,1,.89-2.5,2.89,2.89,0,0,1,2.24-1,2.83,2.83,0,0,1,2.09,1V74Zm-3.65,3.31a2.32,2.32,0,0,0,.51,1.56,1.68,1.68,0,0,0,1.33.61,1.76,1.76,0,0,0,1.38-.59,2.53,2.53,0,0,0,0-3.09,1.74,1.74,0,0,0-1.37-.59,1.7,1.7,0,0,0-1.33.6A2.22,2.22,0,0,0,307.77,77.35Z"/><path class="cls-5" d="M316.44,74v3.82q0,1.65,1.31,1.65t1.3-1.65V74h1.54V77.9a4.27,4.27,0,0,1-.2,1.38,2.31,2.31,0,0,1-.66.94,3.23,3.23,0,0,1-4,0,2.35,2.35,0,0,1-.68-0.94,3.78,3.78,0,0,1-.19-1.38V74h1.54Z"/><path class="cls-5" d="M328.6,77.73h-4.77a2,2,0,0,0,.53,1.31,1.63,1.63,0,0,0,1.21.48,1.57,1.57,0,0,0,.95-0.27,3.9,3.9,0,0,0,.84-1l1.3,0.72a5.1,5.1,0,0,1-.64.88,3.35,3.35,0,0,1-.72.6,2.87,2.87,0,0,1-.83.35,4,4,0,0,1-1,.11,3.13,3.13,0,0,1-2.39-1,3.59,3.59,0,0,1-.9-2.56,3.69,3.69,0,0,1,.88-2.56,3.33,3.33,0,0,1,4.66,0,3.69,3.69,0,0,1,.85,2.58v0.36ZM327,76.48a1.47,1.47,0,0,0-1.55-1.23,1.58,1.58,0,0,0-.53.09,1.47,1.47,0,0,0-.45.25,1.54,1.54,0,0,0-.35.39,1.76,1.76,0,0,0-.22.51H327Z"/><path class="cls-5" d="M330.28,74h1.54v0.62a2.52,2.52,0,0,1,1.82-.8,2.3,2.3,0,0,1,1.81.73,3,3,0,0,1,.56,2V80.7h-1.54V77a2.44,2.44,0,0,0-.27-1.36,1.1,1.1,0,0,0-1-.38,1.19,1.19,0,0,0-1.09.5,3.48,3.48,0,0,0-.31,1.74V80.7h-1.54V74Z"/><path class="cls-5" d="M203.13,79.95l2.22-11.35L209,76.8l3.75-8.2,2,11.35h-1.63l-1-6.37-3.12,6.86-3-6.86-1.13,6.38h-1.65Z"/><path class="cls-5" d="M221.57,73.29h1.54v6.66h-1.54v-0.7a3,3,0,0,1-4.33-.11,3.71,3.71,0,0,1-.9-2.54,3.6,3.6,0,0,1,.9-2.5,2.89,2.89,0,0,1,2.24-1,2.83,2.83,0,0,1,2.08,1V73.29Zm-4-2.12a0.91,0.91,0,0,1,.29-0.68,1,1,0,0,1,1.38,0,0.92,0.92,0,0,1,.29.68,1,1,0,0,1-.29.7,1,1,0,0,1-.69.28,1,1,0,0,1-.7-0.29A1,1,0,0,1,217.53,71.17Zm0.39,5.43a2.32,2.32,0,0,0,.51,1.56,1.68,1.68,0,0,0,1.33.61,1.77,1.77,0,0,0,1.38-.59,2.53,2.53,0,0,0,0-3.09,1.74,1.74,0,0,0-1.37-.59,1.7,1.7,0,0,0-1.33.6A2.22,2.22,0,0,0,217.92,76.6Zm2.47-5.43a0.91,0.91,0,0,1,.29-0.68,1,1,0,0,1,.69-0.29,1,1,0,0,1,1,1,1,1,0,0,1-.29.7,1,1,0,0,1-.69.28A1,1,0,0,1,220.39,71.17Z"/><path class="cls-5" d="M225.06,73.29h1.54V73.9a2.52,2.52,0,0,1,1.82-.8,2.3,2.3,0,0,1,1.81.73,3,3,0,0,1,.56,2v4.08h-1.54V76.23a2.43,2.43,0,0,0-.27-1.36,1.1,1.1,0,0,0-1-.38,1.19,1.19,0,0,0-1.09.5,3.47,3.47,0,0,0-.31,1.74v3.21h-1.54V73.29Z"/><path class="cls-5" d="M232.73,73.29h1.54V73.9a2.52,2.52,0,0,1,1.82-.8,2.3,2.3,0,0,1,1.81.73,3,3,0,0,1,.56,2v4.08h-1.54V76.23a2.43,2.43,0,0,0-.27-1.36,1.1,1.1,0,0,0-1-.38,1.19,1.19,0,0,0-1.09.5,3.47,3.47,0,0,0-.31,1.74v3.21h-1.54V73.29Z"/><path class="cls-5" d="M246.47,77H241.7a2,2,0,0,0,.53,1.31,1.62,1.62,0,0,0,1.21.48,1.57,1.57,0,0,0,1-.27,3.9,3.9,0,0,0,.84-1l1.3,0.72a5.1,5.1,0,0,1-.64.88,3.36,3.36,0,0,1-.72.6,2.86,2.86,0,0,1-.83.35,4,4,0,0,1-1,.11,3.14,3.14,0,0,1-2.39-1,3.59,3.59,0,0,1-.9-2.56,3.69,3.69,0,0,1,.88-2.56,3.33,3.33,0,0,1,4.66,0,3.68,3.68,0,0,1,.85,2.58V77Zm-1.58-1.26a1.47,1.47,0,0,0-1.55-1.23,1.58,1.58,0,0,0-.53.09,1.48,1.48,0,0,0-.45.25,1.54,1.54,0,0,0-.35.39,1.79,1.79,0,0,0-.22.51h3.09Z"/><path class="cls-5" d="M248.16,73.29h1.54v0.59a2.94,2.94,0,0,1,.75-0.61,1.72,1.72,0,0,1,.79-0.17,2.48,2.48,0,0,1,1.27.4l-0.7,1.41a1.47,1.47,0,0,0-.85-0.31q-1.26,0-1.26,1.9v3.45h-1.54V73.29Z"/><path class="cls-5" d="M6.95,33.42l4.17,10.45,4.23-10.45h2.49L11.07,49.63,4.46,33.42H6.95Z"/><path class="cls-5" d="M17.62,43.67a4.73,4.73,0,0,1,1.47-3.51,5.2,5.2,0,0,1,7.21,0,5.09,5.09,0,0,1,0,7.16,5,5,0,0,1-3.64,1.44,4.83,4.83,0,0,1-3.58-1.46A4.93,4.93,0,0,1,17.62,43.67Zm2.25,0A3.21,3.21,0,0,0,20.63,46a2.68,2.68,0,0,0,2.06.84A2.68,2.68,0,0,0,24.75,46a3.57,3.57,0,0,0,0-4.43,2.92,2.92,0,0,0-4.1,0A3.06,3.06,0,0,0,19.87,43.71Z"/><path class="cls-5" d="M32.29,32V48.5h-2.2V32h2.2Z"/><path class="cls-5" d="M37.27,32V42.06L40.37,39h2.95l-4.13,4,4.43,5.52H40.77l-3.14-4-0.35.35V48.5h-2.2V32h2.2Z"/><path class="cls-5" d="M50.56,40.61l-1.82,1a1.26,1.26,0,0,0-1.06-.87,0.73,0.73,0,0,0-.52.2,0.67,0.67,0,0,0-.21.51q0,0.55,1.27,1.08a7.57,7.57,0,0,1,2.35,1.38,2.37,2.37,0,0,1,.61,1.71,3,3,0,0,1-1,2.3,3.64,3.64,0,0,1-5.77-1.46l1.88-.87a4.09,4.09,0,0,0,.6.87,1.36,1.36,0,0,0,1,.37,0.94,0.94,0,0,0,1.11-1,1.39,1.39,0,0,0-.86-1.09l-0.66-.32-0.67-.32a4.13,4.13,0,0,1-1.35-.94,2.31,2.31,0,0,1-.5-1.53,2.71,2.71,0,0,1,.85-2.05,3,3,0,0,1,2.11-.81A2.88,2.88,0,0,1,50.56,40.61Z"/><path class="cls-5" d="M52.82,35a1.43,1.43,0,0,1,1.43-1.42,1.38,1.38,0,0,1,1,.42,1.35,1.35,0,0,1,.42,1,1.38,1.38,0,0,1-.42,1,1.35,1.35,0,0,1-1,.42A1.43,1.43,0,0,1,52.82,35Zm2.53,4V48.5h-2.2V39h2.2Z"/><path class="cls-5" d="M58.13,39h2.21v0.88a3.6,3.6,0,0,1,2.6-1.14,3.28,3.28,0,0,1,2.59,1,4.28,4.28,0,0,1,.8,2.9V48.5H64.12V43.19a3.48,3.48,0,0,0-.39-1.94,1.58,1.58,0,0,0-1.39-.55,1.7,1.7,0,0,0-1.55.72,5,5,0,0,0-.45,2.49V48.5H58.13V39Z"/><path class="cls-5" d="M68.76,35a1.43,1.43,0,0,1,1.43-1.42,1.38,1.38,0,0,1,1,.42,1.35,1.35,0,0,1,.42,1,1.38,1.38,0,0,1-.42,1,1.35,1.35,0,0,1-1,.42A1.43,1.43,0,0,1,68.76,35Zm2.53,4V48.5H69.1V39h2.2Z"/><path class="cls-5" d="M76.34,41V48.5h-2.2V41H73.21V39h0.94V35.5h2.2V39h1.71V41H76.34Z"/><path class="cls-5" d="M79.21,35a1.43,1.43,0,0,1,1.43-1.42,1.38,1.38,0,0,1,1,.42,1.35,1.35,0,0,1,.42,1,1.38,1.38,0,0,1-.42,1,1.35,1.35,0,0,1-1,.42A1.43,1.43,0,0,1,79.21,35Zm2.53,4V48.5h-2.2V39h2.2Z"/><path class="cls-5" d="M91.54,39h2.21V48.5H91.54v-1a4.22,4.22,0,0,1-6.18-.16,5.3,5.3,0,0,1-1.28-3.63,5.14,5.14,0,0,1,1.28-3.56,4.12,4.12,0,0,1,3.2-1.43,4,4,0,0,1,3,1.37V39Zm-5.21,4.73a3.31,3.31,0,0,0,.73,2.23,2.4,2.4,0,0,0,1.89.87,2.52,2.52,0,0,0,2-.84,3.61,3.61,0,0,0,0-4.41,2.49,2.49,0,0,0-2-.85,2.43,2.43,0,0,0-1.89.86A3.17,3.17,0,0,0,86.32,43.71Z"/><path class="cls-5" d="M98.78,41V48.5h-2.2V41H95.65V39h0.94V35.5h2.2V39h1.71V41H98.78Z"/><path class="cls-5" d="M101.65,35a1.43,1.43,0,0,1,1.43-1.42,1.38,1.38,0,0,1,1,.42,1.35,1.35,0,0,1,.42,1,1.38,1.38,0,0,1-.42,1,1.35,1.35,0,0,1-1,.42A1.43,1.43,0,0,1,101.65,35Zm2.53,4V48.5H102V39h2.2Z"/><path class="cls-5" d="M108.15,39l2.46,5.34L113.06,39h2.47l-4.94,10.17L105.69,39h2.46Z"/><path class="cls-5" d="M125.34,44.26h-6.82a2.89,2.89,0,0,0,.76,1.87,2.32,2.32,0,0,0,1.73.68,2.25,2.25,0,0,0,1.36-.39,5.56,5.56,0,0,0,1.2-1.45l1.86,1a7.36,7.36,0,0,1-.91,1.25,4.84,4.84,0,0,1-1,.86,4.12,4.12,0,0,1-1.18.49,5.73,5.73,0,0,1-1.38.16,4.48,4.48,0,0,1-3.42-1.37,5.13,5.13,0,0,1-1.29-3.65,5.27,5.27,0,0,1,1.25-3.65,4.76,4.76,0,0,1,6.66,0,5.26,5.26,0,0,1,1.21,3.68v0.52Zm-2.26-1.8a2.1,2.1,0,0,0-2.22-1.76,2.29,2.29,0,0,0-.75.12,2.14,2.14,0,0,0-.64.35,2.23,2.23,0,0,0-.49.55,2.56,2.56,0,0,0-.31.73h4.41Z"/><path class="cls-5" d="M133.8,48.5L137,32.29,142.15,44l5.36-11.72,2.85,16.21H148l-1.46-9.1-4.46,9.79-4.34-9.8-1.62,9.11H133.8Z"/><path class="cls-5" d="M152.69,43.67a4.73,4.73,0,0,1,1.47-3.51,5.2,5.2,0,0,1,7.21,0,5.09,5.09,0,0,1,0,7.16,5,5,0,0,1-3.64,1.44,4.83,4.83,0,0,1-3.58-1.46A4.93,4.93,0,0,1,152.69,43.67Zm2.25,0A3.21,3.21,0,0,0,155.7,46a3,3,0,0,0,4.12,0,3.57,3.57,0,0,0,0-4.43,2.92,2.92,0,0,0-4.1,0A3.06,3.06,0,0,0,154.94,43.71Z"/><path class="cls-5" d="M165.16,39h2.2v0.85a4.2,4.2,0,0,1,1.07-.87,2.46,2.46,0,0,1,1.13-.24,3.55,3.55,0,0,1,1.82.57l-1,2a2.1,2.1,0,0,0-1.22-.45q-1.8,0-1.8,2.71V48.5h-2.2V39Z"/><path class="cls-5" d="M179.52,39h2.21V48.5h-2.21v-1a4.22,4.22,0,0,1-6.18-.16,5.3,5.3,0,0,1-1.28-3.63,5.14,5.14,0,0,1,1.28-3.56,4.12,4.12,0,0,1,3.2-1.43,4,4,0,0,1,3,1.37V39Zm-5.21,4.73a3.31,3.31,0,0,0,.73,2.23,2.4,2.4,0,0,0,1.89.87,2.52,2.52,0,0,0,2-.84,3.61,3.61,0,0,0,0-4.41,2.49,2.49,0,0,0-2-.85,2.43,2.43,0,0,0-1.89.86A3.17,3.17,0,0,0,174.3,43.71Z"/><path class="cls-5" d="M186.76,41V48.5h-2.2V41h-0.94V39h0.94V35.5h2.2V39h1.71V41h-1.71Z"/><path class="cls-5" d="M189.65,43.67a4.73,4.73,0,0,1,1.47-3.51,5.2,5.2,0,0,1,7.21,0,5.09,5.09,0,0,1,0,7.16,5,5,0,0,1-3.64,1.44,4.83,4.83,0,0,1-3.58-1.46A4.93,4.93,0,0,1,189.65,43.67Zm2.25,0a3.21,3.21,0,0,0,.76,2.26,3,3,0,0,0,4.12,0,3.57,3.57,0,0,0,0-4.43,2.92,2.92,0,0,0-4.1,0A3.06,3.06,0,0,0,191.9,43.71Z"/><path class="cls-5" d="M202.12,39h2.2v0.85a4.2,4.2,0,0,1,1.07-.87,2.46,2.46,0,0,1,1.13-.24,3.55,3.55,0,0,1,1.82.57l-1,2a2.1,2.1,0,0,0-1.22-.45q-1.8,0-1.8,2.71V48.5h-2.2V39Z"/><path class="cls-5" d="M209.57,35A1.43,1.43,0,0,1,211,33.62a1.38,1.38,0,0,1,1,.42,1.35,1.35,0,0,1,.42,1,1.38,1.38,0,0,1-.42,1,1.35,1.35,0,0,1-1,.42A1.43,1.43,0,0,1,209.57,35Zm2.53,4V48.5h-2.2V39h2.2Z"/><path class="cls-5" d="M217.08,39v5.46q0,2.36,1.87,2.36t1.87-2.36V39H223V44.5a6.14,6.14,0,0,1-.28,2,3.32,3.32,0,0,1-.95,1.34,4.62,4.62,0,0,1-5.65,0,3.36,3.36,0,0,1-1-1.34,5.43,5.43,0,0,1-.27-2V39h2.2Z"/><path class="cls-5" d="M225.79,39H228v0.88a4.59,4.59,0,0,1,1.08-.9,2.63,2.63,0,0,1,1.2-.24,2.92,2.92,0,0,1,2.55,1.41,3.3,3.3,0,0,1,2.8-1.41q3.21,0,3.21,3.9V48.5h-2.21V43.22a4.07,4.07,0,0,0-.33-1.93,1.2,1.2,0,0,0-1.12-.58,1.43,1.43,0,0,0-1.32.68,4.41,4.41,0,0,0-.42,2.2V48.5h-2.21V43.25q0-2.54-1.46-2.54a1.47,1.47,0,0,0-1.35.69,4.32,4.32,0,0,0-.42,2.19V48.5h-2.2V39Z"/><path class="cls-5" d="M250.34,31.84l2,0.78a25,25,0,0,0-1.49,4.71,22,22,0,0,0-.32,2.3q-0.11,1.21-.11,2.63t0.11,2.64a22,22,0,0,0,.32,2.3,24.21,24.21,0,0,0,1.49,4.7l-2,.78a23.86,23.86,0,0,1-2.14-10.42A23.86,23.86,0,0,1,250.34,31.84Z"/><path class="cls-5" d="M259.13,35.56h-2.61l1.25-2.14h3.63V48.5h-2.28V35.56Z"/><path class="cls-5" d="M268.93,49l-1.67-1.24,3.6-4.91-0.5.06-0.33,0a4.24,4.24,0,0,1-3.16-1.4,4.66,4.66,0,0,1-1.33-3.34,5.05,5.05,0,0,1,5-5,5,5,0,0,1,3.58,1.46,4.6,4.6,0,0,1,1.52,3.44,6.6,6.6,0,0,1-1.48,3.8Zm-1.17-11a2.79,2.79,0,0,0,.83,2.05,2.85,2.85,0,1,0,2-4.86A2.85,2.85,0,0,0,267.76,38Z"/><path class="cls-5" d="M281.27,49l-1.67-1.24,3.6-4.91-0.5.06-0.33,0a4.24,4.24,0,0,1-3.16-1.4,4.66,4.66,0,0,1-1.33-3.34,5.05,5.05,0,0,1,5-5,5,5,0,0,1,3.58,1.46A4.6,4.6,0,0,1,288,38.07a6.6,6.6,0,0,1-1.48,3.8ZM280.1,38a2.79,2.79,0,0,0,.83,2.05,2.85,2.85,0,1,0,2-4.86A2.85,2.85,0,0,0,280.1,38Z"/><path class="cls-5" d="M290,40.86a9.09,9.09,0,0,1,1.68-5.75,4.39,4.39,0,0,1,7.29,0A9.26,9.26,0,0,1,300.62,41a9.24,9.24,0,0,1-1.68,5.84,4.47,4.47,0,0,1-3.63,1.94,4.52,4.52,0,0,1-3.65-1.94A9.41,9.41,0,0,1,290,40.86Zm2.25,0a8.94,8.94,0,0,0,.87,4.17,2.32,2.32,0,0,0,4.43,0,8.53,8.53,0,0,0,.88-4.09,8.59,8.59,0,0,0-.88-4.1,2.31,2.31,0,0,0-4.42,0A8.33,8.33,0,0,0,292.22,40.87Z"/><path class="cls-5" d="M304.86,52.68l-2-.78a24.21,24.21,0,0,0,1.49-4.7,24.84,24.84,0,0,0,.44-4.94,24.87,24.87,0,0,0-.44-4.93,25,25,0,0,0-1.49-4.71l2-.78A24,24,0,0,1,307,42.26,24,24,0,0,1,304.86,52.68Z"/><path class="cls-5" d="M318.55,39v5.46q0,2.36,1.87,2.36t1.87-2.36V39h2.2V44.5a6.14,6.14,0,0,1-.28,2,3.32,3.32,0,0,1-.95,1.34,4.62,4.62,0,0,1-5.65,0,3.36,3.36,0,0,1-1-1.34,5.43,5.43,0,0,1-.27-2V39h2.2Z"/><path class="cls-5" d="M327.25,39h2.21v0.88a3.6,3.6,0,0,1,2.6-1.14,3.28,3.28,0,0,1,2.59,1,4.28,4.28,0,0,1,.8,2.9V48.5h-2.21V43.19a3.48,3.48,0,0,0-.39-1.94,1.58,1.58,0,0,0-1.39-.55,1.7,1.7,0,0,0-1.55.72,5,5,0,0,0-.45,2.49V48.5h-2.21V39Z"/><path class="cls-5" d="M345.23,32h2.21V48.5h-2.21v-1a4.1,4.1,0,0,1-2.94,1.27A4.19,4.19,0,0,1,339,47.35a5.3,5.3,0,0,1-1.28-3.63A5.13,5.13,0,0,1,339,40.16a4.11,4.11,0,0,1,6.18-.07V32ZM340,43.71a3.31,3.31,0,0,0,.73,2.23,2.4,2.4,0,0,0,1.89.87,2.52,2.52,0,0,0,2-.84,3.61,3.61,0,0,0,0-4.41,2.49,2.49,0,0,0-2-.85,2.43,2.43,0,0,0-1.89.86A3.17,3.17,0,0,0,340,43.71Z"/><path class="cls-5" d="M361,35.56V48.5h-2.28V35.56h-3.47V33.42h9.2v2.14H361Z"/><path class="cls-5" d="M366.06,35a1.43,1.43,0,0,1,1.43-1.42,1.38,1.38,0,0,1,1,.42,1.35,1.35,0,0,1,.42,1,1.38,1.38,0,0,1-.42,1,1.35,1.35,0,0,1-1,.42A1.43,1.43,0,0,1,366.06,35Zm2.53,4V48.5h-2.2V39h2.2Z"/><path class="cls-5" d="M380,44.26h-6.82a2.89,2.89,0,0,0,.76,1.87,2.32,2.32,0,0,0,1.73.68,2.25,2.25,0,0,0,1.36-.39,5.56,5.56,0,0,0,1.2-1.45l1.86,1a7.36,7.36,0,0,1-.91,1.25,4.84,4.84,0,0,1-1,.86,4.12,4.12,0,0,1-1.18.49,5.73,5.73,0,0,1-1.38.16,4.48,4.48,0,0,1-3.42-1.37,5.13,5.13,0,0,1-1.29-3.65,5.27,5.27,0,0,1,1.25-3.65,4.76,4.76,0,0,1,6.66,0A5.26,5.26,0,0,1,380,43.74v0.52Zm-2.26-1.8a2.1,2.1,0,0,0-2.22-1.76,2.29,2.29,0,0,0-.75.12,2.14,2.14,0,0,0-.64.35,2.23,2.23,0,0,0-.49.55,2.56,2.56,0,0,0-.31.73h4.41Z"/><path class="cls-5" d="M382.44,39h2.2v0.85a4.2,4.2,0,0,1,1.07-.87,2.46,2.46,0,0,1,1.13-.24,3.55,3.55,0,0,1,1.82.57l-1,2a2.1,2.1,0,0,0-1.22-.45q-1.8,0-1.8,2.71V48.5h-2.2V39Z"/><path class="cls-5" d="M395.44,40.61l-1.82,1a1.26,1.26,0,0,0-1.06-.87,0.73,0.73,0,0,0-.52.2,0.67,0.67,0,0,0-.21.51q0,0.55,1.27,1.08a7.57,7.57,0,0,1,2.35,1.38,2.37,2.37,0,0,1,.61,1.71,3,3,0,0,1-1,2.3,3.64,3.64,0,0,1-5.77-1.46l1.88-.87a4.09,4.09,0,0,0,.6.87,1.36,1.36,0,0,0,1,.37,0.94,0.94,0,0,0,1.11-1A1.39,1.39,0,0,0,393,44.7l-0.66-.32-0.67-.32a4.13,4.13,0,0,1-1.35-.94,2.31,2.31,0,0,1-.5-1.53,2.71,2.71,0,0,1,.85-2.05,3,3,0,0,1,2.11-.81A2.88,2.88,0,0,1,395.44,40.61Z"/><path class="cls-5" d="M405.43,39.4v2.92a5.33,5.33,0,0,0-1.35-1.26,2.63,2.63,0,0,0-1.38-.35,2.71,2.71,0,0,0-2.06.87,3,3,0,0,0-.82,2.18,3.12,3.12,0,0,0,.79,2.2,2.67,2.67,0,0,0,2,.86,2.79,2.79,0,0,0,1.4-.34,5.55,5.55,0,0,0,1.38-1.29v2.9a5.77,5.77,0,0,1-2.68.69,5.12,5.12,0,0,1-3.69-1.43,4.76,4.76,0,0,1-1.48-3.56,4.82,4.82,0,0,1,1.5-3.59,5.09,5.09,0,0,1,3.69-1.46A5.52,5.52,0,0,1,405.43,39.4Z"/><path class="cls-5" d="M408.08,32h2.2v7.77a3.78,3.78,0,0,1,2.59-1.05,3.34,3.34,0,0,1,2.58,1,4.25,4.25,0,0,1,.82,2.9V48.5h-2.2V42.87a2.68,2.68,0,0,0-.41-1.66,1.56,1.56,0,0,0-1.3-.51,1.79,1.79,0,0,0-1.62.71,4.89,4.89,0,0,0-.46,2.48v4.6h-2.2V32Z"/><path class="cls-5" d="M421.24,39v5.46q0,2.36,1.87,2.36T425,44.45V39h2.2V44.5a6.14,6.14,0,0,1-.28,2,3.32,3.32,0,0,1-.95,1.34,4.62,4.62,0,0,1-5.65,0,3.36,3.36,0,0,1-1-1.34,5.43,5.43,0,0,1-.27-2V39h2.2Z"/><path class="cls-5" d="M432.21,41V48.5H430V41h-0.94V39H430V35.5h2.2V39h1.71V41h-1.71Z"/><path class="cls-5" d="M438.57,46.43h5.65V48.5h-10L440.38,41h-4.85V39h9.2Z"/><path class="cls-5" d="M455,31.84l2,0.78a25,25,0,0,0-1.49,4.71,22,22,0,0,0-.32,2.3q-0.11,1.21-.11,2.63t0.11,2.64a22,22,0,0,0,.32,2.3A24.21,24.21,0,0,0,457,51.9l-2,.78a23.86,23.86,0,0,1-2.14-10.42A23.86,23.86,0,0,1,455,31.84Z"/><path class="cls-5" d="M463.81,35.56h-2.61l1.25-2.14h3.63V48.5h-2.28V35.56Z"/><path class="cls-5" d="M473.61,49l-1.67-1.24,3.6-4.91-0.5.06-0.33,0a4.24,4.24,0,0,1-3.16-1.4,4.66,4.66,0,0,1-1.33-3.34,5.05,5.05,0,0,1,5-5,5,5,0,0,1,3.58,1.46,4.6,4.6,0,0,1,1.52,3.44,6.6,6.6,0,0,1-1.48,3.8Zm-1.17-11a2.79,2.79,0,0,0,.83,2.05,2.85,2.85,0,1,0,2-4.86A2.85,2.85,0,0,0,472.44,38Z"/><path class="cls-5" d="M486,49l-1.67-1.24,3.6-4.91-0.5.06-0.33,0a4.24,4.24,0,0,1-3.16-1.4,4.66,4.66,0,0,1-1.33-3.34,5.05,5.05,0,0,1,5-5,5,5,0,0,1,3.58,1.46,4.6,4.6,0,0,1,1.52,3.44,6.6,6.6,0,0,1-1.48,3.8Zm-1.17-11a2.79,2.79,0,0,0,.83,2.05,2.85,2.85,0,1,0,2-4.86A2.85,2.85,0,0,0,484.78,38Z"/><path class="cls-5" d="M498.81,46.36h5.62V48.5H494.3l5.23-6.34q0.77-.95,1.29-1.64a12.43,12.43,0,0,0,.8-1.16,3.27,3.27,0,0,0,.56-1.65,2.35,2.35,0,0,0-.74-1.77,2.55,2.55,0,0,0-1.84-.71q-2.29,0-2.62,2.71h-2.27q0.55-4.77,4.81-4.77A4.86,4.86,0,0,1,503,34.48a4.25,4.25,0,0,1,1.41,3.24,4.92,4.92,0,0,1-.65,2.41,11.84,11.84,0,0,1-1,1.46q-0.64.85-1.62,2Z"/><path class="cls-5" d="M509.54,52.68l-2-.78A24.21,24.21,0,0,0,509,47.2a24.84,24.84,0,0,0,.44-4.94,24.87,24.87,0,0,0-.44-4.93,25,25,0,0,0-1.49-4.71l2-.78a24,24,0,0,1,2.13,10.42A24,24,0,0,1,509.54,52.68Z"/></svg>