<svg id="Charts" xmlns="http://www.w3.org/2000/svg" xmlns:xlink="http://www.w3.org/1999/xlink" viewBox="0 0 419.22 312.38"><defs><style>.cls-1,.cls-13,.cls-2,.cls-5,.cls-6,.cls-9{fill:none;}.cls-13,.cls-14,.cls-2,.cls-5,.cls-6,.cls-7,.cls-9{stroke:#fff;stroke-miterlimit:10;}.cls-14,.cls-2{stroke-width:0.69px;}.cls-14,.cls-3,.cls-6,.cls-7{opacity:0.4;}.cls-14,.cls-4,.cls-7{fill:#fff;}.cls-7{stroke-width:1.4px;}.cls-8{clip-path:url(#clip-path);}.cls-9{stroke-width:1.12px;}.cls-10{clip-path:url(#clip-path-2);}.cls-11{clip-path:url(#clip-path-3);}.cls-12{clip-path:url(#clip-path-4);}.cls-13{stroke-width:0.55px;}.cls-15{clip-path:url(#clip-path-5);}</style><clipPath id="clip-path"><rect class="cls-1" x="93.97" y="148.4" width="46.97" height="113.36"/></clipPath><clipPath id="clip-path-2"><rect class="cls-1" x="226.07" y="93.68" width="46.97" height="168.08"/></clipPath><clipPath id="clip-path-3"><rect class="cls-1" x="358.18" y="113.23" width="46.97" height="148.53"/></clipPath><clipPath id="clip-path-4"><rect class="cls-2" x="217.14" y="24.84" width="10.29" height="10.29"/></clipPath><clipPath id="clip-path-5"><rect class="cls-1" x="232.69" y="438.86" width="140.72" height="188.38"/></clipPath></defs><title>Charts_</title><g class="cls-3"><path class="cls-4" d="M114.54,309.67H113l-0.65-.67a4.18,4.18,0,0,1-2.31.67,4.32,4.32,0,0,1-2.93-1.12,4,4,0,0,1-1.39-3.14,4.13,4.13,0,0,1,1.32-3.12,4.33,4.33,0,0,1,5.85-.15,4.17,4.17,0,0,1,1.5,3.33,4,4,0,0,1-1.19,2.86Zm-3.44-3.44,1.2,1.2a2.83,2.83,0,0,0,.79-2,3.07,3.07,0,0,0-.89-2.24,3,3,0,0,0-2.2-.9,2.9,2.9,0,0,0-2.19.9,3.14,3.14,0,0,0-.87,2.27,2.9,2.9,0,0,0,.89,2.19,3,3,0,0,0,2.12.88,2.93,2.93,0,0,0,1.47-.37l-2-1.89h1.62Z"/><path class="cls-4" d="M116.91,304.29v3a1.05,1.05,0,1,0,2.05,0v-3h1.21v3a3.38,3.38,0,0,1-.16,1.08,1.83,1.83,0,0,1-.52.74,2.54,2.54,0,0,1-3.11,0,1.85,1.85,0,0,1-.53-0.74,3,3,0,0,1-.15-1.08v-3h1.21Z"/><path class="cls-4" d="M126.46,307.19h-3.75a1.59,1.59,0,0,0,.42,1,1.28,1.28,0,0,0,1,.38,1.24,1.24,0,0,0,.75-0.21,3,3,0,0,0,.66-0.79l1,0.57a4.1,4.1,0,0,1-.5.69,2.66,2.66,0,0,1-.56.47,2.25,2.25,0,0,1-.65.27,3.14,3.14,0,0,1-.76.09,2.46,2.46,0,0,1-1.88-.75,2.82,2.82,0,0,1-.71-2,2.9,2.9,0,0,1,.69-2,2.62,2.62,0,0,1,3.66,0,2.89,2.89,0,0,1,.67,2v0.28Zm-1.24-1a1.16,1.16,0,0,0-1.22-1,1.25,1.25,0,0,0-.41.07,1.19,1.19,0,0,0-.35.19,1.24,1.24,0,0,0-.27.3,1.42,1.42,0,0,0-.17.4h2.43Z"/><path class="cls-4" d="M129,300.45v9.07h-1.21v-9.07H129Z"/><path class="cls-4" d="M131.73,300.45v9.07h-1.21v-9.07h1.21Z"/><path class="cls-4" d="M138,307.19h-3.75a1.59,1.59,0,0,0,.42,1,1.28,1.28,0,0,0,1,.38,1.24,1.24,0,0,0,.75-0.21,3,3,0,0,0,.66-0.79l1,0.57a4.1,4.1,0,0,1-.5.69,2.66,2.66,0,0,1-.56.47,2.25,2.25,0,0,1-.65.27,3.14,3.14,0,0,1-.76.09,2.46,2.46,0,0,1-1.88-.75,2.82,2.82,0,0,1-.71-2,2.9,2.9,0,0,1,.69-2,2.62,2.62,0,0,1,3.66,0,2.89,2.89,0,0,1,.67,2v0.28Zm-1.24-1a1.16,1.16,0,0,0-1.22-1,1.25,1.25,0,0,0-.41.07,1.19,1.19,0,0,0-.35.19,1.24,1.24,0,0,0-.27.3,1.42,1.42,0,0,0-.17.4h2.43Z"/><path class="cls-4" d="M139.53,304.88a0.71,0.71,0,0,1,.22-0.52,0.75,0.75,0,0,1,1.27.53,0.73,0.73,0,0,1-.22.53,0.75,0.75,0,0,1-1.06,0A0.73,0.73,0,0,1,139.53,304.88Zm0,4a0.75,0.75,0,0,1,1.49,0,0.72,0.72,0,0,1-.22.53,0.76,0.76,0,0,1-1.06,0A0.73,0.73,0,0,1,139.53,308.92Z"/><path class="cls-4" d="M148.65,302.4v7.12H147.4V302.4H145.5v-1.18h5.06v1.18h-1.9Z"/><path class="cls-4" d="M154.84,304.29h1.21v5.23h-1.21V309a2.32,2.32,0,0,1-3.4-.09,2.92,2.92,0,0,1-.7-2,2.83,2.83,0,0,1,.7-2,2.27,2.27,0,0,1,1.76-.79,2.23,2.23,0,0,1,1.64.75v-0.61Zm-2.87,2.6a1.82,1.82,0,0,0,.4,1.22,1.32,1.32,0,0,0,1,.48,1.39,1.39,0,0,0,1.09-.46,2,2,0,0,0,0-2.43,1.37,1.37,0,0,0-1.07-.47,1.34,1.34,0,0,0-1,.47A1.74,1.74,0,0,0,152,306.89Z"/><path class="cls-4" d="M157.58,304.29h1.21v0.48a2.54,2.54,0,0,1,.6-0.49,1.44,1.44,0,0,1,.66-0.13,1.6,1.6,0,0,1,1.4.77,1.82,1.82,0,0,1,1.54-.77q1.77,0,1.77,2.14v3.23h-1.21v-2.91a2.23,2.23,0,0,0-.18-1.06,0.66,0.66,0,0,0-.62-0.32,0.79,0.79,0,0,0-.73.38,2.42,2.42,0,0,0-.23,1.21v2.7h-1.21v-2.89q0-1.4-.8-1.4a0.81,0.81,0,0,0-.74.38,2.37,2.37,0,0,0-.23,1.2v2.7h-1.21v-5.23Z"/><path class="cls-4" d="M171,307.19h-3.75a1.59,1.59,0,0,0,.42,1,1.28,1.28,0,0,0,1,.38,1.24,1.24,0,0,0,.75-0.21,3,3,0,0,0,.66-0.79l1,0.57a4.1,4.1,0,0,1-.5.69,2.66,2.66,0,0,1-.56.47,2.25,2.25,0,0,1-.65.27,3.14,3.14,0,0,1-.76.09,2.46,2.46,0,0,1-1.88-.75,2.82,2.82,0,0,1-.71-2,2.9,2.9,0,0,1,.69-2,2.62,2.62,0,0,1,3.66,0,2.89,2.89,0,0,1,.67,2v0.28Zm-1.24-1a1.16,1.16,0,0,0-1.22-1,1.25,1.25,0,0,0-.41.07,1.19,1.19,0,0,0-.35.19,1.24,1.24,0,0,0-.27.3,1.42,1.42,0,0,0-.17.4h2.43Z"/><path class="cls-4" d="M176.22,300.45h1.21v9.07h-1.21V309a2.26,2.26,0,0,1-1.62.7,2.3,2.3,0,0,1-1.78-.78,2.92,2.92,0,0,1-.7-2,2.82,2.82,0,0,1,.7-2,2.26,2.26,0,0,1,3.4,0v-4.45Zm-2.87,6.44a1.82,1.82,0,0,0,.4,1.22,1.32,1.32,0,0,0,1,.48,1.39,1.39,0,0,0,1.09-.46,2,2,0,0,0,0-2.43,1.37,1.37,0,0,0-1.07-.47,1.34,1.34,0,0,0-1,.47A1.74,1.74,0,0,0,173.35,306.89Z"/><path class="cls-4" d="M178.78,302.11a0.79,0.79,0,0,1,.78-0.78,0.76,0.76,0,0,1,.56.23,0.74,0.74,0,0,1,.23.55,0.76,0.76,0,0,1-.23.56,0.74,0.74,0,0,1-.55.23A0.79,0.79,0,0,1,178.78,302.11Zm1.39,2.17v5.23H179v-5.23h1.21Z"/><path class="cls-4" d="M185.55,304.29h1.21v5.23h-1.21V309a2.32,2.32,0,0,1-3.4-.09,2.92,2.92,0,0,1-.7-2,2.83,2.83,0,0,1,.7-2,2.27,2.27,0,0,1,1.76-.79,2.23,2.23,0,0,1,1.64.75v-0.61Zm-2.87,2.6a1.82,1.82,0,0,0,.4,1.22,1.32,1.32,0,0,0,1,.48,1.39,1.39,0,0,0,1.09-.46,2,2,0,0,0,0-2.43,1.37,1.37,0,0,0-1.07-.47,1.34,1.34,0,0,0-1,.47A1.74,1.74,0,0,0,182.68,306.89Z"/><path class="cls-4" d="M196.79,307.51h-3.55l-0.92,2H191l4.1-8.81,4,8.81h-1.37Zm-0.51-1.18L195,303.51l-1.29,2.82h2.52Z"/><path class="cls-4" d="M201.2,300.45v4.45a2.23,2.23,0,0,1,1.64-.75,2.26,2.26,0,0,1,1.76.79,2.82,2.82,0,0,1,.7,2,2.88,2.88,0,0,1-.71,2,2.29,2.29,0,0,1-1.78.78,2.26,2.26,0,0,1-1.62-.7v0.55H200v-9.07h1.21Zm2.87,6.49a1.81,1.81,0,0,0-.41-1.22,1.31,1.31,0,0,0-1-.48,1.39,1.39,0,0,0-1.09.47,1.74,1.74,0,0,0-.41,1.2,1.76,1.76,0,0,0,.41,1.22,1.36,1.36,0,0,0,1.07.47,1.33,1.33,0,0,0,1-.47A1.72,1.72,0,0,0,204.07,306.94Z"/><path class="cls-4" d="M209.63,305.18l-1,.53a0.69,0.69,0,0,0-.58-0.48,0.4,0.4,0,0,0-.29.11,0.37,0.37,0,0,0-.12.28,0.91,0.91,0,0,0,.7.6,4.18,4.18,0,0,1,1.29.76,1.3,1.3,0,0,1,.33.94,1.64,1.64,0,0,1-.56,1.27,2,2,0,0,1-3.17-.8l1-.48a2.22,2.22,0,0,0,.33.48,0.75,0.75,0,0,0,.53.2,0.52,0.52,0,0,0,.61-0.56,0.77,0.77,0,0,0-.47-0.6l-0.37-.18-0.37-.18a2.28,2.28,0,0,1-.74-0.52,1.27,1.27,0,0,1-.27-0.84,1.49,1.49,0,0,1,.47-1.13,1.64,1.64,0,0,1,1.16-.45A1.58,1.58,0,0,1,209.63,305.18Z"/><path class="cls-4" d="M212.3,305.42v4.1h-1.21v-4.1h-0.52v-1.13h0.52v-1.92h1.21v1.92h0.94v1.13H212.3Z"/><path class="cls-4" d="M213.88,302.11a0.79,0.79,0,0,1,.78-0.78,0.76,0.76,0,0,1,.56.23,0.74,0.74,0,0,1,.23.55,0.76,0.76,0,0,1-.23.56,0.74,0.74,0,0,1-.55.23A0.79,0.79,0,0,1,213.88,302.11Zm1.39,2.17v5.23h-1.21v-5.23h1.21Z"/><path class="cls-4" d="M216.8,304.29H218v0.48a2.54,2.54,0,0,1,.6-0.49,1.44,1.44,0,0,1,.66-0.13,1.6,1.6,0,0,1,1.4.77,1.82,1.82,0,0,1,1.54-.77q1.77,0,1.77,2.14v3.23h-1.21v-2.91a2.23,2.23,0,0,0-.18-1.06,0.66,0.66,0,0,0-.62-0.32,0.79,0.79,0,0,0-.73.38,2.42,2.42,0,0,0-.23,1.21v2.7h-1.21v-2.89q0-1.4-.8-1.4a0.81,0.81,0,0,0-.74.38,2.37,2.37,0,0,0-.23,1.2v2.7H216.8v-5.23Z"/><path class="cls-4" d="M225.5,304.29h1.21v0.48a2.54,2.54,0,0,1,.6-0.49,1.44,1.44,0,0,1,.66-0.13,1.6,1.6,0,0,1,1.4.77,1.82,1.82,0,0,1,1.54-.77q1.77,0,1.77,2.14v3.23h-1.21v-2.91a2.23,2.23,0,0,0-.18-1.06,0.66,0.66,0,0,0-.62-0.32,0.79,0.79,0,0,0-.73.38,2.42,2.42,0,0,0-.23,1.21v2.7h-1.21v-2.89q0-1.4-.8-1.4a0.81,0.81,0,0,0-.74.38,2.37,2.37,0,0,0-.23,1.2v2.7H225.5v-5.23Z"/><path class="cls-4" d="M235.41,304.29v3a1.05,1.05,0,1,0,2.05,0v-3h1.21v3a3.38,3.38,0,0,1-.16,1.08,1.83,1.83,0,0,1-.52.74,2.54,2.54,0,0,1-3.11,0,1.85,1.85,0,0,1-.53-0.74,3,3,0,0,1-.15-1.08v-3h1.21Z"/><path class="cls-4" d="M240.19,304.29h1.21v0.48a2,2,0,0,1,1.43-.63,1.8,1.8,0,0,1,1.42.58,2.35,2.35,0,0,1,.44,1.59v3.21h-1.21V306.6a1.91,1.91,0,0,0-.21-1.07,0.87,0.87,0,0,0-.76-0.3,0.94,0.94,0,0,0-.85.4,2.73,2.73,0,0,0-.25,1.37v2.52h-1.21v-5.23Z"/><path class="cls-4" d="M251.29,309.4q0,0.37,0,.65a4.25,4.25,0,0,1-.07.5,2.22,2.22,0,0,1-.5,1,2.45,2.45,0,0,1-2,.82,2.59,2.59,0,0,1-1.72-.57,2.32,2.32,0,0,1-.81-1.61h1.21a1.37,1.37,0,0,0,.23.6,1.3,1.3,0,0,0,1.1.49q1.33,0,1.33-1.62v-0.73a2.25,2.25,0,0,1-1.66.74,2.23,2.23,0,0,1-1.75-.77,2.87,2.87,0,0,1-.69-2,3,3,0,0,1,.64-1.94,2.22,2.22,0,0,1,1.82-.85,2.11,2.11,0,0,1,1.64.74v-0.59h1.21v5.11Zm-1.16-2.48a1.75,1.75,0,0,0-.41-1.22,1.35,1.35,0,0,0-1.06-.47,1.3,1.3,0,0,0-1.08.51,2.09,2.09,0,0,0,0,2.35,1.3,1.3,0,0,0,1.08.5,1.33,1.33,0,0,0,1.1-.5A1.79,1.79,0,0,0,250.13,306.92Z"/><path class="cls-4" d="M255.85,305.18l-1,.53a0.69,0.69,0,0,0-.58-0.48,0.4,0.4,0,0,0-.29.11,0.37,0.37,0,0,0-.12.28,0.91,0.91,0,0,0,.7.6,4.18,4.18,0,0,1,1.29.76,1.3,1.3,0,0,1,.33.94,1.64,1.64,0,0,1-.56,1.27,2,2,0,0,1-3.17-.8l1-.48a2.22,2.22,0,0,0,.33.48,0.75,0.75,0,0,0,.53.2A0.52,0.52,0,0,0,255,308a0.77,0.77,0,0,0-.47-0.6l-0.37-.18-0.37-.18a2.28,2.28,0,0,1-.74-0.52,1.27,1.27,0,0,1-.27-0.84,1.49,1.49,0,0,1,.47-1.13,1.64,1.64,0,0,1,1.16-.45A1.58,1.58,0,0,1,255.85,305.18Z"/><path class="cls-4" d="M260.31,305.18l-1,.53a0.69,0.69,0,0,0-.58-0.48,0.4,0.4,0,0,0-.29.11,0.37,0.37,0,0,0-.12.28,0.91,0.91,0,0,0,.7.6,4.18,4.18,0,0,1,1.29.76,1.3,1.3,0,0,1,.33.94,1.64,1.64,0,0,1-.56,1.27,2,2,0,0,1-3.17-.8l1-.48a2.22,2.22,0,0,0,.33.48,0.75,0.75,0,0,0,.53.2,0.52,0.52,0,0,0,.61-0.56,0.77,0.77,0,0,0-.47-0.6l-0.37-.18-0.37-.18a2.28,2.28,0,0,1-.74-0.52,1.27,1.27,0,0,1-.27-0.84,1.49,1.49,0,0,1,.47-1.13,1.64,1.64,0,0,1,1.16-.45A1.58,1.58,0,0,1,260.31,305.18Z"/><path class="cls-4" d="M263,305.42v4.1h-1.21v-4.1h-0.52v-1.13h0.52v-1.92H263v1.92h0.94v1.13H263Z"/><path class="cls-4" d="M266,304.29v3a1.05,1.05,0,1,0,2.05,0v-3h1.21v3a3.38,3.38,0,0,1-.16,1.08,1.83,1.83,0,0,1-.52.74,2.54,2.54,0,0,1-3.11,0,1.85,1.85,0,0,1-.53-0.74,3,3,0,0,1-.15-1.08v-3H266Z"/><path class="cls-4" d="M274.6,300.45h1.21v9.07H274.6V309a2.26,2.26,0,0,1-1.62.7,2.3,2.3,0,0,1-1.78-.78,2.92,2.92,0,0,1-.7-2,2.82,2.82,0,0,1,.7-2,2.26,2.26,0,0,1,3.4,0v-4.45Zm-2.87,6.44a1.82,1.82,0,0,0,.4,1.22,1.32,1.32,0,0,0,1,.48,1.39,1.39,0,0,0,1.09-.46,2,2,0,0,0,0-2.43,1.37,1.37,0,0,0-1.07-.47,1.34,1.34,0,0,0-1,.47A1.74,1.74,0,0,0,271.73,306.89Z"/><path class="cls-4" d="M277.15,302.11a0.79,0.79,0,0,1,.78-0.78,0.76,0.76,0,0,1,.56.23,0.74,0.74,0,0,1,.23.55,0.76,0.76,0,0,1-.23.56,0.74,0.74,0,0,1-.55.23A0.79,0.79,0,0,1,277.15,302.11Zm1.39,2.17v5.23h-1.21v-5.23h1.21Z"/><path class="cls-4" d="M284.84,307.19h-3.75a1.59,1.59,0,0,0,.42,1,1.28,1.28,0,0,0,1,.38,1.24,1.24,0,0,0,.75-0.21,3,3,0,0,0,.66-0.79l1,0.57a4.1,4.1,0,0,1-.5.69,2.66,2.66,0,0,1-.56.47,2.25,2.25,0,0,1-.65.27,3.14,3.14,0,0,1-.76.09,2.46,2.46,0,0,1-1.88-.75,2.82,2.82,0,0,1-.71-2,2.9,2.9,0,0,1,.69-2,2.62,2.62,0,0,1,3.66,0,2.89,2.89,0,0,1,.67,2v0.28Zm-1.24-1a1.16,1.16,0,0,0-1.22-1,1.25,1.25,0,0,0-.41.07,1.19,1.19,0,0,0-.35.19,1.24,1.24,0,0,0-.27.3,1.42,1.42,0,0,0-.17.4h2.43Z"/><path class="cls-4" d="M291.55,308.34h3.09v1.18h-5.57l2.88-3.49q0.42-.52.71-0.9a7,7,0,0,0,.44-0.64,1.8,1.8,0,0,0,.31-0.91,1.29,1.29,0,0,0-.41-1,1.46,1.46,0,0,0-2.45,1.1H289.3q0.3-2.62,2.65-2.62a2.68,2.68,0,0,1,1.9.72,2.34,2.34,0,0,1,.77,1.78,2.7,2.7,0,0,1-.36,1.33,6.47,6.47,0,0,1-.53.8q-0.35.46-.89,1.1Z"/><path class="cls-4" d="M296,305.32a5,5,0,0,1,.92-3.16,2.41,2.41,0,0,1,4,0,6.05,6.05,0,0,1,0,6.43,2.46,2.46,0,0,1-2,1.07,2.49,2.49,0,0,1-2-1.07A5.18,5.18,0,0,1,296,305.32Zm1.24,0a4.92,4.92,0,0,0,.48,2.29,1.27,1.27,0,0,0,2.43,0,5.49,5.49,0,0,0,0-4.51,1.27,1.27,0,0,0-2.43,0A4.58,4.58,0,0,0,297.28,305.32Z"/><path class="cls-4" d="M304.5,302.4h-1.43l0.69-1.18h2v8.29H304.5V302.4Z"/><path class="cls-4" d="M311.66,300.94l0.92,0.69-2,2.7,0.27,0H311a2.33,2.33,0,0,1,1.75.77,2.56,2.56,0,0,1,.73,1.84,2.78,2.78,0,0,1-2.77,2.77,2.79,2.79,0,0,1-2-.8A2.54,2.54,0,0,1,308,307a3.57,3.57,0,0,1,.81-2.08Zm0.64,6a1.57,1.57,0,1,0-1.56,1.55A1.57,1.57,0,0,0,312.31,307Z"/></g><line class="cls-5" x1="27.78" y1="261.76" x2="419.22" y2="261.76"/><path class="cls-4" d="M3.68,218.59H2l0.79-1.35H5.11v9.5H3.68v-8.15Z"/><path class="cls-4" d="M7.82,221.93a5.73,5.73,0,0,1,1.06-3.62,2.76,2.76,0,0,1,4.59,0,6.94,6.94,0,0,1,0,7.36,2.82,2.82,0,0,1-2.29,1.22,2.85,2.85,0,0,1-2.3-1.22A5.93,5.93,0,0,1,7.82,221.93Zm1.42,0a5.63,5.63,0,0,0,.55,2.63,1.6,1.6,0,0,0,1.39,1,1.61,1.61,0,0,0,1.39-1,6.3,6.3,0,0,0,0-5.16,1.61,1.61,0,0,0-1.39-1,1.61,1.61,0,0,0-1.39,1A5.26,5.26,0,0,0,9.23,221.94Z"/><path class="cls-4" d="M3,186.31H6.58v1.35H0.2l3.3-4q0.49-.6.82-1a7.89,7.89,0,0,0,.5-0.73,2.06,2.06,0,0,0,.35-1,1.48,1.48,0,0,0-.47-1.11,1.61,1.61,0,0,0-1.16-.45A1.61,1.61,0,0,0,1.89,181H0.46q0.34-3,3-3a3.06,3.06,0,0,1,2.18.82,2.68,2.68,0,0,1,.89,2,3.11,3.11,0,0,1-.41,1.52,7.43,7.43,0,0,1-.61.92q-0.4.53-1,1.26Z"/><path class="cls-4" d="M8.19,182.84a5.73,5.73,0,0,1,1.06-3.62,2.76,2.76,0,0,1,4.59,0,6.94,6.94,0,0,1,0,7.36,2.82,2.82,0,0,1-2.29,1.22,2.85,2.85,0,0,1-2.3-1.22A5.93,5.93,0,0,1,8.19,182.84Zm1.42,0a5.63,5.63,0,0,0,.55,2.63,1.6,1.6,0,0,0,1.39,1,1.61,1.61,0,0,0,1.39-1,6.3,6.3,0,0,0,0-5.16,1.61,1.61,0,0,0-1.39-1,1.61,1.61,0,0,0-1.39,1A5.26,5.26,0,0,0,9.61,182.85Z"/><path class="cls-4" d="M3.14,144.16v-1.22a2.49,2.49,0,0,0,1.22-.2,1.25,1.25,0,0,0,.56-1.14,1.3,1.3,0,0,0-.41-1,1.43,1.43,0,0,0-1-.39,1.35,1.35,0,0,0-.92.29,1.92,1.92,0,0,0-.47,1H0.66a3.29,3.29,0,0,1,.91-2,2.77,2.77,0,0,1,1.93-.62,2.86,2.86,0,0,1,2,.74,2.46,2.46,0,0,1,.79,1.89,2.34,2.34,0,0,1-1,2,2.41,2.41,0,0,1,1.19,2.26,2.74,2.74,0,0,1-.86,2.09,3.1,3.1,0,0,1-2.21.81,2.84,2.84,0,0,1-2.55-1.26A3.27,3.27,0,0,1,.42,146H1.8a1.68,1.68,0,0,0,.54,1.05,1.66,1.66,0,0,0,1.12.37A1.55,1.55,0,0,0,4.61,147a1.66,1.66,0,0,0,.46-1.2,1.46,1.46,0,0,0-.68-1.37A2.54,2.54,0,0,0,3.14,144.16Z"/><path class="cls-4" d="M8.19,143.76a5.73,5.73,0,0,1,1.06-3.62,2.76,2.76,0,0,1,4.59,0,6.94,6.94,0,0,1,0,7.36,2.82,2.82,0,0,1-2.29,1.22,2.85,2.85,0,0,1-2.3-1.22A5.93,5.93,0,0,1,8.19,143.76Zm1.42,0a5.63,5.63,0,0,0,.55,2.63,1.6,1.6,0,0,0,1.39,1,1.61,1.61,0,0,0,1.39-1,6.3,6.3,0,0,0,0-5.16,1.61,1.61,0,0,0-1.39-1,1.61,1.61,0,0,0-1.39,1A5.26,5.26,0,0,0,9.61,143.76Z"/><path class="cls-4" d="M6.1,106.83h1v1.3h-1v1.35H4.66v-1.35H0l6.1-8.86v7.56Zm-1.43,0v-3.18l-2.19,3.18H4.66Z"/><path class="cls-4" d="M8.19,104.67A5.73,5.73,0,0,1,9.25,101a2.76,2.76,0,0,1,4.59,0,6.94,6.94,0,0,1,0,7.36,2.82,2.82,0,0,1-2.29,1.22,2.85,2.85,0,0,1-2.3-1.22A5.93,5.93,0,0,1,8.19,104.67Zm1.42,0a5.63,5.63,0,0,0,.55,2.63,1.6,1.6,0,0,0,1.39,1,1.61,1.61,0,0,0,1.39-1,6.3,6.3,0,0,0,0-5.16,1.61,1.61,0,0,0-1.39-1,1.61,1.61,0,0,0-1.39,1A5.26,5.26,0,0,0,9.61,104.67Z"/><path class="cls-4" d="M6.51,62.24H3.58L3.11,63.81l0.2,0H3.49a3,3,0,0,1,2.27.93,3.58,3.58,0,0,1-.12,4.85,3.51,3.51,0,0,1-2.54,1,3.35,3.35,0,0,1-3-1.77l1.08-.92a3.35,3.35,0,0,0,.9,1.08,1.94,1.94,0,0,0,1.11.31,1.93,1.93,0,0,0,1.45-.6,2.12,2.12,0,0,0,.58-1.51,2,2,0,0,0-.58-1.49A1.93,1.93,0,0,0,3.23,65a2.11,2.11,0,0,0-1.67.84H1.09l1.49-5H6.51v1.35Z"/><path class="cls-4" d="M8.19,65.58A5.73,5.73,0,0,1,9.25,62a2.76,2.76,0,0,1,4.59,0,6.94,6.94,0,0,1,0,7.36,2.82,2.82,0,0,1-2.29,1.22,2.85,2.85,0,0,1-2.3-1.22A5.93,5.93,0,0,1,8.19,65.58Zm1.42,0a5.63,5.63,0,0,0,.55,2.63,1.6,1.6,0,0,0,1.39,1,1.61,1.61,0,0,0,1.39-1,6.3,6.3,0,0,0,0-5.16,1.61,1.61,0,0,0-1.39-1,1.61,1.61,0,0,0-1.39,1A5.26,5.26,0,0,0,9.61,65.59Z"/><line class="cls-6" x1="27.78" y1="222.67" x2="419.22" y2="222.67"/><line class="cls-6" x1="27.78" y1="183.58" x2="419.22" y2="183.58"/><line class="cls-6" x1="27.78" y1="144.5" x2="419.22" y2="144.5"/><line class="cls-6" x1="27.78" y1="105.41" x2="419.22" y2="105.41"/><line class="cls-6" x1="27.78" y1="66.32" x2="419.22" y2="66.32"/><rect class="cls-7" x="41.78" y="140.59" width="46.97" height="121.17"/><g class="cls-8"><line class="cls-9" x1="93.97" y1="335.08" x2="173.16" y2="255.88"/><line class="cls-9" x1="93.97" y1="326.68" x2="173.16" y2="247.48"/><line class="cls-9" x1="93.97" y1="318.28" x2="173.16" y2="239.08"/><line class="cls-9" x1="93.97" y1="309.88" x2="173.16" y2="230.68"/><line class="cls-9" x1="93.97" y1="301.48" x2="173.16" y2="222.28"/><line class="cls-9" x1="93.97" y1="293.08" x2="173.16" y2="213.88"/><line class="cls-9" x1="93.97" y1="284.68" x2="173.16" y2="205.48"/><line class="cls-9" x1="93.97" y1="276.28" x2="173.16" y2="197.08"/><line class="cls-9" x1="93.97" y1="267.88" x2="173.16" y2="188.68"/><line class="cls-9" x1="93.97" y1="259.48" x2="173.16" y2="180.28"/><line class="cls-9" x1="93.97" y1="251.08" x2="173.16" y2="171.88"/><line class="cls-9" x1="93.97" y1="242.68" x2="173.16" y2="163.48"/><line class="cls-9" x1="93.97" y1="234.28" x2="173.16" y2="155.08"/><line class="cls-9" x1="93.97" y1="225.88" x2="173.16" y2="146.68"/><line class="cls-9" x1="93.97" y1="217.48" x2="173.16" y2="138.28"/><line class="cls-9" x1="93.97" y1="209.08" x2="173.16" y2="129.88"/><line class="cls-9" x1="93.97" y1="200.68" x2="173.16" y2="121.48"/><line class="cls-9" x1="93.97" y1="192.28" x2="173.16" y2="113.08"/><line class="cls-9" x1="93.97" y1="183.88" x2="173.16" y2="104.68"/><line class="cls-9" x1="93.97" y1="175.48" x2="173.16" y2="96.28"/><line class="cls-9" x1="93.97" y1="167.08" x2="173.16" y2="87.88"/><line class="cls-9" x1="93.97" y1="158.68" x2="173.16" y2="79.48"/><line class="cls-9" x1="93.97" y1="150.28" x2="173.16" y2="71.08"/></g><path class="cls-4" d="M61.17,286.13v-9.5H62.6a6.24,6.24,0,0,1,1.52.15,2.29,2.29,0,0,1,1,.5,2.59,2.59,0,0,1,.63.9,2.73,2.73,0,0,1,.24,1.11,2.25,2.25,0,0,1-.78,1.73,2.29,2.29,0,0,1,1.19.9,2.68,2.68,0,0,1-.34,3.37,2.58,2.58,0,0,1-1.06.66,6.18,6.18,0,0,1-1.62.18H61.17Zm1.43-5.42h0.45a1.65,1.65,0,0,0,1.17-.35,1.37,1.37,0,0,0,.37-1,1.31,1.31,0,0,0-.38-1,1.59,1.59,0,0,0-1.11-.35h-0.5v2.76Zm0,4.07h0.89a2.2,2.2,0,0,0,1.43-.38,1.32,1.32,0,0,0,.48-1,1.34,1.34,0,0,0-.46-1,2.39,2.39,0,0,0-1.61-.41H62.61v2.87Z"/><path class="cls-4" d="M72.78,280.13h1.39v6H72.78V285.5a2.66,2.66,0,0,1-3.89-.1,3.34,3.34,0,0,1-.81-2.29,3.24,3.24,0,0,1,.81-2.25,2.6,2.6,0,0,1,2-.9,2.55,2.55,0,0,1,1.88.86v-0.7Zm-3.29,3a2.09,2.09,0,0,0,.46,1.4,1.51,1.51,0,0,0,1.19.55,1.59,1.59,0,0,0,1.24-.53,2.28,2.28,0,0,0,0-2.78,1.56,1.56,0,0,0-1.23-.54,1.53,1.53,0,0,0-1.19.54A2,2,0,0,0,69.49,283.11Z"/><path class="cls-4" d="M79.4,281.15l-1.14.61a0.79,0.79,0,0,0-.67-0.55,0.46,0.46,0,0,0-.33.13,0.42,0.42,0,0,0-.14.32,1,1,0,0,0,.8.68,4.76,4.76,0,0,1,1.48.87,1.49,1.49,0,0,1,.38,1.08,1.88,1.88,0,0,1-.64,1.45,2.3,2.3,0,0,1-3.64-.92l1.18-.55a2.59,2.59,0,0,0,.38.55,0.86,0.86,0,0,0,.6.23,0.59,0.59,0,0,0,.7-0.64,0.88,0.88,0,0,0-.54-0.69l-0.42-.2-0.42-.2a2.61,2.61,0,0,1-.85-0.59,1.45,1.45,0,0,1-.31-1,1.71,1.71,0,0,1,.54-1.29,1.88,1.88,0,0,1,1.33-.51A1.81,1.81,0,0,1,79.4,281.15Z"/><path class="cls-4" d="M86.48,283.46H82.19a1.82,1.82,0,0,0,.48,1.17,1.46,1.46,0,0,0,1.09.43,1.42,1.42,0,0,0,.85-0.25,3.51,3.51,0,0,0,.76-0.91l1.17,0.65a4.72,4.72,0,0,1-.57.79,3,3,0,0,1-.65.54,2.62,2.62,0,0,1-.74.31,3.63,3.63,0,0,1-.87.1,2.82,2.82,0,0,1-2.15-.86,3.23,3.23,0,0,1-.81-2.3,3.32,3.32,0,0,1,.79-2.3,3,3,0,0,1,4.2,0,3.32,3.32,0,0,1,.76,2.32v0.33Zm-1.42-1.13a1.33,1.33,0,0,0-1.4-1.11,1.45,1.45,0,0,0-.47.08,1.39,1.39,0,0,0-.4.22,1.41,1.41,0,0,0-.31.35,1.6,1.6,0,0,0-.2.46h2.78Z"/><path class="cls-4" d="M89.38,275.73v10.39H88V275.73h1.38Z"/><path class="cls-4" d="M90.26,282.48H93v1.21H90.26v-1.21Z"/><path class="cls-4" d="M99.52,278l-1.16.69a2,2,0,0,0-.62-0.74,1.66,1.66,0,0,0-1.78.14,1.05,1.05,0,0,0-.39.84,1.32,1.32,0,0,0,1,1.12l0.95,0.39a4.05,4.05,0,0,1,1.69,1.14,2.58,2.58,0,0,1,.54,1.65,2.91,2.91,0,0,1-.87,2.17,3,3,0,0,1-2.18.86,2.92,2.92,0,0,1-2-.74,3.38,3.38,0,0,1-1-2.06l1.45-.32a2.47,2.47,0,0,0,.34,1.16,1.64,1.64,0,0,0,2.41.17,1.55,1.55,0,0,0,.44-1.14,1.6,1.6,0,0,0-.08-0.51,1.29,1.29,0,0,0-.24-0.42,1.94,1.94,0,0,0-.42-0.36,4.12,4.12,0,0,0-.62-0.32L96,281.37a2.64,2.64,0,0,1-2-2.41,2.29,2.29,0,0,1,.82-1.79,3,3,0,0,1,2-.73A2.84,2.84,0,0,1,99.52,278Z"/><path class="cls-4" d="M102.87,281.42v4.7h-1.38v-4.7h-0.59v-1.29h0.59v-2.2h1.38v2.2h1.08v1.29h-1.08Z"/><path class="cls-4" d="M109.41,280.13h1.39v6h-1.39V285.5a2.66,2.66,0,0,1-3.89-.1,3.34,3.34,0,0,1-.81-2.29,3.24,3.24,0,0,1,.81-2.25,2.6,2.6,0,0,1,2-.9,2.55,2.55,0,0,1,1.88.86v-0.7Zm-3.29,3a2.09,2.09,0,0,0,.46,1.4,1.51,1.51,0,0,0,1.19.55,1.59,1.59,0,0,0,1.24-.53,2.28,2.28,0,0,0,0-2.78,1.56,1.56,0,0,0-1.23-.54,1.53,1.53,0,0,0-1.19.54A2,2,0,0,0,106.13,283.11Z"/><path class="cls-4" d="M117,275.73h1.39v10.39H117V285.5a2.58,2.58,0,0,1-1.85.8,2.64,2.64,0,0,1-2-.9,3.34,3.34,0,0,1-.81-2.29,3.23,3.23,0,0,1,.81-2.24,2.59,2.59,0,0,1,3.89,0v-5.09Zm-3.29,7.38a2.09,2.09,0,0,0,.46,1.4,1.51,1.51,0,0,0,1.19.55,1.59,1.59,0,0,0,1.24-.53,2.28,2.28,0,0,0,0-2.78,1.56,1.56,0,0,0-1.23-.54,1.53,1.53,0,0,0-1.19.54A2,2,0,0,0,113.68,283.11Z"/><path class="cls-4" d="M121.53,281.42v4.7h-1.38v-4.7h-0.59v-1.29h0.59v-2.2h1.38v2.2h1.08v1.29h-1.08Z"/><rect class="cls-7" x="173.88" y="105.41" width="46.97" height="156.35"/><g class="cls-10"><line class="cls-9" x1="226.07" y1="278.8" x2="305.27" y2="199.6"/><line class="cls-9" x1="226.07" y1="287.2" x2="305.27" y2="208"/><line class="cls-9" x1="226.07" y1="295.6" x2="305.27" y2="216.4"/><line class="cls-9" x1="226.07" y1="304" x2="305.27" y2="224.8"/><line class="cls-9" x1="226.07" y1="270.4" x2="305.27" y2="191.2"/><line class="cls-9" x1="226.07" y1="262" x2="305.27" y2="182.8"/><line class="cls-9" x1="226.07" y1="253.6" x2="305.27" y2="174.4"/><line class="cls-9" x1="226.07" y1="245.2" x2="305.27" y2="166"/><line class="cls-9" x1="226.07" y1="236.8" x2="305.27" y2="157.6"/><line class="cls-9" x1="226.07" y1="228.4" x2="305.27" y2="149.2"/><line class="cls-9" x1="226.07" y1="220" x2="305.27" y2="140.8"/><line class="cls-9" x1="226.07" y1="211.6" x2="305.27" y2="132.4"/><line class="cls-9" x1="226.07" y1="203.2" x2="305.27" y2="124"/><line class="cls-9" x1="226.07" y1="194.8" x2="305.27" y2="115.6"/><line class="cls-9" x1="226.07" y1="186.4" x2="305.27" y2="107.2"/><line class="cls-9" x1="226.07" y1="178" x2="305.27" y2="98.8"/><line class="cls-9" x1="226.07" y1="169.6" x2="305.27" y2="90.4"/><line class="cls-9" x1="226.07" y1="161.2" x2="305.27" y2="82"/><line class="cls-9" x1="226.07" y1="152.8" x2="305.27" y2="73.6"/><line class="cls-9" x1="226.07" y1="144.4" x2="305.27" y2="65.2"/><line class="cls-9" x1="226.07" y1="136" x2="305.27" y2="56.8"/><line class="cls-9" x1="226.07" y1="127.6" x2="305.27" y2="48.4"/><line class="cls-9" x1="226.07" y1="119.2" x2="305.27" y2="40"/><line class="cls-9" x1="226.07" y1="110.8" x2="305.27" y2="31.6"/><line class="cls-9" x1="226.07" y1="102.4" x2="305.27" y2="23.2"/><line class="cls-9" x1="226.07" y1="94" x2="305.27" y2="14.8"/></g><path class="cls-4" d="M196.91,286.13v-9.5h1.43a6.24,6.24,0,0,1,1.52.15,2.29,2.29,0,0,1,1,.5,2.59,2.59,0,0,1,.63.9,2.73,2.73,0,0,1,.24,1.11,2.25,2.25,0,0,1-.78,1.73,2.29,2.29,0,0,1,1.19.9,2.68,2.68,0,0,1-.34,3.37,2.58,2.58,0,0,1-1.06.66,6.18,6.18,0,0,1-1.62.18h-2.17Zm1.43-5.42h0.45a1.65,1.65,0,0,0,1.17-.35,1.37,1.37,0,0,0,.37-1,1.31,1.31,0,0,0-.38-1,1.59,1.59,0,0,0-1.11-.35h-0.5v2.76Zm0,4.07h0.89a2.2,2.2,0,0,0,1.43-.38,1.32,1.32,0,0,0,.48-1,1.34,1.34,0,0,0-.46-1,2.39,2.39,0,0,0-1.61-.41h-0.73v2.87Z"/><path class="cls-4" d="M208.51,280.13h1.39v6h-1.39V285.5a2.66,2.66,0,0,1-3.89-.1,3.34,3.34,0,0,1-.81-2.29,3.24,3.24,0,0,1,.81-2.25,2.6,2.6,0,0,1,2-.9,2.55,2.55,0,0,1,1.88.86v-0.7Zm-3.29,3a2.09,2.09,0,0,0,.46,1.4,1.51,1.51,0,0,0,1.19.55,1.59,1.59,0,0,0,1.24-.53,2.28,2.28,0,0,0,0-2.78,1.56,1.56,0,0,0-1.23-.54,1.53,1.53,0,0,0-1.19.54A2,2,0,0,0,205.23,283.11Z"/><path class="cls-4" d="M215.13,281.15l-1.14.61a0.79,0.79,0,0,0-.67-0.55,0.46,0.46,0,0,0-.33.13,0.42,0.42,0,0,0-.14.32,1,1,0,0,0,.8.68,4.76,4.76,0,0,1,1.48.87,1.49,1.49,0,0,1,.38,1.08,1.88,1.88,0,0,1-.64,1.45,2.3,2.3,0,0,1-3.64-.92l1.18-.55a2.59,2.59,0,0,0,.38.55,0.86,0.86,0,0,0,.6.23,0.59,0.59,0,0,0,.7-0.64,0.88,0.88,0,0,0-.54-0.69l-0.42-.2-0.42-.2a2.61,2.61,0,0,1-.85-0.59,1.45,1.45,0,0,1-.31-1,1.71,1.71,0,0,1,.54-1.29,1.88,1.88,0,0,1,1.33-.51A1.81,1.81,0,0,1,215.13,281.15Z"/><path class="cls-4" d="M222.22,283.46h-4.29a1.82,1.82,0,0,0,.48,1.17,1.46,1.46,0,0,0,1.09.43,1.42,1.42,0,0,0,.85-0.25,3.51,3.51,0,0,0,.76-0.91l1.17,0.65a4.72,4.72,0,0,1-.57.79,3,3,0,0,1-.65.54,2.62,2.62,0,0,1-.74.31,3.63,3.63,0,0,1-.87.1,2.82,2.82,0,0,1-2.15-.86,3.23,3.23,0,0,1-.81-2.3,3.32,3.32,0,0,1,.79-2.3,3,3,0,0,1,4.2,0,3.32,3.32,0,0,1,.76,2.32v0.33Zm-1.42-1.13a1.33,1.33,0,0,0-1.4-1.11,1.45,1.45,0,0,0-.47.08,1.39,1.39,0,0,0-.4.22,1.41,1.41,0,0,0-.31.35,1.6,1.6,0,0,0-.2.46h2.78Z"/><path class="cls-4" d="M225.12,275.73v10.39h-1.38V275.73h1.38Z"/><path class="cls-4" d="M228.25,275.73v10.39h-1.38V275.73h1.38Z"/><path class="cls-4" d="M234.43,280.13h1.39v6h-1.39V285.5a2.66,2.66,0,0,1-3.89-.1,3.34,3.34,0,0,1-.81-2.29,3.24,3.24,0,0,1,.81-2.25,2.6,2.6,0,0,1,2-.9,2.55,2.55,0,0,1,1.88.86v-0.7Zm-3.29,3a2.09,2.09,0,0,0,.46,1.4,1.51,1.51,0,0,0,1.19.55,1.59,1.59,0,0,0,1.24-.53,2.28,2.28,0,0,0,0-2.78,1.56,1.56,0,0,0-1.23-.54,1.53,1.53,0,0,0-1.19.54A2,2,0,0,0,231.14,283.11Z"/><path class="cls-4" d="M237.56,280.13H239v0.55a2.27,2.27,0,0,1,1.64-.72,2.06,2.06,0,0,1,1.63.66,2.69,2.69,0,0,1,.5,1.83v3.67h-1.39v-3.34a2.19,2.19,0,0,0-.25-1.22,1,1,0,0,0-.87-0.34,1.07,1.07,0,0,0-1,.45,3.13,3.13,0,0,0-.28,1.57v2.89h-1.39v-6Z"/><path class="cls-4" d="M248.89,275.73h1.39v10.39h-1.39V285.5a2.58,2.58,0,0,1-1.85.8,2.64,2.64,0,0,1-2-.9,3.34,3.34,0,0,1-.81-2.29,3.23,3.23,0,0,1,.81-2.24,2.59,2.59,0,0,1,3.89,0v-5.09Zm-3.29,7.38a2.09,2.09,0,0,0,.46,1.4,1.51,1.51,0,0,0,1.19.55,1.59,1.59,0,0,0,1.24-.53,2.28,2.28,0,0,0,0-2.78,1.56,1.56,0,0,0-1.23-.54,1.53,1.53,0,0,0-1.19.54A2,2,0,0,0,245.6,283.11Z"/><rect class="cls-7" x="305.98" y="89.77" width="46.97" height="171.99"/><g class="cls-11"><line class="cls-9" x1="358.18" y1="299.78" x2="437.37" y2="220.58"/><line class="cls-9" x1="358.18" y1="308.18" x2="437.37" y2="228.98"/><line class="cls-9" x1="358.18" y1="291.38" x2="437.37" y2="212.18"/><line class="cls-9" x1="358.18" y1="282.98" x2="437.37" y2="203.78"/><line class="cls-9" x1="358.18" y1="274.58" x2="437.37" y2="195.38"/><line class="cls-9" x1="358.18" y1="266.18" x2="437.37" y2="186.98"/><line class="cls-9" x1="358.18" y1="257.78" x2="437.37" y2="178.58"/><line class="cls-9" x1="358.18" y1="249.38" x2="437.37" y2="170.18"/><line class="cls-9" x1="358.18" y1="240.98" x2="437.37" y2="161.78"/><line class="cls-9" x1="358.18" y1="232.58" x2="437.37" y2="153.38"/><line class="cls-9" x1="358.18" y1="224.18" x2="437.37" y2="144.98"/><line class="cls-9" x1="358.18" y1="215.78" x2="437.37" y2="136.58"/><line class="cls-9" x1="358.18" y1="207.38" x2="437.37" y2="128.18"/><line class="cls-9" x1="358.18" y1="198.98" x2="437.37" y2="119.78"/><line class="cls-9" x1="358.18" y1="190.58" x2="437.37" y2="111.38"/><line class="cls-9" x1="358.18" y1="182.18" x2="437.37" y2="102.98"/><line class="cls-9" x1="358.18" y1="173.78" x2="437.37" y2="94.58"/><line class="cls-9" x1="358.18" y1="165.38" x2="437.37" y2="86.18"/><line class="cls-9" x1="358.18" y1="156.98" x2="437.37" y2="77.78"/><line class="cls-9" x1="358.18" y1="148.58" x2="437.37" y2="69.38"/><line class="cls-9" x1="358.18" y1="140.18" x2="437.37" y2="60.98"/><line class="cls-9" x1="358.18" y1="131.78" x2="437.37" y2="52.58"/><line class="cls-9" x1="358.18" y1="123.38" x2="437.37" y2="44.18"/><line class="cls-9" x1="358.18" y1="114.98" x2="437.37" y2="35.78"/></g><path class="cls-4" d="M338.52,278l-1.16.69a2,2,0,0,0-.62-0.74,1.65,1.65,0,0,0-1.78.14,1.05,1.05,0,0,0-.39.84,1.32,1.32,0,0,0,1,1.12l0.95,0.39a4.06,4.06,0,0,1,1.69,1.14,2.57,2.57,0,0,1,.54,1.65,2.91,2.91,0,0,1-.87,2.17,3,3,0,0,1-2.19.86,2.91,2.91,0,0,1-2-.74,3.39,3.39,0,0,1-1-2.06l1.45-.32a2.46,2.46,0,0,0,.34,1.16,1.64,1.64,0,0,0,2.41.17,1.68,1.68,0,0,0,.37-1.64,1.27,1.27,0,0,0-.24-0.42,1.91,1.91,0,0,0-.42-0.36,4.26,4.26,0,0,0-.62-0.32l-0.92-.38A2.64,2.64,0,0,1,333.1,279a2.28,2.28,0,0,1,.82-1.79,3,3,0,0,1,2-.73A2.84,2.84,0,0,1,338.52,278Z"/><path class="cls-4" d="M344.9,280.39v1.84a3.35,3.35,0,0,0-.85-0.79,1.66,1.66,0,0,0-.87-0.22,1.71,1.71,0,0,0-1.3.55,1.92,1.92,0,0,0-.52,1.37,2,2,0,0,0,.5,1.38,1.68,1.68,0,0,0,1.29.54,1.75,1.75,0,0,0,.88-0.21,3.48,3.48,0,0,0,.87-0.81v1.83a3.63,3.63,0,0,1-1.69.44,3.23,3.23,0,0,1-2.33-.9,3,3,0,0,1-.93-2.25,3,3,0,0,1,.95-2.26,3.2,3.2,0,0,1,2.32-.92A3.48,3.48,0,0,1,344.9,280.39Z"/><path class="cls-4" d="M346.57,275.73H348v4.9a2.38,2.38,0,0,1,1.63-.66,2.1,2.1,0,0,1,1.62.66,2.67,2.67,0,0,1,.52,1.83v3.67h-1.38v-3.54a1.69,1.69,0,0,0-.26-1,1,1,0,0,0-.82-0.32,1.13,1.13,0,0,0-1,.45,3.08,3.08,0,0,0-.29,1.56v2.9h-1.38V275.73Z"/><path class="cls-4" d="M354.23,280.13l1.57,3.42,1.69-4,1.71,4,1.55-3.42h1.55l-3.14,6.44-1.67-3.86-1.69,3.86-3.13-6.44h1.56Z"/><path class="cls-4" d="M368.49,283.46H364.2a1.82,1.82,0,0,0,.48,1.17,1.46,1.46,0,0,0,1.09.43,1.42,1.42,0,0,0,.86-0.25,3.49,3.49,0,0,0,.76-0.91l1.17,0.65a4.64,4.64,0,0,1-.57.79,3,3,0,0,1-.65.54,2.58,2.58,0,0,1-.74.31,3.62,3.62,0,0,1-.87.1,2.82,2.82,0,0,1-2.15-.86,3.23,3.23,0,0,1-.81-2.3,3.32,3.32,0,0,1,.79-2.3,2.72,2.72,0,0,1,2.1-.87,2.69,2.69,0,0,1,2.09.84,3.31,3.31,0,0,1,.76,2.32v0.33Zm-1.42-1.13a1.33,1.33,0,0,0-1.4-1.11,1.46,1.46,0,0,0-.47.08,1.4,1.4,0,0,0-.4.22,1.41,1.41,0,0,0-.31.35,1.62,1.62,0,0,0-.2.46h2.78Z"/><path class="cls-4" d="M369.8,277.64a0.91,0.91,0,0,1,.9-0.89,0.87,0.87,0,0,1,.64.26,0.85,0.85,0,0,1,.26.63,0.87,0.87,0,0,1-.26.64,0.85,0.85,0,0,1-.63.26,0.87,0.87,0,0,1-.64-0.26A0.88,0.88,0,0,1,369.8,277.64Zm1.59,2.49v6H370v-6h1.38Z"/><path class="cls-4" d="M375.13,284.82h3.56v1.3h-6.3l3.88-4.7h-3.06v-1.29H379Z"/><g class="cls-12"><line class="cls-13" x1="216.8" y1="45.91" x2="255.61" y2="7.1"/><line class="cls-13" x1="216.8" y1="41.79" x2="255.61" y2="2.98"/><line class="cls-13" x1="216.8" y1="37.67" x2="255.61" y2="-1.13"/><line class="cls-13" x1="216.8" y1="33.56" x2="255.61" y2="-5.25"/><line class="cls-13" x1="216.8" y1="29.44" x2="255.61" y2="-9.36"/><line class="cls-13" x1="216.8" y1="25.33" x2="255.61" y2="-13.48"/></g><rect class="cls-2" x="217.14" y="24.84" width="10.29" height="10.29"/><path class="cls-4" d="M236.06,27.54h-2.32v1.6H236v0.94h-2.24v3.17h-1V26.6h3.32v0.94Z"/><path class="cls-4" d="M237,29.05h1v0.37A1.86,1.86,0,0,1,238.4,29a1.09,1.09,0,0,1,.5-0.11,1.57,1.57,0,0,1,.8.25l-0.44.89a0.93,0.93,0,0,0-.54-0.2q-0.79,0-.79,1.2v2.18h-1V29.05Z"/><path class="cls-4" d="M243.29,29.05h1v4.19h-1V32.81a1.86,1.86,0,0,1-2.73-.07,2.34,2.34,0,0,1-.56-1.6,2.27,2.27,0,0,1,.56-1.57,1.82,1.82,0,0,1,1.41-.63,1.78,1.78,0,0,1,1.31.6V29.05ZM241,31.14a1.46,1.46,0,0,0,.32,1,1.06,1.06,0,0,0,.84.38,1.11,1.11,0,0,0,.87-0.37,1.59,1.59,0,0,0,0-1.95,1.09,1.09,0,0,0-.86-0.37,1.07,1.07,0,0,0-.84.38A1.4,1.4,0,0,0,241,31.14Z"/><path class="cls-4" d="M246.45,29.05v2.41a0.85,0.85,0,1,0,1.65,0V29.05h1v2.43a2.72,2.72,0,0,1-.12.87,1.46,1.46,0,0,1-.42.59,2,2,0,0,1-2.49,0,1.49,1.49,0,0,1-.43-0.59,2.4,2.4,0,0,1-.12-0.87V29.05h1Z"/><path class="cls-4" d="M254.11,31.38h-3a1.27,1.27,0,0,0,.34.82,1,1,0,0,0,.76.3,1,1,0,0,0,.6-0.17,2.46,2.46,0,0,0,.53-0.64l0.82,0.46a3.29,3.29,0,0,1-.4.55,2.11,2.11,0,0,1-.45.38,1.83,1.83,0,0,1-.52.22,2.55,2.55,0,0,1-.61.07,2,2,0,0,1-1.51-.6,2.26,2.26,0,0,1-.57-1.61,2.33,2.33,0,0,1,.55-1.61,2.1,2.1,0,0,1,2.94,0,2.32,2.32,0,0,1,.53,1.62v0.23Zm-1-.79a0.93,0.93,0,0,0-1-.78,1,1,0,0,0-.33.05,1,1,0,0,0-.28.16,1,1,0,0,0-.22.24,1.13,1.13,0,0,0-.14.32h1.95Z"/><path class="cls-4" d="M255.17,29.05h1v0.39a1.59,1.59,0,0,1,1.15-.5,1.45,1.45,0,0,1,1.14.46,1.89,1.89,0,0,1,.35,1.28v2.57h-1V30.91a1.53,1.53,0,0,0-.17-0.86,0.69,0.69,0,0,0-.61-0.24,0.75,0.75,0,0,0-.68.32,2.19,2.19,0,0,0-.2,1.1v2h-1V29.05Z"/><rect class="cls-14" x="160.43" y="24.21" width="10.29" height="10.29"/><path class="cls-4" d="M175.8,32.78l1.4-7.15,2.28,5.17,2.36-5.17,1.26,7.15h-1l-0.64-4-2,4.32-1.91-4.32-0.71,4h-1Z"/><path class="cls-4" d="M187.42,28.58h1v4.19h-1V32.34a1.86,1.86,0,0,1-2.73-.07,2.34,2.34,0,0,1-.56-1.6,2.27,2.27,0,0,1,.56-1.57,1.82,1.82,0,0,1,1.41-.63,1.78,1.78,0,0,1,1.31.6V28.58Zm-2.55-1.34a0.57,0.57,0,0,1,.18-0.43,0.61,0.61,0,0,1,.87,0,0.58,0.58,0,0,1,.18.43,0.6,0.6,0,0,1-.18.44,0.62,0.62,0,0,1-.43.18,0.6,0.6,0,0,1-.44-0.18A0.62,0.62,0,0,1,184.88,27.25Zm0.25,3.42a1.46,1.46,0,0,0,.32,1,1.06,1.06,0,0,0,.84.38,1.11,1.11,0,0,0,.87-0.37,1.59,1.59,0,0,0,0-1.95,1.09,1.09,0,0,0-.86-0.37,1.07,1.07,0,0,0-.84.38A1.4,1.4,0,0,0,185.12,30.67Zm1.55-3.42a0.57,0.57,0,0,1,.18-0.43,0.6,0.6,0,0,1,.43-0.18,0.58,0.58,0,0,1,.43.18,0.58,0.58,0,0,1,.18.43,0.6,0.6,0,0,1-.18.44,0.62,0.62,0,0,1-.43.18A0.62,0.62,0,0,1,186.68,27.25Z"/><path class="cls-4" d="M189.62,28.58h1V29a1.59,1.59,0,0,1,1.15-.5,1.45,1.45,0,0,1,1.14.46,1.89,1.89,0,0,1,.35,1.28v2.57h-1V30.44a1.53,1.53,0,0,0-.17-0.86,0.69,0.69,0,0,0-.61-0.24,0.75,0.75,0,0,0-.68.32,2.19,2.19,0,0,0-.2,1.1v2h-1V28.58Z"/><path class="cls-4" d="M194.45,28.58h1V29a1.59,1.59,0,0,1,1.15-.5,1.45,1.45,0,0,1,1.14.46,1.89,1.89,0,0,1,.35,1.28v2.57h-1V30.44a1.53,1.53,0,0,0-.17-0.86,0.69,0.69,0,0,0-.61-0.24,0.75,0.75,0,0,0-.68.32,2.19,2.19,0,0,0-.2,1.1v2h-1V28.58Z"/><path class="cls-4" d="M203.11,30.91h-3a1.27,1.27,0,0,0,.34.82,1,1,0,0,0,.76.3,1,1,0,0,0,.6-0.17,2.46,2.46,0,0,0,.53-0.64l0.82,0.46a3.29,3.29,0,0,1-.4.55,2.11,2.11,0,0,1-.45.38,1.83,1.83,0,0,1-.52.22,2.55,2.55,0,0,1-.61.07,2,2,0,0,1-1.51-.6,2.26,2.26,0,0,1-.57-1.61,2.33,2.33,0,0,1,.55-1.61,2.1,2.1,0,0,1,2.94,0,2.32,2.32,0,0,1,.53,1.62v0.23Zm-1-.79a0.93,0.93,0,0,0-1-.78,1,1,0,0,0-.33.05,1,1,0,0,0-.28.16,1,1,0,0,0-.22.24,1.13,1.13,0,0,0-.14.32h1.95Z"/><path class="cls-4" d="M204.17,28.58h1V29a1.86,1.86,0,0,1,.47-0.38,1.09,1.09,0,0,1,.5-0.11,1.57,1.57,0,0,1,.8.25l-0.44.89a0.93,0.93,0,0,0-.54-0.2q-0.79,0-.79,1.2v2.18h-1V28.58Z"/><path class="cls-4" d="M108.64,12.21V0.9H111a8.64,8.64,0,0,1,2.7.34,5,5,0,0,1,1.93,1.12,5.41,5.41,0,0,1,1.75,4.2,5.36,5.36,0,0,1-1.82,4.22,5.33,5.33,0,0,1-1.92,1.12,8.74,8.74,0,0,1-2.66.31h-2.34Zm1.71-1.6h0.77a6.42,6.42,0,0,0,1.91-.24,3.88,3.88,0,0,0,2.64-3.81,3.93,3.93,0,0,0-1.25-3,4.72,4.72,0,0,0-3.3-1h-0.77v8.1Z"/><path class="cls-4" d="M120.86,5.08V9.17q0,1.77,1.4,1.77t1.4-1.77V5.08h1.65V9.21a4.62,4.62,0,0,1-.21,1.48,2.5,2.5,0,0,1-.71,1,3.46,3.46,0,0,1-4.24,0,2.52,2.52,0,0,1-.73-1,4.08,4.08,0,0,1-.21-1.48V5.08h1.65Z"/><path class="cls-4" d="M127.39,5.08H129V5.71a3.15,3.15,0,0,1,.81-0.65,1.84,1.84,0,0,1,.85-0.18,2.66,2.66,0,0,1,1.36.43L131.3,6.81a1.58,1.58,0,0,0-.92-0.34q-1.35,0-1.35,2v3.7h-1.65V5.08Z"/><path class="cls-4" d="M138.42,5.38V7.57a4,4,0,0,0-1-.94,2,2,0,0,0-1-.26,2,2,0,0,0-1.55.65,2.29,2.29,0,0,0-.62,1.63,2.34,2.34,0,0,0,.59,1.65,2,2,0,0,0,1.53.64,2.09,2.09,0,0,0,1-.26,4.15,4.15,0,0,0,1-1v2.18a4.34,4.34,0,0,1-2,.52,3.84,3.84,0,0,1-2.77-1.07,3.57,3.57,0,0,1-1.11-2.67A3.62,3.62,0,0,1,133.66,6a3.82,3.82,0,0,1,2.77-1.1A4.14,4.14,0,0,1,138.42,5.38Z"/><path class="cls-4" d="M140.4-.16H142V5.67A2.84,2.84,0,0,1,144,4.88a2.51,2.51,0,0,1,1.93.78,3.19,3.19,0,0,1,.62,2.17v4.37h-1.65V8a2,2,0,0,0-.3-1.24,1.17,1.17,0,0,0-1-.38,1.35,1.35,0,0,0-1.22.53A3.67,3.67,0,0,0,142,8.76v3.45H140.4V-0.16Z"/><path class="cls-4" d="M152.77,6.29L151.41,7a0.94,0.94,0,0,0-.8-0.65,0.55,0.55,0,0,0-.39.15,0.5,0.5,0,0,0-.16.38,1.24,1.24,0,0,0,1,.81,5.69,5.69,0,0,1,1.77,1,1.78,1.78,0,0,1,.45,1.28,2.24,2.24,0,0,1-.76,1.73,2.73,2.73,0,0,1-4.33-1.09l1.41-.65a3,3,0,0,0,.45.65,1,1,0,0,0,.72.28,0.71,0.71,0,0,0,.84-0.76,1,1,0,0,0-.64-0.82l-0.5-.24-0.51-.24a3.09,3.09,0,0,1-1-.7A1.73,1.73,0,0,1,148.52,7a2,2,0,0,1,.64-1.54,2.24,2.24,0,0,1,1.58-.61A2.16,2.16,0,0,1,152.77,6.29Z"/><path class="cls-4" d="M161.21,9H156.1a2.17,2.17,0,0,0,.57,1.4,1.74,1.74,0,0,0,1.3.51,1.68,1.68,0,0,0,1-.29,4.15,4.15,0,0,0,.9-1.08l1.39,0.78a5.6,5.6,0,0,1-.68.94,3.62,3.62,0,0,1-.77.64,3.07,3.07,0,0,1-.89.37,4.31,4.31,0,0,1-1,.12,3.36,3.36,0,0,1-2.56-1,3.85,3.85,0,0,1-1-2.74,4,4,0,0,1,.94-2.74,3.57,3.57,0,0,1,5,0,4,4,0,0,1,.91,2.76V9Zm-1.69-1.35a1.58,1.58,0,0,0-1.66-1.32,1.69,1.69,0,0,0-.56.09,1.59,1.59,0,0,0-.48.26,1.67,1.67,0,0,0-.37.41,1.94,1.94,0,0,0-.23.55h3.31Z"/><path class="cls-4" d="M164.84,6.61v5.6H163.2V6.61h-0.7V5.08h0.7V2.46h1.65V5.08h1.28V6.61h-1.28Z"/><path class="cls-4" d="M169.61,10.66h4.24v1.55h-7.51L171,6.61h-3.64V5.08h6.9Z"/><path class="cls-4" d="M177,5.08V9.17q0,1.77,1.4,1.77t1.4-1.77V5.08h1.65V9.21a4.62,4.62,0,0,1-.21,1.48,2.5,2.5,0,0,1-.71,1,3.46,3.46,0,0,1-4.24,0,2.52,2.52,0,0,1-.73-1,4.08,4.08,0,0,1-.21-1.48V5.08H177Z"/><path class="cls-4" d="M183.57,5.08h1.66V5.73a2.7,2.7,0,0,1,1.95-.86,2.46,2.46,0,0,1,1.94.78,3.21,3.21,0,0,1,.6,2.17v4.37h-1.66v-4a2.6,2.6,0,0,0-.29-1.46,1.18,1.18,0,0,0-1-.41,1.27,1.27,0,0,0-1.17.54,3.72,3.72,0,0,0-.34,1.87v3.44h-1.66V5.08Z"/><path class="cls-4" d="M198.7,12q0,0.5,0,.89a6.06,6.06,0,0,1-.09.68,3,3,0,0,1-.69,1.38,3.34,3.34,0,0,1-2.66,1.11,3.54,3.54,0,0,1-2.35-.77,3.16,3.16,0,0,1-1.1-2.19h1.66a1.86,1.86,0,0,0,.31.81,1.77,1.77,0,0,0,1.49.67q1.81,0,1.81-2.21v-1a3.07,3.07,0,0,1-2.26,1,3,3,0,0,1-2.39-1.05,3.91,3.91,0,0,1-.94-2.67A4.11,4.11,0,0,1,192.33,6a3,3,0,0,1,2.48-1.16,2.87,2.87,0,0,1,2.24,1V5.08h1.65v7Zm-1.58-3.38A2.4,2.4,0,0,0,196.56,7a1.84,1.84,0,0,0-1.44-.64,1.77,1.77,0,0,0-1.48.69,2.52,2.52,0,0,0-.49,1.61,2.49,2.49,0,0,0,.49,1.59,1.78,1.78,0,0,0,1.48.68,1.81,1.81,0,0,0,1.49-.69A2.44,2.44,0,0,0,197.11,8.66Z"/><path class="cls-4" d="M204.92,6.29L203.56,7a0.94,0.94,0,0,0-.8-0.65,0.55,0.55,0,0,0-.39.15,0.5,0.5,0,0,0-.16.38,1.24,1.24,0,0,0,1,.81,5.69,5.69,0,0,1,1.77,1,1.78,1.78,0,0,1,.45,1.28,2.24,2.24,0,0,1-.76,1.73,2.73,2.73,0,0,1-4.33-1.09L201.7,10a3,3,0,0,0,.45.65,1,1,0,0,0,.72.28,0.71,0.71,0,0,0,.84-0.76,1,1,0,0,0-.64-0.82l-0.5-.24L202,8.88a3.09,3.09,0,0,1-1-.7A1.73,1.73,0,0,1,200.66,7a2,2,0,0,1,.64-1.54,2.24,2.24,0,0,1,1.58-.61A2.16,2.16,0,0,1,204.92,6.29Z"/><path class="cls-4" d="M206.61,2.11A1.07,1.07,0,0,1,207.68,1a1,1,0,0,1,.76.31,1,1,0,0,1,.32.75,1,1,0,0,1-.32.76,1,1,0,0,1-.75.32,1,1,0,0,1-.76-0.32A1,1,0,0,1,206.61,2.11Zm1.9,3v7.13h-1.65V5.08h1.65Z"/><path class="cls-4" d="M210.6,5.08h1.66V5.73a2.7,2.7,0,0,1,1.95-.86,2.46,2.46,0,0,1,1.94.78,3.21,3.21,0,0,1,.6,2.17v4.37h-1.66v-4a2.6,2.6,0,0,0-.29-1.46,1.18,1.18,0,0,0-1-.41,1.27,1.27,0,0,0-1.17.54,3.72,3.72,0,0,0-.34,1.87v3.44H210.6V5.08Z"/><path class="cls-4" d="M218.57,2.11A1.07,1.07,0,0,1,219.64,1a1,1,0,0,1,.76.31,1,1,0,0,1,.32.75,1,1,0,0,1-.32.76,1,1,0,0,1-.75.32,1,1,0,0,1-.76-0.32A1,1,0,0,1,218.57,2.11Zm1.9,3v7.13h-1.65V5.08h1.65Z"/><path class="cls-4" d="M224.26,6.61v5.6h-1.65V6.61h-0.7V5.08h0.7V2.46h1.65V5.08h1.28V6.61h-1.28Z"/><path class="cls-4" d="M226.41,2.11A1.07,1.07,0,0,1,227.48,1a1,1,0,0,1,.76.31,1,1,0,0,1,.32.75,1,1,0,0,1-.32.76,1,1,0,0,1-.75.32,1,1,0,0,1-.76-0.32A1,1,0,0,1,226.41,2.11Zm1.9,3v7.13h-1.65V5.08h1.65Z"/><path class="cls-4" d="M235.65,5.08h1.66v7.13h-1.66V11.46a3.17,3.17,0,0,1-4.64-.12,4,4,0,0,1-1-2.72,3.85,3.85,0,0,1,1-2.67,3.09,3.09,0,0,1,2.4-1.07,3,3,0,0,1,2.23,1V5.08Zm-3.91,3.54a2.48,2.48,0,0,0,.55,1.67,1.8,1.8,0,0,0,1.42.65,1.89,1.89,0,0,0,1.48-.63,2.44,2.44,0,0,0,.56-1.66A2.44,2.44,0,0,0,235.19,7a1.86,1.86,0,0,0-1.46-.64,1.82,1.82,0,0,0-1.42.64A2.38,2.38,0,0,0,231.74,8.62Z"/><path class="cls-4" d="M241.09,6.61v5.6h-1.65V6.61h-0.7V5.08h0.7V2.46h1.65V5.08h1.28V6.61h-1.28Z"/><path class="cls-4" d="M243.24,2.11A1.07,1.07,0,0,1,244.31,1a1,1,0,0,1,.76.31,1,1,0,0,1,.32.75,1,1,0,0,1-.32.76,1,1,0,0,1-.75.32,1,1,0,0,1-.76-0.32A1,1,0,0,1,243.24,2.11Zm1.9,3v7.13h-1.65V5.08h1.65Z"/><path class="cls-4" d="M248.11,5.08l1.85,4,1.84-4h1.85l-3.71,7.62-3.68-7.62h1.85Z"/><path class="cls-4" d="M261,9h-5.11a2.17,2.17,0,0,0,.57,1.4,1.74,1.74,0,0,0,1.3.51,1.68,1.68,0,0,0,1-.29,4.15,4.15,0,0,0,.9-1.08l1.39,0.78a5.6,5.6,0,0,1-.68.94,3.62,3.62,0,0,1-.77.64,3.07,3.07,0,0,1-.89.37,4.31,4.31,0,0,1-1,.12,3.36,3.36,0,0,1-2.56-1,3.85,3.85,0,0,1-1-2.74,4,4,0,0,1,.94-2.74,3.57,3.57,0,0,1,5,0A4,4,0,0,1,261,8.64V9Zm-1.69-1.35a1.58,1.58,0,0,0-1.66-1.32,1.69,1.69,0,0,0-.56.09,1.59,1.59,0,0,0-.48.26,1.67,1.67,0,0,0-.37.41,1.94,1.94,0,0,0-.23.55h3.31Z"/><path class="cls-4" d="M269.35-.29l1.52,0.59a18.77,18.77,0,0,0-1.12,3.53,16.6,16.6,0,0,0-.24,1.72q-0.08.91-.08,2t0.08,2a16.53,16.53,0,0,0,.24,1.72,18.14,18.14,0,0,0,1.12,3.52l-1.52.59a17.89,17.89,0,0,1-1.6-7.81A17.9,17.9,0,0,1,269.35-.29Z"/><path class="cls-4" d="M275.64,10.61h4.21v1.6h-7.6l3.93-4.75q0.58-.71,1-1.23a9.35,9.35,0,0,0,.6-0.87,2.46,2.46,0,0,0,.42-1.24,1.76,1.76,0,0,0-.56-1.33,1.91,1.91,0,0,0-1.38-.53q-1.71,0-2,2h-1.7Q273,0.71,276.19.71a3.65,3.65,0,0,1,2.59,1,3.19,3.19,0,0,1,1.05,2.43,3.69,3.69,0,0,1-.49,1.81,8.88,8.88,0,0,1-.73,1.1q-0.48.63-1.21,1.5Z"/><path class="cls-4" d="M281.78,6.48A6.82,6.82,0,0,1,283,2.17a3.29,3.29,0,0,1,5.46,0,7,7,0,0,1,1.26,4.39,6.94,6.94,0,0,1-1.26,4.38,3.36,3.36,0,0,1-2.72,1.46A3.39,3.39,0,0,1,283,10.93,7.06,7.06,0,0,1,281.78,6.48Zm1.69,0a6.71,6.71,0,0,0,.65,3.13,1.74,1.74,0,0,0,3.32,0,6.4,6.4,0,0,0,.66-3.07,6.45,6.45,0,0,0-.66-3.08,1.74,1.74,0,0,0-3.31,0A6.26,6.26,0,0,0,283.47,6.49Z"/><path class="cls-4" d="M293.31,2.5h-2l0.94-1.6H295V12.21h-1.71V2.5Z"/><path class="cls-4" d="M303.07,0.5l1.25,0.94-2.7,3.68,0.37,0h0.24a3.18,3.18,0,0,1,2.38,1.05,3.49,3.49,0,0,1,1,2.5,3.64,3.64,0,0,1-1.11,2.67,3.62,3.62,0,0,1-2.66,1.11,3.81,3.81,0,0,1-2.7-1.09A3.47,3.47,0,0,1,298,8.71a4.87,4.87,0,0,1,1.11-2.84ZM304,8.73a2.14,2.14,0,1,0-2.13,2.11A2.14,2.14,0,0,0,304,8.73Z"/><path class="cls-4" d="M309,15.34l-1.52-.59a18.14,18.14,0,0,0,1.12-3.52,18.61,18.61,0,0,0,.33-3.71,18.66,18.66,0,0,0-.33-3.7A18.77,18.77,0,0,0,307.46.3L309-.29a18,18,0,0,1,1.6,7.82A18,18,0,0,1,309,15.34Z"/><g class="cls-15"><line class="cls-9" x1="231.59" y1="441.46" x2="429.58" y2="243.47"/><line class="cls-9" x1="231.59" y1="449.86" x2="429.58" y2="251.87"/><line class="cls-9" x1="231.59" y1="458.26" x2="429.58" y2="260.27"/><line class="cls-9" x1="231.59" y1="466.66" x2="429.58" y2="268.67"/><line class="cls-9" x1="231.59" y1="475.06" x2="429.58" y2="277.07"/><line class="cls-9" x1="231.59" y1="483.46" x2="429.58" y2="285.47"/><line class="cls-9" x1="231.59" y1="491.86" x2="429.58" y2="293.87"/><line class="cls-9" x1="231.59" y1="500.26" x2="429.58" y2="302.27"/><line class="cls-9" x1="231.59" y1="508.66" x2="429.58" y2="310.67"/></g></svg>