<svg id="Charts" xmlns="http://www.w3.org/2000/svg" xmlns:xlink="http://www.w3.org/1999/xlink" viewBox="0 0 516.21 417.1"><defs><style>.cls-1,.cls-10,.cls-11,.cls-14,.cls-2,.cls-6{fill:none;}.cls-10,.cls-11,.cls-12,.cls-14,.cls-2,.cls-4,.cls-6{stroke:#fff;stroke-miterlimit:10;}.cls-12,.cls-2{stroke-width:0.94px;}.cls-12,.cls-3,.cls-4{fill:#fff;}.cls-4{stroke-width:1.85px;}.cls-11,.cls-12,.cls-4,.cls-9{opacity:0.4;}.cls-5{clip-path:url(#clip-path);}.cls-6{stroke-width:1.48px;}.cls-7{clip-path:url(#clip-path-2);}.cls-8{clip-path:url(#clip-path-3);}.cls-13{clip-path:url(#clip-path-4);}.cls-14{stroke-width:0.75px;}</style><clipPath id="clip-path"><rect class="cls-1" x="124.93" y="206.27" width="61.92" height="147.91"/></clipPath><clipPath id="clip-path-2"><rect class="cls-1" x="280.37" y="167.68" width="61.92" height="186.5"/></clipPath><clipPath id="clip-path-3"><rect class="cls-1" x="435.82" y="186.97" width="61.92" height="167.21"/></clipPath><clipPath id="clip-path-4"><rect class="cls-2" x="269" y="51.5" width="14.11" height="14.11"/></clipPath></defs><title>Charts_</title><path class="cls-3" d="M5.42,315.73H3.07L4.2,313.8H7.47v13.57h-2V315.73Z"/><path class="cls-3" d="M11.33,320.5a8.18,8.18,0,0,1,1.51-5.18,3.95,3.95,0,0,1,6.56,0,9.91,9.91,0,0,1,0,10.52,4,4,0,0,1-3.27,1.75,4.07,4.07,0,0,1-3.29-1.75A8.47,8.47,0,0,1,11.33,320.5Zm2,0a8,8,0,0,0,.78,3.75,2.29,2.29,0,0,0,2,1.47,2.3,2.3,0,0,0,2-1.47,9,9,0,0,0,0-7.37,2.3,2.3,0,0,0-2-1.46,2.3,2.3,0,0,0-2,1.46A7.5,7.5,0,0,0,13.36,320.51Z"/><path class="cls-3" d="M4.51,293.29H9.56v1.92H0.45l4.71-5.7q0.69-.85,1.17-1.48A11.4,11.4,0,0,0,7,287a2.94,2.94,0,0,0,.5-1.49,2.12,2.12,0,0,0-.67-1.59,2.29,2.29,0,0,0-1.65-.64q-2.06,0-2.36,2.43h-2q0.49-4.29,4.33-4.29a4.38,4.38,0,0,1,3.11,1.18,3.83,3.83,0,0,1,1.27,2.92,4.43,4.43,0,0,1-.59,2.17A10.57,10.57,0,0,1,8.07,289q-0.58.76-1.45,1.8Z"/><path class="cls-3" d="M11.87,288.34a8.18,8.18,0,0,1,1.51-5.18,3.95,3.95,0,0,1,6.56,0,9.91,9.91,0,0,1,0,10.52,4,4,0,0,1-3.27,1.75,4.07,4.07,0,0,1-3.29-1.75A8.47,8.47,0,0,1,11.87,288.34Zm2,0a8,8,0,0,0,.78,3.75,2.29,2.29,0,0,0,2,1.47,2.3,2.3,0,0,0,2-1.47,9,9,0,0,0,0-7.37,2.3,2.3,0,0,0-2-1.46,2.3,2.3,0,0,0-2,1.46A7.5,7.5,0,0,0,13.9,288.35Z"/><path class="cls-3" d="M4.66,256.76V255a3.57,3.57,0,0,0,1.75-.29,1.79,1.79,0,0,0,.8-1.63,1.85,1.85,0,0,0-.58-1.42,2,2,0,0,0-1.49-.55,1.92,1.92,0,0,0-1.32.41A2.74,2.74,0,0,0,3.16,253h-2a4.71,4.71,0,0,1,1.3-2.81,4,4,0,0,1,2.75-.89,4.08,4.08,0,0,1,2.91,1.05A3.52,3.52,0,0,1,9.2,253a3.34,3.34,0,0,1-1.48,2.9,3.45,3.45,0,0,1,1.7,3.23,3.92,3.92,0,0,1-1.23,3A4.43,4.43,0,0,1,5,263.28a4.05,4.05,0,0,1-3.64-1.8,4.68,4.68,0,0,1-.62-2.09h2a2.4,2.4,0,0,0,.77,1.51,2.36,2.36,0,0,0,1.59.52,2.21,2.21,0,0,0,1.64-.66A2.37,2.37,0,0,0,7.4,259a2.09,2.09,0,0,0-1-2A3.61,3.61,0,0,0,4.66,256.76Z"/><path class="cls-3" d="M11.87,256.19A8.18,8.18,0,0,1,13.39,251a3.95,3.95,0,0,1,6.56,0,9.91,9.91,0,0,1,0,10.52,4,4,0,0,1-3.27,1.75,4.07,4.07,0,0,1-3.29-1.75A8.47,8.47,0,0,1,11.87,256.19Zm2,0a8,8,0,0,0,.78,3.75,2.29,2.29,0,0,0,2,1.47,2.3,2.3,0,0,0,2-1.47,9,9,0,0,0,0-7.37,2.3,2.3,0,0,0-2-1.46,2.3,2.3,0,0,0-2,1.46A7.5,7.5,0,0,0,13.9,256.2Z"/><path class="cls-3" d="M8.88,227.12h1.44V229H8.88v1.92h-2V229H0.17l8.71-12.66v10.79Zm-2,0v-4.54L3.7,227.12H6.83Z"/><path class="cls-3" d="M11.87,224a8.18,8.18,0,0,1,1.51-5.18,3.95,3.95,0,0,1,6.56,0,9.91,9.91,0,0,1,0,10.52,4,4,0,0,1-3.27,1.75,4.07,4.07,0,0,1-3.29-1.75A8.47,8.47,0,0,1,11.87,224Zm2,0a8,8,0,0,0,.78,3.75,2.29,2.29,0,0,0,2,1.47,2.3,2.3,0,0,0,2-1.47,9,9,0,0,0,0-7.37,2.3,2.3,0,0,0-2-1.46,2.3,2.3,0,0,0-2,1.46A7.5,7.5,0,0,0,13.9,224Z"/><path class="cls-3" d="M9.47,187.11H5.28l-0.67,2.24,0.29,0H5.15a4.27,4.27,0,0,1,3.24,1.34,5.11,5.11,0,0,1-.17,6.93A5,5,0,0,1,4.6,199a4.78,4.78,0,0,1-4.25-2.53l1.55-1.31a4.79,4.79,0,0,0,1.29,1.54,2.78,2.78,0,0,0,1.59.44,2.76,2.76,0,0,0,2.07-.86,3,3,0,0,0,.83-2.15A2.88,2.88,0,0,0,6.85,192a2.76,2.76,0,0,0-2.07-.85,3,3,0,0,0-2.38,1.2H1.72l2.14-7.14H9.47v1.92Z"/><path class="cls-3" d="M11.87,191.88a8.18,8.18,0,0,1,1.51-5.18,3.95,3.95,0,0,1,6.56,0,9.91,9.91,0,0,1,0,10.52A4,4,0,0,1,16.67,199a4.07,4.07,0,0,1-3.29-1.75A8.47,8.47,0,0,1,11.87,191.88Zm2,0a8,8,0,0,0,.78,3.75,2.29,2.29,0,0,0,2,1.47,2.3,2.3,0,0,0,2-1.47,9,9,0,0,0,0-7.37,2.3,2.3,0,0,0-2-1.46,2.3,2.3,0,0,0-2,1.46A7.5,7.5,0,0,0,13.9,191.89Z"/><path class="cls-3" d="M7.07,152.55l1.5,1.13-3.24,4.41L5.77,158l0.29,0a3.81,3.81,0,0,1,2.86,1.27,4.19,4.19,0,0,1,1.2,3,4.36,4.36,0,0,1-1.34,3.2,4.35,4.35,0,0,1-3.19,1.33,4.57,4.57,0,0,1-3.23-1.31A4.16,4.16,0,0,1,1,162.4,5.84,5.84,0,0,1,2.32,159Zm1.05,9.87a2.57,2.57,0,0,0-2.57-2.58,2.56,2.56,0,1,0,0,5.12,2.46,2.46,0,0,0,1.8-.75A2.44,2.44,0,0,0,8.12,162.42Z"/><path class="cls-3" d="M11.87,159.72a8.18,8.18,0,0,1,1.51-5.18,3.95,3.95,0,0,1,6.56,0,9.91,9.91,0,0,1,0,10.52,4,4,0,0,1-3.27,1.75,4.07,4.07,0,0,1-3.29-1.75A8.47,8.47,0,0,1,11.87,159.72Zm2,0a8,8,0,0,0,.78,3.75,2.29,2.29,0,0,0,2,1.47,2.3,2.3,0,0,0,2-1.47,9,9,0,0,0,0-7.37,2.3,2.3,0,0,0-2-1.46,2.3,2.3,0,0,0-2,1.46A7.5,7.5,0,0,0,13.9,159.73Z"/><path class="cls-3" d="M7.63,122.8H0.93v-1.92H11l-8.56,14-1.63-1Z"/><path class="cls-3" d="M11.87,127.57a8.18,8.18,0,0,1,1.51-5.18,3.95,3.95,0,0,1,6.56,0,9.91,9.91,0,0,1,0,10.52,4,4,0,0,1-3.27,1.75,4.07,4.07,0,0,1-3.29-1.75A8.47,8.47,0,0,1,11.87,127.57Zm2,0a8,8,0,0,0,.78,3.75,2.29,2.29,0,0,0,2,1.47,2.3,2.3,0,0,0,2-1.47,9,9,0,0,0,0-7.37,2.3,2.3,0,0,0-2-1.46,2.3,2.3,0,0,0-2,1.46A7.5,7.5,0,0,0,13.9,127.58Z"/><path class="cls-3" d="M3.13,95.23a3.34,3.34,0,0,1-1.49-2.87A3.7,3.7,0,0,1,2.77,89.6a3.92,3.92,0,0,1,2.84-1.11A3.85,3.85,0,0,1,8.42,89.6a3.71,3.71,0,0,1,1.13,2.77,3.41,3.41,0,0,1-1.49,2.86A3.15,3.15,0,0,1,9.34,96.5a3.75,3.75,0,0,1,.48,1.9,4,4,0,0,1-1.18,3,4.14,4.14,0,0,1-3,1.15,4.33,4.33,0,0,1-3.11-1.16,3.84,3.84,0,0,1-1.23-2.92A3.27,3.27,0,0,1,3.13,95.23Zm0.18,3.13A2.25,2.25,0,0,0,4,100a2.16,2.16,0,0,0,1.6.67A2.16,2.16,0,0,0,7.15,100a2.27,2.27,0,0,0,0-3.2,2.16,2.16,0,0,0-1.59-.66A2.18,2.18,0,0,0,4,96.78,2.15,2.15,0,0,0,3.31,98.36Zm0.25-6a2,2,0,0,0,2,2.06,2,2,0,1,0-1.43-3.46A1.92,1.92,0,0,0,3.56,92.35Z"/><path class="cls-3" d="M11.87,95.41a8.18,8.18,0,0,1,1.51-5.18,3.95,3.95,0,0,1,6.56,0,9.91,9.91,0,0,1,0,10.52,4,4,0,0,1-3.27,1.75,4.07,4.07,0,0,1-3.29-1.75A8.47,8.47,0,0,1,11.87,95.41Zm2,0a8,8,0,0,0,.78,3.75,2.29,2.29,0,0,0,2,1.47,2.3,2.3,0,0,0,2-1.47,9,9,0,0,0,0-7.37,2.3,2.3,0,0,0-2-1.46,2.3,2.3,0,0,0-2,1.46A7.5,7.5,0,0,0,13.9,95.42Z"/><path class="cls-3" d="M78.37,384.67V371.1h2a8.93,8.93,0,0,1,2.17.21A3.26,3.26,0,0,1,84,372a3.69,3.69,0,0,1,.91,1.29,3.91,3.91,0,0,1,.34,1.58,3.21,3.21,0,0,1-1.12,2.47,3.28,3.28,0,0,1,1.71,1.29,3.82,3.82,0,0,1-.49,4.82,3.69,3.69,0,0,1-1.52.94,8.84,8.84,0,0,1-2.31.25h-3.1Zm2-7.74h0.64a2.37,2.37,0,0,0,1.67-.5,2,2,0,0,0,.53-1.49,1.87,1.87,0,0,0-.54-1.46,2.28,2.28,0,0,0-1.58-.5H80.42v3.95Zm0,5.82h1.27a3.14,3.14,0,0,0,2-.54,1.88,1.88,0,0,0,.69-1.49,1.91,1.91,0,0,0-.66-1.48,3.42,3.42,0,0,0-2.29-.59h-1v4.1Z"/><path class="cls-3" d="M94.94,376.11h2v8.56h-2v-0.9a3.8,3.8,0,0,1-5.56-.14,4.77,4.77,0,0,1-1.15-3.27,4.63,4.63,0,0,1,1.15-3.21,3.71,3.71,0,0,1,2.88-1.28,3.64,3.64,0,0,1,2.68,1.23v-1Zm-4.69,4.25a3,3,0,0,0,.66,2,2.16,2.16,0,0,0,1.71.78,2.27,2.27,0,0,0,1.78-.76,3.25,3.25,0,0,0,0-4,2.24,2.24,0,0,0-1.76-.76,2.19,2.19,0,0,0-1.71.77A2.85,2.85,0,0,0,90.25,380.36Z"/><path class="cls-3" d="M104.4,377.57l-1.63.87a1.13,1.13,0,0,0-1-.78,0.66,0.66,0,0,0-.47.18,0.6,0.6,0,0,0-.19.46,1.49,1.49,0,0,0,1.14,1,6.83,6.83,0,0,1,2.12,1.25,2.13,2.13,0,0,1,.54,1.54,2.69,2.69,0,0,1-.91,2.07,3.28,3.28,0,0,1-5.19-1.31l1.69-.78a3.67,3.67,0,0,0,.54.78,1.22,1.22,0,0,0,.86.33,0.85,0.85,0,0,0,1-.91,1.25,1.25,0,0,0-.77-1l-0.6-.29-0.61-.29a3.71,3.71,0,0,1-1.21-.84,2.08,2.08,0,0,1-.45-1.38,2.44,2.44,0,0,1,.76-1.85,2.68,2.68,0,0,1,1.9-.73A2.59,2.59,0,0,1,104.4,377.57Z"/><path class="cls-3" d="M114.53,380.85h-6.13a2.6,2.6,0,0,0,.69,1.68,2.09,2.09,0,0,0,1.56.62,2,2,0,0,0,1.22-.35,5,5,0,0,0,1.08-1.3l1.67,0.93a6.65,6.65,0,0,1-.82,1.13,4.38,4.38,0,0,1-.92.77,3.73,3.73,0,0,1-1.06.44,5.18,5.18,0,0,1-1.24.14,4,4,0,0,1-3.08-1.23,4.62,4.62,0,0,1-1.16-3.29,4.74,4.74,0,0,1,1.13-3.29,4.29,4.29,0,0,1,6,0,4.74,4.74,0,0,1,1.09,3.31v0.47Zm-2-1.62a1.89,1.89,0,0,0-2-1.58,2.07,2.07,0,0,0-.68.11,2,2,0,0,0-.58.32,2,2,0,0,0-.44.5,2.31,2.31,0,0,0-.28.66h4Z"/><path class="cls-3" d="M118.67,369.82v14.84h-2V369.82h2Z"/><path class="cls-3" d="M119.92,379.46h3.92v1.72h-3.92v-1.72Z"/><path class="cls-3" d="M133.14,373.11l-1.66,1a2.86,2.86,0,0,0-.89-1.05,2.07,2.07,0,0,0-1.13-.28,2.09,2.09,0,0,0-1.42.48,1.5,1.5,0,0,0-.56,1.2A1.89,1.89,0,0,0,129,376l1.35,0.55a5.77,5.77,0,0,1,2.42,1.63,3.68,3.68,0,0,1,.76,2.36,4.15,4.15,0,0,1-1.25,3.1,4.28,4.28,0,0,1-3.12,1.23,4.16,4.16,0,0,1-2.92-1.05,4.83,4.83,0,0,1-1.42-2.95l2.07-.46a3.53,3.53,0,0,0,.49,1.65,2.34,2.34,0,0,0,3.44.24,2.22,2.22,0,0,0,.63-1.62,2.28,2.28,0,0,0-.11-0.72,1.85,1.85,0,0,0-.34-0.61,2.74,2.74,0,0,0-.6-0.52,5.8,5.8,0,0,0-.88-0.46l-1.31-.54q-2.79-1.18-2.79-3.44a3.27,3.27,0,0,1,1.17-2.56,4.23,4.23,0,0,1,2.91-1A4.06,4.06,0,0,1,133.14,373.11Z"/><path class="cls-3" d="M137.93,378v6.71h-2V378h-0.84v-1.85H136V373h2v3.14h1.54V378h-1.54Z"/><path class="cls-3" d="M147.28,376.11h2v8.56h-2v-0.9a3.8,3.8,0,0,1-5.56-.14,4.77,4.77,0,0,1-1.15-3.27,4.63,4.63,0,0,1,1.15-3.21,3.71,3.71,0,0,1,2.88-1.28,3.64,3.64,0,0,1,2.68,1.23v-1Zm-4.69,4.25a3,3,0,0,0,.66,2,2.16,2.16,0,0,0,1.71.78,2.27,2.27,0,0,0,1.78-.76,3.25,3.25,0,0,0,0-4,2.24,2.24,0,0,0-1.76-.76,2.19,2.19,0,0,0-1.71.77A2.85,2.85,0,0,0,142.59,380.36Z"/><path class="cls-3" d="M158.08,369.82h2v14.84h-2v-0.9a3.69,3.69,0,0,1-2.65,1.14,3.77,3.77,0,0,1-2.92-1.28,4.77,4.77,0,0,1-1.15-3.27,4.61,4.61,0,0,1,1.15-3.2,3.7,3.7,0,0,1,5.56-.06v-7.28Zm-4.69,10.54a3,3,0,0,0,.66,2,2.16,2.16,0,0,0,1.71.78,2.27,2.27,0,0,0,1.78-.76,3.25,3.25,0,0,0,0-4,2.24,2.24,0,0,0-1.76-.76,2.19,2.19,0,0,0-1.71.77A2.85,2.85,0,0,0,153.38,380.36Z"/><path class="cls-3" d="M164.6,378v6.71h-2V378h-0.84v-1.85h0.84V373h2v3.14h1.54V378H164.6Z"/><rect class="cls-4" x="56.13" y="170.89" width="61.92" height="183.28"/><g class="cls-5"><line class="cls-6" x1="124.19" y1="407.49" x2="228.72" y2="302.95"/><line class="cls-6" x1="124.19" y1="396.4" x2="228.72" y2="291.86"/><line class="cls-6" x1="124.19" y1="385.31" x2="228.72" y2="280.77"/><line class="cls-6" x1="124.19" y1="374.22" x2="228.72" y2="269.69"/><line class="cls-6" x1="124.19" y1="363.14" x2="228.72" y2="258.6"/><line class="cls-6" x1="124.19" y1="352.05" x2="228.72" y2="247.51"/><line class="cls-6" x1="124.19" y1="340.96" x2="228.72" y2="236.42"/><line class="cls-6" x1="124.19" y1="329.87" x2="228.72" y2="225.33"/><line class="cls-6" x1="124.19" y1="318.78" x2="228.72" y2="214.25"/><line class="cls-6" x1="124.19" y1="307.7" x2="228.72" y2="203.16"/><line class="cls-6" x1="124.19" y1="296.61" x2="228.72" y2="192.07"/><line class="cls-6" x1="124.19" y1="285.52" x2="228.72" y2="180.98"/><line class="cls-6" x1="124.19" y1="274.43" x2="228.72" y2="169.89"/><line class="cls-6" x1="124.19" y1="263.34" x2="228.72" y2="158.81"/><line class="cls-6" x1="124.19" y1="252.26" x2="228.72" y2="147.72"/><line class="cls-6" x1="124.19" y1="241.17" x2="228.72" y2="136.63"/><line class="cls-6" x1="124.19" y1="230.08" x2="228.72" y2="125.54"/><line class="cls-6" x1="124.19" y1="218.99" x2="228.72" y2="114.45"/><line class="cls-6" x1="124.19" y1="207.9" x2="228.72" y2="103.37"/></g><path class="cls-3" d="M239,384.67V371.1h2a8.93,8.93,0,0,1,2.17.21,3.26,3.26,0,0,1,1.38.71,3.69,3.69,0,0,1,.91,1.29,3.91,3.91,0,0,1,.34,1.58,3.21,3.21,0,0,1-1.12,2.47,3.28,3.28,0,0,1,1.71,1.29,3.82,3.82,0,0,1-.49,4.82,3.69,3.69,0,0,1-1.52.94,8.84,8.84,0,0,1-2.31.25H239Zm2-7.74h0.64a2.37,2.37,0,0,0,1.67-.5,2,2,0,0,0,.53-1.49,1.87,1.87,0,0,0-.54-1.46,2.28,2.28,0,0,0-1.58-.5H241v3.95Zm0,5.82h1.27a3.14,3.14,0,0,0,2-.54,1.88,1.88,0,0,0,.69-1.49,1.91,1.91,0,0,0-.66-1.48,3.42,3.42,0,0,0-2.29-.59h-1v4.1Z"/><path class="cls-3" d="M255.57,376.11h2v8.56h-2v-0.9a3.8,3.8,0,0,1-5.56-.14,4.77,4.77,0,0,1-1.15-3.27,4.63,4.63,0,0,1,1.15-3.21,3.71,3.71,0,0,1,2.88-1.28,3.64,3.64,0,0,1,2.68,1.23v-1Zm-4.69,4.25a3,3,0,0,0,.66,2,2.16,2.16,0,0,0,1.71.78,2.27,2.27,0,0,0,1.78-.76,3.25,3.25,0,0,0,0-4,2.24,2.24,0,0,0-1.76-.76,2.19,2.19,0,0,0-1.71.77A2.85,2.85,0,0,0,250.88,380.36Z"/><path class="cls-3" d="M265,377.57l-1.63.87a1.13,1.13,0,0,0-1-.78,0.66,0.66,0,0,0-.47.18,0.6,0.6,0,0,0-.19.46,1.49,1.49,0,0,0,1.14,1,6.83,6.83,0,0,1,2.12,1.25,2.13,2.13,0,0,1,.54,1.54,2.69,2.69,0,0,1-.91,2.07,3.28,3.28,0,0,1-5.19-1.31l1.69-.78a3.67,3.67,0,0,0,.54.78,1.22,1.22,0,0,0,.86.33,0.85,0.85,0,0,0,1-.91,1.25,1.25,0,0,0-.77-1l-0.6-.29-0.61-.29a3.71,3.71,0,0,1-1.21-.84,2.08,2.08,0,0,1-.45-1.38,2.44,2.44,0,0,1,.76-1.85,2.68,2.68,0,0,1,1.9-.73A2.59,2.59,0,0,1,265,377.57Z"/><path class="cls-3" d="M275.16,380.85H269a2.6,2.6,0,0,0,.69,1.68,2.09,2.09,0,0,0,1.56.62,2,2,0,0,0,1.22-.35,5,5,0,0,0,1.08-1.3l1.67,0.93a6.65,6.65,0,0,1-.82,1.13,4.38,4.38,0,0,1-.92.77,3.73,3.73,0,0,1-1.06.44,5.18,5.18,0,0,1-1.24.14,4,4,0,0,1-3.08-1.23A4.62,4.62,0,0,1,267,380.4a4.74,4.74,0,0,1,1.13-3.29,4.29,4.29,0,0,1,6,0,4.74,4.74,0,0,1,1.09,3.31v0.47Zm-2-1.62a1.89,1.89,0,0,0-2-1.58,2.07,2.07,0,0,0-.68.11,2,2,0,0,0-.58.32,2,2,0,0,0-.44.5,2.31,2.31,0,0,0-.28.66h4Z"/><path class="cls-3" d="M279.3,369.82v14.84h-2V369.82h2Z"/><path class="cls-3" d="M283.78,369.82v14.84h-2V369.82h2Z"/><path class="cls-3" d="M292.59,376.11h2v8.56h-2v-0.9a3.8,3.8,0,0,1-5.56-.14,4.77,4.77,0,0,1-1.15-3.27,4.63,4.63,0,0,1,1.15-3.21,3.71,3.71,0,0,1,2.88-1.28,3.64,3.64,0,0,1,2.68,1.23v-1Zm-4.69,4.25a3,3,0,0,0,.66,2,2.16,2.16,0,0,0,1.71.78,2.27,2.27,0,0,0,1.78-.76,3.25,3.25,0,0,0,0-4,2.24,2.24,0,0,0-1.76-.76,2.19,2.19,0,0,0-1.71.77A2.85,2.85,0,0,0,287.9,380.36Z"/><path class="cls-3" d="M297.08,376.11h2v0.79a3.24,3.24,0,0,1,2.34-1,3,3,0,0,1,2.33.94,3.85,3.85,0,0,1,.72,2.61v5.25h-2v-4.78a3.13,3.13,0,0,0-.35-1.75,1.42,1.42,0,0,0-1.25-.49,1.53,1.53,0,0,0-1.4.65,4.47,4.47,0,0,0-.4,2.24v4.13h-2v-8.56Z"/><path class="cls-3" d="M313.26,369.82h2v14.84h-2v-0.9a3.69,3.69,0,0,1-2.65,1.14,3.77,3.77,0,0,1-2.92-1.28,4.77,4.77,0,0,1-1.15-3.27,4.61,4.61,0,0,1,1.15-3.2,3.7,3.7,0,0,1,5.56-.06v-7.28Zm-4.69,10.54a3,3,0,0,0,.66,2,2.16,2.16,0,0,0,1.71.78,2.27,2.27,0,0,0,1.78-.76,3.25,3.25,0,0,0,0-4,2.24,2.24,0,0,0-1.76-.76,2.19,2.19,0,0,0-1.71.77A2.85,2.85,0,0,0,308.56,380.36Z"/><rect class="cls-4" x="211.58" y="141.96" width="61.92" height="212.22"/><g class="cls-7"><line class="cls-6" x1="279.51" y1="413.03" x2="384.05" y2="308.49"/><line class="cls-6" x1="279.51" y1="401.94" x2="384.05" y2="297.41"/><line class="cls-6" x1="279.51" y1="390.86" x2="384.05" y2="286.32"/><line class="cls-6" x1="279.51" y1="379.77" x2="384.05" y2="275.23"/><line class="cls-6" x1="279.51" y1="368.68" x2="384.05" y2="264.14"/><line class="cls-6" x1="279.51" y1="357.59" x2="384.05" y2="253.05"/><line class="cls-6" x1="279.51" y1="346.5" x2="384.05" y2="241.97"/><line class="cls-6" x1="279.51" y1="335.42" x2="384.05" y2="230.88"/><line class="cls-6" x1="279.51" y1="324.33" x2="384.05" y2="219.79"/><line class="cls-6" x1="279.51" y1="313.24" x2="384.05" y2="208.7"/><line class="cls-6" x1="279.51" y1="302.15" x2="384.05" y2="197.61"/><line class="cls-6" x1="279.51" y1="291.06" x2="384.05" y2="186.53"/><line class="cls-6" x1="279.51" y1="279.98" x2="384.05" y2="175.44"/><line class="cls-6" x1="279.51" y1="268.89" x2="384.05" y2="164.35"/><line class="cls-6" x1="279.51" y1="257.8" x2="384.05" y2="153.26"/><line class="cls-6" x1="279.51" y1="246.71" x2="384.05" y2="142.17"/><line class="cls-6" x1="279.51" y1="235.62" x2="384.05" y2="131.09"/><line class="cls-6" x1="279.51" y1="224.54" x2="384.05" y2="120"/><line class="cls-6" x1="279.51" y1="213.45" x2="384.05" y2="108.91"/><line class="cls-6" x1="279.51" y1="202.36" x2="384.05" y2="97.82"/><line class="cls-6" x1="279.51" y1="191.27" x2="384.05" y2="86.73"/><line class="cls-6" x1="279.51" y1="180.18" x2="384.05" y2="75.65"/><line class="cls-6" x1="279.51" y1="169.1" x2="384.05" y2="64.56"/></g><path class="cls-3" d="M408,373.11l-1.66,1a2.86,2.86,0,0,0-.89-1.05,2.07,2.07,0,0,0-1.13-.28,2.09,2.09,0,0,0-1.42.48,1.5,1.5,0,0,0-.56,1.2,1.89,1.89,0,0,0,1.48,1.6l1.35,0.55a5.77,5.77,0,0,1,2.42,1.63,3.68,3.68,0,0,1,.76,2.36,4.15,4.15,0,0,1-1.25,3.1,4.28,4.28,0,0,1-3.12,1.23,4.16,4.16,0,0,1-2.92-1.05,4.83,4.83,0,0,1-1.42-2.95l2.07-.46a3.53,3.53,0,0,0,.49,1.65,2.34,2.34,0,0,0,3.44.24,2.22,2.22,0,0,0,.63-1.62,2.28,2.28,0,0,0-.11-0.72,1.85,1.85,0,0,0-.34-0.61,2.74,2.74,0,0,0-.6-0.52,5.8,5.8,0,0,0-.88-0.46l-1.31-.54q-2.79-1.18-2.79-3.44a3.27,3.27,0,0,1,1.17-2.56,4.23,4.23,0,0,1,2.91-1A4.06,4.06,0,0,1,408,373.11Z"/><path class="cls-3" d="M417.14,376.48v2.63a4.82,4.82,0,0,0-1.21-1.13,2.36,2.36,0,0,0-1.24-.32,2.44,2.44,0,0,0-1.85.78,2.74,2.74,0,0,0-.74,2,2.81,2.81,0,0,0,.71,2,2.4,2.4,0,0,0,1.84.77,2.51,2.51,0,0,0,1.26-.31,5,5,0,0,0,1.24-1.16v2.61a5.19,5.19,0,0,1-2.41.62,4.61,4.61,0,0,1-3.32-1.28,4.28,4.28,0,0,1-1.34-3.21,4.34,4.34,0,0,1,1.35-3.23,4.58,4.58,0,0,1,3.32-1.32A5,5,0,0,1,417.14,376.48Z"/><path class="cls-3" d="M419.52,369.82h2v7a3.41,3.41,0,0,1,2.33-.95,3,3,0,0,1,2.32.94,3.83,3.83,0,0,1,.74,2.61v5.25h-2v-5.06a2.42,2.42,0,0,0-.36-1.49,1.41,1.41,0,0,0-1.17-.46,1.61,1.61,0,0,0-1.46.64,4.4,4.4,0,0,0-.41,2.23v4.14h-2V369.82Z"/><path class="cls-3" d="M430.46,376.11L432.7,381l2.42-5.67,2.43,5.67,2.21-4.89H442l-4.48,9.2-2.38-5.51-2.41,5.51-4.47-9.2h2.22Z"/><path class="cls-3" d="M450.84,380.85h-6.13a2.6,2.6,0,0,0,.69,1.68,2.09,2.09,0,0,0,1.56.62,2,2,0,0,0,1.22-.35,5,5,0,0,0,1.08-1.3l1.67,0.93a6.65,6.65,0,0,1-.82,1.13,4.38,4.38,0,0,1-.92.77,3.73,3.73,0,0,1-1.06.44,5.18,5.18,0,0,1-1.24.14,4,4,0,0,1-3.08-1.23,4.62,4.62,0,0,1-1.16-3.29,4.74,4.74,0,0,1,1.13-3.29,4.29,4.29,0,0,1,6,0,4.74,4.74,0,0,1,1.09,3.31v0.47Zm-2-1.62a1.89,1.89,0,0,0-2-1.58,2.07,2.07,0,0,0-.68.11,2,2,0,0,0-.58.32,2,2,0,0,0-.44.5,2.31,2.31,0,0,0-.28.66h4Z"/><path class="cls-3" d="M452.71,372.55a1.29,1.29,0,0,1,1.28-1.27,1.25,1.25,0,0,1,.91.38,1.22,1.22,0,0,1,.38.91,1.25,1.25,0,0,1-.38.91,1.22,1.22,0,0,1-.91.38A1.29,1.29,0,0,1,452.71,372.55Zm2.28,3.56v8.56h-2v-8.56h2Z"/><path class="cls-3" d="M460.33,382.81h5.09v1.86h-9L462,378h-4.37v-1.85h8.28Z"/><rect class="cls-4" x="367.02" y="158.03" width="61.92" height="196.15"/><g class="cls-8"><line class="cls-6" x1="434.83" y1="411.18" x2="539.37" y2="306.65"/><line class="cls-6" x1="434.83" y1="400.1" x2="539.37" y2="295.56"/><line class="cls-6" x1="434.83" y1="389.01" x2="539.37" y2="284.47"/><line class="cls-6" x1="434.83" y1="377.92" x2="539.37" y2="273.38"/><line class="cls-6" x1="434.83" y1="366.83" x2="539.37" y2="262.29"/><line class="cls-6" x1="434.83" y1="355.74" x2="539.37" y2="251.21"/><line class="cls-6" x1="434.83" y1="344.66" x2="539.37" y2="240.12"/><line class="cls-6" x1="434.83" y1="333.57" x2="539.37" y2="229.03"/><line class="cls-6" x1="434.83" y1="322.48" x2="539.37" y2="217.94"/><line class="cls-6" x1="434.83" y1="311.39" x2="539.37" y2="206.85"/><line class="cls-6" x1="434.83" y1="300.3" x2="539.37" y2="195.77"/><line class="cls-6" x1="434.83" y1="289.22" x2="539.37" y2="184.68"/><line class="cls-6" x1="434.83" y1="278.13" x2="539.37" y2="173.59"/><line class="cls-6" x1="434.83" y1="267.04" x2="539.37" y2="162.5"/><line class="cls-6" x1="434.83" y1="255.95" x2="539.37" y2="151.41"/><line class="cls-6" x1="434.83" y1="244.86" x2="539.37" y2="140.33"/><line class="cls-6" x1="434.83" y1="233.78" x2="539.37" y2="129.24"/><line class="cls-6" x1="434.83" y1="222.69" x2="539.37" y2="118.15"/><line class="cls-6" x1="434.83" y1="211.6" x2="539.37" y2="107.06"/><line class="cls-6" x1="434.83" y1="200.51" x2="539.37" y2="95.97"/><line class="cls-6" x1="434.83" y1="189.42" x2="539.37" y2="84.89"/></g><path class="cls-3" d="M83.17,17.77l-1.85,1.09a3.17,3.17,0,0,0-1-1.17,2.3,2.3,0,0,0-1.26-.31,2.33,2.33,0,0,0-1.57.54,1.67,1.67,0,0,0-.62,1.33q0,1.1,1.64,1.78L80,21.64a6.42,6.42,0,0,1,2.69,1.81,4.09,4.09,0,0,1,.85,2.62,4.61,4.61,0,0,1-1.39,3.44,4.76,4.76,0,0,1-3.47,1.37,4.62,4.62,0,0,1-3.24-1.17,5.37,5.37,0,0,1-1.57-3.28l2.3-.51a3.92,3.92,0,0,0,.55,1.84,2.6,2.6,0,0,0,3.82.26,2.47,2.47,0,0,0,.7-1.81,2.53,2.53,0,0,0-.12-0.8,2,2,0,0,0-.38-0.67,3.07,3.07,0,0,0-.67-0.58,6.4,6.4,0,0,0-1-.51l-1.46-.61q-3.1-1.31-3.1-3.83a3.63,3.63,0,0,1,1.3-2.84,4.7,4.7,0,0,1,3.23-1.15A4.51,4.51,0,0,1,83.17,17.77Z"/><path class="cls-3" d="M92.89,21.1H95.1v9.51H92.89v-1a4.22,4.22,0,0,1-6.18-.16,5.3,5.3,0,0,1-1.28-3.63,5.14,5.14,0,0,1,1.28-3.56,4.12,4.12,0,0,1,3.2-1.43,4,4,0,0,1,3,1.37V21.1Zm-5.21,4.73a3.31,3.31,0,0,0,.73,2.23,2.4,2.4,0,0,0,1.89.87,2.52,2.52,0,0,0,2-.84,3.61,3.61,0,0,0,0-4.41,2.49,2.49,0,0,0-2-.85,2.43,2.43,0,0,0-1.89.86A3.17,3.17,0,0,0,87.68,25.83Z"/><path class="cls-3" d="M97.87,21.1h2.21V22a3.6,3.6,0,0,1,2.6-1.14,3.28,3.28,0,0,1,2.59,1,4.28,4.28,0,0,1,.8,2.9v5.83h-2.21V25.31a3.48,3.48,0,0,0-.39-1.94,1.58,1.58,0,0,0-1.39-.55,1.7,1.7,0,0,0-1.55.72,5,5,0,0,0-.45,2.49v4.58H97.87V21.1Z"/><path class="cls-3" d="M108.51,17.15a1.43,1.43,0,0,1,1.43-1.42,1.38,1.38,0,0,1,1,.42,1.35,1.35,0,0,1,.42,1,1.38,1.38,0,0,1-.42,1,1.35,1.35,0,0,1-1,.42A1.43,1.43,0,0,1,108.51,17.15Zm2.53,4v9.51h-2.2V21.1H111Z"/><path class="cls-3" d="M122.48,26.38h-6.82a2.89,2.89,0,0,0,.76,1.87,2.32,2.32,0,0,0,1.73.68,2.25,2.25,0,0,0,1.36-.39,5.56,5.56,0,0,0,1.2-1.45l1.86,1a7.36,7.36,0,0,1-.91,1.25,4.84,4.84,0,0,1-1,.86,4.12,4.12,0,0,1-1.18.49,5.73,5.73,0,0,1-1.38.16,4.48,4.48,0,0,1-3.42-1.37,5.13,5.13,0,0,1-1.29-3.65,5.27,5.27,0,0,1,1.25-3.65,4.76,4.76,0,0,1,6.66,0,5.26,5.26,0,0,1,1.21,3.68v0.52Zm-2.26-1.8A2.1,2.1,0,0,0,118,22.82a2.29,2.29,0,0,0-.75.12,2.14,2.14,0,0,0-.64.35,2.23,2.23,0,0,0-.49.55,2.56,2.56,0,0,0-.31.73h4.41Z"/><path class="cls-3" d="M124.88,21.1h2.2V22a4.2,4.2,0,0,1,1.07-.87,2.46,2.46,0,0,1,1.13-.24,3.55,3.55,0,0,1,1.82.57l-1,2a2.1,2.1,0,0,0-1.22-.45q-1.8,0-1.8,2.71v4.93h-2.2V21.1Z"/><path class="cls-3" d="M134.86,21.1v5.46q0,2.36,1.87,2.36t1.87-2.36V21.1h2.2v5.51a6.14,6.14,0,0,1-.28,2,3.32,3.32,0,0,1-.95,1.34,4.62,4.62,0,0,1-5.65,0,3.36,3.36,0,0,1-1-1.34,5.43,5.43,0,0,1-.27-2V21.1h2.2Z"/><path class="cls-3" d="M143.57,21.1h2.21V22a3.6,3.6,0,0,1,2.6-1.14,3.28,3.28,0,0,1,2.59,1,4.28,4.28,0,0,1,.8,2.9v5.83h-2.21V25.31a3.48,3.48,0,0,0-.39-1.94,1.58,1.58,0,0,0-1.39-.55,1.7,1.7,0,0,0-1.55.72,5,5,0,0,0-.45,2.49v4.58h-2.21V21.1Z"/><path class="cls-3" d="M163.73,30.39q0,0.67,0,1.19a8.34,8.34,0,0,1-.12.9,4,4,0,0,1-.92,1.85,4.45,4.45,0,0,1-3.54,1.48,4.72,4.72,0,0,1-3.13-1,4.21,4.21,0,0,1-1.46-2.92h2.21a2.5,2.5,0,0,0,.42,1.08,2.36,2.36,0,0,0,2,.89q2.41,0,2.41-2.95V29.55a4.1,4.1,0,0,1-3,1.34,4.05,4.05,0,0,1-3.18-1.41,5.21,5.21,0,0,1-1.25-3.56,5.49,5.49,0,0,1,1.16-3.54,4,4,0,0,1,3.3-1.54,3.83,3.83,0,0,1,3,1.34V21.1h2.2v9.29Zm-2.11-4.51a3.19,3.19,0,0,0-.74-2.21,2.46,2.46,0,0,0-1.92-.85,2.37,2.37,0,0,0-2,.93,3.36,3.36,0,0,0-.65,2.15A3.33,3.33,0,0,0,157,28a2.37,2.37,0,0,0,2,.91,2.42,2.42,0,0,0,2-.92A3.26,3.26,0,0,0,161.62,25.88Z"/><path class="cls-3" d="M180.85,22.76h6.23v0.5a10.3,10.3,0,0,1-.4,3,6.4,6.4,0,0,1-1.32,2.27A6.83,6.83,0,0,1,180,30.9a7.34,7.34,0,0,1-5.42-2.29,7.58,7.58,0,0,1-2.26-5.51,7.84,7.84,0,0,1,7.88-7.86,7.68,7.68,0,0,1,3.3.72,9.5,9.5,0,0,1,2.88,2.34l-1.62,1.55a5.5,5.5,0,0,0-4.52-2.47,5.4,5.4,0,0,0-4,1.65,5.51,5.51,0,0,0-1.62,4.06,5.66,5.66,0,0,0,5.47,5.66,4.55,4.55,0,0,0,3-1.13,4,4,0,0,0,1.49-2.73h-3.76V22.76Z"/><path class="cls-3" d="M189.07,25.79a4.73,4.73,0,0,1,1.47-3.51,5.2,5.2,0,0,1,7.21,0,5.09,5.09,0,0,1,0,7.16,5,5,0,0,1-3.64,1.44,4.83,4.83,0,0,1-3.58-1.46A4.93,4.93,0,0,1,189.07,25.79Zm2.25,0a3.21,3.21,0,0,0,.76,2.26,3,3,0,0,0,4.12,0,3.12,3.12,0,0,0,.77-2.22,3.12,3.12,0,0,0-.77-2.22,2.92,2.92,0,0,0-4.1,0A3.06,3.06,0,0,0,191.32,25.83Z"/><path class="cls-3" d="M203.93,23.15v7.46h-2.2V23.15h-0.94V21.1h0.94V17.62h2.2V21.1h1.71v2.05h-1.71Z"/><path class="cls-3" d="M209.4,23.15v7.46h-2.2V23.15h-0.94V21.1h0.94V17.62h2.2V21.1h1.71v2.05H209.4Z"/><path class="cls-3" d="M219.79,21.1H222v9.51h-2.21v-1a4.22,4.22,0,0,1-6.18-.16,5.3,5.3,0,0,1-1.28-3.63,5.14,5.14,0,0,1,1.28-3.56,4.12,4.12,0,0,1,3.2-1.43,4,4,0,0,1,3,1.37V21.1Zm-5.21,4.73a3.31,3.31,0,0,0,.73,2.23,2.4,2.4,0,0,0,1.89.87,2.52,2.52,0,0,0,2-.84,3.61,3.61,0,0,0,0-4.41,2.49,2.49,0,0,0-2-.85,2.43,2.43,0,0,0-1.89.86A3.17,3.17,0,0,0,214.57,25.83Z"/><path class="cls-3" d="M224.77,21.1H227V22a4.2,4.2,0,0,1,1.07-.87,2.46,2.46,0,0,1,1.13-.24,3.55,3.55,0,0,1,1.82.57l-1,2a2.1,2.1,0,0,0-1.22-.45q-1.8,0-1.8,2.71v4.93h-2.2V21.1Z"/><path class="cls-3" d="M239.12,14.12h2.21V30.61h-2.21v-1a4.1,4.1,0,0,1-2.94,1.27,4.19,4.19,0,0,1-3.24-1.43,5.3,5.3,0,0,1-1.28-3.63,5.13,5.13,0,0,1,1.28-3.55,4.11,4.11,0,0,1,6.18-.07V14.12Zm-5.21,11.71a3.31,3.31,0,0,0,.73,2.23,2.4,2.4,0,0,0,1.89.87,2.52,2.52,0,0,0,2-.84,3.61,3.61,0,0,0,0-4.41,2.49,2.49,0,0,0-2-.85,2.43,2.43,0,0,0-1.89.86A3.17,3.17,0,0,0,233.91,25.83Z"/><path class="cls-3" d="M242.72,24.82h4.36v1.91h-4.36V24.82Z"/><path class="cls-3" d="M257.4,17.77l-1.85,1.09a3.17,3.17,0,0,0-1-1.17,2.3,2.3,0,0,0-1.26-.31,2.33,2.33,0,0,0-1.57.54,1.67,1.67,0,0,0-.62,1.33q0,1.1,1.64,1.78l1.5,0.62a6.42,6.42,0,0,1,2.69,1.81,4.09,4.09,0,0,1,.85,2.62,4.61,4.61,0,0,1-1.39,3.44,4.76,4.76,0,0,1-3.47,1.37,4.62,4.62,0,0,1-3.24-1.17,5.37,5.37,0,0,1-1.57-3.28l2.3-.51a3.92,3.92,0,0,0,.55,1.84,2.6,2.6,0,0,0,3.82.26,2.47,2.47,0,0,0,.7-1.81,2.53,2.53,0,0,0-.12-0.8,2,2,0,0,0-.38-0.67,3.07,3.07,0,0,0-.67-0.58,6.4,6.4,0,0,0-1-.51l-1.46-.61q-3.1-1.31-3.1-3.83a3.63,3.63,0,0,1,1.3-2.84,4.7,4.7,0,0,1,3.23-1.15A4.51,4.51,0,0,1,257.4,17.77Z"/><path class="cls-3" d="M262.73,23.15v7.46h-2.2V23.15h-0.94V21.1h0.94V17.62h2.2V21.1h1.71v2.05h-1.71Z"/><path class="cls-3" d="M265.93,21.1h2.2V22a4.2,4.2,0,0,1,1.07-.87,2.46,2.46,0,0,1,1.13-.24,3.55,3.55,0,0,1,1.82.57l-1,2a2.1,2.1,0,0,0-1.22-.45q-1.8,0-1.8,2.71v4.93h-2.2V21.1Z"/><path class="cls-3" d="M280.28,21.1h2.21v9.51h-2.21v-1a4.22,4.22,0,0,1-6.18-.16,5.3,5.3,0,0,1-1.28-3.63,5.14,5.14,0,0,1,1.28-3.56,4.12,4.12,0,0,1,3.2-1.43,4,4,0,0,1,3,1.37V21.1Zm-5.21,4.73a3.31,3.31,0,0,0,.73,2.23,2.4,2.4,0,0,0,1.89.87,2.52,2.52,0,0,0,2-.84,3.61,3.61,0,0,0,0-4.41,2.49,2.49,0,0,0-2-.85,2.43,2.43,0,0,0-1.89.86A3.17,3.17,0,0,0,275.07,25.83Z"/><path class="cls-3" d="M290.79,22.72l-1.82,1a1.26,1.26,0,0,0-1.06-.87,0.73,0.73,0,0,0-.52.2,0.67,0.67,0,0,0-.21.51q0,0.55,1.27,1.08A7.57,7.57,0,0,1,290.8,26a2.37,2.37,0,0,1,.61,1.71,3,3,0,0,1-1,2.3,3.64,3.64,0,0,1-5.77-1.46l1.88-.87a4.09,4.09,0,0,0,.6.87,1.36,1.36,0,0,0,1,.37,0.94,0.94,0,0,0,1.11-1,1.39,1.39,0,0,0-.86-1.09l-0.66-.32L287,26.17a4.13,4.13,0,0,1-1.35-.94,2.31,2.31,0,0,1-.5-1.53,2.71,2.71,0,0,1,.85-2.05,3,3,0,0,1,2.11-.81A2.88,2.88,0,0,1,290.79,22.72Z"/><path class="cls-3" d="M298.91,22.72l-1.82,1a1.26,1.26,0,0,0-1.06-.87,0.73,0.73,0,0,0-.52.2,0.67,0.67,0,0,0-.21.51q0,0.55,1.27,1.08A7.57,7.57,0,0,1,298.92,26a2.37,2.37,0,0,1,.61,1.71,3,3,0,0,1-1,2.3,3.64,3.64,0,0,1-5.77-1.46l1.88-.87a4.09,4.09,0,0,0,.6.87,1.36,1.36,0,0,0,1,.37,0.94,0.94,0,0,0,1.11-1,1.39,1.39,0,0,0-.86-1.09l-0.66-.32-0.67-.32a4.13,4.13,0,0,1-1.35-.94,2.31,2.31,0,0,1-.5-1.53,2.71,2.71,0,0,1,.85-2.05,3,3,0,0,1,2.11-.81A2.88,2.88,0,0,1,298.91,22.72Z"/><path class="cls-3" d="M310.16,26.38h-6.82a2.89,2.89,0,0,0,.76,1.87,2.32,2.32,0,0,0,1.73.68,2.25,2.25,0,0,0,1.36-.39,5.56,5.56,0,0,0,1.2-1.45l1.86,1a7.36,7.36,0,0,1-.91,1.25,4.84,4.84,0,0,1-1,.86,4.12,4.12,0,0,1-1.18.49,5.73,5.73,0,0,1-1.38.16,4.48,4.48,0,0,1-3.42-1.37A5.13,5.13,0,0,1,301,25.87a5.27,5.27,0,0,1,1.25-3.65,4.76,4.76,0,0,1,6.66,0,5.26,5.26,0,0,1,1.21,3.68v0.52Zm-2.26-1.8a2.1,2.1,0,0,0-2.22-1.76,2.29,2.29,0,0,0-.75.12,2.14,2.14,0,0,0-.64.35,2.23,2.23,0,0,0-.49.55,2.56,2.56,0,0,0-.31.73h4.41Z"/><path class="cls-3" d="M312.56,21.1h2.21V22a3.6,3.6,0,0,1,2.6-1.14,3.28,3.28,0,0,1,2.59,1,4.28,4.28,0,0,1,.8,2.9v5.83h-2.21V25.31a3.48,3.48,0,0,0-.39-1.94,1.58,1.58,0,0,0-1.39-.55,1.7,1.7,0,0,0-1.55.72,5,5,0,0,0-.45,2.49v4.58h-2.21V21.1Z"/><path class="cls-3" d="M325.79,23.15v7.46h-2.2V23.15h-0.94V21.1h0.94V17.62h2.2V21.1h1.71v2.05h-1.71Z"/><path class="cls-3" d="M331.19,21.1v5.46q0,2.36,1.87,2.36t1.87-2.36V21.1h2.2v5.51a6.14,6.14,0,0,1-.28,2,3.32,3.32,0,0,1-.95,1.34,4.62,4.62,0,0,1-5.65,0,3.36,3.36,0,0,1-1-1.34,5.43,5.43,0,0,1-.27-2V21.1h2.2Z"/><path class="cls-3" d="M339.89,21.1h2.21V22a3.6,3.6,0,0,1,2.6-1.14,3.28,3.28,0,0,1,2.59,1,4.28,4.28,0,0,1,.8,2.9v5.83h-2.21V25.31a3.48,3.48,0,0,0-.39-1.94,1.58,1.58,0,0,0-1.39-.55,1.7,1.7,0,0,0-1.55.72A5,5,0,0,0,342.1,26v4.58h-2.21V21.1Z"/><path class="cls-3" d="M350.86,21.1h2.21V22a3.6,3.6,0,0,1,2.6-1.14,3.28,3.28,0,0,1,2.59,1,4.28,4.28,0,0,1,.8,2.9v5.83h-2.21V25.31a3.48,3.48,0,0,0-.39-1.94,1.58,1.58,0,0,0-1.39-.55,1.7,1.7,0,0,0-1.55.72,5,5,0,0,0-.45,2.49v4.58h-2.21V21.1Z"/><path class="cls-3" d="M370.49,26.38h-6.82a2.89,2.89,0,0,0,.76,1.87,2.32,2.32,0,0,0,1.73.68,2.25,2.25,0,0,0,1.36-.39,5.56,5.56,0,0,0,1.2-1.45l1.86,1a7.36,7.36,0,0,1-.91,1.25,4.84,4.84,0,0,1-1,.86,4.12,4.12,0,0,1-1.18.49,5.73,5.73,0,0,1-1.38.16,4.48,4.48,0,0,1-3.42-1.37,5.13,5.13,0,0,1-1.29-3.65,5.27,5.27,0,0,1,1.25-3.65,4.76,4.76,0,0,1,6.66,0,5.26,5.26,0,0,1,1.21,3.68v0.52Zm-2.26-1.8A2.1,2.1,0,0,0,366,22.82a2.29,2.29,0,0,0-.75.12,2.14,2.14,0,0,0-.64.35,2.23,2.23,0,0,0-.49.55,2.56,2.56,0,0,0-.31.73h4.41Z"/><path class="cls-3" d="M375.09,14.12V30.61h-2.2V14.12h2.2Z"/><path class="cls-3" d="M386.6,14l2,0.78a25,25,0,0,0-1.49,4.71,22,22,0,0,0-.32,2.3q-0.11,1.21-.11,2.63T386.82,27a22,22,0,0,0,.32,2.3,24.21,24.21,0,0,0,1.49,4.7l-2,.78a23.86,23.86,0,0,1-2.14-10.42A23.86,23.86,0,0,1,386.6,14Z"/><path class="cls-3" d="M395,28.47h5.62v2.14H390.48l5.23-6.34q0.77-.95,1.29-1.64a12.43,12.43,0,0,0,.8-1.16,3.27,3.27,0,0,0,.56-1.65,2.35,2.35,0,0,0-.74-1.77,2.55,2.55,0,0,0-1.84-.71q-2.29,0-2.62,2.71H390.9q0.55-4.77,4.81-4.77a4.86,4.86,0,0,1,3.46,1.31,4.25,4.25,0,0,1,1.41,3.24,4.92,4.92,0,0,1-.65,2.41,11.84,11.84,0,0,1-1,1.46q-0.64.85-1.62,2Z"/><path class="cls-3" d="M403.18,23a9.09,9.09,0,0,1,1.68-5.75,4.39,4.39,0,0,1,7.29,0,9.26,9.26,0,0,1,1.68,5.85,9.24,9.24,0,0,1-1.68,5.84,4.47,4.47,0,0,1-3.63,1.94,4.52,4.52,0,0,1-3.65-1.94A9.41,9.41,0,0,1,403.18,23Zm2.25,0a8.94,8.94,0,0,0,.87,4.17,2.32,2.32,0,0,0,4.43,0,8.53,8.53,0,0,0,.88-4.09,8.59,8.59,0,0,0-.88-4.1,2.31,2.31,0,0,0-4.42,0A8.33,8.33,0,0,0,405.42,23Z"/><path class="cls-3" d="M418.55,17.67h-2.61l1.25-2.14h3.63V30.61h-2.28V17.67Z"/><path class="cls-3" d="M431.56,15l1.67,1.25-3.6,4.9,0.5-.06,0.32,0a4.24,4.24,0,0,1,3.17,1.41A4.66,4.66,0,0,1,435,25.83a5.05,5.05,0,0,1-5,5,5.08,5.08,0,0,1-3.59-1.46A4.62,4.62,0,0,1,424.82,26a6.49,6.49,0,0,1,1.47-3.79Zm1.17,11a2.86,2.86,0,1,0-2.84,2.81A2.85,2.85,0,0,0,432.74,26Z"/><path class="cls-3" d="M439.44,34.79l-2-.78a24.21,24.21,0,0,0,1.49-4.7,24.84,24.84,0,0,0,.44-4.94,24.87,24.87,0,0,0-.44-4.93,25,25,0,0,0-1.49-4.71l2-.78a24,24,0,0,1,2.13,10.42A24,24,0,0,1,439.44,34.79Z"/><g class="cls-9"><path class="cls-3" d="M154.38,413.8h-1.72l-0.71-.73a4.56,4.56,0,0,1-2.52.73,4.71,4.71,0,0,1-3.19-1.22,4.37,4.37,0,0,1-1.52-3.43,4.51,4.51,0,0,1,1.44-3.41,4.72,4.72,0,0,1,6.38-.16,4.55,4.55,0,0,1,1.64,3.64,4.41,4.41,0,0,1-1.29,3.12Zm-3.76-3.75,1.31,1.31a3.09,3.09,0,0,0,.87-2.23,3.35,3.35,0,0,0-1-2.44,3.23,3.23,0,0,0-2.4-1,3.16,3.16,0,0,0-2.39,1,3.42,3.42,0,0,0-.94,2.48,3.17,3.17,0,0,0,1,2.39,3.27,3.27,0,0,0,2.31,1,3.19,3.19,0,0,0,1.6-.4l-2.13-2.06h1.76Z"/><path class="cls-3" d="M157,407.93v3.28q0,1.42,1.12,1.42t1.12-1.42v-3.28h1.32v3.3a3.68,3.68,0,0,1-.17,1.18,2,2,0,0,1-.57.8,2.77,2.77,0,0,1-3.39,0,2,2,0,0,1-.58-0.8,3.26,3.26,0,0,1-.16-1.18v-3.3H157Z"/><path class="cls-3" d="M167.39,411.09H163.3a1.73,1.73,0,0,0,.46,1.12,1.39,1.39,0,0,0,1,.41,1.35,1.35,0,0,0,.81-0.23,3.33,3.33,0,0,0,.72-0.87l1.11,0.62a4.43,4.43,0,0,1-.54.75,2.9,2.9,0,0,1-.62.52,2.47,2.47,0,0,1-.71.3,3.45,3.45,0,0,1-.83.09,2.69,2.69,0,0,1-2.05-.82,3.08,3.08,0,0,1-.77-2.19,3.16,3.16,0,0,1,.75-2.19,2.86,2.86,0,0,1,4,0,3.16,3.16,0,0,1,.73,2.21v0.31ZM166,410A1.26,1.26,0,0,0,164.7,409a1.37,1.37,0,0,0-.45.07,1.29,1.29,0,0,0-.38.21,1.34,1.34,0,0,0-.3.33,1.54,1.54,0,0,0-.19.44H166Z"/><path class="cls-3" d="M170.15,403.74v9.9h-1.32v-9.9h1.32Z"/><path class="cls-3" d="M173.13,403.74v9.9h-1.32v-9.9h1.32Z"/><path class="cls-3" d="M180,411.09h-4.09a1.73,1.73,0,0,0,.46,1.12,1.39,1.39,0,0,0,1,.41,1.35,1.35,0,0,0,.81-0.23,3.33,3.33,0,0,0,.72-0.87l1.11,0.62a4.43,4.43,0,0,1-.54.75,2.9,2.9,0,0,1-.62.52,2.47,2.47,0,0,1-.71.3,3.45,3.45,0,0,1-.83.09,2.69,2.69,0,0,1-2.05-.82,3.08,3.08,0,0,1-.77-2.19,3.16,3.16,0,0,1,.75-2.19,2.86,2.86,0,0,1,4,0,3.16,3.16,0,0,1,.73,2.21v0.31ZM178.65,410a1.26,1.26,0,0,0-1.33-1.05,1.37,1.37,0,0,0-.45.07,1.29,1.29,0,0,0-.38.21,1.34,1.34,0,0,0-.3.33,1.54,1.54,0,0,0-.19.44h2.65Z"/><path class="cls-3" d="M181.65,408.58a0.77,0.77,0,0,1,.24-0.56,0.81,0.81,0,1,1,0,1.15A0.79,0.79,0,0,1,181.65,408.58Zm0,4.41a0.81,0.81,0,0,1,1.63,0,0.79,0.79,0,0,1-.24.58,0.83,0.83,0,0,1-1.15,0A0.79,0.79,0,0,1,181.65,413Z"/><path class="cls-3" d="M191.6,405.87v7.76h-1.37v-7.76h-2.08v-1.28h5.52v1.28H191.6Z"/><path class="cls-3" d="M198.34,407.93h1.32v5.71h-1.32V413a2.53,2.53,0,0,1-3.71-.09,3.18,3.18,0,0,1-.77-2.18,3.08,3.08,0,0,1,.77-2.14,2.47,2.47,0,0,1,1.92-.86,2.43,2.43,0,0,1,1.79.82v-0.66Zm-3.13,2.84a2,2,0,0,0,.44,1.34,1.44,1.44,0,0,0,1.14.52,1.51,1.51,0,0,0,1.18-.5,2.17,2.17,0,0,0,0-2.65,1.49,1.49,0,0,0-1.17-.51,1.46,1.46,0,0,0-1.14.52A1.9,1.9,0,0,0,195.21,410.77Z"/><path class="cls-3" d="M201.33,407.93h1.32v0.53a2.75,2.75,0,0,1,.65-0.54,1.58,1.58,0,0,1,.72-0.15,1.75,1.75,0,0,1,1.53.84,2,2,0,0,1,1.68-.84q1.93,0,1.93,2.34v3.53h-1.32v-3.17a2.45,2.45,0,0,0-.2-1.16A0.72,0.72,0,0,0,207,409a0.86,0.86,0,0,0-.79.41,2.64,2.64,0,0,0-.25,1.32v2.95h-1.32v-3.15q0-1.52-.88-1.52a0.88,0.88,0,0,0-.81.42,2.59,2.59,0,0,0-.25,1.31v2.95h-1.32v-5.71Z"/><path class="cls-3" d="M216,411.09h-4.09a1.73,1.73,0,0,0,.46,1.12,1.39,1.39,0,0,0,1,.41,1.35,1.35,0,0,0,.81-0.23,3.33,3.33,0,0,0,.72-0.87l1.11,0.62a4.43,4.43,0,0,1-.54.75,2.9,2.9,0,0,1-.62.52,2.47,2.47,0,0,1-.71.3,3.45,3.45,0,0,1-.83.09,2.69,2.69,0,0,1-2.05-.82,3.08,3.08,0,0,1-.77-2.19,3.16,3.16,0,0,1,.75-2.19,2.86,2.86,0,0,1,4,0,3.16,3.16,0,0,1,.73,2.21v0.31ZM214.67,410a1.26,1.26,0,0,0-1.33-1.05,1.37,1.37,0,0,0-.45.07,1.29,1.29,0,0,0-.38.21,1.34,1.34,0,0,0-.3.33,1.54,1.54,0,0,0-.19.44h2.65Z"/><path class="cls-3" d="M221.67,403.74H223v9.9h-1.32V413a2.46,2.46,0,0,1-1.76.76,2.51,2.51,0,0,1-1.95-.86,3.18,3.18,0,0,1-.77-2.18,3.08,3.08,0,0,1,.77-2.13,2.47,2.47,0,0,1,3.71,0v-4.85Zm-3.13,7a2,2,0,0,0,.44,1.34,1.44,1.44,0,0,0,1.14.52,1.51,1.51,0,0,0,1.18-.5,2.17,2.17,0,0,0,0-2.65,1.49,1.49,0,0,0-1.17-.51,1.46,1.46,0,0,0-1.14.52A1.9,1.9,0,0,0,218.54,410.77Z"/><path class="cls-3" d="M224.46,405.56a0.86,0.86,0,0,1,.86-0.85,0.83,0.83,0,0,1,.61.25,0.81,0.81,0,0,1,.25.6,0.83,0.83,0,0,1-.25.61,0.81,0.81,0,0,1-.6.25A0.86,0.86,0,0,1,224.46,405.56Zm1.52,2.37v5.71h-1.32v-5.71H226Z"/><path class="cls-3" d="M231.85,407.93h1.32v5.71h-1.32V413a2.53,2.53,0,0,1-3.71-.09,3.18,3.18,0,0,1-.77-2.18,3.08,3.08,0,0,1,.77-2.14,2.47,2.47,0,0,1,1.92-.86,2.43,2.43,0,0,1,1.79.82v-0.66Zm-3.13,2.84a2,2,0,0,0,.44,1.34,1.44,1.44,0,0,0,1.14.52,1.51,1.51,0,0,0,1.18-.5,2.17,2.17,0,0,0,0-2.65,1.49,1.49,0,0,0-1.17-.51,1.46,1.46,0,0,0-1.14.52A1.9,1.9,0,0,0,228.72,410.77Z"/><path class="cls-3" d="M244.11,411.44h-3.87l-1,2.2h-1.47l4.48-9.62,4.32,9.62h-1.49Zm-0.56-1.28-1.34-3.08-1.41,3.08h2.75Z"/><path class="cls-3" d="M248.92,403.74v4.85a2.43,2.43,0,0,1,1.79-.82,2.47,2.47,0,0,1,1.92.86,3.08,3.08,0,0,1,.77,2.13,3.14,3.14,0,0,1-.77,2.18,2.49,2.49,0,0,1-1.94.86,2.47,2.47,0,0,1-1.77-.76v0.6H247.6v-9.9h1.32Zm3.13,7.08a2,2,0,0,0-.45-1.34,1.43,1.43,0,0,0-1.13-.53,1.52,1.52,0,0,0-1.18.51,1.89,1.89,0,0,0-.45,1.31,1.92,1.92,0,0,0,.45,1.33,1.48,1.48,0,0,0,1.17.51,1.45,1.45,0,0,0,1.14-.51A1.87,1.87,0,0,0,252.05,410.83Z"/><path class="cls-3" d="M258.11,408.9l-1.09.58a0.75,0.75,0,0,0-.64-0.52,0.44,0.44,0,0,0-.31.12,0.4,0.4,0,0,0-.13.31,1,1,0,0,0,.76.65,4.52,4.52,0,0,1,1.41.83,1.42,1.42,0,0,1,.36,1,1.79,1.79,0,0,1-.61,1.38,2.19,2.19,0,0,1-3.46-.87l1.13-.52a2.45,2.45,0,0,0,.36.52,0.82,0.82,0,0,0,.57.22,0.57,0.57,0,0,0,.67-0.61,0.84,0.84,0,0,0-.52-0.66l-0.4-.19-0.4-.19a2.47,2.47,0,0,1-.81-0.56,1.39,1.39,0,0,1-.3-0.92,1.63,1.63,0,0,1,.51-1.23,1.79,1.79,0,0,1,1.27-.49A1.73,1.73,0,0,1,258.11,408.9Z"/><path class="cls-3" d="M261,409.16v4.48h-1.32v-4.48h-0.56v-1.23h0.56v-2.09H261v2.09h1v1.23h-1Z"/><path class="cls-3" d="M262.75,405.56a0.86,0.86,0,0,1,.86-0.85,0.83,0.83,0,0,1,.61.25,0.81,0.81,0,0,1,.25.6,0.83,0.83,0,0,1-.25.61,0.81,0.81,0,0,1-.6.25A0.86,0.86,0,0,1,262.75,405.56Zm1.52,2.37v5.71h-1.32v-5.71h1.32Z"/><path class="cls-3" d="M265.94,407.93h1.32v0.53a2.75,2.75,0,0,1,.65-0.54,1.58,1.58,0,0,1,.72-0.15,1.75,1.75,0,0,1,1.53.84,2,2,0,0,1,1.68-.84q1.93,0,1.93,2.34v3.53h-1.32v-3.17a2.45,2.45,0,0,0-.2-1.16,0.72,0.72,0,0,0-.67-0.35,0.86,0.86,0,0,0-.79.41,2.64,2.64,0,0,0-.25,1.32v2.95H269.2v-3.15q0-1.52-.88-1.52a0.88,0.88,0,0,0-.81.42,2.59,2.59,0,0,0-.25,1.31v2.95h-1.32v-5.71Z"/><path class="cls-3" d="M275.43,407.93h1.32v0.53a2.75,2.75,0,0,1,.65-0.54,1.58,1.58,0,0,1,.72-0.15,1.75,1.75,0,0,1,1.53.84,2,2,0,0,1,1.68-.84q1.93,0,1.93,2.34v3.53h-1.32v-3.17a2.45,2.45,0,0,0-.2-1.16,0.72,0.72,0,0,0-.67-0.35,0.86,0.86,0,0,0-.79.41,2.64,2.64,0,0,0-.25,1.32v2.95h-1.32v-3.15q0-1.52-.88-1.52a0.88,0.88,0,0,0-.81.42,2.59,2.59,0,0,0-.25,1.31v2.95h-1.32v-5.71Z"/><path class="cls-3" d="M286.24,407.93v3.28q0,1.42,1.12,1.42t1.12-1.42v-3.28h1.32v3.3a3.68,3.68,0,0,1-.17,1.18,2,2,0,0,1-.57.8,2.77,2.77,0,0,1-3.39,0,2,2,0,0,1-.58-0.8,3.26,3.26,0,0,1-.16-1.18v-3.3h1.32Z"/><path class="cls-3" d="M291.46,407.93h1.32v0.53a2.16,2.16,0,0,1,1.56-.69,2,2,0,0,1,1.55.63,2.57,2.57,0,0,1,.48,1.74v3.5h-1.32v-3.18a2.08,2.08,0,0,0-.23-1.16A1,1,0,0,0,294,409a1,1,0,0,0-.93.43,3,3,0,0,0-.27,1.49v2.75h-1.32v-5.71Z"/><path class="cls-3" d="M303.56,413.5q0,0.4,0,.71a5,5,0,0,1-.07.54,2.41,2.41,0,0,1-.55,1.11,2.67,2.67,0,0,1-2.13.89,2.83,2.83,0,0,1-1.88-.62,2.53,2.53,0,0,1-.88-1.75h1.32a1.5,1.5,0,0,0,.25.65,1.42,1.42,0,0,0,1.2.53q1.45,0,1.45-1.77V413a2.46,2.46,0,0,1-1.81.8,2.43,2.43,0,0,1-1.91-.84,3.13,3.13,0,0,1-.75-2.14,3.29,3.29,0,0,1,.7-2.12,2.42,2.42,0,0,1,2-.93,2.3,2.3,0,0,1,1.79.8v-0.64h1.32v5.57Zm-1.27-2.7a1.92,1.92,0,0,0-.45-1.33,1.47,1.47,0,0,0-1.15-.51,1.42,1.42,0,0,0-1.18.56,2.29,2.29,0,0,0,0,2.56,1.42,1.42,0,0,0,1.18.54,1.45,1.45,0,0,0,1.2-.55A2,2,0,0,0,302.29,410.8Z"/><path class="cls-3" d="M308.54,408.9l-1.09.58a0.75,0.75,0,0,0-.64-0.52,0.44,0.44,0,0,0-.31.12,0.4,0.4,0,0,0-.13.31,1,1,0,0,0,.76.65,4.52,4.52,0,0,1,1.41.83,1.42,1.42,0,0,1,.36,1,1.79,1.79,0,0,1-.61,1.38,2.19,2.19,0,0,1-3.46-.87l1.13-.52a2.45,2.45,0,0,0,.36.52,0.82,0.82,0,0,0,.57.22,0.57,0.57,0,0,0,.67-0.61,0.84,0.84,0,0,0-.52-0.66l-0.4-.19-0.4-.19a2.47,2.47,0,0,1-.81-0.56,1.39,1.39,0,0,1-.3-0.92,1.63,1.63,0,0,1,.51-1.23,1.79,1.79,0,0,1,1.27-.49A1.73,1.73,0,0,1,308.54,408.9Z"/><path class="cls-3" d="M313.41,408.9l-1.09.58a0.75,0.75,0,0,0-.64-0.52,0.44,0.44,0,0,0-.31.12,0.4,0.4,0,0,0-.13.31,1,1,0,0,0,.76.65,4.52,4.52,0,0,1,1.41.83,1.42,1.42,0,0,1,.36,1,1.79,1.79,0,0,1-.61,1.38,2.19,2.19,0,0,1-3.46-.87l1.13-.52a2.45,2.45,0,0,0,.36.52,0.82,0.82,0,0,0,.57.22,0.57,0.57,0,0,0,.67-0.61,0.84,0.84,0,0,0-.52-0.66l-0.4-.19-0.4-.19a2.47,2.47,0,0,1-.81-0.56,1.39,1.39,0,0,1-.3-0.92,1.63,1.63,0,0,1,.51-1.23,1.79,1.79,0,0,1,1.27-.49A1.73,1.73,0,0,1,313.41,408.9Z"/><path class="cls-3" d="M316.32,409.16v4.48H315v-4.48h-0.56v-1.23H315v-2.09h1.32v2.09h1v1.23h-1Z"/><path class="cls-3" d="M319.56,407.93v3.28q0,1.42,1.12,1.42t1.12-1.42v-3.28h1.32v3.3a3.68,3.68,0,0,1-.17,1.18,2,2,0,0,1-.57.8,2.77,2.77,0,0,1-3.39,0,2,2,0,0,1-.58-0.8,3.26,3.26,0,0,1-.16-1.18v-3.3h1.32Z"/><path class="cls-3" d="M329,403.74h1.32v9.9H329V413a2.46,2.46,0,0,1-1.76.76,2.51,2.51,0,0,1-1.95-.86,3.18,3.18,0,0,1-.77-2.18,3.08,3.08,0,0,1,.77-2.13,2.47,2.47,0,0,1,3.71,0v-4.85Zm-3.13,7a2,2,0,0,0,.44,1.34,1.44,1.44,0,0,0,1.14.52,1.51,1.51,0,0,0,1.18-.5,2.17,2.17,0,0,0,0-2.65,1.49,1.49,0,0,0-1.17-.51,1.46,1.46,0,0,0-1.14.52A1.9,1.9,0,0,0,325.86,410.77Z"/><path class="cls-3" d="M331.78,405.56a0.86,0.86,0,0,1,.86-0.85,0.83,0.83,0,0,1,.61.25,0.81,0.81,0,0,1,.25.6,0.83,0.83,0,0,1-.25.61,0.81,0.81,0,0,1-.6.25A0.86,0.86,0,0,1,331.78,405.56Zm1.52,2.37v5.71H332v-5.71h1.32Z"/><path class="cls-3" d="M340.16,411.09h-4.09a1.73,1.73,0,0,0,.46,1.12,1.39,1.39,0,0,0,1,.41,1.35,1.35,0,0,0,.81-0.23,3.33,3.33,0,0,0,.72-0.87l1.11,0.62a4.43,4.43,0,0,1-.54.75,2.9,2.9,0,0,1-.62.52,2.47,2.47,0,0,1-.71.3,3.45,3.45,0,0,1-.83.09,2.69,2.69,0,0,1-2.05-.82,3.08,3.08,0,0,1-.77-2.19,3.16,3.16,0,0,1,.75-2.19,2.86,2.86,0,0,1,4,0,3.16,3.16,0,0,1,.73,2.21v0.31ZM338.81,410a1.26,1.26,0,0,0-1.33-1.05,1.37,1.37,0,0,0-.45.07,1.29,1.29,0,0,0-.38.21,1.34,1.34,0,0,0-.3.33,1.54,1.54,0,0,0-.19.44h2.65Z"/><path class="cls-3" d="M347.48,412.35h3.37v1.28h-6.08l3.14-3.8q0.46-.57.78-1a7.48,7.48,0,0,0,.48-0.7,2,2,0,0,0,.33-1,1.41,1.41,0,0,0-.45-1.06,1.59,1.59,0,0,0-2.67,1.2H345q0.33-2.86,2.89-2.86a2.92,2.92,0,0,1,2.07.79,2.55,2.55,0,0,1,.84,1.95,3,3,0,0,1-.39,1.45,7.09,7.09,0,0,1-.58.88q-0.38.51-1,1.2Z"/><path class="cls-3" d="M352.39,409.06a5.45,5.45,0,0,1,1-3.45,2.63,2.63,0,0,1,4.37,0,6.61,6.61,0,0,1,0,7,2.68,2.68,0,0,1-2.18,1.17,2.71,2.71,0,0,1-2.19-1.17A5.65,5.65,0,0,1,352.39,409.06Zm1.35,0a5.37,5.37,0,0,0,.52,2.5,1.39,1.39,0,0,0,2.66,0,6,6,0,0,0,0-4.92,1.39,1.39,0,0,0-2.65,0A5,5,0,0,0,353.74,409.06Z"/><path class="cls-3" d="M361.61,405.87H360l0.75-1.28H363v9h-1.37v-7.76Z"/><path class="cls-3" d="M369.42,404.27l1,0.75L368.26,408l0.3,0h0.19a2.54,2.54,0,0,1,1.9.84,2.79,2.79,0,0,1,.8,2,3,3,0,0,1-3,3,3,3,0,0,1-2.16-.87,2.77,2.77,0,0,1-.91-2.07,3.89,3.89,0,0,1,.88-2.27Zm0.7,6.58a1.72,1.72,0,1,0-1.71,1.69A1.71,1.71,0,0,0,370.13,410.85Z"/></g><line class="cls-10" x1="37.65" y1="354.18" x2="516.21" y2="354.18"/><line class="cls-11" x1="37.65" y1="322.02" x2="516.21" y2="322.02"/><line class="cls-11" x1="37.65" y1="289.87" x2="516.21" y2="289.87"/><line class="cls-11" x1="37.65" y1="257.71" x2="516.21" y2="257.71"/><line class="cls-11" x1="37.65" y1="225.56" x2="516.21" y2="225.56"/><line class="cls-11" x1="37.65" y1="193.4" x2="516.21" y2="193.4"/><line class="cls-11" x1="37.65" y1="161.25" x2="516.21" y2="161.25"/><line class="cls-11" x1="37.65" y1="129.09" x2="516.21" y2="129.09"/><line class="cls-11" x1="37.65" y1="96.94" x2="516.21" y2="96.94"/><rect class="cls-12" x="177.82" y="50.74" width="14.11" height="14.11"/><g class="cls-13"><line class="cls-14" x1="268.53" y1="80.39" x2="321.75" y2="27.17"/><line class="cls-14" x1="268.53" y1="74.74" x2="321.75" y2="21.52"/><line class="cls-14" x1="268.53" y1="69.1" x2="321.75" y2="15.88"/><line class="cls-14" x1="268.53" y1="63.45" x2="321.75" y2="10.24"/><line class="cls-14" x1="268.53" y1="57.81" x2="321.75" y2="4.59"/><line class="cls-14" x1="268.53" y1="52.17" x2="321.75" y2="-1.05"/></g><rect class="cls-2" x="269" y="51.5" width="14.11" height="14.11"/><path class="cls-3" d="M300,53.64h-3.68v2.54h3.55v1.5h-3.55v5h-1.59V52.15H300v1.5Z"/><path class="cls-3" d="M301.37,56h1.54v0.59a2.94,2.94,0,0,1,.75-0.61,1.72,1.72,0,0,1,.79-0.17,2.48,2.48,0,0,1,1.27.4L305,57.66a1.47,1.47,0,0,0-.85-0.31q-1.26,0-1.26,1.9V62.7h-1.54V56Z"/><path class="cls-3" d="M311.42,56H313V62.7h-1.54V62a3,3,0,0,1-4.33-.11,3.71,3.71,0,0,1-.9-2.54,3.6,3.6,0,0,1,.9-2.5,2.89,2.89,0,0,1,2.24-1,2.83,2.83,0,0,1,2.08,1V56Zm-3.65,3.31a2.32,2.32,0,0,0,.51,1.56,1.68,1.68,0,0,0,1.33.61,1.77,1.77,0,0,0,1.38-.59,2.53,2.53,0,0,0,0-3.09,1.74,1.74,0,0,0-1.37-.59,1.7,1.7,0,0,0-1.33.6A2.22,2.22,0,0,0,307.77,59.35Z"/><path class="cls-3" d="M316.44,56v3.82q0,1.65,1.31,1.65t1.31-1.65V56h1.54V59.9a4.3,4.3,0,0,1-.2,1.38,2.32,2.32,0,0,1-.66.94,3.23,3.23,0,0,1-4,0,2.35,2.35,0,0,1-.68-0.94,3.8,3.8,0,0,1-.19-1.38V56h1.54Z"/><path class="cls-3" d="M328.6,59.73h-4.77a2,2,0,0,0,.53,1.31,1.62,1.62,0,0,0,1.21.48,1.57,1.57,0,0,0,1-.27,3.9,3.9,0,0,0,.84-1l1.3,0.72a5.1,5.1,0,0,1-.64.88,3.36,3.36,0,0,1-.72.6,2.86,2.86,0,0,1-.83.35,4,4,0,0,1-1,.11,3.14,3.14,0,0,1-2.39-1,3.59,3.59,0,0,1-.9-2.56,3.69,3.69,0,0,1,.88-2.56,3.33,3.33,0,0,1,4.66,0,3.68,3.68,0,0,1,.85,2.58v0.36ZM327,58.48a1.47,1.47,0,0,0-1.55-1.23,1.58,1.58,0,0,0-.53.09,1.48,1.48,0,0,0-.45.25,1.54,1.54,0,0,0-.35.39,1.79,1.79,0,0,0-.22.51H327Z"/><path class="cls-3" d="M330.28,56h1.54v0.62a2.52,2.52,0,0,1,1.82-.8,2.3,2.3,0,0,1,1.81.73,3,3,0,0,1,.56,2V62.7h-1.54V59a2.43,2.43,0,0,0-.27-1.36,1.1,1.1,0,0,0-1-.38,1.19,1.19,0,0,0-1.09.5,3.47,3.47,0,0,0-.31,1.74V62.7h-1.54V56Z"/><path class="cls-3" d="M203.13,61.94l2.22-11.35L209,58.8l3.75-8.2,2,11.35h-1.63l-1-6.37-3.12,6.86-3-6.86-1.13,6.38h-1.65Z"/><path class="cls-3" d="M221.57,55.29h1.54v6.66h-1.54v-0.7a3,3,0,0,1-4.33-.11,3.71,3.71,0,0,1-.9-2.54,3.6,3.6,0,0,1,.9-2.5,2.89,2.89,0,0,1,2.24-1,2.83,2.83,0,0,1,2.08,1V55.29Zm-4-2.12a0.91,0.91,0,0,1,.29-0.68,1,1,0,0,1,1.38,0,0.92,0.92,0,0,1,.29.68,1,1,0,0,1-.29.7,1,1,0,0,1-.69.28,1,1,0,0,1-.7-0.29A1,1,0,0,1,217.53,53.17Zm0.39,5.43a2.32,2.32,0,0,0,.51,1.56,1.68,1.68,0,0,0,1.33.61,1.77,1.77,0,0,0,1.38-.59,2.53,2.53,0,0,0,0-3.09,1.74,1.74,0,0,0-1.37-.59,1.7,1.7,0,0,0-1.33.6A2.22,2.22,0,0,0,217.92,58.59Zm2.47-5.43a0.91,0.91,0,0,1,.29-0.68,1,1,0,0,1,.69-0.29,1,1,0,0,1,1,1,1,1,0,0,1-.29.7,1,1,0,0,1-.69.28A1,1,0,0,1,220.39,53.17Z"/><path class="cls-3" d="M225.06,55.29h1.54V55.9a2.52,2.52,0,0,1,1.82-.8,2.3,2.3,0,0,1,1.81.73,3,3,0,0,1,.56,2v4.08h-1.54V58.23a2.43,2.43,0,0,0-.27-1.36,1.1,1.1,0,0,0-1-.38,1.19,1.19,0,0,0-1.09.5,3.47,3.47,0,0,0-.31,1.74v3.21h-1.54V55.29Z"/><path class="cls-3" d="M232.73,55.29h1.54V55.9a2.52,2.52,0,0,1,1.82-.8,2.3,2.3,0,0,1,1.81.73,3,3,0,0,1,.56,2v4.08h-1.54V58.23a2.43,2.43,0,0,0-.27-1.36,1.1,1.1,0,0,0-1-.38,1.19,1.19,0,0,0-1.09.5,3.47,3.47,0,0,0-.31,1.74v3.21h-1.54V55.29Z"/><path class="cls-3" d="M246.47,59H241.7a2,2,0,0,0,.53,1.31,1.62,1.62,0,0,0,1.21.48,1.57,1.57,0,0,0,1-.27,3.9,3.9,0,0,0,.84-1l1.3,0.72a5.1,5.1,0,0,1-.64.88,3.36,3.36,0,0,1-.72.6,2.86,2.86,0,0,1-.83.35,4,4,0,0,1-1,.11,3.14,3.14,0,0,1-2.39-1,3.59,3.59,0,0,1-.9-2.56,3.69,3.69,0,0,1,.88-2.56,3.33,3.33,0,0,1,4.66,0,3.68,3.68,0,0,1,.85,2.58V59Zm-1.58-1.26a1.47,1.47,0,0,0-1.55-1.23,1.58,1.58,0,0,0-.53.09,1.48,1.48,0,0,0-.45.25,1.54,1.54,0,0,0-.35.39,1.79,1.79,0,0,0-.22.51h3.09Z"/><path class="cls-3" d="M248.15,55.29h1.54v0.59a2.94,2.94,0,0,1,.75-0.61,1.72,1.72,0,0,1,.79-0.17,2.48,2.48,0,0,1,1.27.4l-0.7,1.41a1.47,1.47,0,0,0-.85-0.31q-1.26,0-1.26,1.9v3.45h-1.54V55.29Z"/></svg>