<svg id="Charts" xmlns="http://www.w3.org/2000/svg" xmlns:xlink="http://www.w3.org/1999/xlink" viewBox="0 0 419.37 328.03"><defs><style>.cls-1,.cls-10,.cls-12,.cls-2,.cls-5,.cls-8{fill:none;}.cls-10,.cls-12,.cls-13,.cls-2,.cls-5,.cls-6,.cls-8{stroke:#fff;stroke-miterlimit:10;}.cls-13,.cls-2{stroke-width:0.69px;}.cls-13,.cls-3,.cls-5{opacity:0.4;}.cls-13,.cls-4,.cls-6{fill:#fff;}.cls-6{stroke-width:1.4px;}.cls-7{clip-path:url(#clip-path);}.cls-8{stroke-width:1.12px;}.cls-9{clip-path:url(#clip-path-2);}.cls-11{clip-path:url(#clip-path-3);}.cls-12{stroke-width:0.55px;}.cls-14{fill:#016d3d;opacity:0.8;}</style><clipPath id="clip-path"><rect class="cls-1" x="129.55" y="124.07" width="70.46" height="151.47"/></clipPath><clipPath id="clip-path-2"><rect class="cls-1" x="325.27" y="150.95" width="70.46" height="124.59"/></clipPath><clipPath id="clip-path-3"><rect class="cls-2" x="217.22" y="48.84" width="10.29" height="10.29"/></clipPath></defs><title>Charts_</title><g class="cls-3"><path class="cls-4" d="M146.44,325h-1.57l-0.65-.67a4.18,4.18,0,0,1-2.31.67,4.32,4.32,0,0,1-2.93-1.12,4,4,0,0,1-1.39-3.14,4.13,4.13,0,0,1,1.32-3.12,4.33,4.33,0,0,1,5.85-.15,4.17,4.17,0,0,1,1.5,3.33,4,4,0,0,1-1.19,2.86ZM143,321.57l1.2,1.2a2.83,2.83,0,0,0,.79-2,3.07,3.07,0,0,0-.89-2.24,3,3,0,0,0-2.2-.9,2.9,2.9,0,0,0-2.19.9,3.14,3.14,0,0,0-.87,2.27,2.9,2.9,0,0,0,.89,2.19,3,3,0,0,0,2.12.88,2.93,2.93,0,0,0,1.47-.37l-2-1.89H143Z"/><path class="cls-4" d="M148.81,319.62v3a1.05,1.05,0,1,0,2.05,0v-3h1.21v3a3.38,3.38,0,0,1-.16,1.08,1.83,1.83,0,0,1-.52.74,2.54,2.54,0,0,1-3.11,0,1.85,1.85,0,0,1-.53-0.74,3,3,0,0,1-.15-1.08v-3h1.21Z"/><path class="cls-4" d="M158.36,322.52h-3.75a1.59,1.59,0,0,0,.42,1,1.28,1.28,0,0,0,1,.38,1.24,1.24,0,0,0,.75-0.21,3,3,0,0,0,.66-0.79l1,0.57a4.1,4.1,0,0,1-.5.69,2.66,2.66,0,0,1-.56.47,2.25,2.25,0,0,1-.65.27,3.14,3.14,0,0,1-.76.09,2.46,2.46,0,0,1-1.88-.75,2.82,2.82,0,0,1-.71-2,2.9,2.9,0,0,1,.69-2,2.62,2.62,0,0,1,3.66,0,2.89,2.89,0,0,1,.67,2v0.28Zm-1.24-1a1.16,1.16,0,0,0-1.22-1,1.25,1.25,0,0,0-.41.07,1.19,1.19,0,0,0-.35.19,1.24,1.24,0,0,0-.27.3,1.42,1.42,0,0,0-.17.4h2.43Z"/><path class="cls-4" d="M160.89,315.78v9.07h-1.21v-9.07h1.21Z"/><path class="cls-4" d="M163.63,315.78v9.07h-1.21v-9.07h1.21Z"/><path class="cls-4" d="M169.92,322.52h-3.75a1.59,1.59,0,0,0,.42,1,1.28,1.28,0,0,0,1,.38,1.24,1.24,0,0,0,.75-0.21,3,3,0,0,0,.66-0.79l1,0.57a4.1,4.1,0,0,1-.5.69,2.66,2.66,0,0,1-.56.47,2.25,2.25,0,0,1-.65.27,3.14,3.14,0,0,1-.76.09,2.46,2.46,0,0,1-1.88-.75,2.82,2.82,0,0,1-.71-2,2.9,2.9,0,0,1,.69-2,2.62,2.62,0,0,1,3.66,0,2.89,2.89,0,0,1,.67,2v0.28Zm-1.24-1a1.16,1.16,0,0,0-1.22-1,1.25,1.25,0,0,0-.41.07,1.19,1.19,0,0,0-.35.19,1.24,1.24,0,0,0-.27.3,1.42,1.42,0,0,0-.17.4h2.43Z"/><path class="cls-4" d="M171.43,320.21a0.71,0.71,0,0,1,.22-0.52,0.75,0.75,0,0,1,1.27.53,0.73,0.73,0,0,1-.22.53,0.75,0.75,0,0,1-1.06,0A0.73,0.73,0,0,1,171.43,320.21Zm0,4a0.75,0.75,0,0,1,1.49,0,0.72,0.72,0,0,1-.22.53,0.76,0.76,0,0,1-1.06,0A0.73,0.73,0,0,1,171.43,324.25Z"/><path class="cls-4" d="M179.51,316.56v7.12H182v1.18h-3.69v-8.29h1.25Z"/><path class="cls-4" d="M182.66,322.2a2.6,2.6,0,0,1,.81-1.93,2.86,2.86,0,0,1,4,0,2.8,2.8,0,0,1,0,3.94,2.78,2.78,0,0,1-2,.79,2.66,2.66,0,0,1-2-.81A2.71,2.71,0,0,1,182.66,322.2Zm1.24,0a1.77,1.77,0,0,0,.42,1.24,1.63,1.63,0,0,0,2.27,0,2,2,0,0,0,0-2.44,1.61,1.61,0,0,0-2.26,0A1.68,1.68,0,0,0,183.9,322.22Z"/><path class="cls-4" d="M189.52,319.62h1.21v0.48a2,2,0,0,1,1.43-.63,1.8,1.8,0,0,1,1.42.58,2.35,2.35,0,0,1,.44,1.59v3.21h-1.21v-2.92a1.91,1.91,0,0,0-.21-1.07,0.87,0.87,0,0,0-.76-0.3,0.94,0.94,0,0,0-.85.4,2.73,2.73,0,0,0-.25,1.37v2.52h-1.21v-5.23Z"/><path class="cls-4" d="M200.61,324.73q0,0.37,0,.65a4.25,4.25,0,0,1-.07.5,2.22,2.22,0,0,1-.5,1,2.45,2.45,0,0,1-2,.82,2.59,2.59,0,0,1-1.72-.57,2.32,2.32,0,0,1-.81-1.61h1.21a1.37,1.37,0,0,0,.23.6,1.3,1.3,0,0,0,1.1.49q1.33,0,1.33-1.62v-0.73a2.25,2.25,0,0,1-1.66.74,2.23,2.23,0,0,1-1.75-.77,2.87,2.87,0,0,1-.69-2,3,3,0,0,1,.64-1.94,2.22,2.22,0,0,1,1.82-.85,2.11,2.11,0,0,1,1.64.74v-0.59h1.21v5.11Zm-1.16-2.48A1.75,1.75,0,0,0,199,321a1.35,1.35,0,0,0-1.06-.47,1.3,1.3,0,0,0-1.08.51,2.09,2.09,0,0,0,0,2.35,1.3,1.3,0,0,0,1.08.5,1.33,1.33,0,0,0,1.1-.5A1.79,1.79,0,0,0,199.45,322.25Z"/><path class="cls-4" d="M206.21,319.85v1.61a2.94,2.94,0,0,0-.74-0.69,1.44,1.44,0,0,0-.76-0.19,1.49,1.49,0,0,0-1.13.48,1.68,1.68,0,0,0-.45,1.2,1.72,1.72,0,0,0,.43,1.21,1.47,1.47,0,0,0,1.12.47,1.54,1.54,0,0,0,.77-0.19,3.06,3.06,0,0,0,.76-0.71v1.6a3.18,3.18,0,0,1-1.47.38,2.82,2.82,0,0,1-2-.78,2.62,2.62,0,0,1-.82-2,2.65,2.65,0,0,1,.83-2,2.8,2.8,0,0,1,2-.81A3,3,0,0,1,206.21,319.85Z"/><path class="cls-4" d="M207.66,315.78h1.21v4.28a2.08,2.08,0,0,1,1.42-.58,1.84,1.84,0,0,1,1.42.58,2.34,2.34,0,0,1,.45,1.59v3.21H211v-3.09a1.47,1.47,0,0,0-.22-0.91,0.86,0.86,0,0,0-.72-0.28,1,1,0,0,0-.89.39,2.7,2.7,0,0,0-.25,1.37v2.53h-1.21v-9.07Z"/><path class="cls-4" d="M217.55,319.62h1.21v5.23h-1.21v-0.55a2.32,2.32,0,0,1-3.4-.09,2.92,2.92,0,0,1-.7-2,2.83,2.83,0,0,1,.7-2,2.27,2.27,0,0,1,1.76-.79,2.23,2.23,0,0,1,1.64.75v-0.61Zm-2.87,2.6a1.82,1.82,0,0,0,.4,1.22,1.32,1.32,0,0,0,1,.48,1.39,1.39,0,0,0,1.09-.46,2,2,0,0,0,0-2.43,1.37,1.37,0,0,0-1.07-.47,1.34,1.34,0,0,0-1,.47A1.74,1.74,0,0,0,214.68,322.22Z"/><path class="cls-4" d="M220.29,319.62h1.21v0.48a2.54,2.54,0,0,1,.6-0.49,1.44,1.44,0,0,1,.66-0.13,1.6,1.6,0,0,1,1.4.77,1.82,1.82,0,0,1,1.54-.77q1.77,0,1.77,2.14v3.23h-1.21v-2.91a2.23,2.23,0,0,0-.18-1.06,0.66,0.66,0,0,0-.62-0.32,0.79,0.79,0,0,0-.73.38,2.42,2.42,0,0,0-.23,1.21v2.7h-1.21V322q0-1.4-.8-1.4a0.81,0.81,0,0,0-.74.38,2.37,2.37,0,0,0-.23,1.2v2.7h-1.21v-5.23Z"/><path class="cls-4" d="M230.33,327.7h-1.21v-8.08h1.21v0.57a2.24,2.24,0,0,1,1.62-.71,2.26,2.26,0,0,1,1.78.79,2.87,2.87,0,0,1,.71,2,2.83,2.83,0,0,1-.7,2,2.29,2.29,0,0,1-3.41,0v3.43Zm2.87-5.43a1.81,1.81,0,0,0-.41-1.22,1.32,1.32,0,0,0-1-.48,1.38,1.38,0,0,0-1.08.46,1.75,1.75,0,0,0-.41,1.21,1.79,1.79,0,0,0,.41,1.21,1.36,1.36,0,0,0,1.07.47,1.31,1.31,0,0,0,1-.47A1.71,1.71,0,0,0,233.21,322.27Z"/><path class="cls-4" d="M236.47,323.3l1.07,0.42L236,326.79l-0.82-.34Z"/><path class="cls-4" d="M247.57,324.73q0,0.37,0,.65a4.25,4.25,0,0,1-.07.5,2.22,2.22,0,0,1-.5,1,2.45,2.45,0,0,1-2,.82,2.59,2.59,0,0,1-1.72-.57,2.32,2.32,0,0,1-.81-1.61h1.21a1.37,1.37,0,0,0,.23.6,1.3,1.3,0,0,0,1.1.49q1.33,0,1.33-1.62v-0.73a2.25,2.25,0,0,1-1.66.74,2.23,2.23,0,0,1-1.75-.77,2.87,2.87,0,0,1-.69-2,3,3,0,0,1,.64-1.94,2.22,2.22,0,0,1,1.82-.85,2.11,2.11,0,0,1,1.64.74v-0.59h1.21v5.11Zm-1.16-2.48A1.75,1.75,0,0,0,246,321a1.35,1.35,0,0,0-1.06-.47,1.3,1.3,0,0,0-1.08.51,2.09,2.09,0,0,0,0,2.35,1.3,1.3,0,0,0,1.08.5,1.33,1.33,0,0,0,1.1-.5A1.79,1.79,0,0,0,246.41,322.25Z"/><path class="cls-4" d="M250.35,320.75v4.1h-1.21v-4.1H248.7v-1.13h0.43v-2a2.19,2.19,0,0,1,.34-1.4,1.68,1.68,0,0,1,1.38-.57,2.37,2.37,0,0,1,.81.19v1.24l-0.12-.06a1.52,1.52,0,0,0-.64-0.2,0.44,0.44,0,0,0-.44.23,2.23,2.23,0,0,0-.11.87v1.72h1.32v1.13h-1.32Z"/><path class="cls-4" d="M255.4,320.52l-1,.53a0.69,0.69,0,0,0-.58-0.48,0.4,0.4,0,0,0-.29.11,0.37,0.37,0,0,0-.12.28,0.91,0.91,0,0,0,.7.6,4.18,4.18,0,0,1,1.29.76,1.3,1.3,0,0,1,.33.94,1.64,1.64,0,0,1-.56,1.27,2,2,0,0,1-3.17-.8l1-.48a2.22,2.22,0,0,0,.33.48,0.75,0.75,0,0,0,.53.2,0.52,0.52,0,0,0,.61-0.56,0.77,0.77,0,0,0-.47-0.6l-0.37-.18-0.37-.18a2.28,2.28,0,0,1-.74-0.52,1.27,1.27,0,0,1-.27-0.84,1.49,1.49,0,0,1,.47-1.13,1.64,1.64,0,0,1,1.16-.45A1.58,1.58,0,0,1,255.4,320.52Z"/><path class="cls-4" d="M260.45,324.86v-8.29h1.25a5.45,5.45,0,0,1,1.33.13,2,2,0,0,1,.84.44,2.25,2.25,0,0,1,.55.79,2.39,2.39,0,0,1,.21,1,2,2,0,0,1-.68,1.51,2,2,0,0,1,1,.79,2.34,2.34,0,0,1-.3,2.94,2.26,2.26,0,0,1-.93.57,5.39,5.39,0,0,1-1.41.16h-1.9Zm1.25-4.73h0.39a1.44,1.44,0,0,0,1-.31,1.2,1.2,0,0,0,.33-0.91,1.14,1.14,0,0,0-.33-0.89,1.39,1.39,0,0,0-1-.3H261.7v2.41Zm0,3.56h0.77a1.92,1.92,0,0,0,1.25-.33,1.15,1.15,0,0,0,.42-0.91,1.17,1.17,0,0,0-.4-0.9,2.09,2.09,0,0,0-1.4-.36H261.7v2.51Z"/><path class="cls-4" d="M271.49,322.52h-3.75a1.59,1.59,0,0,0,.42,1,1.28,1.28,0,0,0,1,.38,1.24,1.24,0,0,0,.75-0.21,3,3,0,0,0,.66-0.79l1,0.57a4.1,4.1,0,0,1-.5.69,2.66,2.66,0,0,1-.56.47,2.25,2.25,0,0,1-.65.27,3.14,3.14,0,0,1-.76.09,2.46,2.46,0,0,1-1.88-.75,2.82,2.82,0,0,1-.71-2,2.9,2.9,0,0,1,.69-2,2.62,2.62,0,0,1,3.66,0,2.89,2.89,0,0,1,.67,2v0.28Zm-1.24-1a1.16,1.16,0,0,0-1.22-1,1.25,1.25,0,0,0-.41.07,1.19,1.19,0,0,0-.35.19,1.24,1.24,0,0,0-.27.3,1.42,1.42,0,0,0-.17.4h2.43Z"/><path class="cls-4" d="M272.81,319.62H274v0.47a2.31,2.31,0,0,1,.59-0.48,1.35,1.35,0,0,1,.62-0.13,2,2,0,0,1,1,.31l-0.55,1.11a1.16,1.16,0,0,0-.67-0.25q-1,0-1,1.49v2.71h-1.21v-5.23Z"/><path class="cls-4" d="M277.09,319.62h1.21v0.48a2,2,0,0,1,1.43-.63,1.8,1.8,0,0,1,1.42.58,2.35,2.35,0,0,1,.44,1.59v3.21h-1.21v-2.92a1.91,1.91,0,0,0-.21-1.07,0.87,0.87,0,0,0-.76-0.3,0.94,0.94,0,0,0-.85.4,2.73,2.73,0,0,0-.25,1.37v2.52h-1.21v-5.23Z"/></g><path class="cls-4" d="M3.68,247H2l0.79-1.35H5.11v9.5H3.68V247Z"/><path class="cls-4" d="M7.82,250.37a5.73,5.73,0,0,1,1.06-3.62,2.76,2.76,0,0,1,4.59,0,6.94,6.94,0,0,1,0,7.36,2.82,2.82,0,0,1-2.29,1.22,2.85,2.85,0,0,1-2.3-1.22A5.93,5.93,0,0,1,7.82,250.37Zm1.42,0A5.63,5.63,0,0,0,9.78,253a1.6,1.6,0,0,0,1.39,1,1.61,1.61,0,0,0,1.39-1,6.3,6.3,0,0,0,0-5.16,1.61,1.61,0,0,0-1.39-1,1.61,1.61,0,0,0-1.39,1A5.26,5.26,0,0,0,9.23,250.37Z"/><path class="cls-4" d="M3,229.4H6.58v1.35H0.2l3.3-4q0.49-.6.82-1a7.89,7.89,0,0,0,.5-0.73,2.06,2.06,0,0,0,.35-1,1.48,1.48,0,0,0-.47-1.11,1.61,1.61,0,0,0-1.16-.45,1.61,1.61,0,0,0-1.65,1.7H0.46q0.34-3,3-3a3.06,3.06,0,0,1,2.18.82,2.68,2.68,0,0,1,.89,2,3.11,3.11,0,0,1-.41,1.52,7.43,7.43,0,0,1-.61.92q-0.4.53-1,1.26Z"/><path class="cls-4" d="M8.19,225.94a5.73,5.73,0,0,1,1.06-3.62,2.76,2.76,0,0,1,4.59,0,6.94,6.94,0,0,1,0,7.36,2.82,2.82,0,0,1-2.29,1.22,2.85,2.85,0,0,1-2.3-1.22A5.93,5.93,0,0,1,8.19,225.94Zm1.42,0a5.63,5.63,0,0,0,.55,2.63,1.6,1.6,0,0,0,1.39,1,1.61,1.61,0,0,0,1.39-1,6.3,6.3,0,0,0,0-5.16,1.61,1.61,0,0,0-1.39-1,1.61,1.61,0,0,0-1.39,1A5.26,5.26,0,0,0,9.61,225.95Z"/><path class="cls-4" d="M3.14,201.91v-1.22a2.49,2.49,0,0,0,1.22-.2,1.25,1.25,0,0,0,.56-1.14,1.3,1.3,0,0,0-.41-1,1.43,1.43,0,0,0-1-.39,1.35,1.35,0,0,0-.92.29,1.92,1.92,0,0,0-.47,1H0.66a3.29,3.29,0,0,1,.91-2,2.77,2.77,0,0,1,1.93-.62,2.86,2.86,0,0,1,2,.74,2.46,2.46,0,0,1,.79,1.89,2.34,2.34,0,0,1-1,2,2.41,2.41,0,0,1,1.19,2.26,2.74,2.74,0,0,1-.86,2.09,3.1,3.1,0,0,1-2.21.81,2.84,2.84,0,0,1-2.55-1.26,3.27,3.27,0,0,1-.44-1.46H1.8a1.68,1.68,0,0,0,.54,1.05,1.66,1.66,0,0,0,1.12.37,1.55,1.55,0,0,0,1.15-.46,1.66,1.66,0,0,0,.46-1.2,1.46,1.46,0,0,0-.68-1.37A2.54,2.54,0,0,0,3.14,201.91Z"/><path class="cls-4" d="M8.19,201.51a5.73,5.73,0,0,1,1.06-3.62,2.76,2.76,0,0,1,4.59,0,6.94,6.94,0,0,1,0,7.36,2.82,2.82,0,0,1-2.29,1.22,2.85,2.85,0,0,1-2.3-1.22A5.93,5.93,0,0,1,8.19,201.51Zm1.42,0a5.63,5.63,0,0,0,.55,2.63,1.6,1.6,0,0,0,1.39,1,1.61,1.61,0,0,0,1.39-1,6.3,6.3,0,0,0,0-5.16,1.61,1.61,0,0,0-1.39-1,1.61,1.61,0,0,0-1.39,1A5.26,5.26,0,0,0,9.61,201.52Z"/><path class="cls-4" d="M6.1,179.24h1v1.3h-1v1.35H4.66v-1.35H0l6.1-8.86v7.56Zm-1.43,0v-3.18l-2.19,3.18H4.66Z"/><path class="cls-4" d="M8.19,177.08a5.73,5.73,0,0,1,1.06-3.62,2.76,2.76,0,0,1,4.59,0,6.94,6.94,0,0,1,0,7.36A2.82,2.82,0,0,1,11.55,182a2.85,2.85,0,0,1-2.3-1.22A5.93,5.93,0,0,1,8.19,177.08Zm1.42,0a5.63,5.63,0,0,0,.55,2.63,1.6,1.6,0,0,0,1.39,1,1.61,1.61,0,0,0,1.39-1,6.3,6.3,0,0,0,0-5.16,1.61,1.61,0,0,0-1.39-1,1.61,1.61,0,0,0-1.39,1A5.26,5.26,0,0,0,9.61,177.08Z"/><path class="cls-4" d="M6.51,149.31H3.58l-0.47,1.57,0.2,0H3.49a3,3,0,0,1,2.27.93,3.58,3.58,0,0,1-.12,4.85,3.51,3.51,0,0,1-2.54,1,3.35,3.35,0,0,1-3-1.77l1.08-.92a3.35,3.35,0,0,0,.9,1.08,1.94,1.94,0,0,0,1.11.31,1.93,1.93,0,0,0,1.45-.6,2.12,2.12,0,0,0,.58-1.51,2,2,0,0,0-.58-1.49,1.93,1.93,0,0,0-1.45-.6,2.11,2.11,0,0,0-1.67.84H1.09l1.49-5H6.51v1.35Z"/><path class="cls-4" d="M8.19,152.65A5.73,5.73,0,0,1,9.25,149a2.76,2.76,0,0,1,4.59,0,6.94,6.94,0,0,1,0,7.36,2.82,2.82,0,0,1-2.29,1.22,2.85,2.85,0,0,1-2.3-1.22A5.93,5.93,0,0,1,8.19,152.65Zm1.42,0a5.63,5.63,0,0,0,.55,2.63,1.6,1.6,0,0,0,1.39,1,1.61,1.61,0,0,0,1.39-1,6.3,6.3,0,0,0,0-5.16,1.61,1.61,0,0,0-1.39-1,1.61,1.61,0,0,0-1.39,1A5.26,5.26,0,0,0,9.61,152.66Z"/><path class="cls-4" d="M4.83,123.2L5.88,124l-2.27,3.09,0.31,0h0.2a2.67,2.67,0,0,1,2,.89A2.94,2.94,0,0,1,7,130,3.05,3.05,0,0,1,6,132.25a3,3,0,0,1-2.23.93,3.2,3.2,0,0,1-2.26-.92,2.91,2.91,0,0,1-1-2.17,4.09,4.09,0,0,1,.93-2.39Zm0.74,6.91a1.8,1.8,0,0,0-1.8-1.81,1.73,1.73,0,0,0-1.27.52,1.8,1.8,0,0,0,0,2.53,1.74,1.74,0,0,0,1.28.52A1.72,1.72,0,0,0,5,131.36,1.71,1.71,0,0,0,5.57,130.11Z"/><path class="cls-4" d="M8.19,128.22a5.73,5.73,0,0,1,1.06-3.62,2.76,2.76,0,0,1,4.59,0,6.94,6.94,0,0,1,0,7.36,2.82,2.82,0,0,1-2.29,1.22A2.85,2.85,0,0,1,9.25,132,5.93,5.93,0,0,1,8.19,128.22Zm1.42,0a5.63,5.63,0,0,0,.55,2.63,1.6,1.6,0,0,0,1.39,1,1.61,1.61,0,0,0,1.39-1,6.3,6.3,0,0,0,0-5.16,1.61,1.61,0,0,0-1.39-1,1.61,1.61,0,0,0-1.39,1A5.26,5.26,0,0,0,9.61,128.22Z"/><path class="cls-4" d="M5.22,100.45H0.54V99.1H7.62l-6,9.83-1.14-.72Z"/><path class="cls-4" d="M8.19,103.79a5.73,5.73,0,0,1,1.06-3.62,2.76,2.76,0,0,1,4.59,0,6.94,6.94,0,0,1,0,7.36,2.82,2.82,0,0,1-2.29,1.22,2.85,2.85,0,0,1-2.3-1.22A5.93,5.93,0,0,1,8.19,103.79Zm1.42,0a5.63,5.63,0,0,0,.55,2.63,1.6,1.6,0,0,0,1.39,1,1.61,1.61,0,0,0,1.39-1,6.3,6.3,0,0,0,0-5.16,1.61,1.61,0,0,0-1.39-1,1.61,1.61,0,0,0-1.39,1A5.26,5.26,0,0,0,9.61,103.79Z"/><path class="cls-4" d="M2.07,79.23a2.33,2.33,0,0,1-1-2,2.59,2.59,0,0,1,.79-1.93,2.74,2.74,0,0,1,2-.78,2.69,2.69,0,0,1,2,.78,2.59,2.59,0,0,1,.79,1.94,2.39,2.39,0,0,1-1,2,2.2,2.2,0,0,1,.9.9,2.62,2.62,0,0,1,.34,1.33,2.77,2.77,0,0,1-.83,2.07,2.9,2.9,0,0,1-2.11.81,3,3,0,0,1-2.17-.81,2.69,2.69,0,0,1-.86-2A2.29,2.29,0,0,1,2.07,79.23ZM2.2,81.42a1.58,1.58,0,0,0,.45,1.13A1.51,1.51,0,0,0,3.77,83a1.51,1.51,0,0,0,1.11-.46,1.59,1.59,0,0,0,0-2.24,1.51,1.51,0,0,0-1.11-.46,1.53,1.53,0,0,0-1.11.46A1.51,1.51,0,0,0,2.2,81.42Zm0.17-4.21A1.42,1.42,0,0,0,3.8,78.65a1.37,1.37,0,0,0,1-.42,1.41,1.41,0,0,0,0-2,1.41,1.41,0,0,0-2,0A1.34,1.34,0,0,0,2.38,77.21Z"/><path class="cls-4" d="M8.19,79.36a5.73,5.73,0,0,1,1.06-3.62,2.76,2.76,0,0,1,4.59,0,6.94,6.94,0,0,1,0,7.36,2.82,2.82,0,0,1-2.29,1.22,2.85,2.85,0,0,1-2.3-1.22A5.93,5.93,0,0,1,8.19,79.36Zm1.42,0A5.63,5.63,0,0,0,10.16,82a1.6,1.6,0,0,0,1.39,1,1.61,1.61,0,0,0,1.39-1,6.3,6.3,0,0,0,0-5.16,1.61,1.61,0,0,0-1.39-1,1.61,1.61,0,0,0-1.39,1A5.26,5.26,0,0,0,9.61,79.37Z"/><line class="cls-5" x1="27.78" y1="251.11" x2="419.22" y2="251.11"/><line class="cls-5" x1="27.78" y1="226.68" x2="419.22" y2="226.68"/><line class="cls-5" x1="27.78" y1="202.25" x2="419.22" y2="202.25"/><line class="cls-5" x1="27.78" y1="177.82" x2="419.22" y2="177.82"/><line class="cls-5" x1="27.78" y1="153.39" x2="419.22" y2="153.39"/><line class="cls-5" x1="27.78" y1="128.96" x2="419.22" y2="128.96"/><line class="cls-5" x1="27.78" y1="104.53" x2="419.22" y2="104.53"/><line class="cls-5" x1="27.78" y1="80.1" x2="419.22" y2="80.1"/><g class="cls-3"><rect class="cls-6" x="51.26" y="155.83" width="70.46" height="119.71"/><rect class="cls-6" x="246.98" y="185.15" width="70.46" height="90.39"/></g><path class="cls-4" d="M296.79,292.58v8.15h-1.43v-8.15h-2.18v-1.35H299v1.35h-2.18Z"/><path class="cls-4" d="M300,292.25a0.9,0.9,0,0,1,.9-0.89,0.87,0.87,0,0,1,.64.26,0.85,0.85,0,0,1,.26.63,0.87,0.87,0,0,1-.26.64,0.85,0.85,0,0,1-.63.26A0.9,0.9,0,0,1,300,292.25Zm1.59,2.49v6h-1.38v-6h1.38Z"/><path class="cls-4" d="M308.81,298.06h-4.29a1.82,1.82,0,0,0,.48,1.17,1.46,1.46,0,0,0,1.09.43,1.42,1.42,0,0,0,.86-0.25,3.51,3.51,0,0,0,.76-0.91l1.17,0.65a4.69,4.69,0,0,1-.57.79,3,3,0,0,1-.65.54,2.61,2.61,0,0,1-.74.31,3.64,3.64,0,0,1-.87.1,2.82,2.82,0,0,1-2.15-.86,3.23,3.23,0,0,1-.81-2.3,3.32,3.32,0,0,1,.79-2.3,3,3,0,0,1,4.2,0,3.31,3.31,0,0,1,.76,2.32v0.33Zm-1.42-1.13a1.33,1.33,0,0,0-1.4-1.11,1.45,1.45,0,0,0-.47.08,1.37,1.37,0,0,0-.4.22,1.44,1.44,0,0,0-.31.35,1.62,1.62,0,0,0-.2.46h2.78Z"/><path class="cls-4" d="M310.32,294.74h1.38v0.54a2.65,2.65,0,0,1,.68-0.55,1.55,1.55,0,0,1,.71-0.15,2.24,2.24,0,0,1,1.14.36l-0.63,1.27a1.33,1.33,0,0,0-.77-0.28q-1.13,0-1.13,1.71v3.11h-1.38v-6Z"/><path class="cls-4" d="M318.52,295.76l-1.14.61a0.79,0.79,0,0,0-.67-0.55,0.46,0.46,0,0,0-.33.13,0.42,0.42,0,0,0-.14.32,1,1,0,0,0,.8.68,4.77,4.77,0,0,1,1.48.87,1.49,1.49,0,0,1,.38,1.08,1.88,1.88,0,0,1-.64,1.45,2.3,2.3,0,0,1-3.64-.92l1.18-.55a2.54,2.54,0,0,0,.38.55,0.86,0.86,0,0,0,.6.23,0.59,0.59,0,0,0,.7-0.64,0.88,0.88,0,0,0-.54-0.69l-0.42-.2-0.42-.2a2.61,2.61,0,0,1-.85-0.59,1.46,1.46,0,0,1-.31-1,1.71,1.71,0,0,1,.54-1.29,1.88,1.88,0,0,1,1.33-.51A1.81,1.81,0,0,1,318.52,295.76Z"/><path class="cls-4" d="M324.81,295v1.84A3.37,3.37,0,0,0,324,296a1.66,1.66,0,0,0-.87-0.22,1.71,1.71,0,0,0-1.3.55,1.92,1.92,0,0,0-.52,1.37,2,2,0,0,0,.5,1.38,1.68,1.68,0,0,0,1.29.54,1.76,1.76,0,0,0,.88-0.21,3.48,3.48,0,0,0,.87-0.81v1.83a3.64,3.64,0,0,1-1.69.44,3.23,3.23,0,0,1-2.33-.9,3,3,0,0,1-.93-2.25,3,3,0,0,1,.95-2.26,3.21,3.21,0,0,1,2.33-.92A3.49,3.49,0,0,1,324.81,295Z"/><path class="cls-4" d="M326.48,290.34h1.38v4.9a2.38,2.38,0,0,1,1.63-.66,2.1,2.1,0,0,1,1.62.66,2.68,2.68,0,0,1,.52,1.83v3.67h-1.38v-3.54a1.69,1.69,0,0,0-.25-1,1,1,0,0,0-.82-0.32,1.13,1.13,0,0,0-1,.45,3.09,3.09,0,0,0-.29,1.56v2.9h-1.38V290.34Z"/><path class="cls-4" d="M334.77,294.74v3.44q0,1.49,1.17,1.49t1.18-1.49v-3.44h1.38v3.47a3.89,3.89,0,0,1-.18,1.24,2.09,2.09,0,0,1-.6.84,2.91,2.91,0,0,1-3.56,0,2.12,2.12,0,0,1-.61-0.84,3.42,3.42,0,0,1-.17-1.24v-3.47h1.38Z"/><path class="cls-4" d="M341.68,296v4.7H340.3V296h-0.59v-1.29h0.59v-2.2h1.38v2.2h1.08V296h-1.08Z"/><path class="cls-4" d="M345.69,299.43h3.56v1.3h-6.31l3.88-4.7h-3.06v-1.29h5.79Z"/><path class="cls-4" d="M72.23,295.79h3.93v0.31a6.48,6.48,0,0,1-.25,1.89,4,4,0,0,1-.83,1.43,4.3,4.3,0,0,1-3.37,1.49,4.63,4.63,0,0,1-3.41-1.44,4.95,4.95,0,0,1,3.54-8.42,4.84,4.84,0,0,1,2.08.45A6,6,0,0,1,75.73,293l-1,1a3.47,3.47,0,0,0-2.85-1.56,3.4,3.4,0,0,0-2.53,1,3.47,3.47,0,0,0-1,2.56,3.57,3.57,0,0,0,3.45,3.57,2.87,2.87,0,0,0,1.9-.71,2.53,2.53,0,0,0,.94-1.72H72.23v-1.35Z"/><path class="cls-4" d="M83.15,298.06H78.86a1.82,1.82,0,0,0,.48,1.17,1.46,1.46,0,0,0,1.09.43,1.42,1.42,0,0,0,.85-0.25,3.51,3.51,0,0,0,.76-0.91l1.17,0.65a4.72,4.72,0,0,1-.57.79,3,3,0,0,1-.65.54,2.62,2.62,0,0,1-.74.31,3.63,3.63,0,0,1-.87.1,2.82,2.82,0,0,1-2.15-.86,3.23,3.23,0,0,1-.81-2.3,3.32,3.32,0,0,1,.79-2.3,3,3,0,0,1,4.2,0,3.32,3.32,0,0,1,.76,2.32v0.33Zm-1.42-1.13a1.33,1.33,0,0,0-1.4-1.11,1.45,1.45,0,0,0-.47.08,1.39,1.39,0,0,0-.4.22,1.41,1.41,0,0,0-.31.35,1.6,1.6,0,0,0-.2.46h2.78Z"/><path class="cls-4" d="M84.67,294.74h1.39v0.55a2.27,2.27,0,0,1,1.64-.72,2.06,2.06,0,0,1,1.63.66,2.69,2.69,0,0,1,.5,1.83v3.67H88.44v-3.34a2.19,2.19,0,0,0-.25-1.22,1,1,0,0,0-.87-0.34,1.07,1.07,0,0,0-1,.45,3.13,3.13,0,0,0-.28,1.57v2.89H84.67v-6Z"/><path class="cls-4" d="M93,296v4.7H91.62V296H91v-1.29h0.59v-2.2H93v2.2h1.08V296H93Z"/><path class="cls-4" d="M100.59,298.06H96.29a1.82,1.82,0,0,0,.48,1.17,1.46,1.46,0,0,0,1.09.43,1.42,1.42,0,0,0,.85-0.25,3.51,3.51,0,0,0,.76-0.91l1.17,0.65a4.72,4.72,0,0,1-.57.79,3,3,0,0,1-.65.54,2.62,2.62,0,0,1-.74.31,3.63,3.63,0,0,1-.87.1,2.82,2.82,0,0,1-2.15-.86,3.23,3.23,0,0,1-.81-2.3,3.32,3.32,0,0,1,.79-2.3,3,3,0,0,1,4.2,0,3.32,3.32,0,0,1,.76,2.32v0.33Zm-1.42-1.13a1.33,1.33,0,0,0-1.4-1.11,1.45,1.45,0,0,0-.47.08,1.39,1.39,0,0,0-.4.22,1.41,1.41,0,0,0-.31.35,1.6,1.6,0,0,0-.2.46h2.78Z"/><path class="cls-4" d="M106.77,295v1.84a3.38,3.38,0,0,0-.85-0.79,1.65,1.65,0,0,0-.87-0.22,1.71,1.71,0,0,0-1.3.55,1.92,1.92,0,0,0-.52,1.37,2,2,0,0,0,.5,1.38,1.68,1.68,0,0,0,1.29.54,1.76,1.76,0,0,0,.88-0.21,3.48,3.48,0,0,0,.87-0.81v1.83a3.64,3.64,0,0,1-1.69.44,3.23,3.23,0,0,1-2.33-.9,3,3,0,0,1-.94-2.25,3,3,0,0,1,.95-2.26,3.2,3.2,0,0,1,2.33-.92A3.48,3.48,0,0,1,106.77,295Z"/><path class="cls-4" d="M108.43,290.34h1.38v4.9a2.38,2.38,0,0,1,1.63-.66,2.11,2.11,0,0,1,1.62.66,2.68,2.68,0,0,1,.52,1.83v3.67h-1.38v-3.54a1.69,1.69,0,0,0-.26-1,1,1,0,0,0-.82-0.32,1.13,1.13,0,0,0-1,.45,3.08,3.08,0,0,0-.29,1.56v2.9h-1.38V290.34Z"/><path class="cls-4" d="M114.47,297.09h2.74v1.21h-2.74v-1.21Z"/><path class="cls-4" d="M118,300.73l2-10.21,3.26,7.38,3.38-7.38,1.8,10.21H127L126.07,295l-2.81,6.17L120.52,295l-1,5.74H118Z"/><path class="cls-4" d="M129.92,297.7a3,3,0,0,1,.93-2.21,3.28,3.28,0,0,1,4.54,0,3.21,3.21,0,0,1,0,4.51,3.17,3.17,0,0,1-2.29.9,3,3,0,0,1-2.26-.92A3.1,3.1,0,0,1,129.92,297.7Zm1.42,0a2,2,0,0,0,.48,1.42,1.87,1.87,0,0,0,2.6,0,2.25,2.25,0,0,0,0-2.79,1.69,1.69,0,0,0-1.3-.53,1.67,1.67,0,0,0-1.29.53A1.93,1.93,0,0,0,131.33,297.72Z"/><path class="cls-4" d="M137.77,294.74h1.38v0.54a2.65,2.65,0,0,1,.68-0.55,1.55,1.55,0,0,1,.71-0.15,2.24,2.24,0,0,1,1.14.36l-0.63,1.27a1.32,1.32,0,0,0-.77-0.28q-1.13,0-1.13,1.71v3.11h-1.38v-6Z"/><path class="cls-4" d="M146.82,294.74h1.39v6h-1.39v-0.63a2.66,2.66,0,0,1-3.89-.1,3.34,3.34,0,0,1-.81-2.29,3.24,3.24,0,0,1,.81-2.25,2.6,2.6,0,0,1,2-.9,2.55,2.55,0,0,1,1.88.86v-0.7Zm-3.29,3a2.09,2.09,0,0,0,.46,1.4,1.51,1.51,0,0,0,1.19.55,1.59,1.59,0,0,0,1.24-.53,2.28,2.28,0,0,0,0-2.78,1.56,1.56,0,0,0-1.23-.54,1.53,1.53,0,0,0-1.19.54A2,2,0,0,0,143.53,297.72Z"/><path class="cls-4" d="M151.38,296v4.7H150V296h-0.59v-1.29H150v-2.2h1.38v2.2h1.08V296h-1.08Z"/><path class="cls-4" d="M153.2,297.7a3,3,0,0,1,.93-2.21,3.28,3.28,0,0,1,4.54,0,3.21,3.21,0,0,1,0,4.51,3.17,3.17,0,0,1-2.29.9,3,3,0,0,1-2.26-.92A3.1,3.1,0,0,1,153.2,297.7Zm1.42,0a2,2,0,0,0,.48,1.42,1.87,1.87,0,0,0,2.6,0,2.25,2.25,0,0,0,0-2.79,1.69,1.69,0,0,0-1.3-.53,1.67,1.67,0,0,0-1.29.53A1.93,1.93,0,0,0,154.62,297.72Z"/><path class="cls-4" d="M161.06,294.74h1.38v0.54a2.65,2.65,0,0,1,.68-0.55,1.55,1.55,0,0,1,.71-0.15,2.24,2.24,0,0,1,1.14.36l-0.63,1.27a1.32,1.32,0,0,0-.77-0.28q-1.13,0-1.13,1.71v3.11h-1.38v-6Z"/><path class="cls-4" d="M165.75,292.25a0.9,0.9,0,0,1,.9-0.89,0.87,0.87,0,0,1,.64.26,0.85,0.85,0,0,1,.26.63,0.87,0.87,0,0,1-.26.64,0.85,0.85,0,0,1-.63.26A0.9,0.9,0,0,1,165.75,292.25Zm1.59,2.49v6H166v-6h1.38Z"/><path class="cls-4" d="M170.49,294.74v3.44q0,1.49,1.18,1.49t1.17-1.49v-3.44h1.38v3.47a3.86,3.86,0,0,1-.18,1.24,2.09,2.09,0,0,1-.6.84,2.91,2.91,0,0,1-3.56,0,2.12,2.12,0,0,1-.61-0.84,3.43,3.43,0,0,1-.17-1.24v-3.47h1.38Z"/><path class="cls-4" d="M176,294.74h1.38v0.55a2.89,2.89,0,0,1,.68-0.57,1.66,1.66,0,0,1,.76-0.15,1.84,1.84,0,0,1,1.61.89,2.08,2.08,0,0,1,1.77-.89q2,0,2,2.45v3.7H182.8v-3.33a2.58,2.58,0,0,0-.21-1.22,0.76,0.76,0,0,0-.71-0.36,0.9,0.9,0,0,0-.83.43,2.77,2.77,0,0,0-.26,1.38v3.09h-1.39v-3.31q0-1.6-.92-1.6a0.93,0.93,0,0,0-.85.44,2.72,2.72,0,0,0-.27,1.38v3.09H176v-6Z"/><g class="cls-7"><line class="cls-8" x1="129.17" y1="343.78" x2="208.37" y2="264.59"/><line class="cls-8" x1="129.17" y1="335.38" x2="208.37" y2="256.19"/><line class="cls-8" x1="129.17" y1="326.98" x2="208.37" y2="247.79"/><line class="cls-8" x1="129.17" y1="318.58" x2="208.37" y2="239.39"/><line class="cls-8" x1="129.17" y1="310.18" x2="208.37" y2="230.99"/><line class="cls-8" x1="129.17" y1="301.78" x2="208.37" y2="222.59"/><line class="cls-8" x1="129.17" y1="293.38" x2="208.37" y2="214.19"/><line class="cls-8" x1="129.17" y1="284.98" x2="208.37" y2="205.79"/><line class="cls-8" x1="129.17" y1="276.58" x2="208.37" y2="197.39"/><line class="cls-8" x1="129.17" y1="268.18" x2="208.37" y2="188.99"/><line class="cls-8" x1="129.17" y1="259.78" x2="208.37" y2="180.59"/><line class="cls-8" x1="129.17" y1="251.38" x2="208.37" y2="172.19"/><line class="cls-8" x1="129.17" y1="242.98" x2="208.37" y2="163.79"/><line class="cls-8" x1="129.17" y1="234.58" x2="208.37" y2="155.39"/><line class="cls-8" x1="129.17" y1="226.18" x2="208.37" y2="146.99"/><line class="cls-8" x1="129.17" y1="217.78" x2="208.37" y2="138.59"/><line class="cls-8" x1="129.17" y1="209.38" x2="208.37" y2="130.19"/><line class="cls-8" x1="129.17" y1="200.98" x2="208.37" y2="121.79"/><line class="cls-8" x1="129.17" y1="192.58" x2="208.37" y2="113.39"/><line class="cls-8" x1="129.17" y1="184.18" x2="208.37" y2="104.99"/><line class="cls-8" x1="129.17" y1="175.78" x2="208.37" y2="96.59"/><line class="cls-8" x1="129.17" y1="167.38" x2="208.37" y2="88.19"/><line class="cls-8" x1="129.17" y1="158.98" x2="208.37" y2="79.79"/><line class="cls-8" x1="129.17" y1="150.58" x2="208.37" y2="71.39"/><line class="cls-8" x1="129.17" y1="142.18" x2="208.37" y2="62.99"/><line class="cls-8" x1="129.17" y1="133.78" x2="208.37" y2="54.59"/><line class="cls-8" x1="129.17" y1="125.38" x2="208.37" y2="46.19"/></g><g class="cls-9"><line class="cls-8" x1="325.2" y1="345.18" x2="404.39" y2="265.99"/><line class="cls-8" x1="325.2" y1="336.78" x2="404.39" y2="257.59"/><line class="cls-8" x1="325.2" y1="328.38" x2="404.39" y2="249.19"/><line class="cls-8" x1="325.2" y1="319.98" x2="404.39" y2="240.79"/><line class="cls-8" x1="325.2" y1="311.58" x2="404.39" y2="232.39"/><line class="cls-8" x1="325.2" y1="303.18" x2="404.39" y2="223.99"/><line class="cls-8" x1="325.2" y1="294.78" x2="404.39" y2="215.59"/><line class="cls-8" x1="325.2" y1="286.38" x2="404.39" y2="207.19"/><line class="cls-8" x1="325.2" y1="277.98" x2="404.39" y2="198.79"/><line class="cls-8" x1="325.2" y1="269.58" x2="404.39" y2="190.39"/><line class="cls-8" x1="325.2" y1="261.18" x2="404.39" y2="181.99"/><line class="cls-8" x1="325.2" y1="252.78" x2="404.39" y2="173.59"/><line class="cls-8" x1="325.2" y1="244.38" x2="404.39" y2="165.19"/><line class="cls-8" x1="325.2" y1="235.98" x2="404.39" y2="156.79"/><line class="cls-8" x1="325.2" y1="227.58" x2="404.39" y2="148.39"/><line class="cls-8" x1="325.2" y1="219.18" x2="404.39" y2="139.99"/><line class="cls-8" x1="325.2" y1="210.78" x2="404.39" y2="131.59"/><line class="cls-8" x1="325.2" y1="202.38" x2="404.39" y2="123.19"/><line class="cls-8" x1="325.2" y1="193.98" x2="404.39" y2="114.79"/><line class="cls-8" x1="325.2" y1="185.58" x2="404.39" y2="106.39"/><line class="cls-8" x1="325.2" y1="177.18" x2="404.39" y2="97.99"/><line class="cls-8" x1="325.2" y1="168.78" x2="404.39" y2="89.59"/><line class="cls-8" x1="325.2" y1="160.38" x2="404.39" y2="81.19"/><line class="cls-8" x1="325.2" y1="151.98" x2="404.39" y2="72.79"/></g><line class="cls-10" x1="28.49" y1="275.54" x2="419.37" y2="275.54"/><g class="cls-11"><line class="cls-12" x1="216.88" y1="69.91" x2="255.68" y2="31.1"/><line class="cls-12" x1="216.88" y1="65.79" x2="255.68" y2="26.98"/><line class="cls-12" x1="216.88" y1="61.67" x2="255.68" y2="22.87"/><line class="cls-12" x1="216.88" y1="57.56" x2="255.68" y2="18.75"/><line class="cls-12" x1="216.88" y1="53.44" x2="255.68" y2="14.64"/><line class="cls-12" x1="216.88" y1="49.33" x2="255.68" y2="10.52"/></g><rect class="cls-2" x="217.22" y="48.84" width="10.29" height="10.29"/><path class="cls-4" d="M236.14,51.54h-2.32v1.6h2.24v0.94h-2.24v3.17h-1V50.6h3.32v0.94Z"/><path class="cls-4" d="M237,53.06h1v0.37a1.86,1.86,0,0,1,.47-0.38,1.09,1.09,0,0,1,.5-0.11,1.57,1.57,0,0,1,.8.25l-0.44.89a0.93,0.93,0,0,0-.54-0.2q-0.79,0-.79,1.2v2.18h-1V53.06Z"/><path class="cls-4" d="M243.36,53.06h1v4.19h-1V56.81a1.86,1.86,0,0,1-2.73-.07,2.34,2.34,0,0,1-.56-1.6,2.27,2.27,0,0,1,.56-1.57,1.82,1.82,0,0,1,1.41-.63,1.78,1.78,0,0,1,1.31.6V53.06Zm-2.3,2.08a1.46,1.46,0,0,0,.32,1,1.06,1.06,0,0,0,.84.38,1.11,1.11,0,0,0,.87-0.37,1.59,1.59,0,0,0,0-1.95,1.09,1.09,0,0,0-.86-0.37,1.07,1.07,0,0,0-.84.38A1.4,1.4,0,0,0,241.06,55.14Z"/><path class="cls-4" d="M246.53,53.06v2.41a0.85,0.85,0,1,0,1.65,0V53.06h1v2.43a2.72,2.72,0,0,1-.12.87,1.46,1.46,0,0,1-.42.59,2,2,0,0,1-2.49,0,1.49,1.49,0,0,1-.43-0.59,2.4,2.4,0,0,1-.12-0.87V53.06h1Z"/><path class="cls-4" d="M254.19,55.38h-3a1.27,1.27,0,0,0,.34.82,1,1,0,0,0,.76.3,1,1,0,0,0,.6-0.17,2.46,2.46,0,0,0,.53-0.64l0.82,0.46a3.29,3.29,0,0,1-.4.55,2.11,2.11,0,0,1-.45.38,1.83,1.83,0,0,1-.52.22,2.55,2.55,0,0,1-.61.07,2,2,0,0,1-1.51-.6,2.26,2.26,0,0,1-.57-1.61,2.33,2.33,0,0,1,.55-1.61,2.1,2.1,0,0,1,2.94,0,2.32,2.32,0,0,1,.53,1.62v0.23Zm-1-.79a0.93,0.93,0,0,0-1-.78,1,1,0,0,0-.33.05,1,1,0,0,0-.28.16,1,1,0,0,0-.22.24,1.13,1.13,0,0,0-.14.32h1.95Z"/><path class="cls-4" d="M255.24,53.06h1v0.39a1.59,1.59,0,0,1,1.15-.5,1.45,1.45,0,0,1,1.14.46,1.89,1.89,0,0,1,.35,1.28v2.57h-1V54.91a1.53,1.53,0,0,0-.17-0.86,0.69,0.69,0,0,0-.61-0.24,0.75,0.75,0,0,0-.68.32,2.19,2.19,0,0,0-.2,1.1v2h-1V53.06Z"/><rect class="cls-13" x="160.51" y="48.21" width="10.29" height="10.29"/><path class="cls-4" d="M175.88,56.78l1.4-7.15,2.28,5.17,2.36-5.17,1.26,7.15h-1l-0.64-4-2,4.32-1.91-4.32-0.71,4h-1Z"/><path class="cls-4" d="M187.5,52.58h1v4.19h-1V56.34a1.86,1.86,0,0,1-2.73-.07,2.34,2.34,0,0,1-.56-1.6,2.27,2.27,0,0,1,.56-1.57,1.82,1.82,0,0,1,1.41-.63,1.78,1.78,0,0,1,1.31.6V52.58ZM185,51.25a0.57,0.57,0,0,1,.18-0.43,0.61,0.61,0,0,1,.87,0,0.58,0.58,0,0,1,.18.43,0.6,0.6,0,0,1-.18.44,0.62,0.62,0,0,1-.43.18,0.6,0.6,0,0,1-.44-0.18A0.62,0.62,0,0,1,185,51.25Zm0.25,3.42a1.46,1.46,0,0,0,.32,1,1.06,1.06,0,0,0,.84.38,1.11,1.11,0,0,0,.87-0.37,1.59,1.59,0,0,0,0-1.95,1.09,1.09,0,0,0-.86-0.37,1.07,1.07,0,0,0-.84.38A1.4,1.4,0,0,0,185.2,54.67Zm1.55-3.42a0.57,0.57,0,0,1,.18-0.43,0.6,0.6,0,0,1,.43-0.18,0.58,0.58,0,0,1,.43.18,0.58,0.58,0,0,1,.18.43,0.6,0.6,0,0,1-.18.44,0.62,0.62,0,0,1-.43.18A0.62,0.62,0,0,1,186.75,51.25Z"/><path class="cls-4" d="M189.69,52.58h1V53a1.59,1.59,0,0,1,1.15-.5,1.45,1.45,0,0,1,1.14.46,1.89,1.89,0,0,1,.35,1.28v2.57h-1V54.44a1.53,1.53,0,0,0-.17-0.86,0.69,0.69,0,0,0-.61-0.24,0.75,0.75,0,0,0-.68.32,2.19,2.19,0,0,0-.2,1.1v2h-1V52.58Z"/><path class="cls-4" d="M194.53,52.58h1V53a1.59,1.59,0,0,1,1.15-.5,1.45,1.45,0,0,1,1.14.46,1.89,1.89,0,0,1,.35,1.28v2.57h-1V54.44a1.53,1.53,0,0,0-.17-0.86,0.69,0.69,0,0,0-.61-0.24,0.75,0.75,0,0,0-.68.32,2.19,2.19,0,0,0-.2,1.1v2h-1V52.58Z"/><path class="cls-4" d="M203.19,54.91h-3a1.27,1.27,0,0,0,.34.82,1,1,0,0,0,.76.3,1,1,0,0,0,.6-0.17,2.46,2.46,0,0,0,.53-0.64l0.82,0.46a3.29,3.29,0,0,1-.4.55,2.11,2.11,0,0,1-.45.38,1.83,1.83,0,0,1-.52.22,2.55,2.55,0,0,1-.61.07,2,2,0,0,1-1.51-.6,2.26,2.26,0,0,1-.57-1.61,2.33,2.33,0,0,1,.55-1.61,2.1,2.1,0,0,1,2.94,0,2.32,2.32,0,0,1,.53,1.62v0.23Zm-1-.79a0.93,0.93,0,0,0-1-.78,1,1,0,0,0-.33.05,1,1,0,0,0-.28.16,1,1,0,0,0-.22.24,1.13,1.13,0,0,0-.14.32h1.95Z"/><path class="cls-4" d="M204.24,52.58h1V53a1.86,1.86,0,0,1,.47-0.38,1.09,1.09,0,0,1,.5-0.11,1.57,1.57,0,0,1,.8.25l-0.44.89a0.93,0.93,0,0,0-.54-0.2q-0.79,0-.79,1.2v2.18h-1V52.58Z"/><path class="cls-4" d="M16.59,24.9l3.13,7.84,3.17-7.84h1.87L19.68,37.06l-5-12.16h1.87Z"/><path class="cls-4" d="M24.59,32.59A3.55,3.55,0,0,1,25.7,30a3.9,3.9,0,0,1,5.41,0,3.82,3.82,0,0,1,0,5.37,3.78,3.78,0,0,1-2.73,1.08,3.63,3.63,0,0,1-2.69-1.1A3.69,3.69,0,0,1,24.59,32.59Zm1.68,0a2.41,2.41,0,0,0,.57,1.69,2.22,2.22,0,0,0,3.09,0,2.68,2.68,0,0,0,0-3.33,2.19,2.19,0,0,0-3.08,0A2.29,2.29,0,0,0,26.28,32.62Z"/><path class="cls-4" d="M35.59,23.84V36.21H33.95V23.84h1.65Z"/><path class="cls-4" d="M39.33,23.84v7.54l2.32-2.31h2.21l-3.1,3,3.33,4.14H42l-2.36-3-0.26.26v2.75H37.68V23.84h1.65Z"/><path class="cls-4" d="M49.3,30.29L47.94,31a0.94,0.94,0,0,0-.8-0.65,0.55,0.55,0,0,0-.39.15,0.5,0.5,0,0,0-.16.38,1.24,1.24,0,0,0,1,.81,5.69,5.69,0,0,1,1.77,1A1.78,1.78,0,0,1,49.76,34,2.24,2.24,0,0,1,49,35.76a2.73,2.73,0,0,1-4.33-1.09L46.08,34a3,3,0,0,0,.45.65,1,1,0,0,0,.72.28,0.71,0.71,0,0,0,.84-0.76,1,1,0,0,0-.64-0.82l-0.5-.24-0.51-.24a3.09,3.09,0,0,1-1-.7A1.73,1.73,0,0,1,45,31a2,2,0,0,1,.64-1.54,2.24,2.24,0,0,1,1.58-.61A2.16,2.16,0,0,1,49.3,30.29Z"/><path class="cls-4" d="M51,26.11A1.07,1.07,0,0,1,52.06,25a1,1,0,0,1,.76.31,1,1,0,0,1,.32.75,1,1,0,0,1-.32.76,1,1,0,0,1-.75.32A1.08,1.08,0,0,1,51,26.11Zm1.9,3v7.13H51.24V29.08h1.65Z"/><path class="cls-4" d="M55,29.08h1.66v0.66a2.7,2.7,0,0,1,1.95-.86,2.46,2.46,0,0,1,1.94.78,3.21,3.21,0,0,1,.6,2.17v4.37H59.46v-4a2.6,2.6,0,0,0-.29-1.46,1.18,1.18,0,0,0-1-.41,1.27,1.27,0,0,0-1.17.54,3.72,3.72,0,0,0-.34,1.87v3.44H55V29.08Z"/><path class="cls-4" d="M63,26.11A1.07,1.07,0,0,1,64,25a1,1,0,0,1,.76.31,1,1,0,0,1,.32.75,1,1,0,0,1-.32.76,1,1,0,0,1-.75.32A1.08,1.08,0,0,1,63,26.11Zm1.9,3v7.13H63.2V29.08h1.65Z"/><path class="cls-4" d="M68.64,30.61v5.6H67v-5.6h-0.7V29.08H67V26.46h1.65v2.61h1.28v1.54H68.64Z"/><path class="cls-4" d="M70.79,26.11A1.07,1.07,0,0,1,71.86,25a1,1,0,0,1,.76.31,1,1,0,0,1,.32.75,1,1,0,0,1-.32.76,1,1,0,0,1-.75.32A1.08,1.08,0,0,1,70.79,26.11Zm1.9,3v7.13H71V29.08h1.65Z"/><path class="cls-4" d="M80,29.08h1.66v7.13H80V35.46a3.17,3.17,0,0,1-4.64-.12,4,4,0,0,1-1-2.72,3.85,3.85,0,0,1,1-2.67,3.09,3.09,0,0,1,2.4-1.07,3,3,0,0,1,2.23,1V29.08Zm-3.91,3.54a2.48,2.48,0,0,0,.55,1.67,1.8,1.8,0,0,0,1.42.65,1.89,1.89,0,0,0,1.48-.63,2.71,2.71,0,0,0,0-3.31,1.86,1.86,0,0,0-1.46-.64,1.82,1.82,0,0,0-1.42.64A2.38,2.38,0,0,0,76.12,32.62Z"/><path class="cls-4" d="M85.47,30.61v5.6H83.82v-5.6h-0.7V29.08h0.7V26.46h1.65v2.61h1.28v1.54H85.47Z"/><path class="cls-4" d="M87.62,26.11A1.07,1.07,0,0,1,88.69,25a1,1,0,0,1,.76.31,1,1,0,0,1,.32.75,1,1,0,0,1-.32.76,1,1,0,0,1-.75.32A1.08,1.08,0,0,1,87.62,26.11Zm1.9,3v7.13H87.87V29.08h1.65Z"/><path class="cls-4" d="M92.49,29.08l1.85,4,1.84-4H98L94.32,36.7l-3.68-7.62h1.85Z"/><path class="cls-4" d="M105.38,33h-5.11a2.17,2.17,0,0,0,.57,1.4,1.74,1.74,0,0,0,1.3.51,1.68,1.68,0,0,0,1-.29,4.15,4.15,0,0,0,.9-1.08l1.39,0.78a5.6,5.6,0,0,1-.68.94,3.62,3.62,0,0,1-.77.64,3.07,3.07,0,0,1-.89.37,4.31,4.31,0,0,1-1,.12,3.36,3.36,0,0,1-2.56-1,3.85,3.85,0,0,1-1-2.74,4,4,0,0,1,.94-2.74,3.57,3.57,0,0,1,5,0,4,4,0,0,1,.91,2.76V33Zm-1.69-1.35A1.58,1.58,0,0,0,102,30.37a1.69,1.69,0,0,0-.56.09,1.59,1.59,0,0,0-.48.26,1.67,1.67,0,0,0-.37.41,1.94,1.94,0,0,0-.23.55h3.31Z"/><path class="cls-4" d="M107.18,29.08h1.66v0.66a2.7,2.7,0,0,1,1.95-.86,2.46,2.46,0,0,1,1.94.78,3.21,3.21,0,0,1,.6,2.17v4.37h-1.66v-4a2.6,2.6,0,0,0-.29-1.46,1.18,1.18,0,0,0-1-.41,1.27,1.27,0,0,0-1.17.54,3.72,3.72,0,0,0-.34,1.87v3.44h-1.66V29.08Z"/><path class="cls-4" d="M120,36.21l2.38-12.16,3.88,8.79,4-8.79,2.14,12.16h-1.75l-1.09-6.83-3.35,7.35-3.25-7.35-1.22,6.83H120Z"/><path class="cls-4" d="M134.12,32.59A3.55,3.55,0,0,1,135.23,30a3.9,3.9,0,0,1,5.41,0,3.82,3.82,0,0,1,0,5.37,3.78,3.78,0,0,1-2.73,1.08,3.63,3.63,0,0,1-2.69-1.1A3.69,3.69,0,0,1,134.12,32.59Zm1.68,0a2.41,2.41,0,0,0,.57,1.69,2.22,2.22,0,0,0,3.09,0,2.68,2.68,0,0,0,0-3.33,2.19,2.19,0,0,0-3.08,0A2.29,2.29,0,0,0,135.81,32.62Z"/><path class="cls-4" d="M143.47,29.08h1.65v0.64a3.15,3.15,0,0,1,.81-0.65,1.84,1.84,0,0,1,.85-0.18,2.66,2.66,0,0,1,1.36.43l-0.75,1.51a1.58,1.58,0,0,0-.92-0.34q-1.35,0-1.35,2v3.7h-1.65V29.08Z"/><path class="cls-4" d="M154.24,29.08h1.66v7.13h-1.66V35.46a3.17,3.17,0,0,1-4.64-.12,4,4,0,0,1-1-2.72,3.85,3.85,0,0,1,1-2.67,3.09,3.09,0,0,1,2.4-1.07,3,3,0,0,1,2.23,1V29.08Zm-3.91,3.54a2.48,2.48,0,0,0,.55,1.67,1.8,1.8,0,0,0,1.42.65,1.89,1.89,0,0,0,1.48-.63,2.71,2.71,0,0,0,0-3.31,1.86,1.86,0,0,0-1.46-.64,1.82,1.82,0,0,0-1.42.64A2.38,2.38,0,0,0,150.33,32.62Z"/><path class="cls-4" d="M159.67,30.61v5.6H158v-5.6h-0.7V29.08H158V26.46h1.65v2.61H161v1.54h-1.28Z"/><path class="cls-4" d="M161.84,32.59A3.55,3.55,0,0,1,162.95,30a3.9,3.9,0,0,1,5.41,0,3.82,3.82,0,0,1,0,5.37,3.78,3.78,0,0,1-2.73,1.08,3.63,3.63,0,0,1-2.69-1.1A3.69,3.69,0,0,1,161.84,32.59Zm1.68,0a2.41,2.41,0,0,0,.57,1.69,2.22,2.22,0,0,0,3.09,0,2.68,2.68,0,0,0,0-3.33,2.19,2.19,0,0,0-3.08,0A2.29,2.29,0,0,0,163.53,32.62Z"/><path class="cls-4" d="M171.2,29.08h1.65v0.64a3.15,3.15,0,0,1,.81-0.65,1.84,1.84,0,0,1,.85-0.18,2.66,2.66,0,0,1,1.36.43l-0.75,1.51a1.58,1.58,0,0,0-.92-0.34q-1.35,0-1.35,2v3.7H171.2V29.08Z"/><path class="cls-4" d="M176.78,26.11A1.07,1.07,0,0,1,177.85,25a1,1,0,0,1,.76.31,1,1,0,0,1,.32.75,1,1,0,0,1-.32.76,1,1,0,0,1-.75.32A1.08,1.08,0,0,1,176.78,26.11Zm1.9,3v7.13H177V29.08h1.65Z"/><path class="cls-4" d="M182.42,29.08v4.09q0,1.77,1.4,1.77t1.4-1.77V29.08h1.65v4.13a4.62,4.62,0,0,1-.21,1.48,2.5,2.5,0,0,1-.71,1,3.46,3.46,0,0,1-4.24,0,2.52,2.52,0,0,1-.73-1,4.08,4.08,0,0,1-.21-1.48V29.08h1.65Z"/><path class="cls-4" d="M188.94,29.08h1.65v0.66a3.44,3.44,0,0,1,.81-0.67,2,2,0,0,1,.9-0.18,2.19,2.19,0,0,1,1.91,1.05,2.47,2.47,0,0,1,2.1-1.05q2.41,0,2.41,2.92v4.41h-1.66v-4a3.05,3.05,0,0,0-.25-1.45,0.9,0.9,0,0,0-.84-0.43,1.08,1.08,0,0,0-1,.51,3.31,3.31,0,0,0-.31,1.65v3.68H193V32.27q0-1.9-1.1-1.9a1.1,1.1,0,0,0-1,.52,3.23,3.23,0,0,0-.32,1.64v3.68h-1.65V29.08Z"/><path class="cls-4" d="M207.35,23.71l1.52,0.59a18.77,18.77,0,0,0-1.12,3.53,16.6,16.6,0,0,0-.24,1.72q-0.08.91-.08,2t0.08,2a16.53,16.53,0,0,0,.24,1.72,18.14,18.14,0,0,0,1.12,3.52l-1.52.59a17.89,17.89,0,0,1-1.6-7.81A17.9,17.9,0,0,1,207.35,23.71Z"/><path class="cls-4" d="M214,26.5h-2l0.94-1.6h2.72V36.21H214V26.5Z"/><path class="cls-4" d="M221.3,36.6L220,35.67l2.7-3.68-0.37,0h-0.25a3.18,3.18,0,0,1-2.37-1,3.49,3.49,0,0,1-1-2.5,3.79,3.79,0,0,1,3.77-3.78,3.75,3.75,0,0,1,2.69,1.1,3.45,3.45,0,0,1,1.14,2.58,5,5,0,0,1-1.11,2.85Zm-0.88-8.23A2.08,2.08,0,0,0,221,29.9a2.14,2.14,0,1,0,0-3A2,2,0,0,0,220.42,28.37Z"/><path class="cls-4" d="M230.56,36.6l-1.25-.93L232,32l-0.37,0h-0.25A3.18,3.18,0,0,1,229,31a3.49,3.49,0,0,1-1-2.5,3.79,3.79,0,0,1,3.77-3.78,3.75,3.75,0,0,1,2.69,1.1,3.45,3.45,0,0,1,1.14,2.58,5,5,0,0,1-1.11,2.85Zm-0.88-8.23a2.08,2.08,0,0,0,.62,1.54,2.14,2.14,0,1,0,0-3A2,2,0,0,0,229.68,28.37Z"/><path class="cls-4" d="M237.08,30.48a6.82,6.82,0,0,1,1.26-4.31,3.29,3.29,0,0,1,5.46,0,7,7,0,0,1,1.26,4.39,6.94,6.94,0,0,1-1.26,4.38,3.36,3.36,0,0,1-2.72,1.46,3.39,3.39,0,0,1-2.74-1.46A7.06,7.06,0,0,1,237.08,30.48Zm1.69,0a6.71,6.71,0,0,0,.65,3.13,1.74,1.74,0,0,0,3.32,0,6.4,6.4,0,0,0,.66-3.07,6.45,6.45,0,0,0-.66-3.08,1.74,1.74,0,0,0-3.31,0A6.26,6.26,0,0,0,238.77,30.49Z"/><path class="cls-4" d="M248.25,39.34l-1.52-.59a18.14,18.14,0,0,0,1.12-3.52,18.61,18.61,0,0,0,.33-3.71,18.66,18.66,0,0,0-.33-3.7,18.77,18.77,0,0,0-1.12-3.53l1.52-.59a18,18,0,0,1,1.6,7.82A18,18,0,0,1,248.25,39.34Z"/><path class="cls-4" d="M258.52,29.08v4.09q0,1.77,1.4,1.77t1.4-1.77V29.08H263v4.13a4.62,4.62,0,0,1-.21,1.48,2.5,2.5,0,0,1-.71,1,3.46,3.46,0,0,1-4.24,0,2.52,2.52,0,0,1-.73-1,4.08,4.08,0,0,1-.21-1.48V29.08h1.65Z"/><path class="cls-4" d="M265,29.08h1.66v0.66a2.7,2.7,0,0,1,1.95-.86,2.46,2.46,0,0,1,1.94.78,3.21,3.21,0,0,1,.6,2.17v4.37h-1.66v-4a2.6,2.6,0,0,0-.29-1.46,1.18,1.18,0,0,0-1-.41,1.27,1.27,0,0,0-1.17.54,3.72,3.72,0,0,0-.34,1.87v3.44H265V29.08Z"/><path class="cls-4" d="M278.52,23.84h1.66V36.21h-1.66V35.46a3.08,3.08,0,0,1-2.21,1,3.14,3.14,0,0,1-2.43-1.07,4,4,0,0,1-1-2.72,3.84,3.84,0,0,1,1-2.67,3.08,3.08,0,0,1,4.64-.05V23.84Zm-3.91,8.78a2.48,2.48,0,0,0,.55,1.67,1.8,1.8,0,0,0,1.42.65,1.89,1.89,0,0,0,1.48-.63,2.71,2.71,0,0,0,0-3.31,1.86,1.86,0,0,0-1.46-.64,1.82,1.82,0,0,0-1.42.64A2.38,2.38,0,0,0,274.61,32.62Z"/><path class="cls-4" d="M290.32,26.5v9.71h-1.71V26.5H286V24.9h6.9v1.6h-2.59Z"/><path class="cls-4" d="M294.15,26.11A1.07,1.07,0,0,1,295.22,25a1,1,0,0,1,.76.31,1,1,0,0,1,.32.75,1,1,0,0,1-.32.76,1,1,0,0,1-.75.32A1.08,1.08,0,0,1,294.15,26.11Zm1.9,3v7.13H294.4V29.08H296Z"/><path class="cls-4" d="M304.63,33h-5.11a2.17,2.17,0,0,0,.57,1.4,1.74,1.74,0,0,0,1.3.51,1.68,1.68,0,0,0,1-.29,4.15,4.15,0,0,0,.9-1.08l1.39,0.78a5.6,5.6,0,0,1-.68.94,3.62,3.62,0,0,1-.77.64,3.07,3.07,0,0,1-.89.37,4.31,4.31,0,0,1-1,.12,3.36,3.36,0,0,1-2.56-1,3.85,3.85,0,0,1-1-2.74,4,4,0,0,1,.94-2.74,3.57,3.57,0,0,1,5,0,4,4,0,0,1,.91,2.76V33Zm-1.69-1.35a1.58,1.58,0,0,0-1.66-1.32,1.69,1.69,0,0,0-.56.09,1.59,1.59,0,0,0-.48.26,1.67,1.67,0,0,0-.37.41,1.94,1.94,0,0,0-.23.55h3.31Z"/><path class="cls-4" d="M306.43,29.08h1.65v0.64a3.15,3.15,0,0,1,.81-0.65,1.84,1.84,0,0,1,.85-0.18,2.66,2.66,0,0,1,1.36.43l-0.75,1.51a1.58,1.58,0,0,0-.92-0.34q-1.35,0-1.35,2v3.7h-1.65V29.08Z"/><path class="cls-4" d="M316.19,30.29l-1.36.72a0.94,0.94,0,0,0-.8-0.65,0.55,0.55,0,0,0-.39.15,0.5,0.5,0,0,0-.16.38,1.24,1.24,0,0,0,1,.81,5.69,5.69,0,0,1,1.77,1,1.78,1.78,0,0,1,.45,1.28,2.24,2.24,0,0,1-.76,1.73,2.73,2.73,0,0,1-4.33-1.09L313,34a3,3,0,0,0,.45.65,1,1,0,0,0,.72.28,0.71,0.71,0,0,0,.84-0.76,1,1,0,0,0-.64-0.82l-0.5-.24-0.51-.24a3.09,3.09,0,0,1-1-.7,1.73,1.73,0,0,1-.37-1.15,2,2,0,0,1,.64-1.54,2.24,2.24,0,0,1,1.58-.61A2.16,2.16,0,0,1,316.19,30.29Z"/><path class="cls-4" d="M323.68,29.38v2.19a4,4,0,0,0-1-.94,2,2,0,0,0-1-.26,2,2,0,0,0-1.55.65,2.29,2.29,0,0,0-.62,1.63,2.34,2.34,0,0,0,.59,1.65,2,2,0,0,0,1.53.64,2.09,2.09,0,0,0,1-.26,4.15,4.15,0,0,0,1-1V35.9a4.34,4.34,0,0,1-2,.52,3.84,3.84,0,0,1-2.77-1.07,3.57,3.57,0,0,1-1.11-2.67,3.62,3.62,0,0,1,1.13-2.7,3.82,3.82,0,0,1,2.77-1.1A4.14,4.14,0,0,1,323.68,29.38Z"/><path class="cls-4" d="M325.66,23.84h1.65v5.83a2.84,2.84,0,0,1,1.94-.79,2.51,2.51,0,0,1,1.93.78,3.19,3.19,0,0,1,.62,2.17v4.37h-1.65V32a2,2,0,0,0-.3-1.24,1.17,1.17,0,0,0-1-.38,1.35,1.35,0,0,0-1.22.53,3.67,3.67,0,0,0-.34,1.86v3.45h-1.65V23.84Z"/><path class="cls-4" d="M335.53,29.08v4.09q0,1.77,1.4,1.77t1.4-1.77V29.08H340v4.13a4.62,4.62,0,0,1-.21,1.48,2.5,2.5,0,0,1-.71,1,3.46,3.46,0,0,1-4.24,0,2.52,2.52,0,0,1-.73-1,4.08,4.08,0,0,1-.21-1.48V29.08h1.65Z"/><path class="cls-4" d="M343.76,30.61v5.6h-1.65v-5.6h-0.7V29.08h0.7V26.46h1.65v2.61H345v1.54h-1.28Z"/><path class="cls-4" d="M348.53,34.66h4.24v1.55h-7.51l4.62-5.6h-3.64V29.08h6.9Z"/><path class="cls-4" d="M360.86,23.71l1.52,0.59a18.77,18.77,0,0,0-1.12,3.53,16.6,16.6,0,0,0-.24,1.72q-0.08.91-.08,2t0.08,2a16.53,16.53,0,0,0,.24,1.72,18.14,18.14,0,0,0,1.12,3.52l-1.52.59a17.89,17.89,0,0,1-1.6-7.81A17.9,17.9,0,0,1,360.86,23.71Z"/><path class="cls-4" d="M367.46,26.5h-2l0.94-1.6h2.72V36.21h-1.71V26.5Z"/><path class="cls-4" d="M374.81,36.6l-1.25-.93,2.7-3.68-0.37,0h-0.25a3.18,3.18,0,0,1-2.37-1,3.49,3.49,0,0,1-1-2.5A3.79,3.79,0,0,1,376,24.71a3.75,3.75,0,0,1,2.69,1.1,3.45,3.45,0,0,1,1.14,2.58,5,5,0,0,1-1.11,2.85Zm-0.88-8.23a2.08,2.08,0,0,0,.62,1.54,2.14,2.14,0,1,0,0-3A2,2,0,0,0,373.93,28.37Z"/><path class="cls-4" d="M384.07,36.6l-1.25-.93,2.7-3.68-0.37,0h-0.25a3.18,3.18,0,0,1-2.37-1,3.49,3.49,0,0,1-1-2.5,3.79,3.79,0,0,1,3.77-3.78,3.75,3.75,0,0,1,2.69,1.1,3.45,3.45,0,0,1,1.14,2.58A5,5,0,0,1,388,31.24Zm-0.88-8.23a2.08,2.08,0,0,0,.62,1.54,2.14,2.14,0,1,0,0-3A2,2,0,0,0,383.19,28.37Z"/><path class="cls-4" d="M393.71,34.61h4.21v1.6h-7.6l3.93-4.75q0.58-.71,1-1.23a9.35,9.35,0,0,0,.6-0.87,2.46,2.46,0,0,0,.42-1.24,1.76,1.76,0,0,0-.56-1.33,1.91,1.91,0,0,0-1.38-.53q-1.71,0-2,2h-1.7q0.41-3.57,3.61-3.57a3.65,3.65,0,0,1,2.59,1,3.19,3.19,0,0,1,1.05,2.43,3.69,3.69,0,0,1-.49,1.81,8.88,8.88,0,0,1-.73,1.1q-0.48.63-1.21,1.5Z"/><path class="cls-4" d="M401.75,39.34l-1.52-.59a18.14,18.14,0,0,0,1.12-3.52,18.61,18.61,0,0,0,.33-3.71,18.66,18.66,0,0,0-.33-3.7,18.77,18.77,0,0,0-1.12-3.53l1.52-.59a18,18,0,0,1,1.6,7.82A18,18,0,0,1,401.75,39.34Z"/><polygon class="cls-14" points="244.74 107.51 319.88 107.51 319.88 122.2 319.88 131.66 319.88 149.91 319.88 164.69 311.63 149.91 244.74 149.91 244.74 107.51"/><path class="cls-4" d="M272,119.5h-1.37l0.66-1.12h1.91v7.92H272V119.5Z"/><path class="cls-4" d="M280,124.09h0.84v1.09H280v1.12h-1.19v-1.12h-3.89l5.08-7.38v6.3Zm-1.19,0v-2.65L277,124.09h1.83Z"/><path class="cls-4" d="M281.68,120.14a1.73,1.73,0,0,1,.57-1.29,1.89,1.89,0,0,1,1.34-.55,1.85,1.85,0,0,1,1.34.55,1.82,1.82,0,0,1,0,2.63,1.88,1.88,0,0,1-1.36.55A1.9,1.9,0,0,1,281.68,120.14Zm0.89,0a1,1,0,0,0,1,1,1,1,0,1,0-.72-1.73A1,1,0,0,0,282.58,120.15Zm5.51-1.91,0.56,0.32-4.53,7.86-0.56-.34Zm-1.39,6.23a1.73,1.73,0,0,1,.57-1.29,1.89,1.89,0,0,1,1.34-.55,1.86,1.86,0,0,1,1.35.55,1.81,1.81,0,0,1,0,2.63,1.88,1.88,0,0,1-1.36.54A1.89,1.89,0,0,1,286.69,124.48Zm0.9,0a1,1,0,0,0,.29.73,1,1,0,0,0,.72.3,1,1,0,0,0,.71-0.3,1,1,0,0,0,0-1.44A1,1,0,0,0,287.59,124.5Z"/><path class="cls-4" d="M255.65,131v4.76a2.61,2.61,0,0,0,.33,1.49,1.78,1.78,0,0,0,2.8,0,2.58,2.58,0,0,0,.33-1.49V131h1.19v5.1a2.85,2.85,0,0,1-.78,2.06,3,3,0,0,1-4.3,0,2.85,2.85,0,0,1-.78-2.06V131h1.19Z"/><path class="cls-4" d="M262.06,133.9h1.16v0.46a1.89,1.89,0,0,1,1.36-.6,1.73,1.73,0,0,1,1.36.55,2.25,2.25,0,0,1,.42,1.52v3.06H265.2v-2.79a1.83,1.83,0,0,0-.21-1,0.83,0.83,0,0,0-.73-0.29,0.89,0.89,0,0,0-.81.38,2.59,2.59,0,0,0-.24,1.31v2.41h-1.16v-5Z"/><path class="cls-4" d="M269,135v3.92h-1.15V135h-0.49V133.9h0.49v-1.83H269v1.83h0.9V135H269Z"/><path class="cls-4" d="M275.33,136.67h-3.58a1.51,1.51,0,0,0,.4,1,1.22,1.22,0,0,0,.91.36,1.18,1.18,0,0,0,.71-0.21,2.93,2.93,0,0,0,.63-0.76l1,0.54a3.88,3.88,0,0,1-.48.66,2.54,2.54,0,0,1-.54.45,2.16,2.16,0,0,1-.62.26,3,3,0,0,1-.72.08,2.35,2.35,0,0,1-1.79-.72,2.69,2.69,0,0,1-.68-1.92,2.77,2.77,0,0,1,.66-1.92,2.26,2.26,0,0,1,1.75-.72,2.24,2.24,0,0,1,1.74.7,2.76,2.76,0,0,1,.64,1.93v0.27Zm-1.18-.94a1.11,1.11,0,0,0-1.16-.92,1.19,1.19,0,0,0-.39.06,1.14,1.14,0,0,0-.34.18,1.16,1.16,0,0,0-.26.29,1.36,1.36,0,0,0-.16.38h2.32Z"/><path class="cls-4" d="M276.59,133.9h1.15v0.45a2.21,2.21,0,0,1,.56-0.46,1.3,1.3,0,0,1,.59-0.13,1.86,1.86,0,0,1,1,.3l-0.53,1.06a1.1,1.1,0,0,0-.64-0.24q-0.94,0-.94,1.43v2.59h-1.15v-5Z"/><path class="cls-4" d="M283.42,134.75l-1,.51a0.66,0.66,0,0,0-.56-0.46,0.38,0.38,0,0,0-.27.11,0.35,0.35,0,0,0-.11.27,0.87,0.87,0,0,0,.67.57,4,4,0,0,1,1.24.73,1.24,1.24,0,0,1,.32.9,1.57,1.57,0,0,1-.53,1.21,1.91,1.91,0,0,1-3-.76l1-.46a2.14,2.14,0,0,0,.31.46,0.72,0.72,0,0,0,.5.2,0.49,0.49,0,0,0,.58-0.53,0.73,0.73,0,0,0-.45-0.57l-0.35-.17-0.35-.17a2.17,2.17,0,0,1-.71-0.49,1.21,1.21,0,0,1-.26-0.8,1.43,1.43,0,0,1,.45-1.08,1.56,1.56,0,0,1,1.11-.42A1.51,1.51,0,0,1,283.42,134.75Z"/><path class="cls-4" d="M288.66,134.12v1.53A2.8,2.8,0,0,0,288,135a1.38,1.38,0,0,0-.72-0.19,1.43,1.43,0,0,0-1.08.46,1.6,1.6,0,0,0-.43,1.14,1.64,1.64,0,0,0,.42,1.15,1.4,1.4,0,0,0,1.07.45,1.46,1.46,0,0,0,.73-0.18,2.9,2.9,0,0,0,.72-0.68v1.52a3,3,0,0,1-1.41.36,2.68,2.68,0,0,1-1.94-.75,2.5,2.5,0,0,1-.78-1.87,2.53,2.53,0,0,1,.79-1.89,2.67,2.67,0,0,1,1.94-.77A2.9,2.9,0,0,1,288.66,134.12Z"/><path class="cls-4" d="M290.05,130.24h1.15v4.08a2,2,0,0,1,1.36-.55,1.76,1.76,0,0,1,1.35.55,2.24,2.24,0,0,1,.43,1.52v3.06H293.2v-3a1.41,1.41,0,0,0-.21-0.87,0.82,0.82,0,0,0-.68-0.27,0.94,0.94,0,0,0-.85.38,2.56,2.56,0,0,0-.24,1.3v2.42h-1.15v-8.66Z"/><path class="cls-4" d="M295.64,131.82a0.75,0.75,0,0,1,.75-0.74,0.73,0.73,0,0,1,.53.22,0.71,0.71,0,0,1,.22.53,0.73,0.73,0,0,1-.22.53,0.71,0.71,0,0,1-.53.22A0.75,0.75,0,0,1,295.64,131.82ZM297,133.9v5h-1.15v-5H297Z"/><path class="cls-4" d="M303,136.67h-3.58a1.51,1.51,0,0,0,.4,1,1.22,1.22,0,0,0,.91.36,1.18,1.18,0,0,0,.71-0.21A2.93,2.93,0,0,0,302,137l1,0.54a3.88,3.88,0,0,1-.48.66,2.54,2.54,0,0,1-.54.45,2.16,2.16,0,0,1-.62.26,3,3,0,0,1-.72.08,2.35,2.35,0,0,1-1.79-.72,2.69,2.69,0,0,1-.68-1.92,2.77,2.77,0,0,1,.66-1.92,2.26,2.26,0,0,1,1.75-.72,2.24,2.24,0,0,1,1.74.7,2.76,2.76,0,0,1,.64,1.93v0.27Zm-1.18-.94a1.11,1.11,0,0,0-1.16-.92,1.19,1.19,0,0,0-.39.06,1.14,1.14,0,0,0-.34.18,1.16,1.16,0,0,0-.26.29,1.36,1.36,0,0,0-.16.38h2.32Z"/><path class="cls-4" d="M307.92,130.24h1.16v8.66h-1.16v-0.52a2.15,2.15,0,0,1-1.54.67,2.19,2.19,0,0,1-1.7-.75,2.78,2.78,0,0,1-.67-1.91,2.69,2.69,0,0,1,.67-1.87,2.16,2.16,0,0,1,3.25,0v-4.25Zm-2.74,6.15a1.74,1.74,0,0,0,.38,1.17,1.26,1.26,0,0,0,1,.46,1.32,1.32,0,0,0,1-.44,1.9,1.9,0,0,0,0-2.32,1.31,1.31,0,0,0-1-.45,1.28,1.28,0,0,0-1,.45A1.66,1.66,0,0,0,305.18,136.38Z"/><polygon class="cls-14" points="48.86 83.68 124 83.68 124 98.37 124 107.82 124 126.07 124 140.85 115.75 126.07 48.86 126.07 48.86 83.68"/><path class="cls-4" d="M76.25,94.9H74.88l0.66-1.12h1.91v7.92H76.25V94.9Z"/><path class="cls-4" d="M81.84,98V97a2.08,2.08,0,0,0,1-.17,1,1,0,0,0,.47-1A1.08,1.08,0,0,0,83,95.05a1.2,1.2,0,0,0-.87-0.32,1.12,1.12,0,0,0-.77.24,1.59,1.59,0,0,0-.39.83H79.78a2.74,2.74,0,0,1,.76-1.64,2.3,2.3,0,0,1,1.6-.52,2.38,2.38,0,0,1,1.7.62,2.05,2.05,0,0,1,.66,1.57,2,2,0,0,1-.86,1.69,2,2,0,0,1,1,1.88,2.29,2.29,0,0,1-.72,1.74,2.58,2.58,0,0,1-1.84.68,2.36,2.36,0,0,1-2.12-1.05,2.72,2.72,0,0,1-.36-1.22h1.15a1.4,1.4,0,0,0,.45.88,1.38,1.38,0,0,0,.93.3,1.29,1.29,0,0,0,1-.38,1.38,1.38,0,0,0,.38-1,1.22,1.22,0,0,0-.57-1.14A2.11,2.11,0,0,0,81.84,98Z"/><path class="cls-4" d="M86,95.54a1.74,1.74,0,0,1,.57-1.29,1.89,1.89,0,0,1,1.34-.55,1.85,1.85,0,0,1,1.34.55,1.82,1.82,0,0,1,0,2.63,1.88,1.88,0,0,1-1.36.55A1.9,1.9,0,0,1,86,95.54Zm0.89,0a1,1,0,0,0,1,1,1,1,0,1,0-.72-1.73A1,1,0,0,0,86.89,95.55Zm5.51-1.91L93,94l-4.53,7.86-0.56-.34ZM91,99.87a1.73,1.73,0,0,1,.57-1.29A1.89,1.89,0,0,1,92.92,98a1.86,1.86,0,0,1,1.35.55,1.81,1.81,0,0,1,0,2.63,1.88,1.88,0,0,1-1.36.54A1.89,1.89,0,0,1,91,99.87Zm0.9,0a1,1,0,0,0,.29.73,1,1,0,0,0,.72.3,1,1,0,0,0,.71-0.3,1,1,0,0,0,0-1.44A1,1,0,0,0,91.91,99.9Z"/><path class="cls-4" d="M59.93,106.38v4.76a2.61,2.61,0,0,0,.33,1.49,1.78,1.78,0,0,0,2.8,0,2.57,2.57,0,0,0,.33-1.49v-4.76h1.19v5.1a2.85,2.85,0,0,1-.78,2.06,3,3,0,0,1-4.3,0,2.85,2.85,0,0,1-.78-2.06v-5.1h1.19Z"/><path class="cls-4" d="M66.34,109.3H67.5v0.46a1.89,1.89,0,0,1,1.36-.6,1.72,1.72,0,0,1,1.36.55,2.25,2.25,0,0,1,.42,1.52v3.06H69.48v-2.79a1.83,1.83,0,0,0-.21-1,0.83,0.83,0,0,0-.73-0.29,0.89,0.89,0,0,0-.81.38,2.6,2.6,0,0,0-.24,1.31v2.41H66.34v-5Z"/><path class="cls-4" d="M73.29,110.38v3.92H72.13v-3.92H71.64V109.3h0.49v-1.83h1.15v1.83h0.9v1.08h-0.9Z"/><path class="cls-4" d="M79.61,112.07H76a1.51,1.51,0,0,0,.4,1,1.22,1.22,0,0,0,.91.36A1.18,1.18,0,0,0,78,113.2a2.92,2.92,0,0,0,.63-0.76l1,0.54a3.85,3.85,0,0,1-.48.66,2.55,2.55,0,0,1-.54.45,2.16,2.16,0,0,1-.62.26,3,3,0,0,1-.72.08,2.35,2.35,0,0,1-1.79-.72,2.69,2.69,0,0,1-.68-1.92,2.77,2.77,0,0,1,.66-1.92,2.5,2.5,0,0,1,3.5,0,2.76,2.76,0,0,1,.64,1.93v0.27Zm-1.18-.94a1.11,1.11,0,0,0-1.16-.92,1.19,1.19,0,0,0-.4.06,1.14,1.14,0,0,0-.34.18,1.16,1.16,0,0,0-.26.29,1.33,1.33,0,0,0-.16.38h2.32Z"/><path class="cls-4" d="M80.87,109.3H82v0.45a2.2,2.2,0,0,1,.56-0.46,1.3,1.3,0,0,1,.59-0.13,1.87,1.87,0,0,1,1,.3l-0.53,1.06a1.1,1.1,0,0,0-.64-0.24q-0.94,0-.94,1.43v2.59H80.87v-5Z"/><path class="cls-4" d="M87.7,110.15l-1,.51a0.66,0.66,0,0,0-.56-0.46,0.38,0.38,0,0,0-.27.11,0.35,0.35,0,0,0-.11.27,0.87,0.87,0,0,0,.67.57,4,4,0,0,1,1.24.73,1.24,1.24,0,0,1,.32.9,1.57,1.57,0,0,1-.53,1.21,1.91,1.91,0,0,1-3-.76l1-.46a2.14,2.14,0,0,0,.31.46,0.71,0.71,0,0,0,.5.2,0.49,0.49,0,0,0,.58-0.53,0.73,0.73,0,0,0-.45-0.57L86,112.13,85.69,112a2.17,2.17,0,0,1-.71-0.49,1.21,1.21,0,0,1-.26-0.8,1.43,1.43,0,0,1,.45-1.08,1.57,1.57,0,0,1,1.11-.42A1.51,1.51,0,0,1,87.7,110.15Z"/><path class="cls-4" d="M92.94,109.52V111a2.8,2.8,0,0,0-.71-0.66,1.38,1.38,0,0,0-.72-0.19,1.42,1.42,0,0,0-1.08.46A1.6,1.6,0,0,0,90,111.8a1.64,1.64,0,0,0,.42,1.15,1.4,1.4,0,0,0,1.07.45,1.46,1.46,0,0,0,.73-0.18,2.91,2.91,0,0,0,.72-0.68v1.52a3,3,0,0,1-1.4.36,2.68,2.68,0,0,1-1.94-.75,2.5,2.5,0,0,1-.78-1.87,2.53,2.53,0,0,1,.79-1.89,2.67,2.67,0,0,1,1.94-.77A2.9,2.9,0,0,1,92.94,109.52Z"/><path class="cls-4" d="M94.33,105.64h1.15v4.08a2,2,0,0,1,1.36-.55,1.76,1.76,0,0,1,1.35.55,2.24,2.24,0,0,1,.43,1.52v3.06H97.48v-3a1.41,1.41,0,0,0-.21-0.87,0.82,0.82,0,0,0-.68-0.27,0.94,0.94,0,0,0-.85.38,2.57,2.57,0,0,0-.24,1.3v2.42H94.33v-8.66Z"/><path class="cls-4" d="M99.92,107.22a0.75,0.75,0,0,1,.75-0.74,0.72,0.72,0,0,1,.53.22,0.71,0.71,0,0,1,.22.53,0.73,0.73,0,0,1-.22.53,0.71,0.71,0,0,1-.53.22A0.75,0.75,0,0,1,99.92,107.22Zm1.33,2.08v5h-1.15v-5h1.15Z"/><path class="cls-4" d="M107.25,112.07h-3.58a1.51,1.51,0,0,0,.4,1,1.22,1.22,0,0,0,.91.36,1.18,1.18,0,0,0,.71-0.21,2.92,2.92,0,0,0,.63-0.76l1,0.54a3.85,3.85,0,0,1-.48.66,2.55,2.55,0,0,1-.54.45,2.16,2.16,0,0,1-.62.26,3,3,0,0,1-.72.08,2.35,2.35,0,0,1-1.79-.72,2.69,2.69,0,0,1-.68-1.92,2.77,2.77,0,0,1,.66-1.92,2.5,2.5,0,0,1,3.5,0,2.76,2.76,0,0,1,.64,1.93v0.27Zm-1.18-.94a1.11,1.11,0,0,0-1.16-.92,1.19,1.19,0,0,0-.4.06,1.14,1.14,0,0,0-.34.18,1.16,1.16,0,0,0-.26.29,1.33,1.33,0,0,0-.16.38h2.32Z"/><path class="cls-4" d="M112.2,105.64h1.16v8.66H112.2v-0.52a2.15,2.15,0,0,1-1.54.67,2.19,2.19,0,0,1-1.7-.75,2.78,2.78,0,0,1-.67-1.91,2.69,2.69,0,0,1,.67-1.87,2.16,2.16,0,0,1,3.25,0v-4.25Zm-2.74,6.15a1.74,1.74,0,0,0,.38,1.17,1.26,1.26,0,0,0,1,.46,1.32,1.32,0,0,0,1-.44,1.9,1.9,0,0,0,0-2.32,1.31,1.31,0,0,0-1-.45,1.28,1.28,0,0,0-1,.45A1.66,1.66,0,0,0,109.46,111.78Z"/></svg>