<svg id="Charts" xmlns="http://www.w3.org/2000/svg" xmlns:xlink="http://www.w3.org/1999/xlink" viewBox="0 0 418.65 315.34"><defs><style>.cls-1,.cls-11,.cls-2,.cls-3,.cls-5,.cls-9{fill:none;}.cls-11,.cls-12,.cls-2,.cls-3,.cls-5,.cls-7,.cls-9{stroke:#fff;stroke-miterlimit:10;}.cls-12,.cls-2{stroke-width:0.69px;}.cls-12,.cls-4,.cls-7{fill:#fff;}.cls-12,.cls-5,.cls-6{opacity:0.4;}.cls-7{stroke-width:1.4px;}.cls-8{clip-path:url(#clip-path);}.cls-9{stroke-width:1.12px;}.cls-10{clip-path:url(#clip-path-2);}.cls-11{stroke-width:0.55px;}.cls-13{clip-path:url(#clip-path-3);}.cls-14{fill:#016d3d;opacity:0.8;}</style><clipPath id="clip-path"><rect class="cls-1" x="231.02" y="98.62" width="140.72" height="188.38"/></clipPath><clipPath id="clip-path-2"><rect class="cls-2" x="216.86" y="33.84" width="10.29" height="10.29"/></clipPath><clipPath id="clip-path-3"><rect class="cls-1" x="231.02" y="466.41" width="140.72" height="165.65"/></clipPath></defs><title>Charts_</title><line class="cls-3" x1="27.77" y1="287.01" x2="418.65" y2="287.01"/><path class="cls-4" d="M3.68,250.43H2l0.79-1.35H5.11v9.5H3.68v-8.15Z"/><path class="cls-4" d="M7.82,253.77a5.73,5.73,0,0,1,1.06-3.62,2.76,2.76,0,0,1,4.59,0,6.94,6.94,0,0,1,0,7.36,2.82,2.82,0,0,1-2.29,1.22,2.85,2.85,0,0,1-2.3-1.22A5.93,5.93,0,0,1,7.82,253.77Zm1.42,0a5.63,5.63,0,0,0,.55,2.63,1.6,1.6,0,0,0,1.39,1,1.61,1.61,0,0,0,1.39-1,6.3,6.3,0,0,0,0-5.16,1.61,1.61,0,0,0-1.39-1,1.61,1.61,0,0,0-1.39,1A5.26,5.26,0,0,0,9.23,253.78Z"/><path class="cls-4" d="M3,224.75H6.58v1.35H0.2l3.3-4q0.49-.6.82-1a7.89,7.89,0,0,0,.5-0.73,2.06,2.06,0,0,0,.35-1,1.48,1.48,0,0,0-.47-1.11,1.61,1.61,0,0,0-1.16-.45,1.61,1.61,0,0,0-1.65,1.7H0.46q0.34-3,3-3a3.06,3.06,0,0,1,2.18.82,2.68,2.68,0,0,1,.89,2,3.11,3.11,0,0,1-.41,1.52,7.43,7.43,0,0,1-.61.92q-0.4.53-1,1.26Z"/><path class="cls-4" d="M8.19,221.29a5.73,5.73,0,0,1,1.06-3.62,2.76,2.76,0,0,1,4.59,0,6.94,6.94,0,0,1,0,7.36,2.82,2.82,0,0,1-2.29,1.22A2.85,2.85,0,0,1,9.25,225,5.93,5.93,0,0,1,8.19,221.29Zm1.42,0a5.63,5.63,0,0,0,.55,2.63,1.6,1.6,0,0,0,1.39,1,1.61,1.61,0,0,0,1.39-1,6.3,6.3,0,0,0,0-5.16,1.61,1.61,0,0,0-1.39-1,1.61,1.61,0,0,0-1.39,1A5.26,5.26,0,0,0,9.61,221.3Z"/><path class="cls-4" d="M3.14,189.21V188a2.49,2.49,0,0,0,1.22-.2,1.25,1.25,0,0,0,.56-1.14,1.3,1.3,0,0,0-.41-1,1.43,1.43,0,0,0-1-.39,1.35,1.35,0,0,0-.92.29,1.92,1.92,0,0,0-.47,1H0.66a3.29,3.29,0,0,1,.91-2A2.77,2.77,0,0,1,3.5,184a2.86,2.86,0,0,1,2,.74,2.46,2.46,0,0,1,.79,1.89,2.34,2.34,0,0,1-1,2,2.41,2.41,0,0,1,1.19,2.26A2.74,2.74,0,0,1,5.61,193a3.1,3.1,0,0,1-2.21.81,2.84,2.84,0,0,1-2.55-1.26A3.27,3.27,0,0,1,.42,191H1.8a1.68,1.68,0,0,0,.54,1.05,1.66,1.66,0,0,0,1.12.37A1.55,1.55,0,0,0,4.61,192a1.66,1.66,0,0,0,.46-1.2,1.46,1.46,0,0,0-.68-1.37A2.54,2.54,0,0,0,3.14,189.21Z"/><path class="cls-4" d="M8.19,188.81a5.73,5.73,0,0,1,1.06-3.62,2.76,2.76,0,0,1,4.59,0,6.94,6.94,0,0,1,0,7.36,2.82,2.82,0,0,1-2.29,1.22,2.85,2.85,0,0,1-2.3-1.22A5.93,5.93,0,0,1,8.19,188.81Zm1.42,0a5.63,5.63,0,0,0,.55,2.63,1.6,1.6,0,0,0,1.39,1,1.61,1.61,0,0,0,1.39-1,6.3,6.3,0,0,0,0-5.16,1.61,1.61,0,0,0-1.39-1,1.61,1.61,0,0,0-1.39,1A5.26,5.26,0,0,0,9.61,188.82Z"/><path class="cls-4" d="M6.1,158.49h1v1.3h-1v1.35H4.66v-1.35H0l6.1-8.86v7.56Zm-1.43,0v-3.18l-2.19,3.18H4.66Z"/><path class="cls-4" d="M8.19,156.33a5.73,5.73,0,0,1,1.06-3.62,2.76,2.76,0,0,1,4.59,0,6.94,6.94,0,0,1,0,7.36,2.82,2.82,0,0,1-2.29,1.22,2.85,2.85,0,0,1-2.3-1.22A5.93,5.93,0,0,1,8.19,156.33Zm1.42,0a5.63,5.63,0,0,0,.55,2.63,1.6,1.6,0,0,0,1.39,1,1.61,1.61,0,0,0,1.39-1,6.3,6.3,0,0,0,0-5.16,1.61,1.61,0,0,0-1.39-1,1.61,1.61,0,0,0-1.39,1A5.26,5.26,0,0,0,9.61,156.34Z"/><path class="cls-4" d="M6.51,120.51H3.58l-0.47,1.57,0.2,0H3.49a3,3,0,0,1,2.27.93,3.58,3.58,0,0,1-.12,4.85,3.51,3.51,0,0,1-2.54,1,3.35,3.35,0,0,1-3-1.77l1.08-.92a3.35,3.35,0,0,0,.9,1.08,1.94,1.94,0,0,0,1.11.31,1.93,1.93,0,0,0,1.45-.6,2.12,2.12,0,0,0,.58-1.51,2,2,0,0,0-.58-1.49,1.93,1.93,0,0,0-1.45-.6,2.11,2.11,0,0,0-1.67.84H1.09l1.49-5H6.51v1.35Z"/><path class="cls-4" d="M8.19,123.85a5.73,5.73,0,0,1,1.06-3.62,2.76,2.76,0,0,1,4.59,0,6.94,6.94,0,0,1,0,7.36,2.82,2.82,0,0,1-2.29,1.22,2.85,2.85,0,0,1-2.3-1.22A5.93,5.93,0,0,1,8.19,123.85Zm1.42,0a5.63,5.63,0,0,0,.55,2.63,1.6,1.6,0,0,0,1.39,1,1.61,1.61,0,0,0,1.39-1,6.3,6.3,0,0,0,0-5.16,1.61,1.61,0,0,0-1.39-1,1.61,1.61,0,0,0-1.39,1A5.26,5.26,0,0,0,9.61,123.86Z"/><path class="cls-4" d="M4.83,86.35l1.05,0.79L3.61,90.23l0.31,0h0.2a2.67,2.67,0,0,1,2,.89A2.94,2.94,0,0,1,7,93.17,3.05,3.05,0,0,1,6,95.41a3,3,0,0,1-2.23.93,3.2,3.2,0,0,1-2.26-.92,2.91,2.91,0,0,1-1-2.17,4.09,4.09,0,0,1,.93-2.39Zm0.74,6.91a1.8,1.8,0,0,0-1.8-1.81A1.73,1.73,0,0,0,2.5,92a1.8,1.8,0,0,0,0,2.53A1.74,1.74,0,0,0,3.78,95,1.72,1.72,0,0,0,5,94.51,1.71,1.71,0,0,0,5.57,93.26Z"/><path class="cls-4" d="M8.19,91.37a5.73,5.73,0,0,1,1.06-3.62,2.76,2.76,0,0,1,4.59,0,6.94,6.94,0,0,1,0,7.36,2.82,2.82,0,0,1-2.29,1.22,2.85,2.85,0,0,1-2.3-1.22A5.93,5.93,0,0,1,8.19,91.37Zm1.42,0A5.63,5.63,0,0,0,10.16,94a1.6,1.6,0,0,0,1.39,1,1.61,1.61,0,0,0,1.39-1,6.3,6.3,0,0,0,0-5.16,1.61,1.61,0,0,0-1.39-1,1.61,1.61,0,0,0-1.39,1A5.26,5.26,0,0,0,9.61,91.38Z"/><line class="cls-5" x1="27.77" y1="254.53" x2="418.65" y2="254.53"/><line class="cls-5" x1="27.77" y1="222.05" x2="418.65" y2="222.05"/><line class="cls-5" x1="27.77" y1="189.57" x2="418.65" y2="189.57"/><line class="cls-5" x1="27.77" y1="157.09" x2="418.65" y2="157.09"/><line class="cls-5" x1="27.77" y1="124.61" x2="418.65" y2="124.61"/><line class="cls-5" x1="27.77" y1="92.13" x2="418.65" y2="92.13"/><g class="cls-6"><rect class="cls-7" x="74.67" y="131.1" width="140.72" height="155.9"/></g><g class="cls-8"><line class="cls-9" x1="229.93" y1="101.22" x2="427.92" y2="-96.77"/><line class="cls-9" x1="229.93" y1="109.62" x2="427.92" y2="-88.37"/><line class="cls-9" x1="229.93" y1="118.02" x2="427.92" y2="-79.97"/><line class="cls-9" x1="229.93" y1="126.42" x2="427.92" y2="-71.57"/><line class="cls-9" x1="229.93" y1="134.82" x2="427.92" y2="-63.17"/><line class="cls-9" x1="229.93" y1="143.22" x2="427.92" y2="-54.77"/><line class="cls-9" x1="229.93" y1="151.62" x2="427.92" y2="-46.37"/><line class="cls-9" x1="229.93" y1="160.02" x2="427.92" y2="-37.97"/><line class="cls-9" x1="229.93" y1="168.42" x2="427.92" y2="-29.57"/><line class="cls-9" x1="229.93" y1="176.82" x2="427.92" y2="-21.17"/><line class="cls-9" x1="229.93" y1="185.22" x2="427.92" y2="-12.77"/><line class="cls-9" x1="229.93" y1="193.62" x2="427.92" y2="-4.37"/><line class="cls-9" x1="229.93" y1="202.02" x2="427.92" y2="4.03"/><line class="cls-9" x1="229.93" y1="210.42" x2="427.92" y2="12.43"/><line class="cls-9" x1="229.93" y1="218.82" x2="427.92" y2="20.83"/><line class="cls-9" x1="229.93" y1="227.22" x2="427.92" y2="29.23"/><line class="cls-9" x1="229.93" y1="235.62" x2="427.92" y2="37.63"/><line class="cls-9" x1="229.93" y1="244.02" x2="427.92" y2="46.03"/><line class="cls-9" x1="229.93" y1="252.42" x2="427.92" y2="54.43"/><line class="cls-9" x1="229.93" y1="260.82" x2="427.92" y2="62.83"/><line class="cls-9" x1="229.93" y1="269.22" x2="427.92" y2="71.23"/><line class="cls-9" x1="229.93" y1="277.62" x2="427.92" y2="79.63"/><line class="cls-9" x1="229.93" y1="286.02" x2="427.92" y2="88.03"/><line class="cls-9" x1="229.93" y1="294.42" x2="427.92" y2="96.43"/><line class="cls-9" x1="229.93" y1="302.82" x2="427.92" y2="104.83"/><line class="cls-9" x1="229.93" y1="311.22" x2="427.92" y2="113.23"/><line class="cls-9" x1="229.93" y1="319.62" x2="427.92" y2="121.63"/><line class="cls-9" x1="229.93" y1="328.02" x2="427.92" y2="130.03"/><line class="cls-9" x1="229.93" y1="336.42" x2="427.92" y2="138.43"/><line class="cls-9" x1="229.93" y1="344.82" x2="427.92" y2="146.83"/><line class="cls-9" x1="229.93" y1="353.22" x2="427.92" y2="155.23"/><line class="cls-9" x1="229.93" y1="361.62" x2="427.92" y2="163.63"/><line class="cls-9" x1="229.93" y1="370.02" x2="427.92" y2="172.03"/><line class="cls-9" x1="229.93" y1="378.42" x2="427.92" y2="180.43"/><line class="cls-9" x1="229.93" y1="386.82" x2="427.92" y2="188.83"/><line class="cls-9" x1="229.93" y1="395.22" x2="427.92" y2="197.23"/><line class="cls-9" x1="229.93" y1="403.62" x2="427.92" y2="205.63"/><line class="cls-9" x1="229.93" y1="412.02" x2="427.92" y2="214.03"/><line class="cls-9" x1="229.93" y1="420.42" x2="427.92" y2="222.43"/><line class="cls-9" x1="229.93" y1="428.82" x2="427.92" y2="230.83"/></g><g class="cls-6"><path class="cls-4" d="M146.08,312.32H144.5l-0.65-.67a4.18,4.18,0,0,1-2.31.67,4.32,4.32,0,0,1-2.93-1.12,4,4,0,0,1-1.39-3.14,4.13,4.13,0,0,1,1.32-3.12,4.33,4.33,0,0,1,5.85-.15,4.17,4.17,0,0,1,1.5,3.33,4,4,0,0,1-1.19,2.86Zm-3.44-3.44,1.2,1.2a2.83,2.83,0,0,0,.79-2,3.07,3.07,0,0,0-.89-2.24,3,3,0,0,0-2.2-.9,2.9,2.9,0,0,0-2.19.9,3.14,3.14,0,0,0-.87,2.27,2.9,2.9,0,0,0,.89,2.19,3,3,0,0,0,2.12.88,2.93,2.93,0,0,0,1.47-.37l-2-1.89h1.62Z"/><path class="cls-4" d="M148.45,306.93v3a1.05,1.05,0,1,0,2.05,0v-3h1.21v3a3.38,3.38,0,0,1-.16,1.08,1.83,1.83,0,0,1-.52.74,2.54,2.54,0,0,1-3.11,0,1.85,1.85,0,0,1-.53-0.74,3,3,0,0,1-.15-1.08v-3h1.21Z"/><path class="cls-4" d="M158,309.83h-3.75a1.59,1.59,0,0,0,.42,1,1.28,1.28,0,0,0,1,.38,1.24,1.24,0,0,0,.75-0.21,3,3,0,0,0,.66-0.79l1,0.57a4.1,4.1,0,0,1-.5.69,2.66,2.66,0,0,1-.56.47,2.25,2.25,0,0,1-.65.27,3.14,3.14,0,0,1-.76.09,2.46,2.46,0,0,1-1.88-.75,2.82,2.82,0,0,1-.71-2,2.9,2.9,0,0,1,.69-2,2.62,2.62,0,0,1,3.66,0,2.89,2.89,0,0,1,.67,2v0.28Zm-1.24-1a1.16,1.16,0,0,0-1.22-1,1.25,1.25,0,0,0-.41.07,1.19,1.19,0,0,0-.35.19,1.24,1.24,0,0,0-.27.3,1.42,1.42,0,0,0-.17.4h2.43Z"/><path class="cls-4" d="M160.53,303.09v9.07h-1.21v-9.07h1.21Z"/><path class="cls-4" d="M163.27,303.09v9.07h-1.21v-9.07h1.21Z"/><path class="cls-4" d="M169.56,309.83h-3.75a1.59,1.59,0,0,0,.42,1,1.28,1.28,0,0,0,1,.38,1.24,1.24,0,0,0,.75-0.21,3,3,0,0,0,.66-0.79l1,0.57a4.1,4.1,0,0,1-.5.69,2.66,2.66,0,0,1-.56.47,2.25,2.25,0,0,1-.65.27,3.14,3.14,0,0,1-.76.09,2.46,2.46,0,0,1-1.88-.75,2.82,2.82,0,0,1-.71-2,2.9,2.9,0,0,1,.69-2,2.62,2.62,0,0,1,3.66,0,2.89,2.89,0,0,1,.67,2v0.28Zm-1.24-1a1.16,1.16,0,0,0-1.22-1,1.25,1.25,0,0,0-.41.07,1.19,1.19,0,0,0-.35.19,1.24,1.24,0,0,0-.27.3,1.42,1.42,0,0,0-.17.4h2.43Z"/><path class="cls-4" d="M171.07,307.52a0.71,0.71,0,0,1,.22-0.52,0.75,0.75,0,0,1,1.27.53,0.73,0.73,0,0,1-.22.53,0.75,0.75,0,0,1-1.06,0A0.73,0.73,0,0,1,171.07,307.52Zm0,4a0.75,0.75,0,0,1,1.49,0,0.72,0.72,0,0,1-.22.53,0.76,0.76,0,0,1-1.06,0A0.73,0.73,0,0,1,171.07,311.56Z"/><path class="cls-4" d="M179.15,303.87V311h2.44v1.18H177.9v-8.29h1.25Z"/><path class="cls-4" d="M182.3,309.51a2.6,2.6,0,0,1,.81-1.93,2.86,2.86,0,0,1,4,0,2.8,2.8,0,0,1,0,3.94,2.78,2.78,0,0,1-2,.79,2.66,2.66,0,0,1-2-.81A2.71,2.71,0,0,1,182.3,309.51Zm1.24,0a1.77,1.77,0,0,0,.42,1.24,1.63,1.63,0,0,0,2.27,0,2,2,0,0,0,0-2.44,1.61,1.61,0,0,0-2.26,0A1.68,1.68,0,0,0,183.54,309.53Z"/><path class="cls-4" d="M189.16,306.93h1.21v0.48a2,2,0,0,1,1.43-.63,1.8,1.8,0,0,1,1.42.58,2.35,2.35,0,0,1,.44,1.59v3.21h-1.21v-2.92a1.91,1.91,0,0,0-.21-1.07,0.87,0.87,0,0,0-.76-0.3,0.94,0.94,0,0,0-.85.4,2.73,2.73,0,0,0-.25,1.37v2.52h-1.21v-5.23Z"/><path class="cls-4" d="M200.25,312q0,0.37,0,.65a4.25,4.25,0,0,1-.07.5,2.22,2.22,0,0,1-.5,1,2.45,2.45,0,0,1-2,.82,2.59,2.59,0,0,1-1.72-.57,2.32,2.32,0,0,1-.81-1.61h1.21a1.37,1.37,0,0,0,.23.6,1.3,1.3,0,0,0,1.1.49q1.33,0,1.33-1.62v-0.73a2.25,2.25,0,0,1-1.66.74,2.23,2.23,0,0,1-1.75-.77,2.87,2.87,0,0,1-.69-2,3,3,0,0,1,.64-1.94,2.22,2.22,0,0,1,1.82-.85,2.11,2.11,0,0,1,1.64.74v-0.59h1.21V312Zm-1.16-2.48a1.75,1.75,0,0,0-.41-1.22,1.35,1.35,0,0,0-1.06-.47,1.3,1.3,0,0,0-1.08.51,2.09,2.09,0,0,0,0,2.35,1.3,1.3,0,0,0,1.08.5,1.33,1.33,0,0,0,1.1-.5A1.79,1.79,0,0,0,199.09,309.56Z"/><path class="cls-4" d="M205.85,307.16v1.61a2.94,2.94,0,0,0-.74-0.69,1.44,1.44,0,0,0-.76-0.19,1.49,1.49,0,0,0-1.13.48,1.68,1.68,0,0,0-.45,1.2,1.72,1.72,0,0,0,.43,1.21,1.47,1.47,0,0,0,1.12.47,1.54,1.54,0,0,0,.77-0.19,3.06,3.06,0,0,0,.76-0.71v1.6a3.18,3.18,0,0,1-1.47.38,2.82,2.82,0,0,1-2-.78,2.62,2.62,0,0,1-.82-2,2.65,2.65,0,0,1,.83-2,2.8,2.8,0,0,1,2-.81A3,3,0,0,1,205.85,307.16Z"/><path class="cls-4" d="M207.3,303.09h1.21v4.28a2.08,2.08,0,0,1,1.42-.58,1.84,1.84,0,0,1,1.42.58,2.34,2.34,0,0,1,.45,1.59v3.21h-1.21v-3.09a1.47,1.47,0,0,0-.22-0.91,0.86,0.86,0,0,0-.72-0.28,1,1,0,0,0-.89.39,2.7,2.7,0,0,0-.25,1.37v2.53H207.3v-9.07Z"/><path class="cls-4" d="M217.19,306.93h1.21v5.23h-1.21v-0.55a2.32,2.32,0,0,1-3.4-.09,2.92,2.92,0,0,1-.7-2,2.83,2.83,0,0,1,.7-2,2.27,2.27,0,0,1,1.76-.79,2.23,2.23,0,0,1,1.64.75v-0.61Zm-2.87,2.6a1.82,1.82,0,0,0,.4,1.22,1.32,1.32,0,0,0,1,.48,1.39,1.39,0,0,0,1.09-.46,2,2,0,0,0,0-2.43,1.37,1.37,0,0,0-1.07-.47,1.34,1.34,0,0,0-1,.47A1.74,1.74,0,0,0,214.32,309.53Z"/><path class="cls-4" d="M219.93,306.93h1.21v0.48a2.54,2.54,0,0,1,.6-0.49,1.44,1.44,0,0,1,.66-0.13,1.6,1.6,0,0,1,1.4.77,1.82,1.82,0,0,1,1.54-.77q1.77,0,1.77,2.14v3.23h-1.21v-2.91a2.23,2.23,0,0,0-.18-1.06,0.66,0.66,0,0,0-.62-0.32,0.79,0.79,0,0,0-.73.38,2.42,2.42,0,0,0-.23,1.21v2.7h-1.21v-2.89q0-1.4-.8-1.4a0.81,0.81,0,0,0-.74.38,2.37,2.37,0,0,0-.23,1.2v2.7h-1.21v-5.23Z"/><path class="cls-4" d="M230,315h-1.21v-8.08H230v0.57a2.24,2.24,0,0,1,1.62-.71,2.26,2.26,0,0,1,1.78.79,2.87,2.87,0,0,1,.71,2,2.83,2.83,0,0,1-.7,2,2.29,2.29,0,0,1-3.41,0V315Zm2.87-5.43a1.81,1.81,0,0,0-.41-1.22,1.32,1.32,0,0,0-1-.48,1.38,1.38,0,0,0-1.08.46,1.75,1.75,0,0,0-.41,1.21,1.79,1.79,0,0,0,.41,1.21,1.36,1.36,0,0,0,1.07.47,1.31,1.31,0,0,0,1-.47A1.71,1.71,0,0,0,232.85,309.58Z"/><path class="cls-4" d="M236.11,310.61l1.07,0.42-1.53,3.07-0.82-.34Z"/><path class="cls-4" d="M247.21,312q0,0.37,0,.65a4.25,4.25,0,0,1-.07.5,2.22,2.22,0,0,1-.5,1,2.45,2.45,0,0,1-2,.82,2.59,2.59,0,0,1-1.72-.57,2.32,2.32,0,0,1-.81-1.61h1.21a1.37,1.37,0,0,0,.23.6,1.3,1.3,0,0,0,1.1.49q1.33,0,1.33-1.62v-0.73a2.25,2.25,0,0,1-1.66.74,2.23,2.23,0,0,1-1.75-.77,2.87,2.87,0,0,1-.69-2,3,3,0,0,1,.64-1.94,2.22,2.22,0,0,1,1.82-.85,2.11,2.11,0,0,1,1.64.74v-0.59h1.21V312Zm-1.16-2.48a1.75,1.75,0,0,0-.41-1.22,1.35,1.35,0,0,0-1.06-.47,1.3,1.3,0,0,0-1.08.51,2.09,2.09,0,0,0,0,2.35,1.3,1.3,0,0,0,1.08.5,1.33,1.33,0,0,0,1.1-.5A1.79,1.79,0,0,0,246.05,309.56Z"/><path class="cls-4" d="M250,308.06v4.1h-1.21v-4.1h-0.43v-1.13h0.43v-2a2.19,2.19,0,0,1,.34-1.4,1.68,1.68,0,0,1,1.38-.57,2.37,2.37,0,0,1,.81.19v1.24l-0.12-.06a1.52,1.52,0,0,0-.64-0.2,0.44,0.44,0,0,0-.44.23,2.23,2.23,0,0,0-.11.87v1.72h1.32v1.13H250Z"/><path class="cls-4" d="M255,307.83l-1,.53a0.69,0.69,0,0,0-.58-0.48,0.4,0.4,0,0,0-.29.11,0.37,0.37,0,0,0-.12.28,0.91,0.91,0,0,0,.7.6,4.18,4.18,0,0,1,1.3.76,1.3,1.3,0,0,1,.33.94,1.64,1.64,0,0,1-.56,1.27,2,2,0,0,1-3.17-.8l1-.48a2.22,2.22,0,0,0,.33.48,0.75,0.75,0,0,0,.53.2,0.52,0.52,0,0,0,.61-0.56,0.77,0.77,0,0,0-.47-0.6l-0.37-.18-0.37-.18a2.28,2.28,0,0,1-.74-0.52,1.27,1.27,0,0,1-.27-0.84,1.49,1.49,0,0,1,.47-1.13,1.64,1.64,0,0,1,1.16-.45A1.58,1.58,0,0,1,255,307.83Z"/><path class="cls-4" d="M260.09,312.17v-8.29h1.25a5.45,5.45,0,0,1,1.33.13,2,2,0,0,1,.84.44,2.25,2.25,0,0,1,.55.79,2.39,2.39,0,0,1,.21,1,2,2,0,0,1-.68,1.51,2,2,0,0,1,1,.79,2.34,2.34,0,0,1-.3,2.94,2.26,2.26,0,0,1-.93.57,5.39,5.39,0,0,1-1.41.16h-1.9Zm1.25-4.73h0.39a1.44,1.44,0,0,0,1-.31,1.2,1.2,0,0,0,.33-0.91,1.14,1.14,0,0,0-.33-0.89,1.39,1.39,0,0,0-1-.3h-0.44v2.41Zm0,3.56h0.77a1.92,1.92,0,0,0,1.25-.33,1.15,1.15,0,0,0,.42-0.91,1.17,1.17,0,0,0-.4-0.9,2.09,2.09,0,0,0-1.4-.36h-0.63V311Z"/><path class="cls-4" d="M271.13,309.83h-3.75a1.59,1.59,0,0,0,.42,1,1.28,1.28,0,0,0,1,.38,1.24,1.24,0,0,0,.75-0.21,3,3,0,0,0,.66-0.79l1,0.57a4.1,4.1,0,0,1-.5.69,2.66,2.66,0,0,1-.56.47,2.25,2.25,0,0,1-.65.27,3.14,3.14,0,0,1-.76.09,2.46,2.46,0,0,1-1.88-.75,2.82,2.82,0,0,1-.71-2,2.9,2.9,0,0,1,.69-2,2.62,2.62,0,0,1,3.66,0,2.89,2.89,0,0,1,.67,2v0.28Zm-1.24-1a1.16,1.16,0,0,0-1.22-1,1.25,1.25,0,0,0-.41.07,1.19,1.19,0,0,0-.35.19,1.24,1.24,0,0,0-.27.3,1.42,1.42,0,0,0-.17.4h2.43Z"/><path class="cls-4" d="M272.45,306.93h1.21v0.47a2.31,2.31,0,0,1,.59-0.48,1.35,1.35,0,0,1,.62-0.13,2,2,0,0,1,1,.31l-0.55,1.11a1.16,1.16,0,0,0-.67-0.25q-1,0-1,1.49v2.71h-1.21v-5.23Z"/><path class="cls-4" d="M276.73,306.93h1.21v0.48a2,2,0,0,1,1.43-.63,1.8,1.8,0,0,1,1.42.58,2.35,2.35,0,0,1,.44,1.59v3.21H280v-2.92a1.91,1.91,0,0,0-.21-1.07,0.87,0.87,0,0,0-.76-0.3,0.94,0.94,0,0,0-.85.4,2.73,2.73,0,0,0-.25,1.37v2.52h-1.21v-5.23Z"/></g><g class="cls-10"><line class="cls-11" x1="216.52" y1="54.91" x2="255.32" y2="16.1"/><line class="cls-11" x1="216.52" y1="50.79" x2="255.32" y2="11.98"/><line class="cls-11" x1="216.52" y1="46.67" x2="255.32" y2="7.87"/><line class="cls-11" x1="216.52" y1="42.56" x2="255.32" y2="3.75"/><line class="cls-11" x1="216.52" y1="38.44" x2="255.32" y2="-0.36"/><line class="cls-11" x1="216.52" y1="34.33" x2="255.32" y2="-4.48"/></g><rect class="cls-2" x="216.86" y="33.84" width="10.29" height="10.29"/><path class="cls-4" d="M235.78,36.54h-2.32v1.6h2.24v0.94h-2.24v3.17h-1V35.6h3.32v0.94Z"/><path class="cls-4" d="M236.67,38.05h1v0.37a1.86,1.86,0,0,1,.47-0.38,1.09,1.09,0,0,1,.5-0.11,1.57,1.57,0,0,1,.8.25l-0.44.89a0.93,0.93,0,0,0-.54-0.2q-0.79,0-.79,1.2v2.18h-1V38.05Z"/><path class="cls-4" d="M243,38.05h1v4.19h-1V41.81a1.86,1.86,0,0,1-2.73-.07,2.34,2.34,0,0,1-.56-1.6,2.27,2.27,0,0,1,.56-1.57,1.82,1.82,0,0,1,1.41-.63,1.78,1.78,0,0,1,1.31.6V38.05Zm-2.3,2.08a1.46,1.46,0,0,0,.32,1,1.06,1.06,0,0,0,.84.38,1.11,1.11,0,0,0,.87-0.37,1.59,1.59,0,0,0,0-1.95,1.09,1.09,0,0,0-.86-0.37,1.07,1.07,0,0,0-.84.38A1.4,1.4,0,0,0,240.7,40.14Z"/><path class="cls-4" d="M246.17,38.05v2.41a0.85,0.85,0,1,0,1.65,0V38.05h1v2.43a2.72,2.72,0,0,1-.12.87,1.46,1.46,0,0,1-.42.59,2,2,0,0,1-2.49,0,1.49,1.49,0,0,1-.43-0.59,2.4,2.4,0,0,1-.12-0.87V38.05h1Z"/><path class="cls-4" d="M253.83,40.38h-3a1.27,1.27,0,0,0,.34.82,1,1,0,0,0,.76.3,1,1,0,0,0,.6-0.17,2.46,2.46,0,0,0,.53-0.64l0.82,0.46a3.29,3.29,0,0,1-.4.55,2.11,2.11,0,0,1-.45.38,1.83,1.83,0,0,1-.52.22,2.55,2.55,0,0,1-.61.07,2,2,0,0,1-1.51-.6,2.26,2.26,0,0,1-.57-1.61,2.33,2.33,0,0,1,.55-1.61,2.1,2.1,0,0,1,2.94,0,2.32,2.32,0,0,1,.53,1.62v0.23Zm-1-.79a0.93,0.93,0,0,0-1-.78,1,1,0,0,0-.33.05,1,1,0,0,0-.28.16,1,1,0,0,0-.22.24,1.13,1.13,0,0,0-.14.32h1.95Z"/><path class="cls-4" d="M254.88,38.05h1v0.39a1.59,1.59,0,0,1,1.15-.5,1.45,1.45,0,0,1,1.14.46,1.89,1.89,0,0,1,.35,1.28v2.57h-1V39.91a1.53,1.53,0,0,0-.17-0.86,0.69,0.69,0,0,0-.61-0.24,0.75,0.75,0,0,0-.68.32,2.19,2.19,0,0,0-.2,1.1v2h-1V38.05Z"/><rect class="cls-12" x="160.15" y="33.21" width="10.29" height="10.29"/><path class="cls-4" d="M175.52,41.78l1.4-7.15,2.28,5.17,2.36-5.17,1.26,7.15h-1l-0.64-4-2,4.32-1.91-4.32-0.71,4h-1Z"/><path class="cls-4" d="M187.14,37.58h1v4.19h-1V41.34a1.86,1.86,0,0,1-2.73-.07,2.34,2.34,0,0,1-.56-1.6,2.27,2.27,0,0,1,.56-1.57,1.82,1.82,0,0,1,1.41-.63,1.78,1.78,0,0,1,1.31.6V37.58Zm-2.55-1.34a0.57,0.57,0,0,1,.18-0.43,0.61,0.61,0,0,1,.87,0,0.58,0.58,0,0,1,.18.43,0.6,0.6,0,0,1-.18.44,0.62,0.62,0,0,1-.43.18,0.6,0.6,0,0,1-.44-0.18A0.62,0.62,0,0,1,184.59,36.25Zm0.25,3.42a1.46,1.46,0,0,0,.32,1A1.06,1.06,0,0,0,186,41a1.11,1.11,0,0,0,.87-0.37,1.59,1.59,0,0,0,0-1.95,1.09,1.09,0,0,0-.86-0.37,1.07,1.07,0,0,0-.84.38A1.4,1.4,0,0,0,184.84,39.67Zm1.55-3.42a0.57,0.57,0,0,1,.18-0.43,0.6,0.6,0,0,1,.43-0.18,0.58,0.58,0,0,1,.43.18,0.58,0.58,0,0,1,.18.43,0.6,0.6,0,0,1-.18.44,0.62,0.62,0,0,1-.43.18A0.62,0.62,0,0,1,186.39,36.25Z"/><path class="cls-4" d="M189.33,37.58h1V38a1.59,1.59,0,0,1,1.15-.5,1.45,1.45,0,0,1,1.14.46,1.89,1.89,0,0,1,.35,1.28v2.57h-1V39.44a1.53,1.53,0,0,0-.17-0.86,0.69,0.69,0,0,0-.61-0.24,0.75,0.75,0,0,0-.68.32,2.19,2.19,0,0,0-.2,1.1v2h-1V37.58Z"/><path class="cls-4" d="M194.17,37.58h1V38a1.59,1.59,0,0,1,1.15-.5,1.45,1.45,0,0,1,1.14.46,1.89,1.89,0,0,1,.35,1.28v2.57h-1V39.44a1.53,1.53,0,0,0-.17-0.86,0.69,0.69,0,0,0-.61-0.24,0.75,0.75,0,0,0-.68.32,2.19,2.19,0,0,0-.2,1.1v2h-1V37.58Z"/><path class="cls-4" d="M202.83,39.91h-3a1.27,1.27,0,0,0,.34.82,1,1,0,0,0,.76.3,1,1,0,0,0,.6-0.17,2.46,2.46,0,0,0,.53-0.64l0.82,0.46a3.29,3.29,0,0,1-.4.55,2.11,2.11,0,0,1-.45.38,1.83,1.83,0,0,1-.52.22,2.55,2.55,0,0,1-.61.07,2,2,0,0,1-1.51-.6,2.26,2.26,0,0,1-.57-1.61,2.33,2.33,0,0,1,.55-1.61,2.1,2.1,0,0,1,2.94,0,2.32,2.32,0,0,1,.53,1.62v0.23Zm-1-.79a0.93,0.93,0,0,0-1-.78,1,1,0,0,0-.33.05,1,1,0,0,0-.28.16,1,1,0,0,0-.22.24,1.13,1.13,0,0,0-.14.32h1.95Z"/><path class="cls-4" d="M203.88,37.58h1V38a1.86,1.86,0,0,1,.47-0.38,1.09,1.09,0,0,1,.5-0.11,1.57,1.57,0,0,1,.8.25l-0.44.89a0.93,0.93,0,0,0-.54-0.2q-0.79,0-.79,1.2v2.18h-1V37.58Z"/><path class="cls-4" d="M125.84,9.9v6.81a3.75,3.75,0,0,0,.48,2.13,2.55,2.55,0,0,0,4,0,3.68,3.68,0,0,0,.48-2.13V9.9h1.71v7.28a4.07,4.07,0,0,1-1.11,2.94,4.31,4.31,0,0,1-6.14,0,4.07,4.07,0,0,1-1.11-2.94V9.9h1.71Z"/><path class="cls-4" d="M135,14.08h1.66v0.66a2.7,2.7,0,0,1,1.95-.86,2.46,2.46,0,0,1,1.94.78,3.21,3.21,0,0,1,.6,2.17v4.37h-1.66v-4a2.6,2.6,0,0,0-.29-1.46,1.18,1.18,0,0,0-1-.41,1.27,1.27,0,0,0-1.17.54,3.72,3.72,0,0,0-.34,1.87v3.44H135V14.08Z"/><path class="cls-4" d="M143.89,14.08l1.85,4,1.84-4h1.85l-3.71,7.62L142,14.08h1.85Z"/><path class="cls-4" d="M156.78,18h-5.11a2.17,2.17,0,0,0,.57,1.4,1.74,1.74,0,0,0,1.3.51,1.68,1.68,0,0,0,1-.29,4.15,4.15,0,0,0,.9-1.08l1.39,0.78a5.6,5.6,0,0,1-.68.94,3.62,3.62,0,0,1-.77.64,3.07,3.07,0,0,1-.89.37,4.31,4.31,0,0,1-1,.12,3.36,3.36,0,0,1-2.56-1,3.85,3.85,0,0,1-1-2.74,4,4,0,0,1,.94-2.74,3.57,3.57,0,0,1,5,0,4,4,0,0,1,.91,2.76V18Zm-1.69-1.35a1.58,1.58,0,0,0-1.66-1.32,1.69,1.69,0,0,0-.56.09,1.59,1.59,0,0,0-.48.26,1.67,1.67,0,0,0-.37.41,1.94,1.94,0,0,0-.23.55h3.31Z"/><path class="cls-4" d="M158.58,14.08h1.65v0.64a3.15,3.15,0,0,1,.81-0.65,1.84,1.84,0,0,1,.85-0.18,2.66,2.66,0,0,1,1.36.43l-0.75,1.51a1.58,1.58,0,0,0-.92-0.34q-1.35,0-1.35,2v3.7h-1.65V14.08Z"/><path class="cls-4" d="M164.17,11.11A1.07,1.07,0,0,1,165.24,10a1,1,0,0,1,.76.31,1,1,0,0,1,.32.75,1,1,0,0,1-.32.76,1,1,0,0,1-.75.32A1.08,1.08,0,0,1,164.17,11.11Zm1.9,3v11h-1.65v-11h1.65Z"/><path class="cls-4" d="M173.41,14.08h1.66v7.13h-1.66V20.46a3.17,3.17,0,0,1-4.64-.12,4,4,0,0,1-1-2.72,3.85,3.85,0,0,1,1-2.67,3.09,3.09,0,0,1,2.4-1.07,3,3,0,0,1,2.23,1V14.08Zm-4.33-2.27a1,1,0,0,1,.31-0.72,1,1,0,0,1,1.48,0,1,1,0,0,1,.31.73,1,1,0,0,1-.31.75,1.05,1.05,0,0,1-.74.3,1,1,0,0,1-.75-0.31A1.06,1.06,0,0,1,169.09,11.81Zm0.42,5.82a2.48,2.48,0,0,0,.55,1.67,1.8,1.8,0,0,0,1.42.65,1.89,1.89,0,0,0,1.48-.63,2.44,2.44,0,0,0,.56-1.66A2.44,2.44,0,0,0,173,16a1.86,1.86,0,0,0-1.46-.64,1.82,1.82,0,0,0-1.42.64A2.38,2.38,0,0,0,169.5,17.62Zm2.64-5.82a1,1,0,0,1,.31-0.72,1,1,0,0,1,.74-0.31,1.05,1.05,0,0,1,1,1,1,1,0,0,1-.31.75,1,1,0,0,1-.74.3,1,1,0,0,1-.74-0.31A1,1,0,0,1,172.15,11.81Z"/><path class="cls-4" d="M177.15,8.84h1.65v5.83a2.84,2.84,0,0,1,1.94-.79,2.51,2.51,0,0,1,1.93.78,3.19,3.19,0,0,1,.62,2.17v4.37h-1.65V17a2,2,0,0,0-.3-1.24,1.17,1.17,0,0,0-1-.38,1.35,1.35,0,0,0-1.22.53,3.67,3.67,0,0,0-.34,1.86v3.45h-1.65V8.84Z"/><path class="cls-4" d="M185.37,14.08H187v0.64a3.15,3.15,0,0,1,.81-0.65,1.84,1.84,0,0,1,.85-0.18,2.66,2.66,0,0,1,1.36.43l-0.75,1.51a1.58,1.58,0,0,0-.92-0.34q-1.35,0-1.35,2v3.7h-1.65V14.08Z"/><path class="cls-4" d="M192.63,8.84V14.9a3,3,0,0,1,2.24-1,3.09,3.09,0,0,1,2.4,1.08,3.85,3.85,0,0,1,1,2.67,3.92,3.92,0,0,1-1,2.72,3.12,3.12,0,0,1-2.42,1.07,3.08,3.08,0,0,1-2.21-1v0.75H191V8.84h1.65Zm3.92,8.86A2.46,2.46,0,0,0,196,16a1.78,1.78,0,0,0-1.41-.66,1.89,1.89,0,0,0-1.48.64,2.37,2.37,0,0,0-.56,1.64,2.4,2.4,0,0,0,.56,1.66,1.85,1.85,0,0,0,1.46.64,1.82,1.82,0,0,0,1.42-.64A2.34,2.34,0,0,0,196.55,17.69Z"/><path class="cls-4" d="M205.24,14.08h1.66v7.13h-1.66V20.46a3.17,3.17,0,0,1-4.64-.12,4,4,0,0,1-1-2.72,3.85,3.85,0,0,1,1-2.67,3.09,3.09,0,0,1,2.4-1.07,3,3,0,0,1,2.23,1V14.08Zm-3.91,3.54a2.48,2.48,0,0,0,.55,1.67,1.8,1.8,0,0,0,1.42.65,1.89,1.89,0,0,0,1.48-.63,2.44,2.44,0,0,0,.56-1.66,2.44,2.44,0,0,0-.56-1.65,1.86,1.86,0,0,0-1.46-.64,1.82,1.82,0,0,0-1.42.64A2.38,2.38,0,0,0,201.33,17.62Z"/><path class="cls-4" d="M209,14.08h1.65v0.64a3.15,3.15,0,0,1,.81-0.65,1.84,1.84,0,0,1,.85-0.18,2.66,2.66,0,0,1,1.36.43l-0.75,1.51a1.58,1.58,0,0,0-.92-0.34q-1.35,0-1.35,2v3.7H209V14.08Z"/><path class="cls-4" d="M216.46,8.84v7.54l2.32-2.31H221l-3.1,3,3.33,4.14h-2.14l-2.36-3-0.26.26v2.75h-1.65V8.84h1.65Z"/><path class="cls-4" d="M228.54,18h-5.11a2.17,2.17,0,0,0,.57,1.4,1.74,1.74,0,0,0,1.3.51,1.68,1.68,0,0,0,1-.29,4.15,4.15,0,0,0,.9-1.08l1.39,0.78a5.6,5.6,0,0,1-.68.94,3.62,3.62,0,0,1-.77.64,3.07,3.07,0,0,1-.89.37,4.31,4.31,0,0,1-1,.12,3.36,3.36,0,0,1-2.56-1,3.85,3.85,0,0,1-1-2.74,4,4,0,0,1,.94-2.74,3.57,3.57,0,0,1,5,0,4,4,0,0,1,.91,2.76V18Zm-1.69-1.35a1.58,1.58,0,0,0-1.66-1.32,1.69,1.69,0,0,0-.56.09,1.59,1.59,0,0,0-.48.26,1.67,1.67,0,0,0-.37.41,1.94,1.94,0,0,0-.23.55h3.31Z"/><path class="cls-4" d="M230.09,11.11A1.07,1.07,0,0,1,231.16,10a1,1,0,0,1,.76.31,1,1,0,0,1,.32.75,1,1,0,0,1-.32.76,1,1,0,0,1-.75.32A1.08,1.08,0,0,1,230.09,11.11Zm1.9,3v7.13h-1.65V14.08H232Z"/><path class="cls-4" d="M235.77,15.61v5.6h-1.65v-5.6h-0.7V14.08h0.7V11.46h1.65v2.61h1.28v1.54h-1.28Z"/><path class="cls-4" d="M242.32,15.29L241,16a0.94,0.94,0,0,0-.8-0.65,0.55,0.55,0,0,0-.39.15,0.5,0.5,0,0,0-.16.38,1.24,1.24,0,0,0,1,.81,5.69,5.69,0,0,1,1.77,1,1.78,1.78,0,0,1,.45,1.28,2.24,2.24,0,0,1-.76,1.73,2.73,2.73,0,0,1-4.33-1.09L239.1,19a3,3,0,0,0,.45.65,1,1,0,0,0,.72.28,0.71,0.71,0,0,0,.84-0.76,1,1,0,0,0-.64-0.82l-0.5-.24-0.51-.24a3.09,3.09,0,0,1-1-.7,1.73,1.73,0,0,1-.37-1.15,2,2,0,0,1,.64-1.54,2.24,2.24,0,0,1,1.58-.61A2.16,2.16,0,0,1,242.32,15.29Z"/><path class="cls-4" d="M250.81,8.71l1.52,0.59a18.77,18.77,0,0,0-1.12,3.53,16.6,16.6,0,0,0-.24,1.72q-0.08.91-.08,2t0.08,2a16.53,16.53,0,0,0,.24,1.72,18.14,18.14,0,0,0,1.12,3.52l-1.52.59a17.89,17.89,0,0,1-1.6-7.81A17.9,17.9,0,0,1,250.81,8.71Z"/><path class="cls-4" d="M257.1,19.61h4.21v1.6h-7.6l3.93-4.75q0.58-.71,1-1.23a9.35,9.35,0,0,0,.6-0.87,2.46,2.46,0,0,0,.42-1.24,1.76,1.76,0,0,0-.56-1.33,1.91,1.91,0,0,0-1.38-.53q-1.71,0-2,2H254q0.41-3.57,3.61-3.57a3.65,3.65,0,0,1,2.59,1,3.19,3.19,0,0,1,1.05,2.43,3.69,3.69,0,0,1-.49,1.81,8.88,8.88,0,0,1-.73,1.1q-0.48.63-1.21,1.5Z"/><path class="cls-4" d="M263.24,15.48a6.82,6.82,0,0,1,1.26-4.31,3.29,3.29,0,0,1,5.46,0,7,7,0,0,1,1.26,4.39A6.94,6.94,0,0,1,270,19.94a3.36,3.36,0,0,1-2.72,1.46,3.39,3.39,0,0,1-2.74-1.46A7.06,7.06,0,0,1,263.24,15.48Zm1.69,0a6.71,6.71,0,0,0,.65,3.13,1.74,1.74,0,0,0,3.32,0,6.4,6.4,0,0,0,.66-3.07,6.45,6.45,0,0,0-.66-3.08,1.74,1.74,0,0,0-3.31,0A6.26,6.26,0,0,0,264.92,15.49Z"/><path class="cls-4" d="M272.5,15.48a6.82,6.82,0,0,1,1.26-4.31,3.29,3.29,0,0,1,5.46,0,7,7,0,0,1,1.26,4.39,6.94,6.94,0,0,1-1.26,4.38,3.36,3.36,0,0,1-2.72,1.46,3.39,3.39,0,0,1-2.74-1.46A7.06,7.06,0,0,1,272.5,15.48Zm1.69,0a6.71,6.71,0,0,0,.65,3.13,1.74,1.74,0,0,0,3.32,0,6.4,6.4,0,0,0,.66-3.07,6.45,6.45,0,0,0-.66-3.08,1.74,1.74,0,0,0-3.31,0A6.26,6.26,0,0,0,274.18,15.49Z"/><path class="cls-4" d="M283.72,15.33a2.78,2.78,0,0,1-1.25-2.4,3.09,3.09,0,0,1,.94-2.3,3.27,3.27,0,0,1,2.37-.92,3.21,3.21,0,0,1,2.34.92,3.09,3.09,0,0,1,.94,2.31,2.85,2.85,0,0,1-1.24,2.38,2.63,2.63,0,0,1,1.07,1.07,3.13,3.13,0,0,1,.4,1.58,3.29,3.29,0,0,1-1,2.46,3.45,3.45,0,0,1-2.51,1,3.61,3.61,0,0,1-2.59-1,3.2,3.2,0,0,1-1-2.43A2.73,2.73,0,0,1,283.72,15.33Zm0.15,2.61a1.88,1.88,0,0,0,.54,1.35,1.87,1.87,0,0,0,2.65,0,1.9,1.9,0,0,0,0-2.67A1.87,1.87,0,0,0,283.88,17.94Zm0.21-5a1.69,1.69,0,0,0,1.69,1.71A1.69,1.69,0,0,0,287,11.75a1.68,1.68,0,0,0-2.39,0A1.6,1.6,0,0,0,284.08,12.93Z"/><path class="cls-4" d="M292.92,24.34l-1.52-.59a18.14,18.14,0,0,0,1.12-3.52,18.61,18.61,0,0,0,.33-3.71,18.66,18.66,0,0,0-.33-3.7,18.77,18.77,0,0,0-1.12-3.53l1.52-.59a18,18,0,0,1,1.6,7.82A18,18,0,0,1,292.92,24.34Z"/><g class="cls-13"><line class="cls-9" x1="230.83" y1="468.71" x2="428.82" y2="270.72"/><line class="cls-9" x1="230.83" y1="477.11" x2="428.82" y2="279.12"/><line class="cls-9" x1="230.83" y1="485.51" x2="428.82" y2="287.52"/><line class="cls-9" x1="230.83" y1="493.91" x2="428.82" y2="295.92"/><line class="cls-9" x1="230.83" y1="502.31" x2="428.82" y2="304.32"/><line class="cls-9" x1="230.83" y1="510.71" x2="428.82" y2="312.72"/></g><polygon class="cls-14" points="145.5 63.71 220.64 63.71 220.64 78.41 220.64 87.86 220.64 106.11 220.64 120.89 212.39 106.11 145.5 106.11 145.5 63.71"/><path class="cls-4" d="M173.21,76h-1.37l0.66-1.12h1.91V82.8h-1.19V76Z"/><path class="cls-4" d="M176.66,78.79a4.77,4.77,0,0,1,.88-3,2.3,2.3,0,0,1,3.82,0,5.78,5.78,0,0,1,0,6.14,2.35,2.35,0,0,1-1.91,1,2.37,2.37,0,0,1-1.92-1A4.94,4.94,0,0,1,176.66,78.79Zm1.18,0a4.69,4.69,0,0,0,.46,2.19,1.22,1.22,0,0,0,2.32,0,5.25,5.25,0,0,0,0-4.3,1.22,1.22,0,0,0-2.32,0A4.37,4.37,0,0,0,177.84,78.8Z"/><path class="cls-4" d="M183.09,76.64a1.74,1.74,0,0,1,.57-1.29A1.89,1.89,0,0,1,185,74.8a1.85,1.85,0,0,1,1.34.55,1.82,1.82,0,0,1,0,2.63,1.88,1.88,0,0,1-1.36.55A1.9,1.9,0,0,1,183.09,76.64Zm0.89,0a1,1,0,0,0,1,1,1,1,0,1,0-.72-1.73A1,1,0,0,0,184,76.66Zm5.51-1.91,0.56,0.32-4.53,7.86L185,82.59ZM188.1,81a1.73,1.73,0,0,1,.57-1.29,1.89,1.89,0,0,1,1.34-.55,1.86,1.86,0,0,1,1.35.55,1.81,1.81,0,0,1,0,2.63,1.88,1.88,0,0,1-1.36.54A1.89,1.89,0,0,1,188.1,81Zm0.9,0a1,1,0,0,0,.29.73,1,1,0,0,0,.72.3,1,1,0,0,0,.71-0.3,1,1,0,0,0,0-1.44A1,1,0,0,0,189,81Z"/><path class="cls-4" d="M157,87.48v4.76a2.61,2.61,0,0,0,.33,1.49,1.78,1.78,0,0,0,2.8,0,2.57,2.57,0,0,0,.33-1.49V87.48h1.19v5.1a2.85,2.85,0,0,1-.78,2.06,3,3,0,0,1-4.3,0,2.85,2.85,0,0,1-.78-2.06v-5.1H157Z"/><path class="cls-4" d="M163.37,90.41h1.16v0.46a1.89,1.89,0,0,1,1.36-.6,1.72,1.72,0,0,1,1.36.55,2.25,2.25,0,0,1,.42,1.52V95.4h-1.16V92.62a1.83,1.83,0,0,0-.21-1,0.83,0.83,0,0,0-.73-0.29,0.89,0.89,0,0,0-.81.38,2.6,2.6,0,0,0-.24,1.31V95.4h-1.16v-5Z"/><path class="cls-4" d="M170.31,91.48V95.4h-1.15V91.48h-0.49V90.41h0.49V88.58h1.15v1.83h0.9v1.08h-0.9Z"/><path class="cls-4" d="M176.63,93.18h-3.58a1.51,1.51,0,0,0,.4,1,1.22,1.22,0,0,0,.91.36,1.18,1.18,0,0,0,.71-0.21,2.92,2.92,0,0,0,.63-0.76l1,0.54a3.85,3.85,0,0,1-.48.66,2.55,2.55,0,0,1-.54.45,2.16,2.16,0,0,1-.62.26,3,3,0,0,1-.72.08,2.35,2.35,0,0,1-1.79-.72,2.69,2.69,0,0,1-.68-1.92,2.77,2.77,0,0,1,.66-1.92,2.5,2.5,0,0,1,3.5,0,2.76,2.76,0,0,1,.64,1.93v0.27Zm-1.18-.94a1.11,1.11,0,0,0-1.16-.92,1.19,1.19,0,0,0-.4.06,1.14,1.14,0,0,0-.34.18,1.16,1.16,0,0,0-.26.29,1.33,1.33,0,0,0-.16.38h2.32Z"/><path class="cls-4" d="M177.89,90.41H179v0.45a2.2,2.2,0,0,1,.56-0.46,1.3,1.3,0,0,1,.59-0.13,1.87,1.87,0,0,1,1,.3l-0.53,1.06a1.1,1.1,0,0,0-.64-0.24q-0.94,0-.94,1.43V95.4h-1.15v-5Z"/><path class="cls-4" d="M184.72,91.26l-1,.51a0.66,0.66,0,0,0-.56-0.46,0.38,0.38,0,0,0-.27.11,0.35,0.35,0,0,0-.11.27,0.87,0.87,0,0,0,.67.57,4,4,0,0,1,1.24.73,1.24,1.24,0,0,1,.32.9,1.57,1.57,0,0,1-.53,1.21,1.91,1.91,0,0,1-3-.76l1-.46a2.14,2.14,0,0,0,.31.46,0.71,0.71,0,0,0,.5.2,0.49,0.49,0,0,0,.58-0.53,0.73,0.73,0,0,0-.45-0.57l-0.35-.17-0.35-.17a2.17,2.17,0,0,1-.71-0.49,1.21,1.21,0,0,1-.26-0.8,1.43,1.43,0,0,1,.45-1.08,1.57,1.57,0,0,1,1.11-.42A1.51,1.51,0,0,1,184.72,91.26Z"/><path class="cls-4" d="M190,90.62v1.53a2.8,2.8,0,0,0-.71-0.66,1.38,1.38,0,0,0-.72-0.19,1.42,1.42,0,0,0-1.08.46,1.6,1.6,0,0,0-.43,1.14,1.64,1.64,0,0,0,.42,1.15,1.4,1.4,0,0,0,1.07.45,1.46,1.46,0,0,0,.73-0.18,2.91,2.91,0,0,0,.72-0.68v1.52a3,3,0,0,1-1.4.36,2.68,2.68,0,0,1-1.94-.75,2.5,2.5,0,0,1-.78-1.87,2.53,2.53,0,0,1,.79-1.89,2.67,2.67,0,0,1,1.94-.77A2.9,2.9,0,0,1,190,90.62Z"/><path class="cls-4" d="M191.36,86.74h1.15v4.08a2,2,0,0,1,1.36-.55,1.76,1.76,0,0,1,1.35.55,2.24,2.24,0,0,1,.43,1.52V95.4H194.5v-3a1.41,1.41,0,0,0-.21-0.87,0.82,0.82,0,0,0-.68-0.27,0.94,0.94,0,0,0-.85.38,2.56,2.56,0,0,0-.24,1.3V95.4h-1.15V86.74Z"/><path class="cls-4" d="M196.94,88.33a0.75,0.75,0,0,1,.75-0.74,0.73,0.73,0,0,1,.53.22,0.71,0.71,0,0,1,.22.53,0.73,0.73,0,0,1-.22.53,0.71,0.71,0,0,1-.53.22A0.75,0.75,0,0,1,196.94,88.33Zm1.33,2.08v5h-1.15v-5h1.15Z"/><path class="cls-4" d="M204.28,93.18H200.7a1.51,1.51,0,0,0,.4,1,1.22,1.22,0,0,0,.91.36,1.18,1.18,0,0,0,.71-0.21,2.93,2.93,0,0,0,.63-0.76l1,0.54a3.88,3.88,0,0,1-.48.66,2.54,2.54,0,0,1-.54.45,2.16,2.16,0,0,1-.62.26,3,3,0,0,1-.72.08,2.35,2.35,0,0,1-1.79-.72,2.69,2.69,0,0,1-.68-1.92,2.77,2.77,0,0,1,.66-1.92,2.26,2.26,0,0,1,1.75-.72,2.24,2.24,0,0,1,1.74.7,2.76,2.76,0,0,1,.64,1.93v0.27Zm-1.18-.94a1.11,1.11,0,0,0-1.16-.92,1.19,1.19,0,0,0-.39.06,1.14,1.14,0,0,0-.34.18,1.16,1.16,0,0,0-.26.29,1.36,1.36,0,0,0-.16.38h2.32Z"/><path class="cls-4" d="M209.22,86.74h1.16V95.4h-1.16V94.88a2.15,2.15,0,0,1-1.54.67,2.19,2.19,0,0,1-1.7-.75,2.78,2.78,0,0,1-.67-1.91A2.69,2.69,0,0,1,206,91a2.16,2.16,0,0,1,3.25,0V86.74Zm-2.74,6.15a1.74,1.74,0,0,0,.38,1.17,1.26,1.26,0,0,0,1,.46,1.32,1.32,0,0,0,1-.44,1.9,1.9,0,0,0,0-2.32,1.31,1.31,0,0,0-1-.45,1.28,1.28,0,0,0-1,.45A1.66,1.66,0,0,0,206.48,92.89Z"/></svg>