<svg id="Charts" xmlns="http://www.w3.org/2000/svg" xmlns:xlink="http://www.w3.org/1999/xlink" viewBox="0 0 418.65 310.57"><defs><style>.cls-1,.cls-13,.cls-2,.cls-5,.cls-6,.cls-8{fill:none;}.cls-11,.cls-13,.cls-14,.cls-2,.cls-5,.cls-6,.cls-8{stroke:#fff;stroke-miterlimit:10;}.cls-14,.cls-2{stroke-width:0.69px;}.cls-14,.cls-3,.cls-6{opacity:0.4;}.cls-11,.cls-14,.cls-4{fill:#fff;}.cls-7{clip-path:url(#clip-path);}.cls-8{stroke-width:1.12px;}.cls-9{clip-path:url(#clip-path-2);}.cls-10{clip-path:url(#clip-path-3);}.cls-11{stroke-width:1.4px;}.cls-12{clip-path:url(#clip-path-4);}.cls-13{stroke-width:0.55px;}</style><clipPath id="clip-path"><rect class="cls-1" x="95.52" y="96.89" width="46.91" height="162.4"/></clipPath><clipPath id="clip-path-2"><rect class="cls-1" x="225.81" y="109.88" width="46.91" height="149.41"/></clipPath><clipPath id="clip-path-3"><rect class="cls-1" x="356.11" y="116.38" width="46.91" height="142.91"/></clipPath><clipPath id="clip-path-4"><rect class="cls-2" x="216.86" y="33.08" width="10.29" height="10.29"/></clipPath></defs><title>Charts_</title><g class="cls-3"><path class="cls-4" d="M111.94,307.86h-1.57l-0.65-.67a4.18,4.18,0,0,1-2.31.67,4.32,4.32,0,0,1-2.93-1.12,4,4,0,0,1-1.39-3.14,4.13,4.13,0,0,1,1.32-3.12,4.33,4.33,0,0,1,5.85-.15,4.17,4.17,0,0,1,1.5,3.33,4,4,0,0,1-1.19,2.86Zm-3.44-3.44,1.2,1.2a2.83,2.83,0,0,0,.79-2,3.07,3.07,0,0,0-.89-2.24,3,3,0,0,0-2.2-.9,2.9,2.9,0,0,0-2.19.9,3.14,3.14,0,0,0-.87,2.27,2.9,2.9,0,0,0,.89,2.19,3,3,0,0,0,2.12.88,2.93,2.93,0,0,0,1.47-.37l-2-1.89h1.62Z"/><path class="cls-4" d="M114.31,302.48v3a1.05,1.05,0,1,0,2.05,0v-3h1.21v3a3.38,3.38,0,0,1-.16,1.08,1.83,1.83,0,0,1-.52.74,2.54,2.54,0,0,1-3.11,0,1.85,1.85,0,0,1-.53-0.74,3,3,0,0,1-.15-1.08v-3h1.21Z"/><path class="cls-4" d="M123.86,305.38h-3.75a1.59,1.59,0,0,0,.42,1,1.28,1.28,0,0,0,1,.38,1.24,1.24,0,0,0,.75-0.21,3,3,0,0,0,.66-0.79l1,0.57a4.1,4.1,0,0,1-.5.69,2.66,2.66,0,0,1-.56.47,2.25,2.25,0,0,1-.65.27,3.14,3.14,0,0,1-.76.09,2.46,2.46,0,0,1-1.88-.75,2.82,2.82,0,0,1-.71-2,2.9,2.9,0,0,1,.69-2,2.62,2.62,0,0,1,3.66,0,2.89,2.89,0,0,1,.67,2v0.28Zm-1.24-1a1.16,1.16,0,0,0-1.22-1,1.25,1.25,0,0,0-.41.07,1.19,1.19,0,0,0-.35.19,1.24,1.24,0,0,0-.27.3,1.42,1.42,0,0,0-.17.4h2.43Z"/><path class="cls-4" d="M126.39,298.64v9.07h-1.21v-9.07h1.21Z"/><path class="cls-4" d="M129.12,298.64v9.07h-1.21v-9.07h1.21Z"/><path class="cls-4" d="M135.42,305.38h-3.75a1.59,1.59,0,0,0,.42,1,1.28,1.28,0,0,0,1,.38,1.24,1.24,0,0,0,.75-0.21,3,3,0,0,0,.66-0.79l1,0.57a4.1,4.1,0,0,1-.5.69,2.66,2.66,0,0,1-.56.47,2.25,2.25,0,0,1-.65.27,3.14,3.14,0,0,1-.76.09,2.46,2.46,0,0,1-1.88-.75,2.82,2.82,0,0,1-.71-2,2.9,2.9,0,0,1,.69-2,2.62,2.62,0,0,1,3.66,0,2.89,2.89,0,0,1,.67,2v0.28Zm-1.24-1a1.16,1.16,0,0,0-1.22-1,1.25,1.25,0,0,0-.41.07,1.19,1.19,0,0,0-.35.19,1.24,1.24,0,0,0-.27.3,1.42,1.42,0,0,0-.17.4h2.43Z"/><path class="cls-4" d="M136.93,303.07a0.71,0.71,0,0,1,.22-0.52,0.75,0.75,0,0,1,1.27.53,0.73,0.73,0,0,1-.22.53,0.75,0.75,0,0,1-1.06,0A0.73,0.73,0,0,1,136.93,303.07Zm0,4a0.75,0.75,0,0,1,1.49,0,0.72,0.72,0,0,1-.22.53,0.76,0.76,0,0,1-1.06,0A0.73,0.73,0,0,1,136.93,307.11Z"/><path class="cls-4" d="M146,300.6v7.12H144.8V300.6h-1.91v-1.18H148v1.18H146Z"/><path class="cls-4" d="M152.23,302.48h1.21v5.23h-1.21v-0.55a2.32,2.32,0,0,1-3.4-.09,2.92,2.92,0,0,1-.7-2,2.83,2.83,0,0,1,.7-2,2.27,2.27,0,0,1,1.76-.79,2.23,2.23,0,0,1,1.64.75v-0.61Zm-2.87,2.6a1.82,1.82,0,0,0,.4,1.22,1.32,1.32,0,0,0,1,.48,1.39,1.39,0,0,0,1.09-.46,2,2,0,0,0,0-2.43,1.37,1.37,0,0,0-1.07-.47,1.34,1.34,0,0,0-1,.47A1.74,1.74,0,0,0,149.36,305.08Z"/><path class="cls-4" d="M155,302.48h1.21V303a2.54,2.54,0,0,1,.6-0.49,1.44,1.44,0,0,1,.66-0.13,1.6,1.6,0,0,1,1.4.77,1.82,1.82,0,0,1,1.54-.77q1.77,0,1.77,2.14v3.23h-1.21v-2.91a2.23,2.23,0,0,0-.18-1.06,0.66,0.66,0,0,0-.62-0.32,0.79,0.79,0,0,0-.73.38,2.42,2.42,0,0,0-.23,1.21v2.7H158v-2.89q0-1.4-.8-1.4a0.81,0.81,0,0,0-.74.38,2.37,2.37,0,0,0-.23,1.2v2.7H155v-5.23Z"/><path class="cls-4" d="M168.44,305.38h-3.75a1.59,1.59,0,0,0,.42,1,1.28,1.28,0,0,0,1,.38,1.24,1.24,0,0,0,.75-0.21,3,3,0,0,0,.66-0.79l1,0.57a4.1,4.1,0,0,1-.5.69,2.66,2.66,0,0,1-.56.47,2.25,2.25,0,0,1-.65.27,3.14,3.14,0,0,1-.76.09,2.46,2.46,0,0,1-1.88-.75,2.82,2.82,0,0,1-.71-2,2.9,2.9,0,0,1,.69-2,2.62,2.62,0,0,1,3.66,0,2.89,2.89,0,0,1,.67,2v0.28Zm-1.24-1a1.16,1.16,0,0,0-1.22-1,1.25,1.25,0,0,0-.41.07,1.19,1.19,0,0,0-.35.19,1.24,1.24,0,0,0-.27.3,1.42,1.42,0,0,0-.17.4h2.43Z"/><path class="cls-4" d="M173.61,298.64h1.21v9.07h-1.21v-0.55a2.26,2.26,0,0,1-1.62.7,2.3,2.3,0,0,1-1.78-.78,2.92,2.92,0,0,1-.7-2,2.82,2.82,0,0,1,.7-2,2.26,2.26,0,0,1,3.4,0v-4.45Zm-2.87,6.44a1.82,1.82,0,0,0,.4,1.22,1.32,1.32,0,0,0,1,.48,1.39,1.39,0,0,0,1.09-.46,2,2,0,0,0,0-2.43,1.37,1.37,0,0,0-1.07-.47,1.34,1.34,0,0,0-1,.47A1.74,1.74,0,0,0,170.75,305.08Z"/><path class="cls-4" d="M176.17,300.31a0.79,0.79,0,0,1,.78-0.78,0.76,0.76,0,0,1,.56.23,0.74,0.74,0,0,1,.23.55,0.76,0.76,0,0,1-.23.56,0.74,0.74,0,0,1-.55.23A0.79,0.79,0,0,1,176.17,300.31Zm1.39,2.17v5.23h-1.21v-5.23h1.21Z"/><path class="cls-4" d="M182.95,302.48h1.21v5.23h-1.21v-0.55a2.32,2.32,0,0,1-3.4-.09,2.92,2.92,0,0,1-.7-2,2.83,2.83,0,0,1,.7-2,2.27,2.27,0,0,1,1.76-.79,2.23,2.23,0,0,1,1.64.75v-0.61Zm-2.87,2.6a1.82,1.82,0,0,0,.4,1.22,1.32,1.32,0,0,0,1,.48,1.39,1.39,0,0,0,1.09-.46,2,2,0,0,0,0-2.43,1.37,1.37,0,0,0-1.07-.47,1.34,1.34,0,0,0-1,.47A1.74,1.74,0,0,0,180.08,305.08Z"/><path class="cls-4" d="M194.18,305.7h-3.55l-0.92,2h-1.35l4.1-8.81,4,8.81h-1.37Zm-0.51-1.18-1.23-2.82-1.29,2.82h2.52Z"/><path class="cls-4" d="M198.59,298.64v4.45a2.23,2.23,0,0,1,1.64-.75,2.26,2.26,0,0,1,1.76.79,2.82,2.82,0,0,1,.7,2,2.88,2.88,0,0,1-.71,2,2.29,2.29,0,0,1-1.78.78,2.26,2.26,0,0,1-1.62-.7v0.55h-1.21v-9.07h1.21Zm2.87,6.49a1.81,1.81,0,0,0-.41-1.22,1.31,1.31,0,0,0-1-.48,1.39,1.39,0,0,0-1.09.47,1.74,1.74,0,0,0-.41,1.2,1.76,1.76,0,0,0,.41,1.22,1.36,1.36,0,0,0,1.07.47,1.33,1.33,0,0,0,1-.47A1.72,1.72,0,0,0,201.47,305.13Z"/><path class="cls-4" d="M207,303.37l-1,.53a0.69,0.69,0,0,0-.58-0.48,0.4,0.4,0,0,0-.29.11,0.37,0.37,0,0,0-.12.28,0.91,0.91,0,0,0,.7.6,4.18,4.18,0,0,1,1.29.76,1.3,1.3,0,0,1,.33.94,1.64,1.64,0,0,1-.56,1.27,2,2,0,0,1-3.17-.8l1-.48a2.22,2.22,0,0,0,.33.48,0.75,0.75,0,0,0,.53.2,0.52,0.52,0,0,0,.61-0.56,0.77,0.77,0,0,0-.47-0.6l-0.37-.18-0.37-.18a2.28,2.28,0,0,1-.74-0.52,1.27,1.27,0,0,1-.27-0.84,1.49,1.49,0,0,1,.47-1.13,1.64,1.64,0,0,1,1.16-.45A1.58,1.58,0,0,1,207,303.37Z"/><path class="cls-4" d="M209.69,303.61v4.1h-1.21v-4.1H208v-1.13h0.52v-1.92h1.21v1.92h0.94v1.13h-0.94Z"/><path class="cls-4" d="M211.27,300.31a0.79,0.79,0,0,1,.78-0.78,0.76,0.76,0,0,1,.56.23,0.74,0.74,0,0,1,.23.55,0.76,0.76,0,0,1-.23.56,0.74,0.74,0,0,1-.55.23A0.79,0.79,0,0,1,211.27,300.31Zm1.39,2.17v5.23h-1.21v-5.23h1.21Z"/><path class="cls-4" d="M214.19,302.48h1.21V303a2.54,2.54,0,0,1,.6-0.49,1.44,1.44,0,0,1,.66-0.13,1.6,1.6,0,0,1,1.4.77,1.82,1.82,0,0,1,1.54-.77q1.77,0,1.77,2.14v3.23h-1.21v-2.91a2.23,2.23,0,0,0-.18-1.06,0.66,0.66,0,0,0-.62-0.32,0.79,0.79,0,0,0-.73.38,2.42,2.42,0,0,0-.23,1.21v2.7h-1.21v-2.89q0-1.4-.8-1.4a0.81,0.81,0,0,0-.74.38,2.37,2.37,0,0,0-.23,1.2v2.7h-1.21v-5.23Z"/><path class="cls-4" d="M222.89,302.48h1.21V303a2.54,2.54,0,0,1,.6-0.49,1.44,1.44,0,0,1,.66-0.13,1.6,1.6,0,0,1,1.4.77,1.82,1.82,0,0,1,1.54-.77q1.77,0,1.77,2.14v3.23h-1.21v-2.91a2.23,2.23,0,0,0-.18-1.06,0.66,0.66,0,0,0-.62-0.32,0.79,0.79,0,0,0-.73.38,2.42,2.42,0,0,0-.23,1.21v2.7h-1.21v-2.89q0-1.4-.8-1.4a0.81,0.81,0,0,0-.74.38,2.37,2.37,0,0,0-.23,1.2v2.7h-1.21v-5.23Z"/><path class="cls-4" d="M232.8,302.48v3a1.05,1.05,0,1,0,2.05,0v-3h1.21v3a3.38,3.38,0,0,1-.16,1.08,1.83,1.83,0,0,1-.52.74,2.54,2.54,0,0,1-3.11,0,1.85,1.85,0,0,1-.53-0.74,3,3,0,0,1-.15-1.08v-3h1.21Z"/><path class="cls-4" d="M237.59,302.48h1.21V303a2,2,0,0,1,1.43-.63,1.8,1.8,0,0,1,1.42.58,2.35,2.35,0,0,1,.44,1.59v3.21h-1.21v-2.92a1.91,1.91,0,0,0-.21-1.07,0.87,0.87,0,0,0-.76-0.3,0.94,0.94,0,0,0-.85.4,2.73,2.73,0,0,0-.25,1.37v2.52h-1.21v-5.23Z"/><path class="cls-4" d="M248.68,307.59q0,0.37,0,.65a4.25,4.25,0,0,1-.07.5,2.22,2.22,0,0,1-.5,1,2.45,2.45,0,0,1-2,.82,2.59,2.59,0,0,1-1.72-.57,2.32,2.32,0,0,1-.81-1.61h1.21a1.37,1.37,0,0,0,.23.6,1.3,1.3,0,0,0,1.1.49q1.33,0,1.33-1.62v-0.73a2.25,2.25,0,0,1-1.66.74,2.23,2.23,0,0,1-1.75-.77,2.87,2.87,0,0,1-.69-2,3,3,0,0,1,.64-1.94,2.22,2.22,0,0,1,1.82-.85,2.11,2.11,0,0,1,1.64.74v-0.59h1.21v5.11Zm-1.16-2.48a1.75,1.75,0,0,0-.41-1.22,1.35,1.35,0,0,0-1.06-.47,1.3,1.3,0,0,0-1.08.51,2.09,2.09,0,0,0,0,2.35,1.3,1.3,0,0,0,1.08.5,1.33,1.33,0,0,0,1.1-.5A1.79,1.79,0,0,0,247.52,305.11Z"/><path class="cls-4" d="M253.25,303.37l-1,.53a0.69,0.69,0,0,0-.58-0.48,0.4,0.4,0,0,0-.29.11,0.37,0.37,0,0,0-.12.28,0.91,0.91,0,0,0,.7.6,4.18,4.18,0,0,1,1.29.76,1.3,1.3,0,0,1,.33.94,1.64,1.64,0,0,1-.56,1.27,2,2,0,0,1-3.17-.8l1-.48a2.22,2.22,0,0,0,.33.48,0.75,0.75,0,0,0,.53.2,0.52,0.52,0,0,0,.61-0.56,0.77,0.77,0,0,0-.47-0.6l-0.37-.18-0.37-.18a2.28,2.28,0,0,1-.74-0.52,1.27,1.27,0,0,1-.27-0.84,1.49,1.49,0,0,1,.47-1.13,1.64,1.64,0,0,1,1.16-.45A1.58,1.58,0,0,1,253.25,303.37Z"/><path class="cls-4" d="M257.71,303.37l-1,.53a0.69,0.69,0,0,0-.58-0.48,0.4,0.4,0,0,0-.29.11,0.37,0.37,0,0,0-.12.28,0.91,0.91,0,0,0,.7.6,4.18,4.18,0,0,1,1.29.76,1.3,1.3,0,0,1,.33.94,1.64,1.64,0,0,1-.56,1.27,2,2,0,0,1-3.17-.8l1-.48a2.22,2.22,0,0,0,.33.48,0.75,0.75,0,0,0,.53.2,0.52,0.52,0,0,0,.61-0.56,0.77,0.77,0,0,0-.47-0.6l-0.37-.18-0.37-.18a2.28,2.28,0,0,1-.74-0.52,1.27,1.27,0,0,1-.27-0.84,1.49,1.49,0,0,1,.47-1.13,1.64,1.64,0,0,1,1.16-.45A1.58,1.58,0,0,1,257.71,303.37Z"/><path class="cls-4" d="M260.38,303.61v4.1h-1.21v-4.1h-0.52v-1.13h0.52v-1.92h1.21v1.92h0.94v1.13h-0.94Z"/><path class="cls-4" d="M263.35,302.48v3a1.05,1.05,0,1,0,2.05,0v-3h1.21v3a3.38,3.38,0,0,1-.16,1.08,1.83,1.83,0,0,1-.52.74,2.54,2.54,0,0,1-3.11,0,1.85,1.85,0,0,1-.53-0.74,3,3,0,0,1-.15-1.08v-3h1.21Z"/><path class="cls-4" d="M272,298.64h1.21v9.07H272v-0.55a2.26,2.26,0,0,1-1.62.7,2.3,2.3,0,0,1-1.78-.78,2.92,2.92,0,0,1-.7-2,2.82,2.82,0,0,1,.7-2,2.26,2.26,0,0,1,3.4,0v-4.45Zm-2.87,6.44a1.82,1.82,0,0,0,.4,1.22,1.32,1.32,0,0,0,1,.48,1.39,1.39,0,0,0,1.09-.46,2,2,0,0,0,0-2.43,1.37,1.37,0,0,0-1.07-.47,1.34,1.34,0,0,0-1,.47A1.74,1.74,0,0,0,269.12,305.08Z"/><path class="cls-4" d="M274.55,300.31a0.79,0.79,0,0,1,.78-0.78,0.76,0.76,0,0,1,.56.23,0.74,0.74,0,0,1,.23.55,0.76,0.76,0,0,1-.23.56,0.74,0.74,0,0,1-.55.23A0.79,0.79,0,0,1,274.55,300.31Zm1.39,2.17v5.23h-1.21v-5.23h1.21Z"/><path class="cls-4" d="M282.23,305.38h-3.75a1.59,1.59,0,0,0,.42,1,1.28,1.28,0,0,0,1,.38,1.24,1.24,0,0,0,.75-0.21,3,3,0,0,0,.66-0.79l1,0.57a4.1,4.1,0,0,1-.5.69,2.66,2.66,0,0,1-.56.47,2.25,2.25,0,0,1-.65.27,3.14,3.14,0,0,1-.76.09,2.46,2.46,0,0,1-1.88-.75,2.82,2.82,0,0,1-.71-2,2.9,2.9,0,0,1,.69-2,2.62,2.62,0,0,1,3.66,0,2.89,2.89,0,0,1,.67,2v0.28Zm-1.24-1a1.16,1.16,0,0,0-1.22-1,1.25,1.25,0,0,0-.41.07,1.19,1.19,0,0,0-.35.19,1.24,1.24,0,0,0-.27.3,1.42,1.42,0,0,0-.17.4H281Z"/><path class="cls-4" d="M288.94,306.54H292v1.18h-5.57l2.88-3.49q0.42-.52.71-0.9a7,7,0,0,0,.44-0.64,1.8,1.8,0,0,0,.31-0.91,1.29,1.29,0,0,0-.41-1,1.46,1.46,0,0,0-2.45,1.1h-1.25q0.3-2.62,2.65-2.62a2.68,2.68,0,0,1,1.9.72,2.34,2.34,0,0,1,.77,1.78,2.7,2.7,0,0,1-.36,1.33,6.47,6.47,0,0,1-.53.8q-0.35.46-.89,1.1Z"/><path class="cls-4" d="M293.44,303.51a5,5,0,0,1,.92-3.16,2.41,2.41,0,0,1,4,0,6.05,6.05,0,0,1,0,6.43,2.46,2.46,0,0,1-2,1.07,2.49,2.49,0,0,1-2-1.07A5.18,5.18,0,0,1,293.44,303.51Zm1.24,0a4.92,4.92,0,0,0,.48,2.29,1.27,1.27,0,0,0,2.43,0,5.49,5.49,0,0,0,0-4.51,1.27,1.27,0,0,0-2.43,0A4.58,4.58,0,0,0,294.68,303.52Z"/><path class="cls-4" d="M301.9,300.6h-1.43l0.69-1.18h2v8.29H301.9V300.6Z"/><path class="cls-4" d="M309.06,299.13l0.92,0.69-2,2.7,0.27,0h0.18a2.33,2.33,0,0,1,1.75.77,2.56,2.56,0,0,1,.73,1.84,2.78,2.78,0,0,1-2.77,2.77,2.79,2.79,0,0,1-2-.8,2.54,2.54,0,0,1-.83-1.9,3.57,3.57,0,0,1,.81-2.08Zm0.64,6a1.57,1.57,0,1,0-1.56,1.55A1.57,1.57,0,0,0,309.7,305.16Z"/></g><path class="cls-4" d="M56.9,282.66v-9.5h1.43a6.24,6.24,0,0,1,1.52.15,2.29,2.29,0,0,1,1,.5,2.59,2.59,0,0,1,.63.9,2.73,2.73,0,0,1,.24,1.11,2.25,2.25,0,0,1-.78,1.73,2.29,2.29,0,0,1,1.19.9,2.68,2.68,0,0,1-.34,3.37,2.58,2.58,0,0,1-1.06.66,6.18,6.18,0,0,1-1.62.18H56.9Zm1.43-5.42h0.45a1.65,1.65,0,0,0,1.17-.35,1.37,1.37,0,0,0,.37-1,1.31,1.31,0,0,0-.38-1,1.59,1.59,0,0,0-1.11-.35h-0.5v2.76Zm0,4.07h0.89a2.2,2.2,0,0,0,1.43-.38,1.32,1.32,0,0,0,.48-1,1.34,1.34,0,0,0-.46-1,2.39,2.39,0,0,0-1.61-.41H58.33v2.87Z"/><path class="cls-4" d="M68.5,276.67h1.39v6H68.5V282a2.66,2.66,0,0,1-3.89-.1,3.34,3.34,0,0,1-.81-2.29,3.24,3.24,0,0,1,.81-2.25,2.6,2.6,0,0,1,2-.9,2.55,2.55,0,0,1,1.88.86v-0.7Zm-3.29,3a2.09,2.09,0,0,0,.46,1.4,1.51,1.51,0,0,0,1.19.55,1.59,1.59,0,0,0,1.24-.53,2.28,2.28,0,0,0,0-2.78,1.56,1.56,0,0,0-1.23-.54,1.53,1.53,0,0,0-1.19.54A2,2,0,0,0,65.21,279.65Z"/><path class="cls-4" d="M75.12,277.69L74,278.3a0.79,0.79,0,0,0-.67-0.55,0.46,0.46,0,0,0-.33.13,0.42,0.42,0,0,0-.14.32,1,1,0,0,0,.8.68,4.76,4.76,0,0,1,1.48.87,1.49,1.49,0,0,1,.38,1.08,1.88,1.88,0,0,1-.64,1.45,2.3,2.3,0,0,1-3.64-.92l1.18-.55a2.59,2.59,0,0,0,.38.55,0.86,0.86,0,0,0,.6.23,0.59,0.59,0,0,0,.7-0.64,0.88,0.88,0,0,0-.54-0.69l-0.42-.2-0.42-.2a2.61,2.61,0,0,1-.85-0.59,1.45,1.45,0,0,1-.31-1,1.71,1.71,0,0,1,.54-1.29,1.88,1.88,0,0,1,1.33-.51A1.81,1.81,0,0,1,75.12,277.69Z"/><path class="cls-4" d="M82.21,280H77.91a1.82,1.82,0,0,0,.48,1.17,1.46,1.46,0,0,0,1.09.43,1.42,1.42,0,0,0,.85-0.25,3.51,3.51,0,0,0,.76-0.91l1.17,0.65a4.72,4.72,0,0,1-.57.79,3,3,0,0,1-.65.54,2.62,2.62,0,0,1-.74.31,3.63,3.63,0,0,1-.87.1,2.82,2.82,0,0,1-2.15-.86,3.23,3.23,0,0,1-.81-2.3,3.32,3.32,0,0,1,.79-2.3,3,3,0,0,1,4.2,0,3.32,3.32,0,0,1,.76,2.32V280Zm-1.42-1.13a1.33,1.33,0,0,0-1.4-1.11,1.45,1.45,0,0,0-.47.08,1.39,1.39,0,0,0-.4.22,1.41,1.41,0,0,0-.31.35,1.6,1.6,0,0,0-.2.46h2.78Z"/><path class="cls-4" d="M85.1,272.27v10.39H83.72V272.27H85.1Z"/><path class="cls-4" d="M86,279h2.74v1.21H86V279Z"/><path class="cls-4" d="M95.24,274.57l-1.16.69a2,2,0,0,0-.62-0.74,1.66,1.66,0,0,0-1.78.14,1.05,1.05,0,0,0-.39.84,1.32,1.32,0,0,0,1,1.12L93.26,277a4.05,4.05,0,0,1,1.69,1.14,2.58,2.58,0,0,1,.54,1.65,2.91,2.91,0,0,1-.87,2.17,3,3,0,0,1-2.18.86,2.92,2.92,0,0,1-2-.74,3.38,3.38,0,0,1-1-2.06l1.45-.32a2.47,2.47,0,0,0,.34,1.16,1.64,1.64,0,0,0,2.41.17A1.55,1.55,0,0,0,94,279.9a1.6,1.6,0,0,0-.08-0.51,1.29,1.29,0,0,0-.24-0.42,1.94,1.94,0,0,0-.42-0.36,4.12,4.12,0,0,0-.62-0.32l-0.92-.38a2.64,2.64,0,0,1-2-2.41,2.29,2.29,0,0,1,.82-1.79,3,3,0,0,1,2-.73A2.84,2.84,0,0,1,95.24,274.57Z"/><path class="cls-4" d="M98.59,278v4.7H97.21V278H96.62v-1.29h0.59v-2.2h1.38v2.2h1.08V278H98.59Z"/><path class="cls-4" d="M105.14,276.67h1.39v6h-1.39V282a2.66,2.66,0,0,1-3.89-.1,3.34,3.34,0,0,1-.81-2.29,3.24,3.24,0,0,1,.81-2.25,2.6,2.6,0,0,1,2-.9,2.55,2.55,0,0,1,1.88.86v-0.7Zm-3.29,3a2.09,2.09,0,0,0,.46,1.4,1.51,1.51,0,0,0,1.19.55,1.59,1.59,0,0,0,1.24-.53,2.28,2.28,0,0,0,0-2.78,1.56,1.56,0,0,0-1.23-.54,1.53,1.53,0,0,0-1.19.54A2,2,0,0,0,101.85,279.65Z"/><path class="cls-4" d="M112.69,272.27h1.39v10.39h-1.39V282a2.58,2.58,0,0,1-1.85.8,2.64,2.64,0,0,1-2-.9,3.34,3.34,0,0,1-.81-2.29,3.23,3.23,0,0,1,.81-2.24,2.59,2.59,0,0,1,3.89,0v-5.09Zm-3.29,7.38a2.09,2.09,0,0,0,.46,1.4,1.51,1.51,0,0,0,1.19.55,1.59,1.59,0,0,0,1.24-.53,2.28,2.28,0,0,0,0-2.78,1.56,1.56,0,0,0-1.23-.54,1.53,1.53,0,0,0-1.19.54A2,2,0,0,0,109.41,279.65Z"/><path class="cls-4" d="M117.26,278v4.7h-1.38V278h-0.59v-1.29h0.59v-2.2h1.38v2.2h1.08V278h-1.08Z"/><path class="cls-4" d="M192.45,282.66v-9.5h1.43a6.24,6.24,0,0,1,1.52.15,2.29,2.29,0,0,1,1,.5,2.59,2.59,0,0,1,.63.9,2.73,2.73,0,0,1,.24,1.11,2.25,2.25,0,0,1-.78,1.73,2.29,2.29,0,0,1,1.19.9,2.68,2.68,0,0,1-.34,3.37,2.58,2.58,0,0,1-1.06.66,6.18,6.18,0,0,1-1.62.18h-2.17Zm1.43-5.42h0.45a1.65,1.65,0,0,0,1.17-.35,1.37,1.37,0,0,0,.37-1,1.31,1.31,0,0,0-.38-1,1.59,1.59,0,0,0-1.11-.35h-0.5v2.76Zm0,4.07h0.89a2.2,2.2,0,0,0,1.43-.38,1.32,1.32,0,0,0,.48-1,1.34,1.34,0,0,0-.46-1,2.39,2.39,0,0,0-1.61-.41h-0.73v2.87Z"/><path class="cls-4" d="M204.06,276.67h1.39v6h-1.39V282a2.66,2.66,0,0,1-3.89-.1,3.34,3.34,0,0,1-.81-2.29,3.24,3.24,0,0,1,.81-2.25,2.6,2.6,0,0,1,2-.9,2.55,2.55,0,0,1,1.88.86v-0.7Zm-3.29,3a2.09,2.09,0,0,0,.46,1.4,1.51,1.51,0,0,0,1.19.55,1.59,1.59,0,0,0,1.24-.53,2.28,2.28,0,0,0,0-2.78,1.56,1.56,0,0,0-1.23-.54,1.53,1.53,0,0,0-1.19.54A2,2,0,0,0,200.77,279.65Z"/><path class="cls-4" d="M210.68,277.69l-1.14.61a0.79,0.79,0,0,0-.67-0.55,0.46,0.46,0,0,0-.33.13,0.42,0.42,0,0,0-.14.32,1,1,0,0,0,.8.68,4.76,4.76,0,0,1,1.48.87,1.49,1.49,0,0,1,.38,1.08,1.88,1.88,0,0,1-.64,1.45,2.3,2.3,0,0,1-3.64-.92l1.18-.55a2.59,2.59,0,0,0,.38.55,0.86,0.86,0,0,0,.6.23,0.59,0.59,0,0,0,.7-0.64,0.88,0.88,0,0,0-.54-0.69l-0.42-.2-0.42-.2a2.61,2.61,0,0,1-.85-0.59,1.45,1.45,0,0,1-.31-1,1.71,1.71,0,0,1,.54-1.29,1.88,1.88,0,0,1,1.33-.51A1.81,1.81,0,0,1,210.68,277.69Z"/><path class="cls-4" d="M217.76,280h-4.29a1.82,1.82,0,0,0,.48,1.17,1.46,1.46,0,0,0,1.09.43,1.42,1.42,0,0,0,.85-0.25,3.51,3.51,0,0,0,.76-0.91l1.17,0.65a4.72,4.72,0,0,1-.57.79,3,3,0,0,1-.65.54,2.62,2.62,0,0,1-.74.31,3.63,3.63,0,0,1-.87.1,2.82,2.82,0,0,1-2.15-.86,3.23,3.23,0,0,1-.81-2.3,3.32,3.32,0,0,1,.79-2.3,3,3,0,0,1,4.2,0,3.32,3.32,0,0,1,.76,2.32V280Zm-1.42-1.13a1.33,1.33,0,0,0-1.4-1.11,1.45,1.45,0,0,0-.47.08,1.39,1.39,0,0,0-.4.22,1.41,1.41,0,0,0-.31.35,1.6,1.6,0,0,0-.2.46h2.78Z"/><path class="cls-4" d="M220.66,272.27v10.39h-1.38V272.27h1.38Z"/><path class="cls-4" d="M223.8,272.27v10.39h-1.38V272.27h1.38Z"/><path class="cls-4" d="M230,276.67h1.39v6H230V282a2.66,2.66,0,0,1-3.9-.1,3.34,3.34,0,0,1-.81-2.29,3.24,3.24,0,0,1,.81-2.25,2.6,2.6,0,0,1,2-.9,2.55,2.55,0,0,1,1.88.86v-0.7Zm-3.29,3a2.09,2.09,0,0,0,.46,1.4,1.51,1.51,0,0,0,1.19.55,1.58,1.58,0,0,0,1.24-.53,2.27,2.27,0,0,0,0-2.78,1.56,1.56,0,0,0-1.23-.54,1.53,1.53,0,0,0-1.19.54A2,2,0,0,0,226.68,279.65Z"/><path class="cls-4" d="M233.11,276.67h1.39v0.55a2.27,2.27,0,0,1,1.64-.72,2.07,2.07,0,0,1,1.63.66,2.7,2.7,0,0,1,.5,1.83v3.67h-1.39v-3.34a2.19,2.19,0,0,0-.25-1.22,1,1,0,0,0-.87-0.34,1.07,1.07,0,0,0-1,.45,3.13,3.13,0,0,0-.28,1.57v2.89h-1.39v-6Z"/><path class="cls-4" d="M244.43,272.27h1.39v10.39h-1.39V282a2.58,2.58,0,0,1-1.85.8,2.64,2.64,0,0,1-2-.9,3.34,3.34,0,0,1-.81-2.29,3.23,3.23,0,0,1,.81-2.24,2.59,2.59,0,0,1,3.89,0v-5.09Zm-3.29,7.38a2.08,2.08,0,0,0,.46,1.4,1.51,1.51,0,0,0,1.19.55,1.59,1.59,0,0,0,1.24-.53,2.28,2.28,0,0,0,0-2.78,1.56,1.56,0,0,0-1.23-.54,1.53,1.53,0,0,0-1.19.54A2,2,0,0,0,241.15,279.65Z"/><path class="cls-4" d="M333.89,274.57l-1.16.69a2,2,0,0,0-.62-0.74,1.66,1.66,0,0,0-1.78.14,1.05,1.05,0,0,0-.39.84,1.32,1.32,0,0,0,1,1.12l0.95,0.39a4.05,4.05,0,0,1,1.69,1.14,2.57,2.57,0,0,1,.54,1.65,2.91,2.91,0,0,1-.87,2.17,3,3,0,0,1-2.18.86,2.91,2.91,0,0,1-2-.74,3.38,3.38,0,0,1-1-2.06l1.45-.32a2.47,2.47,0,0,0,.34,1.16,1.64,1.64,0,0,0,2.41.17,1.55,1.55,0,0,0,.44-1.14,1.59,1.59,0,0,0-.08-0.51,1.27,1.27,0,0,0-.24-0.42,1.94,1.94,0,0,0-.42-0.36,4.16,4.16,0,0,0-.62-0.32l-0.92-.38a2.64,2.64,0,0,1-2-2.41,2.28,2.28,0,0,1,.82-1.79,3,3,0,0,1,2-.73A2.84,2.84,0,0,1,333.89,274.57Z"/><path class="cls-4" d="M340.27,276.93v1.84a3.37,3.37,0,0,0-.85-0.79,1.66,1.66,0,0,0-.87-0.22,1.71,1.71,0,0,0-1.3.55,1.92,1.92,0,0,0-.52,1.37,2,2,0,0,0,.5,1.38,1.68,1.68,0,0,0,1.29.54,1.76,1.76,0,0,0,.88-0.21,3.48,3.48,0,0,0,.87-0.81v1.83a3.64,3.64,0,0,1-1.69.44,3.23,3.23,0,0,1-2.33-.9,3,3,0,0,1-.93-2.25,3,3,0,0,1,.95-2.26,3.21,3.21,0,0,1,2.33-.92A3.49,3.49,0,0,1,340.27,276.93Z"/><path class="cls-4" d="M341.94,272.27h1.38v4.9a2.38,2.38,0,0,1,1.63-.66,2.1,2.1,0,0,1,1.62.66,2.68,2.68,0,0,1,.52,1.83v3.67h-1.38v-3.54a1.69,1.69,0,0,0-.25-1,1,1,0,0,0-.82-0.32,1.13,1.13,0,0,0-1,.45,3.09,3.09,0,0,0-.29,1.56v2.9h-1.38V272.27Z"/><path class="cls-4" d="M349.59,276.67l1.57,3.42,1.69-4,1.7,4,1.55-3.42h1.55l-3.14,6.44-1.67-3.86-1.69,3.86L348,276.67h1.56Z"/><path class="cls-4" d="M363.86,280h-4.29a1.82,1.82,0,0,0,.48,1.17,1.46,1.46,0,0,0,1.09.43,1.42,1.42,0,0,0,.86-0.25,3.51,3.51,0,0,0,.76-0.91l1.17,0.65a4.69,4.69,0,0,1-.57.79,3,3,0,0,1-.65.54,2.61,2.61,0,0,1-.74.31,3.64,3.64,0,0,1-.87.1,2.82,2.82,0,0,1-2.15-.86,3.23,3.23,0,0,1-.81-2.3,3.32,3.32,0,0,1,.79-2.3,3,3,0,0,1,4.2,0,3.31,3.31,0,0,1,.76,2.32V280Zm-1.42-1.13a1.33,1.33,0,0,0-1.4-1.11,1.45,1.45,0,0,0-.47.08,1.37,1.37,0,0,0-.4.22,1.44,1.44,0,0,0-.31.35,1.62,1.62,0,0,0-.2.46h2.78Z"/><path class="cls-4" d="M365.17,274.18a0.9,0.9,0,0,1,.9-0.89,0.87,0.87,0,0,1,.64.26,0.85,0.85,0,0,1,.26.63,0.87,0.87,0,0,1-.26.64,0.85,0.85,0,0,1-.63.26A0.9,0.9,0,0,1,365.17,274.18Zm1.59,2.49v6h-1.38v-6h1.38Z"/><path class="cls-4" d="M370.5,281.36h3.56v1.3h-6.31l3.88-4.7h-3.06v-1.29h5.79Z"/><line class="cls-5" x1="27.77" y1="259.29" x2="418.65" y2="259.29"/><path class="cls-4" d="M3.68,222.71H2l0.79-1.35H5.11v9.5H3.68v-8.15Z"/><path class="cls-4" d="M7.82,226a5.73,5.73,0,0,1,1.06-3.62,2.76,2.76,0,0,1,4.59,0,6.94,6.94,0,0,1,0,7.36A2.82,2.82,0,0,1,11.18,231a2.85,2.85,0,0,1-2.3-1.22A5.93,5.93,0,0,1,7.82,226Zm1.42,0a5.63,5.63,0,0,0,.55,2.63,1.6,1.6,0,0,0,1.39,1,1.61,1.61,0,0,0,1.39-1,6.3,6.3,0,0,0,0-5.16,1.61,1.61,0,0,0-1.39-1,1.61,1.61,0,0,0-1.39,1A5.26,5.26,0,0,0,9.23,226.06Z"/><path class="cls-4" d="M3,197H6.58v1.35H0.2l3.3-4q0.49-.6.82-1a7.89,7.89,0,0,0,.5-0.73,2.06,2.06,0,0,0,.35-1,1.48,1.48,0,0,0-.47-1.11A1.61,1.61,0,0,0,3.54,190a1.61,1.61,0,0,0-1.65,1.7H0.46q0.34-3,3-3a3.06,3.06,0,0,1,2.18.82,2.68,2.68,0,0,1,.89,2,3.11,3.11,0,0,1-.41,1.52,7.43,7.43,0,0,1-.61.92q-0.4.53-1,1.26Z"/><path class="cls-4" d="M8.19,193.57a5.73,5.73,0,0,1,1.06-3.62,2.76,2.76,0,0,1,4.59,0,6.94,6.94,0,0,1,0,7.36,2.82,2.82,0,0,1-2.29,1.22,2.85,2.85,0,0,1-2.3-1.22A5.93,5.93,0,0,1,8.19,193.57Zm1.42,0a5.63,5.63,0,0,0,.55,2.63,1.6,1.6,0,0,0,1.39,1,1.61,1.61,0,0,0,1.39-1,6.3,6.3,0,0,0,0-5.16,1.61,1.61,0,0,0-1.39-1,1.61,1.61,0,0,0-1.39,1A5.26,5.26,0,0,0,9.61,193.58Z"/><path class="cls-4" d="M3.14,161.49v-1.22a2.49,2.49,0,0,0,1.22-.2,1.25,1.25,0,0,0,.56-1.14,1.3,1.3,0,0,0-.41-1,1.43,1.43,0,0,0-1-.39,1.35,1.35,0,0,0-.92.29,1.92,1.92,0,0,0-.47,1H0.66a3.29,3.29,0,0,1,.91-2,2.77,2.77,0,0,1,1.93-.62,2.86,2.86,0,0,1,2,.74,2.46,2.46,0,0,1,.79,1.89,2.34,2.34,0,0,1-1,2,2.41,2.41,0,0,1,1.19,2.26,2.74,2.74,0,0,1-.86,2.09,3.1,3.1,0,0,1-2.21.81,2.84,2.84,0,0,1-2.55-1.26,3.27,3.27,0,0,1-.44-1.46H1.8a1.68,1.68,0,0,0,.54,1.05,1.66,1.66,0,0,0,1.12.37,1.55,1.55,0,0,0,1.15-.46,1.66,1.66,0,0,0,.46-1.2,1.46,1.46,0,0,0-.68-1.37A2.54,2.54,0,0,0,3.14,161.49Z"/><path class="cls-4" d="M8.19,161.09a5.73,5.73,0,0,1,1.06-3.62,2.76,2.76,0,0,1,4.59,0,6.94,6.94,0,0,1,0,7.36,2.82,2.82,0,0,1-2.29,1.22,2.85,2.85,0,0,1-2.3-1.22A5.93,5.93,0,0,1,8.19,161.09Zm1.42,0a5.63,5.63,0,0,0,.55,2.63,1.6,1.6,0,0,0,1.39,1,1.61,1.61,0,0,0,1.39-1,6.3,6.3,0,0,0,0-5.16,1.61,1.61,0,0,0-1.39-1,1.61,1.61,0,0,0-1.39,1A5.26,5.26,0,0,0,9.61,161.1Z"/><path class="cls-4" d="M6.1,130.77h1v1.3h-1v1.35H4.66v-1.35H0l6.1-8.86v7.56Zm-1.43,0v-3.18l-2.19,3.18H4.66Z"/><path class="cls-4" d="M8.19,128.61A5.73,5.73,0,0,1,9.25,125a2.76,2.76,0,0,1,4.59,0,6.94,6.94,0,0,1,0,7.36,2.82,2.82,0,0,1-2.29,1.22,2.85,2.85,0,0,1-2.3-1.22A5.93,5.93,0,0,1,8.19,128.61Zm1.42,0a5.63,5.63,0,0,0,.55,2.63,1.6,1.6,0,0,0,1.39,1,1.61,1.61,0,0,0,1.39-1,6.3,6.3,0,0,0,0-5.16,1.61,1.61,0,0,0-1.39-1,1.61,1.61,0,0,0-1.39,1A5.26,5.26,0,0,0,9.61,128.62Z"/><path class="cls-4" d="M6.51,92.79H3.58L3.11,94.36l0.2,0H3.49a3,3,0,0,1,2.27.93,3.58,3.58,0,0,1-.12,4.85,3.51,3.51,0,0,1-2.54,1,3.35,3.35,0,0,1-3-1.77l1.08-.92a3.35,3.35,0,0,0,.9,1.08,1.94,1.94,0,0,0,1.11.31,1.93,1.93,0,0,0,1.45-.6,2.12,2.12,0,0,0,.58-1.51,2,2,0,0,0-.58-1.49,1.93,1.93,0,0,0-1.45-.6,2.11,2.11,0,0,0-1.67.84H1.09l1.49-5H6.51v1.35Z"/><path class="cls-4" d="M8.19,96.13a5.73,5.73,0,0,1,1.06-3.62,2.76,2.76,0,0,1,4.59,0,6.94,6.94,0,0,1,0,7.36,2.82,2.82,0,0,1-2.29,1.22,2.85,2.85,0,0,1-2.3-1.22A5.93,5.93,0,0,1,8.19,96.13Zm1.42,0a5.63,5.63,0,0,0,.55,2.63,1.6,1.6,0,0,0,1.39,1,1.61,1.61,0,0,0,1.39-1,6.3,6.3,0,0,0,0-5.16,1.61,1.61,0,0,0-1.39-1,1.61,1.61,0,0,0-1.39,1A5.26,5.26,0,0,0,9.61,96.14Z"/><path class="cls-4" d="M4.83,58.63l1.05,0.79L3.61,62.5l0.31,0h0.2a2.67,2.67,0,0,1,2,.89A2.94,2.94,0,0,1,7,65.45,3.05,3.05,0,0,1,6,67.68a3,3,0,0,1-2.23.93,3.2,3.2,0,0,1-2.26-.92,2.91,2.91,0,0,1-1-2.17,4.09,4.09,0,0,1,.93-2.39Zm0.74,6.91a1.8,1.8,0,0,0-1.8-1.81,1.73,1.73,0,0,0-1.27.52,1.8,1.8,0,0,0,0,2.53,1.74,1.74,0,0,0,1.28.52A1.72,1.72,0,0,0,5,66.79,1.71,1.71,0,0,0,5.57,65.54Z"/><path class="cls-4" d="M8.19,63.65A5.73,5.73,0,0,1,9.25,60a2.76,2.76,0,0,1,4.59,0,5.83,5.83,0,0,1,1.06,3.68,5.82,5.82,0,0,1-1.06,3.68,2.82,2.82,0,0,1-2.29,1.22,2.85,2.85,0,0,1-2.3-1.22A5.93,5.93,0,0,1,8.19,63.65Zm1.42,0a5.63,5.63,0,0,0,.55,2.63,1.6,1.6,0,0,0,1.39,1,1.61,1.61,0,0,0,1.39-1,6.3,6.3,0,0,0,0-5.16,1.61,1.61,0,0,0-1.39-1,1.61,1.61,0,0,0-1.39,1A5.26,5.26,0,0,0,9.61,63.66Z"/><line class="cls-6" x1="27.77" y1="226.81" x2="418.65" y2="226.81"/><line class="cls-6" x1="27.77" y1="194.33" x2="418.65" y2="194.33"/><line class="cls-6" x1="27.77" y1="161.85" x2="418.65" y2="161.85"/><line class="cls-6" x1="27.77" y1="129.37" x2="418.65" y2="129.37"/><line class="cls-6" x1="27.77" y1="96.89" x2="418.65" y2="96.89"/><line class="cls-6" x1="27.77" y1="64.41" x2="418.65" y2="64.41"/><g class="cls-7"><line class="cls-8" x1="95.52" y1="307.82" x2="174.72" y2="228.63"/><line class="cls-8" x1="95.52" y1="299.42" x2="174.72" y2="220.23"/><line class="cls-8" x1="95.52" y1="291.02" x2="174.72" y2="211.83"/><line class="cls-8" x1="95.52" y1="282.62" x2="174.72" y2="203.43"/><line class="cls-8" x1="95.52" y1="274.22" x2="174.72" y2="195.03"/><line class="cls-8" x1="95.52" y1="265.82" x2="174.72" y2="186.63"/><line class="cls-8" x1="95.52" y1="257.42" x2="174.72" y2="178.23"/><line class="cls-8" x1="95.52" y1="249.02" x2="174.72" y2="169.83"/><line class="cls-8" x1="95.52" y1="240.62" x2="174.72" y2="161.43"/><line class="cls-8" x1="95.52" y1="232.22" x2="174.72" y2="153.03"/><line class="cls-8" x1="95.52" y1="223.82" x2="174.72" y2="144.63"/><line class="cls-8" x1="95.52" y1="215.42" x2="174.72" y2="136.23"/><line class="cls-8" x1="95.52" y1="207.02" x2="174.72" y2="127.83"/><line class="cls-8" x1="95.52" y1="198.62" x2="174.72" y2="119.43"/><line class="cls-8" x1="95.52" y1="190.22" x2="174.72" y2="111.03"/><line class="cls-8" x1="95.52" y1="181.82" x2="174.72" y2="102.63"/><line class="cls-8" x1="95.52" y1="173.42" x2="174.72" y2="94.23"/><line class="cls-8" x1="95.52" y1="165.02" x2="174.72" y2="85.83"/><line class="cls-8" x1="95.52" y1="156.62" x2="174.72" y2="77.43"/><line class="cls-8" x1="95.52" y1="148.22" x2="174.72" y2="69.03"/><line class="cls-8" x1="95.52" y1="139.82" x2="174.72" y2="60.63"/><line class="cls-8" x1="95.52" y1="131.42" x2="174.72" y2="52.23"/><line class="cls-8" x1="95.52" y1="123.02" x2="174.72" y2="43.83"/><line class="cls-8" x1="95.52" y1="114.62" x2="174.72" y2="35.43"/><line class="cls-8" x1="95.52" y1="106.22" x2="174.72" y2="27.03"/><line class="cls-8" x1="95.52" y1="97.82" x2="174.72" y2="18.63"/></g><g class="cls-9"><line class="cls-8" x1="225.72" y1="303.62" x2="304.92" y2="224.43"/><line class="cls-8" x1="225.72" y1="295.22" x2="304.92" y2="216.03"/><line class="cls-8" x1="225.72" y1="286.82" x2="304.92" y2="207.63"/><line class="cls-8" x1="225.72" y1="278.42" x2="304.92" y2="199.23"/><line class="cls-8" x1="225.72" y1="270.02" x2="304.92" y2="190.83"/><line class="cls-8" x1="225.72" y1="261.62" x2="304.92" y2="182.43"/><line class="cls-8" x1="225.72" y1="253.22" x2="304.92" y2="174.03"/><line class="cls-8" x1="225.72" y1="244.82" x2="304.92" y2="165.63"/><line class="cls-8" x1="225.72" y1="236.42" x2="304.92" y2="157.23"/><line class="cls-8" x1="225.72" y1="228.02" x2="304.92" y2="148.83"/><line class="cls-8" x1="225.72" y1="219.62" x2="304.92" y2="140.43"/><line class="cls-8" x1="225.72" y1="211.22" x2="304.92" y2="132.03"/><line class="cls-8" x1="225.72" y1="202.82" x2="304.92" y2="123.63"/><line class="cls-8" x1="225.72" y1="194.42" x2="304.92" y2="115.23"/><line class="cls-8" x1="225.72" y1="186.02" x2="304.92" y2="106.83"/><line class="cls-8" x1="225.72" y1="177.62" x2="304.92" y2="98.43"/><line class="cls-8" x1="225.72" y1="169.22" x2="304.92" y2="90.03"/><line class="cls-8" x1="225.72" y1="160.82" x2="304.92" y2="81.63"/><line class="cls-8" x1="225.72" y1="152.42" x2="304.92" y2="73.23"/><line class="cls-8" x1="225.72" y1="144.02" x2="304.92" y2="64.83"/><line class="cls-8" x1="225.72" y1="135.62" x2="304.92" y2="56.43"/><line class="cls-8" x1="225.72" y1="127.22" x2="304.92" y2="48.03"/><line class="cls-8" x1="225.72" y1="118.82" x2="304.92" y2="39.63"/><line class="cls-8" x1="225.72" y1="110.42" x2="304.92" y2="31.23"/></g><g class="cls-10"><line class="cls-8" x1="355.92" y1="302.22" x2="435.12" y2="223.03"/><line class="cls-8" x1="355.92" y1="293.82" x2="435.12" y2="214.63"/><line class="cls-8" x1="355.92" y1="285.42" x2="435.12" y2="206.23"/><line class="cls-8" x1="355.92" y1="277.02" x2="435.12" y2="197.83"/><line class="cls-8" x1="355.92" y1="268.62" x2="435.12" y2="189.43"/><line class="cls-8" x1="355.92" y1="260.22" x2="435.12" y2="181.03"/><line class="cls-8" x1="355.92" y1="251.82" x2="435.12" y2="172.63"/><line class="cls-8" x1="355.92" y1="243.42" x2="435.12" y2="164.23"/><line class="cls-8" x1="355.92" y1="235.02" x2="435.12" y2="155.83"/><line class="cls-8" x1="355.92" y1="226.62" x2="435.12" y2="147.43"/><line class="cls-8" x1="355.92" y1="218.22" x2="435.12" y2="139.03"/><line class="cls-8" x1="355.92" y1="209.82" x2="435.12" y2="130.63"/><line class="cls-8" x1="355.92" y1="201.42" x2="435.12" y2="122.23"/><line class="cls-8" x1="355.92" y1="193.02" x2="435.12" y2="113.83"/><line class="cls-8" x1="355.92" y1="184.62" x2="435.12" y2="105.43"/><line class="cls-8" x1="355.92" y1="176.22" x2="435.12" y2="97.03"/><line class="cls-8" x1="355.92" y1="167.82" x2="435.12" y2="88.63"/><line class="cls-8" x1="355.92" y1="159.42" x2="435.12" y2="80.23"/><line class="cls-8" x1="355.92" y1="151.02" x2="435.12" y2="71.83"/><line class="cls-8" x1="355.92" y1="142.62" x2="435.12" y2="63.43"/><line class="cls-8" x1="355.92" y1="134.22" x2="435.12" y2="55.03"/><line class="cls-8" x1="355.92" y1="125.82" x2="435.12" y2="46.63"/><line class="cls-8" x1="355.92" y1="117.42" x2="435.12" y2="38.23"/></g><g class="cls-3"><rect class="cls-11" x="43.4" y="83.9" width="46.91" height="175.39"/><rect class="cls-11" x="173.7" y="145.61" width="46.91" height="113.68"/><rect class="cls-11" x="303.99" y="142.36" width="46.91" height="116.93"/></g><g class="cls-12"><line class="cls-13" x1="216.52" y1="54.14" x2="255.32" y2="15.34"/><line class="cls-13" x1="216.52" y1="50.03" x2="255.32" y2="11.22"/><line class="cls-13" x1="216.52" y1="45.91" x2="255.32" y2="7.11"/><line class="cls-13" x1="216.52" y1="41.8" x2="255.32" y2="2.99"/><line class="cls-13" x1="216.52" y1="37.68" x2="255.32" y2="-1.13"/><line class="cls-13" x1="216.52" y1="33.56" x2="255.32" y2="-5.24"/></g><rect class="cls-2" x="216.86" y="33.08" width="10.29" height="10.29"/><path class="cls-4" d="M235.78,35.78h-2.32v1.6h2.24v0.94h-2.24v3.17h-1V34.84h3.32v0.94Z"/><path class="cls-4" d="M236.67,37.29h1v0.37a1.86,1.86,0,0,1,.47-0.38,1.09,1.09,0,0,1,.5-0.11,1.57,1.57,0,0,1,.8.25l-0.44.89a0.93,0.93,0,0,0-.54-0.2q-0.79,0-.79,1.2v2.18h-1V37.29Z"/><path class="cls-4" d="M243,37.29h1v4.19h-1V41a1.86,1.86,0,0,1-2.73-.07,2.34,2.34,0,0,1-.56-1.6,2.27,2.27,0,0,1,.56-1.57,1.82,1.82,0,0,1,1.41-.63,1.78,1.78,0,0,1,1.31.6V37.29Zm-2.3,2.08a1.46,1.46,0,0,0,.32,1,1.06,1.06,0,0,0,.84.38,1.11,1.11,0,0,0,.87-0.37,1.59,1.59,0,0,0,0-1.95,1.09,1.09,0,0,0-.86-0.37,1.07,1.07,0,0,0-.84.38A1.4,1.4,0,0,0,240.7,39.38Z"/><path class="cls-4" d="M246.17,37.29V39.7a0.85,0.85,0,1,0,1.65,0V37.29h1v2.43a2.72,2.72,0,0,1-.12.87,1.46,1.46,0,0,1-.42.59,2,2,0,0,1-2.49,0,1.49,1.49,0,0,1-.43-0.59,2.4,2.4,0,0,1-.12-0.87V37.29h1Z"/><path class="cls-4" d="M253.83,39.62h-3a1.27,1.27,0,0,0,.34.82,1,1,0,0,0,.76.3,1,1,0,0,0,.6-0.17,2.46,2.46,0,0,0,.53-0.64l0.82,0.46a3.29,3.29,0,0,1-.4.55,2.11,2.11,0,0,1-.45.38,1.83,1.83,0,0,1-.52.22,2.55,2.55,0,0,1-.61.07,2,2,0,0,1-1.51-.6,2.26,2.26,0,0,1-.57-1.61,2.33,2.33,0,0,1,.55-1.61,2.1,2.1,0,0,1,2.94,0,2.32,2.32,0,0,1,.53,1.62v0.23Zm-1-.79a0.93,0.93,0,0,0-1-.78,1,1,0,0,0-.33.05,1,1,0,0,0-.28.16,1,1,0,0,0-.22.24,1.13,1.13,0,0,0-.14.32h1.95Z"/><path class="cls-4" d="M254.89,37.29h1v0.39a1.59,1.59,0,0,1,1.15-.5,1.45,1.45,0,0,1,1.14.46,1.89,1.89,0,0,1,.35,1.28v2.57h-1V39.15a1.53,1.53,0,0,0-.17-0.86,0.69,0.69,0,0,0-.61-0.24,0.75,0.75,0,0,0-.68.32,2.19,2.19,0,0,0-.2,1.1v2h-1V37.29Z"/><rect class="cls-14" x="160.15" y="32.45" width="10.29" height="10.29"/><path class="cls-4" d="M175.52,41l1.4-7.15L179.2,39l2.36-5.17L182.82,41h-1l-0.64-4-2,4.32L177.27,37l-0.71,4h-1Z"/><path class="cls-4" d="M187.14,36.82h1V41h-1V40.58a1.86,1.86,0,0,1-2.73-.07,2.34,2.34,0,0,1-.56-1.6,2.27,2.27,0,0,1,.56-1.57,1.82,1.82,0,0,1,1.41-.63,1.78,1.78,0,0,1,1.31.6V36.82Zm-2.55-1.34a0.57,0.57,0,0,1,.18-0.43,0.61,0.61,0,0,1,.87,0,0.58,0.58,0,0,1,.18.43,0.6,0.6,0,0,1-.18.44,0.62,0.62,0,0,1-.43.18,0.6,0.6,0,0,1-.44-0.18A0.62,0.62,0,0,1,184.59,35.49Zm0.25,3.42a1.46,1.46,0,0,0,.32,1,1.06,1.06,0,0,0,.84.38,1.11,1.11,0,0,0,.87-0.37,1.59,1.59,0,0,0,0-1.95,1.09,1.09,0,0,0-.86-0.37,1.07,1.07,0,0,0-.84.38A1.4,1.4,0,0,0,184.84,38.91Zm1.55-3.42a0.57,0.57,0,0,1,.18-0.43,0.6,0.6,0,0,1,.43-0.18,0.58,0.58,0,0,1,.43.18,0.58,0.58,0,0,1,.18.43,0.6,0.6,0,0,1-.18.44,0.62,0.62,0,0,1-.43.18A0.62,0.62,0,0,1,186.39,35.49Z"/><path class="cls-4" d="M189.33,36.82h1v0.39a1.59,1.59,0,0,1,1.15-.5,1.45,1.45,0,0,1,1.14.46,1.89,1.89,0,0,1,.35,1.28V41h-1V38.68a1.53,1.53,0,0,0-.17-0.86,0.69,0.69,0,0,0-.61-0.24,0.75,0.75,0,0,0-.68.32,2.19,2.19,0,0,0-.2,1.1v2h-1V36.82Z"/><path class="cls-4" d="M194.17,36.82h1v0.39a1.59,1.59,0,0,1,1.15-.5,1.45,1.45,0,0,1,1.14.46,1.89,1.89,0,0,1,.35,1.28V41h-1V38.68a1.53,1.53,0,0,0-.17-0.86,0.69,0.69,0,0,0-.61-0.24,0.75,0.75,0,0,0-.68.32,2.19,2.19,0,0,0-.2,1.1v2h-1V36.82Z"/><path class="cls-4" d="M202.83,39.15h-3a1.27,1.27,0,0,0,.34.82,1,1,0,0,0,.76.3,1,1,0,0,0,.6-0.17,2.46,2.46,0,0,0,.53-0.64l0.82,0.46a3.29,3.29,0,0,1-.4.55,2.11,2.11,0,0,1-.45.38,1.83,1.83,0,0,1-.52.22,2.55,2.55,0,0,1-.61.07,2,2,0,0,1-1.51-.6,2.26,2.26,0,0,1-.57-1.61,2.33,2.33,0,0,1,.55-1.61,2.1,2.1,0,0,1,2.94,0,2.32,2.32,0,0,1,.53,1.62v0.23Zm-1-.79a0.93,0.93,0,0,0-1-.78,1,1,0,0,0-.33.05,1,1,0,0,0-.28.16A1,1,0,0,0,200,38a1.13,1.13,0,0,0-.14.32h1.95Z"/><path class="cls-4" d="M203.88,36.82h1V37.2a1.86,1.86,0,0,1,.47-0.38,1.09,1.09,0,0,1,.5-0.11,1.57,1.57,0,0,1,.8.25l-0.44.89a0.93,0.93,0,0,0-.54-0.2q-0.79,0-.79,1.2V41h-1V36.82Z"/><path class="cls-4" d="M24.84,10.65l2.71,6.79,2.75-6.79h1.62l-4.4,10.54-4.3-10.54h1.62Z"/><path class="cls-4" d="M31.77,17.31a3.07,3.07,0,0,1,1-2.28,3.38,3.38,0,0,1,4.68,0,3.31,3.31,0,0,1,0,4.65,3.27,3.27,0,0,1-2.37.93,3.14,3.14,0,0,1-2.33-1A3.2,3.2,0,0,1,31.77,17.31Zm1.46,0a2.08,2.08,0,0,0,.5,1.47,1.92,1.92,0,0,0,2.68,0,2,2,0,0,0,.5-1.44,2,2,0,0,0-.5-1.44,1.9,1.9,0,0,0-2.67,0A2,2,0,0,0,33.23,17.34Z"/><path class="cls-4" d="M41.31,9.73V20.45H39.88V9.73h1.43Z"/><path class="cls-4" d="M44.54,9.73v6.54l2-2h1.92l-2.68,2.6,2.88,3.59H46.82l-2-2.61-0.23.23v2.38H43.12V9.73h1.43Z"/><path class="cls-4" d="M53.18,15.32L52,15.95a0.82,0.82,0,0,0-.69-0.57,0.47,0.47,0,0,0-.34.13,0.44,0.44,0,0,0-.14.33,1.08,1.08,0,0,0,.83.7,4.91,4.91,0,0,1,1.53.9,1.54,1.54,0,0,1,.39,1.11,2,2,0,0,1-.66,1.5,2.37,2.37,0,0,1-3.75-.95l1.22-.56a2.67,2.67,0,0,0,.39.56,0.88,0.88,0,0,0,.62.24,0.61,0.61,0,0,0,.72-0.66A0.9,0.9,0,0,0,51.56,18l-0.43-.21-0.44-.21A2.67,2.67,0,0,1,49.82,17a1.5,1.5,0,0,1-.32-1A1.76,1.76,0,0,1,50,14.62a1.94,1.94,0,0,1,1.37-.53A1.87,1.87,0,0,1,53.18,15.32Z"/><path class="cls-4" d="M54.65,11.69a0.93,0.93,0,0,1,.93-0.92,0.9,0.9,0,0,1,.66.27,0.88,0.88,0,0,1,.27.65,0.9,0.9,0,0,1-.27.66,0.88,0.88,0,0,1-.65.27A0.93,0.93,0,0,1,54.65,11.69Zm1.64,2.57v6.18H54.87V14.27h1.43Z"/><path class="cls-4" d="M58.1,14.27h1.43v0.57a2.34,2.34,0,0,1,1.69-.74,2.13,2.13,0,0,1,1.68.68,2.78,2.78,0,0,1,.52,1.89v3.79H62V17a2.26,2.26,0,0,0-.25-1.26,1,1,0,0,0-.9-0.36,1.1,1.1,0,0,0-1,.47,3.23,3.23,0,0,0-.29,1.62v3H58.1V14.27Z"/><path class="cls-4" d="M65,11.69a0.93,0.93,0,0,1,.93-0.92,0.9,0.9,0,0,1,.66.27,0.88,0.88,0,0,1,.27.65,0.9,0.9,0,0,1-.27.66,0.88,0.88,0,0,1-.65.27A0.93,0.93,0,0,1,65,11.69Zm1.64,2.57v6.18H65.23V14.27h1.43Z"/><path class="cls-4" d="M69.94,15.6v4.85H68.51V15.6H67.9V14.27h0.61V12h1.43v2.27h1.11V15.6H69.94Z"/><path class="cls-4" d="M71.81,11.69a0.93,0.93,0,0,1,.93-0.92,0.9,0.9,0,0,1,.66.27,0.88,0.88,0,0,1,.27.65,0.9,0.9,0,0,1-.27.66,0.88,0.88,0,0,1-.65.27A0.93,0.93,0,0,1,71.81,11.69Zm1.64,2.57v6.18H72V14.27h1.43Z"/><path class="cls-4" d="M79.82,14.27h1.43v6.18H79.82V19.8a2.74,2.74,0,0,1-4-.1A3.45,3.45,0,0,1,75,17.34,3.34,3.34,0,0,1,75.8,15a2.68,2.68,0,0,1,2.08-.93,2.63,2.63,0,0,1,1.94.89V14.27Zm-3.39,3.07a2.16,2.16,0,0,0,.48,1.45,1.56,1.56,0,0,0,1.23.57,1.64,1.64,0,0,0,1.28-.55,2.35,2.35,0,0,0,0-2.87,1.62,1.62,0,0,0-1.27-.55,1.58,1.58,0,0,0-1.23.56A2.06,2.06,0,0,0,76.43,17.34Z"/><path class="cls-4" d="M84.53,15.6v4.85H83.1V15.6H82.49V14.27H83.1V12h1.43v2.27h1.11V15.6H84.53Z"/><path class="cls-4" d="M86.39,11.69a0.93,0.93,0,0,1,.93-0.92A0.9,0.9,0,0,1,88,11a0.88,0.88,0,0,1,.27.65,0.9,0.9,0,0,1-.27.66,0.88,0.88,0,0,1-.65.27A0.93,0.93,0,0,1,86.39,11.69ZM88,14.27v6.18H86.61V14.27H88Z"/><path class="cls-4" d="M90.62,14.27l1.6,3.47,1.59-3.47h1.61L92.2,20.87,89,14.27h1.6Z"/><path class="cls-4" d="M101.79,17.69H97.36a1.87,1.87,0,0,0,.49,1.21,1.51,1.51,0,0,0,1.12.45,1.46,1.46,0,0,0,.88-0.25,3.62,3.62,0,0,0,.78-0.94l1.21,0.67a4.76,4.76,0,0,1-.59.82,3.13,3.13,0,0,1-.67.56,2.69,2.69,0,0,1-.77.32,3.76,3.76,0,0,1-.9.1,2.91,2.91,0,0,1-2.22-.89,3.33,3.33,0,0,1-.84-2.37A3.42,3.42,0,0,1,96.68,15,3.1,3.1,0,0,1,101,15a3.42,3.42,0,0,1,.79,2.39v0.34Zm-1.47-1.17a1.37,1.37,0,0,0-1.44-1.14,1.49,1.49,0,0,0-.49.08,1.39,1.39,0,0,0-.42.23,1.43,1.43,0,0,0-.32.36,1.66,1.66,0,0,0-.2.48h2.87Z"/><path class="cls-4" d="M108.7,18.61L110,19.11l-1.81,3.63-1-.4Zm2.54,0,1.27,0.49-1.81,3.63-1-.4Z"/><path class="cls-4" d="M115.9,14.56l3.82-3.91h2l-4.43,4.44,4.46,5.36h-2l-3.53-4.36-0.3.3v4.06h-1.48v-9.8h1.48v3.91Z"/><path class="cls-4" d="M128,17.69h-4.43a1.87,1.87,0,0,0,.49,1.21,1.51,1.51,0,0,0,1.12.45,1.46,1.46,0,0,0,.88-0.25,3.62,3.62,0,0,0,.78-0.94L128,18.83a4.76,4.76,0,0,1-.59.82,3.13,3.13,0,0,1-.67.56,2.69,2.69,0,0,1-.77.32,3.76,3.76,0,0,1-.9.1,2.91,2.91,0,0,1-2.22-.89,3.33,3.33,0,0,1-.84-2.37,3.42,3.42,0,0,1,.81-2.37,3.1,3.1,0,0,1,4.33,0,3.42,3.42,0,0,1,.79,2.39v0.34Zm-1.47-1.17a1.37,1.37,0,0,0-1.44-1.14,1.49,1.49,0,0,0-.49.08,1.39,1.39,0,0,0-.42.23,1.43,1.43,0,0,0-.32.36,1.66,1.66,0,0,0-.2.48h2.87Z"/><path class="cls-4" d="M129.33,11.69a0.93,0.93,0,0,1,.93-0.92,0.9,0.9,0,0,1,.66.27,0.88,0.88,0,0,1,.27.65,0.9,0.9,0,0,1-.27.66,0.88,0.88,0,0,1-.65.27A0.93,0.93,0,0,1,129.33,11.69ZM131,14.27v6.18h-1.43V14.27H131Z"/><path class="cls-4" d="M132.79,14.27h1.43v0.57a2.34,2.34,0,0,1,1.69-.74,2.13,2.13,0,0,1,1.68.68,2.78,2.78,0,0,1,.52,1.89v3.79h-1.43V17a2.26,2.26,0,0,0-.25-1.26,1,1,0,0,0-.9-0.36,1.1,1.1,0,0,0-1,.47,3.23,3.23,0,0,0-.29,1.62v3h-1.43V14.27Z"/><path class="cls-4" d="M145.54,17.69h-4.43a1.87,1.87,0,0,0,.49,1.21,1.51,1.51,0,0,0,1.12.45,1.46,1.46,0,0,0,.88-0.25,3.62,3.62,0,0,0,.78-0.94l1.21,0.67a4.76,4.76,0,0,1-.59.82,3.13,3.13,0,0,1-.67.56,2.69,2.69,0,0,1-.77.32,3.76,3.76,0,0,1-.9.1,2.91,2.91,0,0,1-2.22-.89,3.33,3.33,0,0,1-.84-2.37,3.42,3.42,0,0,1,.81-2.37,3.1,3.1,0,0,1,4.33,0,3.42,3.42,0,0,1,.79,2.39v0.34Zm-1.47-1.17a1.37,1.37,0,0,0-1.44-1.14,1.49,1.49,0,0,0-.49.08,1.39,1.39,0,0,0-.42.23,1.43,1.43,0,0,0-.32.36,1.66,1.66,0,0,0-.2.48h2.87Z"/><path class="cls-4" d="M156.93,12.1l-1.2.71a2.07,2.07,0,0,0-.64-0.76,1.7,1.7,0,0,0-1.84.15,1.09,1.09,0,0,0-.41.86,1.36,1.36,0,0,0,1.07,1.16l1,0.4a4.17,4.17,0,0,1,1.75,1.18,2.66,2.66,0,0,1,.55,1.71,3,3,0,0,1-.9,2.24,3.09,3.09,0,0,1-2.25.89,3,3,0,0,1-2.11-.76,3.5,3.5,0,0,1-1-2.13l1.5-.33a2.54,2.54,0,0,0,.36,1.19,1.69,1.69,0,0,0,2.48.17,1.6,1.6,0,0,0,.46-1.17,1.65,1.65,0,0,0-.08-0.52,1.31,1.31,0,0,0-.25-0.44,2,2,0,0,0-.43-0.37,4.28,4.28,0,0,0-.63-0.33l-0.95-.39a2.72,2.72,0,0,1-2-2.49,2.36,2.36,0,0,1,.84-1.85,3.05,3.05,0,0,1,2.1-.75A2.93,2.93,0,0,1,156.93,12.1Z"/><path class="cls-4" d="M160.13,23.81H158.7V14.27h1.43v0.67A2.64,2.64,0,0,1,162,14.1a2.67,2.67,0,0,1,2.1.94,3.39,3.39,0,0,1,.84,2.35,3.34,3.34,0,0,1-.83,2.32,2.71,2.71,0,0,1-4,.05v4.06Zm3.4-6.42a2.14,2.14,0,0,0-.48-1.45,1.56,1.56,0,0,0-1.23-.57,1.63,1.63,0,0,0-1.28.55,2.07,2.07,0,0,0-.49,1.43,2.11,2.11,0,0,0,.49,1.43,1.6,1.6,0,0,0,1.27.55,1.55,1.55,0,0,0,1.22-.56A2,2,0,0,0,163.52,17.4Z"/><path class="cls-4" d="M172.12,17.69h-4.43a1.87,1.87,0,0,0,.49,1.21,1.51,1.51,0,0,0,1.12.45,1.46,1.46,0,0,0,.88-0.25,3.62,3.62,0,0,0,.78-0.94l1.21,0.67a4.76,4.76,0,0,1-.59.82,3.13,3.13,0,0,1-.67.56,2.69,2.69,0,0,1-.77.32,3.76,3.76,0,0,1-.9.1,2.91,2.91,0,0,1-2.22-.89,3.33,3.33,0,0,1-.84-2.37A3.42,3.42,0,0,1,167,15a3.1,3.1,0,0,1,4.33,0,3.42,3.42,0,0,1,.79,2.39v0.34Zm-1.47-1.17a1.37,1.37,0,0,0-1.44-1.14,1.49,1.49,0,0,0-.49.08,1.39,1.39,0,0,0-.42.23,1.43,1.43,0,0,0-.32.36,1.66,1.66,0,0,0-.2.48h2.87Z"/><path class="cls-4" d="M175.11,9.73v6.54l2-2H179l-2.68,2.6,2.88,3.59h-1.85l-2-2.61-0.23.23v2.38h-1.43V9.73h1.43Z"/><path class="cls-4" d="M181.63,14.27v3.55q0,1.54,1.21,1.54t1.21-1.54V14.27h1.43v3.58a4,4,0,0,1-.18,1.28,2.15,2.15,0,0,1-.62.87A3,3,0,0,1,181,20a2.19,2.19,0,0,1-.63-0.87,3.54,3.54,0,0,1-.18-1.28V14.27h1.43Z"/><path class="cls-4" d="M188.71,9.73V20.45h-1.43V9.73h1.43Z"/><path class="cls-4" d="M195.08,14.27h1.43v6.18h-1.43V19.8a2.74,2.74,0,0,1-4-.1,3.45,3.45,0,0,1-.83-2.36,3.34,3.34,0,0,1,.83-2.32,2.68,2.68,0,0,1,2.08-.93,2.63,2.63,0,0,1,1.94.89V14.27Zm-3.39,3.07a2.16,2.16,0,0,0,.48,1.45,1.56,1.56,0,0,0,1.23.57,1.64,1.64,0,0,0,1.28-.55,2.35,2.35,0,0,0,0-2.87,1.62,1.62,0,0,0-1.27-.55,1.58,1.58,0,0,0-1.23.56A2.06,2.06,0,0,0,191.69,17.34Z"/><path class="cls-4" d="M199.79,15.6v4.85h-1.43V15.6h-0.61V14.27h0.61V12h1.43v2.27h1.11V15.6h-1.11Z"/><path class="cls-4" d="M201.65,11.69a0.93,0.93,0,0,1,.93-0.92,0.9,0.9,0,0,1,.66.27,0.88,0.88,0,0,1,.27.65,0.9,0.9,0,0,1-.27.66,0.88,0.88,0,0,1-.65.27A0.93,0.93,0,0,1,201.65,11.69Zm1.64,2.57v6.18h-1.43V14.27h1.43Z"/><path class="cls-4" d="M204.81,17.31a3.07,3.07,0,0,1,1-2.28,3.38,3.38,0,0,1,4.68,0,3.31,3.31,0,0,1,0,4.65,3.27,3.27,0,0,1-2.37.93,3.14,3.14,0,0,1-2.33-1A3.2,3.2,0,0,1,204.81,17.31Zm1.46,0a2.08,2.08,0,0,0,.5,1.47,1.92,1.92,0,0,0,2.68,0,2,2,0,0,0,.5-1.44,2,2,0,0,0-.5-1.44,1.9,1.9,0,0,0-2.67,0A2,2,0,0,0,206.27,17.34Z"/><path class="cls-4" d="M212.92,14.27h1.43v0.57A2.34,2.34,0,0,1,216,14.1a2.13,2.13,0,0,1,1.68.68,2.78,2.78,0,0,1,.52,1.89v3.79h-1.43V17a2.26,2.26,0,0,0-.25-1.26,1,1,0,0,0-.9-0.36,1.1,1.1,0,0,0-1,.47,3.23,3.23,0,0,0-.29,1.62v3h-1.43V14.27Z"/><path class="cls-4" d="M224.06,14.27h1.43v0.57a3,3,0,0,1,.7-0.58A1.71,1.71,0,0,1,227,14.1a1.89,1.89,0,0,1,1.66.91,2.14,2.14,0,0,1,1.82-.91q2.09,0,2.09,2.53v3.82h-1.43V17a2.66,2.66,0,0,0-.22-1.26,0.78,0.78,0,0,0-.73-0.37,0.93,0.93,0,0,0-.86.44,2.86,2.86,0,0,0-.27,1.43v3.19H227.6V17q0-1.65-1-1.65a1,1,0,0,0-.88.45,2.82,2.82,0,0,0-.28,1.42v3.19h-1.43V14.27Z"/><path class="cls-4" d="M234.13,11.69a0.93,0.93,0,0,1,.93-0.92,0.9,0.9,0,0,1,.66.27,0.88,0.88,0,0,1,.27.65,0.9,0.9,0,0,1-.27.66,0.88,0.88,0,0,1-.65.27A0.93,0.93,0,0,1,234.13,11.69Zm1.64,2.57v6.18h-1.43V14.27h1.43Z"/><path class="cls-4" d="M239.05,15.6v4.85h-1.43V15.6H237V14.27h0.61V12h1.43v2.27h1.11V15.6h-1.11Z"/><path class="cls-4" d="M245.42,20.45V10l7.15,7.48V10.65H254V21l-7.15-7.46v6.86h-1.48Z"/><path class="cls-4" d="M260.81,14.27h1.43v6.18h-1.43V19.8a2.74,2.74,0,0,1-4-.1,3.45,3.45,0,0,1-.83-2.36,3.34,3.34,0,0,1,.83-2.32,2.68,2.68,0,0,1,2.08-.93,2.63,2.63,0,0,1,1.94.89V14.27Zm-3.39,3.07a2.16,2.16,0,0,0,.48,1.45,1.56,1.56,0,0,0,1.23.57,1.64,1.64,0,0,0,1.28-.55,2.35,2.35,0,0,0,0-2.87,1.62,1.62,0,0,0-1.27-.55,1.58,1.58,0,0,0-1.23.56A2.06,2.06,0,0,0,257.42,17.34Z"/><path class="cls-4" d="M264,9.73h1.43v5.05a2.46,2.46,0,0,1,1.68-.69,2.17,2.17,0,0,1,1.68.68,2.77,2.77,0,0,1,.53,1.89v3.79h-1.43V16.79a1.74,1.74,0,0,0-.26-1.08,1,1,0,0,0-.85-0.33,1.16,1.16,0,0,0-1.05.46,3.17,3.17,0,0,0-.3,1.61v3H264V9.73Z"/><path class="cls-4" d="M271.17,14.27h1.43v0.55a2.73,2.73,0,0,1,.7-0.56A1.61,1.61,0,0,1,274,14.1a2.31,2.31,0,0,1,1.18.37l-0.65,1.31a1.36,1.36,0,0,0-.79-0.29q-1.17,0-1.17,1.77v3.21h-1.43V14.27Z"/><path class="cls-4" d="M277.66,14.27v3.55q0,1.54,1.21,1.54t1.21-1.54V14.27h1.43v3.58a4,4,0,0,1-.18,1.28,2.15,2.15,0,0,1-.62.87A3,3,0,0,1,277,20a2.19,2.19,0,0,1-.63-0.87,3.54,3.54,0,0,1-.18-1.28V14.27h1.43Z"/><path class="cls-4" d="M283.32,14.27h1.43v0.57a2.34,2.34,0,0,1,1.69-.74,2.13,2.13,0,0,1,1.68.68,2.78,2.78,0,0,1,.52,1.89v3.79h-1.43V17a2.26,2.26,0,0,0-.25-1.26,1,1,0,0,0-.9-0.36,1.1,1.1,0,0,0-1,.47,3.23,3.23,0,0,0-.29,1.62v3h-1.43V14.27Z"/><path class="cls-4" d="M296.42,20.3q0,0.44,0,.77a5.68,5.68,0,0,1-.08.59,2.61,2.61,0,0,1-.6,1.2,2.89,2.89,0,0,1-2.3,1,3.07,3.07,0,0,1-2-.67,2.73,2.73,0,0,1-1-1.9h1.43a1.63,1.63,0,0,0,.27.7,1.53,1.53,0,0,0,1.29.58q1.57,0,1.57-1.92V19.76a2.67,2.67,0,0,1-2,.87,2.63,2.63,0,0,1-2.07-.91,3.39,3.39,0,0,1-.81-2.32,3.57,3.57,0,0,1,.76-2.3,2.62,2.62,0,0,1,2.14-1A2.49,2.49,0,0,1,295,15v-0.7h1.43v6Zm-1.37-2.93a2.07,2.07,0,0,0-.48-1.44,1.59,1.59,0,0,0-1.25-.55A1.54,1.54,0,0,0,292,16a2.19,2.19,0,0,0-.42,1.39,2.16,2.16,0,0,0,.42,1.38,1.54,1.54,0,0,0,1.28.59,1.57,1.57,0,0,0,1.29-.6A2.13,2.13,0,0,0,295.05,17.37Z"/><path class="cls-4" d="M301.82,15.32l-1.18.63a0.82,0.82,0,0,0-.69-0.57,0.47,0.47,0,0,0-.34.13,0.44,0.44,0,0,0-.14.33,1.08,1.08,0,0,0,.83.7,4.91,4.91,0,0,1,1.53.9,1.54,1.54,0,0,1,.39,1.11,2,2,0,0,1-.66,1.5,2.37,2.37,0,0,1-3.75-.95l1.22-.56a2.67,2.67,0,0,0,.39.56,0.88,0.88,0,0,0,.62.24,0.61,0.61,0,0,0,.72-0.66A0.9,0.9,0,0,0,300.2,18l-0.43-.21-0.44-.21a2.67,2.67,0,0,1-.88-0.61,1.5,1.5,0,0,1-.32-1,1.76,1.76,0,0,1,.55-1.33,1.94,1.94,0,0,1,1.37-.53A1.87,1.87,0,0,1,301.82,15.32Z"/><path class="cls-4" d="M303.5,14.27h1.43v0.57a3,3,0,0,1,.7-0.58,1.71,1.71,0,0,1,.78-0.16,1.89,1.89,0,0,1,1.66.91,2.14,2.14,0,0,1,1.82-.91q2.09,0,2.09,2.53v3.82h-1.43V17a2.66,2.66,0,0,0-.22-1.26,0.78,0.78,0,0,0-.73-0.37,0.93,0.93,0,0,0-.86.44,2.86,2.86,0,0,0-.27,1.43v3.19H307V17q0-1.65-1-1.65a1,1,0,0,0-.88.45,2.82,2.82,0,0,0-.28,1.42v3.19H303.5V14.27Z"/><path class="cls-4" d="M313.57,11.69a0.93,0.93,0,0,1,.93-0.92,0.9,0.9,0,0,1,.66.27,0.88,0.88,0,0,1,.27.65,0.9,0.9,0,0,1-.27.66,0.88,0.88,0,0,1-.65.27A0.93,0.93,0,0,1,313.57,11.69Zm1.64,2.57v6.18h-1.43V14.27h1.43Z"/><path class="cls-4" d="M318.5,15.6v4.85h-1.43V15.6h-0.61V14.27h0.61V12h1.43v2.27h1.11V15.6H318.5Z"/><path class="cls-4" d="M322,15.6v4.85h-1.43V15.6H320V14.27h0.61V12H322v2.27h1.11V15.6H322Z"/><path class="cls-4" d="M329.88,17.69h-4.43a1.87,1.87,0,0,0,.49,1.21,1.51,1.51,0,0,0,1.12.45,1.46,1.46,0,0,0,.88-0.25,3.62,3.62,0,0,0,.78-0.94l1.21,0.67a4.76,4.76,0,0,1-.59.82,3.13,3.13,0,0,1-.67.56,2.69,2.69,0,0,1-.77.32,3.76,3.76,0,0,1-.9.1,2.91,2.91,0,0,1-2.22-.89,3.33,3.33,0,0,1-.84-2.37,3.42,3.42,0,0,1,.81-2.37,3.1,3.1,0,0,1,4.33,0,3.42,3.42,0,0,1,.79,2.39v0.34Zm-1.47-1.17A1.37,1.37,0,0,0,327,15.38a1.49,1.49,0,0,0-.49.08,1.39,1.39,0,0,0-.42.23,1.43,1.43,0,0,0-.32.36,1.66,1.66,0,0,0-.2.48h2.87Z"/><path class="cls-4" d="M332.87,9.73V20.45h-1.43V9.73h1.43Z"/><path class="cls-4" d="M334.68,14.27h1.43v0.57a2.34,2.34,0,0,1,1.69-.74,2.13,2.13,0,0,1,1.68.68,2.78,2.78,0,0,1,.52,1.89v3.79h-1.43V17a2.26,2.26,0,0,0-.25-1.26,1,1,0,0,0-.9-0.36,1.1,1.1,0,0,0-1,.47,3.23,3.23,0,0,0-.29,1.62v3h-1.43V14.27Z"/><path class="cls-4" d="M342.18,19.74a0.84,0.84,0,0,1,.26-0.62,0.88,0.88,0,1,1,0,1.25A0.86,0.86,0,0,1,342.18,19.74Zm0.17-1.47V10.65h1.43v7.62h-1.43Z"/><path class="cls-4" d="M347.22,14.35l-1.28-.5,1.81-3.63,1,0.39Zm2.54,0-1.28-.5,1.81-3.63,1,0.39Z"/><path class="cls-4" d="M358.57,9.62l1.32,0.51a16.23,16.23,0,0,0-1,3.06,14.28,14.28,0,0,0-.21,1.5q-0.07.78-.07,1.71t0.07,1.72a14.32,14.32,0,0,0,.21,1.5,15.67,15.67,0,0,0,1,3.05l-1.32.51a15.51,15.51,0,0,1-1.39-6.77A15.51,15.51,0,0,1,358.57,9.62Z"/><path class="cls-4" d="M364,19.06h3.65v1.39h-6.58l3.4-4.12q0.5-.62.84-1.07a8,8,0,0,0,.52-0.76,2.12,2.12,0,0,0,.36-1.07,1.53,1.53,0,0,0-.48-1.15,1.72,1.72,0,0,0-2.89,1.29h-1.47q0.36-3.1,3.13-3.1a3.16,3.16,0,0,1,2.25.85,2.76,2.76,0,0,1,.91,2.11,3.21,3.21,0,0,1-.42,1.57,7.72,7.72,0,0,1-.63.95q-0.42.55-1.05,1.3Z"/><path class="cls-4" d="M369.35,15.48a5.91,5.91,0,0,1,1.09-3.74,2.85,2.85,0,0,1,4.73,0,6,6,0,0,1,1.09,3.8,6,6,0,0,1-1.09,3.8,2.9,2.9,0,0,1-2.36,1.26,2.94,2.94,0,0,1-2.37-1.26A6.12,6.12,0,0,1,369.35,15.48Zm1.46,0a5.82,5.82,0,0,0,.56,2.71,1.51,1.51,0,0,0,2.88,0,5.54,5.54,0,0,0,.57-2.66,5.57,5.57,0,0,0-.57-2.67,1.5,1.5,0,0,0-2.87,0A5.41,5.41,0,0,0,370.81,15.49Z"/><path class="cls-4" d="M379.34,12h-1.7l0.81-1.39h2.36v9.8h-1.48V12Z"/><path class="cls-4" d="M387.8,10.31l1.09,0.81-2.34,3.19,0.32,0h0.21a2.75,2.75,0,0,1,2.06.91,3,3,0,0,1,.86,2.17,3.28,3.28,0,0,1-3.27,3.27,3.3,3.3,0,0,1-2.34-.95,3,3,0,0,1-1-2.24,4.22,4.22,0,0,1,1-2.46Zm0.76,7.13a1.86,1.86,0,1,0-1.85,1.83A1.85,1.85,0,0,0,388.56,17.43Z"/><path class="cls-4" d="M392.92,23.17l-1.32-.51a15.73,15.73,0,0,0,1-3.05,16.16,16.16,0,0,0,.29-3.21,16.17,16.17,0,0,0-.29-3.21,16.3,16.3,0,0,0-1-3.06l1.32-.51a15.58,15.58,0,0,1,1.38,6.77A15.58,15.58,0,0,1,392.92,23.17Z"/></svg>