<svg id="Charts" xmlns="http://www.w3.org/2000/svg" xmlns:xlink="http://www.w3.org/1999/xlink" viewBox="0 0 418.65 318.15"><defs><style>.cls-1,.cls-12,.cls-2,.cls-4,.cls-8,.cls-9{fill:none;}.cls-1,.cls-10,.cls-12,.cls-4,.cls-6,.cls-8,.cls-9{stroke:#fff;stroke-miterlimit:10;}.cls-1,.cls-6{stroke-width:0.69px;}.cls-3{clip-path:url(#clip-path);}.cls-4{stroke-width:0.55px;}.cls-10,.cls-5,.cls-6{fill:#fff;}.cls-10,.cls-6,.cls-7,.cls-9{opacity:0.4;}.cls-10{stroke-width:1.4px;}.cls-11{clip-path:url(#clip-path-2);}.cls-12{stroke-width:1.12px;}.cls-13{clip-path:url(#clip-path-3);}.cls-14{clip-path:url(#clip-path-4);}</style><clipPath id="clip-path"><rect class="cls-1" x="216.86" y="38.32" width="10.29" height="10.29"/></clipPath><clipPath id="clip-path-2"><rect class="cls-2" x="93.88" y="152.07" width="46.91" height="112.06"/></clipPath><clipPath id="clip-path-3"><rect class="cls-2" x="225.81" y="122.84" width="46.91" height="141.29"/></clipPath><clipPath id="clip-path-4"><rect class="cls-2" x="357.74" y="137.46" width="46.91" height="126.67"/></clipPath></defs><title>Charts_</title><g class="cls-3"><line class="cls-4" x1="216.52" y1="59.39" x2="255.32" y2="20.58"/><line class="cls-4" x1="216.52" y1="55.27" x2="255.32" y2="16.46"/><line class="cls-4" x1="216.52" y1="51.15" x2="255.32" y2="12.35"/><line class="cls-4" x1="216.52" y1="47.04" x2="255.32" y2="8.23"/><line class="cls-4" x1="216.52" y1="42.92" x2="255.32" y2="4.12"/><line class="cls-4" x1="216.52" y1="38.81" x2="255.32"/></g><rect class="cls-1" x="216.86" y="38.32" width="10.29" height="10.29"/><path class="cls-5" d="M235.78,41h-2.32v1.6h2.24v0.94h-2.24v3.17h-1V40.08h3.32V41Z"/><path class="cls-5" d="M236.67,42.54h1v0.37a1.86,1.86,0,0,1,.47-0.38,1.09,1.09,0,0,1,.5-0.11,1.57,1.57,0,0,1,.8.25l-0.44.89a0.93,0.93,0,0,0-.54-0.2q-0.79,0-.79,1.2v2.18h-1V42.54Z"/><path class="cls-5" d="M243,42.54h1v4.19h-1V46.29a1.86,1.86,0,0,1-2.73-.07,2.34,2.34,0,0,1-.56-1.6,2.27,2.27,0,0,1,.56-1.57,1.82,1.82,0,0,1,1.41-.63A1.78,1.78,0,0,1,243,43V42.54Zm-2.3,2.08a1.46,1.46,0,0,0,.32,1,1.06,1.06,0,0,0,.84.38,1.11,1.11,0,0,0,.87-0.37,1.59,1.59,0,0,0,0-1.95,1.09,1.09,0,0,0-.86-0.37,1.07,1.07,0,0,0-.84.38A1.4,1.4,0,0,0,240.7,44.62Z"/><path class="cls-5" d="M246.17,42.54v2.41a0.85,0.85,0,1,0,1.65,0V42.54h1V45a2.72,2.72,0,0,1-.12.87,1.46,1.46,0,0,1-.42.59,2,2,0,0,1-2.49,0,1.49,1.49,0,0,1-.43-0.59A2.4,2.4,0,0,1,245.2,45V42.54h1Z"/><path class="cls-5" d="M253.83,44.86h-3a1.27,1.27,0,0,0,.34.82,1,1,0,0,0,.76.3,1,1,0,0,0,.6-0.17,2.46,2.46,0,0,0,.53-0.64l0.82,0.46a3.29,3.29,0,0,1-.4.55,2.11,2.11,0,0,1-.45.38,1.83,1.83,0,0,1-.52.22,2.55,2.55,0,0,1-.61.07,2,2,0,0,1-1.51-.6,2.26,2.26,0,0,1-.57-1.61,2.33,2.33,0,0,1,.55-1.61,2.1,2.1,0,0,1,2.94,0,2.32,2.32,0,0,1,.53,1.62v0.23Zm-1-.79a0.93,0.93,0,0,0-1-.78,1,1,0,0,0-.33.05,1,1,0,0,0-.28.16,1,1,0,0,0-.22.24,1.13,1.13,0,0,0-.14.32h1.95Z"/><path class="cls-5" d="M254.89,42.54h1v0.39a1.59,1.59,0,0,1,1.15-.5,1.45,1.45,0,0,1,1.14.46,1.89,1.89,0,0,1,.35,1.28v2.57h-1V44.39a1.53,1.53,0,0,0-.17-0.86,0.69,0.69,0,0,0-.61-0.24,0.75,0.75,0,0,0-.68.32,2.19,2.19,0,0,0-.2,1.1v2h-1V42.54Z"/><rect class="cls-6" x="160.15" y="37.69" width="10.29" height="10.29"/><path class="cls-5" d="M175.52,46.26l1.4-7.15,2.28,5.17,2.36-5.17,1.26,7.15h-1l-0.64-4-2,4.32-1.91-4.32-0.71,4h-1Z"/><path class="cls-5" d="M187.14,42.06h1v4.19h-1V45.82a1.86,1.86,0,0,1-2.73-.07,2.34,2.34,0,0,1-.56-1.6,2.27,2.27,0,0,1,.56-1.57,1.82,1.82,0,0,1,1.41-.63,1.78,1.78,0,0,1,1.31.6V42.06Zm-2.55-1.34a0.57,0.57,0,0,1,.18-0.43,0.61,0.61,0,0,1,.87,0,0.58,0.58,0,0,1,.18.43,0.6,0.6,0,0,1-.18.44,0.62,0.62,0,0,1-.43.18,0.6,0.6,0,0,1-.44-0.18A0.62,0.62,0,0,1,184.59,40.73Zm0.25,3.42a1.46,1.46,0,0,0,.32,1,1.06,1.06,0,0,0,.84.38,1.11,1.11,0,0,0,.87-0.37,1.59,1.59,0,0,0,0-1.95,1.09,1.09,0,0,0-.86-0.37,1.07,1.07,0,0,0-.84.38A1.4,1.4,0,0,0,184.84,44.15Zm1.55-3.42a0.57,0.57,0,0,1,.18-0.43,0.6,0.6,0,0,1,.43-0.18,0.58,0.58,0,0,1,.43.18,0.58,0.58,0,0,1,.18.43,0.6,0.6,0,0,1-.18.44,0.62,0.62,0,0,1-.43.18A0.62,0.62,0,0,1,186.39,40.73Z"/><path class="cls-5" d="M189.33,42.06h1v0.39a1.59,1.59,0,0,1,1.15-.5,1.45,1.45,0,0,1,1.14.46,1.89,1.89,0,0,1,.35,1.28v2.57h-1V43.92a1.53,1.53,0,0,0-.17-0.86,0.69,0.69,0,0,0-.61-0.24,0.75,0.75,0,0,0-.68.32,2.19,2.19,0,0,0-.2,1.1v2h-1V42.06Z"/><path class="cls-5" d="M194.17,42.06h1v0.39a1.59,1.59,0,0,1,1.15-.5,1.45,1.45,0,0,1,1.14.46,1.89,1.89,0,0,1,.35,1.28v2.57h-1V43.92a1.53,1.53,0,0,0-.17-0.86,0.69,0.69,0,0,0-.61-0.24,0.75,0.75,0,0,0-.68.32,2.19,2.19,0,0,0-.2,1.1v2h-1V42.06Z"/><path class="cls-5" d="M202.83,44.39h-3a1.27,1.27,0,0,0,.34.82,1,1,0,0,0,.76.3,1,1,0,0,0,.6-0.17A2.46,2.46,0,0,0,202,44.7l0.82,0.46a3.29,3.29,0,0,1-.4.55,2.11,2.11,0,0,1-.45.38,1.83,1.83,0,0,1-.52.22,2.55,2.55,0,0,1-.61.07,2,2,0,0,1-1.51-.6,2.26,2.26,0,0,1-.57-1.61,2.33,2.33,0,0,1,.55-1.61,2.1,2.1,0,0,1,2.94,0,2.32,2.32,0,0,1,.53,1.62v0.23Zm-1-.79a0.93,0.93,0,0,0-1-.78,1,1,0,0,0-.33.05,1,1,0,0,0-.28.16,1,1,0,0,0-.22.24,1.13,1.13,0,0,0-.14.32h1.95Z"/><path class="cls-5" d="M203.88,42.06h1v0.37a1.86,1.86,0,0,1,.47-0.38,1.09,1.09,0,0,1,.5-0.11,1.57,1.57,0,0,1,.8.25l-0.44.89a0.93,0.93,0,0,0-.54-0.2q-0.79,0-.79,1.2v2.18h-1V42.06Z"/><g class="cls-7"><path class="cls-5" d="M114.26,315.44h-1.57l-0.65-.67a4.18,4.18,0,0,1-2.31.67,4.32,4.32,0,0,1-2.93-1.12,4,4,0,0,1-1.39-3.14,4.13,4.13,0,0,1,1.32-3.12,4.33,4.33,0,0,1,5.85-.15,4.17,4.17,0,0,1,1.5,3.33,4,4,0,0,1-1.19,2.86ZM110.81,312l1.2,1.2a2.83,2.83,0,0,0,.79-2,3.07,3.07,0,0,0-.89-2.24,3,3,0,0,0-2.2-.9,2.9,2.9,0,0,0-2.19.9,3.14,3.14,0,0,0-.87,2.27,2.9,2.9,0,0,0,.89,2.19,3,3,0,0,0,2.12.88,2.93,2.93,0,0,0,1.47-.37l-2-1.89h1.62Z"/><path class="cls-5" d="M116.63,310.06v3a1.05,1.05,0,1,0,2.05,0v-3h1.21v3a3.38,3.38,0,0,1-.16,1.08,1.83,1.83,0,0,1-.52.74,2.54,2.54,0,0,1-3.11,0,1.85,1.85,0,0,1-.53-0.74,3,3,0,0,1-.15-1.08v-3h1.21Z"/><path class="cls-5" d="M126.18,313h-3.75a1.59,1.59,0,0,0,.42,1,1.28,1.28,0,0,0,1,.38,1.24,1.24,0,0,0,.75-0.21,3,3,0,0,0,.66-0.79l1,0.57a4.1,4.1,0,0,1-.5.69,2.66,2.66,0,0,1-.56.47,2.25,2.25,0,0,1-.65.27,3.14,3.14,0,0,1-.76.09,2.46,2.46,0,0,1-1.88-.75,2.82,2.82,0,0,1-.71-2,2.9,2.9,0,0,1,.69-2,2.62,2.62,0,0,1,3.66,0,2.89,2.89,0,0,1,.67,2V313Zm-1.24-1a1.16,1.16,0,0,0-1.22-1,1.25,1.25,0,0,0-.41.07,1.19,1.19,0,0,0-.35.19,1.24,1.24,0,0,0-.27.3,1.42,1.42,0,0,0-.17.4h2.43Z"/><path class="cls-5" d="M128.71,306.22v9.07H127.5v-9.07h1.21Z"/><path class="cls-5" d="M131.44,306.22v9.07h-1.21v-9.07h1.21Z"/><path class="cls-5" d="M137.74,313H134a1.59,1.59,0,0,0,.42,1,1.28,1.28,0,0,0,1,.38,1.24,1.24,0,0,0,.75-0.21,3,3,0,0,0,.66-0.79l1,0.57a4.1,4.1,0,0,1-.5.69,2.66,2.66,0,0,1-.56.47,2.25,2.25,0,0,1-.65.27,3.14,3.14,0,0,1-.76.09,2.46,2.46,0,0,1-1.88-.75,2.82,2.82,0,0,1-.71-2,2.9,2.9,0,0,1,.69-2,2.62,2.62,0,0,1,3.66,0,2.89,2.89,0,0,1,.67,2V313Zm-1.24-1a1.16,1.16,0,0,0-1.22-1,1.25,1.25,0,0,0-.41.07,1.19,1.19,0,0,0-.35.19,1.24,1.24,0,0,0-.27.3,1.42,1.42,0,0,0-.17.4h2.43Z"/><path class="cls-5" d="M139.25,310.65a0.71,0.71,0,0,1,.22-0.52,0.75,0.75,0,0,1,1.27.53,0.73,0.73,0,0,1-.22.53,0.75,0.75,0,0,1-1.06,0A0.73,0.73,0,0,1,139.25,310.65Zm0,4a0.75,0.75,0,0,1,1.49,0,0.72,0.72,0,0,1-.22.53,0.76,0.76,0,0,1-1.06,0A0.73,0.73,0,0,1,139.25,314.69Z"/><path class="cls-5" d="M148.37,308.18v7.12h-1.25v-7.12h-1.91V307h5.06v1.18h-1.9Z"/><path class="cls-5" d="M154.55,310.06h1.21v5.23h-1.21v-0.55a2.32,2.32,0,0,1-3.4-.09,2.92,2.92,0,0,1-.7-2,2.83,2.83,0,0,1,.7-2,2.27,2.27,0,0,1,1.76-.79,2.23,2.23,0,0,1,1.64.75v-0.61Zm-2.87,2.6a1.82,1.82,0,0,0,.4,1.22,1.32,1.32,0,0,0,1,.48,1.39,1.39,0,0,0,1.09-.46,2,2,0,0,0,0-2.43,1.37,1.37,0,0,0-1.07-.47,1.34,1.34,0,0,0-1,.47A1.74,1.74,0,0,0,151.68,312.66Z"/><path class="cls-5" d="M157.29,310.06h1.21v0.48a2.54,2.54,0,0,1,.6-0.49,1.44,1.44,0,0,1,.66-0.13,1.6,1.6,0,0,1,1.4.77,1.82,1.82,0,0,1,1.54-.77q1.77,0,1.77,2.14v3.23h-1.21v-2.91a2.23,2.23,0,0,0-.18-1.06,0.66,0.66,0,0,0-.62-0.32,0.79,0.79,0,0,0-.73.38,2.42,2.42,0,0,0-.23,1.21v2.7h-1.21V312.4q0-1.4-.8-1.4a0.81,0.81,0,0,0-.74.38,2.37,2.37,0,0,0-.23,1.2v2.7h-1.21v-5.23Z"/><path class="cls-5" d="M170.76,313H167a1.59,1.59,0,0,0,.42,1,1.28,1.28,0,0,0,1,.38,1.24,1.24,0,0,0,.75-0.21,3,3,0,0,0,.66-0.79l1,0.57a4.1,4.1,0,0,1-.5.69,2.66,2.66,0,0,1-.56.47,2.25,2.25,0,0,1-.65.27,3.14,3.14,0,0,1-.76.09,2.46,2.46,0,0,1-1.88-.75,2.82,2.82,0,0,1-.71-2,2.9,2.9,0,0,1,.69-2,2.62,2.62,0,0,1,3.66,0,2.89,2.89,0,0,1,.67,2V313Zm-1.24-1a1.16,1.16,0,0,0-1.22-1,1.25,1.25,0,0,0-.41.07,1.19,1.19,0,0,0-.35.19,1.24,1.24,0,0,0-.27.3,1.42,1.42,0,0,0-.17.4h2.43Z"/><path class="cls-5" d="M175.94,306.22h1.21v9.07h-1.21v-0.55a2.26,2.26,0,0,1-1.62.7,2.3,2.3,0,0,1-1.78-.78,2.92,2.92,0,0,1-.7-2,2.82,2.82,0,0,1,.7-2,2.26,2.26,0,0,1,3.4,0v-4.45Zm-2.87,6.44a1.82,1.82,0,0,0,.4,1.22,1.32,1.32,0,0,0,1,.48,1.39,1.39,0,0,0,1.09-.46,2,2,0,0,0,0-2.43,1.37,1.37,0,0,0-1.07-.47,1.34,1.34,0,0,0-1,.47A1.74,1.74,0,0,0,173.07,312.66Z"/><path class="cls-5" d="M178.49,307.89a0.79,0.79,0,0,1,.78-0.78,0.76,0.76,0,0,1,.56.23,0.74,0.74,0,0,1,.23.55,0.76,0.76,0,0,1-.23.56,0.74,0.74,0,0,1-.55.23A0.79,0.79,0,0,1,178.49,307.89Zm1.39,2.17v5.23h-1.21v-5.23h1.21Z"/><path class="cls-5" d="M185.27,310.06h1.21v5.23h-1.21v-0.55a2.32,2.32,0,0,1-3.4-.09,2.92,2.92,0,0,1-.7-2,2.83,2.83,0,0,1,.7-2,2.27,2.27,0,0,1,1.76-.79,2.23,2.23,0,0,1,1.64.75v-0.61Zm-2.87,2.6a1.82,1.82,0,0,0,.4,1.22,1.32,1.32,0,0,0,1,.48,1.39,1.39,0,0,0,1.09-.46,2,2,0,0,0,0-2.43,1.37,1.37,0,0,0-1.07-.47,1.34,1.34,0,0,0-1,.47A1.74,1.74,0,0,0,182.4,312.66Z"/><path class="cls-5" d="M196.51,313.28H193l-0.92,2h-1.35l4.1-8.81,4,8.81h-1.37ZM196,312.1l-1.23-2.82-1.29,2.82H196Z"/><path class="cls-5" d="M200.92,306.22v4.45a2.23,2.23,0,0,1,1.64-.75,2.26,2.26,0,0,1,1.76.79,2.82,2.82,0,0,1,.7,2,2.88,2.88,0,0,1-.71,2,2.29,2.29,0,0,1-1.78.78,2.26,2.26,0,0,1-1.62-.7v0.55h-1.21v-9.07h1.21Zm2.87,6.49a1.81,1.81,0,0,0-.41-1.22,1.31,1.31,0,0,0-1-.48,1.39,1.39,0,0,0-1.09.47,1.74,1.74,0,0,0-.41,1.2,1.76,1.76,0,0,0,.41,1.22,1.36,1.36,0,0,0,1.07.47,1.33,1.33,0,0,0,1-.47A1.72,1.72,0,0,0,203.79,312.71Z"/><path class="cls-5" d="M209.34,311l-1,.53a0.69,0.69,0,0,0-.58-0.48,0.4,0.4,0,0,0-.29.11,0.37,0.37,0,0,0-.12.28,0.91,0.91,0,0,0,.7.6,4.18,4.18,0,0,1,1.29.76,1.3,1.3,0,0,1,.33.94,1.64,1.64,0,0,1-.56,1.27,2,2,0,0,1-3.17-.8l1-.48a2.22,2.22,0,0,0,.33.48,0.75,0.75,0,0,0,.53.2,0.52,0.52,0,0,0,.61-0.56,0.77,0.77,0,0,0-.47-0.6l-0.37-.18-0.37-.18a2.28,2.28,0,0,1-.74-0.52,1.27,1.27,0,0,1-.27-0.84,1.49,1.49,0,0,1,.47-1.13,1.64,1.64,0,0,1,1.16-.45A1.58,1.58,0,0,1,209.34,311Z"/><path class="cls-5" d="M212,311.19v4.1H210.8v-4.1h-0.52v-1.13h0.52v-1.92H212v1.92H213v1.13H212Z"/><path class="cls-5" d="M213.59,307.89a0.79,0.79,0,0,1,.78-0.78,0.76,0.76,0,0,1,.56.23,0.74,0.74,0,0,1,.23.55,0.76,0.76,0,0,1-.23.56,0.74,0.74,0,0,1-.55.23A0.79,0.79,0,0,1,213.59,307.89Zm1.39,2.17v5.23h-1.21v-5.23H215Z"/><path class="cls-5" d="M216.51,310.06h1.21v0.48a2.54,2.54,0,0,1,.6-0.49,1.44,1.44,0,0,1,.66-0.13,1.6,1.6,0,0,1,1.4.77,1.82,1.82,0,0,1,1.54-.77q1.77,0,1.77,2.14v3.23h-1.21v-2.91a2.23,2.23,0,0,0-.18-1.06,0.66,0.66,0,0,0-.62-0.32,0.79,0.79,0,0,0-.73.38,2.42,2.42,0,0,0-.23,1.21v2.7H219.5V312.4q0-1.4-.8-1.4a0.81,0.81,0,0,0-.74.38,2.37,2.37,0,0,0-.23,1.2v2.7h-1.21v-5.23Z"/><path class="cls-5" d="M225.21,310.06h1.21v0.48a2.54,2.54,0,0,1,.6-0.49,1.44,1.44,0,0,1,.66-0.13,1.6,1.6,0,0,1,1.4.77,1.82,1.82,0,0,1,1.54-.77q1.77,0,1.77,2.14v3.23h-1.21v-2.91a2.23,2.23,0,0,0-.18-1.06,0.66,0.66,0,0,0-.62-0.32,0.79,0.79,0,0,0-.73.38,2.42,2.42,0,0,0-.23,1.21v2.7h-1.21V312.4q0-1.4-.8-1.4a0.81,0.81,0,0,0-.74.38,2.37,2.37,0,0,0-.23,1.2v2.7h-1.21v-5.23Z"/><path class="cls-5" d="M235.12,310.06v3a1.05,1.05,0,1,0,2.05,0v-3h1.21v3a3.38,3.38,0,0,1-.16,1.08,1.83,1.83,0,0,1-.52.74,2.54,2.54,0,0,1-3.11,0,1.85,1.85,0,0,1-.53-0.74,3,3,0,0,1-.15-1.08v-3h1.21Z"/><path class="cls-5" d="M239.91,310.06h1.21v0.48a2,2,0,0,1,1.43-.63,1.8,1.8,0,0,1,1.42.58,2.35,2.35,0,0,1,.44,1.59v3.21H243.2v-2.92a1.91,1.91,0,0,0-.21-1.07,0.87,0.87,0,0,0-.76-0.3,0.94,0.94,0,0,0-.85.4,2.73,2.73,0,0,0-.25,1.37v2.52h-1.21v-5.23Z"/><path class="cls-5" d="M251,315.17q0,0.37,0,.65a4.25,4.25,0,0,1-.07.5,2.22,2.22,0,0,1-.5,1,2.45,2.45,0,0,1-2,.82,2.59,2.59,0,0,1-1.72-.57,2.32,2.32,0,0,1-.81-1.61h1.21a1.37,1.37,0,0,0,.23.6,1.3,1.3,0,0,0,1.1.49q1.33,0,1.33-1.62v-0.73a2.25,2.25,0,0,1-1.66.74,2.23,2.23,0,0,1-1.75-.77,2.87,2.87,0,0,1-.69-2,3,3,0,0,1,.64-1.94,2.22,2.22,0,0,1,1.82-.85,2.11,2.11,0,0,1,1.64.74v-0.59H251v5.11Zm-1.16-2.48a1.75,1.75,0,0,0-.41-1.22,1.35,1.35,0,0,0-1.06-.47,1.3,1.3,0,0,0-1.08.51,2.09,2.09,0,0,0,0,2.35,1.3,1.3,0,0,0,1.08.5,1.33,1.33,0,0,0,1.1-.5A1.79,1.79,0,0,0,249.84,312.69Z"/><path class="cls-5" d="M255.57,311l-1,.53A0.69,0.69,0,0,0,254,311a0.4,0.4,0,0,0-.29.11,0.37,0.37,0,0,0-.12.28,0.91,0.91,0,0,0,.7.6,4.18,4.18,0,0,1,1.29.76,1.3,1.3,0,0,1,.33.94,1.64,1.64,0,0,1-.56,1.27,2,2,0,0,1-3.17-.8l1-.48a2.22,2.22,0,0,0,.33.48,0.75,0.75,0,0,0,.53.2,0.52,0.52,0,0,0,.61-0.56,0.77,0.77,0,0,0-.47-0.6l-0.37-.18-0.37-.18a2.28,2.28,0,0,1-.74-0.52,1.27,1.27,0,0,1-.27-0.84,1.49,1.49,0,0,1,.47-1.13,1.64,1.64,0,0,1,1.16-.45A1.58,1.58,0,0,1,255.57,311Z"/><path class="cls-5" d="M260,311l-1,.53a0.69,0.69,0,0,0-.58-0.48,0.4,0.4,0,0,0-.29.11,0.37,0.37,0,0,0-.12.28,0.91,0.91,0,0,0,.7.6,4.18,4.18,0,0,1,1.29.76,1.3,1.3,0,0,1,.33.94,1.64,1.64,0,0,1-.56,1.27,2,2,0,0,1-3.17-.8l1-.48a2.22,2.22,0,0,0,.33.48,0.75,0.75,0,0,0,.53.2,0.52,0.52,0,0,0,.61-0.56,0.77,0.77,0,0,0-.47-0.6L258.3,313l-0.37-.18a2.28,2.28,0,0,1-.74-0.52,1.27,1.27,0,0,1-.27-0.84,1.49,1.49,0,0,1,.47-1.13,1.64,1.64,0,0,1,1.16-.45A1.58,1.58,0,0,1,260,311Z"/><path class="cls-5" d="M262.7,311.19v4.1h-1.21v-4.1H261v-1.13h0.52v-1.92h1.21v1.92h0.94v1.13H262.7Z"/><path class="cls-5" d="M265.67,310.06v3a1.05,1.05,0,1,0,2.05,0v-3h1.21v3a3.38,3.38,0,0,1-.16,1.08,1.83,1.83,0,0,1-.52.74,2.54,2.54,0,0,1-3.11,0,1.85,1.85,0,0,1-.53-0.74,3,3,0,0,1-.15-1.08v-3h1.21Z"/><path class="cls-5" d="M274.31,306.22h1.21v9.07h-1.21v-0.55a2.26,2.26,0,0,1-1.62.7,2.3,2.3,0,0,1-1.78-.78,2.92,2.92,0,0,1-.7-2,2.82,2.82,0,0,1,.7-2,2.26,2.26,0,0,1,3.4,0v-4.45Zm-2.87,6.44a1.82,1.82,0,0,0,.4,1.22,1.32,1.32,0,0,0,1,.48,1.39,1.39,0,0,0,1.09-.46,2,2,0,0,0,0-2.43,1.37,1.37,0,0,0-1.07-.47,1.34,1.34,0,0,0-1,.47A1.74,1.74,0,0,0,271.44,312.66Z"/><path class="cls-5" d="M276.87,307.89a0.79,0.79,0,0,1,.78-0.78,0.76,0.76,0,0,1,.56.23,0.74,0.74,0,0,1,.23.55,0.76,0.76,0,0,1-.23.56,0.74,0.74,0,0,1-.55.23A0.79,0.79,0,0,1,276.87,307.89Zm1.39,2.17v5.23h-1.21v-5.23h1.21Z"/><path class="cls-5" d="M284.55,313H280.8a1.59,1.59,0,0,0,.42,1,1.28,1.28,0,0,0,1,.38,1.24,1.24,0,0,0,.75-0.21,3,3,0,0,0,.66-0.79l1,0.57a4.1,4.1,0,0,1-.5.69,2.66,2.66,0,0,1-.56.47,2.25,2.25,0,0,1-.65.27,3.14,3.14,0,0,1-.76.09,2.46,2.46,0,0,1-1.88-.75,2.82,2.82,0,0,1-.71-2,2.9,2.9,0,0,1,.69-2,2.62,2.62,0,0,1,3.66,0,2.89,2.89,0,0,1,.67,2V313Zm-1.24-1a1.16,1.16,0,0,0-1.22-1,1.25,1.25,0,0,0-.41.07,1.19,1.19,0,0,0-.35.19,1.24,1.24,0,0,0-.27.3,1.42,1.42,0,0,0-.17.4h2.43Z"/><path class="cls-5" d="M291.26,314.12h3.09v1.18h-5.57l2.88-3.49q0.42-.52.71-0.9a7,7,0,0,0,.44-0.64,1.8,1.8,0,0,0,.31-0.91,1.29,1.29,0,0,0-.41-1,1.46,1.46,0,0,0-2.45,1.1H289q0.3-2.62,2.65-2.62a2.68,2.68,0,0,1,1.9.72,2.34,2.34,0,0,1,.77,1.78,2.7,2.7,0,0,1-.36,1.33,6.47,6.47,0,0,1-.53.8q-0.35.46-.89,1.1Z"/><path class="cls-5" d="M295.76,311.09a5,5,0,0,1,.92-3.16,2.41,2.41,0,0,1,4,0,6.05,6.05,0,0,1,0,6.43,2.46,2.46,0,0,1-2,1.07,2.49,2.49,0,0,1-2-1.07A5.18,5.18,0,0,1,295.76,311.09Zm1.24,0a4.92,4.92,0,0,0,.48,2.29,1.27,1.27,0,0,0,2.43,0,5.49,5.49,0,0,0,0-4.51,1.27,1.27,0,0,0-2.43,0A4.58,4.58,0,0,0,297,311.1Z"/><path class="cls-5" d="M304.22,308.18h-1.43l0.69-1.18h2v8.29h-1.25v-7.12Z"/><path class="cls-5" d="M311.38,306.71l0.92,0.69-2,2.7,0.27,0h0.18a2.33,2.33,0,0,1,1.75.77,2.56,2.56,0,0,1,.73,1.84,2.78,2.78,0,0,1-2.77,2.77,2.79,2.79,0,0,1-2-.8,2.54,2.54,0,0,1-.83-1.9,3.57,3.57,0,0,1,.81-2.08Zm0.64,6a1.57,1.57,0,1,0-1.56,1.55A1.57,1.57,0,0,0,312,312.74Z"/></g><line class="cls-8" x1="27.77" y1="264.13" x2="418.65" y2="264.13"/><path class="cls-5" d="M3.68,235.67H2l0.79-1.35H5.11v9.5H3.68v-8.15Z"/><path class="cls-5" d="M7.82,239a5.73,5.73,0,0,1,1.06-3.62,2.76,2.76,0,0,1,4.59,0,6.94,6.94,0,0,1,0,7.36A2.82,2.82,0,0,1,11.18,244a2.85,2.85,0,0,1-2.3-1.22A5.93,5.93,0,0,1,7.82,239Zm1.42,0a5.63,5.63,0,0,0,.55,2.63,1.6,1.6,0,0,0,1.39,1,1.61,1.61,0,0,0,1.39-1,6.3,6.3,0,0,0,0-5.16,1.61,1.61,0,0,0-1.39-1,1.61,1.61,0,0,0-1.39,1A5.26,5.26,0,0,0,9.23,239Z"/><path class="cls-5" d="M3,218.11H6.58v1.35H0.2l3.3-4q0.49-.6.82-1a7.89,7.89,0,0,0,.5-0.73,2.06,2.06,0,0,0,.35-1,1.48,1.48,0,0,0-.47-1.11,1.61,1.61,0,0,0-1.16-.45,1.61,1.61,0,0,0-1.65,1.7H0.46q0.34-3,3-3a3.06,3.06,0,0,1,2.18.82,2.68,2.68,0,0,1,.89,2,3.11,3.11,0,0,1-.41,1.52,7.43,7.43,0,0,1-.61.92q-0.4.53-1,1.26Z"/><path class="cls-5" d="M8.19,214.65A5.73,5.73,0,0,1,9.25,211a2.76,2.76,0,0,1,4.59,0,6.94,6.94,0,0,1,0,7.36,2.82,2.82,0,0,1-2.29,1.22,2.85,2.85,0,0,1-2.3-1.22A5.93,5.93,0,0,1,8.19,214.65Zm1.42,0a5.63,5.63,0,0,0,.55,2.63,1.6,1.6,0,0,0,1.39,1,1.61,1.61,0,0,0,1.39-1,6.3,6.3,0,0,0,0-5.16,1.61,1.61,0,0,0-1.39-1,1.61,1.61,0,0,0-1.39,1A5.26,5.26,0,0,0,9.61,214.66Z"/><path class="cls-5" d="M3.14,190.69v-1.22a2.49,2.49,0,0,0,1.22-.2,1.25,1.25,0,0,0,.56-1.14,1.3,1.3,0,0,0-.41-1,1.43,1.43,0,0,0-1-.39,1.35,1.35,0,0,0-.92.29,1.92,1.92,0,0,0-.47,1H0.66a3.29,3.29,0,0,1,.91-2,2.77,2.77,0,0,1,1.93-.62,2.86,2.86,0,0,1,2,.74,2.46,2.46,0,0,1,.79,1.89,2.34,2.34,0,0,1-1,2,2.41,2.41,0,0,1,1.19,2.26,2.74,2.74,0,0,1-.86,2.09,3.1,3.1,0,0,1-2.21.81A2.84,2.84,0,0,1,.86,194a3.27,3.27,0,0,1-.44-1.46H1.8a1.68,1.68,0,0,0,.54,1.05,1.66,1.66,0,0,0,1.12.37,1.55,1.55,0,0,0,1.15-.46,1.66,1.66,0,0,0,.46-1.2,1.46,1.46,0,0,0-.68-1.37A2.54,2.54,0,0,0,3.14,190.69Z"/><path class="cls-5" d="M8.19,190.29a5.73,5.73,0,0,1,1.06-3.62,2.76,2.76,0,0,1,4.59,0,6.94,6.94,0,0,1,0,7.36,2.82,2.82,0,0,1-2.29,1.22A2.85,2.85,0,0,1,9.25,194,5.93,5.93,0,0,1,8.19,190.29Zm1.42,0a5.63,5.63,0,0,0,.55,2.63,1.6,1.6,0,0,0,1.39,1,1.61,1.61,0,0,0,1.39-1,6.3,6.3,0,0,0,0-5.16,1.61,1.61,0,0,0-1.39-1,1.61,1.61,0,0,0-1.39,1A5.26,5.26,0,0,0,9.61,190.3Z"/><path class="cls-5" d="M6.1,168.09h1v1.3h-1v1.35H4.66v-1.35H0l6.1-8.86v7.56Zm-1.43,0v-3.18l-2.19,3.18H4.66Z"/><path class="cls-5" d="M8.19,165.93a5.73,5.73,0,0,1,1.06-3.62,2.76,2.76,0,0,1,4.59,0,6.94,6.94,0,0,1,0,7.36,2.82,2.82,0,0,1-2.29,1.22,2.85,2.85,0,0,1-2.3-1.22A5.93,5.93,0,0,1,8.19,165.93Zm1.42,0a5.63,5.63,0,0,0,.55,2.63,1.6,1.6,0,0,0,1.39,1,1.61,1.61,0,0,0,1.39-1,6.3,6.3,0,0,0,0-5.16,1.61,1.61,0,0,0-1.39-1,1.61,1.61,0,0,0-1.39,1A5.26,5.26,0,0,0,9.61,165.94Z"/><path class="cls-5" d="M6.51,138.23H3.58L3.11,139.8l0.2,0H3.49a3,3,0,0,1,2.27.93,3.58,3.58,0,0,1-.12,4.85,3.51,3.51,0,0,1-2.54,1,3.35,3.35,0,0,1-3-1.77l1.08-.92a3.35,3.35,0,0,0,.9,1.08,1.94,1.94,0,0,0,1.11.31,1.93,1.93,0,0,0,1.45-.6,2.12,2.12,0,0,0,.58-1.51,2,2,0,0,0-.58-1.49,1.93,1.93,0,0,0-1.45-.6,2.11,2.11,0,0,0-1.67.84H1.09l1.49-5H6.51v1.35Z"/><path class="cls-5" d="M8.19,141.57a5.73,5.73,0,0,1,1.06-3.62,2.76,2.76,0,0,1,4.59,0,6.94,6.94,0,0,1,0,7.36,2.82,2.82,0,0,1-2.29,1.22,2.85,2.85,0,0,1-2.3-1.22A5.93,5.93,0,0,1,8.19,141.57Zm1.42,0a5.63,5.63,0,0,0,.55,2.63,1.6,1.6,0,0,0,1.39,1,1.61,1.61,0,0,0,1.39-1,6.3,6.3,0,0,0,0-5.16,1.61,1.61,0,0,0-1.39-1,1.61,1.61,0,0,0-1.39,1A5.26,5.26,0,0,0,9.61,141.58Z"/><path class="cls-5" d="M4.83,112.19L5.88,113l-2.27,3.09,0.31,0h0.2a2.67,2.67,0,0,1,2,.89A2.93,2.93,0,0,1,7,119,3.05,3.05,0,0,1,6,121.25a3,3,0,0,1-2.23.93,3.2,3.2,0,0,1-2.26-.92,2.91,2.91,0,0,1-1-2.17,4.09,4.09,0,0,1,.93-2.39Zm0.74,6.91a1.8,1.8,0,0,0-1.8-1.81,1.73,1.73,0,0,0-1.27.52,1.8,1.8,0,0,0,0,2.53,1.74,1.74,0,0,0,1.28.52A1.72,1.72,0,0,0,5,120.35,1.71,1.71,0,0,0,5.57,119.1Z"/><path class="cls-5" d="M8.19,117.21a5.73,5.73,0,0,1,1.06-3.62,2.76,2.76,0,0,1,4.59,0,6.94,6.94,0,0,1,0,7.36,2.82,2.82,0,0,1-2.29,1.22A2.85,2.85,0,0,1,9.25,121,5.93,5.93,0,0,1,8.19,117.21Zm1.42,0a5.63,5.63,0,0,0,.55,2.63,1.6,1.6,0,0,0,1.39,1,1.61,1.61,0,0,0,1.39-1,6.3,6.3,0,0,0,0-5.16,1.61,1.61,0,0,0-1.39-1,1.61,1.61,0,0,0-1.39,1A5.26,5.26,0,0,0,9.61,117.22Z"/><path class="cls-5" d="M5.22,89.51H0.54V88.16H7.62L1.62,98l-1.14-.72Z"/><path class="cls-5" d="M8.19,92.85a5.73,5.73,0,0,1,1.06-3.62,2.76,2.76,0,0,1,4.59,0,6.94,6.94,0,0,1,0,7.36,2.82,2.82,0,0,1-2.29,1.22,2.85,2.85,0,0,1-2.3-1.22A5.93,5.93,0,0,1,8.19,92.85Zm1.42,0a5.63,5.63,0,0,0,.55,2.63,1.6,1.6,0,0,0,1.39,1,1.61,1.61,0,0,0,1.39-1,6.3,6.3,0,0,0,0-5.16,1.61,1.61,0,0,0-1.39-1,1.61,1.61,0,0,0-1.39,1A5.26,5.26,0,0,0,9.61,92.86Z"/><path class="cls-5" d="M2.07,68.36a2.33,2.33,0,0,1-1-2,2.59,2.59,0,0,1,.79-1.93,2.74,2.74,0,0,1,2-.78,2.69,2.69,0,0,1,2,.78,2.6,2.6,0,0,1,.79,1.94,2.39,2.39,0,0,1-1,2,2.21,2.21,0,0,1,.9.9,2.63,2.63,0,0,1,.34,1.33,2.76,2.76,0,0,1-.83,2.07,2.9,2.9,0,0,1-2.11.81,3,3,0,0,1-2.17-.81,2.69,2.69,0,0,1-.86-2A2.29,2.29,0,0,1,2.07,68.36ZM2.2,70.55a1.58,1.58,0,0,0,.45,1.13,1.51,1.51,0,0,0,1.12.47,1.51,1.51,0,0,0,1.11-.46,1.59,1.59,0,0,0,0-2.24A1.51,1.51,0,0,0,3.77,69a1.53,1.53,0,0,0-1.11.46A1.51,1.51,0,0,0,2.2,70.55Zm0.17-4.21A1.42,1.42,0,0,0,3.8,67.78a1.42,1.42,0,1,0-1-2.42A1.35,1.35,0,0,0,2.38,66.34Z"/><path class="cls-5" d="M8.19,68.49a5.73,5.73,0,0,1,1.06-3.62,2.76,2.76,0,0,1,4.59,0,6.94,6.94,0,0,1,0,7.36,2.82,2.82,0,0,1-2.29,1.22,2.85,2.85,0,0,1-2.3-1.22A5.93,5.93,0,0,1,8.19,68.49Zm1.42,0a5.63,5.63,0,0,0,.55,2.63,1.6,1.6,0,0,0,1.39,1,1.61,1.61,0,0,0,1.39-1,6.3,6.3,0,0,0,0-5.16,1.61,1.61,0,0,0-1.39-1,1.61,1.61,0,0,0-1.39,1A5.26,5.26,0,0,0,9.61,68.5Z"/><line class="cls-9" x1="27.77" y1="239.77" x2="418.65" y2="239.77"/><line class="cls-9" x1="27.77" y1="215.41" x2="418.65" y2="215.41"/><line class="cls-9" x1="27.77" y1="191.05" x2="418.65" y2="191.05"/><line class="cls-9" x1="27.77" y1="166.69" x2="418.65" y2="166.69"/><line class="cls-9" x1="27.77" y1="142.33" x2="418.65" y2="142.33"/><line class="cls-9" x1="27.77" y1="117.97" x2="418.65" y2="117.97"/><line class="cls-9" x1="27.77" y1="93.61" x2="418.65" y2="93.61"/><line class="cls-9" x1="27.77" y1="69.25" x2="418.65" y2="69.25"/><path class="cls-5" d="M61.1,287.23v-9.5h1.43a6.24,6.24,0,0,1,1.52.15,2.29,2.29,0,0,1,1,.5,2.59,2.59,0,0,1,.63.9,2.73,2.73,0,0,1,.24,1.11,2.25,2.25,0,0,1-.78,1.73,2.29,2.29,0,0,1,1.19.9,2.68,2.68,0,0,1-.34,3.37,2.58,2.58,0,0,1-1.06.66,6.18,6.18,0,0,1-1.62.18H61.1Zm1.43-5.42H63a1.65,1.65,0,0,0,1.17-.35,1.37,1.37,0,0,0,.37-1,1.31,1.31,0,0,0-.38-1A1.59,1.59,0,0,0,63,279h-0.5v2.76Zm0,4.07h0.89a2.2,2.2,0,0,0,1.43-.38,1.32,1.32,0,0,0,.48-1,1.34,1.34,0,0,0-.46-1,2.39,2.39,0,0,0-1.61-.41H62.53v2.87Z"/><path class="cls-5" d="M72.7,281.23h1.39v6H72.7V286.6a2.66,2.66,0,0,1-3.89-.1,3.34,3.34,0,0,1-.81-2.29A3.24,3.24,0,0,1,68.8,282a2.6,2.6,0,0,1,2-.9,2.55,2.55,0,0,1,1.88.86v-0.7Zm-3.29,3a2.09,2.09,0,0,0,.46,1.4,1.51,1.51,0,0,0,1.19.55,1.59,1.59,0,0,0,1.24-.53,2.28,2.28,0,0,0,0-2.78,1.56,1.56,0,0,0-1.23-.54,1.53,1.53,0,0,0-1.19.54A2,2,0,0,0,69.41,284.21Z"/><path class="cls-5" d="M79.32,282.26l-1.14.61a0.79,0.79,0,0,0-.67-0.55,0.46,0.46,0,0,0-.33.13,0.42,0.42,0,0,0-.14.32,1,1,0,0,0,.8.68,4.76,4.76,0,0,1,1.48.87,1.49,1.49,0,0,1,.38,1.08,1.88,1.88,0,0,1-.64,1.45,2.3,2.3,0,0,1-3.64-.92l1.18-.55a2.59,2.59,0,0,0,.38.55,0.86,0.86,0,0,0,.6.23,0.59,0.59,0,0,0,.7-0.64,0.88,0.88,0,0,0-.54-0.69l-0.42-.2-0.42-.2a2.61,2.61,0,0,1-.85-0.59,1.45,1.45,0,0,1-.31-1,1.71,1.71,0,0,1,.54-1.29,1.88,1.88,0,0,1,1.33-.51A1.81,1.81,0,0,1,79.32,282.26Z"/><path class="cls-5" d="M86.41,284.56H82.11a1.82,1.82,0,0,0,.48,1.17,1.46,1.46,0,0,0,1.09.43,1.42,1.42,0,0,0,.85-0.25,3.51,3.51,0,0,0,.76-0.91l1.17,0.65a4.72,4.72,0,0,1-.57.79,3,3,0,0,1-.65.54,2.62,2.62,0,0,1-.74.31,3.63,3.63,0,0,1-.87.1,2.82,2.82,0,0,1-2.15-.86,3.23,3.23,0,0,1-.81-2.3,3.32,3.32,0,0,1,.79-2.3,3,3,0,0,1,4.2,0,3.32,3.32,0,0,1,.76,2.32v0.33ZM85,283.43a1.33,1.33,0,0,0-1.4-1.11,1.45,1.45,0,0,0-.47.08,1.39,1.39,0,0,0-.4.22,1.41,1.41,0,0,0-.31.35,1.6,1.6,0,0,0-.2.46H85Z"/><path class="cls-5" d="M89.3,276.84v10.39H87.92V276.84H89.3Z"/><path class="cls-5" d="M90.18,283.58h2.74v1.21H90.18v-1.21Z"/><path class="cls-5" d="M99.44,279.14l-1.16.69a2,2,0,0,0-.62-0.74,1.66,1.66,0,0,0-1.78.14,1.05,1.05,0,0,0-.39.84,1.32,1.32,0,0,0,1,1.12l0.95,0.39a4.05,4.05,0,0,1,1.69,1.14,2.58,2.58,0,0,1,.54,1.65,2.91,2.91,0,0,1-.87,2.17,3,3,0,0,1-2.18.86,2.92,2.92,0,0,1-2-.74,3.38,3.38,0,0,1-1-2.06l1.45-.32a2.47,2.47,0,0,0,.34,1.16,1.64,1.64,0,0,0,2.41.17,1.55,1.55,0,0,0,.44-1.14,1.6,1.6,0,0,0-.08-0.51,1.29,1.29,0,0,0-.24-0.42,1.94,1.94,0,0,0-.42-0.36,4.12,4.12,0,0,0-.62-0.32L96,282.47a2.64,2.64,0,0,1-2-2.41,2.29,2.29,0,0,1,.82-1.79,3,3,0,0,1,2-.73A2.84,2.84,0,0,1,99.44,279.14Z"/><path class="cls-5" d="M102.79,282.53v4.7h-1.38v-4.7h-0.59v-1.29h0.59V279h1.38v2.2h1.08v1.29h-1.08Z"/><path class="cls-5" d="M109.34,281.23h1.39v6h-1.39V286.6a2.66,2.66,0,0,1-3.89-.1,3.34,3.34,0,0,1-.81-2.29,3.24,3.24,0,0,1,.81-2.25,2.6,2.6,0,0,1,2-.9,2.55,2.55,0,0,1,1.88.86v-0.7Zm-3.29,3a2.09,2.09,0,0,0,.46,1.4,1.51,1.51,0,0,0,1.19.55,1.59,1.59,0,0,0,1.24-.53,2.28,2.28,0,0,0,0-2.78,1.56,1.56,0,0,0-1.23-.54,1.53,1.53,0,0,0-1.19.54A2,2,0,0,0,106.05,284.21Z"/><path class="cls-5" d="M116.89,276.84h1.39v10.39h-1.39V286.6a2.58,2.58,0,0,1-1.85.8,2.64,2.64,0,0,1-2-.9,3.34,3.34,0,0,1-.81-2.29A3.23,3.23,0,0,1,113,282a2.59,2.59,0,0,1,3.89,0v-5.09Zm-3.29,7.38a2.09,2.09,0,0,0,.46,1.4,1.51,1.51,0,0,0,1.19.55,1.59,1.59,0,0,0,1.24-.53,2.28,2.28,0,0,0,0-2.78,1.56,1.56,0,0,0-1.23-.54,1.53,1.53,0,0,0-1.19.54A2,2,0,0,0,113.61,284.21Z"/><path class="cls-5" d="M121.46,282.53v4.7h-1.38v-4.7h-0.59v-1.29h0.59V279h1.38v2.2h1.08v1.29h-1.08Z"/><rect class="cls-10" x="41.77" y="125.28" width="46.91" height="138.85"/><g class="cls-11"><line class="cls-12" x1="93.32" y1="304.52" x2="172.52" y2="225.32"/><line class="cls-12" x1="93.32" y1="296.12" x2="172.52" y2="216.92"/><line class="cls-12" x1="93.32" y1="287.72" x2="172.52" y2="208.52"/><line class="cls-12" x1="93.32" y1="279.32" x2="172.52" y2="200.12"/><line class="cls-12" x1="93.32" y1="270.92" x2="172.52" y2="191.72"/><line class="cls-12" x1="93.32" y1="262.52" x2="172.52" y2="183.32"/><line class="cls-12" x1="93.32" y1="254.12" x2="172.52" y2="174.92"/><line class="cls-12" x1="93.32" y1="245.72" x2="172.52" y2="166.52"/><line class="cls-12" x1="93.32" y1="237.32" x2="172.52" y2="158.12"/><line class="cls-12" x1="93.32" y1="228.92" x2="172.52" y2="149.72"/><line class="cls-12" x1="93.32" y1="220.52" x2="172.52" y2="141.32"/><line class="cls-12" x1="93.32" y1="212.12" x2="172.52" y2="132.92"/><line class="cls-12" x1="93.32" y1="203.72" x2="172.52" y2="124.52"/><line class="cls-12" x1="93.32" y1="195.32" x2="172.52" y2="116.12"/><line class="cls-12" x1="93.32" y1="186.92" x2="172.52" y2="107.72"/><line class="cls-12" x1="93.32" y1="178.52" x2="172.52" y2="99.32"/><line class="cls-12" x1="93.32" y1="170.12" x2="172.52" y2="90.92"/><line class="cls-12" x1="93.32" y1="161.72" x2="172.52" y2="82.52"/><line class="cls-12" x1="93.32" y1="153.32" x2="172.52" y2="74.12"/></g><path class="cls-5" d="M196.65,287.23v-9.5h1.43a6.24,6.24,0,0,1,1.52.15,2.29,2.29,0,0,1,1,.5,2.59,2.59,0,0,1,.63.9,2.73,2.73,0,0,1,.24,1.11,2.25,2.25,0,0,1-.78,1.73,2.29,2.29,0,0,1,1.19.9,2.68,2.68,0,0,1-.34,3.37,2.58,2.58,0,0,1-1.06.66,6.18,6.18,0,0,1-1.62.18h-2.17Zm1.43-5.42h0.45a1.65,1.65,0,0,0,1.17-.35,1.37,1.37,0,0,0,.37-1,1.31,1.31,0,0,0-.38-1,1.59,1.59,0,0,0-1.11-.35h-0.5v2.76Zm0,4.07H199a2.2,2.2,0,0,0,1.43-.38,1.32,1.32,0,0,0,.48-1,1.34,1.34,0,0,0-.46-1,2.39,2.39,0,0,0-1.61-.41h-0.73v2.87Z"/><path class="cls-5" d="M208.26,281.23h1.39v6h-1.39V286.6a2.66,2.66,0,0,1-3.89-.1,3.34,3.34,0,0,1-.81-2.29,3.24,3.24,0,0,1,.81-2.25,2.6,2.6,0,0,1,2-.9,2.55,2.55,0,0,1,1.88.86v-0.7Zm-3.29,3a2.09,2.09,0,0,0,.46,1.4,1.51,1.51,0,0,0,1.19.55,1.59,1.59,0,0,0,1.24-.53,2.28,2.28,0,0,0,0-2.78,1.56,1.56,0,0,0-1.23-.54,1.53,1.53,0,0,0-1.19.54A2,2,0,0,0,205,284.21Z"/><path class="cls-5" d="M214.88,282.26l-1.14.61a0.79,0.79,0,0,0-.67-0.55,0.46,0.46,0,0,0-.33.13,0.42,0.42,0,0,0-.14.32,1,1,0,0,0,.8.68,4.76,4.76,0,0,1,1.48.87,1.49,1.49,0,0,1,.38,1.08,1.88,1.88,0,0,1-.64,1.45,2.3,2.3,0,0,1-3.64-.92l1.18-.55a2.59,2.59,0,0,0,.38.55,0.86,0.86,0,0,0,.6.23,0.59,0.59,0,0,0,.7-0.64,0.88,0.88,0,0,0-.54-0.69l-0.42-.2-0.42-.2a2.61,2.61,0,0,1-.85-0.59,1.45,1.45,0,0,1-.31-1,1.71,1.71,0,0,1,.54-1.29,1.88,1.88,0,0,1,1.33-.51A1.81,1.81,0,0,1,214.88,282.26Z"/><path class="cls-5" d="M222,284.56h-4.29a1.82,1.82,0,0,0,.48,1.17,1.46,1.46,0,0,0,1.09.43,1.42,1.42,0,0,0,.85-0.25,3.51,3.51,0,0,0,.76-0.91l1.17,0.65a4.72,4.72,0,0,1-.57.79,3,3,0,0,1-.65.54,2.62,2.62,0,0,1-.74.31,3.63,3.63,0,0,1-.87.1,2.82,2.82,0,0,1-2.15-.86,3.23,3.23,0,0,1-.81-2.3,3.32,3.32,0,0,1,.79-2.3,3,3,0,0,1,4.2,0,3.32,3.32,0,0,1,.76,2.32v0.33Zm-1.42-1.13a1.33,1.33,0,0,0-1.4-1.11,1.45,1.45,0,0,0-.47.08,1.39,1.39,0,0,0-.4.22,1.41,1.41,0,0,0-.31.35,1.6,1.6,0,0,0-.2.46h2.78Z"/><path class="cls-5" d="M224.86,276.84v10.39h-1.38V276.84h1.38Z"/><path class="cls-5" d="M228,276.84v10.39h-1.38V276.84H228Z"/><path class="cls-5" d="M234.17,281.23h1.39v6h-1.39V286.6a2.66,2.66,0,0,1-3.89-.1,3.34,3.34,0,0,1-.81-2.29,3.24,3.24,0,0,1,.81-2.25,2.6,2.6,0,0,1,2-.9,2.55,2.55,0,0,1,1.88.86v-0.7Zm-3.29,3a2.08,2.08,0,0,0,.46,1.4,1.51,1.51,0,0,0,1.19.55,1.59,1.59,0,0,0,1.24-.53,2.28,2.28,0,0,0,0-2.78,1.56,1.56,0,0,0-1.23-.54,1.53,1.53,0,0,0-1.19.54A2,2,0,0,0,230.88,284.21Z"/><path class="cls-5" d="M237.31,281.23h1.39v0.55a2.27,2.27,0,0,1,1.64-.72,2.07,2.07,0,0,1,1.63.66,2.7,2.7,0,0,1,.5,1.83v3.67h-1.39v-3.34a2.19,2.19,0,0,0-.25-1.22,1,1,0,0,0-.87-0.34,1.07,1.07,0,0,0-1,.45,3.13,3.13,0,0,0-.28,1.57v2.89h-1.39v-6Z"/><path class="cls-5" d="M248.63,276.84H250v10.39h-1.39V286.6a2.58,2.58,0,0,1-1.85.8,2.64,2.64,0,0,1-2-.9,3.34,3.34,0,0,1-.81-2.29,3.23,3.23,0,0,1,.81-2.24,2.59,2.59,0,0,1,3.89,0v-5.09Zm-3.29,7.38a2.08,2.08,0,0,0,.46,1.4,1.51,1.51,0,0,0,1.19.55,1.59,1.59,0,0,0,1.24-.53,2.28,2.28,0,0,0,0-2.78,1.56,1.56,0,0,0-1.23-.54,1.53,1.53,0,0,0-1.19.54A2,2,0,0,0,245.35,284.21Z"/><rect class="cls-10" x="173.7" y="103.35" width="46.91" height="160.78"/><g class="cls-13"><line class="cls-12" x1="225.16" y1="308.72" x2="304.35" y2="229.52"/><line class="cls-12" x1="225.16" y1="300.32" x2="304.35" y2="221.12"/><line class="cls-12" x1="225.16" y1="291.92" x2="304.35" y2="212.72"/><line class="cls-12" x1="225.16" y1="283.52" x2="304.35" y2="204.32"/><line class="cls-12" x1="225.16" y1="275.12" x2="304.35" y2="195.92"/><line class="cls-12" x1="225.16" y1="266.72" x2="304.35" y2="187.52"/><line class="cls-12" x1="225.16" y1="258.32" x2="304.35" y2="179.12"/><line class="cls-12" x1="225.16" y1="249.92" x2="304.35" y2="170.72"/><line class="cls-12" x1="225.16" y1="241.52" x2="304.35" y2="162.32"/><line class="cls-12" x1="225.16" y1="233.12" x2="304.35" y2="153.92"/><line class="cls-12" x1="225.16" y1="224.72" x2="304.35" y2="145.52"/><line class="cls-12" x1="225.16" y1="216.32" x2="304.35" y2="137.12"/><line class="cls-12" x1="225.16" y1="207.92" x2="304.35" y2="128.72"/><line class="cls-12" x1="225.16" y1="199.52" x2="304.35" y2="120.32"/><line class="cls-12" x1="225.16" y1="191.12" x2="304.35" y2="111.92"/><line class="cls-12" x1="225.16" y1="182.72" x2="304.35" y2="103.52"/><line class="cls-12" x1="225.16" y1="174.32" x2="304.35" y2="95.12"/><line class="cls-12" x1="225.16" y1="165.92" x2="304.35" y2="86.72"/><line class="cls-12" x1="225.16" y1="157.52" x2="304.35" y2="78.32"/><line class="cls-12" x1="225.16" y1="149.12" x2="304.35" y2="69.92"/><line class="cls-12" x1="225.16" y1="140.72" x2="304.35" y2="61.52"/><line class="cls-12" x1="225.16" y1="132.32" x2="304.35" y2="53.12"/><line class="cls-12" x1="225.16" y1="123.92" x2="304.35" y2="44.72"/></g><path class="cls-5" d="M338.09,279.14l-1.16.69a2,2,0,0,0-.62-0.74,1.66,1.66,0,0,0-1.78.14,1.05,1.05,0,0,0-.39.84,1.32,1.32,0,0,0,1,1.12l0.95,0.39a4.05,4.05,0,0,1,1.69,1.14,2.57,2.57,0,0,1,.54,1.65,2.91,2.91,0,0,1-.87,2.17,3,3,0,0,1-2.18.86,2.91,2.91,0,0,1-2-.74,3.38,3.38,0,0,1-1-2.06l1.45-.32a2.47,2.47,0,0,0,.34,1.16,1.64,1.64,0,0,0,2.41.17,1.55,1.55,0,0,0,.44-1.14,1.59,1.59,0,0,0-.08-0.51,1.27,1.27,0,0,0-.24-0.42,1.94,1.94,0,0,0-.42-0.36,4.16,4.16,0,0,0-.62-0.32l-0.92-.38a2.64,2.64,0,0,1-2-2.41,2.28,2.28,0,0,1,.82-1.79,3,3,0,0,1,2-.73A2.84,2.84,0,0,1,338.09,279.14Z"/><path class="cls-5" d="M344.47,281.49v1.84a3.37,3.37,0,0,0-.85-0.79,1.66,1.66,0,0,0-.87-0.22,1.71,1.71,0,0,0-1.3.55,1.92,1.92,0,0,0-.52,1.37,2,2,0,0,0,.5,1.38,1.68,1.68,0,0,0,1.29.54,1.76,1.76,0,0,0,.88-0.21,3.48,3.48,0,0,0,.87-0.81V287a3.64,3.64,0,0,1-1.69.44,3.23,3.23,0,0,1-2.33-.9,3,3,0,0,1-.93-2.25,3,3,0,0,1,.95-2.26,3.21,3.21,0,0,1,2.33-.92A3.49,3.49,0,0,1,344.47,281.49Z"/><path class="cls-5" d="M346.14,276.84h1.38v4.9a2.38,2.38,0,0,1,1.63-.66,2.1,2.1,0,0,1,1.62.66,2.68,2.68,0,0,1,.52,1.83v3.67h-1.38v-3.54a1.69,1.69,0,0,0-.25-1,1,1,0,0,0-.82-0.32,1.13,1.13,0,0,0-1,.45,3.09,3.09,0,0,0-.29,1.56v2.9h-1.38V276.84Z"/><path class="cls-5" d="M353.8,281.23l1.57,3.42,1.69-4,1.7,4,1.55-3.42h1.55l-3.14,6.44-1.67-3.86-1.69,3.86-3.13-6.44h1.56Z"/><path class="cls-5" d="M368.06,284.56h-4.29a1.82,1.82,0,0,0,.48,1.17,1.46,1.46,0,0,0,1.09.43,1.42,1.42,0,0,0,.86-0.25,3.51,3.51,0,0,0,.76-0.91l1.17,0.65a4.69,4.69,0,0,1-.57.79,3,3,0,0,1-.65.54,2.61,2.61,0,0,1-.74.31,3.64,3.64,0,0,1-.87.1,2.82,2.82,0,0,1-2.15-.86,3.23,3.23,0,0,1-.81-2.3,3.32,3.32,0,0,1,.79-2.3,3,3,0,0,1,4.2,0,3.31,3.31,0,0,1,.76,2.32v0.33Zm-1.42-1.13a1.33,1.33,0,0,0-1.4-1.11,1.45,1.45,0,0,0-.47.08,1.37,1.37,0,0,0-.4.22,1.44,1.44,0,0,0-.31.35,1.62,1.62,0,0,0-.2.46h2.78Z"/><path class="cls-5" d="M369.37,278.74a0.9,0.9,0,0,1,.9-0.89,0.87,0.87,0,0,1,.64.26,0.85,0.85,0,0,1,.26.63,0.87,0.87,0,0,1-.26.64,0.85,0.85,0,0,1-.63.26A0.9,0.9,0,0,1,369.37,278.74Zm1.59,2.49v6h-1.38v-6H371Z"/><path class="cls-5" d="M374.7,285.92h3.56v1.3H372l3.88-4.7h-3.06v-1.29h5.79Z"/><rect class="cls-10" x="305.62" y="115.53" width="46.91" height="148.6"/><g class="cls-14"><line class="cls-12" x1="356.99" y1="307.32" x2="436.19" y2="228.12"/><line class="cls-12" x1="356.99" y1="298.92" x2="436.19" y2="219.72"/><line class="cls-12" x1="356.99" y1="290.52" x2="436.19" y2="211.32"/><line class="cls-12" x1="356.99" y1="282.12" x2="436.19" y2="202.92"/><line class="cls-12" x1="356.99" y1="273.72" x2="436.19" y2="194.52"/><line class="cls-12" x1="356.99" y1="265.32" x2="436.19" y2="186.12"/><line class="cls-12" x1="356.99" y1="256.92" x2="436.19" y2="177.72"/><line class="cls-12" x1="356.99" y1="248.52" x2="436.19" y2="169.32"/><line class="cls-12" x1="356.99" y1="240.12" x2="436.19" y2="160.92"/><line class="cls-12" x1="356.99" y1="231.72" x2="436.19" y2="152.52"/><line class="cls-12" x1="356.99" y1="223.32" x2="436.19" y2="144.12"/><line class="cls-12" x1="356.99" y1="214.92" x2="436.19" y2="135.72"/><line class="cls-12" x1="356.99" y1="206.52" x2="436.19" y2="127.32"/><line class="cls-12" x1="356.99" y1="198.12" x2="436.19" y2="118.92"/><line class="cls-12" x1="356.99" y1="189.72" x2="436.19" y2="110.52"/><line class="cls-12" x1="356.99" y1="181.32" x2="436.19" y2="102.12"/><line class="cls-12" x1="356.99" y1="172.92" x2="436.19" y2="93.72"/><line class="cls-12" x1="356.99" y1="164.52" x2="436.19" y2="85.32"/><line class="cls-12" x1="356.99" y1="156.12" x2="436.19" y2="76.92"/><line class="cls-12" x1="356.99" y1="147.72" x2="436.19" y2="68.52"/><line class="cls-12" x1="356.99" y1="139.32" x2="436.19" y2="60.12"/></g><path class="cls-5" d="M78.12,14.07l-1.38.82A2.39,2.39,0,0,0,76,14a2,2,0,0,0-2.12.17,1.25,1.25,0,0,0-.47,1,1.57,1.57,0,0,0,1.23,1.33L75.76,17a4.8,4.8,0,0,1,2,1.36,3.06,3.06,0,0,1,.64,2,3.46,3.46,0,0,1-1,2.58,3.57,3.57,0,0,1-2.6,1A3.46,3.46,0,0,1,72.34,23a4,4,0,0,1-1.18-2.46l1.73-.38a2.94,2.94,0,0,0,.41,1.38,1.95,1.95,0,0,0,2.86.2,1.84,1.84,0,0,0,.53-1.35,1.91,1.91,0,0,0-.09-0.6,1.54,1.54,0,0,0-.29-0.51,2.3,2.3,0,0,0-.5-0.43,4.88,4.88,0,0,0-.73-0.38L74,18q-2.32-1-2.32-2.87a2.72,2.72,0,0,1,1-2.13,3.52,3.52,0,0,1,2.42-.86A3.39,3.39,0,0,1,78.12,14.07Z"/><path class="cls-5" d="M85.41,16.56h1.66V23.7H85.41V23a3.17,3.17,0,0,1-4.64-.12,4,4,0,0,1-1-2.72,3.85,3.85,0,0,1,1-2.67,3.09,3.09,0,0,1,2.4-1.07,3,3,0,0,1,2.23,1V16.56ZM81.5,20.11a2.48,2.48,0,0,0,.55,1.67,1.8,1.8,0,0,0,1.42.65A1.89,1.89,0,0,0,85,21.8a2.71,2.71,0,0,0,0-3.31,1.86,1.86,0,0,0-1.46-.64,1.82,1.82,0,0,0-1.42.64A2.38,2.38,0,0,0,81.5,20.11Z"/><path class="cls-5" d="M89.15,16.56H90.8v0.66a2.7,2.7,0,0,1,1.95-.86,2.46,2.46,0,0,1,1.94.78,3.21,3.21,0,0,1,.6,2.17V23.7H93.64v-4a2.6,2.6,0,0,0-.29-1.46,1.18,1.18,0,0,0-1-.41,1.27,1.27,0,0,0-1.17.54,3.72,3.72,0,0,0-.34,1.87V23.7H89.15V16.56Z"/><path class="cls-5" d="M97.12,13.6a1.07,1.07,0,0,1,1.07-1.06,1,1,0,0,1,.76.31,1,1,0,0,1,.32.75,1,1,0,0,1-.32.76,1,1,0,0,1-.75.32A1.08,1.08,0,0,1,97.12,13.6Zm1.9,3V23.7H97.37V16.56H99Z"/><path class="cls-5" d="M107.61,20.52h-5.11a2.17,2.17,0,0,0,.57,1.4,1.74,1.74,0,0,0,1.3.51,1.68,1.68,0,0,0,1-.29,4.15,4.15,0,0,0,.9-1.08l1.39,0.78a5.6,5.6,0,0,1-.68.94,3.62,3.62,0,0,1-.77.64,3.07,3.07,0,0,1-.89.37,4.31,4.31,0,0,1-1,.12,3.36,3.36,0,0,1-2.56-1,3.85,3.85,0,0,1-1-2.74,4,4,0,0,1,.94-2.74,3.57,3.57,0,0,1,5,0,4,4,0,0,1,.91,2.76v0.39Zm-1.69-1.35a1.58,1.58,0,0,0-1.66-1.32,1.69,1.69,0,0,0-.56.09,1.59,1.59,0,0,0-.48.26,1.67,1.67,0,0,0-.37.41,1.94,1.94,0,0,0-.23.55h3.31Z"/><path class="cls-5" d="M109.41,16.56h1.65V17.2a3.15,3.15,0,0,1,.81-0.65,1.84,1.84,0,0,1,.85-0.18,2.66,2.66,0,0,1,1.36.43l-0.75,1.51A1.58,1.58,0,0,0,112.4,18q-1.35,0-1.35,2v3.7h-1.65V16.56Z"/><path class="cls-5" d="M116.89,16.56v4.09q0,1.77,1.4,1.77t1.4-1.77V16.56h1.65v4.13a4.62,4.62,0,0,1-.21,1.48,2.5,2.5,0,0,1-.71,1,3.46,3.46,0,0,1-4.24,0,2.52,2.52,0,0,1-.73-1,4.08,4.08,0,0,1-.21-1.48V16.56h1.65Z"/><path class="cls-5" d="M123.42,16.56h1.66v0.66a2.7,2.7,0,0,1,1.95-.86,2.46,2.46,0,0,1,1.94.78,3.21,3.21,0,0,1,.6,2.17V23.7h-1.66v-4a2.6,2.6,0,0,0-.29-1.46,1.18,1.18,0,0,0-1-.41,1.27,1.27,0,0,0-1.17.54,3.72,3.72,0,0,0-.34,1.87V23.7h-1.66V16.56Z"/><path class="cls-5" d="M138.54,23.53q0,0.5,0,.89a6.06,6.06,0,0,1-.09.68,3,3,0,0,1-.69,1.38,3.34,3.34,0,0,1-2.66,1.11,3.54,3.54,0,0,1-2.35-.77,3.16,3.16,0,0,1-1.1-2.19h1.66a1.86,1.86,0,0,0,.31.81,1.77,1.77,0,0,0,1.49.67q1.81,0,1.81-2.21v-1a3.07,3.07,0,0,1-2.26,1,3,3,0,0,1-2.39-1.05,3.91,3.91,0,0,1-.94-2.67,4.11,4.11,0,0,1,.87-2.65,3,3,0,0,1,2.48-1.16,2.87,2.87,0,0,1,2.24,1V16.56h1.65v7ZM137,20.15a2.4,2.4,0,0,0-.56-1.66,1.84,1.84,0,0,0-1.44-.64,1.77,1.77,0,0,0-1.48.69,2.52,2.52,0,0,0-.49,1.61,2.49,2.49,0,0,0,.49,1.59,1.78,1.78,0,0,0,1.48.68,1.81,1.81,0,0,0,1.49-.69A2.44,2.44,0,0,0,137,20.15Z"/><path class="cls-5" d="M151.38,17.81h4.67v0.37a7.71,7.71,0,0,1-.3,2.26,4.8,4.8,0,0,1-1,1.7,5.12,5.12,0,0,1-4,1.77,5.51,5.51,0,0,1-4.07-1.71A5.68,5.68,0,0,1,145,18.06a5.88,5.88,0,0,1,5.91-5.9,5.77,5.77,0,0,1,2.48.54,7.13,7.13,0,0,1,2.16,1.75l-1.22,1.17a4.13,4.13,0,0,0-3.39-1.85,4,4,0,0,0-3,1.24,4.13,4.13,0,0,0-1.22,3,4.25,4.25,0,0,0,4.1,4.25,3.41,3.41,0,0,0,2.26-.85,3,3,0,0,0,1.12-2h-2.82v-1.6Z"/><path class="cls-5" d="M157.55,20.08a3.55,3.55,0,0,1,1.11-2.63,3.9,3.9,0,0,1,5.41,0,3.82,3.82,0,0,1,0,5.37,3.78,3.78,0,0,1-2.73,1.08,3.63,3.63,0,0,1-2.69-1.1A3.69,3.69,0,0,1,157.55,20.08Zm1.68,0a2.41,2.41,0,0,0,.57,1.69,2.22,2.22,0,0,0,3.09,0,2.34,2.34,0,0,0,.58-1.66,2.35,2.35,0,0,0-.58-1.66,2.19,2.19,0,0,0-3.08,0A2.29,2.29,0,0,0,159.23,20.11Z"/><path class="cls-5" d="M168.69,18.1v5.6H167V18.1h-0.7V16.56H167V13.95h1.65v2.61H170V18.1h-1.28Z"/><path class="cls-5" d="M172.79,18.1v5.6h-1.65V18.1h-0.7V16.56h0.7V13.95h1.65v2.61h1.28V18.1h-1.28Z"/><path class="cls-5" d="M180.58,16.56h1.66V23.7h-1.66V23a3.17,3.17,0,0,1-4.64-.12,4,4,0,0,1-1-2.72,3.85,3.85,0,0,1,1-2.67,3.09,3.09,0,0,1,2.4-1.07,3,3,0,0,1,2.23,1V16.56Zm-3.91,3.54a2.48,2.48,0,0,0,.55,1.67,1.8,1.8,0,0,0,1.42.65,1.89,1.89,0,0,0,1.48-.63,2.71,2.71,0,0,0,0-3.31,1.86,1.86,0,0,0-1.46-.64,1.82,1.82,0,0,0-1.42.64A2.38,2.38,0,0,0,176.67,20.11Z"/><path class="cls-5" d="M184.32,16.56H186V17.2a3.15,3.15,0,0,1,.81-0.65,1.84,1.84,0,0,1,.85-0.18,2.66,2.66,0,0,1,1.36.43l-0.75,1.51a1.58,1.58,0,0,0-.92-0.34Q186,18,186,20v3.7h-1.65V16.56Z"/><path class="cls-5" d="M195.09,11.33h1.66V23.7h-1.66V23a3.08,3.08,0,0,1-2.21,1,3.14,3.14,0,0,1-2.43-1.07,4,4,0,0,1-1-2.72,3.84,3.84,0,0,1,1-2.67,3.08,3.08,0,0,1,4.64-.05V11.33Zm-3.91,8.78a2.48,2.48,0,0,0,.55,1.67,1.8,1.8,0,0,0,1.42.65,1.89,1.89,0,0,0,1.48-.63,2.71,2.71,0,0,0,0-3.31,1.86,1.86,0,0,0-1.46-.64,1.82,1.82,0,0,0-1.42.64A2.38,2.38,0,0,0,191.17,20.11Z"/><path class="cls-5" d="M197.78,19.35H201v1.44h-3.27V19.35Z"/><path class="cls-5" d="M208.8,14.07l-1.38.82a2.39,2.39,0,0,0-.74-0.88,2,2,0,0,0-2.12.17,1.25,1.25,0,0,0-.47,1,1.57,1.57,0,0,0,1.23,1.33L206.44,17a4.8,4.8,0,0,1,2,1.36,3.06,3.06,0,0,1,.64,2,3.46,3.46,0,0,1-1,2.58,3.57,3.57,0,0,1-2.6,1A3.46,3.46,0,0,1,203,23a4,4,0,0,1-1.18-2.46l1.73-.38a2.94,2.94,0,0,0,.41,1.38,1.95,1.95,0,0,0,2.86.2,1.84,1.84,0,0,0,.53-1.35,1.91,1.91,0,0,0-.09-0.6A1.54,1.54,0,0,0,207,19.3a2.3,2.3,0,0,0-.5-0.43,4.88,4.88,0,0,0-.73-0.38L204.66,18q-2.32-1-2.32-2.87a2.72,2.72,0,0,1,1-2.13,3.52,3.52,0,0,1,2.42-.86A3.39,3.39,0,0,1,208.8,14.07Z"/><path class="cls-5" d="M212.79,18.1v5.6h-1.65V18.1h-0.7V16.56h0.7V13.95h1.65v2.61h1.28V18.1h-1.28Z"/><path class="cls-5" d="M215.19,16.56h1.65V17.2a3.15,3.15,0,0,1,.81-0.65,1.84,1.84,0,0,1,.85-0.18,2.66,2.66,0,0,1,1.36.43L219.1,18.3a1.58,1.58,0,0,0-.92-0.34q-1.35,0-1.35,2v3.7h-1.65V16.56Z"/><path class="cls-5" d="M226,16.56h1.66V23.7H226V23a3.17,3.17,0,0,1-4.64-.12,4,4,0,0,1-1-2.72,3.85,3.85,0,0,1,1-2.67,3.09,3.09,0,0,1,2.4-1.07,3,3,0,0,1,2.23,1V16.56ZM222,20.11a2.48,2.48,0,0,0,.55,1.67,1.8,1.8,0,0,0,1.42.65,1.89,1.89,0,0,0,1.48-.63,2.71,2.71,0,0,0,0-3.31,1.86,1.86,0,0,0-1.46-.64,1.82,1.82,0,0,0-1.42.64A2.38,2.38,0,0,0,222,20.11Z"/><path class="cls-5" d="M233.84,17.78l-1.36.72a0.94,0.94,0,0,0-.8-0.65,0.55,0.55,0,0,0-.39.15,0.5,0.5,0,0,0-.16.38,1.24,1.24,0,0,0,1,.81,5.69,5.69,0,0,1,1.77,1,1.78,1.78,0,0,1,.45,1.28,2.24,2.24,0,0,1-.76,1.73,2.73,2.73,0,0,1-4.33-1.09l1.41-.65a3,3,0,0,0,.45.65,1,1,0,0,0,.72.28,0.71,0.71,0,0,0,.84-0.76,1,1,0,0,0-.64-0.82l-0.5-.24L231,20.37a3.09,3.09,0,0,1-1-.7,1.73,1.73,0,0,1-.37-1.15,2,2,0,0,1,.64-1.54,2.24,2.24,0,0,1,1.58-.61A2.16,2.16,0,0,1,233.84,17.78Z"/><path class="cls-5" d="M239.92,17.78l-1.36.72a0.94,0.94,0,0,0-.8-0.65,0.55,0.55,0,0,0-.39.15,0.5,0.5,0,0,0-.16.38,1.24,1.24,0,0,0,1,.81,5.69,5.69,0,0,1,1.77,1,1.78,1.78,0,0,1,.45,1.28,2.24,2.24,0,0,1-.76,1.73,2.73,2.73,0,0,1-4.33-1.09l1.41-.65a3,3,0,0,0,.45.65,1,1,0,0,0,.72.28,0.71,0.71,0,0,0,.84-0.76,1,1,0,0,0-.64-0.82l-0.5-.24-0.51-.24a3.09,3.09,0,0,1-1-.7,1.73,1.73,0,0,1-.37-1.15,2,2,0,0,1,.64-1.54,2.24,2.24,0,0,1,1.58-.61A2.16,2.16,0,0,1,239.92,17.78Z"/><path class="cls-5" d="M248.36,20.52h-5.11a2.17,2.17,0,0,0,.57,1.4,1.74,1.74,0,0,0,1.3.51,1.68,1.68,0,0,0,1-.29,4.15,4.15,0,0,0,.9-1.08l1.39,0.78a5.6,5.6,0,0,1-.68.94,3.62,3.62,0,0,1-.77.64,3.07,3.07,0,0,1-.89.37,4.31,4.31,0,0,1-1,.12,3.36,3.36,0,0,1-2.56-1,3.85,3.85,0,0,1-1-2.74,4,4,0,0,1,.94-2.74,3.57,3.57,0,0,1,5,0,4,4,0,0,1,.91,2.76v0.39Zm-1.69-1.35A1.58,1.58,0,0,0,245,17.85a1.69,1.69,0,0,0-.56.09,1.59,1.59,0,0,0-.48.26,1.67,1.67,0,0,0-.37.41,1.94,1.94,0,0,0-.23.55h3.31Z"/><path class="cls-5" d="M250.16,16.56h1.66v0.66a2.7,2.7,0,0,1,1.95-.86,2.46,2.46,0,0,1,1.94.78,3.21,3.21,0,0,1,.6,2.17V23.7h-1.66v-4a2.6,2.6,0,0,0-.29-1.46,1.18,1.18,0,0,0-1-.41,1.27,1.27,0,0,0-1.17.54,3.72,3.72,0,0,0-.34,1.87V23.7h-1.66V16.56Z"/><path class="cls-5" d="M260.09,18.1v5.6h-1.65V18.1h-0.7V16.56h0.7V13.95h1.65v2.61h1.28V18.1h-1.28Z"/><path class="cls-5" d="M264.14,16.56v4.09q0,1.77,1.4,1.77t1.4-1.77V16.56h1.65v4.13a4.62,4.62,0,0,1-.21,1.48,2.5,2.5,0,0,1-.71,1,3.46,3.46,0,0,1-4.24,0,2.52,2.52,0,0,1-.73-1,4.08,4.08,0,0,1-.21-1.48V16.56h1.65Z"/><path class="cls-5" d="M270.66,16.56h1.66v0.66a2.7,2.7,0,0,1,1.95-.86,2.46,2.46,0,0,1,1.94.78,3.21,3.21,0,0,1,.6,2.17V23.7h-1.66v-4a2.6,2.6,0,0,0-.29-1.46,1.18,1.18,0,0,0-1-.41,1.27,1.27,0,0,0-1.17.54,3.72,3.72,0,0,0-.34,1.87V23.7h-1.66V16.56Z"/><path class="cls-5" d="M278.89,16.56h1.66v0.66a2.7,2.7,0,0,1,1.95-.86,2.46,2.46,0,0,1,1.94.78,3.21,3.21,0,0,1,.6,2.17V23.7h-1.66v-4a2.6,2.6,0,0,0-.29-1.46,1.18,1.18,0,0,0-1-.41,1.27,1.27,0,0,0-1.17.54,3.72,3.72,0,0,0-.34,1.87V23.7h-1.66V16.56Z"/><path class="cls-5" d="M293.61,20.52H288.5a2.17,2.17,0,0,0,.57,1.4,1.74,1.74,0,0,0,1.3.51,1.68,1.68,0,0,0,1-.29,4.15,4.15,0,0,0,.9-1.08l1.39,0.78a5.6,5.6,0,0,1-.68.94,3.62,3.62,0,0,1-.77.64,3.07,3.07,0,0,1-.89.37,4.31,4.31,0,0,1-1,.12,3.36,3.36,0,0,1-2.56-1,3.85,3.85,0,0,1-1-2.74,4,4,0,0,1,.94-2.74,3.57,3.57,0,0,1,5,0,4,4,0,0,1,.91,2.76v0.39Zm-1.69-1.35a1.58,1.58,0,0,0-1.66-1.32,1.69,1.69,0,0,0-.56.09,1.59,1.59,0,0,0-.48.26,1.67,1.67,0,0,0-.37.41,1.94,1.94,0,0,0-.23.55h3.31Z"/><path class="cls-5" d="M297.06,11.33V23.7h-1.65V11.33h1.65Z"/><path class="cls-5" d="M305.69,11.2l1.52,0.59a18.77,18.77,0,0,0-1.12,3.53,16.6,16.6,0,0,0-.24,1.72q-0.08.91-.08,2t0.08,2a16.53,16.53,0,0,0,.24,1.72,18.14,18.14,0,0,0,1.12,3.52l-1.52.59a17.89,17.89,0,0,1-1.6-7.81A17.9,17.9,0,0,1,305.69,11.2Z"/><path class="cls-5" d="M312,22.09h4.21v1.6h-7.6l3.93-4.75q0.58-.71,1-1.23a9.35,9.35,0,0,0,.6-0.87,2.46,2.46,0,0,0,.42-1.24,1.76,1.76,0,0,0-.56-1.33,1.91,1.91,0,0,0-1.38-.53q-1.71,0-2,2h-1.7q0.41-3.57,3.61-3.57a3.65,3.65,0,0,1,2.59,1,3.19,3.19,0,0,1,1.05,2.43,3.69,3.69,0,0,1-.49,1.81,8.88,8.88,0,0,1-.73,1.1q-0.48.63-1.21,1.5Z"/><path class="cls-5" d="M318.12,18a6.82,6.82,0,0,1,1.26-4.31,3.29,3.29,0,0,1,5.46,0A7,7,0,0,1,326.11,18a6.94,6.94,0,0,1-1.26,4.38,3.36,3.36,0,0,1-2.72,1.46,3.39,3.39,0,0,1-2.74-1.46A7.06,7.06,0,0,1,318.12,18Zm1.69,0a6.71,6.71,0,0,0,.65,3.13,1.74,1.74,0,0,0,3.32,0,6.4,6.4,0,0,0,.66-3.07,6.45,6.45,0,0,0-.66-3.08,1.74,1.74,0,0,0-3.31,0A6.26,6.26,0,0,0,319.81,18Z"/><path class="cls-5" d="M329.65,14h-2l0.94-1.6h2.72V23.7h-1.71V14Z"/><path class="cls-5" d="M339.41,12l1.25,0.94L338,16.61l0.37,0h0.24A3.18,3.18,0,0,1,341,17.6a3.49,3.49,0,0,1,1,2.5,3.79,3.79,0,0,1-3.77,3.77,3.81,3.81,0,0,1-2.7-1.09,3.47,3.47,0,0,1-1.13-2.59,4.87,4.87,0,0,1,1.11-2.84Zm0.88,8.23a2.14,2.14,0,1,0-2.13,2.11A2.14,2.14,0,0,0,340.29,20.22Z"/><path class="cls-5" d="M345.32,26.83l-1.52-.59a18.14,18.14,0,0,0,1.12-3.52,18.61,18.61,0,0,0,.33-3.71,18.66,18.66,0,0,0-.33-3.7,18.77,18.77,0,0,0-1.12-3.53l1.52-.59a18,18,0,0,1,1.6,7.82A18,18,0,0,1,345.32,26.83Z"/></svg>