<svg id="Charts" xmlns="http://www.w3.org/2000/svg" xmlns:xlink="http://www.w3.org/1999/xlink" viewBox="0 0 517.57 430.74"><defs><style>.cls-1,.cls-14,.cls-2,.cls-5,.cls-6,.cls-8{fill:none;}.cls-12,.cls-14,.cls-2,.cls-5,.cls-6,.cls-8,.cls-9{stroke:#fff;stroke-miterlimit:10;}.cls-12,.cls-2{stroke-width:0.94px;}.cls-12,.cls-3,.cls-9{fill:#fff;}.cls-12,.cls-4,.cls-6,.cls-9{opacity:0.4;}.cls-7{clip-path:url(#clip-path);}.cls-8{stroke-width:1.57px;}.cls-9{stroke-width:1.85px;}.cls-10{clip-path:url(#clip-path-2);}.cls-11{clip-path:url(#clip-path-3);}.cls-13{clip-path:url(#clip-path-4);}.cls-14{stroke-width:0.75px;}</style><clipPath id="clip-path"><rect class="cls-1" x="127.1" y="139.69" width="65.67" height="227.36"/></clipPath><clipPath id="clip-path-2"><rect class="cls-1" x="282.55" y="157.88" width="65.67" height="209.17"/></clipPath><clipPath id="clip-path-3"><rect class="cls-1" x="438" y="166.97" width="65.67" height="200.08"/></clipPath><clipPath id="clip-path-4"><rect class="cls-2" x="269" y="48.5" width="14.11" height="14.11"/></clipPath></defs><title>Charts_</title><path class="cls-3" d="M7.07,86.06l1.5,1.13L5.33,91.6l0.45-.05,0.29,0a3.81,3.81,0,0,1,2.86,1.27,4.19,4.19,0,0,1,1.2,3A4.36,4.36,0,0,1,8.78,99a4.35,4.35,0,0,1-3.19,1.33A4.57,4.57,0,0,1,2.36,99,4.16,4.16,0,0,1,1,95.91,5.84,5.84,0,0,1,2.32,92.5Zm1.05,9.87a2.57,2.57,0,0,0-2.57-2.58,2.56,2.56,0,1,0,0,5.12,2.46,2.46,0,0,0,1.8-.75A2.44,2.44,0,0,0,8.12,95.93Z"/><path class="cls-3" d="M11.87,93.23a8.18,8.18,0,0,1,1.51-5.18,3.95,3.95,0,0,1,6.56,0,9.91,9.91,0,0,1,0,10.52,4,4,0,0,1-3.27,1.75,4.07,4.07,0,0,1-3.29-1.75A8.47,8.47,0,0,1,11.87,93.23Zm2,0A8,8,0,0,0,14.68,97a2.29,2.29,0,0,0,2,1.47,2.3,2.3,0,0,0,2-1.47,9,9,0,0,0,0-7.37,2.3,2.3,0,0,0-2-1.46,2.3,2.3,0,0,0-2,1.46A7.5,7.5,0,0,0,13.9,93.24Z"/><path class="cls-3" d="M9.47,133.74H5.28L4.61,136l0.29,0H5.15a4.27,4.27,0,0,1,3.24,1.34,5.11,5.11,0,0,1-.17,6.93A5,5,0,0,1,4.6,145.6a4.78,4.78,0,0,1-4.25-2.53l1.55-1.31a4.79,4.79,0,0,0,1.29,1.54,2.78,2.78,0,0,0,1.59.44,2.76,2.76,0,0,0,2.07-.86,3,3,0,0,0,.83-2.15,2.88,2.88,0,0,0-.83-2.13,2.76,2.76,0,0,0-2.07-.85,3,3,0,0,0-2.38,1.2H1.72l2.14-7.14H9.47v1.92Z"/><path class="cls-3" d="M11.87,138.51a8.18,8.18,0,0,1,1.51-5.18,3.95,3.95,0,0,1,6.56,0,9.91,9.91,0,0,1,0,10.52,4,4,0,0,1-3.27,1.75,4.07,4.07,0,0,1-3.29-1.75A8.47,8.47,0,0,1,11.87,138.51Zm2,0a8,8,0,0,0,.78,3.75,2.29,2.29,0,0,0,2,1.47,2.3,2.3,0,0,0,2-1.47,9,9,0,0,0,0-7.37,2.3,2.3,0,0,0-2-1.46,2.3,2.3,0,0,0-2,1.46A7.5,7.5,0,0,0,13.9,138.52Z"/><path class="cls-3" d="M8.88,187h1.44v1.86H8.88v1.92h-2v-1.92H0.17l8.71-12.66V187Zm-2,0V182.5L3.7,187H6.83Z"/><path class="cls-3" d="M11.87,184a8.18,8.18,0,0,1,1.51-5.18,3.95,3.95,0,0,1,6.56,0,9.91,9.91,0,0,1,0,10.52,4,4,0,0,1-3.27,1.75,4.07,4.07,0,0,1-3.29-1.75A8.47,8.47,0,0,1,11.87,184Zm2,0a8,8,0,0,0,.78,3.75,2.29,2.29,0,0,0,2,1.47,2.3,2.3,0,0,0,2-1.47,9,9,0,0,0,0-7.37,2.3,2.3,0,0,0-2-1.46,2.3,2.3,0,0,0-2,1.46A7.5,7.5,0,0,0,13.9,184Z"/><path class="cls-3" d="M4.66,230.22v-1.75a3.57,3.57,0,0,0,1.75-.29,1.79,1.79,0,0,0,.8-1.63,1.85,1.85,0,0,0-.58-1.42,2,2,0,0,0-1.49-.55,1.92,1.92,0,0,0-1.32.41,2.74,2.74,0,0,0-.67,1.42h-2a4.71,4.71,0,0,1,1.3-2.81,4,4,0,0,1,2.75-.89,4.08,4.08,0,0,1,2.91,1.05,3.52,3.52,0,0,1,1.13,2.7,3.34,3.34,0,0,1-1.48,2.9,3.45,3.45,0,0,1,1.7,3.23,3.92,3.92,0,0,1-1.23,3A4.43,4.43,0,0,1,5,236.74a4.05,4.05,0,0,1-3.64-1.8,4.68,4.68,0,0,1-.62-2.09h2a2.4,2.4,0,0,0,.77,1.51,2.36,2.36,0,0,0,1.59.52,2.21,2.21,0,0,0,1.64-.66,2.37,2.37,0,0,0,.65-1.71,2.09,2.09,0,0,0-1-2A3.61,3.61,0,0,0,4.66,230.22Z"/><path class="cls-3" d="M11.87,229.65a8.18,8.18,0,0,1,1.51-5.18,3.95,3.95,0,0,1,6.56,0,9.91,9.91,0,0,1,0,10.52,4,4,0,0,1-3.27,1.75A4.07,4.07,0,0,1,13.39,235,8.47,8.47,0,0,1,11.87,229.65Zm2,0a8,8,0,0,0,.78,3.75,2.29,2.29,0,0,0,2,1.47,2.3,2.3,0,0,0,2-1.47,9,9,0,0,0,0-7.37,2.3,2.3,0,0,0-2-1.46,2.3,2.3,0,0,0-2,1.46A7.5,7.5,0,0,0,13.9,229.66Z"/><path class="cls-3" d="M4.51,280.07H9.56V282H0.45l4.71-5.7q0.69-.85,1.17-1.48a11.4,11.4,0,0,0,.72-1,2.94,2.94,0,0,0,.5-1.49,2.12,2.12,0,0,0-.67-1.59,2.29,2.29,0,0,0-1.65-.64q-2.06,0-2.36,2.43h-2q0.49-4.29,4.33-4.29a4.38,4.38,0,0,1,3.11,1.18,3.83,3.83,0,0,1,1.27,2.92,4.43,4.43,0,0,1-.59,2.17,10.57,10.57,0,0,1-.87,1.31q-0.58.76-1.45,1.8Z"/><path class="cls-3" d="M11.87,275.12a8.18,8.18,0,0,1,1.51-5.18,3.95,3.95,0,0,1,6.56,0,9.91,9.91,0,0,1,0,10.52,4,4,0,0,1-3.27,1.75,4.07,4.07,0,0,1-3.29-1.75A8.47,8.47,0,0,1,11.87,275.12Zm2,0a8,8,0,0,0,.78,3.75,2.29,2.29,0,0,0,2,1.47,2.3,2.3,0,0,0,2-1.47,9,9,0,0,0,0-7.37,2.3,2.3,0,0,0-2-1.46,2.3,2.3,0,0,0-2,1.46A7.5,7.5,0,0,0,13.9,275.13Z"/><path class="cls-3" d="M5.42,315.82H3.07l1.13-1.92H7.47v13.57h-2V315.82Z"/><path class="cls-3" d="M11.33,320.59a8.18,8.18,0,0,1,1.51-5.18,3.95,3.95,0,0,1,6.56,0,9.91,9.91,0,0,1,0,10.52,4,4,0,0,1-3.27,1.75,4.07,4.07,0,0,1-3.29-1.75A8.47,8.47,0,0,1,11.33,320.59Zm2,0a8,8,0,0,0,.78,3.75,2.29,2.29,0,0,0,2,1.47,2.3,2.3,0,0,0,2-1.47,9,9,0,0,0,0-7.37,2.3,2.3,0,0,0-2-1.46,2.3,2.3,0,0,0-2,1.46A7.5,7.5,0,0,0,13.35,320.6Z"/><path class="cls-3" d="M4,13l3.75,9.4L11.58,13h2.24L7.73,27.63,1.78,13H4Z"/><path class="cls-3" d="M13.63,22.27A4.25,4.25,0,0,1,15,19.12a4.68,4.68,0,0,1,6.49,0,4.58,4.58,0,0,1,0,6.44,4.54,4.54,0,0,1-3.28,1.29,4.35,4.35,0,0,1-3.23-1.32A4.43,4.43,0,0,1,13.63,22.27Zm2,0a2.89,2.89,0,0,0,.69,2,2.41,2.41,0,0,0,1.85.76A2.41,2.41,0,0,0,20,24.35a2.81,2.81,0,0,0,.69-2,2.81,2.81,0,0,0-.69-2,2.41,2.41,0,0,0-1.85-.76,2.39,2.39,0,0,0-1.84.76A2.75,2.75,0,0,0,15.65,22.31Z"/><path class="cls-3" d="M26.83,11.77V26.61h-2V11.77h2Z"/><path class="cls-3" d="M31.31,11.77v9.05l2.79-2.77h2.65L33,21.65l4,5H34.46L31.63,23l-0.32.32v3.3h-2V11.77h2Z"/><path class="cls-3" d="M43.27,19.51l-1.63.87a1.13,1.13,0,0,0-1-.78,0.66,0.66,0,0,0-.47.18,0.6,0.6,0,0,0-.19.46,1.49,1.49,0,0,0,1.14,1,6.83,6.83,0,0,1,2.12,1.25A2.13,2.13,0,0,1,43.82,24a2.69,2.69,0,0,1-.91,2.07,3.28,3.28,0,0,1-5.19-1.31L39.4,24a3.67,3.67,0,0,0,.54.78,1.22,1.22,0,0,0,.86.33,0.85,0.85,0,0,0,1-.91,1.25,1.25,0,0,0-.77-1l-0.6-.29-0.61-.29a3.71,3.71,0,0,1-1.21-.84,2.08,2.08,0,0,1-.45-1.38,2.44,2.44,0,0,1,.76-1.85,2.68,2.68,0,0,1,1.9-.73A2.59,2.59,0,0,1,43.27,19.51Z"/><path class="cls-3" d="M45.3,14.49a1.29,1.29,0,0,1,1.28-1.27,1.25,1.25,0,0,1,.91.38,1.22,1.22,0,0,1,.38.91,1.25,1.25,0,0,1-.38.91,1.22,1.22,0,0,1-.91.38A1.29,1.29,0,0,1,45.3,14.49Zm2.28,3.56v8.56h-2V18.05h2Z"/><path class="cls-3" d="M50.08,18.05h2v0.79a3.24,3.24,0,0,1,2.34-1,3,3,0,0,1,2.33.94,3.85,3.85,0,0,1,.72,2.61v5.25h-2V21.84a3.13,3.13,0,0,0-.35-1.75,1.42,1.42,0,0,0-1.25-.49,1.53,1.53,0,0,0-1.4.65,4.47,4.47,0,0,0-.4,2.24v4.13h-2V18.05Z"/><path class="cls-3" d="M59.65,14.49a1.29,1.29,0,0,1,1.28-1.27,1.25,1.25,0,0,1,.91.38,1.22,1.22,0,0,1,.38.91,1.25,1.25,0,0,1-.38.91,1.22,1.22,0,0,1-.91.38A1.29,1.29,0,0,1,59.65,14.49Zm2.28,3.56v8.56H60V18.05h2Z"/><path class="cls-3" d="M66.47,19.9v6.71h-2V19.9H63.65V18.05H64.5V14.92h2v3.14H68V19.9H66.47Z"/><path class="cls-3" d="M69.06,14.49a1.29,1.29,0,0,1,1.28-1.27,1.25,1.25,0,0,1,.91.38,1.22,1.22,0,0,1,.38.91,1.25,1.25,0,0,1-.38.91,1.22,1.22,0,0,1-.91.38A1.29,1.29,0,0,1,69.06,14.49Zm2.28,3.56v8.56h-2V18.05h2Z"/><path class="cls-3" d="M80.15,18.05h2v8.56h-2v-0.9a3.8,3.8,0,0,1-5.56-.14,4.77,4.77,0,0,1-1.15-3.27,4.63,4.63,0,0,1,1.15-3.21,3.71,3.71,0,0,1,2.88-1.28A3.64,3.64,0,0,1,80.15,19v-1Zm-4.69,4.25a3,3,0,0,0,.66,2,2.16,2.16,0,0,0,1.71.78,2.27,2.27,0,0,0,1.78-.76,2.93,2.93,0,0,0,.68-2,2.93,2.93,0,0,0-.68-2,2.24,2.24,0,0,0-1.76-.76,2.19,2.19,0,0,0-1.71.77A2.85,2.85,0,0,0,75.46,22.31Z"/><path class="cls-3" d="M86.67,19.9v6.71h-2V19.9H83.85V18.05h0.84V14.92h2v3.14h1.54V19.9H86.67Z"/><path class="cls-3" d="M89.25,14.49a1.29,1.29,0,0,1,1.28-1.27,1.25,1.25,0,0,1,.91.38,1.22,1.22,0,0,1,.38.91,1.25,1.25,0,0,1-.38.91,1.22,1.22,0,0,1-.91.38A1.29,1.29,0,0,1,89.25,14.49Zm2.28,3.56v8.56h-2V18.05h2Z"/><path class="cls-3" d="M95.1,18.05l2.21,4.81,2.21-4.81h2.22L97.3,27.2l-4.41-9.15H95.1Z"/><path class="cls-3" d="M110.57,22.8h-6.13a2.6,2.6,0,0,0,.69,1.68,2.09,2.09,0,0,0,1.56.62,2,2,0,0,0,1.22-.35,5,5,0,0,0,1.08-1.3l1.67,0.93a6.65,6.65,0,0,1-.82,1.13,4.38,4.38,0,0,1-.92.77,3.73,3.73,0,0,1-1.06.44,5.18,5.18,0,0,1-1.24.14,4,4,0,0,1-3.08-1.23,4.62,4.62,0,0,1-1.16-3.29,4.74,4.74,0,0,1,1.13-3.29,4.29,4.29,0,0,1,6,0,4.74,4.74,0,0,1,1.09,3.31V22.8Zm-2-1.62a1.89,1.89,0,0,0-2-1.58,2.07,2.07,0,0,0-.68.11,2,2,0,0,0-.58.32,2,2,0,0,0-.44.5,2.31,2.31,0,0,0-.28.66h4Z"/><path class="cls-3" d="M120.14,24.07l1.76,0.69-2.5,5-1.34-.55Zm3.52,0,1.76,0.69-2.5,5-1.34-.55Z"/><path class="cls-3" d="M130.11,18.46L135.39,13h2.73L132,19.19l6.17,7.43h-2.74l-4.89-6-0.42.42v5.62h-2V13h2v5.41Z"/><path class="cls-3" d="M146.85,22.8h-6.13a2.6,2.6,0,0,0,.69,1.68,2.09,2.09,0,0,0,1.56.62,2,2,0,0,0,1.22-.35,5,5,0,0,0,1.08-1.3l1.67,0.93a6.65,6.65,0,0,1-.82,1.13,4.38,4.38,0,0,1-.92.77,3.73,3.73,0,0,1-1.06.44,5.18,5.18,0,0,1-1.24.14,4,4,0,0,1-3.08-1.23,4.62,4.62,0,0,1-1.16-3.29,4.74,4.74,0,0,1,1.13-3.29,4.29,4.29,0,0,1,6,0,4.74,4.74,0,0,1,1.09,3.31V22.8Zm-2-1.62a1.89,1.89,0,0,0-2-1.58,2.07,2.07,0,0,0-.68.11,2,2,0,0,0-.58.32,2,2,0,0,0-.44.5,2.31,2.31,0,0,0-.28.66h4Z"/><path class="cls-3" d="M148.71,14.49A1.29,1.29,0,0,1,150,13.22a1.25,1.25,0,0,1,.91.38,1.22,1.22,0,0,1,.38.91,1.25,1.25,0,0,1-.38.91,1.22,1.22,0,0,1-.91.38A1.29,1.29,0,0,1,148.71,14.49ZM151,18.05v8.56h-2V18.05h2Z"/><path class="cls-3" d="M153.49,18.05h2v0.79a3.24,3.24,0,0,1,2.34-1,3,3,0,0,1,2.33.94,3.85,3.85,0,0,1,.72,2.61v5.25h-2V21.84a3.13,3.13,0,0,0-.35-1.75,1.42,1.42,0,0,0-1.25-.49,1.53,1.53,0,0,0-1.4.65,4.47,4.47,0,0,0-.4,2.24v4.13h-2V18.05Z"/><path class="cls-3" d="M171.16,22.8H165a2.6,2.6,0,0,0,.69,1.68,2.09,2.09,0,0,0,1.56.62,2,2,0,0,0,1.22-.35,5,5,0,0,0,1.08-1.3l1.67,0.93a6.65,6.65,0,0,1-.82,1.13,4.38,4.38,0,0,1-.92.77,3.73,3.73,0,0,1-1.06.44,5.18,5.18,0,0,1-1.24.14,4,4,0,0,1-3.08-1.23A4.62,4.62,0,0,1,163,22.34a4.74,4.74,0,0,1,1.13-3.29,4.29,4.29,0,0,1,6,0,4.74,4.74,0,0,1,1.09,3.31V22.8Zm-2-1.62a1.89,1.89,0,0,0-2-1.58,2.07,2.07,0,0,0-.68.11,2,2,0,0,0-.58.32,2,2,0,0,0-.44.5,2.31,2.31,0,0,0-.28.66h4Z"/><path class="cls-3" d="M186.93,15.06l-1.66,1a2.86,2.86,0,0,0-.89-1.05,2.07,2.07,0,0,0-1.13-.28,2.09,2.09,0,0,0-1.42.48,1.5,1.5,0,0,0-.56,1.2,1.89,1.89,0,0,0,1.48,1.6l1.35,0.55a5.77,5.77,0,0,1,2.42,1.63,3.68,3.68,0,0,1,.76,2.36,4.15,4.15,0,0,1-1.25,3.1,4.28,4.28,0,0,1-3.12,1.23A4.16,4.16,0,0,1,180,25.81a4.83,4.83,0,0,1-1.42-2.95l2.07-.46a3.53,3.53,0,0,0,.49,1.65,2.34,2.34,0,0,0,3.44.24,2.22,2.22,0,0,0,.63-1.62,2.28,2.28,0,0,0-.11-0.72,1.85,1.85,0,0,0-.34-0.61,2.74,2.74,0,0,0-.6-0.52,5.8,5.8,0,0,0-.88-0.46L182,19.81q-2.79-1.18-2.79-3.44a3.27,3.27,0,0,1,1.17-2.56,4.23,4.23,0,0,1,2.91-1A4.06,4.06,0,0,1,186.93,15.06Z"/><path class="cls-3" d="M191.35,31.27h-2V18.05h2V19A3.66,3.66,0,0,1,194,17.82a3.7,3.7,0,0,1,2.91,1.3,4.7,4.7,0,0,1,1.16,3.26,4.63,4.63,0,0,1-1.15,3.21,3.75,3.75,0,0,1-5.57.07v5.62Zm4.7-8.89a3,3,0,0,0-.67-2,2.16,2.16,0,0,0-1.71-.78,2.26,2.26,0,0,0-1.77.76,2.87,2.87,0,0,0-.68,2,2.93,2.93,0,0,0,.68,2,2.22,2.22,0,0,0,1.76.76,2.14,2.14,0,0,0,1.7-.77A2.81,2.81,0,0,0,196.05,22.39Z"/><path class="cls-3" d="M208,22.8h-6.13a2.6,2.6,0,0,0,.69,1.68,2.09,2.09,0,0,0,1.56.62,2,2,0,0,0,1.22-.35,5,5,0,0,0,1.08-1.3L208,24.37a6.65,6.65,0,0,1-.82,1.13,4.38,4.38,0,0,1-.92.77,3.73,3.73,0,0,1-1.06.44,5.18,5.18,0,0,1-1.24.14,4,4,0,0,1-3.08-1.23,4.62,4.62,0,0,1-1.16-3.29,4.74,4.74,0,0,1,1.13-3.29,4.29,4.29,0,0,1,6,0A4.74,4.74,0,0,1,208,22.33V22.8Zm-2-1.62a1.89,1.89,0,0,0-2-1.58,2.07,2.07,0,0,0-.68.11,2,2,0,0,0-.58.32,2,2,0,0,0-.44.5,2.31,2.31,0,0,0-.28.66h4Z"/><path class="cls-3" d="M212.1,11.77v9.05l2.79-2.77h2.65l-3.72,3.59,4,5h-2.57L212.42,23l-0.32.32v3.3h-2V11.77h2Z"/><path class="cls-3" d="M221.12,18.05V23q0,2.13,1.68,2.13T224.47,23V18.05h2v5a5.52,5.52,0,0,1-.25,1.78,3,3,0,0,1-.85,1.2,4.16,4.16,0,0,1-5.09,0,3,3,0,0,1-.87-1.2,4.9,4.9,0,0,1-.25-1.78v-5h2Z"/><path class="cls-3" d="M230.93,11.77V26.61h-2V11.77h2Z"/><path class="cls-3" d="M239.74,18.05h2v8.56h-2v-0.9a3.8,3.8,0,0,1-5.56-.14A4.77,4.77,0,0,1,233,22.31a4.63,4.63,0,0,1,1.15-3.21,3.71,3.71,0,0,1,2.88-1.28A3.64,3.64,0,0,1,239.74,19v-1ZM235,22.31a3,3,0,0,0,.66,2,2.16,2.16,0,0,0,1.71.78,2.27,2.27,0,0,0,1.78-.76,2.93,2.93,0,0,0,.68-2,2.93,2.93,0,0,0-.68-2,2.24,2.24,0,0,0-1.76-.76,2.19,2.19,0,0,0-1.71.77A2.85,2.85,0,0,0,235,22.31Z"/><path class="cls-3" d="M246.26,19.9v6.71h-2V19.9h-0.84V18.05h0.84V14.92h2v3.14h1.54V19.9h-1.54Z"/><path class="cls-3" d="M248.85,14.49a1.29,1.29,0,0,1,1.28-1.27,1.25,1.25,0,0,1,.91.38,1.22,1.22,0,0,1,.38.91,1.25,1.25,0,0,1-.38.91,1.22,1.22,0,0,1-.91.38A1.29,1.29,0,0,1,248.85,14.49Zm2.28,3.56v8.56h-2V18.05h2Z"/><path class="cls-3" d="M253.22,22.27a4.25,4.25,0,0,1,1.33-3.16,4.68,4.68,0,0,1,6.49,0,4.58,4.58,0,0,1,0,6.44,4.54,4.54,0,0,1-3.28,1.29,4.35,4.35,0,0,1-3.23-1.32A4.43,4.43,0,0,1,253.22,22.27Zm2,0a2.89,2.89,0,0,0,.69,2,2.66,2.66,0,0,0,3.71,0,2.81,2.81,0,0,0,.69-2,2.81,2.81,0,0,0-.69-2,2.63,2.63,0,0,0-3.69,0A2.75,2.75,0,0,0,255.25,22.31Z"/><path class="cls-3" d="M264.45,18.05h2v0.79a3.24,3.24,0,0,1,2.34-1,3,3,0,0,1,2.33.94,3.85,3.85,0,0,1,.72,2.61v5.25h-2V21.84a3.13,3.13,0,0,0-.35-1.75,1.42,1.42,0,0,0-1.25-.49,1.53,1.53,0,0,0-1.4.65,4.47,4.47,0,0,0-.4,2.24v4.13h-2V18.05Z"/><path class="cls-3" d="M279.87,18.05h2v0.79a4.13,4.13,0,0,1,1-.81,2.37,2.37,0,0,1,1.08-.22,2.62,2.62,0,0,1,2.29,1.27,3,3,0,0,1,2.52-1.27q2.89,0,2.89,3.51v5.29h-2V21.86a3.67,3.67,0,0,0-.3-1.74,1.08,1.08,0,0,0-1-.52,1.29,1.29,0,0,0-1.19.62,4,4,0,0,0-.37,2v4.42h-2V21.88q0-2.29-1.32-2.29a1.32,1.32,0,0,0-1.22.62,3.9,3.9,0,0,0-.38,2v4.42h-2V18.05Z"/><path class="cls-3" d="M293.81,14.49a1.29,1.29,0,0,1,1.28-1.27,1.25,1.25,0,0,1,.91.38,1.22,1.22,0,0,1,.38.91,1.25,1.25,0,0,1-.38.91,1.22,1.22,0,0,1-.91.38A1.29,1.29,0,0,1,293.81,14.49Zm2.28,3.56v8.56h-2V18.05h2Z"/><path class="cls-3" d="M300.63,19.9v6.71h-2V19.9h-0.84V18.05h0.84V14.92h2v3.14h1.54V19.9h-1.54Z"/><path class="cls-3" d="M309.45,26.61V12.12l9.9,10.35V13h2v14.4l-9.9-10.33v9.5h-2Z"/><path class="cls-3" d="M330.75,18.05h2v8.56h-2v-0.9a3.8,3.8,0,0,1-5.56-.14A4.77,4.77,0,0,1,324,22.31a4.63,4.63,0,0,1,1.15-3.21,3.71,3.71,0,0,1,2.88-1.28A3.64,3.64,0,0,1,330.75,19v-1Zm-4.69,4.25a3,3,0,0,0,.66,2,2.16,2.16,0,0,0,1.71.78,2.27,2.27,0,0,0,1.78-.76,2.93,2.93,0,0,0,.68-2,2.93,2.93,0,0,0-.68-2,2.24,2.24,0,0,0-1.76-.76,2.19,2.19,0,0,0-1.71.77A2.85,2.85,0,0,0,326.06,22.31Z"/><path class="cls-3" d="M335.23,11.77h2v7a3.41,3.41,0,0,1,2.33-.95,3,3,0,0,1,2.32.94,3.83,3.83,0,0,1,.74,2.61v5.25h-2V21.55a2.42,2.42,0,0,0-.36-1.49,1.41,1.41,0,0,0-1.17-.46,1.61,1.61,0,0,0-1.46.64,4.4,4.4,0,0,0-.41,2.23v4.14h-2V11.77Z"/><path class="cls-3" d="M345.1,18.05h2v0.76a3.78,3.78,0,0,1,1-.78,2.22,2.22,0,0,1,1-.22,3.19,3.19,0,0,1,1.63.51l-0.91,1.81a1.89,1.89,0,0,0-1.1-.4q-1.62,0-1.62,2.44v4.44h-2V18.05Z"/><path class="cls-3" d="M354.09,18.05V23q0,2.13,1.68,2.13T357.44,23V18.05h2v5a5.52,5.52,0,0,1-.25,1.78,3,3,0,0,1-.85,1.2,4.16,4.16,0,0,1-5.09,0,3,3,0,0,1-.87-1.2,4.9,4.9,0,0,1-.25-1.78v-5h2Z"/><path class="cls-3" d="M361.92,18.05h2v0.79a3.24,3.24,0,0,1,2.34-1,3,3,0,0,1,2.33.94,3.85,3.85,0,0,1,.72,2.61v5.25h-2V21.84a3.13,3.13,0,0,0-.35-1.75,1.42,1.42,0,0,0-1.25-.49,1.53,1.53,0,0,0-1.4.65,4.47,4.47,0,0,0-.4,2.24v4.13h-2V18.05Z"/><path class="cls-3" d="M380.07,26.41c0,0.4,0,.76,0,1.07a7.63,7.63,0,0,1-.11.81,3.62,3.62,0,0,1-.83,1.66,4,4,0,0,1-3.19,1.34,4.25,4.25,0,0,1-2.82-.93,3.79,3.79,0,0,1-1.32-2.63h2a2.25,2.25,0,0,0,.38,1,2.12,2.12,0,0,0,1.79.8q2.17,0,2.17-2.65v-1.2a3.69,3.69,0,0,1-2.72,1.2,3.65,3.65,0,0,1-2.87-1.27,4.69,4.69,0,0,1-1.12-3.21,4.94,4.94,0,0,1,1-3.18,3.63,3.63,0,0,1,3-1.39,3.45,3.45,0,0,1,2.69,1.2v-1h2v8.36Zm-1.9-4.06a2.87,2.87,0,0,0-.67-2,2.21,2.21,0,0,0-1.73-.76,2.13,2.13,0,0,0-1.78.83,3,3,0,0,0-.59,1.93,3,3,0,0,0,.59,1.91,2.13,2.13,0,0,0,1.78.82,2.17,2.17,0,0,0,1.79-.83A2.93,2.93,0,0,0,378.17,22.36Z"/><path class="cls-3" d="M387.54,19.51l-1.63.87a1.13,1.13,0,0,0-1-.78,0.66,0.66,0,0,0-.47.18,0.6,0.6,0,0,0-.19.46,1.49,1.49,0,0,0,1.14,1,6.83,6.83,0,0,1,2.12,1.25,2.13,2.13,0,0,1,.54,1.54,2.69,2.69,0,0,1-.91,2.07A3.28,3.28,0,0,1,382,24.76l1.69-.78a3.67,3.67,0,0,0,.54.78,1.22,1.22,0,0,0,.86.33,0.85,0.85,0,0,0,1-.91,1.25,1.25,0,0,0-.77-1l-0.6-.29-0.61-.29a3.71,3.71,0,0,1-1.21-.84,2.08,2.08,0,0,1-.45-1.38,2.44,2.44,0,0,1,.76-1.85,2.68,2.68,0,0,1,1.9-.73A2.59,2.59,0,0,1,387.54,19.51Z"/><path class="cls-3" d="M389.87,18.05h2v0.79a4.13,4.13,0,0,1,1-.81,2.37,2.37,0,0,1,1.08-.22,2.62,2.62,0,0,1,2.29,1.27,3,3,0,0,1,2.52-1.27q2.89,0,2.89,3.51v5.29h-2V21.86a3.67,3.67,0,0,0-.3-1.74,1.08,1.08,0,0,0-1-.52,1.29,1.29,0,0,0-1.19.62,4,4,0,0,0-.37,2v4.42h-2V21.88q0-2.29-1.32-2.29a1.32,1.32,0,0,0-1.22.62,3.9,3.9,0,0,0-.38,2v4.42h-2V18.05Z"/><path class="cls-3" d="M403.81,14.49a1.29,1.29,0,0,1,1.28-1.27,1.25,1.25,0,0,1,.91.38,1.22,1.22,0,0,1,.38.91,1.25,1.25,0,0,1-.38.91,1.22,1.22,0,0,1-.91.38A1.29,1.29,0,0,1,403.81,14.49Zm2.28,3.56v8.56h-2V18.05h2Z"/><path class="cls-3" d="M410.63,19.9v6.71h-2V19.9h-0.84V18.05h0.84V14.92h2v3.14h1.54V19.9h-1.54Z"/><path class="cls-3" d="M415.55,19.9v6.71h-2V19.9h-0.84V18.05h0.84V14.92h2v3.14h1.54V19.9h-1.54Z"/><path class="cls-3" d="M426.39,22.8h-6.13a2.6,2.6,0,0,0,.69,1.68,2.09,2.09,0,0,0,1.56.62,2,2,0,0,0,1.22-.35,5,5,0,0,0,1.08-1.3l1.67,0.93a6.65,6.65,0,0,1-.82,1.13,4.38,4.38,0,0,1-.92.77,3.73,3.73,0,0,1-1.06.44,5.18,5.18,0,0,1-1.24.14,4,4,0,0,1-3.08-1.23,4.62,4.62,0,0,1-1.16-3.29,4.74,4.74,0,0,1,1.13-3.29,4.29,4.29,0,0,1,6,0,4.74,4.74,0,0,1,1.09,3.31V22.8Zm-2-1.62a1.89,1.89,0,0,0-2-1.58,2.07,2.07,0,0,0-.68.11,2,2,0,0,0-.58.32,2,2,0,0,0-.44.5,2.31,2.31,0,0,0-.28.66h4Z"/><path class="cls-3" d="M430.53,11.77V26.61h-2V11.77h2Z"/><path class="cls-3" d="M433,18.05h2v0.79a3.24,3.24,0,0,1,2.34-1,3,3,0,0,1,2.33.94,3.85,3.85,0,0,1,.72,2.61v5.25h-2V21.84a3.13,3.13,0,0,0-.35-1.75,1.42,1.42,0,0,0-1.25-.49,1.53,1.53,0,0,0-1.4.65,4.47,4.47,0,0,0-.4,2.24v4.13h-2V18.05Z"/><path class="cls-3" d="M443.42,25.63a1.22,1.22,0,0,1,2.44,0,1.19,1.19,0,0,1-.36.87,1.24,1.24,0,0,1-1.73,0A1.19,1.19,0,0,1,443.42,25.63Zm0.23-2V13h2V23.59h-2Z"/><path class="cls-3" d="M450.41,18.17l-1.77-.69,2.5-5L452.48,13Zm3.52,0-1.77-.69,2.5-5L456,13Z"/><path class="cls-3" d="M466.12,11.62l1.83,0.7a22.52,22.52,0,0,0-1.34,4.24,19.91,19.91,0,0,0-.29,2.07q-0.1,1.09-.1,2.37t0.1,2.38a19.89,19.89,0,0,0,.29,2.07,21.76,21.76,0,0,0,1.34,4.23l-1.83.7A21.48,21.48,0,0,1,464.2,21,21.48,21.48,0,0,1,466.12,11.62Z"/><path class="cls-3" d="M473.67,24.69h5.05v1.92h-9.11l4.71-5.7q0.69-.85,1.17-1.48a11.4,11.4,0,0,0,.72-1,2.94,2.94,0,0,0,.5-1.49,2.12,2.12,0,0,0-.67-1.59,2.29,2.29,0,0,0-1.65-.64q-2.06,0-2.36,2.43h-2q0.49-4.29,4.33-4.29A4.38,4.38,0,0,1,477.43,14a3.83,3.83,0,0,1,1.27,2.92,4.43,4.43,0,0,1-.59,2.17,10.57,10.57,0,0,1-.87,1.31q-0.58.76-1.45,1.8Z"/><path class="cls-3" d="M481,19.74a8.18,8.18,0,0,1,1.51-5.18,3.95,3.95,0,0,1,6.56,0,8.33,8.33,0,0,1,1.51,5.26,8.32,8.32,0,0,1-1.51,5.26,4,4,0,0,1-3.27,1.75,4.07,4.07,0,0,1-3.29-1.75A8.47,8.47,0,0,1,481,19.74Zm2,0a8,8,0,0,0,.78,3.75,2.09,2.09,0,0,0,4,0,7.68,7.68,0,0,0,.79-3.68,7.73,7.73,0,0,0-.79-3.69,2.08,2.08,0,0,0-4,0A7.5,7.5,0,0,0,483.06,19.75Z"/><path class="cls-3" d="M494.87,15h-2.35L493.65,13h3.27V26.61h-2V15Z"/><path class="cls-3" d="M506.59,12.57l1.5,1.13-3.24,4.41,0.45-.05,0.29,0a3.81,3.81,0,0,1,2.86,1.27,4.19,4.19,0,0,1,1.2,3,4.55,4.55,0,0,1-4.53,4.53,4.57,4.57,0,0,1-3.23-1.31,4.16,4.16,0,0,1-1.36-3.1A5.84,5.84,0,0,1,501.84,19Zm1.05,9.87A2.57,2.57,0,1,0,505.08,25,2.57,2.57,0,0,0,507.64,22.44Z"/><path class="cls-3" d="M513.68,30.38l-1.83-.7a21.76,21.76,0,0,0,1.34-4.23,22.35,22.35,0,0,0,.4-4.45,22.39,22.39,0,0,0-.4-4.44,22.52,22.52,0,0,0-1.34-4.24l1.83-.7A21.56,21.56,0,0,1,515.59,21,21.56,21.56,0,0,1,513.68,30.38Z"/><g class="cls-4"><path class="cls-3" d="M155.06,427.44h-1.72l-0.71-.73a4.56,4.56,0,0,1-2.52.73,4.71,4.71,0,0,1-3.19-1.22,4.37,4.37,0,0,1-1.52-3.43,4.51,4.51,0,0,1,1.44-3.41,4.72,4.72,0,0,1,6.38-.16,4.55,4.55,0,0,1,1.64,3.64,4.41,4.41,0,0,1-1.29,3.12Zm-3.76-3.75,1.31,1.31a3.09,3.09,0,0,0,.87-2.23,3.35,3.35,0,0,0-1-2.44,3.23,3.23,0,0,0-2.4-1,3.16,3.16,0,0,0-2.39,1,3.42,3.42,0,0,0-.94,2.48,3.17,3.17,0,0,0,1,2.39,3.27,3.27,0,0,0,2.31,1,3.19,3.19,0,0,0,1.6-.4l-2.13-2.06h1.76Z"/><path class="cls-3" d="M157.65,421.57v3.28q0,1.42,1.12,1.42t1.12-1.42v-3.28h1.32v3.3a3.68,3.68,0,0,1-.17,1.18,2,2,0,0,1-.57.8,2.77,2.77,0,0,1-3.39,0,2,2,0,0,1-.58-0.8,3.26,3.26,0,0,1-.16-1.18v-3.3h1.32Z"/><path class="cls-3" d="M168.06,424.73H164a1.73,1.73,0,0,0,.46,1.12,1.39,1.39,0,0,0,1,.41,1.35,1.35,0,0,0,.81-0.23,3.33,3.33,0,0,0,.72-0.87l1.11,0.62a4.43,4.43,0,0,1-.54.75,2.9,2.9,0,0,1-.62.52,2.47,2.47,0,0,1-.71.3,3.45,3.45,0,0,1-.83.09,2.69,2.69,0,0,1-2.05-.82,3.08,3.08,0,0,1-.77-2.19,3.16,3.16,0,0,1,.75-2.19,2.86,2.86,0,0,1,4,0,3.16,3.16,0,0,1,.73,2.21v0.31Zm-1.35-1.08a1.26,1.26,0,0,0-1.33-1.05,1.37,1.37,0,0,0-.45.07,1.29,1.29,0,0,0-.38.21,1.34,1.34,0,0,0-.3.33,1.54,1.54,0,0,0-.19.44h2.65Z"/><path class="cls-3" d="M170.82,417.38v9.9h-1.32v-9.9h1.32Z"/><path class="cls-3" d="M173.81,417.38v9.9h-1.32v-9.9h1.32Z"/><path class="cls-3" d="M180.68,424.73h-4.09a1.73,1.73,0,0,0,.46,1.12,1.39,1.39,0,0,0,1,.41,1.35,1.35,0,0,0,.81-0.23,3.33,3.33,0,0,0,.72-0.87l1.11,0.62a4.43,4.43,0,0,1-.54.75,2.9,2.9,0,0,1-.62.52,2.47,2.47,0,0,1-.71.3,3.45,3.45,0,0,1-.83.09,2.69,2.69,0,0,1-2.05-.82,3.08,3.08,0,0,1-.77-2.19,3.16,3.16,0,0,1,.75-2.19,2.86,2.86,0,0,1,4,0,3.16,3.16,0,0,1,.73,2.21v0.31Zm-1.35-1.08A1.26,1.26,0,0,0,178,422.6a1.37,1.37,0,0,0-.45.07,1.29,1.29,0,0,0-.38.21,1.34,1.34,0,0,0-.3.33,1.54,1.54,0,0,0-.19.44h2.65Z"/><path class="cls-3" d="M182.33,422.21a0.77,0.77,0,0,1,.24-0.56,0.81,0.81,0,1,1,0,1.15A0.79,0.79,0,0,1,182.33,422.21Zm0,4.41a0.81,0.81,0,0,1,1.63,0,0.79,0.79,0,0,1-.24.58,0.83,0.83,0,0,1-1.15,0A0.79,0.79,0,0,1,182.33,426.62Z"/><path class="cls-3" d="M192.28,419.51v7.76h-1.37v-7.76h-2.08v-1.28h5.52v1.28h-2.07Z"/><path class="cls-3" d="M199,421.57h1.32v5.71H199v-0.6a2.53,2.53,0,0,1-3.71-.09,3.18,3.18,0,0,1-.77-2.18,3.08,3.08,0,0,1,.77-2.14,2.47,2.47,0,0,1,1.92-.86,2.43,2.43,0,0,1,1.79.82v-0.66Zm-3.13,2.84a2,2,0,0,0,.44,1.34,1.44,1.44,0,0,0,1.14.52,1.51,1.51,0,0,0,1.18-.5,2.17,2.17,0,0,0,0-2.65,1.49,1.49,0,0,0-1.17-.51,1.46,1.46,0,0,0-1.14.52A1.9,1.9,0,0,0,195.89,424.41Z"/><path class="cls-3" d="M202,421.57h1.32v0.53a2.75,2.75,0,0,1,.65-0.54,1.58,1.58,0,0,1,.72-0.15,1.75,1.75,0,0,1,1.53.84,2,2,0,0,1,1.68-.84q1.93,0,1.93,2.34v3.53h-1.32v-3.17a2.45,2.45,0,0,0-.2-1.16,0.72,0.72,0,0,0-.67-0.35,0.86,0.86,0,0,0-.79.41,2.64,2.64,0,0,0-.25,1.32v2.95h-1.32v-3.15q0-1.52-.88-1.52a0.88,0.88,0,0,0-.81.42,2.59,2.59,0,0,0-.25,1.31v2.95H202v-5.71Z"/><path class="cls-3" d="M216.7,424.73h-4.09a1.73,1.73,0,0,0,.46,1.12,1.39,1.39,0,0,0,1,.41,1.35,1.35,0,0,0,.81-0.23,3.33,3.33,0,0,0,.72-0.87l1.11,0.62a4.43,4.43,0,0,1-.54.75,2.9,2.9,0,0,1-.62.52,2.47,2.47,0,0,1-.71.3,3.45,3.45,0,0,1-.83.09,2.69,2.69,0,0,1-2.05-.82,3.08,3.08,0,0,1-.77-2.19,3.16,3.16,0,0,1,.75-2.19,2.86,2.86,0,0,1,4,0,3.16,3.16,0,0,1,.73,2.21v0.31Zm-1.35-1.08A1.26,1.26,0,0,0,214,422.6a1.37,1.37,0,0,0-.45.07,1.29,1.29,0,0,0-.38.21,1.34,1.34,0,0,0-.3.33,1.54,1.54,0,0,0-.19.44h2.65Z"/><path class="cls-3" d="M222.35,417.38h1.32v9.9h-1.32v-0.6a2.46,2.46,0,0,1-1.76.76,2.51,2.51,0,0,1-1.95-.86,3.18,3.18,0,0,1-.77-2.18,3.08,3.08,0,0,1,.77-2.13,2.47,2.47,0,0,1,3.71,0v-4.85Zm-3.13,7a2,2,0,0,0,.44,1.34,1.44,1.44,0,0,0,1.14.52,1.51,1.51,0,0,0,1.18-.5,2.17,2.17,0,0,0,0-2.65,1.49,1.49,0,0,0-1.17-.51,1.46,1.46,0,0,0-1.14.52A1.9,1.9,0,0,0,219.22,424.41Z"/><path class="cls-3" d="M225.13,419.2a0.86,0.86,0,0,1,.86-0.85,0.83,0.83,0,0,1,.61.25,0.81,0.81,0,0,1,.25.6,0.83,0.83,0,0,1-.25.61,0.81,0.81,0,0,1-.6.25A0.86,0.86,0,0,1,225.13,419.2Zm1.52,2.37v5.71h-1.32v-5.71h1.32Z"/><path class="cls-3" d="M232.53,421.57h1.32v5.71h-1.32v-0.6a2.53,2.53,0,0,1-3.71-.09,3.18,3.18,0,0,1-.77-2.18,3.08,3.08,0,0,1,.77-2.14,2.47,2.47,0,0,1,1.92-.86,2.43,2.43,0,0,1,1.79.82v-0.66Zm-3.13,2.84a2,2,0,0,0,.44,1.34,1.44,1.44,0,0,0,1.14.52,1.51,1.51,0,0,0,1.18-.5,2.17,2.17,0,0,0,0-2.65,1.49,1.49,0,0,0-1.17-.51,1.46,1.46,0,0,0-1.14.52A1.9,1.9,0,0,0,229.4,424.41Z"/><path class="cls-3" d="M244.79,425.08h-3.87l-1,2.2h-1.47l4.48-9.62,4.32,9.62h-1.49Zm-0.56-1.28-1.34-3.08-1.41,3.08h2.75Z"/><path class="cls-3" d="M249.6,417.38v4.85a2.43,2.43,0,0,1,1.79-.82,2.47,2.47,0,0,1,1.92.86,3.08,3.08,0,0,1,.77,2.13,3.14,3.14,0,0,1-.77,2.18,2.49,2.49,0,0,1-1.94.86,2.47,2.47,0,0,1-1.77-.76v0.6h-1.32v-9.9h1.32Zm3.13,7.08a2,2,0,0,0-.45-1.34,1.43,1.43,0,0,0-1.13-.53,1.52,1.52,0,0,0-1.18.51,1.89,1.89,0,0,0-.45,1.31,1.92,1.92,0,0,0,.45,1.33,1.48,1.48,0,0,0,1.17.51,1.45,1.45,0,0,0,1.14-.51A1.87,1.87,0,0,0,252.73,424.46Z"/><path class="cls-3" d="M258.79,422.54l-1.09.58a0.75,0.75,0,0,0-.64-0.52,0.44,0.44,0,0,0-.31.12,0.4,0.4,0,0,0-.13.31,1,1,0,0,0,.76.65,4.52,4.52,0,0,1,1.41.83,1.42,1.42,0,0,1,.36,1,1.79,1.79,0,0,1-.61,1.38,2.19,2.19,0,0,1-3.46-.87l1.12-.52a2.45,2.45,0,0,0,.36.52,0.82,0.82,0,0,0,.57.22,0.57,0.57,0,0,0,.67-0.61,0.84,0.84,0,0,0-.52-0.66l-0.4-.19-0.4-.19a2.47,2.47,0,0,1-.81-0.56,1.39,1.39,0,0,1-.3-0.92,1.63,1.63,0,0,1,.51-1.23,1.79,1.79,0,0,1,1.27-.49A1.73,1.73,0,0,1,258.79,422.54Z"/><path class="cls-3" d="M261.7,422.8v4.48h-1.32V422.8h-0.56v-1.23h0.56v-2.09h1.32v2.09h1v1.23h-1Z"/><path class="cls-3" d="M263.43,419.2a0.86,0.86,0,0,1,.86-0.85,0.83,0.83,0,0,1,.61.25,0.81,0.81,0,0,1,.25.6,0.83,0.83,0,0,1-.25.61,0.81,0.81,0,0,1-.6.25A0.86,0.86,0,0,1,263.43,419.2Zm1.52,2.37v5.71h-1.32v-5.71h1.32Z"/><path class="cls-3" d="M266.61,421.57h1.32v0.53a2.75,2.75,0,0,1,.65-0.54,1.58,1.58,0,0,1,.72-0.15,1.75,1.75,0,0,1,1.53.84,2,2,0,0,1,1.68-.84q1.93,0,1.93,2.34v3.53h-1.32v-3.17a2.45,2.45,0,0,0-.2-1.16,0.72,0.72,0,0,0-.67-0.35,0.86,0.86,0,0,0-.79.41,2.64,2.64,0,0,0-.25,1.32v2.95h-1.32v-3.15q0-1.52-.88-1.52a0.88,0.88,0,0,0-.81.42,2.59,2.59,0,0,0-.25,1.31v2.95h-1.32v-5.71Z"/><path class="cls-3" d="M276.11,421.57h1.32v0.53a2.75,2.75,0,0,1,.65-0.54,1.58,1.58,0,0,1,.72-0.15,1.75,1.75,0,0,1,1.53.84,2,2,0,0,1,1.68-.84q1.93,0,1.93,2.34v3.53h-1.32v-3.17a2.45,2.45,0,0,0-.2-1.16,0.72,0.72,0,0,0-.67-0.35,0.86,0.86,0,0,0-.79.41,2.64,2.64,0,0,0-.25,1.32v2.95h-1.32v-3.15q0-1.52-.88-1.52a0.88,0.88,0,0,0-.81.42,2.59,2.59,0,0,0-.25,1.31v2.95h-1.32v-5.71Z"/><path class="cls-3" d="M286.92,421.57v3.28q0,1.42,1.12,1.42t1.12-1.42v-3.28h1.32v3.3a3.68,3.68,0,0,1-.17,1.18,2,2,0,0,1-.57.8,2.77,2.77,0,0,1-3.39,0,2,2,0,0,1-.58-0.8,3.26,3.26,0,0,1-.16-1.18v-3.3h1.32Z"/><path class="cls-3" d="M292.14,421.57h1.32v0.53a2.16,2.16,0,0,1,1.56-.69,2,2,0,0,1,1.55.63,2.57,2.57,0,0,1,.48,1.74v3.5h-1.32v-3.18a2.08,2.08,0,0,0-.23-1.16,1,1,0,0,0-.83-0.33,1,1,0,0,0-.93.43,3,3,0,0,0-.27,1.49v2.75h-1.32v-5.71Z"/><path class="cls-3" d="M304.24,427.14q0,0.4,0,.71a5,5,0,0,1-.07.54,2.41,2.41,0,0,1-.55,1.11,2.67,2.67,0,0,1-2.13.89,2.83,2.83,0,0,1-1.88-.62,2.53,2.53,0,0,1-.88-1.75H300a1.5,1.5,0,0,0,.25.65,1.42,1.42,0,0,0,1.2.53q1.45,0,1.45-1.77v-0.8a2.46,2.46,0,0,1-1.81.8,2.43,2.43,0,0,1-1.91-.84,3.13,3.13,0,0,1-.75-2.14,3.29,3.29,0,0,1,.7-2.12,2.42,2.42,0,0,1,2-.93,2.3,2.3,0,0,1,1.79.8v-0.64h1.32v5.57Zm-1.27-2.7a1.92,1.92,0,0,0-.45-1.33,1.47,1.47,0,0,0-1.15-.51,1.42,1.42,0,0,0-1.18.56,2.29,2.29,0,0,0,0,2.56,1.42,1.42,0,0,0,1.18.54,1.45,1.45,0,0,0,1.2-.55A2,2,0,0,0,303,424.44Z"/><path class="cls-3" d="M309.22,422.54l-1.09.58a0.75,0.75,0,0,0-.64-0.52,0.44,0.44,0,0,0-.31.12,0.4,0.4,0,0,0-.13.31,1,1,0,0,0,.76.65,4.52,4.52,0,0,1,1.41.83,1.42,1.42,0,0,1,.36,1,1.79,1.79,0,0,1-.61,1.38,2.19,2.19,0,0,1-3.46-.87l1.13-.52a2.45,2.45,0,0,0,.36.52,0.82,0.82,0,0,0,.57.22,0.57,0.57,0,0,0,.67-0.61,0.84,0.84,0,0,0-.52-0.66l-0.4-.19-0.4-.19a2.47,2.47,0,0,1-.81-0.56,1.39,1.39,0,0,1-.3-0.92,1.63,1.63,0,0,1,.51-1.23,1.79,1.79,0,0,1,1.27-.49A1.73,1.73,0,0,1,309.22,422.54Z"/><path class="cls-3" d="M314.09,422.54l-1.09.58a0.75,0.75,0,0,0-.64-0.52,0.44,0.44,0,0,0-.31.12,0.4,0.4,0,0,0-.13.31,1,1,0,0,0,.76.65,4.52,4.52,0,0,1,1.41.83,1.42,1.42,0,0,1,.36,1,1.79,1.79,0,0,1-.61,1.38,2.19,2.19,0,0,1-3.46-.87l1.13-.52a2.45,2.45,0,0,0,.36.52,0.82,0.82,0,0,0,.57.22,0.57,0.57,0,0,0,.67-0.61,0.84,0.84,0,0,0-.52-0.66l-0.4-.19-0.4-.19A2.47,2.47,0,0,1,311,424a1.39,1.39,0,0,1-.3-0.92,1.63,1.63,0,0,1,.51-1.23,1.79,1.79,0,0,1,1.27-.49A1.73,1.73,0,0,1,314.09,422.54Z"/><path class="cls-3" d="M317,422.8v4.48h-1.32V422.8h-0.56v-1.23h0.56v-2.09H317v2.09h1v1.23h-1Z"/><path class="cls-3" d="M320.24,421.57v3.28q0,1.42,1.12,1.42t1.12-1.42v-3.28h1.32v3.3a3.68,3.68,0,0,1-.17,1.18,2,2,0,0,1-.57.8,2.77,2.77,0,0,1-3.39,0,2,2,0,0,1-.58-0.8,3.26,3.26,0,0,1-.16-1.18v-3.3h1.32Z"/><path class="cls-3" d="M329.67,417.38H331v9.9h-1.32v-0.6a2.46,2.46,0,0,1-1.76.76,2.51,2.51,0,0,1-1.95-.86,3.18,3.18,0,0,1-.77-2.18,3.08,3.08,0,0,1,.77-2.13,2.47,2.47,0,0,1,3.71,0v-4.85Zm-3.13,7a2,2,0,0,0,.44,1.34,1.44,1.44,0,0,0,1.14.52,1.51,1.51,0,0,0,1.18-.5,2.17,2.17,0,0,0,0-2.65,1.49,1.49,0,0,0-1.17-.51,1.46,1.46,0,0,0-1.14.52A1.9,1.9,0,0,0,326.54,424.41Z"/><path class="cls-3" d="M332.46,419.2a0.86,0.86,0,0,1,.86-0.85,0.83,0.83,0,0,1,.61.25,0.81,0.81,0,0,1,.25.6,0.83,0.83,0,0,1-.25.61,0.81,0.81,0,0,1-.6.25A0.86,0.86,0,0,1,332.46,419.2Zm1.52,2.37v5.71h-1.32v-5.71H334Z"/><path class="cls-3" d="M340.84,424.73h-4.09a1.73,1.73,0,0,0,.46,1.12,1.39,1.39,0,0,0,1,.41,1.35,1.35,0,0,0,.81-0.23,3.33,3.33,0,0,0,.72-0.87l1.11,0.62a4.43,4.43,0,0,1-.54.75,2.9,2.9,0,0,1-.62.52,2.47,2.47,0,0,1-.71.3,3.45,3.45,0,0,1-.83.09,2.69,2.69,0,0,1-2.05-.82,3.08,3.08,0,0,1-.77-2.19,3.16,3.16,0,0,1,.75-2.19,2.86,2.86,0,0,1,4,0,3.16,3.16,0,0,1,.73,2.21v0.31Zm-1.35-1.08a1.26,1.26,0,0,0-1.33-1.05,1.37,1.37,0,0,0-.45.07,1.29,1.29,0,0,0-.38.21,1.34,1.34,0,0,0-.3.33,1.54,1.54,0,0,0-.19.44h2.65Z"/><path class="cls-3" d="M348.16,426h3.37v1.28h-6.08l3.14-3.8q0.46-.57.78-1a7.48,7.48,0,0,0,.48-0.7,2,2,0,0,0,.33-1,1.41,1.41,0,0,0-.45-1.06,1.59,1.59,0,0,0-2.67,1.2H345.7q0.33-2.86,2.89-2.86a2.92,2.92,0,0,1,2.07.79,2.55,2.55,0,0,1,.84,1.95,3,3,0,0,1-.39,1.45,7.09,7.09,0,0,1-.58.88q-0.38.51-1,1.2Z"/><path class="cls-3" d="M353.07,422.69a5.45,5.45,0,0,1,1-3.45,2.63,2.63,0,0,1,4.37,0,6.61,6.61,0,0,1,0,7,2.68,2.68,0,0,1-2.18,1.17,2.71,2.71,0,0,1-2.19-1.17A5.65,5.65,0,0,1,353.07,422.69Zm1.35,0a5.37,5.37,0,0,0,.52,2.5,1.39,1.39,0,0,0,2.66,0,6,6,0,0,0,0-4.92,1.39,1.39,0,0,0-2.65,0A5,5,0,0,0,354.42,422.7Z"/><path class="cls-3" d="M362.29,419.51h-1.56l0.75-1.28h2.18v9h-1.37v-7.76Z"/><path class="cls-3" d="M370.1,417.91l1,0.75-2.16,2.94,0.3,0h0.19a2.54,2.54,0,0,1,1.9.84,2.79,2.79,0,0,1,.8,2,3,3,0,0,1-3,3,3,3,0,0,1-2.16-.87,2.77,2.77,0,0,1-.91-2.07,3.89,3.89,0,0,1,.88-2.27Zm0.7,6.58a1.72,1.72,0,1,0-1.71,1.69A1.71,1.71,0,0,0,370.8,424.49Z"/></g><line class="cls-5" x1="40.23" y1="367.05" x2="517.57" y2="367.05"/><line class="cls-6" x1="40.23" y1="321.58" x2="517.57" y2="321.58"/><line class="cls-6" x1="40.23" y1="276.11" x2="517.57" y2="276.11"/><line class="cls-6" x1="40.23" y1="230.63" x2="517.57" y2="230.63"/><line class="cls-6" x1="40.23" y1="185.16" x2="517.57" y2="185.16"/><line class="cls-6" x1="40.23" y1="139.69" x2="517.57" y2="139.69"/><line class="cls-6" x1="40.23" y1="94.22" x2="517.57" y2="94.22"/><path class="cls-3" d="M80.34,400.3V386.73h2a8.93,8.93,0,0,1,2.17.21,3.26,3.26,0,0,1,1.38.71,3.69,3.69,0,0,1,.91,1.29,3.91,3.91,0,0,1,.34,1.58A3.21,3.21,0,0,1,86.06,393a3.28,3.28,0,0,1,1.71,1.29,3.82,3.82,0,0,1-.49,4.82,3.69,3.69,0,0,1-1.52.94,8.84,8.84,0,0,1-2.31.25h-3.1Zm2-7.74H83a2.37,2.37,0,0,0,1.67-.5,2,2,0,0,0,.53-1.49,1.87,1.87,0,0,0-.54-1.46,2.28,2.28,0,0,0-1.58-.5H82.38v3.95Zm0,5.82h1.27a3.14,3.14,0,0,0,2-.54,1.88,1.88,0,0,0,.69-1.49,1.91,1.91,0,0,0-.66-1.48,3.42,3.42,0,0,0-2.29-.59h-1v4.1Z"/><path class="cls-3" d="M96.91,391.74h2v8.56h-2v-0.9a3.8,3.8,0,0,1-5.56-.14A4.77,4.77,0,0,1,90.2,396a4.63,4.63,0,0,1,1.15-3.21,3.71,3.71,0,0,1,2.88-1.28,3.64,3.64,0,0,1,2.68,1.23v-1ZM92.22,396a3,3,0,0,0,.66,2,2.16,2.16,0,0,0,1.71.78,2.27,2.27,0,0,0,1.78-.76,3.25,3.25,0,0,0,0-4,2.24,2.24,0,0,0-1.76-.76,2.19,2.19,0,0,0-1.71.77A2.85,2.85,0,0,0,92.22,396Z"/><path class="cls-3" d="M106.37,393.2l-1.63.87a1.13,1.13,0,0,0-1-.78,0.66,0.66,0,0,0-.47.18,0.6,0.6,0,0,0-.19.46,1.49,1.49,0,0,0,1.14,1,6.83,6.83,0,0,1,2.12,1.25,2.13,2.13,0,0,1,.54,1.54,2.69,2.69,0,0,1-.91,2.07,3.28,3.28,0,0,1-5.19-1.31l1.69-.78a3.67,3.67,0,0,0,.54.78,1.22,1.22,0,0,0,.86.33,0.85,0.85,0,0,0,1-.91,1.25,1.25,0,0,0-.77-1l-0.6-.29-0.61-.29a3.71,3.71,0,0,1-1.21-.84,2.08,2.08,0,0,1-.45-1.38,2.44,2.44,0,0,1,.76-1.85,2.68,2.68,0,0,1,1.9-.73A2.59,2.59,0,0,1,106.37,393.2Z"/><path class="cls-3" d="M116.49,396.48h-6.13a2.6,2.6,0,0,0,.69,1.68,2.09,2.09,0,0,0,1.56.62,2,2,0,0,0,1.22-.35,5,5,0,0,0,1.08-1.3l1.67,0.93a6.65,6.65,0,0,1-.82,1.13,4.38,4.38,0,0,1-.92.77,3.73,3.73,0,0,1-1.06.44,5.18,5.18,0,0,1-1.24.14,4,4,0,0,1-3.08-1.23,4.62,4.62,0,0,1-1.16-3.29,4.74,4.74,0,0,1,1.13-3.29,4.29,4.29,0,0,1,6,0A4.74,4.74,0,0,1,116.5,396v0.47Zm-2-1.62a1.89,1.89,0,0,0-2-1.58,2.07,2.07,0,0,0-.68.11,2,2,0,0,0-.58.32,2,2,0,0,0-.44.5,2.31,2.31,0,0,0-.28.66h4Z"/><path class="cls-3" d="M120.63,385.45V400.3h-2V385.45h2Z"/><path class="cls-3" d="M121.89,395.09h3.92v1.72h-3.92v-1.72Z"/><path class="cls-3" d="M135.11,388.74l-1.66,1a2.86,2.86,0,0,0-.89-1.05,2.07,2.07,0,0,0-1.13-.28,2.09,2.09,0,0,0-1.42.48,1.5,1.5,0,0,0-.56,1.2,1.89,1.89,0,0,0,1.48,1.6l1.35,0.55a5.77,5.77,0,0,1,2.42,1.63,3.68,3.68,0,0,1,.76,2.36,4.15,4.15,0,0,1-1.25,3.1,4.28,4.28,0,0,1-3.12,1.23,4.16,4.16,0,0,1-2.92-1.05,4.83,4.83,0,0,1-1.42-2.95l2.07-.46a3.53,3.53,0,0,0,.49,1.65,2.34,2.34,0,0,0,3.44.24,2.22,2.22,0,0,0,.63-1.62,2.28,2.28,0,0,0-.11-0.72,1.85,1.85,0,0,0-.34-0.61,2.74,2.74,0,0,0-.6-0.52,5.8,5.8,0,0,0-.88-0.46l-1.31-.54q-2.79-1.18-2.79-3.44a3.27,3.27,0,0,1,1.17-2.56,4.23,4.23,0,0,1,2.91-1A4.06,4.06,0,0,1,135.11,388.74Z"/><path class="cls-3" d="M139.9,393.58v6.71h-2v-6.71h-0.84v-1.85h0.84V388.6h2v3.14h1.54v1.85H139.9Z"/><path class="cls-3" d="M149.25,391.74h2v8.56h-2v-0.9a3.8,3.8,0,0,1-5.56-.14,4.77,4.77,0,0,1-1.15-3.27,4.63,4.63,0,0,1,1.15-3.21,3.71,3.71,0,0,1,2.88-1.28,3.64,3.64,0,0,1,2.68,1.23v-1ZM144.56,396a3,3,0,0,0,.66,2,2.16,2.16,0,0,0,1.71.78,2.27,2.27,0,0,0,1.78-.76,3.25,3.25,0,0,0,0-4,2.24,2.24,0,0,0-1.76-.76,2.19,2.19,0,0,0-1.71.77A2.85,2.85,0,0,0,144.56,396Z"/><path class="cls-3" d="M160,385.45h2V400.3h-2v-0.9a3.69,3.69,0,0,1-2.65,1.14,3.77,3.77,0,0,1-2.92-1.28,4.77,4.77,0,0,1-1.15-3.27,4.61,4.61,0,0,1,1.15-3.2,3.7,3.7,0,0,1,5.56-.06v-7.28ZM155.35,396a3,3,0,0,0,.66,2,2.16,2.16,0,0,0,1.71.78,2.27,2.27,0,0,0,1.78-.76,3.25,3.25,0,0,0,0-4,2.24,2.24,0,0,0-1.76-.76,2.19,2.19,0,0,0-1.71.77A2.85,2.85,0,0,0,155.35,396Z"/><path class="cls-3" d="M166.57,393.58v6.71h-2v-6.71h-0.84v-1.85h0.84V388.6h2v3.14h1.54v1.85h-1.54Z"/><path class="cls-3" d="M241,400.3V386.73h2a8.93,8.93,0,0,1,2.17.21,3.26,3.26,0,0,1,1.38.71,3.69,3.69,0,0,1,.91,1.29,3.91,3.91,0,0,1,.34,1.58,3.21,3.21,0,0,1-1.12,2.47,3.28,3.28,0,0,1,1.71,1.29,3.82,3.82,0,0,1-.49,4.82,3.69,3.69,0,0,1-1.52.94,8.84,8.84,0,0,1-2.31.25H241Zm2-7.74h0.64a2.37,2.37,0,0,0,1.67-.5,2,2,0,0,0,.53-1.49,1.87,1.87,0,0,0-.54-1.46,2.28,2.28,0,0,0-1.58-.5H243v3.95Zm0,5.82h1.27a3.14,3.14,0,0,0,2-.54,1.88,1.88,0,0,0,.69-1.49,1.91,1.91,0,0,0-.66-1.48,3.42,3.42,0,0,0-2.29-.59h-1v4.1Z"/><path class="cls-3" d="M257.54,391.74h2v8.56h-2v-0.9a3.8,3.8,0,0,1-5.56-.14,4.77,4.77,0,0,1-1.15-3.27,4.63,4.63,0,0,1,1.15-3.21,3.71,3.71,0,0,1,2.88-1.28,3.64,3.64,0,0,1,2.68,1.23v-1ZM252.85,396a3,3,0,0,0,.66,2,2.16,2.16,0,0,0,1.71.78A2.27,2.27,0,0,0,257,398a3.25,3.25,0,0,0,0-4,2.24,2.24,0,0,0-1.76-.76,2.19,2.19,0,0,0-1.71.77A2.85,2.85,0,0,0,252.85,396Z"/><path class="cls-3" d="M267,393.2l-1.63.87a1.13,1.13,0,0,0-1-.78,0.66,0.66,0,0,0-.47.18,0.6,0.6,0,0,0-.19.46,1.49,1.49,0,0,0,1.14,1,6.83,6.83,0,0,1,2.12,1.25,2.13,2.13,0,0,1,.54,1.54,2.69,2.69,0,0,1-.91,2.07,3.28,3.28,0,0,1-5.19-1.31l1.69-.78a3.67,3.67,0,0,0,.54.78,1.22,1.22,0,0,0,.86.33,0.85,0.85,0,0,0,1-.91,1.25,1.25,0,0,0-.77-1l-0.6-.29-0.61-.29a3.71,3.71,0,0,1-1.21-.84,2.08,2.08,0,0,1-.45-1.38,2.44,2.44,0,0,1,.76-1.85,2.68,2.68,0,0,1,1.9-.73A2.59,2.59,0,0,1,267,393.2Z"/><path class="cls-3" d="M277.13,396.48H271a2.6,2.6,0,0,0,.69,1.68,2.09,2.09,0,0,0,1.56.62,2,2,0,0,0,1.22-.35,5,5,0,0,0,1.08-1.3l1.67,0.93a6.65,6.65,0,0,1-.82,1.13,4.38,4.38,0,0,1-.92.77,3.73,3.73,0,0,1-1.06.44,5.18,5.18,0,0,1-1.24.14,4,4,0,0,1-3.08-1.23,4.62,4.62,0,0,1-1.16-3.29,4.74,4.74,0,0,1,1.13-3.29,4.29,4.29,0,0,1,6,0,4.74,4.74,0,0,1,1.09,3.31v0.47Zm-2-1.62a1.89,1.89,0,0,0-2-1.58,2.07,2.07,0,0,0-.68.11,2,2,0,0,0-.58.32,2,2,0,0,0-.44.5,2.31,2.31,0,0,0-.28.66h4Z"/><path class="cls-3" d="M281.27,385.45V400.3h-2V385.45h2Z"/><path class="cls-3" d="M285.75,385.45V400.3h-2V385.45h2Z"/><path class="cls-3" d="M294.56,391.74h2v8.56h-2v-0.9a3.8,3.8,0,0,1-5.56-.14,4.77,4.77,0,0,1-1.15-3.27,4.63,4.63,0,0,1,1.15-3.21,3.71,3.71,0,0,1,2.88-1.28,3.64,3.64,0,0,1,2.68,1.23v-1ZM289.87,396a3,3,0,0,0,.66,2,2.16,2.16,0,0,0,1.71.78A2.27,2.27,0,0,0,294,398a3.25,3.25,0,0,0,0-4,2.24,2.24,0,0,0-1.76-.76,2.19,2.19,0,0,0-1.71.77A2.85,2.85,0,0,0,289.87,396Z"/><path class="cls-3" d="M299,391.74h2v0.79a3.24,3.24,0,0,1,2.34-1,3,3,0,0,1,2.33.94,3.85,3.85,0,0,1,.72,2.61v5.25h-2v-4.78a3.13,3.13,0,0,0-.35-1.75,1.42,1.42,0,0,0-1.25-.49,1.53,1.53,0,0,0-1.4.65,4.47,4.47,0,0,0-.4,2.24v4.13h-2v-8.56Z"/><path class="cls-3" d="M315.23,385.45h2V400.3h-2v-0.9a3.69,3.69,0,0,1-2.65,1.14,3.77,3.77,0,0,1-2.92-1.28,4.77,4.77,0,0,1-1.15-3.27,4.61,4.61,0,0,1,1.15-3.2,3.7,3.7,0,0,1,5.56-.06v-7.28ZM310.53,396a3,3,0,0,0,.66,2,2.16,2.16,0,0,0,1.71.78,2.27,2.27,0,0,0,1.78-.76,3.25,3.25,0,0,0,0-4,2.24,2.24,0,0,0-1.76-.76,2.19,2.19,0,0,0-1.71.77A2.85,2.85,0,0,0,310.53,396Z"/><path class="cls-3" d="M410,388.74l-1.66,1a2.86,2.86,0,0,0-.89-1.05,2.07,2.07,0,0,0-1.13-.28,2.09,2.09,0,0,0-1.42.48,1.5,1.5,0,0,0-.56,1.2,1.89,1.89,0,0,0,1.48,1.6l1.35,0.55a5.77,5.77,0,0,1,2.42,1.63,3.68,3.68,0,0,1,.76,2.36,4.15,4.15,0,0,1-1.25,3.1,4.28,4.28,0,0,1-3.12,1.23,4.16,4.16,0,0,1-2.92-1.05,4.83,4.83,0,0,1-1.42-2.95l2.07-.46a3.53,3.53,0,0,0,.49,1.65,2.34,2.34,0,0,0,3.44.24,2.22,2.22,0,0,0,.63-1.62,2.28,2.28,0,0,0-.11-0.72,1.85,1.85,0,0,0-.34-0.61,2.74,2.74,0,0,0-.6-0.52,5.8,5.8,0,0,0-.88-0.46L405,393.5q-2.79-1.18-2.79-3.44a3.27,3.27,0,0,1,1.17-2.56,4.23,4.23,0,0,1,2.91-1A4.06,4.06,0,0,1,410,388.74Z"/><path class="cls-3" d="M419.11,392.11v2.63a4.82,4.82,0,0,0-1.21-1.13,2.36,2.36,0,0,0-1.24-.32,2.44,2.44,0,0,0-1.85.78,2.74,2.74,0,0,0-.74,2,2.81,2.81,0,0,0,.71,2,2.4,2.4,0,0,0,1.84.77,2.51,2.51,0,0,0,1.26-.31,5,5,0,0,0,1.24-1.16v2.61a5.19,5.19,0,0,1-2.41.62,4.61,4.61,0,0,1-3.32-1.28,4.28,4.28,0,0,1-1.34-3.21,4.34,4.34,0,0,1,1.35-3.23,4.58,4.58,0,0,1,3.32-1.32A5,5,0,0,1,419.11,392.11Z"/><path class="cls-3" d="M421.49,385.45h2v7a3.41,3.41,0,0,1,2.33-.95,3,3,0,0,1,2.32.94,3.83,3.83,0,0,1,.74,2.61v5.25h-2v-5.06a2.42,2.42,0,0,0-.36-1.49,1.41,1.41,0,0,0-1.17-.46,1.61,1.61,0,0,0-1.46.64,4.4,4.4,0,0,0-.41,2.23v4.14h-2V385.45Z"/><path class="cls-3" d="M432.43,391.74l2.24,4.89,2.42-5.67,2.43,5.67,2.21-4.89H444l-4.48,9.2-2.38-5.51-2.41,5.51-4.47-9.2h2.22Z"/><path class="cls-3" d="M452.81,396.48h-6.13a2.6,2.6,0,0,0,.69,1.68,2.09,2.09,0,0,0,1.56.62,2,2,0,0,0,1.22-.35,5,5,0,0,0,1.08-1.3l1.67,0.93a6.65,6.65,0,0,1-.82,1.13,4.38,4.38,0,0,1-.92.77,3.73,3.73,0,0,1-1.06.44,5.18,5.18,0,0,1-1.24.14,4,4,0,0,1-3.08-1.23,4.62,4.62,0,0,1-1.16-3.29,4.74,4.74,0,0,1,1.13-3.29,4.29,4.29,0,0,1,6,0,4.74,4.74,0,0,1,1.09,3.31v0.47Zm-2-1.62a1.89,1.89,0,0,0-2-1.58,2.07,2.07,0,0,0-.68.11,2,2,0,0,0-.58.32,2,2,0,0,0-.44.5,2.31,2.31,0,0,0-.28.66h4Z"/><path class="cls-3" d="M454.68,388.18A1.29,1.29,0,0,1,456,386.9a1.25,1.25,0,0,1,.91.38,1.22,1.22,0,0,1,.38.91,1.25,1.25,0,0,1-.38.91,1.22,1.22,0,0,1-.91.38A1.29,1.29,0,0,1,454.68,388.18Zm2.28,3.56v8.56h-2v-8.56h2Z"/><path class="cls-3" d="M462.3,398.43h5.09v1.86h-9l5.55-6.71h-4.37v-1.85h8.28Z"/><g class="cls-7"><line class="cls-8" x1="127.1" y1="435" x2="237.98" y2="324.12"/><line class="cls-8" x1="127.1" y1="423.24" x2="237.98" y2="312.36"/><line class="cls-8" x1="127.1" y1="411.48" x2="237.98" y2="300.6"/><line class="cls-8" x1="127.1" y1="399.72" x2="237.98" y2="288.84"/><line class="cls-8" x1="127.1" y1="387.96" x2="237.98" y2="277.08"/><line class="cls-8" x1="127.1" y1="376.2" x2="237.98" y2="265.32"/><line class="cls-8" x1="127.1" y1="364.44" x2="237.98" y2="253.56"/><line class="cls-8" x1="127.1" y1="352.68" x2="237.98" y2="241.8"/><line class="cls-8" x1="127.1" y1="340.92" x2="237.98" y2="230.04"/><line class="cls-8" x1="127.1" y1="329.16" x2="237.98" y2="218.28"/><line class="cls-8" x1="127.1" y1="317.4" x2="237.98" y2="206.52"/><line class="cls-8" x1="127.1" y1="305.64" x2="237.98" y2="194.76"/><line class="cls-8" x1="127.1" y1="293.88" x2="237.98" y2="183"/><line class="cls-8" x1="127.1" y1="282.12" x2="237.98" y2="171.24"/><line class="cls-8" x1="127.1" y1="270.36" x2="237.98" y2="159.48"/><line class="cls-8" x1="127.1" y1="258.6" x2="237.98" y2="147.72"/><line class="cls-8" x1="127.1" y1="246.84" x2="237.98" y2="135.96"/><line class="cls-8" x1="127.1" y1="235.08" x2="237.98" y2="124.2"/><line class="cls-8" x1="127.1" y1="223.32" x2="237.98" y2="112.44"/><line class="cls-8" x1="127.1" y1="211.56" x2="237.98" y2="100.68"/><line class="cls-8" x1="127.1" y1="199.8" x2="237.98" y2="88.92"/><line class="cls-8" x1="127.1" y1="188.04" x2="237.98" y2="77.16"/><line class="cls-8" x1="127.1" y1="176.28" x2="237.98" y2="65.4"/><line class="cls-8" x1="127.1" y1="164.52" x2="237.98" y2="53.64"/><line class="cls-8" x1="127.1" y1="152.76" x2="237.98" y2="41.88"/><line class="cls-8" x1="127.1" y1="141" x2="237.98" y2="30.12"/></g><rect class="cls-9" x="54.14" y="121.5" width="65.67" height="245.55"/><g class="cls-10"><line class="cls-8" x1="282.42" y1="429.12" x2="393.29" y2="318.24"/><line class="cls-8" x1="282.42" y1="417.36" x2="393.29" y2="306.48"/><line class="cls-8" x1="282.42" y1="405.6" x2="393.29" y2="294.72"/><line class="cls-8" x1="282.42" y1="393.84" x2="393.29" y2="282.96"/><line class="cls-8" x1="282.42" y1="382.08" x2="393.29" y2="271.2"/><line class="cls-8" x1="282.42" y1="370.32" x2="393.29" y2="259.44"/><line class="cls-8" x1="282.42" y1="358.56" x2="393.29" y2="247.68"/><line class="cls-8" x1="282.42" y1="346.8" x2="393.29" y2="235.92"/><line class="cls-8" x1="282.42" y1="335.04" x2="393.29" y2="224.16"/><line class="cls-8" x1="282.42" y1="323.28" x2="393.29" y2="212.4"/><line class="cls-8" x1="282.42" y1="311.52" x2="393.29" y2="200.64"/><line class="cls-8" x1="282.42" y1="299.76" x2="393.29" y2="188.88"/><line class="cls-8" x1="282.42" y1="288" x2="393.29" y2="177.12"/><line class="cls-8" x1="282.42" y1="276.24" x2="393.29" y2="165.36"/><line class="cls-8" x1="282.42" y1="264.48" x2="393.29" y2="153.6"/><line class="cls-8" x1="282.42" y1="252.72" x2="393.29" y2="141.84"/><line class="cls-8" x1="282.42" y1="240.96" x2="393.29" y2="130.08"/><line class="cls-8" x1="282.42" y1="229.2" x2="393.29" y2="118.32"/><line class="cls-8" x1="282.42" y1="217.44" x2="393.29" y2="106.56"/><line class="cls-8" x1="282.42" y1="205.68" x2="393.29" y2="94.8"/><line class="cls-8" x1="282.42" y1="193.92" x2="393.29" y2="83.04"/><line class="cls-8" x1="282.42" y1="182.16" x2="393.29" y2="71.28"/><line class="cls-8" x1="282.42" y1="170.4" x2="393.29" y2="59.52"/><line class="cls-8" x1="282.42" y1="158.64" x2="393.29" y2="47.76"/></g><rect class="cls-9" x="209.59" y="207.9" width="65.67" height="159.15"/><g class="cls-11"><line class="cls-8" x1="437.73" y1="427.16" x2="548.61" y2="316.28"/><line class="cls-8" x1="437.73" y1="415.4" x2="548.61" y2="304.52"/><line class="cls-8" x1="437.73" y1="403.64" x2="548.61" y2="292.76"/><line class="cls-8" x1="437.73" y1="391.88" x2="548.61" y2="281"/><line class="cls-8" x1="437.73" y1="380.12" x2="548.61" y2="269.24"/><line class="cls-8" x1="437.73" y1="368.36" x2="548.61" y2="257.48"/><line class="cls-8" x1="437.73" y1="356.6" x2="548.61" y2="245.72"/><line class="cls-8" x1="437.73" y1="344.84" x2="548.61" y2="233.96"/><line class="cls-8" x1="437.73" y1="333.08" x2="548.61" y2="222.2"/><line class="cls-8" x1="437.73" y1="321.32" x2="548.61" y2="210.44"/><line class="cls-8" x1="437.73" y1="309.56" x2="548.61" y2="198.68"/><line class="cls-8" x1="437.73" y1="297.8" x2="548.61" y2="186.92"/><line class="cls-8" x1="437.73" y1="286.04" x2="548.61" y2="175.16"/><line class="cls-8" x1="437.73" y1="274.28" x2="548.61" y2="163.4"/><line class="cls-8" x1="437.73" y1="262.52" x2="548.61" y2="151.64"/><line class="cls-8" x1="437.73" y1="250.76" x2="548.61" y2="139.88"/><line class="cls-8" x1="437.73" y1="239" x2="548.61" y2="128.12"/><line class="cls-8" x1="437.73" y1="227.24" x2="548.61" y2="116.36"/><line class="cls-8" x1="437.73" y1="215.48" x2="548.61" y2="104.6"/><line class="cls-8" x1="437.73" y1="203.72" x2="548.61" y2="92.84"/><line class="cls-8" x1="437.73" y1="191.96" x2="548.61" y2="81.08"/><line class="cls-8" x1="437.73" y1="180.2" x2="548.61" y2="69.32"/><line class="cls-8" x1="437.73" y1="168.44" x2="548.61" y2="57.56"/></g><rect class="cls-9" x="365.03" y="203.35" width="65.67" height="163.7"/><rect class="cls-12" x="177.82" y="47.74" width="14.11" height="14.11"/><g class="cls-13"><line class="cls-14" x1="268.53" y1="77.39" x2="321.75" y2="24.17"/><line class="cls-14" x1="268.53" y1="71.74" x2="321.75" y2="18.52"/><line class="cls-14" x1="268.53" y1="66.1" x2="321.75" y2="12.88"/><line class="cls-14" x1="268.53" y1="60.45" x2="321.75" y2="7.23"/><line class="cls-14" x1="268.53" y1="54.81" x2="321.75" y2="1.59"/><line class="cls-14" x1="268.53" y1="49.16" x2="321.75" y2="-4.05"/></g><rect class="cls-2" x="269" y="48.5" width="14.11" height="14.11"/><path class="cls-3" d="M300,50.64h-3.68v2.54h3.55v1.5h-3.55v5h-1.59V49.15H300v1.5Z"/><path class="cls-3" d="M301.37,53h1.54v0.59a3,3,0,0,1,.75-0.61,1.73,1.73,0,0,1,.79-0.17,2.48,2.48,0,0,1,1.27.4L305,54.66a1.47,1.47,0,0,0-.86-0.31q-1.26,0-1.26,1.9V59.7h-1.54V53Z"/><path class="cls-3" d="M311.42,53H313V59.7h-1.54V59a3,3,0,0,1-4.33-.11,3.72,3.72,0,0,1-.89-2.54,3.6,3.6,0,0,1,.89-2.5,2.89,2.89,0,0,1,2.24-1,2.83,2.83,0,0,1,2.09,1V53Zm-3.65,3.31a2.32,2.32,0,0,0,.51,1.56,1.68,1.68,0,0,0,1.33.61,1.76,1.76,0,0,0,1.38-.59,2.53,2.53,0,0,0,0-3.09,1.74,1.74,0,0,0-1.37-.59,1.7,1.7,0,0,0-1.33.6A2.22,2.22,0,0,0,307.77,56.35Z"/><path class="cls-3" d="M316.44,53v3.82q0,1.65,1.31,1.65t1.3-1.65V53h1.54V56.9a4.27,4.27,0,0,1-.2,1.38,2.31,2.31,0,0,1-.66.94,3.23,3.23,0,0,1-4,0,2.35,2.35,0,0,1-.68-0.94,3.78,3.78,0,0,1-.19-1.38V53h1.54Z"/><path class="cls-3" d="M328.6,56.73h-4.77a2,2,0,0,0,.53,1.31,1.63,1.63,0,0,0,1.21.48,1.57,1.57,0,0,0,.95-0.27,3.9,3.9,0,0,0,.84-1l1.3,0.72a5.1,5.1,0,0,1-.64.88,3.35,3.35,0,0,1-.72.6,2.87,2.87,0,0,1-.83.35,4,4,0,0,1-1,.11,3.13,3.13,0,0,1-2.39-1,3.59,3.59,0,0,1-.9-2.56,3.69,3.69,0,0,1,.88-2.56,3.33,3.33,0,0,1,4.66,0,3.69,3.69,0,0,1,.85,2.58v0.36ZM327,55.48a1.47,1.47,0,0,0-1.55-1.23,1.58,1.58,0,0,0-.53.09,1.47,1.47,0,0,0-.45.25,1.54,1.54,0,0,0-.35.39,1.76,1.76,0,0,0-.22.51H327Z"/><path class="cls-3" d="M330.28,53h1.54v0.62a2.52,2.52,0,0,1,1.82-.8,2.3,2.3,0,0,1,1.81.73,3,3,0,0,1,.56,2V59.7h-1.54V56a2.44,2.44,0,0,0-.27-1.36,1.1,1.1,0,0,0-1-.38,1.19,1.19,0,0,0-1.09.5,3.48,3.48,0,0,0-.31,1.74V59.7h-1.54V53Z"/><path class="cls-3" d="M203.13,58.94l2.22-11.35L209,55.8l3.75-8.2,2,11.35h-1.63l-1-6.37-3.12,6.86-3-6.86-1.13,6.38h-1.65Z"/><path class="cls-3" d="M221.57,52.29h1.54v6.66h-1.54v-0.7a3,3,0,0,1-4.33-.11,3.71,3.71,0,0,1-.9-2.54,3.6,3.6,0,0,1,.9-2.5,2.89,2.89,0,0,1,2.24-1,2.83,2.83,0,0,1,2.08,1V52.29Zm-4-2.12a0.91,0.91,0,0,1,.29-0.68,1,1,0,0,1,1.38,0,0.92,0.92,0,0,1,.29.68,1,1,0,0,1-.29.7,1,1,0,0,1-.69.28,1,1,0,0,1-.7-0.29A1,1,0,0,1,217.53,50.17Zm0.39,5.43a2.32,2.32,0,0,0,.51,1.56,1.68,1.68,0,0,0,1.33.61,1.77,1.77,0,0,0,1.38-.59,2.53,2.53,0,0,0,0-3.09,1.74,1.74,0,0,0-1.37-.59,1.7,1.7,0,0,0-1.33.6A2.22,2.22,0,0,0,217.92,55.59Zm2.47-5.43a0.91,0.91,0,0,1,.29-0.68,1,1,0,0,1,.69-0.29,1,1,0,0,1,1,1,1,1,0,0,1-.29.7,1,1,0,0,1-.69.28A1,1,0,0,1,220.39,50.17Z"/><path class="cls-3" d="M225.06,52.29h1.54V52.9a2.52,2.52,0,0,1,1.82-.8,2.3,2.3,0,0,1,1.81.73,3,3,0,0,1,.56,2v4.08h-1.54V55.23a2.43,2.43,0,0,0-.27-1.36,1.1,1.1,0,0,0-1-.38,1.19,1.19,0,0,0-1.09.5,3.47,3.47,0,0,0-.31,1.74v3.21h-1.54V52.29Z"/><path class="cls-3" d="M232.73,52.29h1.54V52.9a2.52,2.52,0,0,1,1.82-.8,2.3,2.3,0,0,1,1.81.73,3,3,0,0,1,.56,2v4.08h-1.54V55.23a2.43,2.43,0,0,0-.27-1.36,1.1,1.1,0,0,0-1-.38,1.19,1.19,0,0,0-1.09.5,3.47,3.47,0,0,0-.31,1.74v3.21h-1.54V52.29Z"/><path class="cls-3" d="M246.47,56H241.7a2,2,0,0,0,.53,1.31,1.62,1.62,0,0,0,1.21.48,1.57,1.57,0,0,0,1-.27,3.9,3.9,0,0,0,.84-1l1.3,0.72a5.1,5.1,0,0,1-.64.88,3.36,3.36,0,0,1-.72.6,2.86,2.86,0,0,1-.83.35,4,4,0,0,1-1,.11,3.14,3.14,0,0,1-2.39-1,3.59,3.59,0,0,1-.9-2.56,3.69,3.69,0,0,1,.88-2.56,3.33,3.33,0,0,1,4.66,0,3.68,3.68,0,0,1,.85,2.58V56Zm-1.58-1.26a1.47,1.47,0,0,0-1.55-1.23,1.58,1.58,0,0,0-.53.09,1.48,1.48,0,0,0-.45.25,1.54,1.54,0,0,0-.35.39,1.79,1.79,0,0,0-.22.51h3.09Z"/><path class="cls-3" d="M248.16,52.29h1.54v0.59a2.94,2.94,0,0,1,.75-0.61,1.72,1.72,0,0,1,.79-0.17,2.48,2.48,0,0,1,1.27.4l-0.7,1.41a1.47,1.47,0,0,0-.85-0.31q-1.26,0-1.26,1.9v3.45h-1.54V52.29Z"/></svg>