<svg id="Charts" xmlns="http://www.w3.org/2000/svg" xmlns:xlink="http://www.w3.org/1999/xlink" viewBox="0 0 516.28 430.48"><defs><style>.cls-1,.cls-17,.cls-2,.cls-4,.cls-8,.cls-9{fill:none;}.cls-10,.cls-15,.cls-17,.cls-2,.cls-4,.cls-8,.cls-9{stroke:#fff;stroke-miterlimit:10;}.cls-15,.cls-2{stroke-width:0.94px;}.cls-3{clip-path:url(#clip-path);}.cls-4{stroke-width:1.57px;}.cls-5{clip-path:url(#clip-path-2);}.cls-10,.cls-15,.cls-6{fill:#fff;}.cls-10,.cls-15,.cls-7,.cls-9{opacity:0.4;}.cls-10{stroke-width:1.96px;}.cls-11{clip-path:url(#clip-path-3);}.cls-12{clip-path:url(#clip-path-4);}.cls-13{clip-path:url(#clip-path-5);}.cls-14{clip-path:url(#clip-path-6);}.cls-16{clip-path:url(#clip-path-7);}.cls-17{stroke-width:0.75px;}</style><clipPath id="clip-path"><rect class="cls-1" x="168.89" y="-291.89" width="98.64" height="212.05"/></clipPath><clipPath id="clip-path-2"><rect class="cls-1" x="398.58" y="-254.27" width="98.64" height="174.43"/></clipPath><clipPath id="clip-path-3"><rect class="cls-1" x="126.46" y="207.23" width="65.76" height="158.7"/></clipPath><clipPath id="clip-path-4"><rect class="cls-1" x="281.91" y="130.62" width="65.76" height="235.31"/></clipPath><clipPath id="clip-path-5"><rect class="cls-1" x="437.35" y="157.98" width="65.76" height="207.95"/></clipPath><clipPath id="clip-path-6"><rect class="cls-1" x="288.38" y="605.88" width="197" height="263.74"/></clipPath><clipPath id="clip-path-7"><rect class="cls-2" x="269" y="45.5" width="14.11" height="14.11"/></clipPath></defs><title>Charts_</title><g class="cls-3"><line class="cls-4" x1="168.36" y1="15.7" x2="279.23" y2="-95.17"/><line class="cls-4" x1="168.36" y1="3.94" x2="279.23" y2="-106.93"/></g><g class="cls-5"><line class="cls-4" x1="398.48" y1="17.66" x2="509.36" y2="-93.21"/><line class="cls-4" x1="398.48" y1="5.9" x2="509.36" y2="-104.97"/></g><path class="cls-6" d="M123.51,23.61V8.54h3.16a11.51,11.51,0,0,1,3.59.45,6.73,6.73,0,0,1,2.57,1.49,7.21,7.21,0,0,1,2.33,5.6,7.34,7.34,0,0,1-5,7.12,11.63,11.63,0,0,1-3.54.42h-3.12Zm2.28-2.14h1a8.55,8.55,0,0,0,2.55-.32,5.18,5.18,0,0,0,3.52-5.08,5.24,5.24,0,0,0-1.66-4,6.29,6.29,0,0,0-4.4-1.38h-1v10.8Z"/><path class="cls-6" d="M139.81,14.1v5.46q0,2.36,1.87,2.36t1.87-2.36V14.1h2.2v5.51a6.14,6.14,0,0,1-.28,2,3.32,3.32,0,0,1-.95,1.34,4.62,4.62,0,0,1-5.65,0,3.36,3.36,0,0,1-1-1.34,5.43,5.43,0,0,1-.27-2V14.1h2.2Z"/><path class="cls-6" d="M148.51,14.1h2.2V15a4.2,4.2,0,0,1,1.07-.87,2.46,2.46,0,0,1,1.13-.24,3.55,3.55,0,0,1,1.82.57l-1,2A2.1,2.1,0,0,0,152.5,16q-1.8,0-1.8,2.71v4.93h-2.2V14.1Z"/><path class="cls-6" d="M163.22,14.51v2.92a5.33,5.33,0,0,0-1.35-1.26,2.63,2.63,0,0,0-1.38-.35,2.71,2.71,0,0,0-2.06.87,3,3,0,0,0-.82,2.18,3.12,3.12,0,0,0,.79,2.2,2.67,2.67,0,0,0,2,.86,2.79,2.79,0,0,0,1.4-.34,5.55,5.55,0,0,0,1.38-1.29v2.9a5.77,5.77,0,0,1-2.68.69,5.12,5.12,0,0,1-3.69-1.43,4.76,4.76,0,0,1-1.48-3.56,4.82,4.82,0,0,1,1.5-3.59,5.09,5.09,0,0,1,3.69-1.46A5.52,5.52,0,0,1,163.22,14.51Z"/><path class="cls-6" d="M165.86,7.12h2.2v7.77a3.78,3.78,0,0,1,2.59-1.05,3.34,3.34,0,0,1,2.58,1,4.25,4.25,0,0,1,.82,2.9v5.83h-2.2V18a2.68,2.68,0,0,0-.41-1.66,1.56,1.56,0,0,0-1.3-.51,1.79,1.79,0,0,0-1.62.71,4.89,4.89,0,0,0-.46,2.48v4.6h-2.2V7.12Z"/><path class="cls-6" d="M182.36,15.72l-1.82,1a1.26,1.26,0,0,0-1.06-.87,0.73,0.73,0,0,0-.52.2,0.67,0.67,0,0,0-.21.51q0,0.55,1.27,1.08A7.57,7.57,0,0,1,182.37,19a2.37,2.37,0,0,1,.61,1.71,3,3,0,0,1-1,2.3,3.64,3.64,0,0,1-5.77-1.46l1.88-.87a4.09,4.09,0,0,0,.6.87,1.36,1.36,0,0,0,1,.37,0.94,0.94,0,0,0,1.11-1,1.39,1.39,0,0,0-.86-1.09l-0.66-.32-0.67-.32a4.13,4.13,0,0,1-1.35-.94,2.31,2.31,0,0,1-.5-1.53,2.71,2.71,0,0,1,.85-2.05,3,3,0,0,1,2.11-.81A2.88,2.88,0,0,1,182.36,15.72Z"/><path class="cls-6" d="M193.61,19.38h-6.82a2.89,2.89,0,0,0,.76,1.87,2.32,2.32,0,0,0,1.73.68,2.25,2.25,0,0,0,1.36-.39,5.56,5.56,0,0,0,1.2-1.45l1.86,1a7.36,7.36,0,0,1-.91,1.25,4.84,4.84,0,0,1-1,.86,4.12,4.12,0,0,1-1.18.49,5.73,5.73,0,0,1-1.38.16,4.48,4.48,0,0,1-3.42-1.37,5.13,5.13,0,0,1-1.29-3.65,5.27,5.27,0,0,1,1.25-3.65,4.76,4.76,0,0,1,6.66,0,5.26,5.26,0,0,1,1.21,3.68v0.52Zm-2.26-1.8a2.1,2.1,0,0,0-2.22-1.76,2.29,2.29,0,0,0-.75.12,2.14,2.14,0,0,0-.64.35,2.23,2.23,0,0,0-.49.55,2.56,2.56,0,0,0-.31.73h4.41Z"/><path class="cls-6" d="M198.45,16.15v7.46h-2.2V16.15h-0.94V14.1h0.94V10.62h2.2V14.1h1.71v2.05h-1.71Z"/><path class="cls-6" d="M204.81,21.54h5.65v2.07h-10l6.16-7.46h-4.85V14.1H211Z"/><path class="cls-6" d="M214.72,14.1v5.46q0,2.36,1.87,2.36t1.87-2.36V14.1h2.2v5.51a6.14,6.14,0,0,1-.28,2,3.32,3.32,0,0,1-.95,1.34,4.62,4.62,0,0,1-5.65,0,3.36,3.36,0,0,1-1-1.34,5.43,5.43,0,0,1-.27-2V14.1h2.2Z"/><path class="cls-6" d="M223.42,14.1h2.21V15a3.6,3.6,0,0,1,2.6-1.14,3.28,3.28,0,0,1,2.59,1,4.28,4.28,0,0,1,.8,2.9v5.83h-2.21V18.31a3.48,3.48,0,0,0-.39-1.94,1.58,1.58,0,0,0-1.39-.55,1.7,1.7,0,0,0-1.55.72,5,5,0,0,0-.45,2.49v4.58h-2.21V14.1Z"/><path class="cls-6" d="M243.59,23.39q0,0.67,0,1.19a8.34,8.34,0,0,1-.12.9,4,4,0,0,1-.92,1.85A4.45,4.45,0,0,1,239,28.81a4.72,4.72,0,0,1-3.13-1,4.21,4.21,0,0,1-1.46-2.92h2.21a2.5,2.5,0,0,0,.42,1.08,2.36,2.36,0,0,0,2,.89q2.41,0,2.41-2.95V22.55a4.1,4.1,0,0,1-3,1.34,4.05,4.05,0,0,1-3.18-1.41,5.21,5.21,0,0,1-1.25-3.56,5.49,5.49,0,0,1,1.16-3.54,4,4,0,0,1,3.3-1.54,3.83,3.83,0,0,1,3,1.34V14.1h2.2v9.29Zm-2.11-4.51a3.19,3.19,0,0,0-.74-2.21,2.46,2.46,0,0,0-1.92-.85,2.37,2.37,0,0,0-2,.93,3.36,3.36,0,0,0-.65,2.15,3.33,3.33,0,0,0,.65,2.13,2.37,2.37,0,0,0,2,.91,2.42,2.42,0,0,0,2-.92A3.26,3.26,0,0,0,241.48,18.88Z"/><path class="cls-6" d="M251.89,15.72l-1.82,1a1.26,1.26,0,0,0-1.06-.87,0.73,0.73,0,0,0-.52.2,0.67,0.67,0,0,0-.21.51q0,0.55,1.27,1.08A7.57,7.57,0,0,1,251.9,19a2.37,2.37,0,0,1,.61,1.71,3,3,0,0,1-1,2.3,3.64,3.64,0,0,1-5.77-1.46l1.88-.87a4.09,4.09,0,0,0,.6.87,1.36,1.36,0,0,0,1,.37,0.94,0.94,0,0,0,1.11-1,1.39,1.39,0,0,0-.86-1.09l-0.66-.32-0.67-.32a4.13,4.13,0,0,1-1.35-.94,2.31,2.31,0,0,1-.5-1.53,2.71,2.71,0,0,1,.85-2.05,3,3,0,0,1,2.11-.81A2.88,2.88,0,0,1,251.89,15.72Z"/><path class="cls-6" d="M254.15,10.15a1.43,1.43,0,0,1,1.43-1.42,1.38,1.38,0,0,1,1,.42,1.35,1.35,0,0,1,.42,1,1.38,1.38,0,0,1-.42,1,1.35,1.35,0,0,1-1,.42A1.43,1.43,0,0,1,254.15,10.15Zm2.53,4v9.51h-2.2V14.1h2.2Z"/><path class="cls-6" d="M259.46,14.1h2.21V15a3.6,3.6,0,0,1,2.6-1.14,3.28,3.28,0,0,1,2.59,1,4.28,4.28,0,0,1,.8,2.9v5.83h-2.21V18.31a3.48,3.48,0,0,0-.39-1.94,1.58,1.58,0,0,0-1.39-.55,1.7,1.7,0,0,0-1.55.72,5,5,0,0,0-.45,2.49v4.58h-2.21V14.1Z"/><path class="cls-6" d="M270.09,10.15a1.43,1.43,0,0,1,1.43-1.42,1.38,1.38,0,0,1,1,.42,1.35,1.35,0,0,1,.42,1,1.38,1.38,0,0,1-.42,1,1.35,1.35,0,0,1-1,.42A1.43,1.43,0,0,1,270.09,10.15Zm2.53,4v9.51h-2.2V14.1h2.2Z"/><path class="cls-6" d="M277.67,16.15v7.46h-2.2V16.15h-0.94V14.1h0.94V10.62h2.2V14.1h1.71v2.05h-1.71Z"/><path class="cls-6" d="M280.54,10.15A1.43,1.43,0,0,1,282,8.73a1.38,1.38,0,0,1,1,.42,1.35,1.35,0,0,1,.42,1,1.38,1.38,0,0,1-.42,1,1.35,1.35,0,0,1-1,.42A1.43,1.43,0,0,1,280.54,10.15Zm2.53,4v9.51h-2.2V14.1h2.2Z"/><path class="cls-6" d="M292.87,14.1h2.21v9.51h-2.21v-1a4.22,4.22,0,0,1-6.18-.16,5.3,5.3,0,0,1-1.28-3.63,5.14,5.14,0,0,1,1.28-3.56,4.12,4.12,0,0,1,3.2-1.43,4,4,0,0,1,3,1.37V14.1Zm-5.21,4.73a3.31,3.31,0,0,0,.73,2.23,2.4,2.4,0,0,0,1.89.87,2.52,2.52,0,0,0,2-.84,3.25,3.25,0,0,0,.75-2.21,3.25,3.25,0,0,0-.75-2.21,2.49,2.49,0,0,0-2-.85,2.43,2.43,0,0,0-1.89.86A3.17,3.17,0,0,0,287.65,18.83Z"/><path class="cls-6" d="M300.11,16.15v7.46h-2.2V16.15H297V14.1h0.94V10.62h2.2V14.1h1.71v2.05h-1.71Z"/><path class="cls-6" d="M303,10.15a1.43,1.43,0,0,1,1.43-1.42,1.38,1.38,0,0,1,1,.42,1.35,1.35,0,0,1,.42,1,1.38,1.38,0,0,1-.42,1,1.35,1.35,0,0,1-1,.42A1.43,1.43,0,0,1,303,10.15Zm2.53,4v9.51h-2.2V14.1h2.2Z"/><path class="cls-6" d="M309.48,14.1l2.46,5.34,2.45-5.34h2.47l-4.94,10.17L307,14.1h2.46Z"/><path class="cls-6" d="M326.67,19.38h-6.82a2.89,2.89,0,0,0,.76,1.87,2.32,2.32,0,0,0,1.73.68,2.25,2.25,0,0,0,1.36-.39,5.56,5.56,0,0,0,1.2-1.45l1.86,1a7.36,7.36,0,0,1-.91,1.25,4.84,4.84,0,0,1-1,.86,4.12,4.12,0,0,1-1.18.49,5.73,5.73,0,0,1-1.38.16,4.48,4.48,0,0,1-3.42-1.37,5.13,5.13,0,0,1-1.29-3.65,5.27,5.27,0,0,1,1.25-3.65,4.76,4.76,0,0,1,6.66,0,5.26,5.26,0,0,1,1.21,3.68v0.52Zm-2.26-1.8a2.1,2.1,0,0,0-2.22-1.76,2.29,2.29,0,0,0-.75.12,2.14,2.14,0,0,0-.64.35,2.23,2.23,0,0,0-.49.55,2.56,2.56,0,0,0-.31.73h4.41Z"/><path class="cls-6" d="M337.8,7l2,0.78a25,25,0,0,0-1.49,4.71,22,22,0,0,0-.32,2.3q-0.11,1.21-.11,2.63T338,20a22,22,0,0,0,.32,2.3,24.21,24.21,0,0,0,1.49,4.7l-2,.78a23.86,23.86,0,0,1-2.14-10.42A23.86,23.86,0,0,1,337.8,7Z"/><path class="cls-6" d="M346.19,21.47h5.62v2.14H341.67l5.23-6.34q0.77-.95,1.29-1.64a12.43,12.43,0,0,0,.8-1.16,3.27,3.27,0,0,0,.56-1.65,2.35,2.35,0,0,0-.74-1.77,2.55,2.55,0,0,0-1.84-.71q-2.29,0-2.62,2.71h-2.27q0.55-4.77,4.81-4.77a4.86,4.86,0,0,1,3.46,1.31,4.25,4.25,0,0,1,1.41,3.24,4.92,4.92,0,0,1-.65,2.41,11.84,11.84,0,0,1-1,1.46q-0.64.85-1.62,2Z"/><path class="cls-6" d="M354.37,16A9.09,9.09,0,0,1,356,10.22a4.39,4.39,0,0,1,7.29,0A9.26,9.26,0,0,1,365,16.07a9.24,9.24,0,0,1-1.68,5.84,4.47,4.47,0,0,1-3.63,1.94A4.52,4.52,0,0,1,356,21.91,9.41,9.41,0,0,1,354.37,16Zm2.25,0a8.94,8.94,0,0,0,.87,4.17,2.32,2.32,0,0,0,4.43,0,8.53,8.53,0,0,0,.88-4.09,8.59,8.59,0,0,0-.88-4.1,2.31,2.31,0,0,0-4.42,0A8.33,8.33,0,0,0,356.62,16Z"/><path class="cls-6" d="M369.74,10.67h-2.61l1.25-2.14H372V23.61h-2.28V10.67Z"/><path class="cls-6" d="M382.76,8l1.67,1.25-3.6,4.9,0.5-.06,0.32,0a4.24,4.24,0,0,1,3.17,1.41,4.66,4.66,0,0,1,1.33,3.34,5.05,5.05,0,0,1-5,5,5.08,5.08,0,0,1-3.59-1.46A4.62,4.62,0,0,1,376,19a6.49,6.49,0,0,1,1.47-3.79Zm1.17,11a2.86,2.86,0,1,0-2.84,2.81A2.85,2.85,0,0,0,383.93,19Z"/><path class="cls-6" d="M390.64,27.79l-2-.78a24.21,24.21,0,0,0,1.49-4.7,24.84,24.84,0,0,0,.44-4.94,24.87,24.87,0,0,0-.44-4.93,25,25,0,0,0-1.49-4.71l2-.78a24,24,0,0,1,2.13,10.42A24,24,0,0,1,390.64,27.79Z"/><g class="cls-7"><path class="cls-6" d="M154.42,427.18H152.7l-0.71-.73a4.56,4.56,0,0,1-2.52.73,4.71,4.71,0,0,1-3.19-1.22,4.37,4.37,0,0,1-1.52-3.43,4.51,4.51,0,0,1,1.44-3.41,4.72,4.72,0,0,1,6.38-.16,4.55,4.55,0,0,1,1.64,3.64,4.41,4.41,0,0,1-1.29,3.12Zm-3.76-3.75,1.31,1.31a3.09,3.09,0,0,0,.87-2.23,3.35,3.35,0,0,0-1-2.44,3.23,3.23,0,0,0-2.4-1,3.16,3.16,0,0,0-2.39,1,3.42,3.42,0,0,0-.94,2.48,3.17,3.17,0,0,0,1,2.39,3.27,3.27,0,0,0,2.31,1,3.19,3.19,0,0,0,1.6-.4l-2.13-2.06h1.76Z"/><path class="cls-6" d="M157,421.31v3.28q0,1.42,1.12,1.42t1.12-1.42v-3.28h1.32v3.3a3.68,3.68,0,0,1-.17,1.18,2,2,0,0,1-.57.8,2.77,2.77,0,0,1-3.39,0,2,2,0,0,1-.58-0.8,3.26,3.26,0,0,1-.16-1.18v-3.3H157Z"/><path class="cls-6" d="M167.42,424.48h-4.09a1.73,1.73,0,0,0,.46,1.12,1.39,1.39,0,0,0,1,.41,1.35,1.35,0,0,0,.81-0.23,3.33,3.33,0,0,0,.72-0.87l1.11,0.62a4.43,4.43,0,0,1-.54.75,2.9,2.9,0,0,1-.62.52,2.47,2.47,0,0,1-.71.3,3.45,3.45,0,0,1-.83.09,2.69,2.69,0,0,1-2.05-.82,3.08,3.08,0,0,1-.77-2.19,3.16,3.16,0,0,1,.75-2.19,2.86,2.86,0,0,1,4,0,3.16,3.16,0,0,1,.73,2.21v0.31Zm-1.35-1.08a1.26,1.26,0,0,0-1.33-1.05,1.37,1.37,0,0,0-.45.07,1.29,1.29,0,0,0-.38.21,1.34,1.34,0,0,0-.3.33,1.54,1.54,0,0,0-.19.44h2.65Z"/><path class="cls-6" d="M170.18,417.12V427h-1.32v-9.9h1.32Z"/><path class="cls-6" d="M173.17,417.12V427h-1.32v-9.9h1.32Z"/><path class="cls-6" d="M180,424.48h-4.09a1.73,1.73,0,0,0,.46,1.12,1.39,1.39,0,0,0,1,.41,1.35,1.35,0,0,0,.81-0.23,3.33,3.33,0,0,0,.72-0.87l1.11,0.62a4.43,4.43,0,0,1-.54.75,2.9,2.9,0,0,1-.62.52,2.47,2.47,0,0,1-.71.3,3.45,3.45,0,0,1-.83.09,2.69,2.69,0,0,1-2.05-.82,3.08,3.08,0,0,1-.77-2.19,3.16,3.16,0,0,1,.75-2.19,2.86,2.86,0,0,1,4,0,3.16,3.16,0,0,1,.73,2.21v0.31Zm-1.35-1.08a1.26,1.26,0,0,0-1.33-1.05,1.37,1.37,0,0,0-.45.07,1.29,1.29,0,0,0-.38.21,1.34,1.34,0,0,0-.3.33,1.54,1.54,0,0,0-.19.44h2.65Z"/><path class="cls-6" d="M181.68,422a0.77,0.77,0,0,1,.24-0.56,0.81,0.81,0,1,1,0,1.15A0.79,0.79,0,0,1,181.68,422Zm0,4.41a0.81,0.81,0,0,1,1.63,0,0.79,0.79,0,0,1-.24.58,0.83,0.83,0,0,1-1.15,0A0.79,0.79,0,0,1,181.68,426.36Z"/><path class="cls-6" d="M191.63,419.26V427h-1.37v-7.76h-2.08V418h5.52v1.28h-2.07Z"/><path class="cls-6" d="M198.37,421.31h1.32V427h-1.32v-0.6a2.53,2.53,0,0,1-3.71-.09,3.18,3.18,0,0,1-.77-2.18,3.08,3.08,0,0,1,.77-2.14,2.47,2.47,0,0,1,1.92-.86,2.43,2.43,0,0,1,1.79.82v-0.66Zm-3.13,2.84a2,2,0,0,0,.44,1.34,1.44,1.44,0,0,0,1.14.52,1.51,1.51,0,0,0,1.18-.5,2.17,2.17,0,0,0,0-2.65,1.49,1.49,0,0,0-1.17-.51,1.46,1.46,0,0,0-1.14.52A1.9,1.9,0,0,0,195.25,424.15Z"/><path class="cls-6" d="M201.36,421.31h1.32v0.53a2.75,2.75,0,0,1,.65-0.54,1.58,1.58,0,0,1,.72-0.15,1.75,1.75,0,0,1,1.53.84,2,2,0,0,1,1.68-.84q1.93,0,1.93,2.34V427h-1.32v-3.17a2.45,2.45,0,0,0-.2-1.16,0.72,0.72,0,0,0-.67-0.35,0.86,0.86,0,0,0-.79.41,2.64,2.64,0,0,0-.25,1.32V427h-1.32v-3.15q0-1.52-.88-1.52a0.88,0.88,0,0,0-.81.42,2.59,2.59,0,0,0-.25,1.31V427h-1.32v-5.71Z"/><path class="cls-6" d="M216.05,424.48H212a1.73,1.73,0,0,0,.46,1.12,1.39,1.39,0,0,0,1,.41,1.35,1.35,0,0,0,.81-0.23,3.33,3.33,0,0,0,.72-0.87l1.11,0.62a4.43,4.43,0,0,1-.54.75,2.9,2.9,0,0,1-.62.52,2.47,2.47,0,0,1-.71.3,3.45,3.45,0,0,1-.83.09,2.69,2.69,0,0,1-2.05-.82,3.08,3.08,0,0,1-.77-2.19,3.16,3.16,0,0,1,.75-2.19,2.86,2.86,0,0,1,4,0,3.16,3.16,0,0,1,.73,2.21v0.31Zm-1.35-1.08a1.26,1.26,0,0,0-1.33-1.05,1.37,1.37,0,0,0-.45.07,1.29,1.29,0,0,0-.38.21,1.34,1.34,0,0,0-.3.33,1.54,1.54,0,0,0-.19.44h2.65Z"/><path class="cls-6" d="M221.7,417.12H223V427H221.7v-0.6a2.46,2.46,0,0,1-1.76.76,2.51,2.51,0,0,1-1.95-.86,3.18,3.18,0,0,1-.77-2.18A3.08,3.08,0,0,1,218,422a2.47,2.47,0,0,1,3.71,0v-4.85Zm-3.13,7a2,2,0,0,0,.44,1.34,1.44,1.44,0,0,0,1.14.52,1.51,1.51,0,0,0,1.18-.5,2.17,2.17,0,0,0,0-2.65,1.49,1.49,0,0,0-1.17-.51,1.46,1.46,0,0,0-1.14.52A1.9,1.9,0,0,0,218.57,424.15Z"/><path class="cls-6" d="M224.49,418.94a0.86,0.86,0,0,1,.86-0.85,0.83,0.83,0,0,1,.61.25,0.81,0.81,0,0,1,.25.6,0.83,0.83,0,0,1-.25.61,0.81,0.81,0,0,1-.6.25A0.86,0.86,0,0,1,224.49,418.94Zm1.52,2.37V427h-1.32v-5.71H226Z"/><path class="cls-6" d="M231.88,421.31h1.32V427h-1.32v-0.6a2.53,2.53,0,0,1-3.71-.09,3.18,3.18,0,0,1-.77-2.18,3.08,3.08,0,0,1,.77-2.14,2.47,2.47,0,0,1,1.92-.86,2.43,2.43,0,0,1,1.79.82v-0.66Zm-3.13,2.84a2,2,0,0,0,.44,1.34,1.44,1.44,0,0,0,1.14.52,1.51,1.51,0,0,0,1.18-.5,2.17,2.17,0,0,0,0-2.65,1.49,1.49,0,0,0-1.17-.51,1.46,1.46,0,0,0-1.14.52A1.9,1.9,0,0,0,228.75,424.15Z"/><path class="cls-6" d="M244.14,424.82h-3.87l-1,2.2h-1.47l4.48-9.62,4.32,9.62h-1.49Zm-0.56-1.28-1.34-3.08-1.41,3.08h2.75Z"/><path class="cls-6" d="M249,417.12V422a2.43,2.43,0,0,1,1.79-.82,2.47,2.47,0,0,1,1.92.86,3.08,3.08,0,0,1,.77,2.13,3.14,3.14,0,0,1-.77,2.18,2.49,2.49,0,0,1-1.94.86,2.47,2.47,0,0,1-1.77-.76V427h-1.32v-9.9H249Zm3.13,7.08a2,2,0,0,0-.45-1.34,1.43,1.43,0,0,0-1.13-.53,1.52,1.52,0,0,0-1.18.51,1.89,1.89,0,0,0-.45,1.31,1.92,1.92,0,0,0,.45,1.33,1.48,1.48,0,0,0,1.17.51,1.45,1.45,0,0,0,1.14-.51A1.87,1.87,0,0,0,252.09,424.21Z"/><path class="cls-6" d="M258.15,422.29l-1.09.58a0.75,0.75,0,0,0-.64-0.52,0.44,0.44,0,0,0-.31.12,0.4,0.4,0,0,0-.13.31,1,1,0,0,0,.76.65,4.52,4.52,0,0,1,1.41.83,1.42,1.42,0,0,1,.36,1,1.79,1.79,0,0,1-.61,1.38,2.19,2.19,0,0,1-3.46-.87l1.13-.52a2.45,2.45,0,0,0,.36.52,0.82,0.82,0,0,0,.57.22,0.57,0.57,0,0,0,.67-0.61,0.84,0.84,0,0,0-.52-0.66l-0.4-.19-0.4-.19a2.47,2.47,0,0,1-.81-0.56,1.39,1.39,0,0,1-.3-0.92,1.63,1.63,0,0,1,.51-1.23,1.79,1.79,0,0,1,1.27-.49A1.73,1.73,0,0,1,258.15,422.29Z"/><path class="cls-6" d="M261.06,422.54V427h-1.32v-4.48h-0.56v-1.23h0.56v-2.09h1.32v2.09h1v1.23h-1Z"/><path class="cls-6" d="M262.78,418.94a0.86,0.86,0,0,1,.86-0.85,0.83,0.83,0,0,1,.61.25,0.81,0.81,0,0,1,.25.6,0.83,0.83,0,0,1-.25.61,0.81,0.81,0,0,1-.6.25A0.86,0.86,0,0,1,262.78,418.94Zm1.52,2.37V427H263v-5.71h1.32Z"/><path class="cls-6" d="M266,421.31h1.32v0.53a2.75,2.75,0,0,1,.65-0.54,1.58,1.58,0,0,1,.72-0.15,1.75,1.75,0,0,1,1.53.84,2,2,0,0,1,1.68-.84q1.93,0,1.93,2.34V427h-1.32v-3.17a2.45,2.45,0,0,0-.2-1.16,0.72,0.72,0,0,0-.67-0.35,0.86,0.86,0,0,0-.79.41,2.64,2.64,0,0,0-.25,1.32V427h-1.32v-3.15q0-1.52-.88-1.52a0.88,0.88,0,0,0-.81.42,2.59,2.59,0,0,0-.25,1.31V427H266v-5.71Z"/><path class="cls-6" d="M275.46,421.31h1.32v0.53a2.75,2.75,0,0,1,.65-0.54,1.58,1.58,0,0,1,.72-0.15,1.75,1.75,0,0,1,1.53.84,2,2,0,0,1,1.68-.84q1.93,0,1.93,2.34V427H282v-3.17a2.45,2.45,0,0,0-.2-1.16,0.72,0.72,0,0,0-.67-0.35,0.86,0.86,0,0,0-.79.41,2.64,2.64,0,0,0-.25,1.32V427h-1.32v-3.15q0-1.52-.88-1.52a0.88,0.88,0,0,0-.81.42,2.59,2.59,0,0,0-.25,1.31V427h-1.32v-5.71Z"/><path class="cls-6" d="M286.27,421.31v3.28q0,1.42,1.12,1.42t1.12-1.42v-3.28h1.32v3.3a3.68,3.68,0,0,1-.17,1.18,2,2,0,0,1-.57.8,2.77,2.77,0,0,1-3.39,0,2,2,0,0,1-.58-0.8,3.26,3.26,0,0,1-.16-1.18v-3.3h1.32Z"/><path class="cls-6" d="M291.49,421.31h1.32v0.53a2.16,2.16,0,0,1,1.56-.69,2,2,0,0,1,1.55.63,2.57,2.57,0,0,1,.48,1.74V427h-1.32v-3.18a2.08,2.08,0,0,0-.23-1.16,1,1,0,0,0-.83-0.33,1,1,0,0,0-.93.43,3,3,0,0,0-.27,1.49V427h-1.32v-5.71Z"/><path class="cls-6" d="M303.59,426.89q0,0.4,0,.71a5,5,0,0,1-.07.54,2.41,2.41,0,0,1-.55,1.11,2.67,2.67,0,0,1-2.13.89,2.83,2.83,0,0,1-1.88-.62,2.53,2.53,0,0,1-.88-1.75h1.32a1.5,1.5,0,0,0,.25.65,1.42,1.42,0,0,0,1.2.53q1.45,0,1.45-1.77v-0.8a2.46,2.46,0,0,1-1.81.8,2.43,2.43,0,0,1-1.91-.84,3.13,3.13,0,0,1-.75-2.14,3.29,3.29,0,0,1,.7-2.12,2.42,2.42,0,0,1,2-.93,2.3,2.3,0,0,1,1.79.8v-0.64h1.32v5.57Zm-1.27-2.7a1.92,1.92,0,0,0-.45-1.33,1.47,1.47,0,0,0-1.15-.51,1.42,1.42,0,0,0-1.18.56,2.29,2.29,0,0,0,0,2.56,1.42,1.42,0,0,0,1.18.54,1.45,1.45,0,0,0,1.2-.55A2,2,0,0,0,302.33,424.18Z"/><path class="cls-6" d="M308.57,422.29l-1.09.58a0.75,0.75,0,0,0-.64-0.52,0.44,0.44,0,0,0-.31.12,0.4,0.4,0,0,0-.13.31,1,1,0,0,0,.76.65,4.52,4.52,0,0,1,1.41.83,1.42,1.42,0,0,1,.36,1,1.79,1.79,0,0,1-.61,1.38,2.19,2.19,0,0,1-3.46-.87l1.13-.52a2.45,2.45,0,0,0,.36.52,0.82,0.82,0,0,0,.57.22,0.57,0.57,0,0,0,.67-0.61,0.84,0.84,0,0,0-.52-0.66l-0.4-.19-0.4-.19a2.47,2.47,0,0,1-.81-0.56,1.39,1.39,0,0,1-.3-0.92,1.63,1.63,0,0,1,.51-1.23,1.79,1.79,0,0,1,1.27-.49A1.73,1.73,0,0,1,308.57,422.29Z"/><path class="cls-6" d="M313.44,422.29l-1.09.58a0.75,0.75,0,0,0-.64-0.52,0.44,0.44,0,0,0-.31.12,0.4,0.4,0,0,0-.13.31,1,1,0,0,0,.76.65,4.52,4.52,0,0,1,1.41.83,1.42,1.42,0,0,1,.36,1,1.79,1.79,0,0,1-.61,1.38,2.19,2.19,0,0,1-3.46-.87l1.13-.52a2.45,2.45,0,0,0,.36.52,0.82,0.82,0,0,0,.57.22,0.57,0.57,0,0,0,.67-0.61,0.84,0.84,0,0,0-.52-0.66l-0.4-.19-0.4-.19a2.47,2.47,0,0,1-.81-0.56,1.39,1.39,0,0,1-.3-0.92,1.63,1.63,0,0,1,.51-1.23,1.79,1.79,0,0,1,1.27-.49A1.73,1.73,0,0,1,313.44,422.29Z"/><path class="cls-6" d="M316.35,422.54V427H315v-4.48h-0.56v-1.23H315v-2.09h1.32v2.09h1v1.23h-1Z"/><path class="cls-6" d="M319.59,421.31v3.28q0,1.42,1.12,1.42t1.12-1.42v-3.28h1.32v3.3a3.68,3.68,0,0,1-.17,1.18,2,2,0,0,1-.57.8,2.77,2.77,0,0,1-3.39,0,2,2,0,0,1-.58-0.8,3.26,3.26,0,0,1-.16-1.18v-3.3h1.32Z"/><path class="cls-6" d="M329,417.12h1.32V427H329v-0.6a2.46,2.46,0,0,1-1.76.76,2.51,2.51,0,0,1-1.95-.86,3.18,3.18,0,0,1-.77-2.18,3.08,3.08,0,0,1,.77-2.13,2.47,2.47,0,0,1,3.71,0v-4.85Zm-3.13,7a2,2,0,0,0,.44,1.34,1.44,1.44,0,0,0,1.14.52,1.51,1.51,0,0,0,1.18-.5,2.17,2.17,0,0,0,0-2.65,1.49,1.49,0,0,0-1.17-.51,1.46,1.46,0,0,0-1.14.52A1.9,1.9,0,0,0,325.89,424.15Z"/><path class="cls-6" d="M331.81,418.94a0.86,0.86,0,0,1,.86-0.85,0.83,0.83,0,0,1,.61.25,0.81,0.81,0,0,1,.25.6,0.83,0.83,0,0,1-.25.61,0.81,0.81,0,0,1-.6.25A0.86,0.86,0,0,1,331.81,418.94Zm1.52,2.37V427H332v-5.71h1.32Z"/><path class="cls-6" d="M340.19,424.48H336.1a1.73,1.73,0,0,0,.46,1.12,1.39,1.39,0,0,0,1,.41,1.35,1.35,0,0,0,.81-0.23,3.33,3.33,0,0,0,.72-0.87l1.11,0.62a4.43,4.43,0,0,1-.54.75,2.9,2.9,0,0,1-.62.52,2.47,2.47,0,0,1-.71.3,3.45,3.45,0,0,1-.83.09,2.69,2.69,0,0,1-2.05-.82,3.08,3.08,0,0,1-.77-2.19,3.16,3.16,0,0,1,.75-2.19,2.86,2.86,0,0,1,4,0,3.16,3.16,0,0,1,.73,2.21v0.31Zm-1.35-1.08a1.26,1.26,0,0,0-1.33-1.05,1.37,1.37,0,0,0-.45.07,1.29,1.29,0,0,0-.38.21,1.34,1.34,0,0,0-.3.33,1.54,1.54,0,0,0-.19.44h2.65Z"/><path class="cls-6" d="M347.51,425.74h3.37V427h-6.08l3.14-3.8q0.46-.57.78-1a7.48,7.48,0,0,0,.48-0.7,2,2,0,0,0,.33-1,1.41,1.41,0,0,0-.45-1.06,1.59,1.59,0,0,0-2.67,1.2h-1.36q0.33-2.86,2.89-2.86a2.92,2.92,0,0,1,2.07.79,2.55,2.55,0,0,1,.84,1.95,3,3,0,0,1-.39,1.45,7.09,7.09,0,0,1-.58.88q-0.38.51-1,1.2Z"/><path class="cls-6" d="M352.42,422.44a5.45,5.45,0,0,1,1-3.45,2.63,2.63,0,0,1,4.37,0,6.61,6.61,0,0,1,0,7,2.68,2.68,0,0,1-2.18,1.17,2.71,2.71,0,0,1-2.19-1.17A5.65,5.65,0,0,1,352.42,422.44Zm1.35,0a5.37,5.37,0,0,0,.52,2.5,1.39,1.39,0,0,0,2.66,0,6,6,0,0,0,0-4.92,1.39,1.39,0,0,0-2.65,0A5,5,0,0,0,353.77,422.44Z"/><path class="cls-6" d="M361.65,419.26h-1.56l0.75-1.28H363v9h-1.37v-7.76Z"/><path class="cls-6" d="M369.46,417.66l1,0.75-2.16,2.94,0.3,0h0.19a2.54,2.54,0,0,1,1.9.84,2.79,2.79,0,0,1,.8,2,3,3,0,0,1-3,3,3,3,0,0,1-2.16-.87,2.77,2.77,0,0,1-.91-2.07,3.89,3.89,0,0,1,.88-2.27Zm0.7,6.58a1.72,1.72,0,1,0-1.71,1.69A1.71,1.71,0,0,0,370.16,424.24Z"/></g><path class="cls-6" d="M9.47,86.58H5.28L4.61,88.82l0.29,0H5.15a4.27,4.27,0,0,1,3.24,1.34,5.11,5.11,0,0,1-.17,6.93A5,5,0,0,1,4.6,98.45,4.78,4.78,0,0,1,.34,95.92l1.55-1.31a4.79,4.79,0,0,0,1.29,1.54,2.78,2.78,0,0,0,1.59.44,2.76,2.76,0,0,0,2.07-.86,3,3,0,0,0,.83-2.15,2.88,2.88,0,0,0-.83-2.13,2.76,2.76,0,0,0-2.07-.85,3,3,0,0,0-2.38,1.2H1.72l2.14-7.14H9.47v1.92Z"/><path class="cls-6" d="M11.87,91.36a8.18,8.18,0,0,1,1.51-5.18,3.95,3.95,0,0,1,6.56,0,8.33,8.33,0,0,1,1.51,5.26,8.32,8.32,0,0,1-1.51,5.26,4,4,0,0,1-3.27,1.75,4.07,4.07,0,0,1-3.29-1.75A8.47,8.47,0,0,1,11.87,91.36Zm2,0a8,8,0,0,0,.78,3.75,2.29,2.29,0,0,0,2,1.47,2.3,2.3,0,0,0,2-1.47,9,9,0,0,0,0-7.37,2.3,2.3,0,0,0-2-1.46,2.3,2.3,0,0,0-2,1.46A7.5,7.5,0,0,0,13.9,91.36Z"/><path class="cls-6" d="M8.88,148.95h1.44v1.86H8.88v1.92h-2v-1.92H0.17l8.71-12.66v10.79Zm-2,0V144.4L3.7,148.95H6.83Z"/><path class="cls-6" d="M11.87,145.86a8.18,8.18,0,0,1,1.51-5.18,3.95,3.95,0,0,1,6.56,0,9.91,9.91,0,0,1,0,10.52A4,4,0,0,1,16.67,153a4.07,4.07,0,0,1-3.29-1.75A8.47,8.47,0,0,1,11.87,145.86Zm2,0a8,8,0,0,0,.78,3.75,2.29,2.29,0,0,0,2,1.47,2.3,2.3,0,0,0,2-1.47,9,9,0,0,0,0-7.37,2.3,2.3,0,0,0-2-1.46,2.3,2.3,0,0,0-2,1.46A7.5,7.5,0,0,0,13.9,145.87Z"/><path class="cls-6" d="M4.66,201.37v-1.75a3.57,3.57,0,0,0,1.75-.29,1.79,1.79,0,0,0,.8-1.63,1.85,1.85,0,0,0-.58-1.42,2,2,0,0,0-1.49-.55,1.92,1.92,0,0,0-1.32.41,2.74,2.74,0,0,0-.67,1.42h-2a4.71,4.71,0,0,1,1.3-2.81,4,4,0,0,1,2.75-.89,4.08,4.08,0,0,1,2.91,1.05,3.52,3.52,0,0,1,1.13,2.7,3.34,3.34,0,0,1-1.48,2.9,3.45,3.45,0,0,1,1.7,3.23,3.92,3.92,0,0,1-1.23,3A4.43,4.43,0,0,1,5,207.89a4.05,4.05,0,0,1-3.64-1.8A4.68,4.68,0,0,1,.76,204h2a2.4,2.4,0,0,0,.77,1.51,2.36,2.36,0,0,0,1.59.52,2.21,2.21,0,0,0,1.64-.66,2.37,2.37,0,0,0,.65-1.71,2.09,2.09,0,0,0-1-2A3.61,3.61,0,0,0,4.66,201.37Z"/><path class="cls-6" d="M11.87,200.8a8.18,8.18,0,0,1,1.51-5.18,3.95,3.95,0,0,1,6.56,0,9.91,9.91,0,0,1,0,10.52,4,4,0,0,1-3.27,1.75,4.07,4.07,0,0,1-3.29-1.75A8.47,8.47,0,0,1,11.87,200.8Zm2,0a8,8,0,0,0,.78,3.75,2.29,2.29,0,0,0,2,1.47,2.3,2.3,0,0,0,2-1.47,9,9,0,0,0,0-7.37,2.3,2.3,0,0,0-2-1.46,2.3,2.3,0,0,0-2,1.46A7.5,7.5,0,0,0,13.9,200.81Z"/><path class="cls-6" d="M4.51,260.47H9.56v1.92H0.45l4.71-5.7q0.69-.85,1.17-1.48a11.4,11.4,0,0,0,.72-1,2.94,2.94,0,0,0,.5-1.49,2.12,2.12,0,0,0-.67-1.59,2.29,2.29,0,0,0-1.65-.64q-2.06,0-2.36,2.43h-2q0.49-4.29,4.33-4.29a4.38,4.38,0,0,1,3.11,1.18,3.83,3.83,0,0,1,1.27,2.92,4.43,4.43,0,0,1-.59,2.17,10.57,10.57,0,0,1-.87,1.31q-0.58.76-1.45,1.8Z"/><path class="cls-6" d="M11.87,255.52a8.18,8.18,0,0,1,1.51-5.18,3.95,3.95,0,0,1,6.56,0,9.91,9.91,0,0,1,0,10.52,4,4,0,0,1-3.27,1.75,4.07,4.07,0,0,1-3.29-1.75A8.47,8.47,0,0,1,11.87,255.52Zm2,0a8,8,0,0,0,.78,3.75,2.29,2.29,0,0,0,2,1.47,2.3,2.3,0,0,0,2-1.47,9,9,0,0,0,0-7.37,2.3,2.3,0,0,0-2-1.46,2.3,2.3,0,0,0-2,1.46A7.5,7.5,0,0,0,13.9,255.53Z"/><path class="cls-6" d="M5.42,305.48H3.07l1.13-1.92H7.47v13.57h-2V305.48Z"/><path class="cls-6" d="M11.33,310.25a8.18,8.18,0,0,1,1.51-5.18,3.95,3.95,0,0,1,6.56,0,9.91,9.91,0,0,1,0,10.52,4,4,0,0,1-3.27,1.75,4.07,4.07,0,0,1-3.29-1.75A8.47,8.47,0,0,1,11.33,310.25Zm2,0a8,8,0,0,0,.78,3.75,2.29,2.29,0,0,0,2,1.47,2.3,2.3,0,0,0,2-1.47,9,9,0,0,0,0-7.37,2.3,2.3,0,0,0-2-1.46,2.3,2.3,0,0,0-2,1.46A7.5,7.5,0,0,0,13.35,310.26Z"/><line class="cls-8" x1="40.23" y1="365.93" x2="516.28" y2="365.93"/><line class="cls-9" x1="40.23" y1="311.2" x2="516.28" y2="311.2"/><line class="cls-9" x1="40.23" y1="256.48" x2="516.28" y2="256.48"/><line class="cls-9" x1="40.23" y1="201.76" x2="516.28" y2="201.76"/><line class="cls-9" x1="40.23" y1="147.03" x2="516.28" y2="147.03"/><line class="cls-9" x1="40.23" y1="92.31" x2="516.28" y2="92.31"/><rect class="cls-10" x="53.39" y="196.29" width="65.76" height="169.64"/><g class="cls-11"><line class="cls-4" x1="126.46" y1="468.57" x2="237.34" y2="357.7"/><line class="cls-4" x1="126.46" y1="456.81" x2="237.34" y2="345.94"/><line class="cls-4" x1="126.46" y1="445.05" x2="237.34" y2="334.18"/><line class="cls-4" x1="126.46" y1="433.29" x2="237.34" y2="322.42"/><line class="cls-4" x1="126.46" y1="421.53" x2="237.34" y2="310.66"/><line class="cls-4" x1="126.46" y1="409.77" x2="237.34" y2="298.9"/><line class="cls-4" x1="126.46" y1="398.01" x2="237.34" y2="287.14"/><line class="cls-4" x1="126.46" y1="386.25" x2="237.34" y2="275.38"/><line class="cls-4" x1="126.46" y1="374.49" x2="237.34" y2="263.62"/><line class="cls-4" x1="126.46" y1="362.73" x2="237.34" y2="251.86"/><line class="cls-4" x1="126.46" y1="350.97" x2="237.34" y2="240.1"/><line class="cls-4" x1="126.46" y1="339.21" x2="237.34" y2="228.34"/><line class="cls-4" x1="126.46" y1="327.45" x2="237.34" y2="216.58"/><line class="cls-4" x1="126.46" y1="315.69" x2="237.34" y2="204.82"/><line class="cls-4" x1="126.46" y1="303.93" x2="237.34" y2="193.06"/><line class="cls-4" x1="126.46" y1="292.17" x2="237.34" y2="181.3"/><line class="cls-4" x1="126.46" y1="280.41" x2="237.34" y2="169.54"/><line class="cls-4" x1="126.46" y1="268.65" x2="237.34" y2="157.78"/><line class="cls-4" x1="126.46" y1="256.89" x2="237.34" y2="146.02"/><line class="cls-4" x1="126.46" y1="245.13" x2="237.34" y2="134.26"/><line class="cls-4" x1="126.46" y1="233.37" x2="237.34" y2="122.5"/><line class="cls-4" x1="126.46" y1="221.61" x2="237.34" y2="110.74"/><line class="cls-4" x1="126.46" y1="209.85" x2="237.34" y2="98.98"/></g><rect class="cls-10" x="208.84" y="147.03" width="65.76" height="218.89"/><g class="cls-12"><line class="cls-4" x1="281.91" y1="389.78" x2="392.78" y2="278.9"/><line class="cls-4" x1="281.91" y1="401.54" x2="392.78" y2="290.66"/><line class="cls-4" x1="281.91" y1="413.3" x2="392.78" y2="302.42"/><line class="cls-4" x1="281.91" y1="425.06" x2="392.78" y2="314.18"/><line class="cls-4" x1="281.91" y1="378.02" x2="392.78" y2="267.14"/><line class="cls-4" x1="281.91" y1="366.26" x2="392.78" y2="255.38"/><line class="cls-4" x1="281.91" y1="354.5" x2="392.78" y2="243.62"/><line class="cls-4" x1="281.91" y1="342.74" x2="392.78" y2="231.86"/><line class="cls-4" x1="281.91" y1="330.98" x2="392.78" y2="220.1"/><line class="cls-4" x1="281.91" y1="319.22" x2="392.78" y2="208.34"/><line class="cls-4" x1="281.91" y1="307.46" x2="392.78" y2="196.58"/><line class="cls-4" x1="281.91" y1="295.7" x2="392.78" y2="184.82"/><line class="cls-4" x1="281.91" y1="283.94" x2="392.78" y2="173.06"/><line class="cls-4" x1="281.91" y1="272.18" x2="392.78" y2="161.3"/><line class="cls-4" x1="281.91" y1="260.42" x2="392.78" y2="149.54"/><line class="cls-4" x1="281.91" y1="248.66" x2="392.78" y2="137.78"/><line class="cls-4" x1="281.91" y1="236.9" x2="392.78" y2="126.02"/><line class="cls-4" x1="281.91" y1="225.14" x2="392.78" y2="114.26"/><line class="cls-4" x1="281.91" y1="213.38" x2="392.78" y2="102.5"/><line class="cls-4" x1="281.91" y1="201.62" x2="392.78" y2="90.74"/><line class="cls-4" x1="281.91" y1="189.86" x2="392.78" y2="78.98"/><line class="cls-4" x1="281.91" y1="178.1" x2="392.78" y2="67.22"/><line class="cls-4" x1="281.91" y1="166.34" x2="392.78" y2="55.46"/><line class="cls-4" x1="281.91" y1="154.58" x2="392.78" y2="43.7"/><line class="cls-4" x1="281.91" y1="142.82" x2="392.78" y2="31.94"/><line class="cls-4" x1="281.91" y1="131.06" x2="392.78" y2="20.18"/></g><rect class="cls-10" x="364.29" y="125.15" width="65.76" height="240.78"/><g class="cls-13"><line class="cls-4" x1="437.35" y1="419.15" x2="548.23" y2="308.28"/><line class="cls-4" x1="437.35" y1="430.91" x2="548.23" y2="320.04"/><line class="cls-4" x1="437.35" y1="407.39" x2="548.23" y2="296.52"/><line class="cls-4" x1="437.35" y1="395.63" x2="548.23" y2="284.76"/><line class="cls-4" x1="437.35" y1="383.87" x2="548.23" y2="273"/><line class="cls-4" x1="437.35" y1="372.11" x2="548.23" y2="261.24"/><line class="cls-4" x1="437.35" y1="360.35" x2="548.23" y2="249.48"/><line class="cls-4" x1="437.35" y1="348.59" x2="548.23" y2="237.72"/><line class="cls-4" x1="437.35" y1="336.83" x2="548.23" y2="225.96"/><line class="cls-4" x1="437.35" y1="325.07" x2="548.23" y2="214.2"/><line class="cls-4" x1="437.35" y1="313.31" x2="548.23" y2="202.44"/><line class="cls-4" x1="437.35" y1="301.55" x2="548.23" y2="190.68"/><line class="cls-4" x1="437.35" y1="289.79" x2="548.23" y2="178.92"/><line class="cls-4" x1="437.35" y1="278.03" x2="548.23" y2="167.16"/><line class="cls-4" x1="437.35" y1="266.27" x2="548.23" y2="155.4"/><line class="cls-4" x1="437.35" y1="254.51" x2="548.23" y2="143.64"/><line class="cls-4" x1="437.35" y1="242.75" x2="548.23" y2="131.88"/><line class="cls-4" x1="437.35" y1="230.99" x2="548.23" y2="120.12"/><line class="cls-4" x1="437.35" y1="219.23" x2="548.23" y2="108.36"/><line class="cls-4" x1="437.35" y1="207.47" x2="548.23" y2="96.6"/><line class="cls-4" x1="437.35" y1="195.71" x2="548.23" y2="84.84"/><line class="cls-4" x1="437.35" y1="183.95" x2="548.23" y2="73.08"/><line class="cls-4" x1="437.35" y1="172.19" x2="548.23" y2="61.32"/><line class="cls-4" x1="437.35" y1="160.43" x2="548.23" y2="49.56"/></g><path class="cls-6" d="M79.79,400.09V386.52h2a8.93,8.93,0,0,1,2.17.21,3.26,3.26,0,0,1,1.38.71,3.69,3.69,0,0,1,.91,1.29,3.91,3.91,0,0,1,.34,1.58,3.21,3.21,0,0,1-1.12,2.47,3.28,3.28,0,0,1,1.71,1.29,3.82,3.82,0,0,1-.49,4.82,3.69,3.69,0,0,1-1.52.94,8.84,8.84,0,0,1-2.31.25h-3.1Zm2-7.74h0.64a2.37,2.37,0,0,0,1.67-.5,2,2,0,0,0,.53-1.49,1.87,1.87,0,0,0-.54-1.46,2.28,2.28,0,0,0-1.58-.5H81.84v3.95Zm0,5.82H83.1a3.14,3.14,0,0,0,2-.54,1.88,1.88,0,0,0,.69-1.49,1.91,1.91,0,0,0-.66-1.48,3.42,3.42,0,0,0-2.29-.59h-1v4.1Z"/><path class="cls-6" d="M96.37,391.53h2v8.56h-2v-0.9A3.8,3.8,0,0,1,90.8,399a4.77,4.77,0,0,1-1.15-3.27,4.63,4.63,0,0,1,1.15-3.21,3.71,3.71,0,0,1,2.88-1.28,3.64,3.64,0,0,1,2.68,1.23v-1Zm-4.69,4.25a3,3,0,0,0,.66,2,2.16,2.16,0,0,0,1.71.78,2.27,2.27,0,0,0,1.78-.76,3.25,3.25,0,0,0,0-4,2.24,2.24,0,0,0-1.76-.76,2.19,2.19,0,0,0-1.71.77A2.85,2.85,0,0,0,91.67,395.78Z"/><path class="cls-6" d="M105.82,393l-1.63.87a1.13,1.13,0,0,0-1-.78,0.66,0.66,0,0,0-.47.18,0.6,0.6,0,0,0-.19.46,1.49,1.49,0,0,0,1.14,1,6.83,6.83,0,0,1,2.12,1.25,2.13,2.13,0,0,1,.54,1.54,2.69,2.69,0,0,1-.91,2.07,3.28,3.28,0,0,1-5.19-1.31l1.69-.78a3.67,3.67,0,0,0,.54.78,1.22,1.22,0,0,0,.86.33,0.85,0.85,0,0,0,1-.91,1.25,1.25,0,0,0-.77-1l-0.6-.29-0.61-.29a3.71,3.71,0,0,1-1.21-.84,2.08,2.08,0,0,1-.45-1.38,2.44,2.44,0,0,1,.76-1.85,2.68,2.68,0,0,1,1.9-.73A2.59,2.59,0,0,1,105.82,393Z"/><path class="cls-6" d="M115.95,396.27h-6.13a2.6,2.6,0,0,0,.69,1.68,2.09,2.09,0,0,0,1.56.62,2,2,0,0,0,1.22-.35,5,5,0,0,0,1.08-1.3l1.67,0.93a6.65,6.65,0,0,1-.82,1.13,4.38,4.38,0,0,1-.92.77,3.73,3.73,0,0,1-1.06.44,5.18,5.18,0,0,1-1.24.14,4,4,0,0,1-3.08-1.23,4.62,4.62,0,0,1-1.16-3.29,4.74,4.74,0,0,1,1.13-3.29,4.29,4.29,0,0,1,6,0,4.74,4.74,0,0,1,1.09,3.31v0.47Zm-2-1.62a1.89,1.89,0,0,0-2-1.58,2.07,2.07,0,0,0-.68.11,2,2,0,0,0-.58.32,2,2,0,0,0-.44.5,2.31,2.31,0,0,0-.28.66h4Z"/><path class="cls-6" d="M120.09,385.24v14.84h-2V385.24h2Z"/><path class="cls-6" d="M121.34,394.88h3.92v1.72h-3.92v-1.72Z"/><path class="cls-6" d="M134.56,388.53l-1.66,1a2.86,2.86,0,0,0-.89-1.05,2.07,2.07,0,0,0-1.13-.28,2.09,2.09,0,0,0-1.42.48,1.5,1.5,0,0,0-.56,1.2,1.89,1.89,0,0,0,1.48,1.6l1.35,0.55a5.77,5.77,0,0,1,2.42,1.63,3.68,3.68,0,0,1,.76,2.36,4.15,4.15,0,0,1-1.25,3.1,4.28,4.28,0,0,1-3.12,1.23,4.16,4.16,0,0,1-2.92-1.05,4.83,4.83,0,0,1-1.42-2.95l2.07-.46a3.53,3.53,0,0,0,.49,1.65,2.34,2.34,0,0,0,3.44.24,2.22,2.22,0,0,0,.63-1.62,2.28,2.28,0,0,0-.11-0.72,1.85,1.85,0,0,0-.34-0.61,2.74,2.74,0,0,0-.6-0.52,5.8,5.8,0,0,0-.88-0.46l-1.31-.54q-2.79-1.18-2.79-3.44a3.27,3.27,0,0,1,1.17-2.56,4.23,4.23,0,0,1,2.91-1A4.06,4.06,0,0,1,134.56,388.53Z"/><path class="cls-6" d="M139.35,393.37v6.71h-2v-6.71h-0.84v-1.85h0.84v-3.14h2v3.14h1.54v1.85h-1.54Z"/><path class="cls-6" d="M148.71,391.53h2v8.56h-2v-0.9a3.8,3.8,0,0,1-5.56-.14,4.77,4.77,0,0,1-1.15-3.27,4.63,4.63,0,0,1,1.15-3.21,3.71,3.71,0,0,1,2.88-1.28,3.64,3.64,0,0,1,2.68,1.23v-1ZM144,395.78a3,3,0,0,0,.66,2,2.16,2.16,0,0,0,1.71.78,2.27,2.27,0,0,0,1.78-.76,3.25,3.25,0,0,0,0-4,2.24,2.24,0,0,0-1.76-.76,2.19,2.19,0,0,0-1.71.77A2.85,2.85,0,0,0,144,395.78Z"/><path class="cls-6" d="M159.5,385.24h2v14.84h-2v-0.9a3.69,3.69,0,0,1-2.65,1.14,3.77,3.77,0,0,1-2.92-1.28,4.77,4.77,0,0,1-1.15-3.27,4.61,4.61,0,0,1,1.15-3.2,3.7,3.7,0,0,1,5.56-.06v-7.28Zm-4.69,10.54a3,3,0,0,0,.66,2,2.16,2.16,0,0,0,1.71.78,2.27,2.27,0,0,0,1.78-.76,3.25,3.25,0,0,0,0-4,2.24,2.24,0,0,0-1.76-.76,2.19,2.19,0,0,0-1.71.77A2.85,2.85,0,0,0,154.8,395.78Z"/><path class="cls-6" d="M166,393.37v6.71h-2v-6.71H163.2v-1.85H164v-3.14h2v3.14h1.54v1.85H166Z"/><path class="cls-6" d="M240.42,400.09V386.52h2a8.93,8.93,0,0,1,2.17.21,3.26,3.26,0,0,1,1.38.71,3.69,3.69,0,0,1,.91,1.29,3.91,3.91,0,0,1,.34,1.58,3.21,3.21,0,0,1-1.12,2.47,3.28,3.28,0,0,1,1.71,1.29,3.82,3.82,0,0,1-.49,4.82,3.69,3.69,0,0,1-1.52.94,8.84,8.84,0,0,1-2.31.25h-3.1Zm2-7.74h0.64a2.37,2.37,0,0,0,1.67-.5,2,2,0,0,0,.53-1.49,1.87,1.87,0,0,0-.54-1.46,2.28,2.28,0,0,0-1.58-.5h-0.72v3.95Zm0,5.82h1.27a3.14,3.14,0,0,0,2-.54,1.88,1.88,0,0,0,.69-1.49,1.91,1.91,0,0,0-.66-1.48,3.42,3.42,0,0,0-2.29-.59h-1v4.1Z"/><path class="cls-6" d="M257,391.53h2v8.56h-2v-0.9a3.8,3.8,0,0,1-5.56-.14,4.77,4.77,0,0,1-1.15-3.27,4.63,4.63,0,0,1,1.15-3.21,3.71,3.71,0,0,1,2.88-1.28,3.64,3.64,0,0,1,2.68,1.23v-1Zm-4.69,4.25a3,3,0,0,0,.66,2,2.16,2.16,0,0,0,1.71.78,2.27,2.27,0,0,0,1.78-.76,3.25,3.25,0,0,0,0-4,2.24,2.24,0,0,0-1.76-.76,2.19,2.19,0,0,0-1.71.77A2.85,2.85,0,0,0,252.3,395.78Z"/><path class="cls-6" d="M266.46,393l-1.63.87a1.13,1.13,0,0,0-1-.78,0.66,0.66,0,0,0-.47.18,0.6,0.6,0,0,0-.19.46,1.49,1.49,0,0,0,1.14,1,6.83,6.83,0,0,1,2.12,1.25,2.13,2.13,0,0,1,.54,1.54,2.69,2.69,0,0,1-.91,2.07,3.28,3.28,0,0,1-5.19-1.31l1.69-.78a3.67,3.67,0,0,0,.54.78,1.22,1.22,0,0,0,.86.33,0.85,0.85,0,0,0,1-.91,1.25,1.25,0,0,0-.77-1l-0.6-.29-0.61-.29a3.71,3.71,0,0,1-1.21-.84,2.08,2.08,0,0,1-.45-1.38,2.44,2.44,0,0,1,.76-1.85,2.68,2.68,0,0,1,1.9-.73A2.59,2.59,0,0,1,266.46,393Z"/><path class="cls-6" d="M276.58,396.27h-6.13a2.6,2.6,0,0,0,.69,1.68,2.09,2.09,0,0,0,1.56.62,2,2,0,0,0,1.22-.35,5,5,0,0,0,1.08-1.3l1.67,0.93a6.65,6.65,0,0,1-.82,1.13,4.38,4.38,0,0,1-.92.77,3.73,3.73,0,0,1-1.06.44,5.18,5.18,0,0,1-1.24.14,4,4,0,0,1-3.08-1.23,4.62,4.62,0,0,1-1.16-3.29,4.74,4.74,0,0,1,1.13-3.29,4.29,4.29,0,0,1,6,0,4.74,4.74,0,0,1,1.09,3.31v0.47Zm-2-1.62a1.89,1.89,0,0,0-2-1.58,2.07,2.07,0,0,0-.68.11,2,2,0,0,0-.58.32,2,2,0,0,0-.44.5,2.31,2.31,0,0,0-.28.66h4Z"/><path class="cls-6" d="M280.72,385.24v14.84h-2V385.24h2Z"/><path class="cls-6" d="M285.2,385.24v14.84h-2V385.24h2Z"/><path class="cls-6" d="M294,391.53h2v8.56h-2v-0.9a3.8,3.8,0,0,1-5.56-.14,4.77,4.77,0,0,1-1.15-3.27,4.63,4.63,0,0,1,1.15-3.21,3.71,3.71,0,0,1,2.88-1.28,3.64,3.64,0,0,1,2.68,1.23v-1Zm-4.69,4.25a3,3,0,0,0,.66,2,2.16,2.16,0,0,0,1.71.78,2.27,2.27,0,0,0,1.78-.76,3.25,3.25,0,0,0,0-4,2.24,2.24,0,0,0-1.76-.76,2.19,2.19,0,0,0-1.71.77A2.85,2.85,0,0,0,289.32,395.78Z"/><path class="cls-6" d="M298.5,391.53h2v0.79a3.24,3.24,0,0,1,2.34-1,3,3,0,0,1,2.33.94,3.85,3.85,0,0,1,.72,2.61v5.25h-2v-4.78a3.13,3.13,0,0,0-.35-1.75,1.42,1.42,0,0,0-1.25-.49,1.53,1.53,0,0,0-1.4.65,4.47,4.47,0,0,0-.4,2.24v4.13h-2v-8.56Z"/><path class="cls-6" d="M314.68,385.24h2v14.84h-2v-0.9a3.69,3.69,0,0,1-2.65,1.14,3.77,3.77,0,0,1-2.92-1.28,4.77,4.77,0,0,1-1.15-3.27,4.61,4.61,0,0,1,1.15-3.2,3.7,3.7,0,0,1,5.56-.06v-7.28ZM310,395.78a3,3,0,0,0,.66,2,2.16,2.16,0,0,0,1.71.78,2.27,2.27,0,0,0,1.78-.76,3.25,3.25,0,0,0,0-4,2.24,2.24,0,0,0-1.76-.76,2.19,2.19,0,0,0-1.71.77A2.85,2.85,0,0,0,310,395.78Z"/><path class="cls-6" d="M409.46,388.53l-1.66,1a2.86,2.86,0,0,0-.89-1.05,2.07,2.07,0,0,0-1.13-.28,2.09,2.09,0,0,0-1.42.48,1.5,1.5,0,0,0-.56,1.2,1.89,1.89,0,0,0,1.48,1.6l1.35,0.55a5.77,5.77,0,0,1,2.42,1.63,3.68,3.68,0,0,1,.76,2.36,4.15,4.15,0,0,1-1.25,3.1,4.28,4.28,0,0,1-3.12,1.23,4.16,4.16,0,0,1-2.92-1.05,4.83,4.83,0,0,1-1.42-2.95l2.07-.46a3.53,3.53,0,0,0,.49,1.65,2.34,2.34,0,0,0,3.44.24,2.22,2.22,0,0,0,.63-1.62,2.28,2.28,0,0,0-.11-0.72,1.85,1.85,0,0,0-.34-0.61,2.74,2.74,0,0,0-.6-0.52,5.8,5.8,0,0,0-.88-0.46l-1.31-.54q-2.79-1.18-2.79-3.44a3.27,3.27,0,0,1,1.17-2.56,4.23,4.23,0,0,1,2.91-1A4.06,4.06,0,0,1,409.46,388.53Z"/><path class="cls-6" d="M418.56,391.9v2.63a4.82,4.82,0,0,0-1.21-1.13,2.36,2.36,0,0,0-1.24-.32,2.44,2.44,0,0,0-1.85.78,2.74,2.74,0,0,0-.74,2,2.81,2.81,0,0,0,.71,2,2.4,2.4,0,0,0,1.84.77,2.51,2.51,0,0,0,1.26-.31,5,5,0,0,0,1.24-1.16v2.61a5.19,5.19,0,0,1-2.41.62,4.61,4.61,0,0,1-3.32-1.28,4.28,4.28,0,0,1-1.34-3.21,4.34,4.34,0,0,1,1.35-3.23,4.58,4.58,0,0,1,3.32-1.32A5,5,0,0,1,418.56,391.9Z"/><path class="cls-6" d="M420.94,385.24h2v7a3.41,3.41,0,0,1,2.33-.95,3,3,0,0,1,2.32.94,3.83,3.83,0,0,1,.74,2.61v5.25h-2V395a2.42,2.42,0,0,0-.36-1.49,1.41,1.41,0,0,0-1.17-.46,1.61,1.61,0,0,0-1.46.64,4.4,4.4,0,0,0-.41,2.23v4.14h-2V385.24Z"/><path class="cls-6" d="M431.88,391.53l2.24,4.89,2.42-5.67,2.43,5.67,2.21-4.89h2.21l-4.48,9.2-2.38-5.51-2.41,5.51-4.47-9.2h2.22Z"/><path class="cls-6" d="M452.27,396.27h-6.13a2.6,2.6,0,0,0,.69,1.68,2.09,2.09,0,0,0,1.56.62,2,2,0,0,0,1.22-.35,5,5,0,0,0,1.08-1.3l1.67,0.93a6.65,6.65,0,0,1-.82,1.13,4.38,4.38,0,0,1-.92.77,3.73,3.73,0,0,1-1.06.44,5.18,5.18,0,0,1-1.24.14,4,4,0,0,1-3.08-1.23,4.62,4.62,0,0,1-1.16-3.29,4.74,4.74,0,0,1,1.13-3.29,4.29,4.29,0,0,1,6,0,4.74,4.74,0,0,1,1.09,3.31v0.47Zm-2-1.62a1.89,1.89,0,0,0-2-1.58,2.07,2.07,0,0,0-.68.11,2,2,0,0,0-.58.32,2,2,0,0,0-.44.5,2.31,2.31,0,0,0-.28.66h4Z"/><path class="cls-6" d="M454.13,388a1.29,1.29,0,0,1,1.28-1.27,1.25,1.25,0,0,1,.91.38,1.22,1.22,0,0,1,.38.91,1.25,1.25,0,0,1-.38.91,1.22,1.22,0,0,1-.91.38A1.29,1.29,0,0,1,454.13,388Zm2.28,3.56v8.56h-2v-8.56h2Z"/><path class="cls-6" d="M461.75,398.22h5.09v1.86h-9l5.55-6.71H459v-1.85h8.28Z"/><g class="cls-14"><line class="cls-4" x1="286.85" y1="609.51" x2="564.03" y2="332.32"/><line class="cls-4" x1="286.85" y1="621.27" x2="564.03" y2="344.08"/><line class="cls-4" x1="286.85" y1="633.03" x2="564.03" y2="355.84"/><line class="cls-4" x1="286.85" y1="644.79" x2="564.03" y2="367.6"/><line class="cls-4" x1="286.85" y1="656.55" x2="564.03" y2="379.36"/><line class="cls-4" x1="286.85" y1="668.31" x2="564.03" y2="391.12"/><line class="cls-4" x1="286.85" y1="680.07" x2="564.03" y2="402.88"/><line class="cls-4" x1="286.85" y1="691.83" x2="564.03" y2="414.64"/><line class="cls-4" x1="286.85" y1="703.59" x2="564.03" y2="426.4"/></g><rect class="cls-15" x="177.82" y="44.74" width="14.11" height="14.11"/><g class="cls-16"><line class="cls-17" x1="268.53" y1="74.39" x2="321.75" y2="21.17"/><line class="cls-17" x1="268.53" y1="68.74" x2="321.75" y2="15.52"/><line class="cls-17" x1="268.53" y1="63.1" x2="321.75" y2="9.88"/><line class="cls-17" x1="268.53" y1="57.45" x2="321.75" y2="4.23"/><line class="cls-17" x1="268.53" y1="51.81" x2="321.75" y2="-1.41"/><line class="cls-17" x1="268.53" y1="46.16" x2="321.75" y2="-7.05"/></g><rect class="cls-2" x="269" y="45.5" width="14.11" height="14.11"/><path class="cls-6" d="M300,47.64h-3.68v2.54h3.55v1.5h-3.55v5h-1.59V46.15H300v1.5Z"/><path class="cls-6" d="M301.37,50h1.54v0.59a3,3,0,0,1,.75-0.61,1.73,1.73,0,0,1,.79-0.17,2.48,2.48,0,0,1,1.27.4L305,51.66a1.47,1.47,0,0,0-.86-0.31q-1.26,0-1.26,1.9V56.7h-1.54V50Z"/><path class="cls-6" d="M311.42,50H313V56.7h-1.54V56a3,3,0,0,1-4.33-.11,3.72,3.72,0,0,1-.89-2.54,3.6,3.6,0,0,1,.89-2.5,2.89,2.89,0,0,1,2.24-1,2.83,2.83,0,0,1,2.09,1V50Zm-3.65,3.31a2.32,2.32,0,0,0,.51,1.56,1.68,1.68,0,0,0,1.33.61,1.76,1.76,0,0,0,1.38-.59,2.53,2.53,0,0,0,0-3.09,1.74,1.74,0,0,0-1.37-.59,1.7,1.7,0,0,0-1.33.6A2.22,2.22,0,0,0,307.77,53.35Z"/><path class="cls-6" d="M316.44,50v3.82q0,1.65,1.31,1.65t1.3-1.65V50h1.54V53.9a4.27,4.27,0,0,1-.2,1.38,2.31,2.31,0,0,1-.66.94,3.23,3.23,0,0,1-4,0,2.35,2.35,0,0,1-.68-0.94,3.78,3.78,0,0,1-.19-1.38V50h1.54Z"/><path class="cls-6" d="M328.6,53.73h-4.77a2,2,0,0,0,.53,1.31,1.63,1.63,0,0,0,1.21.48,1.57,1.57,0,0,0,.95-0.27,3.9,3.9,0,0,0,.84-1l1.3,0.72a5.1,5.1,0,0,1-.64.88,3.35,3.35,0,0,1-.72.6,2.87,2.87,0,0,1-.83.35,4,4,0,0,1-1,.11,3.13,3.13,0,0,1-2.39-1,3.59,3.59,0,0,1-.9-2.56,3.69,3.69,0,0,1,.88-2.56,3.33,3.33,0,0,1,4.66,0,3.69,3.69,0,0,1,.85,2.58v0.36ZM327,52.48a1.47,1.47,0,0,0-1.55-1.23,1.58,1.58,0,0,0-.53.09,1.47,1.47,0,0,0-.45.25,1.54,1.54,0,0,0-.35.39,1.76,1.76,0,0,0-.22.51H327Z"/><path class="cls-6" d="M330.28,50h1.54v0.62a2.52,2.52,0,0,1,1.82-.8,2.3,2.3,0,0,1,1.81.73,3,3,0,0,1,.56,2V56.7h-1.54V53a2.44,2.44,0,0,0-.27-1.36,1.1,1.1,0,0,0-1-.38,1.19,1.19,0,0,0-1.09.5,3.48,3.48,0,0,0-.31,1.74V56.7h-1.54V50Z"/><path class="cls-6" d="M203.13,55.94l2.22-11.35L209,52.8l3.75-8.2,2,11.35h-1.63l-1-6.37-3.12,6.86-3-6.86-1.13,6.38h-1.65Z"/><path class="cls-6" d="M221.57,49.29h1.54v6.66h-1.54v-0.7a3,3,0,0,1-4.33-.11,3.71,3.71,0,0,1-.9-2.54,3.6,3.6,0,0,1,.9-2.5,2.89,2.89,0,0,1,2.24-1,2.83,2.83,0,0,1,2.08,1V49.29Zm-4-2.12a0.91,0.91,0,0,1,.29-0.68,1,1,0,0,1,1.38,0,0.92,0.92,0,0,1,.29.68,1,1,0,0,1-.29.7,1,1,0,0,1-.69.28,1,1,0,0,1-.7-0.29A1,1,0,0,1,217.53,47.17Zm0.39,5.43a2.32,2.32,0,0,0,.51,1.56,1.68,1.68,0,0,0,1.33.61,1.77,1.77,0,0,0,1.38-.59,2.53,2.53,0,0,0,0-3.09,1.74,1.74,0,0,0-1.37-.59,1.7,1.7,0,0,0-1.33.6A2.22,2.22,0,0,0,217.92,52.59Zm2.47-5.43a0.91,0.91,0,0,1,.29-0.68,1,1,0,0,1,.69-0.29,1,1,0,0,1,1,1,1,1,0,0,1-.29.7,1,1,0,0,1-.69.28A1,1,0,0,1,220.39,47.17Z"/><path class="cls-6" d="M225.06,49.29h1.54V49.9a2.52,2.52,0,0,1,1.82-.8,2.3,2.3,0,0,1,1.81.73,3,3,0,0,1,.56,2v4.08h-1.54V52.23a2.43,2.43,0,0,0-.27-1.36,1.1,1.1,0,0,0-1-.38,1.19,1.19,0,0,0-1.09.5,3.47,3.47,0,0,0-.31,1.74v3.21h-1.54V49.29Z"/><path class="cls-6" d="M232.73,49.29h1.54V49.9a2.52,2.52,0,0,1,1.82-.8,2.3,2.3,0,0,1,1.81.73,3,3,0,0,1,.56,2v4.08h-1.54V52.23a2.43,2.43,0,0,0-.27-1.36,1.1,1.1,0,0,0-1-.38,1.19,1.19,0,0,0-1.09.5,3.47,3.47,0,0,0-.31,1.74v3.21h-1.54V49.29Z"/><path class="cls-6" d="M246.47,53H241.7a2,2,0,0,0,.53,1.31,1.62,1.62,0,0,0,1.21.48,1.57,1.57,0,0,0,1-.27,3.9,3.9,0,0,0,.84-1l1.3,0.72a5.1,5.1,0,0,1-.64.88,3.36,3.36,0,0,1-.72.6,2.86,2.86,0,0,1-.83.35,4,4,0,0,1-1,.11,3.14,3.14,0,0,1-2.39-1,3.59,3.59,0,0,1-.9-2.56,3.69,3.69,0,0,1,.88-2.56,3.33,3.33,0,0,1,4.66,0,3.68,3.68,0,0,1,.85,2.58V53Zm-1.58-1.26a1.47,1.47,0,0,0-1.55-1.23,1.58,1.58,0,0,0-.53.09,1.48,1.48,0,0,0-.45.25,1.54,1.54,0,0,0-.35.39,1.79,1.79,0,0,0-.22.51h3.09Z"/><path class="cls-6" d="M248.16,49.29h1.54v0.59a2.94,2.94,0,0,1,.75-0.61,1.72,1.72,0,0,1,.79-0.17,2.48,2.48,0,0,1,1.27.4l-0.7,1.41a1.47,1.47,0,0,0-.85-0.31q-1.26,0-1.26,1.9v3.45h-1.54V49.29Z"/></svg>